<?xml version="1.0" encoding="UTF-8"?>
<svg id="Layer_1" data-name="Layer 1" xmlns="http://www.w3.org/2000/svg" viewBox="0 0 600 600">
  <defs>
    <style>
      .cls-1 {
        fill: #e0e0df;
      }
    </style>
  </defs>
  <path class="cls-1" d="M398.83,216.81h-197.66c-16.69,0-20.55,35.65-18.07,52.16l21.51,122.25c2.01,13.35,13.48,23.23,26.99,23.23h1.62c-5.87,0-10.62,4.76-10.62,10.62s4.76,10.62,10.62,10.62c-5.87,0-10.62,4.76-10.62,10.62s4.76,10.62,10.62,10.62c-5.87,0-10.62,4.76-10.62,10.62s4.76,10.62,10.62,10.62h34.91v83.49h63.75v-83.49h34.91c5.87,0,10.62-4.76,10.62-10.62s-4.76-10.62-10.62-10.62c5.87,0,10.62-4.76,10.62-10.62s-4.76-10.62-10.62-10.62c5.87,0,10.62-4.76,10.62-10.62s-4.76-10.62-10.62-10.62h1.62c13.51,0,24.98-9.88,26.99-23.23l21.51-122.25c2.48-16.5-1.38-52.16-18.07-52.16Z"/>
  <path class="cls-1" d="M357.2,58.05h-4.81l-1.13-3.8c0-8.8-7.14-15.94-15.94-15.94h-70.64c-8.8,0-15.94,7.13-15.94,15.94l-1.13,3.8h-4.81c-22.26,0-40.31,18.05-40.31,40.31v107.44h195.03v-107.44c0-22.26-18.05-40.31-40.31-40.31ZM242.2,114.71h-16.19v-40.52h16.19v40.52ZM268.56,114.71h-16.19v-40.52h16.19v40.52ZM294.92,114.71h-16.19v-40.52h16.19v40.52ZM321.27,114.71h-16.19v-40.52h16.19v40.52ZM347.63,114.71h-16.19v-40.52h16.19v40.52ZM373.99,114.71h-16.19v-40.52h16.19v40.52Z"/>
</svg>