<?xml version="1.0" encoding="UTF-8"?>
<svg id="Layer_1" data-name="Layer 1" xmlns="http://www.w3.org/2000/svg" viewBox="0 0 600 600">
  <defs>
    <style>
      .cls-1 {
        fill: #e0e0df;
      }
    </style>
  </defs>
  <path class="cls-1" d="M377.85,198.67c0-8.31-2.59-14.77-7.76-19.35-5.18-4.58-13.03-6.87-23.55-6.87h-28v52.19h28c10.52,0,18.37-2.29,23.55-6.87,5.17-4.58,7.76-10.94,7.76-19.09Z"/>
  <path class="cls-1" d="M351.46,481.79v-6.77c0-8.98-7.28-16.25-16.25-16.25h-13.54v-54.84h102.91c32.16,0,58.23-26.07,58.23-58.23V96.54c0-32.16-26.07-58.23-58.23-58.23h-249.16c-32.16,0-58.23,26.07-58.23,58.23v249.16c0,32.16,26.07,58.23,58.23,58.23h102.91v54.84h-13.54c-8.97,0-16.25,7.27-16.25,16.25v6.77H88.76v56.87h159.79v6.77c0,8.98,7.28,16.25,16.25,16.25h70.41c8.97,0,16.25-7.27,16.25-16.25v-6.77h159.79v-56.87h-159.79ZM232.24,310.93h-50.41v-178.2h50.41v178.2ZM318.54,310.93h-50.41v-178.2h81.46c16.12,0,30.12,2.67,42,8.02,11.88,5.35,21.04,12.94,27.5,22.78,6.45,9.85,9.67,21.56,9.67,35.13s-3.23,25.04-9.67,34.88c-6.45,9.85-15.62,17.44-27.5,22.78-11.88,5.35-25.88,8.02-42,8.02h-31.06v46.59Z"/>
</svg>