<svg xmlns="http://www.w3.org/2000/svg" viewBox="0 0 68.65 75.71"><defs><style>.cls-1{fill:#dfdfdf;}.cls-2{fill:none;}.cls-3{fill:#a4a4a4;}</style></defs><g id="Layer_2" data-name="Layer 2"><g id="Layer_1-2" data-name="Layer 1"><path class="cls-1" d="M38.53,73c-19.89,0-36-16.34-36-36.5A36.62,36.62,0,0,1,11,12.94,36.59,36.59,0,0,0,36,75.71h32.6V73Z"/><path class="cls-2" d="M37.23,9.93a28.61,28.61,0,0,0-19.82,8A29.43,29.43,0,0,0,10.84,36.5,29.08,29.08,0,0,0,39.73,65.77a28.6,28.6,0,0,0,19.82-8,29.43,29.43,0,0,0,6.57-18.59A29.09,29.09,0,0,0,37.23,9.93Z"/><path class="cls-1" d="M68.63,36.5A29.08,29.08,0,0,0,39.73,7.23,28.7,28.7,0,0,0,17.41,17.91a28.61,28.61,0,0,1,19.82-8A29.09,29.09,0,0,1,66.12,39.21,29.43,29.43,0,0,1,59.55,57.8,29.41,29.41,0,0,0,68.63,36.5Z"/><path class="cls-3" d="M38.53,0A35.77,35.77,0,0,0,11,12.94,36.62,36.62,0,0,0,2.51,36.5c0,20.16,16.13,36.5,36,36.5h30.1l0-73Zm1.2,65.77A29.08,29.08,0,0,1,10.84,36.5a29.43,29.43,0,0,1,6.57-18.59A28.7,28.7,0,0,1,39.73,7.23,29.08,29.08,0,0,1,68.63,36.5a29.41,29.41,0,0,1-9.08,21.3A28.6,28.6,0,0,1,39.73,65.77Z"/></g></g></svg>