<svg xmlns="http://www.w3.org/2000/svg" viewBox="0 0 104.35 34.71"><defs><style>.cls-1{fill:#d0d2d3;}.cls-2{fill:#989898;}</style></defs><g id="Layer_2" data-name="Layer 2"><g id="Layer_1-2" data-name="Layer 1"><path class="cls-1" d="M94.16,20.38h-7.8A2.38,2.38,0,0,1,84,18V2.42A2.42,2.42,0,0,1,86.39,0h15.44a2.52,2.52,0,0,1,2.52,2.52V17.88a2.5,2.5,0,0,1-2.51,2.5Zm8.56-10.17a8.64,8.64,0,1,0-8.78,8.62A8.64,8.64,0,0,0,102.72,10.21Zm0,7.71a.9.9,0,0,0-.9-.9.91.91,0,1,0,0,1.81A.9.9,0,0,0,102.72,17.92ZM85.45,2.44a.88.88,0,0,0,.88.92.9.9,0,0,0,.92-.91.92.92,0,0,0-.9-.91A.9.9,0,0,0,85.45,2.44Zm17.27,0a.9.9,0,0,0-.9-.91.93.93,0,0,0-.92.9.93.93,0,0,0,.93.92A.9.9,0,0,0,102.72,2.45ZM86.35,17a.88.88,0,0,0-.9.89.89.89,0,0,0,.91.92.91.91,0,0,0,0-1.81Z"/><path class="cls-2" d="M100.8,9.7a5.14,5.14,0,0,0-5.52-.78l-.34-.16c-1.65-1.67,3.26-3.6,4.69-3.11A6.9,6.9,0,0,0,95.26,3.1C92.85,3,92,6.59,92.76,8.47c.25.69.26.67-.24,1.2a.38.38,0,0,1-.57.05c-1.83-1.07-2.33-3.11-2.23-5.12-1.51,1.22-3.78,4.49-2,6.2a4.87,4.87,0,0,0,4.83.82c.65-.26.63-.26,1.12.22.45,2-3.25,3.16-4.94,2.89,1.2,1.47,4.31,3.65,6,1.91A4.62,4.62,0,0,0,95.57,12c-.4-3.86,3.89,1,3,3.73C100.1,14.78,102.22,11.33,100.8,9.7Z"/><rect class="cls-2" x="85.52" y="21.36" width="17.27" height="3.28" rx="0.38"/><rect class="cls-2" x="87.05" y="23.44" width="14.22" height="3.42" rx="0.38"/><path class="cls-1" d="M91.11,29.29V28.11c0-.15,0-.25.23-.22h2.21c.2,0,.26.07.26.25v2.3a.34.34,0,0,1-.19.31,2.63,2.63,0,0,1-2.32,0,.31.31,0,0,1-.19-.34Z"/><path class="cls-1" d="M91.53,31.69A3.83,3.83,0,0,0,94,31.38a.48.48,0,0,1,.29,0,3.76,3.76,0,0,0,2.44.34c-.19.21-.42.42-.61.6-.49.46-1,.92-1.44,1.37a.89.89,0,0,1-.94.09C93,33.08,92.28,32.39,91.53,31.69Z"/><path class="cls-1" d="M94.52,29.29V28.11c0-.15,0-.25.22-.22H97c.19,0,.26.07.26.25v2.3a.35.35,0,0,1-.2.31,2.61,2.61,0,0,1-2.31,0,.3.3,0,0,1-.19-.34Z"/><polygon class="cls-1" points="23.48 26.31 4.16 0.83 0 0.83 0 34.71 4.71 34.71 4.71 9.12 24.04 34.71 28.19 34.71 28.19 0.83 23.48 0.83 23.48 26.31"/><polygon class="cls-1" points="31.97 32.36 31.24 34.71 36.11 34.71 46.59 0.83 41.73 0.83 31.97 32.36"/><path class="cls-1" d="M65.24.83h-4.9L48,34.71h5L56.16,26H69.42l3.2,8.76h5Zm2.47,20.41H57.86L62.79,7.72Z"/></g></g></svg>