<svg xmlns="http://www.w3.org/2000/svg" viewBox="0 0 184.16 57.76"><defs><style>.cls-1,.cls-2{fill:#d0d2d3;}.cls-2{font-size:65.05px;font-family:Momcake-Thin, Momcake;font-weight:200;}.cls-3{letter-spacing:-0.02em;}.cls-4{letter-spacing:-0.03em;}</style></defs><g id="Layer_2" data-name="Layer 2"><g id="Layer_1-2" data-name="Layer 1"><path class="cls-1" d="M4.75,22.35c1.55-2.91,7.4-4.21,10.42-4.75,7.55-1.36,22-1.3,28.19,3.51,1.13.92,1.4,2.07.26,3.12A10.36,10.36,0,0,1,40,26.33c-8.74,3.22-22.18,3.28-30.94,0-1.63-.65-3.45-1.49-4.35-3.13Zm36.31,1.43a1,1,0,0,0,.7-1,1.08,1.08,0,0,0-.71-1c-7.53-3.51-19-3.56-27.11-1.92a23.64,23.64,0,0,0-5.89,1.93,1,1,0,0,0-.69,1,1.06,1.06,0,0,0,.7,1,17.94,17.94,0,0,0,4,1.48C20.27,27.2,30.36,28.46,41.06,23.78Z" transform="translate(0)"/><path class="cls-1" d="M4.75,44.12a5.88,5.88,0,0,1,2.6-2.31v2.35c0,.9.13,1.12.85,1.46,8.43,3.8,23.06,3.78,31.69.45.42-.16.82-.36,1.22-.55a1.14,1.14,0,0,0,.66-1.18c0-.88,0-1.6,0-2.53a5.8,5.8,0,0,1,2.39,2c.85,1.41-1,2.73-2.08,3.32-8.13,4.34-23.36,4.24-32,1.32C8.15,47.79,5.8,46.86,4.75,45Z" transform="translate(0)"/><path class="cls-1" d="M25,46.53c-5.76-.05-10.61-.42-15.65-2.47A.47.47,0,0,1,9,43.52c0-.68,0-1.37,0-2.05,0-.33.05-.4.34-.29a30.49,30.49,0,0,0,5.74,1.56c7.93,1.33,17,1.23,24.59-1.56.28-.1.39-.1.38.29,0,.69,0,1.37,0,2.06a.47.47,0,0,1-.35.53C35.28,46,29.52,46.53,25,46.53Z" transform="translate(0)"/><path class="cls-1" d="M9,29.64c.05-.33-.18-.93.1-1.16s.7.14,1.06.24a52.78,52.78,0,0,0,19.89,1.73,45.65,45.65,0,0,0,9.55-2c.37-.12.46-.06.44.38a16.62,16.62,0,0,0,0,1.73.55.55,0,0,1-.38.62,27.47,27.47,0,0,1-6.1,1.72C26,34.18,16.66,34.09,9.46,31.24A.55.55,0,0,1,9,30.56C9.07,30.3,9,30,9,29.64Z" transform="translate(0)"/><path class="cls-1" d="M25.91,41.58a12.54,12.54,0,0,1-2.68.07c-4.69-.3-9.53-.65-13.93-2.56A.41.41,0,0,1,9,38.66c-.09-1.58-.1-1.57,1.19-1.12,8.67,2.81,20.84,2.84,29.44-.29.35-.14.41-.06.41.35,0,1.41,0,1.42-1.16,1.86A41.86,41.86,0,0,1,25.91,41.58Z" transform="translate(0)"/><path class="cls-1" d="M24.9,37.63c-5.59,0-10.55-.44-15.52-2.47-.24-.11-.37-.22-.34-.53,0-.47-.17-1.12.08-1.35s.73.2,1.11.32C19,36.34,31,36.46,39.63,33.29c.42-.16.46,0,.45.4,0,1.34,0,1.35-1.12,1.78A41.51,41.51,0,0,1,24.9,37.63Z" transform="translate(0)"/><path class="cls-1" d="M7.77,28.79c0-1,0-1.05-.89-1.29-3.3-1-6.28.29-6.75,4-.27,1.71-.24,1.71,1.26,1.68.29,0,.38-.1.38-.42A5.63,5.63,0,0,1,2,31.06a2.4,2.4,0,0,1,2-1.8,6.73,6.73,0,0,1,3.2.42c.5.18.5.18.5-.45Z" transform="translate(0)"/><ellipse class="cls-1" cx="24.76" cy="22.77" rx="6.89" ry="1.15"/><text class="cls-2" transform="translate(56.04 49.37) scale(1.01 1)">n<tspan class="cls-3" x="32.91" y="0">/</tspan><tspan class="cls-4" x="50.48" y="0">a</tspan></text></g></g></svg>