<svg xmlns="http://www.w3.org/2000/svg" viewBox="0 0 196.37 58.41"><defs><style>.cls-1{font-size:65.78px;font-family:Momcake-Thin, Momcake;font-weight:200;}.cls-1,.cls-4{fill:#fff;}.cls-2{letter-spacing:-0.01em;}.cls-3{letter-spacing:-0.05em;}</style></defs><g id="Layer_2" data-name="Layer 2"><g id="Layer_1-2" data-name="Layer 1"><text class="cls-1" transform="translate(47.91 49.93)"><tspan class="cls-2">p</tspan><tspan x="28.02" y="0">e</tspan><tspan class="cls-3" x="54.86" y="0">t</tspan><tspan x="84.92" y="0">g</tspan></text><path class="cls-4" d="M24.78,18.11c2.56,1.35,3.71,6.44,4.18,9.07,1.2,6.56,1.14,19.1-3.09,24.51-.81,1-1.82,1.21-2.74.22a9,9,0,0,1-1.85-3.11c-2.83-7.6-2.88-19.29,0-26.9A7.06,7.06,0,0,1,24,18.11ZM23.53,49.69a.88.88,0,0,0,.86.6.92.92,0,0,0,.89-.61c3.09-6.55,3.13-16.56,1.69-23.57A20.21,20.21,0,0,0,25.27,21a.91.91,0,0,0-.85-.6,1,1,0,0,0-.9.61,15,15,0,0,0-1.3,3.49C20.52,31.61,19.41,40.39,23.53,49.69Z" transform="translate(0)"/><path class="cls-4" d="M5.64,18.11a5.24,5.24,0,0,1,2,2.27H5.61c-.8,0-1,.11-1.29.74C1,28.45,1,41.17,3.92,48.67c.15.36.33.71.49,1.06a1,1,0,0,0,1,.57H7.67a5,5,0,0,1-1.75,2.07c-1.24.74-2.4-.87-2.93-1.8C-.82,43.5-.74,30.25,1.83,22.72c.59-1.65,1.4-3.69,3.05-4.61Z" transform="translate(0)"/><path class="cls-4" d="M3.52,35.74c0-5,.37-9.23,2.17-13.61a.43.43,0,0,1,.48-.29q.9,0,1.8,0c.29,0,.35.05.25.3a27.35,27.35,0,0,0-1.37,5C5.68,34,5.77,41.89,8.22,48.52c.1.24.09.33-.25.32-.6,0-1.21,0-1.81,0a.42.42,0,0,1-.47-.3C4,44.66,3.52,39.65,3.52,35.74Z" transform="translate(0)"/><path class="cls-4" d="M18.38,21.85c.28,0,.81-.16,1,.08s-.13.61-.22.92a45.72,45.72,0,0,0-1.52,17.3,39.65,39.65,0,0,0,1.72,8.3c.11.33.05.41-.33.39a13,13,0,0,0-1.53,0,.48.48,0,0,1-.54-.33,23.7,23.7,0,0,1-1.51-5.3c-1.09-6.58-1-14.74,1.49-21a.5.5,0,0,1,.6-.37A7.13,7.13,0,0,0,18.38,21.85Z" transform="translate(0)"/><path class="cls-4" d="M7.87,36.52a11.28,11.28,0,0,1-.06-2.33c.27-4.08.57-8.29,2.25-12.11a.37.37,0,0,1,.38-.24c1.39-.07,1.38-.08,1,1C9,30.42,8.93,41,11.68,48.48c.12.3.05.36-.3.36-1.25,0-1.26,0-1.64-1A36.08,36.08,0,0,1,7.87,36.52Z" transform="translate(0)"/><path class="cls-4" d="M11.35,35.64c0-4.86.38-9.18,2.17-13.5a.4.4,0,0,1,.47-.3c.4,0,1-.15,1.18.07s-.17.64-.28,1c-2.41,7.61-2.51,18,.27,25.57.14.36,0,.39-.35.39-1.17,0-1.19,0-1.57-1A35.68,35.68,0,0,1,11.35,35.64Z" transform="translate(0)"/><path class="cls-4" d="M19.12,20.74c.92,0,.92,0,1.13-.78.86-2.86-.25-5.45-3.5-5.86-1.51-.23-1.5-.21-1.48,1.09,0,.25.09.33.37.34a5,5,0,0,1,1.49.22,2.11,2.11,0,0,1,1.58,1.78,5.78,5.78,0,0,1-.38,2.78c-.15.43-.15.43.41.43Z" transform="translate(0)"/><ellipse class="cls-4" cx="24.42" cy="35.52" rx="1.01" ry="5.99"/></g></g></svg>