<svg xmlns="http://www.w3.org/2000/svg" viewBox="0 0 176.02 58.41"><defs><style>.cls-1{font-size:65.78px;font-family:Momcake-Thin, Momcake;font-weight:200;letter-spacing:-0.01em;}.cls-1,.cls-3{fill:#fff;}.cls-2{letter-spacing:-0.03em;}</style></defs><g id="Layer_2" data-name="Layer 2"><g id="Layer_1-2" data-name="Layer 1"><text class="cls-1" transform="translate(47.91 49.93)">pl<tspan class="cls-2" x="55.19" y="0">a</tspan></text><path class="cls-3" d="M24.78,18.12c2.56,1.34,3.71,6.44,4.18,9.06,1.2,6.56,1.14,19.1-3.09,24.51-.81,1-1.82,1.21-2.74.22a9,9,0,0,1-1.85-3.1c-2.83-7.61-2.88-19.3,0-26.91.58-1.41,1.31-3,2.75-3.78ZM23.53,49.69a.91.91,0,0,0,.86.61.94.94,0,0,0,.89-.62c3.09-6.54,3.13-16.55,1.69-23.57A20.27,20.27,0,0,0,25.27,21a.91.91,0,0,0-.85-.61.94.94,0,0,0-.9.62,14.94,14.94,0,0,0-1.3,3.48C20.52,31.62,19.41,40.39,23.53,49.69Z" transform="translate(0)"/><path class="cls-3" d="M5.64,18.12a5.16,5.16,0,0,1,2,2.26H5.61c-.8,0-1,.11-1.29.74C1,28.45,1,41.17,3.92,48.68c.15.36.33.7.49,1.06a1,1,0,0,0,1,.57c.77,0,1.41,0,2.22,0a5,5,0,0,1-1.75,2.07c-1.24.74-2.4-.87-2.93-1.8C-.82,43.5-.74,30.25,1.83,22.72c.59-1.65,1.4-3.69,3.05-4.6Z" transform="translate(0)"/><path class="cls-3" d="M3.52,35.75c0-5,.37-9.24,2.17-13.62a.44.44,0,0,1,.48-.29c.6,0,1.2,0,1.8,0,.29,0,.35,0,.25.29a27.45,27.45,0,0,0-1.37,5C5.68,34,5.77,41.89,8.22,48.52c.1.24.09.33-.25.32-.6,0-1.21,0-1.81,0a.42.42,0,0,1-.47-.29C4,44.66,3.52,39.65,3.52,35.75Z" transform="translate(0)"/><path class="cls-3" d="M18.38,21.85c.28,0,.81-.16,1,.09s-.13.6-.22.92a45.69,45.69,0,0,0-1.52,17.29,39.87,39.87,0,0,0,1.72,8.31c.11.32.05.4-.33.38s-1,0-1.53,0a.47.47,0,0,1-.54-.33,23.62,23.62,0,0,1-1.51-5.29c-1.09-6.59-1-14.74,1.49-21a.5.5,0,0,1,.6-.38A7.13,7.13,0,0,0,18.38,21.85Z" transform="translate(0)"/><path class="cls-3" d="M7.87,36.52a11.26,11.26,0,0,1-.06-2.33c.27-4.08.57-8.29,2.25-12.11a.38.38,0,0,1,.38-.24c1.39-.07,1.38-.08,1,1.05C9,30.43,8.93,41,11.68,48.48c.12.31.05.36-.3.36-1.25,0-1.26,0-1.64-1A36.19,36.19,0,0,1,7.87,36.52Z" transform="translate(0)"/><path class="cls-3" d="M11.35,35.64c0-4.86.38-9.17,2.17-13.5a.41.41,0,0,1,.47-.29c.4,0,1-.15,1.18.06s-.17.64-.28,1c-2.41,7.61-2.51,18,.27,25.57.14.36,0,.39-.35.39-1.17,0-1.19,0-1.57-1A35.77,35.77,0,0,1,11.35,35.64Z" transform="translate(0)"/><path class="cls-3" d="M19.12,20.75c.92,0,.92,0,1.13-.78.86-2.87-.25-5.46-3.5-5.87-1.51-.23-1.5-.21-1.48,1.1,0,.25.09.33.37.33a5.32,5.32,0,0,1,1.49.22,2.12,2.12,0,0,1,1.58,1.78,5.78,5.78,0,0,1-.38,2.78c-.15.44-.15.44.41.44Z" transform="translate(0)"/><ellipse class="cls-3" cx="24.42" cy="35.52" rx="1.01" ry="5.99"/></g></g></svg>