<svg xmlns="http://www.w3.org/2000/svg" viewBox="0 0 105.85 90.07"><defs><style>.cls-1{fill:#a4a4a4;}.cls-2{fill:#dfdfdf;}</style></defs><g id="Layer_2" data-name="Layer 2"><g id="Layer_1-2" data-name="Layer 1"><path class="cls-1" d="M51.31,26.72q20.75,0,41.49,0a8.17,8.17,0,0,1,5.06,1.4,7,7,0,0,1,3.13,6c-.12,15.26,0,30.52-.08,45.77A10.16,10.16,0,0,1,90.69,90.05l-69.95,0c-3.35,0-6.71,0-10.06,0a9.83,9.83,0,0,1-9.14-5.27,21.53,21.53,0,0,1-1-2.05,6.44,6.44,0,0,1-.5-1.8q0-23.4,0-46.8a5.64,5.64,0,0,1,.48-2.3,8,8,0,0,1,6.55-5,35.49,35.49,0,0,1,5.55-.21H13c3.93,0,7.86,0,11.79,0H51.31ZM52.12,58h0c0-1.17,0-2.34,0-3.51,0-.37,2-3.63,2.37-3.55.83.19-.25,3.49.57,3.73a23.08,23.08,0,0,1,12.13,8.09A22.07,22.07,0,0,1,71.93,78a1.88,1.88,0,0,0,0,.75c.14.41.37.73.83.74A1.12,1.12,0,0,0,74,78.91a24.74,24.74,0,0,0,3-9.72,24.84,24.84,0,0,0-7.31-19.9A25.4,25.4,0,0,0,52.5,41.84c-.38,0-.49-.15-.49-.52,0-2,0-4,0-6.06,0-1.19-.84-1.62-1.86-1l-5.57,3.49L30.1,46.81c-1,.62-1,1.42,0,2.08q2.64,1.78,5.29,3.56c3.44,2.3,6.88,4.61,10.32,6.9l4.51,3a1.22,1.22,0,0,0,1.31.21,1.29,1.29,0,0,0,.6-1.3C52.11,60.16,52.12,59.08,52.12,58Z"/><path class="cls-1" d="M100.84,23.47a9.39,9.39,0,0,0-5.54-3,17.5,17.5,0,0,0-3.39-.28l-66.27,0c-5.73,0-11.47,0-17.2,0a13.41,13.41,0,0,0-5.48,1A10.43,10.43,0,0,0,.78,22.52c-.18.14-.36.34-.62.19S0,22.32,0,22.12c0-3,0-6.06,0-9.09a1.67,1.67,0,0,1,.21-.82,20.77,20.77,0,0,1,2-3.43C4.32,6.24,10,.24,13.26.23,23.39.2,30.53,5,40.67,5c.79,0,1.58,0,2.37,0A3.52,3.52,0,0,1,45.66,6c2,2.08,4.12,4.1,6.1,6.22a4.66,4.66,0,0,0,4,1.49l.54,0c9.18,0,18.36,0,27.54,0,2.41,0,4.83-.1,7.24.08,4.8.37,9.81-3.5,11.18,1.11.16.52,3.29,3.16,3.4,3.69,0,.19-4.69,4.71-4.87,4.91Z"/><path class="cls-2" d="M56.18,21.81H97.67a8.21,8.21,0,0,1,5.06,1.4,7,7,0,0,1,3.12,6c-.12,15.26,0,30.51-.07,45.77A10.18,10.18,0,0,1,95.55,85.14H25.61c-3.36,0-6.71,0-10.06,0a9.8,9.8,0,0,1-9.14-5.28,20.42,20.42,0,0,1-1-2.05A6.31,6.31,0,0,1,4.88,76q0-23.4,0-46.8a5.8,5.8,0,0,1,.47-2.3,8,8,0,0,1,6.55-5,34.43,34.43,0,0,1,5.56-.2h.38l11.79,0H56.18ZM54.33,54.86h0c0-1.18,0-2.35,0-3.52,0-.37.11-.47.47-.39.83.19,1.65.34,2.47.57a23.16,23.16,0,0,1,12.13,8.1,22,22,0,0,1,4.79,15.19,1.74,1.74,0,0,0,.06.75c.13.4.36.73.82.74a1.18,1.18,0,0,0,1.16-.53,24.73,24.73,0,0,0,3-9.72,24.87,24.87,0,0,0-7.31-19.91A25.43,25.43,0,0,0,54.71,38.7c-.38,0-.49-.16-.49-.52,0-2,0-4,0-6.06,0-1.2-.84-1.62-1.86-1l-5.57,3.49L32.31,43.67c-1,.62-1,1.42,0,2.08q2.63,1.78,5.28,3.56l10.32,6.9,4.51,3a1.26,1.26,0,0,0,1.31.21,1.29,1.29,0,0,0,.6-1.3C54.32,57,54.33,55.94,54.33,54.86Z"/><path class="cls-2" d="M105.7,18.55a9.4,9.4,0,0,0-5.53-3,17.57,17.57,0,0,0-3.39-.28l-66.27,0c-5.74,0-11.47,0-17.21,0a13.75,13.75,0,0,0-5.48,1A10.54,10.54,0,0,0,5.65,17.6c-.18.14-.36.35-.62.2s-.14-.39-.14-.59q0-4.55,0-9.09a1.66,1.66,0,0,1,.2-.82,22.26,22.26,0,0,1,2-3.43,9.89,9.89,0,0,1,8-3.79q15.2,0,30.4,0l2.38,0a3.48,3.48,0,0,1,2.62,1.08c2,2.08,4.11,4.1,6.09,6.22a4.73,4.73,0,0,0,4,1.49l.54,0c9.18,0,18.35,0,27.53,0,2.42,0,4.84-.11,7.25.08a9.78,9.78,0,0,1,9.31,7.52c.15.52.29,1,.4,1.57,0,.2.18.41,0,.62Z"/></g></g></svg>