<svg xmlns="http://www.w3.org/2000/svg" viewBox="0 0 191.41 234.79"><defs><style>.cls-1{fill:#dfdfdf;}.cls-2{fill:#a4a4a4;}</style></defs><g id="Layer_2" data-name="Layer 2"><g id="Layer_1-2" data-name="Layer 1"><path class="cls-1" d="M82.09,69.31V45.52a.4.4,0,0,0-.42-.38l-1.61-3.3a25.72,25.72,0,0,0-3.23,3.68V71.25"/><path class="cls-1" d="M90.37,41.84a25.66,25.66,0,0,0-3.22,3.68V84.38a.39.39,0,0,0,.41.38H92a.4.4,0,0,0,.41-.38V45.52a.4.4,0,0,0-.41-.38Z"/><path class="cls-1" d="M110.72,63.49V41.29c0-3.26,0-9.36-3.59-9.36-7.58,0-9.4,6.1-9.4,9.36V63.82"/><path class="cls-1" d="M69.21,41.75a27.14,27.14,0,0,0-3.33,3.77v97.89a.39.39,0,0,0,.41.37h4.42a.4.4,0,0,0,.42-.37V45.52a.4.4,0,0,0-.42-.38Z"/><path class="cls-1" d="M45.52,43.65a14.86,14.86,0,0,0-1.63,1.87v97.89a.39.39,0,0,0,.41.37h4.43a26.4,26.4,0,0,0,3.55-3.46l-3.14-94.8a19.5,19.5,0,0,0-2-3.68Z"/><path class="cls-1" d="M57.94,41.84a25.66,25.66,0,0,0-3.22,3.68v97.89a.4.4,0,0,0,.41.37h4.43a.39.39,0,0,0,.41-.37V45.52a.39.39,0,0,0-.41-.38Z"/><path class="cls-1" d="M25.79,41.29V147.63c0,3.26,2.91,5.91,6.5,5.91,6.7,0,9.64-5.07,9.64-8.33L38.79,41.29c0-3.26-.68-9.26-4.27-9.3C29.29,31.93,25.79,38,25.79,41.29Z"/><path class="cls-2" d="M85.22,65.85V42.06a.39.39,0,0,0-.41-.38H80.38a.4.4,0,0,0-.41.38V67.79"/><path class="cls-2" d="M90.7,41.68a.4.4,0,0,0-.42.38V80.92a.4.4,0,0,0,.42.38h4.42a.4.4,0,0,0,.42-.38V42.06a.4.4,0,0,0-.42-.38Z"/><path class="cls-2" d="M113.86,60V37.83c0-3.26-2.91-5.9-6.5-5.9s-6.5,2.64-6.5,5.9V60.36"/><path class="cls-2" d="M69.43,41.68a.4.4,0,0,0-.42.38V140a.4.4,0,0,0,.42.37h4.42a.4.4,0,0,0,.42-.37V42.06a.4.4,0,0,0-.42-.38Z"/><path class="cls-2" d="M47.44,41.68a.4.4,0,0,0-.42.38V140a.4.4,0,0,0,.42.37h4.42a.4.4,0,0,0,.42-.37V42.06a.4.4,0,0,0-.42-.38Z"/><path class="cls-2" d="M58.27,41.68a.39.39,0,0,0-.41.38V140a.39.39,0,0,0,.41.37H62.7a.39.39,0,0,0,.41-.37V42.06a.39.39,0,0,0-.41-.38Z"/><path class="cls-2" d="M28.93,37.83V144.18c0,3.26,2.91,5.9,6.5,5.9s6.5-2.64,6.5-5.9V37.83c0-3.26-2.91-5.9-6.5-5.9S28.93,34.57,28.93,37.83Z"/><path class="cls-1" d="M167.32,2.87l2.29,41.69-2.29,2.33h-9v-35h-4.45v-9L156.18.54Z"/><path class="cls-1" d="M67.65,171.35H21c-5.72,0-10.36-4.31-10.36-9.63V24c0-5.32,4.64-9.63,10.36-9.63h93.3c5.72,0,10.36,4.31,10.36,9.63V61.88H135.3V24a20.78,20.78,0,0,0-21-20.51L21.19.54C7.61.54,0,12.66,0,24V161.72a20.78,20.78,0,0,0,21,20.51H67.65Z"/><path class="cls-1" d="M175.45,56H66.77c-6.66,0-12.07,4.9-12.07,11V223.83c0,6,5.41,11,12.07,11H175.45c6.66,0,15.08-6.85,15.08-12.9L187.51,67C187.51,60.92,182.11,56,175.45,56ZM91.64,202.22c0,3.26-2.91,5.9-6.5,5.9h0c-3.59,0-6.49-2.64-6.49-5.9V95.88c0-3.26,2.9-5.9,6.49-5.9h0c3.59,0,6.5,2.64,6.5,5.9ZM102,198a.39.39,0,0,1-.41.38H97.15a.39.39,0,0,1-.41-.38V100.11a.39.39,0,0,1,.41-.38h4.43a.39.39,0,0,1,.41.38Zm10.84,0a.4.4,0,0,1-.42.38H108a.4.4,0,0,1-.42-.38V100.11a.4.4,0,0,1,.42-.38h4.42a.4.4,0,0,1,.42.38ZM124,198a.4.4,0,0,1-.41.38h-4.43a.39.39,0,0,1-.41-.38V100.11a.39.39,0,0,1,.41-.38h4.43a.4.4,0,0,1,.41.38Zm11,0a.4.4,0,0,1-.42.38H130.1a.4.4,0,0,1-.42-.38V100.11a.4.4,0,0,1,.42-.38h4.42a.4.4,0,0,1,.42.38Zm10.31,0a.39.39,0,0,1-.41.38h-4.43A.39.39,0,0,1,140,198V100.11a.39.39,0,0,1,.41-.38h4.43a.39.39,0,0,1,.41.38Zm18.32,4.23c0,3.26-2.91,5.9-6.5,5.9h0c-3.58,0-6.49-2.64-6.49-5.9V95.88c0-3.26,2.91-5.9,6.49-5.9h0c3.59,0,6.5,2.64,6.5,5.9Z"/><path class="cls-2" d="M70.79,167.89H24.14c-5.72,0-10.36-4.31-10.36-9.63V20.51c0-5.32,4.64-9.62,10.36-9.62h93.29c5.72,0,10.36,4.3,10.36,9.62V58.42h10.64V20.51A20.78,20.78,0,0,0,117.43,0H24.14a20.78,20.78,0,0,0-21,20.51V158.26a20.78,20.78,0,0,0,21,20.51H70.79Z"/><path class="cls-2" d="M179.34,52.37H70.66c-6.66,0-12.07,4.91-12.07,11V220.18c0,6.06,5.41,11,12.07,11H179.34c6.66,0,12.07-4.9,12.07-11V63.33C191.41,57.28,186,52.37,179.34,52.37ZM95.53,198.58c0,3.25-2.91,5.9-6.5,5.9h0c-3.58,0-6.49-2.65-6.49-5.9V92.23c0-3.26,2.91-5.9,6.49-5.9h0c3.59,0,6.5,2.64,6.5,5.9Zm10.35-4.23a.39.39,0,0,1-.41.37H101a.4.4,0,0,1-.41-.37V96.46a.4.4,0,0,1,.41-.38h4.43a.39.39,0,0,1,.41.38Zm10.84,0a.4.4,0,0,1-.42.37h-4.42a.4.4,0,0,1-.42-.37V96.46a.4.4,0,0,1,.42-.38h4.42a.4.4,0,0,1,.42.38Zm11.15,0a.39.39,0,0,1-.41.37H123a.39.39,0,0,1-.41-.37V96.46a.39.39,0,0,1,.41-.38h4.43a.39.39,0,0,1,.41.38Zm11,0a.4.4,0,0,1-.41.37H134a.39.39,0,0,1-.41-.37V96.46a.39.39,0,0,1,.41-.38h4.43a.4.4,0,0,1,.41.38Zm10.31,0a.39.39,0,0,1-.41.37H144.3a.39.39,0,0,1-.41-.37V96.46a.39.39,0,0,1,.41-.38h4.43a.39.39,0,0,1,.41.38Zm18.32,4.23c0,3.25-2.91,5.9-6.49,5.9h0c-3.59,0-6.5-2.65-6.5-5.9V92.23c0-3.26,2.91-5.9,6.5-5.9h0c3.58,0,6.49,2.64,6.49,5.9Z"/><path class="cls-2" d="M169.61.54v44h-9v-35h-4.45v-9Z"/></g></g></svg>