<svg xmlns="http://www.w3.org/2000/svg" viewBox="0 0 206.02 235.85"><defs><style>.cls-1{fill:#a4a4a4;}.cls-2{fill:#dfdfdf;}</style></defs><g id="Layer_2" data-name="Layer 2"><g id="Layer_1-2" data-name="Layer 1"><path class="cls-1" d="M10.49,188.07H59.76V221.6c0,7.86,7,14.25,15.51,14.25H186.69c8.56,0,18.75-8.23,18.75-16.09L202.21,74.38c0-7.85-7-14.24-15.52-14.24H134.13V19.23c0-7.9-4.71-14.33-10.49-14.33L14.3,1.25C8.52,1.25,0,11.33,0,19.23V173.74C0,181.64,4.71,188.07,10.49,188.07ZM194.07,74.38V221.6c0,3.73-3.31,6.77-7.38,6.77H75.27c-4.06,0-7.37-3-7.37-6.77V74.38c0-3.73,3.31-6.77,7.37-6.77H186.69C190.76,67.61,194.07,70.65,194.07,74.38ZM102.68,33.26a6.34,6.34,0,0,1,6.59,6.05V60.14H96.1V39.31A6.34,6.34,0,0,1,102.68,33.26Zm-16.88,10h4.48a.4.4,0,0,1,.42.38v16.5H85.38V43.64A.4.4,0,0,1,85.8,43.26Zm-10.45,0h4.49a.4.4,0,0,1,.42.38v16.5H74.93V43.64A.4.4,0,0,1,75.35,43.26Zm-11.1,0h4.48a.4.4,0,0,1,.42.38V61.29a15.79,15.79,0,0,0-5.32,3.48V43.64A.4.4,0,0,1,64.25,43.26Zm-11.72.38a.4.4,0,0,1,.42-.38h4.48a.4.4,0,0,1,.42.38V143.93a.4.4,0,0,1-.42.39H53a.4.4,0,0,1-.42-.39Zm-11,0a.4.4,0,0,1,.42-.38h4.49a.4.4,0,0,1,.42.38V143.93a.4.4,0,0,1-.42.39H42a.4.4,0,0,1-.42-.39ZM23.22,39.31a6.34,6.34,0,0,1,6.59-6.05,6.34,6.34,0,0,1,6.58,6.05v109a6.33,6.33,0,0,1-6.58,6,6.33,6.33,0,0,1-6.59-6Z"/><path class="cls-1" d="M95.21,207.28h0c7.73,0,10.39-5.44,10.39-8.78L101.79,92.28c0-3.34,1.49-7.06-2.15-7.06l-.45-2.64c-9,0-10.56,6.36-10.56,9.7v109A6.32,6.32,0,0,0,95.21,207.28Z"/><path class="cls-1" d="M168.09,207.28h0c7.33,0,10.32-5.49,10.32-8.83L174.67,92.28c0-3.34-1.91-7.23-5.55-7.23l2.94-2.47c-9.59.34-10.56,6.36-10.56,9.7v109A6.33,6.33,0,0,0,168.09,207.28Z"/><path class="cls-1" d="M151.21,197.29h4.48a33.14,33.14,0,0,0,4.09-3.75l-3.67-96.93a.4.4,0,0,0-.42-.38l-.88-3.6a33.59,33.59,0,0,0-4,4v100.3A.4.4,0,0,0,151.21,197.29Z"/><path class="cls-1" d="M140.76,197.29h4.48a33.65,33.65,0,0,0,4.12-3.78l-3.7-96.9a.4.4,0,0,0-.42-.38l-.9-3.6a34.18,34.18,0,0,0-4,4v100.3A.4.4,0,0,0,140.76,197.29Z"/><path class="cls-1" d="M129.66,197.29h4.48a33.65,33.65,0,0,0,4.12-3.78l-3.7-96.9a.4.4,0,0,0-.42-.38l-.93-3.57a32.92,32.92,0,0,0-4,4v100.3A.4.4,0,0,0,129.66,197.29Z"/><path class="cls-1" d="M118.35,197.29h4.49a33.65,33.65,0,0,0,4.12-3.78l-3.7-96.9a.4.4,0,0,0-.42-.38l-.93-3.57a33,33,0,0,0-4,4v100.3A.4.4,0,0,0,118.35,197.29Z"/><path class="cls-1" d="M107.38,197.29h4.48a33.65,33.65,0,0,0,4.12-3.78l-3.7-96.9a.4.4,0,0,0-.42-.38l-.94-3.57a33.58,33.58,0,0,0-4,4v100.3A.4.4,0,0,0,107.38,197.29Z"/><path class="cls-2" d="M14.3,184.42H63.57V218c0,7.85,7,14.25,15.51,14.25H190.5c8.56,0,15.52-6.4,15.52-14.25V70.73c0-7.85-7-14.25-15.52-14.25H137.94V15.58c0-7.91-4.71-14.33-10.49-14.33H14.3C8.52,1.25,3.81,7.67,3.81,15.58V170.09C3.81,178,8.52,184.42,14.3,184.42ZM197.88,70.73V218c0,3.73-3.31,6.77-7.38,6.77H79.08c-4.06,0-7.37-3-7.37-6.77V70.73C71.71,67,75,64,79.08,64H190.5C194.57,64,197.88,67,197.88,70.73ZM106.49,29.61a6.34,6.34,0,0,1,6.59,6V56.48H99.91V35.65A6.33,6.33,0,0,1,106.49,29.61Zm-16.88,10h4.48a.4.4,0,0,1,.42.39V56.48H89.19V40A.41.41,0,0,1,89.61,39.6Zm-10.45,0h4.49a.4.4,0,0,1,.41.39V56.48H78.74V40A.41.41,0,0,1,79.16,39.6Zm-11.1,0h4.48A.4.4,0,0,1,73,40V57.64a15.79,15.79,0,0,0-5.32,3.48V40A.41.41,0,0,1,68.06,39.6ZM56.34,40a.41.41,0,0,1,.42-.39h4.48a.41.41,0,0,1,.42.39V140.28a.41.41,0,0,1-.42.39H56.76a.41.41,0,0,1-.42-.39Zm-11,0a.41.41,0,0,1,.42-.39h4.49a.41.41,0,0,1,.42.39V140.28a.41.41,0,0,1-.42.39H45.78a.41.41,0,0,1-.42-.39ZM27,35.65a6.34,6.34,0,0,1,6.59-6,6.33,6.33,0,0,1,6.58,6v109a6.34,6.34,0,0,1-6.58,6,6.34,6.34,0,0,1-6.59-6Z"/><path class="cls-2" d="M99,203.63h0a6.32,6.32,0,0,0,6.58-6v-109a6.33,6.33,0,0,0-6.58-6h0a6.33,6.33,0,0,0-6.58,6v109A6.32,6.32,0,0,0,99,203.63Z"/><path class="cls-2" d="M171.9,203.63h0a6.33,6.33,0,0,0,6.58-6v-109a6.34,6.34,0,0,0-6.58-6h0a6.34,6.34,0,0,0-6.59,6v109A6.33,6.33,0,0,0,171.9,203.63Z"/><path class="cls-2" d="M155,193.64h4.48a.4.4,0,0,0,.42-.39V93a.4.4,0,0,0-.42-.38H155a.4.4,0,0,0-.42.38V193.25A.4.4,0,0,0,155,193.64Z"/><path class="cls-2" d="M144.57,193.64h4.48a.4.4,0,0,0,.42-.39V93a.4.4,0,0,0-.42-.38h-4.48a.4.4,0,0,0-.42.38V193.25A.4.4,0,0,0,144.57,193.64Z"/><path class="cls-2" d="M133.46,193.64H138a.4.4,0,0,0,.42-.39V93a.4.4,0,0,0-.42-.38h-4.49a.39.39,0,0,0-.41.38V193.25A.4.4,0,0,0,133.46,193.64Z"/><path class="cls-2" d="M122.16,193.64h4.49a.4.4,0,0,0,.42-.39V93a.4.4,0,0,0-.42-.38h-4.49a.4.4,0,0,0-.42.38V193.25A.4.4,0,0,0,122.16,193.64Z"/><path class="cls-2" d="M111.19,193.64h4.48a.4.4,0,0,0,.42-.39V93a.4.4,0,0,0-.42-.38h-4.48a.4.4,0,0,0-.42.38V193.25A.4.4,0,0,0,111.19,193.64Z"/><path class="cls-1" d="M182.4,28.66,169.31,42.14l20.54,7-2.76,2.54H153.94V43.11l21.11-21.73c3.18-3.28,1.11-8.77-4-8.89-1.58,0-4.13,3-4.13,3l-2.76,2.54-9.71-2.42C156.55,8.67,163.53,0,172.6,0,186.85,0,192.1,18.67,182.4,28.66Z"/><path class="cls-2" d="M185.16,26.12,172.07,39.6h17.78v9.56H156.7V40.57l21.11-21.73c3.18-3.28,1.11-8.77-4-8.89a7.2,7.2,0,0,0-6.89,5.58l-9.71-2.42C159.31,6.13,164.6,0,173.67,0,187.92,0,194.86,16.13,185.16,26.12Z"/></g></g></svg>