<svg xmlns="http://www.w3.org/2000/svg" viewBox="0 0 704.24 337.97"><defs><style>.cls-1{fill:#a4a4a4;}.cls-2{fill:#dfdfdf;}</style></defs><g id="Layer_2" data-name="Layer 2"><g id="Layer_1-2" data-name="Layer 1"><polygon class="cls-1" points="119.55 7.09 104.64 0 97.95 7.09 97.95 74.22 119.55 74.22 126.25 67.13 119.55 7.09"/><rect class="cls-2" x="104.65" width="21.6" height="67.13"/><path class="cls-1" d="M168.33,161.13l7.13-7.12-7.13-65.52L43.27,81.37l-7.13,7.12v72.64l66.09,43.61Zm-43.48-43.58H157.9v36.32l-33.05,21.81Z"/><path class="cls-1" d="M37.29,302.66H199.58c5.67,0,17.48-7.57,17.48-15.37,0-5.42-11.71-4.11-17.48-4.11H36.23a10.13,10.13,0,0,1-7.68-3.44h0A13.32,13.32,0,0,1,28.66,262h0A9.78,9.78,0,0,1,36,258.8H91.54c11.53,0,27.85-13.56,27.85-24.41l-7-13.64c0-5.43,1.4-16.85-4.37-16.85s-16.5,11.42-16.5,16.85v14.11a4.64,4.64,0,0,1-4.77,4.48H37.37c-13.23-4.23-20.7,3.93-28.21,10.93a28,28,0,0,0,.06,41.51A41.18,41.18,0,0,0,37.29,302.66Z"/><polygon class="cls-1" points="0 337.97 688.73 337.97 704.24 330.85 688.73 320.31 15.51 313.19 0 320.31 0 337.97"/><path class="cls-2" d="M175.46,154V81.37H43.27V154l66.1,43.61ZM132,110.43H165v36.32L132,168.56Z"/><path class="cls-2" d="M44.42,295.54H206.71c5.67,0,10.28-4.29,10.35-9.62s-4.58-9.85-10.35-9.85H43.36a10.14,10.14,0,0,1-7.68-3.45h0a13.33,13.33,0,0,1,.11-17.71h0a9.78,9.78,0,0,1,7.33-3.23H98.67c11.53,0,20.87-8.8,20.87-19.64V213.63c0-5.43-4.67-9.82-10.43-9.82s-10.44,4.39-10.44,9.82v14.11a4.64,4.64,0,0,1-4.77,4.48H44.5a41.38,41.38,0,0,0-28.2,10.93,28,28,0,0,0,.05,41.52A41.22,41.22,0,0,0,44.42,295.54Z"/><rect class="cls-2" x="15.51" y="313.19" width="688.73" height="17.65"/></g></g></svg>