<svg xmlns="http://www.w3.org/2000/svg" viewBox="0 0 90.64 69.49"><defs><style>.cls-1{fill:#dfdfdf;}.cls-2{fill:#a4a4a4;}</style></defs><g id="Layer_2" data-name="Layer 2"><g id="Layer_1-2" data-name="Layer 1"><path class="cls-1" d="M43.43,69.49c-.85-.77-1.58-1.36-2.23-2C28,54.14,14.78,40.76,1.46,27.51c-1.87-1.86-2-2.77-.09-4.8C6.78,16.94,11.49,12.23,18.74,5.36,21,3.24,22.05,3.47,24,5.47c5.54,5.77,11.35,11.28,16.87,17.06,1.91,2,3,2.35,5.11.12,5.47-5.83,11.36-11.26,16.84-17.09,2.23-2.37,3.51-2.15,5.64.1,5.5,5.8,11.21,11.41,17,17,1.8,1.74,2.22,2.74.15,4.79C72.2,40.64,59,54,45.79,67.37,45,68.12,44.22,68.78,43.43,69.49Z"/><path class="cls-2" d="M47.15,65.63c-.86-.77-1.58-1.36-2.23-2C31.68,50.28,18.5,36.9,5.18,23.64c-1.87-1.86-2-2.76-.09-4.79C11.49,12,15.68,8,22.46,1.5c2.23-2.13,3.31-1.9,5.23.11C33.23,7.38,39,12.88,44.56,18.67c1.91,2,3,2.35,5.11.12C55.14,13,61,7.53,66.51,1.7,68.74-.68,70-.45,72.15,1.79c5.5,5.8,11.2,11.42,17,17,1.8,1.74,2.22,2.73.15,4.79-13.35,13.22-26.52,26.62-39.76,40C48.76,64.25,47.94,64.92,47.15,65.63Z"/></g></g></svg>