<svg xmlns="http://www.w3.org/2000/svg" viewBox="0 0 92.24 71.23"><defs><style>.cls-1{fill:#a4a4a4;}.cls-2{fill:#dfdfdf;}</style></defs><g id="Layer_2" data-name="Layer 2"><g id="Layer_1-2" data-name="Layer 1"><path class="cls-1" d="M43.49,5.56c.86.77,1.58,1.36,2.23,2C59,20.91,72.15,34.29,85.46,47.54c1.87,1.87,2.11,2.88.09,4.8C79.63,58,73.81,63.74,68.19,69.69c-2.13,2.24-3.31,1.89-5.24-.11C57.41,63.81,51.6,58.3,46.08,52.52c-1.91-2-3-2.35-5.11-.12C35.5,58.23,29.61,63.66,24.14,69.49c-2.24,2.37-3.52,2.15-5.64-.09C13,63.59,7.29,58,1.54,52.43c-1.81-1.74-2.23-2.74-.15-4.79C14.73,34.41,27.9,21,41.14,7.68,41.88,6.93,42.7,6.27,43.49,5.56Z"/><path class="cls-2" d="M48.76,0c.86.77,1.58,1.36,2.23,2C64.23,15.35,77.42,28.73,90.73,42c1.87,1.87,2.11,2.88.09,4.8-5.92,5.64-11.74,11.4-17.37,17.35C71.33,66.37,70.14,66,68.22,64,62.68,58.25,56.87,52.74,51.35,47c-1.91-2-3-2.35-5.11-.12C40.77,52.67,34.88,58.1,29.41,63.93c-2.24,2.37-3.52,2.15-5.64-.09-5.51-5.81-11.21-11.42-17-17C5,45.13,4.58,44.13,6.66,42.08,20,28.85,33.17,15.45,46.41,2.12,47.15,1.37,48,.71,48.76,0Z"/></g></g></svg>