<svg xmlns="http://www.w3.org/2000/svg" viewBox="0 0 63.91 63.85"><defs><style>.cls-1{fill:#a4a4a4;}.cls-2{fill:#dfdfdf;}</style></defs><g id="Layer_2" data-name="Layer 2"><g id="Layer_1-2" data-name="Layer 1"><path class="cls-1" d="M31.3,18A14.75,14.75,0,1,0,46.07,32.78,14.73,14.73,0,0,0,31.3,18ZM22.36,32.76a9,9,0,0,1,9-8.92h.16V41.71h-.16A8.94,8.94,0,0,1,22.36,32.76Z"/><path class="cls-1" d="M48.07,19.48c.12.13.19.12.31,0L53.85,14l1.61-1.6c.1-.1.11-.16,0-.26s-.39-.38-.58-.58L51.61,8.3a.36.36,0,0,0-.15-.12l-.14.13-7.06,7.07c-.13.12-.11.19,0,.3Z"/><path class="cls-1" d="M14.31,19.61c.11.12.16.1.27,0,1.27-1.28,2.54-2.56,3.83-3.83.12-.12.1-.19,0-.3l-3.72-3.72L11.32,8.4l-.13-.12a1.85,1.85,0,0,0-.14.14L7.22,12.24c-.12.12-.12.17,0,.29Z"/><path class="cls-1" d="M11.55,34.39c0-1.8-1.14-2.75-1.13-4.54,0-.17-.05-.21-.21-.21h-5c-1.66,0-2.2-1.07-3.87-1.08A4.78,4.78,0,0,0,0,29.86c0,1.79,0,3.59,0,5.38,0,.18.05.22.23.22h10A4.09,4.09,0,0,0,11.55,34.39Z"/><path class="cls-1" d="M28.61,11.49H34a3.5,3.5,0,0,0,1.13-1.07c0-1.67-.92-2.47-.92-4.14v-5c0-.18,0-.23-.21-.23C32.2,1.08,31.32,0,29.52,0a3.93,3.93,0,0,0-1.13,1.3v10C28.39,11.44,28.42,11.49,28.61,11.49Z"/><path class="cls-1" d="M62.78,29.69c0-.17,0-.22-.22-.22-1.66,0-3.32,0-5,0s-2.2-1.07-3.87-1.08a4.68,4.68,0,0,0-1.36,1.3q0,2.68,0,5.37c0,.17,0,.23.22.23h10A4.52,4.52,0,0,0,63.91,34C63.91,32.2,62.78,31.48,62.78,29.69Z"/><path class="cls-1" d="M34.18,53.44c-1.8,0-2.69-1.07-4.49-1.07a4,4,0,0,0-1.13,1.29v10c0,.13,0,.2.17.2h5.48a5.68,5.68,0,0,0,1.3-1.24c0-3.35-1.14-5.63-1.13-9C34.38,53.47,34.33,53.44,34.18,53.44Z"/><path class="cls-1" d="M52.62,49.46,48.45,45.3l-.11-.11-.14.13-3.85,3.84c-.11.11-.1.16,0,.27q3.55,3.54,7.09,7.09c.12.12.18.1.28,0l3.82-3.81c.13-.13.13-.19,0-.32C54.57,51.42,53.6,50.44,52.62,49.46Z"/><path class="cls-1" d="M14.7,45.44c-.12-.13-.17-.11-.28,0l-2.31,2.32L7.32,52.53c-.07.08-.13.13,0,.24l3.91,3.9.1.1.13-.13,7.11-7.1c.11-.11.09-.16,0-.26Z"/><path class="cls-2" d="M32.44,17A14.75,14.75,0,1,0,47.2,31.71,14.73,14.73,0,0,0,32.44,17ZM23.49,31.68a9,9,0,0,1,9-8.92h.16V40.64h-.16A9,9,0,0,1,23.49,31.68Z"/><path class="cls-2" d="M49.2,18.41c.12.12.19.12.32,0L55,12.93c.54-.54,1.07-1.08,1.61-1.61.11-.1.11-.15,0-.25s-.39-.39-.58-.58L52.74,7.23a.32.32,0,0,0-.15-.13l-.14.14L45.39,14.3c-.13.13-.11.19,0,.3C46.67,15.87,47.94,17.13,49.2,18.41Z"/><path class="cls-2" d="M15.44,18.54c.11.11.17.1.27,0l3.83-3.83c.13-.13.1-.19,0-.3l-3.72-3.73Q14.13,9,12.46,7.33l-.14-.12-.14.13C10.9,8.62,9.63,9.9,8.35,11.17c-.12.12-.12.17,0,.28Z"/><path class="cls-2" d="M11.55,34.17q0-2.7,0-5.4c0-.17,0-.21-.21-.21h-10c-.18,0-.22.05-.22.23q0,2.68,0,5.37c0,.19.05.23.23.23h10C11.5,34.39,11.55,34.35,11.55,34.17Z"/><path class="cls-2" d="M29.74,10.42h5.39c.17,0,.22,0,.22-.21,0-1.67,0-3.34,0-5s0-3.32,0-5c0-.18,0-.23-.22-.23h-5.4c-.18,0-.21.06-.21.23v10C29.52,10.36,29.55,10.42,29.74,10.42Z"/><path class="cls-2" d="M63.91,28.62c0-.17,0-.23-.21-.23h-10c-.18,0-.23,0-.23.23q0,2.68,0,5.37c0,.17,0,.22.22.22h10c.18,0,.23,0,.22-.22Z"/><path class="cls-2" d="M35.32,52.37H29.9c-.18,0-.21.05-.21.22v10c0,.12,0,.2.17.2h5.49c.14,0,.16,0,.16-.17V52.55C35.51,52.4,35.46,52.37,35.32,52.37Z"/><path class="cls-2" d="M53.75,48.39l-4.17-4.17-.11-.1-.14.12c-1.28,1.28-2.56,2.57-3.84,3.84-.11.11-.11.17,0,.27q3.56,3.54,7.09,7.1c.12.12.18.1.29,0,1.26-1.28,2.54-2.55,3.81-3.81.13-.13.13-.19,0-.32Z"/><path class="cls-2" d="M15.83,44.36c-.12-.12-.17-.1-.28,0l-2.31,2.31L8.46,51.46c-.08.08-.14.13,0,.24l3.91,3.9.1.09.13-.12,7.11-7.11c.11-.1.1-.15,0-.25Z"/></g></g></svg>