<svg xmlns="http://www.w3.org/2000/svg" viewBox="0 0 69 69.24"><defs><style>.cls-1{fill:#a4a4a4;}.cls-2{fill:#fff;}</style></defs><g id="Layer_2" data-name="Layer 2"><g id="Layer_1-2" data-name="Layer 1"><path class="cls-1" d="M44.38,42.63l-20-1c-.26,0-1.1,1.21-1.1,1.47v3.16a.47.47,0,0,0,.48.47h1.43V49a.47.47,0,0,0,.47.47H42.48a3.18,3.18,0,0,0,1.31-1.31L43,46.73h1.43a2.57,2.57,0,0,0,1.18-1.17l-.7-2.46A.48.48,0,0,0,44.38,42.63Z"/><path class="cls-1" d="M33.38,54.36a5.34,5.34,0,0,0,1.1-1.25c0-1-.85-1.07-.85-2,0-.23-.08-.31-.33-.31-.93,0-1.11-1-2-1-.25,0-1,1.08-1,1.27v2.88a.38.38,0,0,0,.24.42A3.26,3.26,0,0,0,33.38,54.36Z"/><path class="cls-1" d="M34.24,55.15c-.12,0-2.53-.61-2.53-.61l-.93,1s1.79,1.75,2.77,2.62A1,1,0,0,0,34.62,58c.57-.57,1.18-1.14,1.79-1.71.24-.23.53-.49.77-.76A4.34,4.34,0,0,1,34.24,55.15Z"/><path class="cls-1" d="M37.56,50.79c-.94,0-1.16-1-2.1-1-.24,0-1,1.06-1,1.25v2.88a.38.38,0,0,0,.24.42,3.26,3.26,0,0,0,2.89,0,5,5,0,0,0,1.07-1.19c0-1-.82-1.13-.82-2.07C37.89,50.87,37.81,50.79,37.56,50.79Z"/><path class="cls-1" d="M46.8,19.09a3.15,3.15,0,0,0-3.15-3.15c-6.43,0-12.44-1-18.87-1-1.67,0-3.45,2.32-3.45,4V38.42a3,3,0,0,0,3,3H43.67c1.73,0,4-1.71,4-3.45C47.67,31.57,46.8,25.48,46.8,19.09ZM36,36.3H32.51V24.48h-1.2V21H36Z"/><path class="cls-1" d="M34.06,6.54A28.64,28.64,0,1,1,5.43,35.17,28.63,28.63,0,0,1,34.06,6.54m0-5.43A34.08,34.08,0,0,0,20.8,66.56,34.06,34.06,0,0,0,58.15,11.09a33.94,33.94,0,0,0-24.09-10Z"/><path class="cls-2" d="M45.25,41.63H24.62a.48.48,0,0,0-.48.47v3.16a.48.48,0,0,0,.48.47h1.43V48a.47.47,0,0,0,.47.47H43.35a.47.47,0,0,0,.47-.47V45.73h1.43a.47.47,0,0,0,.48-.47V42.1A.47.47,0,0,0,45.25,41.63Z"/><path class="cls-2" d="M34.26,53.35A.4.4,0,0,0,34.5,53V50.09c0-.22-.08-.3-.33-.3H31.41c-.25,0-.29.08-.29.27v2.88a.36.36,0,0,0,.25.41A3.2,3.2,0,0,0,34.26,53.35Z"/><path class="cls-2" d="M35.11,54.15a.59.59,0,0,0-.37,0,4.74,4.74,0,0,1-3.09.38c.94.87,1.79,1.74,2.77,2.62A1.1,1.1,0,0,0,35.6,57c.57-.57,1.18-1.13,1.79-1.7.24-.23.53-.5.77-.76A4.75,4.75,0,0,1,35.11,54.15Z"/><path class="cls-2" d="M38.43,49.79H35.66c-.24,0-.28.08-.28.27v2.88a.37.37,0,0,0,.24.41,3.2,3.2,0,0,0,2.89,0,.39.39,0,0,0,.25-.37V50.09C38.76,49.87,38.68,49.79,38.43,49.79Z"/><path class="cls-2" d="M47.67,18.09a3.14,3.14,0,0,0-3.15-3.15H25.22a3,3,0,0,0-3,3V37.42a3,3,0,0,0,3,3H44.54a3.14,3.14,0,0,0,3.13-3.14ZM36.82,35.3H33.38V23.48h-1.2V20h4.64Z"/><path class="cls-2" d="M34.94,5.43A28.64,28.64,0,1,1,6.3,34.06,28.63,28.63,0,0,1,34.94,5.43m0-5.43A34.08,34.08,0,0,0,21.67,65.45,34.07,34.07,0,0,0,48.2,2.68,33.86,33.86,0,0,0,34.94,0Z"/></g></g></svg>