<svg xmlns="http://www.w3.org/2000/svg" viewBox="0 0 479.43 576.72"><defs><style>.cls-1{fill:#dfdfdf;}.cls-2{fill:#a4a4a4;}</style></defs><g id="Layer_2" data-name="Layer 2"><g id="Layer_1-2" data-name="Layer 1"><rect class="cls-1" x="129.05" y="82.92" width="32.57" height="3.88"/><rect class="cls-1" x="157.49" y="82.92" width="4.14" height="106.72"/><path class="cls-1" d="M129.21,417.11c1.74-.81,10.55-5.87,10.55-7.5,0-10.14-7.94-17.25-7.94-27.39,0-2.44-.87-3.25-3.48-3.25-10,0-10.38-5.65-20.4-5.65-2.61-.41-12.28,6.46-12.28,8.49v30.84a4.59,4.59,0,0,0,2.62,4.46A34.57,34.57,0,0,0,129.21,417.11Z"/><path class="cls-1" d="M138.36,425.64a6.4,6.4,0,0,0-3.92,0c-6.67,3.23-24.59-1.6-24.59-1.6s-5.91,4-8.52,5.65c10,9.34,19.17,18.67,29.62,28,3.92,2,12.21,1.41,15.69-1.44,6.1-6.08,5.48-5.74,12-11.83,2.61-2.43,9.76-11.48,12.37-14.32C160.14,432.13,148.38,430.91,138.36,425.64Z"/><path class="cls-1" d="M173.9,379c-10,0-11.08-5.65-21.1-5.65-2.62-.41-11.57,6.46-11.57,8.49v30.84a4.45,4.45,0,0,0,2.61,4.46,34.57,34.57,0,0,0,30.93,0c1.74-.81,10.32-5.5,10.32-7.13,0-10.14-7.71-17.62-7.71-27.76C177.38,379.78,176.51,379,173.9,379Z"/><path class="cls-2" d="M137.73,411.46a4.43,4.43,0,0,0,2.62-4.06V376.56c0-2.43-.88-3.24-3.49-3.24H107.24s-3,.81-3,2.84V407a4.44,4.44,0,0,0,2.61,4.46A34.57,34.57,0,0,0,137.73,411.46Z"/><path class="cls-2" d="M146.88,420a6.55,6.55,0,0,0-3.92,0A51.47,51.47,0,0,1,109.85,424c10,9.33,19.17,18.66,29.62,28a11.93,11.93,0,0,0,12.64-1.22c6.1-6.09,12.63-12.17,19.17-18.26,2.61-2.43,5.66-5.28,8.27-8.12C168.66,426.47,156.9,425.26,146.88,420Z"/><path class="cls-2" d="M182.42,373.32H152.8s-3.05.81-3.05,2.84V407c.15,1.28.87,3.65,2.61,4.46a34.57,34.57,0,0,0,30.93,0,4.42,4.42,0,0,0,2.62-4.06V376.56C185.91,374.13,185,373.32,182.42,373.32Z"/><path class="cls-1" d="M174,351.48q0-29,0-58.22L33.64,287.15c-11.09,0-12.67,6.44-12.67,11.16v33.8A5,5,0,0,0,26,337.16H41.38v24.5a5,5,0,0,0,5,5H176.79l9-6.3S174,354.09,174,351.48Z"/><path class="cls-1" d="M90.52,144.86C21.69,144.91,105.87.29,37.05.29,12.07.29,0,20.78,0,38.66Q.08,142.79,0,246.92a31.91,31.91,0,0,0,32,31.94c34.78,0,104.33,0,104.33,0H174l9-6.3s-9-88.46-9.05-127.48a42.27,42.27,0,0,1,42.27-42.31h0c18.69,0,56.31,0,56.31,0l9-6.3s-9-40-9-56.43c0-10.81-54.94,26.16-104.75,59.13-7.69,5.09,7.23,103.19,0,107.9C141.16,224.46,96.68,144.85,90.52,144.86Z"/><path class="cls-2" d="M183,345.19q0-29,0-58.23H35A5,5,0,0,0,30,292v33.8A5,5,0,0,0,35,330.86H50.4v24.5a5,5,0,0,0,5.05,5.05H185.81A41.55,41.55,0,0,1,183,345.19Z"/><path class="cls-1" d="M371.77,256.61l-29.11,30h0l-6-.11s32.52-30.86,38.79-42.72c3.77-7.15,3.68-18.68-2.87-29.47C360.4,194.17,325.67,197.65,311,201l-1.4,26.66c4.65-15.53,16.41-29.15,36.58-29.15C377.9,198.53,393.33,234.4,371.77,256.61Z"/><path class="cls-1" d="M445,409.47l-213.33-5.66c-9.27,0-12.57,7.92-12.57,10.71v33.8a5,5,0,0,0,5.05,5.05h15.37v24.5a5,5,0,0,0,5.05,5.05h180c10.92,0,13.53-7.3,13.53-10.09l-8.48-19.46H445c2.79,0,13.43.8,13.43-9.51l-8.38-29.34A5,5,0,0,0,445,409.47Z"/><path class="cls-1" d="M327.34,535c1.75-.81,10.56-5.88,10.56-7.5,0-10.15-7.94-17.25-7.94-27.39,0-2.44-.87-3.25-3.49-3.25-10,0-10.37-5.65-20.39-5.65-2.62-.41-12.28,6.46-12.28,8.49v30.84a4.58,4.58,0,0,0,2.61,4.46A34.57,34.57,0,0,0,327.34,535Z"/><path class="cls-1" d="M336.49,543.47a6.55,6.55,0,0,0-3.92,0c-6.66,3.24-24.58-1.59-24.58-1.59s-5.92,4-8.53,5.65c10,9.33,19.17,18.67,29.63,28,3.92,2,12.2,1.4,15.69-1.44,6.1-6.08,5.48-5.74,12-11.83,2.62-2.44,9.76-11.48,12.38-14.32C358.28,550,346.51,548.75,336.49,543.47Z"/><path class="cls-1" d="M372,496.81c-10,0-11.09-5.65-21.11-5.65-2.61-.41-11.57,6.46-11.57,8.49v30.84A4.45,4.45,0,0,0,342,535a34.57,34.57,0,0,0,30.93,0c1.74-.81,10.31-5.51,10.31-7.13,0-10.14-7.7-17.62-7.7-27.76C375.52,497.62,374.65,496.81,372,496.81Z"/><path class="cls-1" d="M470.91,157.56a33.72,33.72,0,0,0-33.74-33.74c-5.62,0,13.74,214.73-75.88,214.73-154.43,0-62.86-220.09-126.06-220.14-17.88,0-36.91,19.89-36.9,37.77q.07,104.13,0,208.26a31.91,31.91,0,0,0,32,31.94q52.17-.06,104.33,0,51.38,0,102.74,0c18.54,0,37.6-13.92,37.59-32.45C474.9,295.5,470.86,226,470.91,157.56Z"/><path class="cls-2" d="M247.85,0Q144.62.08,41.38,0A32.32,32.32,0,0,0,9,32.36Q9.1,136.49,9,240.62a31.91,31.91,0,0,0,32,31.94q52.17-.06,104.33,0H183c0-44.66,0-89.43,0-133.78a42.25,42.25,0,0,1,42.27-42.31h0c18.68,0,37.5,0,56.3,0q0-31.36,0-62.73A33.71,33.71,0,0,0,247.85,0ZM161.62,189.62H139.85V104.67h-10.8V82.89h32.57Z"/><path class="cls-2" d="M453.57,403.81H232.72a5,5,0,0,0-5.05,5.05v33.81a5.06,5.06,0,0,0,5.05,5.05h15.36v24.5a5,5,0,0,0,5,5h180a5,5,0,0,0,5.05-5v-24.5h15.37a5.06,5.06,0,0,0,5.05-5.05V408.86A5,5,0,0,0,453.57,403.81Z"/><path class="cls-2" d="M335.87,529.3a4.43,4.43,0,0,0,2.61-4.06V494.4c0-2.43-.87-3.24-3.48-3.24H305.37s-3.05.81-3.05,2.84v30.83a4.45,4.45,0,0,0,2.62,4.47A34.57,34.57,0,0,0,335.87,529.3Z"/><path class="cls-2" d="M345,537.82a6.4,6.4,0,0,0-3.92,0A51.48,51.48,0,0,1,308,541.88c10,9.33,19.16,18.66,29.62,28a11.89,11.89,0,0,0,12.63-1.21c6.1-6.09,12.64-12.18,19.17-18.26,2.62-2.44,5.67-5.28,8.28-8.12C366.8,544.31,355,543.09,345,537.82Z"/><path class="cls-2" d="M380.56,491.16H350.93s-3.05.81-3.05,2.84v15.82c0,4.87,0,15,0,15,.15,1.29.87,3.66,2.61,4.47a34.57,34.57,0,0,0,30.93,0,4.43,4.43,0,0,0,2.61-4.06V494.4C384,492,383.17,491.16,380.56,491.16Z"/><path class="cls-2" d="M479.43,151.91a33.71,33.71,0,0,0-33.74-33.74q-103.24.08-206.48,0a32.33,32.33,0,0,0-32.36,32.36q.08,104.13,0,208.26a31.91,31.91,0,0,0,32,31.93q52.15-.06,104.32,0,51.38,0,102.75,0a33.49,33.49,0,0,0,33.54-33.52Q479.36,254.55,479.43,151.91ZM382,307.8h-73.7V288.7l46.93-48.32c7.07-7.28,2.46-19.49-8.88-19.76-7.24-.17-13.28,5.16-15.31,12.4l-21.6-5.38c4.65-15.52,16.41-29.14,36.58-29.14,31.68,0,47.11,35.87,25.54,58.08l-29.11,30H382Z"/></g></g></svg>