<svg xmlns="http://www.w3.org/2000/svg" viewBox="0 0 281.1 458.55"><defs><style>.cls-1{fill:#dfdfdf;}.cls-2{fill:#a4a4a4;}</style></defs><g id="Layer_2" data-name="Layer 2"><g id="Layer_1-2" data-name="Layer 1"><path class="cls-1" d="M173.39,138.31l-29.11,30h0l-6-.1s32.52-30.87,38.79-42.72c3.77-7.15,3.67-18.69-2.87-29.48C162,75.86,127.29,79.35,112.66,82.71l-1.4,26.66c4.65-15.52,16.41-29.14,36.58-29.14C179.52,80.23,195,116.1,173.39,138.31Z"/><path class="cls-1" d="M246.72,291.3,33.39,285.65c-9.28,0-12.58,7.91-12.58,10.7v33.8a5.06,5.06,0,0,0,5.05,5.05H41.23v24.51a5.06,5.06,0,0,0,5.05,5.05h180c10.92,0,13.53-7.31,13.53-10.1l-8.48-19.46h15.37c2.78,0,13.42.8,13.42-9.5l-8.38-29.35A5,5,0,0,0,246.72,291.3Z"/><path class="cls-1" d="M129,416.78c1.74-.81,10.55-5.88,10.55-7.5,0-10.14-7.94-17.25-7.94-27.39,0-2.44-.87-3.25-3.49-3.25-10,0-10.37-5.65-20.39-5.65-2.61-.41-12.28,6.46-12.28,8.49v30.84a4.57,4.57,0,0,0,2.62,4.46A34.57,34.57,0,0,0,129,416.78Z"/><path class="cls-1" d="M138.16,425.31a6.4,6.4,0,0,0-3.92,0c-6.66,3.23-24.58-1.6-24.58-1.6s-5.92,4-8.53,5.65c10,9.34,19.17,18.67,29.63,28,3.92,2,12.2,1.4,15.69-1.44,6.1-6.08,5.48-5.74,12-11.83,2.61-2.43,9.75-11.48,12.37-14.32C160,431.8,148.18,430.58,138.16,425.31Z"/><path class="cls-1" d="M173.71,378.64c-10,0-11.08-5.65-21.1-5.65-2.62-.41-11.58,6.46-11.58,8.49v30.84a4.44,4.44,0,0,0,2.62,4.46,34.57,34.57,0,0,0,30.93,0c1.74-.81,10.32-5.5,10.32-7.13,0-10.14-7.71-17.62-7.71-27.76C177.19,379.45,176.32,378.64,173.71,378.64Z"/><path class="cls-1" d="M272.58,39.4c0-18.65-76.57,206.1-123,206.1C80.73,245.5,105.73.29,36.9.24,19,.23,0,20.13,0,38Q.08,142.14,0,246.27a31.91,31.91,0,0,0,32,31.94q52.17-.06,104.33,0,51.38,0,102.74,0c18.54,0,37.61-13.92,37.59-32.45C276.57,177.33,272.53,107.83,272.58,39.4Z"/><path class="cls-2" d="M255.24,285.65H34.39a5,5,0,0,0-5.05,5.05v33.8a5,5,0,0,0,5.05,5.05H49.75v24.5a5.06,5.06,0,0,0,5,5.05h180a5,5,0,0,0,5.05-5.05v-24.5h15.37a5,5,0,0,0,5.05-5.05V290.7A5,5,0,0,0,255.24,285.65Z"/><path class="cls-2" d="M137.54,411.13a4.43,4.43,0,0,0,2.61-4.06V376.23c0-2.43-.87-3.24-3.48-3.24H107s-3.05.81-3.05,2.84v30.84a4.46,4.46,0,0,0,2.62,4.46A34.57,34.57,0,0,0,137.54,411.13Z"/><path class="cls-2" d="M146.69,419.65a6.4,6.4,0,0,0-3.92,0,51.48,51.48,0,0,1-33.11,4.06c10,9.33,19.17,18.66,29.62,28a11.93,11.93,0,0,0,12.64-1.22c6.09-6.09,12.63-12.17,19.16-18.26,2.62-2.44,5.67-5.28,8.28-8.12C168.47,426.14,156.71,424.93,146.69,419.65Z"/><path class="cls-2" d="M182.23,373H152.61s-3.05.81-3.05,2.84v30.84c.15,1.28.87,3.65,2.61,4.46a34.57,34.57,0,0,0,30.93,0,4.43,4.43,0,0,0,2.61-4.06V376.23C185.71,373.8,184.84,373,182.23,373Z"/><path class="cls-2" d="M281.1,33.74A33.71,33.71,0,0,0,247.36,0Q144.13.08,40.88,0A32.34,32.34,0,0,0,8.52,32.36q.08,104.13,0,208.26a31.92,31.92,0,0,0,32,31.94q52.16-.06,104.32,0,51.38,0,102.75,0A33.48,33.48,0,0,0,281.1,239Q281,136.4,281.1,33.74ZM183.82,189.53h-73.7v-19.1l46.93-48.32c7.07-7.28,2.46-19.49-8.87-19.76-7.25-.17-13.29,5.16-15.32,12.4l-21.6-5.38c4.65-15.52,16.41-29.14,36.58-29.14,31.68,0,47.11,35.87,25.55,58.08l-29.11,30h39.54Z"/></g></g></svg>