<svg xmlns="http://www.w3.org/2000/svg" viewBox="0 0 89.85 61.43">
    <defs>
        <style>
            .cls-1 {
                fill: #a4a4a4;
            }

            .cls-2 {
                fill: #dfdfdf;
            }
        </style>
    </defs>
    <g id="Layer_2" data-name="Layer 2">
        <g id="Layer_1-2" data-name="Layer 1">
            <path class="cls-1"
                d="M87.17,58.1c0-.36,0-.72,0-1.08v-.13C87,56,87,55.13,86.84,54.25s-.32-1.87-.53-2.79-.45-1.74-.7-2.55c-.2-.6-.4-1.21-.63-1.79-.14-.34-.18-.79-.7-.69L73,47.26a14,14,0,0,0-2.92,3.11c.1.39.16.81.24,1.23s.12.76.15,1.19c0,.17,0,.35.05.53,0,.62.07,1.24.07,1.87l0,.78-.06,1.16V57c0,.23,0,.47-.08.71s-.07.57-.12.85l-.1.54a20,20,0,0,1-.5,2.06,2.41,2.41,0,0,1-.08.25H86.68c.23,0,.54-.36.54-.36L88.34,60l1.35-1.19C89.71,58.1,87.18,58.83,87.17,58.1Z" />
            <path class="cls-1"
                d="M81.21,37.91c.39-.17,3.06-2.35,2.91-2.64-.44-.9-3.76,0-4.27-.86l-.62-1-.69-1.09c-.46-.67-1-1.38-1.46-2A39.53,39.53,0,0,0,71,24c-.42-.34-.83-.68-1.25-1s1.85-2.78,1.53-2.45l-9.08,10c-.21.26,0,.51.22.68s.52.53.79.8.69.75,1,1.15a27.66,27.66,0,0,1,2.62,3.72c.07.14.16.29.23.42.22.37.4.74.59,1.1l.38.8.33.74c.11.31.24.6.35.89l.35,1c.1.32.21.67.61.54Z" />
            <path class="cls-1"
                d="M40.49,18.72l.36.05c.44.08.9.15,1.35.26l2.67-2.47c-.79-.14.36-7-.42-7.07s-.39-2.66-1.28-2.7c-.33,0-2,1.7-2,1.7a5.53,5.53,0,0,0-.83,1.15l-.5,8.6C39.81,18.63,40.18,18.69,40.49,18.72Z" />
            <path class="cls-1"
                d="M57.08,26.19l.53.53c.29.25.67.94,1,.45l2.67-2.47c.24-.39,3.19-7,2.93-7.23-.43-.34-2-5.62-2-5.62l-2.67,2.47L56.38,25.56Z" />
            <path class="cls-1"
                d="M30.42,19c.37-.06.76-.1,1.12-.14s.65-.06,1-.07l.74,0a11.4,11.4,0,0,0,1.93-1.09s1.8-1.22,1.76-1.8c-.12-2.09-3.12-5.34-3.12-5.34-.09-.6-.71-.28-1.08-.27-.77.12-1.56.27-2.33.45s-1.45.37-2.17.6a73.53,73.53,0,0,0-7.55,3.09L18,16.86s-.63.42-.41.82l2.89,4.77c.2.31.49.12.73-.05s.67-.4,1-.6.94-.51,1.43-.74c.86-.41,1.76-.77,2.65-1.09a25.29,25.29,0,0,1,3.5-.89Z" />
            <path class="cls-1"
                d="M4.9,29c-.62.83-1.2,1.69-1.74,2.57-.38.63-.76,1.29-1.1,1.92l-.51,1c-.14.31-.29.64-.44.94-.3.69-.58,1.38-.83,2.06-.09.39-.55,1-.05,1.2l2.86,1.06,3-2.55s-1-.5-.81-.76l.55-.82c.36-.51.76-1,1.16-1.55,1.39-1.75,2.09-3.48,3.83-4.87.22-.17-.7,1.83-.7,1.83L15.65,26,9.79,24.24c-.28-.29,2.18-2.58,2-2.34S8.32,25.11,8,25.46A33.57,33.57,0,0,0,4.9,29Z" />
            <path class="cls-1"
                d="M34.38,60.19c3.6,1.74,8.27,1.24,12.51-5.44.29-.47-2,1.08-1.91.57l7.58-31.78,2.88-12.1,1.79-7.5c.21-.87,1.84-3.9,1.12-3.9-.42,0-3.19,2.64-3.43,3.11l-3.64,7.19c-3.56,7-16.56,32.7-20.34,40.17A7.14,7.14,0,0,0,34.38,60.19ZM38,50a3.61,3.61,0,0,1,3.67,3.55c-.19,4.7-7.15,4.7-7.35,0A3.62,3.62,0,0,1,38,50Z" />
            <path class="cls-2"
                d="M89.84,55.63c0-.36,0-.72,0-1.08v-.13c-.08-.88-.17-1.76-.28-2.64S89.19,49.91,89,49s-.45-1.74-.7-2.55c-.2-.6-.4-1.21-.63-1.79-.14-.34-.19-.79-.7-.7L73,47.26c-.35.09-.34.38-.25.64s.16.81.24,1.22.11.77.15,1.2c0,.17,0,.35.05.53,0,.62.07,1.23.07,1.87,0,.25,0,.52,0,.78l-.06,1.16v-.11c0,.23,0,.47-.08.71s-.07.57-.12.85l-.1.54c-.14.7-.3,1.39-.5,2.06l-.08.24H89.35a.4.4,0,0,0,.43-.33h0c0-.26,0-.53,0-.81C89.85,57.09,89.85,56.35,89.84,55.63Z" />
            <path class="cls-2"
                d="M83.88,35.44c.39-.18.22-.51.06-.8-.44-.9-.91-1.82-1.42-2.7l-.62-1c-.23-.36-.46-.71-.69-1.08-.46-.67-1-1.38-1.47-2a39,39,0,0,0-6-6.28c-.42-.34-.83-.68-1.25-1s-.6-.57-.92-.24L64.9,28.11c-.21.25,0,.51.22.68s.52.53.79.8.68.75,1,1.15a27,27,0,0,1,2.61,3.72l.24.42c.22.37.4.74.59,1.1s.25.53.38.79.22.51.33.75.24.6.35.89.24.68.35,1,.21.67.61.54Z" />
            <path class="cls-2"
                d="M43.16,16.24l.36.06c.43.08.9.15,1.35.26l4.61-9.2c-.78-.14-1.58-.25-2.36-.34s-1.82-.17-2.71-.21l-1,0a.4.4,0,0,0-.42.38l-.5,8.6C42.48,16.15,42.85,16.22,43.16,16.24Z" />
            <path class="cls-2"
                d="M59.74,23.72l.54.53c.29.25.67.93,1,.45l5.94-8.88c.23-.4-.08-.63-.34-.82-.43-.34-.85-.65-1.3-1a32.2,32.2,0,0,0-3.42-2.16L59.05,23.09Z" />
            <path class="cls-2"
                d="M33.09,16.52c.37-.07.75-.1,1.12-.14s.65-.06,1-.07l.74,0c.36,0,1,.18,1-.42l-.45-7.81c-.09-.6-.71-.28-1.08-.27-.77.12-1.56.27-2.33.45s-1.45.37-2.17.6a31.24,31.24,0,0,0-9.07,4.66c-.39.3-.78.6-1.15.9s-.63.42-.42.82L23.17,20c.2.32.49.13.73,0s.67-.4,1-.6.94-.51,1.43-.74A26.36,26.36,0,0,1,29,17.5a25.29,25.29,0,0,1,3.5-.89Z" />
            <path class="cls-2"
                d="M7.57,26.55c-.62.83-1.2,1.69-1.75,2.57-.38.62-.75,1.29-1.09,1.92l-.51,1c-.14.32-.3.65-.44,1-.3.69-.58,1.38-.84,2.06-.08.39-.55,1,0,1.2l2.86,1.06c.49.15.57-.48.77-.8.3-.57.63-1.15,1-1.72L8,34l.55-.82c.36-.51.76-1,1.16-1.55a29.87,29.87,0,0,1,4.73-4.74l.66-.5c.27-.25,1-.5.62-.94l-3.25-3.68c-.28-.29-.56,0-.78.2s-.69.66-1,1A34.7,34.7,0,0,0,7.57,26.55Z" />
            <path class="cls-2"
                d="M37.05,57.72a7.44,7.44,0,0,0,10.6-4.88l7.58-31.77L58.11,9,59.9,1.47A1.2,1.2,0,0,0,58.67,0a1.18,1.18,0,0,0-1.08.67L54,7.86,33.61,48A7.12,7.12,0,0,0,37.05,57.72Zm3.57-10.23A3.61,3.61,0,0,1,44.29,51c-.19,4.71-7.16,4.71-7.35,0A3.62,3.62,0,0,1,40.62,47.49Z" />
        </g>
    </g>
</svg>