<svg xmlns="http://www.w3.org/2000/svg" viewBox="0 0 73.03 72.7">
    <defs>
        <style>
            .cls-1 {
                fill: #a4a4a4;
            }

            .cls-2 {
                fill: #dfdfdf;
            }
        </style>
    </defs>
    <g id="Layer_2" data-name="Layer 2">
        <g id="Layer_1-2" data-name="Layer 1">
            <path class="cls-1"
                d="M35.23,72.7q-13.48,0-27,0A8.25,8.25,0,0,1,0,64.45Q0,37.53,0,10.61C0,6,4.11.29,8.73.3c17.8,0,35.22,2,53,1.94A8.72,8.72,0,0,1,70.47,11c0,17.7,2.55,34.1,2.56,51.79,0,4.79-6.44,10-11.24,10Q48.52,72.69,35.23,72.7Zm29.6-35.17a29.88,29.88,0,1,0-30.36,29.8A29.89,29.89,0,0,0,64.83,37.53Zm0,26.67a3.07,3.07,0,0,0-3.11-3.11,3.14,3.14,0,0,0-3.18,3.07,3.21,3.21,0,0,0,3.19,3.19A3.14,3.14,0,0,0,64.83,64.2ZM5.12,10.68a3,3,0,0,0,3,3.16,3.1,3.1,0,0,0,3.2-3.13A3.17,3.17,0,0,0,8.24,7.57,3.1,3.1,0,0,0,5.12,10.68Zm59.71,0a3.13,3.13,0,0,0-3.11-3.14,3.21,3.21,0,0,0-3.18,3.11,3.17,3.17,0,0,0,3.19,3.17A3.11,3.11,0,0,0,64.83,10.71ZM8.24,61.09a3,3,0,0,0-3.12,3.07,3.08,3.08,0,0,0,3.14,3.19,3.15,3.15,0,0,0,3.1-3.15A3.09,3.09,0,0,0,8.24,61.09Z" />
            <path class="cls-1"
                d="M51.24,24.52S45,24.64,42.19,26a12.6,12.6,0,0,0-5.68,5.13c-.44.74,1.65.46,2.34,1.1,1.46,1.35-.06,1.92,1.73,1.22,5.48-2.16,9.61-.4,14.11,3C56.33,37.62,56.23,39,56,40.67c-.78,5.37-.56,7.45-4.69,10.94-.08.07-2.87,2.46-3,2.5s-.07,0-.17,0a17.15,17.15,0,0,0-1.28-9,12.7,12.7,0,0,0-5.34-5.95,1,1,0,0,0-1.39.18c-1.38,1.12-1.53,2.08-.81,3.85,2,5,2.3,8-.73,12.14-1.16,1.58-4.41,3.75-6.49,3.38a21.71,21.71,0,0,1-12.75-7c-.07-.08-.28-.42-.28-.42l2.62-2.25s2.75,2,4,1.7a13.26,13.26,0,0,0,8.19-6,1.32,1.32,0,0,0-.23-1.91c-1.44-1.41-1.41-1.41-3.31-.66-5.2,2.09-9.77.64-14.18-2.39-2-1.39-2-3.07-1.68-5.13a20.94,20.94,0,0,1,7.24-12.74,5.34,5.34,0,0,1,.45-.32A41.84,41.84,0,0,0,22.42,27a13.57,13.57,0,0,0,6.27,9.47,1.11,1.11,0,0,0,1.68-.17c1.46-1.54,1.45-1.49.72-3.5-1.85-5.07-.48-9.55,2.54-13.74,1.22-1.68,3.6-4.7,5.85-4.27,5,1,14.32,7.49,14.32,7.49ZM35.75,39c.57,0,2-.51,2-1.12s-1.9-2.59-2.56-2.63-2.61,2-2.63,2.57S35.14,39,35.75,39Z" />
            <path class="cls-2"
                d="M37.8,70.45h-27A8.25,8.25,0,0,1,2.56,62.2q0-26.91,0-53.83A8.37,8.37,0,0,1,10.93,0H64.31A8.71,8.71,0,0,1,73,8.72q0,26.53,0,53.08a8.65,8.65,0,0,1-8.67,8.66ZM67.39,35.29A29.87,29.87,0,1,0,37,65.09,29.88,29.88,0,0,0,67.39,35.29Zm0,26.67a3.07,3.07,0,0,0-3.1-3.11,3.13,3.13,0,0,0-3.18,3.07,3.19,3.19,0,0,0,3.18,3.18A3.12,3.12,0,0,0,67.39,62ZM7.69,8.44a3,3,0,0,0,3,3.16,3.1,3.1,0,0,0,3.19-3.13A3.17,3.17,0,0,0,10.8,5.33,3.09,3.09,0,0,0,7.69,8.44Zm59.7,0a3.13,3.13,0,0,0-3.11-3.14,3.2,3.2,0,0,0-3.17,3.11,3.16,3.16,0,0,0,3.18,3.17A3.11,3.11,0,0,0,67.39,8.47ZM10.8,58.85a3,3,0,0,0-3.11,3.07,3.07,3.07,0,0,0,3.13,3.18A3.14,3.14,0,0,0,13.92,62,3.08,3.08,0,0,0,10.8,58.85Z" />
            <path class="cls-2"
                d="M53.8,22.28a16.73,16.73,0,0,0-9,1.45,12.58,12.58,0,0,0-5.69,5.13,1.29,1.29,0,0,0,.25,1.89c1.46,1.36,1.4,1.36,3.19.66,5.48-2.15,10.24-.63,14.75,2.75,1.63,1.22,1.53,2.62,1.29,4.27a20.74,20.74,0,0,1-7.37,13.28,1.18,1.18,0,0,1-.29.16s-.08,0-.17,0a17.13,17.13,0,0,0-1.29-9,12.55,12.55,0,0,0-5.34-5.95A1,1,0,0,0,42.7,37c-1.38,1.12-1.52,2.07-.81,3.85,2,5,.33,9.51-2.7,13.66a4.05,4.05,0,0,1-4.51,1.85,21.59,21.59,0,0,1-12.75-7,2.37,2.37,0,0,1-.23-.43,17.68,17.68,0,0,0,6.55-.54,13.31,13.31,0,0,0,8.2-6,1.31,1.31,0,0,0-.24-1.91c-1.44-1.41-1.4-1.42-3.3-.66-5.21,2.09-9.78.64-14.18-2.39-2-1.39-2-3.07-1.68-5.13a20.92,20.92,0,0,1,7.23-12.74c.11-.09.23-.16.46-.32A42,42,0,0,0,25,24.76a13.59,13.59,0,0,0,6.28,9.47,1.12,1.12,0,0,0,1.67-.17c1.47-1.54,1.46-1.49.72-3.5C31.8,25.49,33.18,21,36.2,16.82a4.26,4.26,0,0,1,4.78-2,22,22,0,0,1,12.63,7C53.68,21.87,53.7,22,53.8,22.28ZM37.74,38.2a5.65,5.65,0,0,0,2.62-2.58c0-.61-1.89-2.6-2.55-2.63s-2.61,2-2.63,2.56S37.13,38.18,37.74,38.2Z" />
        </g>
    </g>
</svg>