<svg xmlns="http://www.w3.org/2000/svg" viewBox="0 0 76 87.56"><defs><style>.cls-1{fill:#ee2b24;}.cls-2{fill:#a01a1a;}</style></defs><g id="Layer_2" data-name="Layer 2"><g id="Layer_1-2" data-name="Layer 1"><path class="cls-1" d="M44.54,31.65c0,8.53,1.49,17,1.49,25.57,0,3.28-2.2,4.2-4.75,4.21-2.83,0-5.66,0-8.49,0-2.09,0-2.9-1-2.9-3.72,0-17.37,0-32.14,0-49.51,0-2.8,0-8.16,4.58-8.16,2.89,0,4.2,1.61,7.09,1.65,2.15,0,3,1.1,3,3.91Q44.56,18.63,44.54,31.65Z"/><path class="cls-1" d="M48,77.5c-.23,4.3-5.68,10.06-10.79,10.06A9.25,9.25,0,0,1,28,78.32c0-5.11,7.29-12.86,9.25-9.25C39.64,73.56,48.26,72.4,48,77.5Z"/><path class="cls-1" d="M48.34,9.84s0,6,0,9A28.71,28.71,0,0,1,65.93,45.35c0,10.84-5.91,19.39-14.78,24.28-.23.12,0,0-.83,1a4.45,4.45,0,0,1-.75.69s1.87,4.47,1.87,7c0,.48,0,1-.07,1.44A37.21,37.21,0,0,0,74.42,45.35c0-15.91-24.5-37.16-24.5-37.16Z"/><path class="cls-1" d="M8.49,45.35A28.72,28.72,0,0,1,24.86,19.42l1.58-1.65s-1.58-5.14-1.57-7.53a37.21,37.21,0,0,0-1.82,69.52c.48-.47,1.58-1.65,1.58-1.65s-1-4.75.22-6.83A28.71,28.71,0,0,1,8.49,45.35Z"/><path class="cls-2" d="M46.11,30q0,12.8,0,25.6c0,3.28-.7,4.17-3.25,4.18-2.83,0-5.66,0-8.49,0-2.09,0-2.9-1-2.9-3.72q0-26.05,0-52.12c0-2.8.84-3.87,3-3.9Q38.8,0,43.13,0c2.15,0,3,1.1,3,3.91C46.13,12.62,46.11,21.31,46.11,30Z"/><circle class="cls-2" cx="38.79" cy="76.66" r="9.25"/><path class="cls-2" d="M49.92,8.19c0,3,0,6,0,9a28.72,28.72,0,0,1,1.22,52.4,14.19,14.19,0,0,1,1.87,7c0,.49,0,1-.07,1.45a37.21,37.21,0,0,0-3-69.92Z"/><path class="cls-2" d="M10.07,43.7A28.72,28.72,0,0,1,26.44,17.77V8.59a37.22,37.22,0,0,0-1.81,69.52,13.81,13.81,0,0,1-.07-1.45,14.09,14.09,0,0,1,1.87-7A28.72,28.72,0,0,1,10.07,43.7Z"/></g></g></svg>