<svg xmlns="http://www.w3.org/2000/svg" viewBox="0 0 72.77 88.58"><defs><style>.cls-1{fill:#a4a4a4;}.cls-2{fill:#dfdfdf;}</style></defs><g id="Layer_2" data-name="Layer 2"><g id="Layer_1-2" data-name="Layer 1"><path class="cls-1" d="M35.4,17.78A35.4,35.4,0,1,1,0,53.16,35.38,35.38,0,0,1,35.4,17.78Zm0,6.68A28.72,28.72,0,1,0,64.12,53.19,28.72,28.72,0,0,0,35.38,24.46Z"/><path class="cls-1" d="M35.42,1.43h6.31a2.69,2.69,0,0,1,2.85,2.83c0,1.88,2,2.58,2,4.46,0,.33-2.09,1.58-2.38,1.57-1,0-1.93,0-2.89,0-.36,0-.48.07-.47.45,0,1.29,1.93,1.46,2,2.75A5,5,0,0,1,40.44,15a31.45,31.45,0,0,0-8.72-.16c-.47.06-.94.1-1.41.18-.26,0-.36,0-.36-.3,0-1.33,0-2.67,0-4,0-.35-.1-.42-.42-.41-1,0-2,0-3,0-.28,0-.34-.08-.34-.35,0-1.94,0-3.88,0-5.82,0-1.48,2.51-4.11,4-4.12C32.39,0,33.25,1.43,35.42,1.43Z"/><path class="cls-1" d="M14.73,9.75A2.77,2.77,0,0,1,17,11.18c.95,1.6,3.95,2,4.87,3.6.14.25-2,1.54-2.18,1.67Q14.94,19.2,10.16,22c-.26.15-.36.09-.5-.15-.89-1.56-1.79-3.1-2.68-4.65A2.93,2.93,0,0,1,8.1,13L13,10.19A3.22,3.22,0,0,1,14.73,9.75Z"/><path class="cls-1" d="M56.88,8.5c.58,0,0,1.35.46,1.62,1.72,1,3.44,2,5.14,3A2.85,2.85,0,0,1,63.56,17c-.91,1.66.1,1.86-.84,3.5A8.42,8.42,0,0,1,60.32,22q-4.78-2.78-9.59-5.53c-.22-.12-.26-.22-.13-.44.95-1.62,1.87-3.25,2.83-4.87C54,10.23,55.89,8.55,56.88,8.5Z"/><path class="cls-1" d="M12.63,53.16A22.77,22.77,0,1,1,35.27,76,22.76,22.76,0,0,1,12.63,53.16ZM48.37,41.52a2.94,2.94,0,0,0-.89.16,35.43,35.43,0,0,0-5.12,2.08,93.67,93.67,0,0,0-10.18,5.55A2.49,2.49,0,0,0,31,52.06a7.12,7.12,0,0,0,5,5.69,2.62,2.62,0,0,0,3.18-1,94.63,94.63,0,0,0,7.61-11.71A17.75,17.75,0,0,0,48.37,41.52Z"/><path class="cls-2" d="M37.39,16.36A35.4,35.4,0,1,1,2,51.73,35.35,35.35,0,0,1,37.39,16.36Zm0,6.68A28.72,28.72,0,1,0,66.1,51.76,28.71,28.71,0,0,0,37.37,23Z"/><path class="cls-2" d="M37.4,0h6.31a2.7,2.7,0,0,1,2.85,2.83c0,1.89,0,3.77,0,5.65,0,.32-.1.39-.4.39-1,0-1.93,0-2.89,0-.35,0-.48.07-.47.46,0,1.29,0,2.57,0,3.86,0,.32,0,.43-.41.38a31.07,31.07,0,0,0-8.72-.16c-.47.06-.94.1-1.41.17-.26.05-.36,0-.35-.3,0-1.33,0-2.66,0-4,0-.34-.09-.41-.42-.41-1,0-2,0-3,0-.28,0-.35-.09-.35-.35,0-1.95,0-3.89,0-5.83A2.7,2.7,0,0,1,30.91,0C33.07,0,35.24,0,37.4,0Z"/><path class="cls-2" d="M16.72,8.33A2.75,2.75,0,0,1,19,9.75c.94,1.6,1.86,3.22,2.8,4.83.12.21.11.31-.12.44q-4.78,2.75-9.56,5.52c-.26.15-.36.09-.5-.15C10.76,18.84,9.85,17.3,9,15.74a2.93,2.93,0,0,1,1.11-4.16L15,8.76A3.09,3.09,0,0,1,16.72,8.33Z"/><path class="cls-2" d="M57.78,8.32a3,3,0,0,1,1.55.37c1.71,1,3.44,2,5.14,3a2.86,2.86,0,0,1,1.07,3.87c-.91,1.66-1.88,3.28-2.82,4.92-.12.21-.21.21-.41.1L52.71,15c-.21-.12-.26-.21-.13-.44,1-1.62,1.87-3.25,2.83-4.86A2.79,2.79,0,0,1,57.78,8.32Z"/><path class="cls-2" d="M14.61,51.73A22.77,22.77,0,1,1,37.25,74.52,22.76,22.76,0,0,1,14.61,51.73ZM50.35,40.09a2.81,2.81,0,0,0-.88.17,35,35,0,0,0-5.13,2.07,93,93,0,0,0-10.18,5.56A2.49,2.49,0,0,0,33,50.63a7.15,7.15,0,0,0,5,5.7,2.64,2.64,0,0,0,3.19-1,95.61,95.61,0,0,0,7.6-11.7A17.29,17.29,0,0,0,50.35,40.09Z"/></g></g></svg>