<svg xmlns="http://www.w3.org/2000/svg" viewBox="0 0 129.9 129.27"><defs><style>.cls-1{fill:#dfdfdf;}.cls-2{fill:#a4a4a4;}</style></defs><g id="Layer_2" data-name="Layer 2"><g id="Layer_1-2" data-name="Layer 1"><path class="cls-1" d="M23.26,26.75Q13.54,35.87,3.82,45C-1,49.54-1.38,53.48,3.3,58c13,12.5,26.15,24.76,39.27,37.11a14.09,14.09,0,0,0,2,1.43c5,3.26,13.31-1,13.92-6.73.55-5.17-3.63-7.72-3.59-12.93,0-7.31,0-7.47,7.9-6.72,9.47.89,18.41,3.34,25.58,9.68,7.87,7,8.19,19.68.86,27.25-6.79,7-15.76,9.56-25.24,11.14-1.89.32-.89-3.22-2.76-2.82-.91.19-4.81,4.31-5.06,5.35-.3,1.26.71,1.91,1.59,2.42a51.52,51.52,0,0,0,4.76,2.38c28.83,13,65.21-9.86,63-42.59-1.21-18.16-11.81-30.8-27.37-40.41-11.79-7.28-25-10.93-38.76-12.73C55.87,29.36,55,28.09,55.23,25c.29-4.4.05-8.84,0-13.26,0-2.77-.1-5.8-3.18-7s-5.63.71-7.76,2.49c-3.42,2.85-6.55,6-9.8,9.05Q28.87,21.45,23.26,26.75Z"/><path class="cls-2" d="M27.48,22.49C21,28.58,14.51,34.65,8.05,40.76c-4.79,4.53-5.21,8.47-.52,13,13,12.5,26.15,24.76,39.27,37.1a13.83,13.83,0,0,0,2,1.44c5,3.26,9.37,1.68,10-4.05.55-5.16.32-10.41.35-15.62,0-7.3,0-7.46,7.9-6.72,9.48.9,18.42,3.34,25.59,9.68,7.87,7,8.19,19.69.86,27.26-6.79,7-15.77,9.56-25.24,11.14-1.89.31-3.8.56-5.67,1-.91.19-1.9.53-2.15,1.57-.3,1.25.71,1.91,1.59,2.42a50.22,50.22,0,0,0,4.76,2.37c28.83,13,65.21-9.85,63-42.59C128.6,60.56,118,47.92,102.44,38.31,90.65,31,77.47,27.38,63.68,25.57c-3.58-.46-4.43-1.73-4.22-4.87.28-4.41,0-8.84,0-13.26,0-2.77-.09-5.81-3.17-7.06s-5.63.72-7.76,2.5c-3.42,2.85-6.56,6-9.8,9Z"/></g></g></svg>