<svg xmlns="http://www.w3.org/2000/svg" viewBox="0 0 81.3 80.59"><defs><style>.cls-1{fill:#a4a4a4;}.cls-2{fill:#dfdfdf;}</style></defs><g id="Layer_2" data-name="Layer 2"><g id="Layer_1-2" data-name="Layer 1"><path class="cls-1" d="M71.36,3.17,7.86,0C4.52,0,0,5.89,0,9.23V74.54a6.06,6.06,0,0,0,6.06,6h65.3c3.34,0,9.81-4.61,9.81-8L77.42,9.23A6.07,6.07,0,0,0,71.36,3.17ZM70.74,12V69a1.54,1.54,0,0,1-1.54,1.53h-61A1.54,1.54,0,0,1,6.68,69V12a1.54,1.54,0,0,1,1.53-1.54h61A1.54,1.54,0,0,1,70.74,12Z"/><path class="cls-2" d="M75.25,0H9.94A6.07,6.07,0,0,0,3.88,6.06v65.3a6.07,6.07,0,0,0,6.06,6.06H75.25a6.06,6.06,0,0,0,6-6.06V6.06A6.06,6.06,0,0,0,75.25,0Zm-.63,8.77v57a1.54,1.54,0,0,1-1.53,1.54h-61a1.54,1.54,0,0,1-1.54-1.54v-57A1.53,1.53,0,0,1,12.1,7.24h61A1.53,1.53,0,0,1,74.62,8.77Z"/><path class="cls-1" d="M21.86,24.39c.43.7,8.08,9.11,8.08,9.11l-1.2,2H23.62l.2.35a6.2,6.2,0,0,1,.92,3.6,6.85,6.85,0,0,1-.89,3A26.57,26.57,0,0,1,22,45.14,11.2,11.2,0,0,0,20.91,47,3.6,3.6,0,0,0,21.57,51c.54.62.67.41,1.36.8a18.32,18.32,0,0,0,1.8-1.1c-.46.7-2.16,3.46-2.62,4.17,0,.05-.1.1-.1.18h-.07c0-.08-.1-.09-.16-.12a11,11,0,0,1-2.92-2.65,6.39,6.39,0,0,1-1.32-3.72,6.55,6.55,0,0,1,.68-3,17.43,17.43,0,0,1,1.7-2.69,13.72,13.72,0,0,0,1.41-2.25,3.6,3.6,0,0,0-.11-3.36,5.27,5.27,0,0,0-1.49-1.59.53.53,0,0,0-.36-.13H14.93s1.22-2,1.79-2.89l5.1-8.21Z"/><path class="cls-2" d="M23.06,22.41c.43.7.86,1.41,1.3,2.11l5.5,8.85.08.13H24.82l.2.35a6.2,6.2,0,0,1,.92,3.6,6.85,6.85,0,0,1-.89,3,26.57,26.57,0,0,1-1.82,2.74,10.9,10.9,0,0,0-1.12,1.9A3.58,3.58,0,0,0,22.77,49a7,7,0,0,0,1.88,1.48c.14.09.12.14.05.26-.47.71-1.49,2.31-1.49,2.31L23,52.91a10.81,10.81,0,0,1-2.92-2.65,6.39,6.39,0,0,1-1.32-3.72,6.55,6.55,0,0,1,.68-3,17.43,17.43,0,0,1,1.7-2.69,13.72,13.72,0,0,0,1.41-2.25,3.6,3.6,0,0,0-.11-3.36,5.27,5.27,0,0,0-1.49-1.59.59.59,0,0,0-.36-.13c-1.4,0-4.34,0-4.42,0s1.2-2,1.77-2.89L23,22.41Z"/><path class="cls-1" d="M39.68,24.39c.43.7,8.08,9.11,8.08,9.11l-1.2,2H41.44l.2.35a6.2,6.2,0,0,1,.92,3.6,6.85,6.85,0,0,1-.89,3,26.57,26.57,0,0,1-1.82,2.74A11.2,11.2,0,0,0,38.73,47,3.6,3.6,0,0,0,39.39,51c.54.62.67.41,1.36.8a18.32,18.32,0,0,0,1.8-1.1c-.46.7-2.16,3.46-2.62,4.17,0,.05-.1.1-.1.18h-.07c0-.08-.1-.09-.16-.12a11,11,0,0,1-2.92-2.65,6.39,6.39,0,0,1-1.32-3.72,6.55,6.55,0,0,1,.68-3,17.43,17.43,0,0,1,1.7-2.69,13.72,13.72,0,0,0,1.41-2.25A3.57,3.57,0,0,0,39,37.2a5.27,5.27,0,0,0-1.49-1.59.53.53,0,0,0-.36-.13H32.75l1.79-2.89,5.1-8.21Z"/><path class="cls-2" d="M40.88,22.41c.44.7.87,1.41,1.3,2.11l5.51,8.85s0,.07.07.13H42.64c.08.14.14.25.21.35a6.27,6.27,0,0,1,.91,3.6,6.85,6.85,0,0,1-.89,3,26.57,26.57,0,0,1-1.82,2.74,10.9,10.9,0,0,0-1.12,1.9A3.58,3.58,0,0,0,40.59,49a7.19,7.19,0,0,0,1.88,1.48c.14.09.13.14.05.26C42.05,51.43,41,53,41,53l-.23-.12a10.81,10.81,0,0,1-2.92-2.65,6.39,6.39,0,0,1-1.32-3.72,6.55,6.55,0,0,1,.68-3,17.43,17.43,0,0,1,1.7-2.69,13.72,13.72,0,0,0,1.41-2.25,3.57,3.57,0,0,0-.11-3.36,5.27,5.27,0,0,0-1.49-1.59.59.59,0,0,0-.36-.13c-1.4,0-4.34,0-4.42,0l1.77-2.89,5.1-8.21Z"/><path class="cls-1" d="M57.5,24.39c.44.7,8.08,9.11,8.08,9.11l-1.2,2H59.26l.21.35a6.27,6.27,0,0,1,.91,3.6,6.85,6.85,0,0,1-.89,3,26.57,26.57,0,0,1-1.82,2.74A11.2,11.2,0,0,0,56.55,47,3.6,3.6,0,0,0,57.21,51c.55.62.67.41,1.36.8a19.88,19.88,0,0,0,1.81-1.1c-.47.7-2.17,3.46-2.63,4.17,0,.05-.1.1-.1.18h-.07c0-.08-.1-.09-.16-.12a11,11,0,0,1-2.92-2.65,6.46,6.46,0,0,1-1.32-3.72,6.55,6.55,0,0,1,.68-3,17.43,17.43,0,0,1,1.7-2.69A13.72,13.72,0,0,0,57,40.56a3.57,3.57,0,0,0-.11-3.36,5.27,5.27,0,0,0-1.49-1.59.53.53,0,0,0-.36-.13H50.57l1.79-2.89q2.55-4.11,5.11-8.21Z"/><path class="cls-2" d="M58.7,22.41c.44.7.87,1.41,1.3,2.11l5.51,8.85s0,.07.07.13H60.46c.08.14.14.25.21.35a6.27,6.27,0,0,1,.91,3.6,6.85,6.85,0,0,1-.89,3,28.21,28.21,0,0,1-1.81,2.74,10.36,10.36,0,0,0-1.13,1.9A3.58,3.58,0,0,0,58.41,49a7.19,7.19,0,0,0,1.88,1.48c.14.09.13.14.05.26-.47.71-1.49,2.31-1.49,2.31l-.23-.12a10.81,10.81,0,0,1-2.92-2.65,6.46,6.46,0,0,1-1.32-3.72,6.68,6.68,0,0,1,.68-3,17.43,17.43,0,0,1,1.7-2.69,13.08,13.08,0,0,0,1.41-2.25,3.57,3.57,0,0,0-.11-3.36,5.27,5.27,0,0,0-1.49-1.59.59.59,0,0,0-.36-.13c-1.4,0-4.34,0-4.42,0l1.77-2.89q2.55-4.11,5.11-8.21Z"/></g></g></svg>