<svg xmlns="http://www.w3.org/2000/svg" viewBox="0 0 100.24 84.67"><defs><style>.cls-1{fill:#a4a4a4;}.cls-2{fill:#dfdfdf;}</style></defs><g id="Layer_2" data-name="Layer 2"><g id="Layer_1-2" data-name="Layer 1"><path class="cls-1" d="M48.21,1.81a3.77,3.77,0,0,1,1.88.36L95.68,21.92c.34.15.86.23.86.73s-.51.64-.92.8L50.13,41.67a4.85,4.85,0,0,1-3.74,0L1.19,23.58c-.14,0-.27-.12-.4-.18-.33-.14-.74-.23-.79-.67S.44,22.1.79,22l10-4.3L46,2.38A4,4,0,0,1,48.21,1.81Z"/><path class="cls-1" d="M48.26,63.33A4.86,4.86,0,0,1,46.34,63Q23.65,53.86,1,44.79C.55,44.63,0,44.55,0,44s.54-.63.93-.8q8.57-3.72,17.15-7.47a1.83,1.83,0,0,1,1.55,0q12.48,5,25,10a9.38,9.38,0,0,0,7.35,0c8.32-3.36,16.65-6.67,25-10a1.79,1.79,0,0,1,1.55,0c5.72,2.5,11.44,5,17.15,7.46.39.17.94.25.9.81s-.57.59-1,.75L50.18,63A4.89,4.89,0,0,1,48.26,63.33Z"/><path class="cls-1" d="M48.24,84.65a4.32,4.32,0,0,1-2-.4L1,66.13c-.4-.16-1-.22-1-.75s.58-.67,1-.86c5.68-2.47,11.38-4.93,17-7.42a2,2,0,0,1,1.67,0c8.29,3.33,16.59,6.63,24.88,10a9.38,9.38,0,0,0,7.35,0c8.28-3.35,16.59-6.65,24.88-10a2.12,2.12,0,0,1,1.76,0Q87,60.81,95.37,64.42c.13.06.27.12.39.19.35.18.82.28.78.79s-.48.53-.8.66L86.3,69.85,50.64,84.11A4.87,4.87,0,0,1,48.24,84.65Z"/><path class="cls-2" d="M51.91,0a3.77,3.77,0,0,1,1.88.36L99.38,20.14c.34.15.86.23.86.73s-.52.64-.92.8L53.83,39.89a4.85,4.85,0,0,1-3.74,0L4.89,21.8l-.4-.18c-.33-.15-.75-.24-.79-.67s.44-.63.79-.78l9.94-4.3L49.67.6A4,4,0,0,1,51.91,0Z"/><path class="cls-2" d="M52,61.55A4.78,4.78,0,0,1,50,61.17L4.65,43c-.4-.16-.94-.24-1-.77s.54-.63.93-.8Q13.21,37.72,21.78,34a1.85,1.85,0,0,1,1.56,0q12.48,5,25,10a9.38,9.38,0,0,0,7.35,0c8.31-3.36,16.65-6.67,25-10a1.81,1.81,0,0,1,1.56,0c5.71,2.5,11.43,5,17.15,7.46.38.17.94.25.9.81s-.57.59-1,.75Q76.57,52.1,53.88,61.19A4.89,4.89,0,0,1,52,61.55Z"/><path class="cls-2" d="M51.94,82.87a4.29,4.29,0,0,1-1.95-.4L4.68,64.35c-.39-.16-.95-.22-1-.75s.57-.67,1-.86c5.69-2.47,11.38-4.93,17.06-7.43a2,2,0,0,1,1.66,0c8.3,3.33,16.6,6.63,24.88,10a9.34,9.34,0,0,0,7.35,0c8.29-3.34,16.59-6.64,24.88-10a2.11,2.11,0,0,1,1.77,0Q90.67,59,99.06,62.64l.4.19c.35.18.82.28.78.79s-.48.53-.8.66L90,68.07,54.33,82.33A4.81,4.81,0,0,1,51.94,82.87Z"/></g></g></svg>