<svg xmlns="http://www.w3.org/2000/svg" viewBox="0 0 76.05 64.31"><defs><style>.cls-1{fill:#a4a4a4;}.cls-2{fill:#dfdfdf;}</style></defs><g id="Layer_2" data-name="Layer 2"><g id="Layer_1-2" data-name="Layer 1"><path class="cls-1" d="M60,64.31H1.61c-1.51,0-2-1.61-1.25-2.91.63-1,1.31-2.29,1.31-2.29.33-.35,12.23-11.8,12.7-11.8L75.49,46c1.51,0-.42,3.11-1.45,4.21L61.28,63.77A1.76,1.76,0,0,1,60,64.31Z"/><path class="cls-2" d="M61.56,61.77H3.15a1.72,1.72,0,0,1-1.25-2.9L14.65,45.32a1.72,1.72,0,0,1,1.26-.54H74.32a1.72,1.72,0,0,1,1.26,2.9L62.82,61.23A1.72,1.72,0,0,1,61.56,61.77Z"/><path class="cls-1" d="M18.91,2.54c.55.9,10.35,11.68,10.35,11.68l-1.53,2.54H21.16c.11.18.19.31.26.45a8,8,0,0,1,1.18,4.61,8.85,8.85,0,0,1-1.14,3.81,36.19,36.19,0,0,1-2.33,3.51,13.76,13.76,0,0,0-1.44,2.43,4.58,4.58,0,0,0,.85,5c.69.79.85.52,1.73,1a22.57,22.57,0,0,0,2.32-1.42c-.6.91-2.78,4.44-3.37,5.35,0,.07-.13.13-.12.24H19c0-.11-.12-.12-.19-.16a13.91,13.91,0,0,1-3.75-3.39,8.15,8.15,0,0,1-.82-8.64,22.91,22.91,0,0,1,2.18-3.46,16.76,16.76,0,0,0,1.8-2.88,4.55,4.55,0,0,0-.14-4.3,6.69,6.69,0,0,0-1.91-2,.76.76,0,0,0-.46-.16H10s1.57-2.54,2.3-3.7L18.86,2.54Z"/><path class="cls-2" d="M20.45,0c.55.9,1.1,1.81,1.66,2.71q3.53,5.67,7.06,11.35l.09.16H22.7c.11.18.18.31.26.45a8,8,0,0,1,1.18,4.62A8.93,8.93,0,0,1,23,23.1a34.87,34.87,0,0,1-2.33,3.5A13.76,13.76,0,0,0,19.23,29a4.62,4.62,0,0,0,.84,5A9.54,9.54,0,0,0,22.48,36c.18.1.16.17.06.32-.6.91-1.9,3-1.9,3l-.3-.16a13.69,13.69,0,0,1-3.74-3.39,8.09,8.09,0,0,1-.82-8.64A22.32,22.32,0,0,1,18,23.62a16.47,16.47,0,0,0,1.8-2.89,4.55,4.55,0,0,0-.14-4.3,6.54,6.54,0,0,0-1.91-2,.7.7,0,0,0-.46-.16H11.59s1.54-2.55,2.27-3.71L20.4,0Z"/><path class="cls-1" d="M41.75,2.54c.56.9,10.36,11.68,10.36,11.68l-1.54,2.54H44l.26.45a8.14,8.14,0,0,1,1.18,4.61,9,9,0,0,1-1.15,3.81A34.44,34.44,0,0,1,42,29.14a13.14,13.14,0,0,0-1.43,2.43,4.56,4.56,0,0,0,.84,5c.7.79.85.52,1.74,1a23.45,23.45,0,0,0,2.31-1.42c-.59.91-2.77,4.44-3.36,5.35,0,.07-.13.13-.13.24h-.09c0-.11-.13-.12-.2-.16a13.87,13.87,0,0,1-3.74-3.39,8.22,8.22,0,0,1-1.7-4.78,8.53,8.53,0,0,1,.87-3.86,22.91,22.91,0,0,1,2.18-3.46,17.45,17.45,0,0,0,1.81-2.88,4.55,4.55,0,0,0-.14-4.3,6.94,6.94,0,0,0-1.91-2,.78.78,0,0,0-.47-.16H32.86l2.3-3.7L41.7,2.54Z"/><path class="cls-2" d="M43.29,0,45,2.71l7,11.35.1.16H45.54l.27.45A8.08,8.08,0,0,1,47,19.29a8.93,8.93,0,0,1-1.14,3.81,33.23,33.23,0,0,1-2.33,3.5A13.76,13.76,0,0,0,42.07,29a4.6,4.6,0,0,0,.85,5,9.49,9.49,0,0,0,2.4,1.9c.19.1.17.17.07.32-.6.91-1.91,3-1.91,3l-.29-.16a13.55,13.55,0,0,1-3.74-3.39,8.22,8.22,0,0,1-1.7-4.78,8.4,8.4,0,0,1,.87-3.86,22.32,22.32,0,0,1,2.18-3.45,16.47,16.47,0,0,0,1.8-2.89,4.55,4.55,0,0,0-.13-4.3,6.78,6.78,0,0,0-1.91-2,.74.74,0,0,0-.47-.16H34.43S36,11.69,36.7,10.53L43.24,0Z"/><path class="cls-1" d="M64.6,2.54C65.15,3.44,75,14.22,75,14.22l-1.54,2.54H66.85c.11.18.18.31.26.45a8,8,0,0,1,1.18,4.61,8.85,8.85,0,0,1-1.14,3.81,36.19,36.19,0,0,1-2.33,3.51,13.76,13.76,0,0,0-1.44,2.43,4.6,4.6,0,0,0,.84,5c.7.79.86.52,1.74,1a23.72,23.72,0,0,0,2.32-1.42c-.6.91-2.78,4.44-3.37,5.35,0,.07-.13.13-.12.24h-.1c0-.11-.13-.12-.2-.16a14,14,0,0,1-3.74-3.39,8.09,8.09,0,0,1-.82-8.64,22.91,22.91,0,0,1,2.18-3.46,16.76,16.76,0,0,0,1.8-2.88,4.55,4.55,0,0,0-.14-4.3,6.81,6.81,0,0,0-1.91-2,.76.76,0,0,0-.46-.16H55.71s1.57-2.54,2.3-3.7L64.55,2.54Z"/><path class="cls-2" d="M66.13,0,67.8,2.71l7.06,11.35.09.16H68.39l.26.45a8,8,0,0,1,1.18,4.62,9.07,9.07,0,0,1-1.14,3.81,36.67,36.67,0,0,1-2.33,3.5A13.18,13.18,0,0,0,64.92,29a4.62,4.62,0,0,0,.84,5A9.36,9.36,0,0,0,68.17,36c.18.1.16.17.06.32-.6.91-1.9,3-1.9,3L66,39.1a13.69,13.69,0,0,1-3.74-3.39,8.29,8.29,0,0,1-1.7-4.78,8.53,8.53,0,0,1,.87-3.86,22.38,22.38,0,0,1,2.19-3.45,17.08,17.08,0,0,0,1.8-2.89,4.55,4.55,0,0,0-.14-4.3,6.66,6.66,0,0,0-1.91-2,.7.7,0,0,0-.46-.16H57.28s1.54-2.55,2.26-3.71L66.09,0Z"/></g></g></svg>