<svg xmlns="http://www.w3.org/2000/svg" viewBox="0 0 69.14 68.93"><defs><style>.cls-1{fill:#a4a4a4;}.cls-2{fill:#fff;}</style></defs><g id="Layer_2" data-name="Layer 2"><g id="Layer_1-2" data-name="Layer 1"><path class="cls-1" d="M44.38,42.57l-19.9-.74A2.72,2.72,0,0,0,23.27,43V46.2a.47.47,0,0,0,.48.47h1.43V49a.47.47,0,0,0,.47.47H42.48c.26,0,1.44-.83,1.44-1.09l-1-1.67h1.43c.26,0,1.47-.89,1.47-1.15l-1-2.48A.48.48,0,0,0,44.38,42.57Z"/><path class="cls-1" d="M33.39,54.29c.16-.07,1.18-.8,1.18-.95,0-1-.94-1.36-.94-2.31,0-.23-.08-.3-.33-.3-.93,0-1-.79-1.95-.79-.24,0-1.1.86-1.1,1.05v2.89a.37.37,0,0,0,.24.41A3.22,3.22,0,0,0,33.39,54.29Z"/><path class="cls-1" d="M34.24,55.09c-.12,0-2.45-.43-2.45-.43l-1,.81s1.79,1.74,2.77,2.62A1.38,1.38,0,0,0,34.86,58c.57-.57,1.07-1,1.68-1.61.25-.23.64-.59.89-.86A5.19,5.19,0,0,1,34.24,55.09Z"/><path class="cls-1" d="M37.56,50.73c-.94,0-1-.79-1.94-.79-.25,0-1.11.86-1.11,1.05v2.89a.37.37,0,0,0,.24.41,3.2,3.2,0,0,0,2.89,0,4.72,4.72,0,0,0,1.2-1c0-1-1-1.34-1-2.29C37.89,50.8,37.81,50.73,37.56,50.73Z"/><path class="cls-1" d="M43.65,15.87c-6.43,0-11.79-.8-18.28-.8a4.38,4.38,0,0,0-4,3.83V38.36a3,3,0,0,0,3,3H43.67c1.73,0,4.15-1.75,4.15-3.58,0-6.39-1-12.34-1-18.73A3.15,3.15,0,0,0,43.65,15.87Zm-4.59,20H28.44V33.14l6.67-7a1.43,1.43,0,0,0,.35-1.6,1.38,1.38,0,0,0-.61-.67c-.17,0,.42-.86.23-.86-.95,0-2.28,1.3-2.59,1.74a.85.85,0,0,1,0,.09l-.29,1L28.78,25l.29-1.07a5.12,5.12,0,0,1,5-3.68,4.82,4.82,0,0,1,4.54,2.92,5,5,0,0,1-1,5.49L34,32.39h5Z"/><path class="cls-1" d="M34.06,6.23A28.64,28.64,0,1,1,5.43,34.87,28.64,28.64,0,0,1,34.06,6.23m0-5.42A33.88,33.88,0,1,0,47.33,3.48,34,34,0,0,0,34.06.81Z"/><path class="cls-2" d="M45.4,41.76H24.76a.47.47,0,0,0-.47.47v3.16a.47.47,0,0,0,.47.47H26.2v2.29a.47.47,0,0,0,.47.48H43.49a.47.47,0,0,0,.47-.48V45.86H45.4a.47.47,0,0,0,.47-.47V42.23A.47.47,0,0,0,45.4,41.76Z"/><path class="cls-2" d="M34.4,53.49a.42.42,0,0,0,.24-.38V50.23c0-.23-.08-.31-.32-.31H31.55c-.24,0-.28.08-.28.27v2.88a.37.37,0,0,0,.24.42A3.26,3.26,0,0,0,34.4,53.49Z"/><path class="cls-2" d="M35.26,54.28a.77.77,0,0,0-.37,0,4.78,4.78,0,0,1-3.1.38c.94.88,1.8,1.75,2.77,2.62a1.12,1.12,0,0,0,1.18-.11c.57-.57,1.18-1.14,1.79-1.71.25-.23.53-.49.78-.76A4.67,4.67,0,0,1,35.26,54.28Z"/><path class="cls-2" d="M38.58,49.92H35.81c-.25,0-.29.08-.29.27v2.88a.38.38,0,0,0,.25.42,3.26,3.26,0,0,0,2.89,0,.42.42,0,0,0,.24-.38V50.23C38.9,50,38.82,49.92,38.58,49.92Z"/><path class="cls-2" d="M44.66,15.07H25.37a3,3,0,0,0-3,3q0,9.73,0,19.46a3,3,0,0,0,3,3H44.68a3.14,3.14,0,0,0,3.14-3.13q0-9.6,0-19.19A3.15,3.15,0,0,0,44.66,15.07ZM40.07,35H29.45V32.33l6.67-7a1.41,1.41,0,0,0,.35-1.6,1.35,1.35,0,0,0-.6-.67,2.35,2.35,0,0,0-.54-.06,2.09,2.09,0,0,0-1.82.95.44.44,0,0,0,0,.08l-.29,1-3.39-.88.28-1.07a5.14,5.14,0,0,1,5-3.69,4.84,4.84,0,0,1,4.54,2.92,5,5,0,0,1-1,5.49L35,31.58h5Z"/><path class="cls-2" d="M35.08,5.43A28.64,28.64,0,1,1,6.44,34.06,28.63,28.63,0,0,1,35.08,5.43m0-5.43A34,34,0,0,0,11,58.15,34.06,34.06,0,1,0,48.34,2.68,33.79,33.79,0,0,0,35.08,0Z"/></g></g></svg>