<svg xmlns="http://www.w3.org/2000/svg" viewBox="0 0 68.81 59"><defs><style>.cls-1{fill:#a4a4a4;}.cls-2{fill:#dfdfdf;}</style></defs><g id="Layer_2" data-name="Layer 2"><g id="Layer_1-2" data-name="Layer 1"><path class="cls-1" d="M66.75,31c-5.6-5.23-11.46-10.16-16.92-15.58C45.93,11.54,41.7,8,37.63,4.3c-3-2.71-4.18-2.73-7.15-.07q-8.79,7.85-17.33,16c-3.9,3.7-11.79,12.31-12,10.8C.8,27.92-.57,33.43.26,34.87a3,3,0,0,0,3.82,1.38,5.35,5.35,0,0,0,1.69-1.2c9.16-8,18-16.29,26.88-24.61,1-.93,1.59-1.09,2.64-.06,2.42,2.35,4.92,4.63,7.38,7,6.46,6.13,13.16,12,19.77,18A3.32,3.32,0,0,0,65,36.41a3.05,3.05,0,0,0,3-2C70.05,28.32,67.69,31.89,66.75,31Z"/><path class="cls-1" d="M7.78,36.88V59H25.25l2.12-2.68L25.25,40h14.5V59H57.22l2.12-2.68L57.22,36.88,33.13,15.33C32.77,15,13.68,37.85,13.32,38.18l-3.42-4Z"/><path class="cls-2" d="M67.34,28.76c-5.6-5.23-11.46-10.16-16.92-15.58-3.9-3.89-8.13-7.42-12.21-11.13C35.23-.66,34-.68,31.07,2Q22.28,9.83,13.74,18c-3.9,3.7-8,7.21-12,10.81C.58,29.85,0,31.18.85,32.62A3,3,0,0,0,4.67,34a5.35,5.35,0,0,0,1.69-1.2c9.16-8,18-16.29,26.88-24.61,1-.93,1.59-1.09,2.64-.06,2.42,2.35,4.92,4.63,7.37,7,6.47,6.13,13.16,12,19.78,18a3.33,3.33,0,0,0,2.55,1.11,3.17,3.17,0,0,0,3-2C69.21,30.62,68.28,29.64,67.34,28.76Z"/><path class="cls-2" d="M9.9,34.2V56.32H27.37v-19h14.5v19H59.34V34.2L35.25,12.65a.93.93,0,0,0-1.26,0Z"/></g></g></svg>