<svg xmlns="http://www.w3.org/2000/svg" viewBox="0 0 65.87 52.34"><defs><style>.cls-1{fill:#a4a4a4;}.cls-2{fill:#dfdfdf;}</style></defs><g id="Layer_2" data-name="Layer 2"><g id="Layer_1-2" data-name="Layer 1"><path class="cls-1" d="M34.24,16.37l1.45-1.45L34.24,1.59,8.8.14,7.35,1.59V16.37L20.8,25.24ZM25.4,7.5h6.72v7.39L25.4,19.32Z"/><path class="cls-1" d="M7.59,45.16h33c1.15,0,3.55-1.54,3.55-3.13,0-1.1-2.38-.84-3.55-.84H7.37a2,2,0,0,1-1.56-.7h0a2.7,2.7,0,0,1,0-3.6h0a2,2,0,0,1,1.49-.66h11.3c2.35,0,5.67-2.75,5.67-5l-1.42-2.78c0-1.1.28-3.42-.89-3.42s-3.36,2.32-3.36,3.42v2.87a.94.94,0,0,1-1,.92H7.6c-2.69-.86-4.21.79-5.74,2.22a5.7,5.7,0,0,0,0,8.44A8.35,8.35,0,0,0,7.59,45.16Z"/><polygon class="cls-1" points="0 52.34 64.42 52.34 65.87 50.89 64.42 48.75 1.45 47.3 0 48.75 0 52.34"/><path class="cls-1" d="M61.23,34.62,57,38.86V37.48h0V7.82l4,4a1.88,1.88,0,0,0,2.65,0l1.45-1.45c.73-.73-.54-.65-1.27-1.38L57,2.2a2.57,2.57,0,0,0-3.63,0l-7,7.05a1.87,1.87,0,0,0,0,2.64h0a1.87,1.87,0,0,0,2.65,0l4.25-4.25V9h0V38.7l-4-4.05c-.73-.73-.64-2-1.37-1.27l-1.45,1.45a1.86,1.86,0,0,0,0,2.65l6.83,6.83a2.55,2.55,0,0,0,3.63,0l7-7.05a1.87,1.87,0,1,0-2.64-2.64Z"/><path class="cls-2" d="M35.69,14.92V.14H8.8V14.92l13.45,8.87ZM26.85,6.05h6.72v7.39l-6.72,4.44Z"/><path class="cls-2" d="M9,43.71h33a2,2,0,1,0,0-4H8.82a2.06,2.06,0,0,1-1.56-.7h0a2.7,2.7,0,0,1,0-3.6h0a2,2,0,0,1,1.49-.66h11.3a4.12,4.12,0,0,0,4.25-4V27a2.13,2.13,0,0,0-4.25,0v2.87a.94.94,0,0,1-1,.92h-10a8.45,8.45,0,0,0-5.74,2.22,5.71,5.71,0,0,0,0,8.45A8.39,8.39,0,0,0,9,43.71Z"/><rect class="cls-2" x="1.45" y="47.3" width="64.42" height="3.59"/><path class="cls-2" d="M62.68,33.17l-4.25,4.24V36h0V6.37l4,4.05a1.86,1.86,0,0,0,2.64,0l.18-.19a1.85,1.85,0,0,0,0-2.64L58.49.75a2.57,2.57,0,0,0-3.63,0l-7,7.05a1.88,1.88,0,0,0,0,2.65h0a1.88,1.88,0,0,0,2.65,0L54.7,6.2V7.58h0V37.25l-4-4a1.88,1.88,0,0,0-2.65,0l-.18.18a1.86,1.86,0,0,0,0,2.65l6.83,6.83a2.55,2.55,0,0,0,3.63,0l7-7a1.87,1.87,0,1,0-2.64-2.64Z"/></g></g></svg>