<svg xmlns="http://www.w3.org/2000/svg" viewBox="0 0 86.13 81.7"><defs><style>.cls-1{fill:#a4a4a4;}.cls-2{fill:#dfdfdf;}</style></defs><g id="Layer_2" data-name="Layer 2"><g id="Layer_1-2" data-name="Layer 1"><rect class="cls-1" x="42.75" y="65.22" width="4.3" height="16.48"/><rect class="cls-2" x="40.6" y="65.22" width="4.3" height="16.48"/><path class="cls-1" d="M68.46,64.23h-67c-1.73,0-1.86-7.57-.67-9.46L14.65,36a1.75,1.75,0,0,1,1.44-.93l70-1.55s-.37,4.65-1.56,6.54L69.9,63.3A1.75,1.75,0,0,1,68.46,64.23Z"/><path class="cls-2" d="M69.51,59.19h-67c-1.74,0-2.63-3.1-1.44-5L15.7,30.94A1.75,1.75,0,0,1,17.14,30h67c1.73,0,2.63,3.1,1.44,5L71,58.26A1.78,1.78,0,0,1,69.51,59.19Z"/><rect class="cls-1" x="44.24" width="4.3" height="28.83"/><rect class="cls-2" x="42.08" width="4.3" height="28.83"/></g></g></svg>