<svg xmlns="http://www.w3.org/2000/svg" viewBox="0 0 98.61 88.84"><defs><style>.cls-1{fill:#a4a4a4;}.cls-2{fill:#dfdfdf;}.cls-3{fill:#828282;}.cls-4{fill:#414042;}</style></defs><g id="Layer_2" data-name="Layer 2"><g id="Layer_1-2" data-name="Layer 1"><path class="cls-1" d="M80.64,41.58l2.72,13.24a1.6,1.6,0,0,0,2.63.81l3.21-2.79c1.91,4.32,3.22,9.81,0,15.08-10.47,17-22.2,11-22.2,11,7.79,3.36,21.37,1.52,26.58-9a20.58,20.58,0,0,0-.83-20.1l3.56-3.08A1.55,1.55,0,0,0,95.8,44l-13-5.43S80.4,40.37,80.64,41.58Z"/><path class="cls-1" d="M14.67,42.78l1.22-12.46a1.59,1.59,0,0,0-2.22-1.62l-4-.84c-.39-4.7,1.42-9.17,5.82-13.52C29.87.14,42.27,10.27,42.27,10.27,33.93,2.42,19.52,3.68,11.16,12A22,22,0,0,0,5.39,32L1,33.77a1.55,1.55,0,0,0-.41,2.68L11.5,44.78C12.49,45.53,14.67,42.78,14.67,42.78Z"/><path class="cls-2" d="M15,42l1.75-13.4A1.6,1.6,0,0,0,14.52,27l-3.95,1.59a17.16,17.16,0,0,1,4.95-14.25C29.87.14,42.27,10.27,42.27,10.27c-8.34-7.85-21.88-7.5-30.25.78A20.57,20.57,0,0,0,6.24,30.32L1.87,32.08a1.55,1.55,0,0,0-.41,2.68l10.9,8.33A1.65,1.65,0,0,0,15,42Z"/><path class="cls-3" d="M77.05,19.56c-1.25,1-1,1.22-2.31,2.31a13.94,13.94,0,0,1-5.63,2.91,18.93,18.93,0,0,1-12.79-.85,11.74,11.74,0,0,1-4.56-3.36c-.62-.75,0,.79-.31-.22.3,1.67.1.14.08,0s.23.24.23.18.79.41.52-.71c1,1.49.29.9,1.82,1.92A16.45,16.45,0,0,0,61,24.29a19.38,19.38,0,0,0,9.67-1,13.29,13.29,0,0,0,5-3.13c.7-.7.2.6.67-.37A1.7,1.7,0,0,1,77.05,19.56Z"/><path class="cls-3" d="M77,21.71c-.53,1.9-1,1.21-2.3,2.31a14,14,0,0,1-5.64,2.9,18.93,18.93,0,0,1-12.79-.84,11.74,11.74,0,0,1-4.56-3.36c-.61-.75-.38,0-.71-1,0-.1,0,.1,0,0s.44-.05.44-.11,0,0,0,0c.91,1.92,1.08,1.31,2.62,2.32A16.28,16.28,0,0,0,61,26.43a19.41,19.41,0,0,0,9.68-1,13.46,13.46,0,0,0,5-3.13c.71-.71.2.59.67-.38A1.7,1.7,0,0,1,77,21.71Z"/><path class="cls-3" d="M77.63,21.71a8.63,8.63,0,0,1-2.85,4.36A14,14,0,0,1,69.15,29a19,19,0,0,1-12.79-.84,11.87,11.87,0,0,1-4.56-3.37,7.7,7.7,0,0,1-1.44-2.61l-.09-.3v-.14s.06,0,.07.05A10.4,10.4,0,0,0,54.14,26,16.5,16.5,0,0,0,61,28.48a19.48,19.48,0,0,0,9.67-1,13.54,13.54,0,0,0,5-3.13,9.45,9.45,0,0,0,1.78-2.49C77.49,21.8,77.5,21.69,77.63,21.71Z"/><path class="cls-3" d="M75.14,20.6v3.26c0,.91,0,1.82,0,2.72a3.74,3.74,0,0,1-1.32,3.07,7.87,7.87,0,0,1-2.62,1.48,19.36,19.36,0,0,1-6,1.07,21.86,21.86,0,0,1-7.85-1,7.54,7.54,0,0,1-3.12-1.85c-.68-.7-2.41-1.48-2.4-2.57,0-2,.22-3.41.21-5.4,0-.14,1.25-1.08,1-.89a11.48,11.48,0,0,0-3.53,3.42,7.18,7.18,0,0,0-.36,7.46,9.6,9.6,0,0,0,2.13,2.69,15.94,15.94,0,0,0,6,3.33,23.44,23.44,0,0,0,10,.87,19.84,19.84,0,0,0,7.58-2.44,12.1,12.1,0,0,0,4-3.53A7.25,7.25,0,0,0,79.06,24a11.5,11.5,0,0,0-3.71-3.58C75.12,20.26,75.14,20.42,75.14,20.6Z"/><path class="cls-3" d="M64.38,7.93a6.61,6.61,0,0,1,3.43,1,3,3,0,0,1,.89.81,1.72,1.72,0,0,1,0,2.2,3.36,3.36,0,0,1-1.14.94,7.45,7.45,0,0,1-4.32.79,6.71,6.71,0,0,1-2.67-.78A3.88,3.88,0,0,1,59.46,12a1.76,1.76,0,0,1,0-2.36A3.9,3.9,0,0,1,61,8.51,7.93,7.93,0,0,1,64.38,7.93Z"/><path class="cls-4" d="M78.71,25a8.65,8.65,0,0,1-2.85,4.35,13.92,13.92,0,0,1-5.63,2.9,18.93,18.93,0,0,1-12.79-.84,11.84,11.84,0,0,1-4.56-3.36,7.75,7.75,0,0,1-1.44-2.62l-.09-.3V25s.06,0,.07.06a10.31,10.31,0,0,0,3.8,4.2A16.32,16.32,0,0,0,62.1,31.8a19.36,19.36,0,0,0,9.67-1,13.54,13.54,0,0,0,5-3.13,9.29,9.29,0,0,0,1.78-2.49C78.57,25.12,78.58,25,78.71,25Z"/><path class="cls-2" d="M74.56,19.06v3.27c0,.9,0,1.81,0,2.71a3.7,3.7,0,0,1-1.32,3.07,7.65,7.65,0,0,1-2.61,1.48,19.42,19.42,0,0,1-6.06,1.07,21.64,21.64,0,0,1-7.85-1,7.43,7.43,0,0,1-3.12-1.85,3.61,3.61,0,0,1-1-2.65c0-2,0-4,0-6,0-.14.08-.42-.2-.23a11.6,11.6,0,0,0-3.53,3.42,7.16,7.16,0,0,0-.36,7.46,9.26,9.26,0,0,0,2.12,2.69,15.9,15.9,0,0,0,6,3.33,23.4,23.4,0,0,0,10,.87,19.6,19.6,0,0,0,7.59-2.44,12.15,12.15,0,0,0,4-3.52,7.29,7.29,0,0,0,.24-8.33,11.74,11.74,0,0,0-3.72-3.58C74.54,18.72,74.56,18.88,74.56,19.06Z"/><path class="cls-2" d="M64.29,7a6.73,6.73,0,0,1,3.43,1,3.12,3.12,0,0,1,.89.82,1.72,1.72,0,0,1,0,2.19,3.51,3.51,0,0,1-1.14,1,7.45,7.45,0,0,1-4.32.79,6.73,6.73,0,0,1-2.67-.79A3.55,3.55,0,0,1,59.37,11a1.75,1.75,0,0,1,0-2.36A3.81,3.81,0,0,1,61,7.54,7.92,7.92,0,0,1,64.29,7Z"/><path class="cls-2" d="M52.08,19.62a8,8,0,0,0,2.06,1.58A16.29,16.29,0,0,0,61,23.72a19.41,19.41,0,0,0,9.68-1,13.58,13.58,0,0,0,5-3.13.6.6,0,0,1,.08-.08l.06-.06.48.4,0,.07c-.3.52-.66.67-1.48,1.37a14.07,14.07,0,0,1-5.63,2.91,19,19,0,0,1-12.8-.85A11.82,11.82,0,0,1,51.79,20"/><path class="cls-2" d="M51,20.45a10.75,10.75,0,0,0,3.12,3A16.41,16.41,0,0,0,61,26a19.41,19.41,0,0,0,9.68-1,13.58,13.58,0,0,0,5-3.13,9.28,9.28,0,0,0,1-1.17l.16-.23.22.28-.09.18a9.19,9.19,0,0,1-2.17,2.64,13.94,13.94,0,0,1-5.63,2.91,19,19,0,0,1-12.8-.85,11.82,11.82,0,0,1-4.56-3.36,8.14,8.14,0,0,1-1-1.59Z"/><path class="cls-2" d="M77.63,21.24a8.76,8.76,0,0,1-2.85,4.36,13.92,13.92,0,0,1-5.63,2.9,19,19,0,0,1-12.8-.84,11.92,11.92,0,0,1-4.56-3.36,8.21,8.21,0,0,1-1.44-2.62c0-.1-.06-.2-.08-.3a.65.65,0,0,1,0-.14s.06,0,.07.05a10.21,10.21,0,0,0,3.8,4.21A16.41,16.41,0,0,0,61,28a19.4,19.4,0,0,0,9.68-1,13.71,13.71,0,0,0,5-3.13,9.29,9.29,0,0,0,1.78-2.49C77.48,21.33,77.5,21.22,77.63,21.24Z"/><path class="cls-2" d="M77.63,23.5a8.78,8.78,0,0,1-2.85,4.35,14.07,14.07,0,0,1-5.63,2.91,19,19,0,0,1-12.8-.85,11.82,11.82,0,0,1-4.56-3.36,8.1,8.1,0,0,1-1.44-2.62,2.45,2.45,0,0,1-.08-.29.65.65,0,0,1,0-.14s.06,0,.07.05a10.24,10.24,0,0,0,3.8,4.2A16.29,16.29,0,0,0,61,30.27a19.41,19.41,0,0,0,9.68-1,13.58,13.58,0,0,0,5-3.13,9.14,9.14,0,0,0,1.78-2.49C77.48,23.59,77.5,23.47,77.63,23.5Z"/><path class="cls-3" d="M48.5,12.78C48.5,19,55.68,24,64.53,24s16-5,16-11.24-7.17-11.24-16-11.24S48.5,6.57,48.5,12.78ZM76.29,12c0,4.07-5.27,7.37-11.76,7.37S52.77,16,52.77,12,58,4.59,64.53,4.59,76.29,7.89,76.29,12Z"/><path class="cls-2" d="M47.93,11.24c0,6.21,7.17,11.24,16,11.24s16-5,16-11.24S72.8,0,64,0,47.93,5,47.93,11.24Zm27.78-.82c0,4.07-5.26,7.37-11.76,7.37s-11.76-3.3-11.76-7.37S57.46,3.05,64,3.05,75.71,6.35,75.71,10.42Z"/><path class="cls-3" d="M53.58,63.86c-1.65,1.27-1.36,1.6-3,3a18.6,18.6,0,0,1-7.45,3.85,25.17,25.17,0,0,1-16.92-1.12,15.66,15.66,0,0,1-6-4.45c-.81-1,0,1-.41-.3.4,2.22.14.19.11.06s.3.32.3.24,1.05.54.7-.94c1.27,2,.38,1.19,2.41,2.53a21.54,21.54,0,0,0,9.09,3.33A25.65,25.65,0,0,0,45.12,68.8a17.7,17.7,0,0,0,6.58-4.14c.93-.93.27.79.89-.49A2.14,2.14,0,0,1,53.58,63.86Z"/><path class="cls-3" d="M53.57,66.69c-.71,2.52-1.36,1.61-3,3.06a18.45,18.45,0,0,1-7.45,3.84,25.05,25.05,0,0,1-16.92-1.12,15.64,15.64,0,0,1-6-4.44c-.81-1-.51,0-.94-1.34,0-.12,0,.14,0,0s.59-.06.59-.13,0,0,0,0c1.2,2.52,1.43,1.72,3.46,3.06a21.65,21.65,0,0,0,9.09,3.32,25.53,25.53,0,0,0,12.79-1.3,17.83,17.83,0,0,0,6.58-4.14c.93-.93.27.79.89-.5A2.41,2.41,0,0,1,53.57,66.69Z"/><path class="cls-3" d="M54.35,66.7a11.46,11.46,0,0,1-3.77,5.76,18.54,18.54,0,0,1-7.44,3.84,25,25,0,0,1-16.92-1.12,15.66,15.66,0,0,1-6-4.44,10.43,10.43,0,0,1-1.91-3.47c0-.13-.08-.26-.11-.39a1.07,1.07,0,0,1,0-.18s.08,0,.09.06a13.6,13.6,0,0,0,5,5.57,21.7,21.7,0,0,0,9.09,3.32,25.76,25.76,0,0,0,12.79-1.3,17.87,17.87,0,0,0,6.59-4.14,12.09,12.09,0,0,0,2.35-3.3C54.16,66.82,54.18,66.67,54.35,66.7Z"/><path class="cls-3" d="M51.05,65.23v4.31c0,1.2,0,2.4,0,3.59a4.9,4.9,0,0,1-1.74,4.07,10.11,10.11,0,0,1-3.46,2,25.62,25.62,0,0,1-8,1.42,28.73,28.73,0,0,1-10.39-1.32,9.86,9.86,0,0,1-4.13-2.44c-.89-.92-3.17-2-3.16-3.39,0-2.64.28-4.51.27-7.15,0-.18,1.66-1.42,1.29-1.18a15.36,15.36,0,0,0-4.67,4.53,9.51,9.51,0,0,0-.48,9.87A13,13,0,0,0,19.4,83a21.21,21.21,0,0,0,8,4.4,31,31,0,0,0,13.24,1.15,26.23,26.23,0,0,0,10-3.22,16,16,0,0,0,5.29-4.67,9.6,9.6,0,0,0,.31-11A15.22,15.22,0,0,0,51.33,65C51,64.77,51.05,65,51.05,65.23Z"/><path class="cls-3" d="M36.83,48.47a8.76,8.76,0,0,1,4.53,1.31,4,4,0,0,1,1.18,1.07,2.29,2.29,0,0,1,0,2.91A4.65,4.65,0,0,1,41,55a9.82,9.82,0,0,1-5.71,1,8.8,8.8,0,0,1-3.54-1,4.72,4.72,0,0,1-1.44-1.16,2.31,2.31,0,0,1,0-3.11,5.06,5.06,0,0,1,2.09-1.5A10.52,10.52,0,0,1,36.83,48.47Z"/><path class="cls-4" d="M55.78,71.09A11.48,11.48,0,0,1,52,76.85a18.39,18.39,0,0,1-7.45,3.84,25.08,25.08,0,0,1-16.91-1.11,15.59,15.59,0,0,1-6-4.45,10.48,10.48,0,0,1-1.91-3.46c0-.13-.08-.26-.11-.39a1.19,1.19,0,0,1,0-.19s.08,0,.09.07a13.57,13.57,0,0,0,5,5.56,21.72,21.72,0,0,0,9.09,3.33A25.65,25.65,0,0,0,46.6,78.74a17.87,17.87,0,0,0,6.59-4.14,12.25,12.25,0,0,0,2.35-3.29C55.59,71.21,55.61,71.06,55.78,71.09Z"/><path class="cls-2" d="M50.29,63.19v4.32c0,1.2,0,2.4,0,3.59a4.91,4.91,0,0,1-1.74,4.06,10.23,10.23,0,0,1-3.46,2,25.93,25.93,0,0,1-8,1.42,28.67,28.67,0,0,1-10.38-1.32,9.8,9.8,0,0,1-4.13-2.44,4.79,4.79,0,0,1-1.34-3.51c0-2.64,0-5.28,0-7.91,0-.18.11-.55-.26-.3a15.21,15.21,0,0,0-4.67,4.52,9.51,9.51,0,0,0-.48,9.87A12.52,12.52,0,0,0,18.64,81a21.21,21.21,0,0,0,8,4.4,30.94,30.94,0,0,0,13.23,1.15,26.29,26.29,0,0,0,10-3.22,16.1,16.1,0,0,0,5.3-4.67,9.6,9.6,0,0,0,.31-11,15.49,15.49,0,0,0-4.92-4.73C50.27,62.74,50.29,63,50.29,63.19Z"/><path class="cls-2" d="M36.7,47.18a8.86,8.86,0,0,1,4.54,1.31,4.09,4.09,0,0,1,1.18,1.07,2.29,2.29,0,0,1,0,2.91,4.45,4.45,0,0,1-1.51,1.25,9.81,9.81,0,0,1-5.71,1,9,9,0,0,1-3.53-1,5,5,0,0,1-1.44-1.16,2.32,2.32,0,0,1,0-3.12,5.25,5.25,0,0,1,2.1-1.5A10.47,10.47,0,0,1,36.7,47.18Z"/><path class="cls-2" d="M20.56,63.94A11,11,0,0,0,23.28,66a21.7,21.7,0,0,0,9.09,3.32,25.8,25.8,0,0,0,12.8-1.3,18,18,0,0,0,6.58-4.14l.11-.11.08-.08.64.53,0,.09c-.4.69-.88.88-2,1.81A18.66,18.66,0,0,1,43.13,70a25.11,25.11,0,0,1-16.92-1.12,15.59,15.59,0,0,1-6-4.45"/><path class="cls-2" d="M19.16,65a14.16,14.16,0,0,0,4.12,4,21.7,21.7,0,0,0,9.09,3.32A25.8,25.8,0,0,0,45.17,71a18,18,0,0,0,6.58-4.14,12.37,12.37,0,0,0,1.32-1.56l.21-.3.29.36s-.08.17-.12.24a12.16,12.16,0,0,1-2.87,3.5A18.66,18.66,0,0,1,43.13,73a25.11,25.11,0,0,1-16.92-1.12,15.59,15.59,0,0,1-6-4.45,11.12,11.12,0,0,1-1.36-2.1Z"/><path class="cls-2" d="M54.34,66.08a11.47,11.47,0,0,1-3.76,5.76,18.51,18.51,0,0,1-7.45,3.84,25,25,0,0,1-16.92-1.12,15.56,15.56,0,0,1-6-4.44,10.43,10.43,0,0,1-1.91-3.47,3.64,3.64,0,0,1-.11-.39,1.07,1.07,0,0,1,0-.18c.05,0,.08,0,.1.07a13.55,13.55,0,0,0,5,5.56A21.7,21.7,0,0,0,32.37,75a25.68,25.68,0,0,0,12.8-1.3,17.91,17.91,0,0,0,6.58-4.14A12,12,0,0,0,54.1,66.3C54.15,66.2,54.17,66.05,54.34,66.08Z"/><path class="cls-2" d="M54.34,69.06a11.47,11.47,0,0,1-3.76,5.76,18.51,18.51,0,0,1-7.45,3.84,25,25,0,0,1-16.92-1.12,15.56,15.56,0,0,1-6-4.44,10.43,10.43,0,0,1-1.91-3.47,3.64,3.64,0,0,1-.11-.39,1.07,1.07,0,0,1,0-.18c.05,0,.08,0,.1.07a13.55,13.55,0,0,0,5,5.56A21.7,21.7,0,0,0,32.37,78a25.68,25.68,0,0,0,12.8-1.3,17.91,17.91,0,0,0,6.58-4.14,12,12,0,0,0,2.35-3.29C54.15,69.18,54.17,69,54.34,69.06Z"/><path class="cls-3" d="M15.83,54.88c0,8.21,9.49,14.87,21.19,14.87s21.2-6.66,21.2-14.87S48.73,40,37,40,15.83,46.67,15.83,54.88ZM52.57,53.8c0,5.38-7,9.75-15.55,9.75S21.47,59.18,21.47,53.8s7-9.75,15.55-9.75S52.57,48.41,52.57,53.8Z"/><path class="cls-2" d="M15.06,52.85c0,8.21,9.49,14.86,21.2,14.86s21.19-6.65,21.19-14.86S48,38,36.26,38,15.06,44.64,15.06,52.85Zm36.75-1.08c0,5.38-7,9.75-15.55,9.75s-15.55-4.37-15.55-9.75S27.67,42,36.26,42,51.81,46.38,51.81,51.77Z"/><path class="cls-2" d="M82.39,40l2.72,13.24a1.59,1.59,0,0,0,2.63.81L91,51.26a17.18,17.18,0,0,1,0,15.09C82,84.46,67,78.93,67,78.93c10.44,4.7,23.12-.05,28.33-10.61a20.6,20.6,0,0,0-.83-20.11L98,45.13a1.55,1.55,0,0,0-.49-2.67l-13-4.31A1.65,1.65,0,0,0,82.39,40Z"/></g></g></svg>