<svg xmlns="http://www.w3.org/2000/svg" viewBox="0 0 77.14 74.32"><defs><style>.cls-1{fill:#dfdfdf;}.cls-2{fill:#a4a4a4;}</style></defs><g id="Layer_2" data-name="Layer 2"><g id="Layer_1-2" data-name="Layer 1"><path class="cls-1" d="M36.73,74.32C31.34,74,25.91,72.62,21.48,69a33.11,33.11,0,0,1-6.07-7.23A118.32,118.32,0,0,1,.74,31.14c-2.81-9,2.75-21.47,10-25.72C16.59,2,22,3.66,24.45,10a14.37,14.37,0,0,1,.66,2c.75,3.32,1.44,6.64.44,10-1.24,4.22-4.41,5.9-8.58,4.56-2.83-.9-4.44.15-4.25,3.15a24.89,24.89,0,0,0,1.37,6.48A59.81,59.81,0,0,0,24,54.59,12.5,12.5,0,0,0,28,57.54c1.35.71,2.39.12,3-1.27a12.37,12.37,0,0,0,.52-1.44c1.13-3.35,4.19-5.16,7.57-4,5.74,1.91,9.4,6.06,11.53,11.63a6.76,6.76,0,0,1,.3,1.92,7.42,7.42,0,0,1-3.7,7.15C44.13,73.52,40.64,74.17,36.73,74.32Z"/><path class="cls-1" d="M33.83,37.34c.89-3,1.8-5.91,2.6-8.85a2.09,2.09,0,0,0-.31-1.57c-5.37-7.42-2.86-16.75,5.09-21.44A21.59,21.59,0,0,1,66.52,7.91a99.1,99.1,0,0,1,7.12,8.19l-2.48,2.48C70,18.17,69,17.85,68,17.43a1.31,1.31,0,0,1-.63-.8C66.09,10.86,62,8,56.66,6.72,50.73,5.33,45.12,6.3,40.5,10.65s-4.8,10.11-.71,14.79a2.24,2.24,0,0,1,.64,2.34c-.42,1.47-.72,3-1.15,4.83,2.27-1,9.08-1.6,9.08-1.6l-2.48,2.48A42.27,42.27,0,0,1,33.83,37.34Z"/><path class="cls-1" d="M74.19,35.88a9.2,9.2,0,0,0-.65-10.55c-4.65-6.12-15.11-6.86-20.84-1.47-4,3.74-4.48,9.09-1.07,13.36s8.07,5.27,13.23,4.6a6.55,6.55,0,0,1,3.44.36c2.2.87,4.51,1.44,7.06,2.23a20.51,20.51,0,0,1,1.58-1.63S73.21,37.41,74.19,35.88ZM55.7,33.54a2.07,2.07,0,1,1,2.06-2.07A2.07,2.07,0,0,1,55.7,33.54Zm6.7,0a2.07,2.07,0,1,1,2.06-2.07A2.07,2.07,0,0,1,62.4,33.54Zm6.7,0a2.07,2.07,0,1,1,2.07-2.07A2.07,2.07,0,0,1,69.1,33.54Z"/><path class="cls-2" d="M39.21,71.84c-5.39-.36-10.82-1.7-15.25-5.34a32.51,32.51,0,0,1-6.06-7.22A117.93,117.93,0,0,1,3.22,28.65C.41,19.64,6,7.19,13.21,2.94,19.07-.51,24.43,1.18,26.93,7.51a13.93,13.93,0,0,1,.66,2c.75,3.31,1.44,6.64.44,10-1.24,4.22-4.41,5.9-8.57,4.56-2.83-.91-4.45.15-4.26,3.15a25.3,25.3,0,0,0,1.37,6.48,59.81,59.81,0,0,0,9.94,18.4,12.66,12.66,0,0,0,3.93,3c1.35.7,2.39.12,3-1.28A14.41,14.41,0,0,0,34,52.35c1.12-3.35,4.18-5.16,7.56-4,5.74,1.91,9.4,6.06,11.54,11.63a7.12,7.12,0,0,1,.29,1.91A7.42,7.42,0,0,1,49.7,69C46.61,71,43.12,71.68,39.21,71.84Z"/><path class="cls-2" d="M36.31,34.85c.89-3,1.8-5.9,2.61-8.84a2.14,2.14,0,0,0-.32-1.57C33.23,17,35.74,7.68,43.69,3A21.57,21.57,0,0,1,69,5.43,13.28,13.28,0,0,1,73.64,16.1c-1.14-.41-2.16-.73-3.14-1.15a1.31,1.31,0,0,1-.63-.8c-1.3-5.77-5.44-8.66-10.73-9.91C53.21,2.84,47.6,3.82,43,8.17s-4.8,10.1-.7,14.79a2.24,2.24,0,0,1,.63,2.33c-.42,1.48-.72,3-1.15,4.84l6.41-2.72.19,3.6A41.94,41.94,0,0,1,36.31,34.85Z"/><path class="cls-2" d="M75.78,34.19a9.2,9.2,0,0,0-.65-10.55C70.48,17.52,60,16.78,54.29,22.17c-4,3.74-4.48,9.09-1.07,13.36s8.07,5.27,13.22,4.6a6.58,6.58,0,0,1,3.45.36c2.2.87,4.51,1.44,7.06,2.23-.61-1.63-1.09-2.88-1.55-4.13A4.5,4.5,0,0,1,75.78,34.19Zm-18.5-2.34a2.07,2.07,0,1,1,2.07-2.07A2.07,2.07,0,0,1,57.28,31.85Zm6.7,0a2.07,2.07,0,1,1,2.07-2.07A2.06,2.06,0,0,1,64,31.85Zm6.7,0a2.07,2.07,0,1,1,2.07-2.07A2.06,2.06,0,0,1,70.68,31.85Z"/></g></g></svg>