<svg xmlns="http://www.w3.org/2000/svg" viewBox="0 0 78.54 78.49"><defs><style>.cls-1{fill:#dfdfdf;}.cls-2{fill:#a4a4a4;}</style></defs><g id="Layer_2" data-name="Layer 2"><g id="Layer_1-2" data-name="Layer 1"><path class="cls-1" d="M76.65,69.71,60.54,53.6l.19-.36a2.3,2.3,0,0,1,2.53-1.36c.75.07,1.5,0,2.25,0a4.48,4.48,0,0,0,3.32-2.59c.13-.61-.12-.68.11-1.26.49-1.24-.47-1.85-1.43-2.53a15.19,15.19,0,0,0-1.53-1c-1.31-.73-2.22-1.64-1.88-3.35a7.24,7.24,0,0,0,0-1.68c0-.66.22-.7.73-1,.86-.57,1.46-1,2.85-1.75.81-.45,2.53-1,2.28-3.13-.13-1.1-1.61-1.39-2-2.45a1.87,1.87,0,0,0-1.77-1.29c-1-.07-2-.1-2.93-.13A1.7,1.7,0,0,1,61.82,29c-.53-.74-.8-1.62-1.33-2.36a2.28,2.28,0,0,1,.12-2.56,20.17,20.17,0,0,1,1.09-1.78,2.27,2.27,0,0,0,0-2.85c-.51-.59-1-1.16-1.6-1.72-1.12-1.14-2-1.2-3.35-.32a15,15,0,0,1-1.89,1c-1.46.68-2.38-.5-3.51-1.05a2.83,2.83,0,0,1-1.64-3.14,21,21,0,0,0,0-2.38,1.41,1.41,0,0,0-.84-1.42c-1.13-.35.89-2.25-3.18-2.31-.82,0-1.66,1.49-2.09,2.26A27.23,27.23,0,0,1,42,12.89a2.06,2.06,0,0,1-2,1A17.88,17.88,0,0,0,38,13.86a2,2,0,0,1-1.7-.88,15.31,15.31,0,0,1-1.39-2.42c-.57-1.21-1.41-1.8-2.34-1.5s-1.17-.5-2-.29c-2.22.55-2.21,1.79-2.18,2.9s-.06,1.95-.09,2.92a2.05,2.05,0,0,1-.94,1.69c-.74.49-1.57.83-2.32,1.32l-.32.16L8.78,1.84,0,10.62,16.16,26.78a2.93,2.93,0,0,0-.25.74,1.11,1.11,0,0,1-1,.81c-1.26.15-2-1.07-3.23-1-2.05.05-2,1.52-2.41,2.39s-.46,1.85-.78,2.75a1.9,1.9,0,0,0,.78,2.36c.53.34,1.09.64,1.6,1,.79.59,1.83,1,1.78,2.27,0,.94,0,1.88-.1,2.82a1.73,1.73,0,0,1-1,1.61c-.88.43-.7.08-1.58.51-1.88.92-2.21,2.1-2,3.11.21.79.44,1.58.6,2.39a2,2,0,0,0,2.22,1.95c.89,0,1.79.1,2.68.1a1.75,1.75,0,0,1,1.64,1.08c.41.81.83,1.6,1.29,2.38a1.65,1.65,0,0,1-.05,1.76c-.57,1-1.15,1.89-1.67,2.87A1.71,1.71,0,0,0,15,60.78c.58.61,1.14,1.25,1.72,1.86a2.18,2.18,0,0,0,3.15.4,20.72,20.72,0,0,1,2-1.08,2,2,0,0,1,2.07,0c.44.28.86.58,1.32.83,2.4,1.27,1.83,5.36,1.8,6a1.05,1.05,0,0,0,.79,1.11c1.26.22,2.39.9,3.67,1a2.08,2.08,0,0,0,1.44-.6,4,4,0,0,0,1.39-1.37c.71-1.17,1.47-2.33,3-2.47a6.22,6.22,0,0,1,1.29,0,2.64,2.64,0,0,1,2.25,1.43,17.67,17.67,0,0,0,1.48,2.57,1.71,1.71,0,0,0,1.94.72l2-.48c1.51-.37,3-.83,3.17-2.44.07-1-.94-1.89-.82-2.85.06-.48.09-1,.6-1.3.83-.46,1.64-1,2.47-1.41A1.92,1.92,0,0,1,52,62.6L67.87,78.49ZM37.2,20.88a19,19,0,0,1,20,19.23,19.68,19.68,0,0,1-1.82,8.38l-2.17-2.18a17.07,17.07,0,0,0,1.15-6.19A16.14,16.14,0,0,0,38.24,23.77a15.1,15.1,0,0,0-6.19,1.34l-2.19-2.18A17.87,17.87,0,0,1,37.2,20.88ZM26.57,37.19l15,15a11.69,11.69,0,0,1-3.21.45A12.3,12.3,0,0,1,26.22,40.18,13.37,13.37,0,0,1,26.57,37.19Zm23.56,6-15-15a11.58,11.58,0,0,1,3.08-.46A12.21,12.21,0,0,1,50.5,40,13,13,0,0,1,50.13,43.19ZM38.44,59.47c-10.22.07-18.77-8.54-18.9-19a19.88,19.88,0,0,1,1.78-8.54l2.21,2.2a16.54,16.54,0,0,0-1.14,6A16,16,0,0,0,44.66,55.28l2.16,2.16A18.84,18.84,0,0,1,38.44,59.47Z"/><path class="cls-2" d="M78.54,67.87,62.43,51.76a3.13,3.13,0,0,0,.19-.36A2.31,2.31,0,0,1,65.16,50c.74.07,1.49,0,2.24,0a2.21,2.21,0,0,0,2.18-1.75l.54-1.76c.39-1.28.25-2.19-.71-2.87a15.33,15.33,0,0,0-1.54-1A3.29,3.29,0,0,1,66,39.37c0-.57,0-.59,0-1.68a1.65,1.65,0,0,1,.78-1.48c.87-.57,1.75-1.12,2.65-1.62a2.26,2.26,0,0,0,1.12-2,14.67,14.67,0,0,0-.7-3.27A1.86,1.86,0,0,0,68.11,28c-1-.07-2-.1-2.94-.13a1.68,1.68,0,0,1-1.45-.76c-.54-.74-.8-1.62-1.33-2.36a2.26,2.26,0,0,1,.11-2.56,20.17,20.17,0,0,1,1.09-1.78,2.27,2.27,0,0,0,0-2.85c-.52-.59-1.05-1.16-1.6-1.72-1.13-1.14-2-1.2-3.36-.32a15.55,15.55,0,0,1-1.88,1c-1.47.68-2.38-.5-3.52-1a2.84,2.84,0,0,1-1.64-3.14,17.18,17.18,0,0,0,0-2.38,1.38,1.38,0,0,0-.84-1.42,18.08,18.08,0,0,0-3.39-1,1.75,1.75,0,0,0-1.87.95,27.23,27.23,0,0,1-1.59,2.51,2.23,2.23,0,0,1-2,1L39.9,12a2,2,0,0,1-1.69-.88,15.31,15.31,0,0,1-1.39-2.42c-.58-1.21-1.41-1.8-2.34-1.5s-1.74.42-2.6.65a1.9,1.9,0,0,0-1.62,2c0,1-.05,1.95-.08,2.92a2.08,2.08,0,0,1-.94,1.69c-.74.49-1.57.83-2.33,1.32l-.32.16L10.67,0,1.9,8.78,18.06,24.94a2.93,2.93,0,0,0-.25.74,1.12,1.12,0,0,1-1,.81c-1.27.15-2.53,0-3.8.07a1.91,1.91,0,0,0-1.84,1.29c-.4.89-.46,1.85-.78,2.75A1.89,1.89,0,0,0,11.15,33c.53.34,1.1.63,1.61,1,.78.59,1.82,1,1.77,2.27,0,.94,0,1.88-.09,2.82a1.72,1.72,0,0,1-1,1.61,25.64,25.64,0,0,0-2.52,1.49,1.84,1.84,0,0,0-1,2.13c.21.79.44,1.58.59,2.39a2,2,0,0,0,2.23,2c.89,0,1.78.1,2.67.1a1.78,1.78,0,0,1,1.65,1.08c.41.81.83,1.6,1.29,2.38A1.65,1.65,0,0,1,18.29,54c-.56.95-1.14,1.89-1.66,2.87a1.7,1.7,0,0,0,.22,2.12c.58.61,1.13,1.25,1.71,1.86a2.18,2.18,0,0,0,3.15.4,19.91,19.91,0,0,1,2-1.08,2,2,0,0,1,2.07,0,12.75,12.75,0,0,0,1.32.83c1.39.68,2,3.75,1.79,6a1,1,0,0,0,.8,1.11c1.25.22,2.38.9,3.67,1a1.51,1.51,0,0,0,1.43-.6,22.63,22.63,0,0,0,1.38-2.12c.7-1.18,1.5-1.46,3.06-1.72a5,5,0,0,1,1.29,0,2.38,2.38,0,0,1,2.24,1.43,18.69,18.69,0,0,0,1.49,2.57,1.71,1.71,0,0,0,1.94.72l2-.48c1.52-.37,2-.77,2.11-2.39.07-1,.13-1.94.25-2.9.06-.48.09-1,.6-1.3.83-.46,1.64-1,2.47-1.41a1.83,1.83,0,0,1,.28-.14L69.76,76.65ZM39.1,19a19,19,0,0,1,20,19.23,19.68,19.68,0,0,1-1.82,8.38l-2.17-2.18a17.07,17.07,0,0,0,1.15-6.19A16.15,16.15,0,0,0,40.13,21.93a15.13,15.13,0,0,0-6.19,1.34l-2.18-2.18A17.87,17.87,0,0,1,39.1,19ZM28.47,35.35l15,15a11.74,11.74,0,0,1-3.21.45A12.31,12.31,0,0,1,28.11,38.34,12.81,12.81,0,0,1,28.47,35.35Zm23.56,6-15-15a11.72,11.72,0,0,1,3.09-.46A12.22,12.22,0,0,1,52.4,38.19,13.54,13.54,0,0,1,52,41.35ZM40.33,57.63c-10.21.07-18.77-8.54-18.9-19a19.88,19.88,0,0,1,1.79-8.54l2.2,2.2a16.74,16.74,0,0,0-1.13,6A16.21,16.21,0,0,0,40.13,54.72a16,16,0,0,0,6.42-1.28l2.17,2.16A18.85,18.85,0,0,1,40.33,57.63Z"/></g></g></svg>