<svg xmlns="http://www.w3.org/2000/svg" viewBox="0 0 65.05 82.08"><defs><style>.cls-1{fill:#dfdfdf;}.cls-2{fill:#a4a4a4;}</style></defs><g id="Layer_2" data-name="Layer 2"><g id="Layer_1-2" data-name="Layer 1"><path class="cls-1" d="M60.49,18.17H44.94V6.47a4.93,4.93,0,0,0-4.89-5L2.84,1.32S0,3.73,0,6.47V57.84a4.94,4.94,0,0,0,4.9,5H21.48V77.08c0,2.76,1.48,5,3.31,5h35.7c2,0,3.41-2.15,4.1-4L63.8,23.17C63.8,20.42,62.31,18.17,60.49,18.17ZM2.57,57.84V6.47A2.35,2.35,0,0,1,4.9,4.11H40.05a2.34,2.34,0,0,1,2.32,2.36V57.84a2.34,2.34,0,0,1-2.32,2.36H4.9A2.35,2.35,0,0,1,2.57,57.84ZM31.4,72.19a2.1,2.1,0,0,1-2.08-2.11V62.81h4.16v7.27A2.1,2.1,0,0,1,31.4,72.19Zm5.33-3.49H35.31a.13.13,0,0,1-.13-.14V62.81h1.68v5.75A.13.13,0,0,1,36.73,68.7Zm3.29,0H38.61a.13.13,0,0,1-.13-.14V62.81h1.68v5.75A.14.14,0,0,1,40,68.7Zm3.51,0H42.11a.13.13,0,0,1-.13-.14V62.41a5.08,5.08,0,0,0,1.68-1.22v7.37A.13.13,0,0,1,43.53,68.7Zm3.69-.14a.13.13,0,0,1-.13.14H45.68a.14.14,0,0,1-.14-.14v-35a.13.13,0,0,1,.14-.13h1.41a.13.13,0,0,1,.13.13Zm3.47,0a.14.14,0,0,1-.14.14H49.14a.13.13,0,0,1-.13-.14v-35a.13.13,0,0,1,.13-.13h1.41a.13.13,0,0,1,.14.13Zm5.78,1.52a2.08,2.08,0,1,1-4.15,0v-38a2.08,2.08,0,1,1,4.15,0Z"/><path class="cls-1" d="M34.74,11,35,10c-1.86,0-3.33,2.44-3.33,3.61v38a2.09,2.09,0,0,0,2.08,2.11h0a3.27,3.27,0,0,0,3.31-3.36L35.83,13.58C35.83,12.41,35.88,11,34.74,11Z"/><path class="cls-1" d="M10.77,11.47,12,10s-2.9,0-3.33,3.61v38c0,1.17,1.35,2,2.08,2.11h0a3.37,3.37,0,0,0,3.28-3.16l-1.21-37A2.09,2.09,0,0,0,10.77,11.47Z"/><path class="cls-1" d="M15.83,13.5S14.54,15,14.54,15.09v35a.14.14,0,0,0,.14.14h1.41a14.47,14.47,0,0,0,1.36-1.56L16.22,15.09A10.56,10.56,0,0,0,15.83,13.5Z"/><path class="cls-1" d="M19.39,15l-.23-1.51a13.93,13.93,0,0,0-1.32,1.64v35a.13.13,0,0,0,.13.14h1.42a13.6,13.6,0,0,0,1.35-1.57L19.52,15.09A.13.13,0,0,0,19.39,15Z"/><path class="cls-1" d="M22.89,15l-.22-1.51a14,14,0,0,0-1.33,1.64v35a.14.14,0,0,0,.14.14h1.41a14.08,14.08,0,0,0,1.34-1.54L23,15.09A.13.13,0,0,0,22.89,15Z"/><path class="cls-1" d="M26.46,15l-.22-1.5a15,15,0,0,0-1.33,1.63v35a.13.13,0,0,0,.13.14h1.42a14.8,14.8,0,0,0,1.36-1.59L26.59,15.09A.13.13,0,0,0,26.46,15Z"/><path class="cls-1" d="M29.92,15l-.26-1.46a13.17,13.17,0,0,0-1.29,1.59v35a.13.13,0,0,0,.13.14h1.42a14.39,14.39,0,0,0,1.35-1.56L30.05,15.09A.13.13,0,0,0,29.92,15Z"/><path class="cls-2" d="M61.74,16.67H46.19V5A4.93,4.93,0,0,0,41.3,0H6.15a4.94,4.94,0,0,0-4.9,5V56.34a4.94,4.94,0,0,0,4.9,5H22.73V75.58c0,2.76,1.49,5,3.31,5h35.7c1.82,0,3.31-2.24,3.31-5V21.67C65.05,18.91,63.56,16.67,61.74,16.67ZM3.82,56.34V5A2.35,2.35,0,0,1,6.15,2.61H41.3A2.35,2.35,0,0,1,43.63,5V56.34A2.35,2.35,0,0,1,41.3,58.7H6.15A2.35,2.35,0,0,1,3.82,56.34ZM32.65,70.68a2.09,2.09,0,0,1-2.07-2.11V61.31h4.15v7.26A2.09,2.09,0,0,1,32.65,70.68ZM38,67.2H36.56a.13.13,0,0,1-.13-.14V61.31h1.68v5.75A.13.13,0,0,1,38,67.2Zm3.3,0H39.86a.13.13,0,0,1-.13-.14V61.31h1.68v5.76A.13.13,0,0,1,41.28,67.2Zm3.5,0H43.36a.13.13,0,0,1-.13-.14V60.9a4.91,4.91,0,0,0,1.68-1.21v7.37A.13.13,0,0,1,44.78,67.2Zm3.7-.14a.14.14,0,0,1-.14.14H46.93a.13.13,0,0,1-.13-.14v-35a.13.13,0,0,1,.13-.13h1.41a.13.13,0,0,1,.14.13Zm3.46,0a.13.13,0,0,1-.13.14H50.39a.13.13,0,0,1-.13-.14v-35a.13.13,0,0,1,.13-.13h1.42a.13.13,0,0,1,.13.13Zm5.78,1.51a2.08,2.08,0,1,1-4.15,0v-38a2.08,2.08,0,1,1,4.15,0Z"/><path class="cls-2" d="M35,10h0a2.09,2.09,0,0,0-2.08,2.11v38A2.09,2.09,0,0,0,35,52.2h0a2.09,2.09,0,0,0,2.08-2.11v-38A2.09,2.09,0,0,0,35,10Z"/><path class="cls-2" d="M12,10h0a2.09,2.09,0,0,0-2.08,2.11v38A2.09,2.09,0,0,0,12,52.2h0a2.09,2.09,0,0,0,2.07-2.11v-38A2.09,2.09,0,0,0,12,10Z"/><rect class="cls-2" x="15.8" y="13.45" width="1.68" height="35.26" rx="0.13"/><rect class="cls-2" x="19.09" y="13.45" width="1.68" height="35.26" rx="0.13"/><rect class="cls-2" x="22.6" y="13.45" width="1.68" height="35.26" rx="0.13"/><rect class="cls-2" x="26.16" y="13.45" width="1.68" height="35.26" rx="0.13"/><rect class="cls-2" x="29.62" y="13.45" width="1.68" height="35.26" rx="0.13"/></g></g></svg>