<svg xmlns="http://www.w3.org/2000/svg" viewBox="0 0 80.32 73.97"><defs><style>.cls-1{fill:#dfdfdf;}.cls-2{fill:#a4a4a4;}</style></defs><g id="Layer_2" data-name="Layer 2"><g id="Layer_1-2" data-name="Layer 1"><polygon class="cls-1" points="29.9 2.21 26 10.15 20.29 0 19.17 2.21 24.69 13.45 24.69 17.8 27.32 17.8 28.43 15.6 27.32 13.45 32.83 2.21 29.9 2.21"/><polygon class="cls-1" points="15.03 39.2 4.14 37.54 3.02 39.75 3.02 42.39 10.04 42.39 3.44 51.45 2.33 53.65 2.33 55.35 13.91 55.35 15.03 53.14 6.18 52.7 13.91 41.4 15.03 39.2"/><polygon class="cls-1" points="76.72 39.75 77.84 37.54 69.5 45.24 63.39 37.54 62.27 39.75 67.84 47.55 63.39 53.14 62.27 55.35 65.58 55.35 69.5 49.86 73.42 55.35 76.72 55.35 77.84 53.14 71.15 47.55 76.72 39.75"/><polygon class="cls-1" points="38.55 0.11 37.43 2.31 37.43 28.01 41.3 28.01 42.41 25.81 38.55 0.11"/><polygon class="cls-1" points="0 70.79 2.23 73.97 24.99 59.92 26.11 57.72 1.12 68.58 0 70.79"/><polygon class="cls-1" points="54.33 56.62 53.21 58.82 76.97 72.86 79.2 69.68 80.32 67.48 54.33 56.62"/><path class="cls-1" d="M39.36,29.94a17,17,0,1,0,16.86,17A16.94,16.94,0,0,0,39.36,29.94ZM29.51,52.3a11.31,11.31,0,0,1,9.85-16.67A11,11,0,0,1,44.69,37Zm18.9-12a11.31,11.31,0,0,1-9,18,11,11,0,0,1-6.6-2.18Z"/><polygon class="cls-2" points="31.02 0 27.12 7.95 23.22 0 20.29 0 25.8 11.25 25.8 15.6 28.43 15.6 28.43 11.25 33.95 0 31.02 0"/><polygon class="cls-2" points="15.03 37.54 4.14 37.54 4.14 40.19 11.16 40.19 3.44 51.45 3.44 53.14 15.03 53.14 15.03 50.5 7.29 50.5 15.03 39.2 15.03 37.54"/><polygon class="cls-2" points="77.84 37.54 74.54 37.54 70.61 43.03 66.69 37.54 63.39 37.54 68.96 45.34 63.39 53.14 66.69 53.14 70.61 47.66 74.54 53.14 77.84 53.14 72.27 45.34 77.84 37.54"/><rect class="cls-2" x="38.55" y="0.11" width="3.87" height="25.7"/><polygon class="cls-2" points="1.12 68.58 3.35 71.76 26.11 57.72 23.87 54.54 1.12 68.58"/><polygon class="cls-2" points="56.56 53.44 54.33 56.62 78.08 70.66 80.32 67.48 56.56 53.44"/><path class="cls-2" d="M40.48,27.73a17,17,0,1,0,16.85,17A16.94,16.94,0,0,0,40.48,27.73ZM30.63,50.09a11.31,11.31,0,0,1,9.85-16.67,11.05,11.05,0,0,1,5.33,1.36Zm18.89-12a11.31,11.31,0,0,1-9,18,11.1,11.1,0,0,1-6.61-2.18Z"/></g></g></svg>