<svg xmlns="http://www.w3.org/2000/svg" viewBox="0 0 74.99 66.37"><defs><style>.cls-1{fill:#dfdfdf;}.cls-2{fill:#a4a4a4;}</style></defs><g id="Layer_2" data-name="Layer 2"><g id="Layer_1-2" data-name="Layer 1"><path class="cls-1" d="M16.25,2.24v24L37.49,40.67,58.74,26.26v-24L19.5,0ZM55.38,23.86,44.76,31.07V11.85H55.38Z"/><path class="cls-1" d="M69.54,61.91q-11.06,0-22.1,0c-6,0-12,0-17.94,0q-6.1,0-12.19,0h-6.5l-2.35,0H7.37l-.56,0c-.53,0,.11,0-.27,0l-.68-.17a1.52,1.52,0,0,1-.28-.09s.32.15.08,0a1.46,1.46,0,0,1-.7-.49c.15.18-.26-.53-.13-.23a3.27,3.27,0,0,1-.21-.74,5.82,5.82,0,0,1,0-1.55,2.1,2.1,0,0,1,.46-1.14c.15-.21,0,0,0,0a1.47,1.47,0,0,1,.22-.21c.2-.16,0,0-.08,0a3.7,3.7,0,0,1,.33-.21l.35-.17s-.35.12-.1,0l.55-.16c.22,0,.43-.09.65-.12-.46.07,0,0,.22,0,4-.15,8,0,12,.06,3.1,0,6.2,0,9.3,0a16.13,16.13,0,0,0,8.4-2.14,16.07,16.07,0,0,0,3-2.46c.41-.52-.44-1.36-.24-2.05A10.64,10.64,0,0,0,40,46c-.08-.74,1.48-4.43.77-4.44-1.47,0-3.38,1.78-3.79,2.16-.81.76-1.67,1.09-1.54,2.28a7,7,0,0,1-.27,3.5,4.66,4.66,0,0,1-1.36,1.65,6,6,0,0,1-2.51,1,5.83,5.83,0,0,1-1.13.19c-.54,0-1.07.07-1.62.06-3.19,0-6.38,0-9.57,0l-7.19,0c-1.62,0-3.28-.14-4.89,0-.31,0,.79-1.68.49-1.63A13.92,13.92,0,0,0,3.5,53,10.29,10.29,0,0,0,1,55.52a7.89,7.89,0,0,0,.19,8.06c2.51,3.48,7.46,2.72,11.26,2.71q6.9,0,13.8,0c5.74,0,11.48,0,17.22,0q12.35,0,24.7,0h1.36c2.88.05,5-1.27,5.43-4.17.19-1.3-3.67-.24-5.43-.24Z"/><path class="cls-2" d="M19.5,0V24L40.74,38.43,62,24V0ZM58.63,21.61,48,28.82V9.61H58.63Z"/><path class="cls-2" d="M72.79,59.67H50.69c-6,0-12,0-17.94,0q-6.1,0-12.19,0c-2.17,0-4.33,0-6.5,0l-2.35,0H10.62l-.56,0c-.53,0,.11.06-.27,0l-.68-.16-.28-.09s.31.14.08,0c-.39-.2-.49-.22-.7-.5.14.19-.26-.53-.13-.22a3.27,3.27,0,0,1-.21-.74,5.42,5.42,0,0,1,0-1.55,2.16,2.16,0,0,1,.46-1.15l0,0A1.47,1.47,0,0,1,8.55,55c.21-.16,0,0-.07,0a2.3,2.3,0,0,1,.33-.21c.11-.07.23-.12.34-.18s-.34.13-.09.05a5,5,0,0,1,.55-.16c.21,0,.43-.09.65-.12-.46.06,0,0,.22,0,4-.16,8,0,12,.06,3.1,0,6.2,0,9.3,0,4.72.07,9.78-1.9,11.17-6.65a10.86,10.86,0,0,0,.28-4.21,2.3,2.3,0,0,0-2.28-2.2,2.26,2.26,0,0,0-2.28,2.2,6.9,6.9,0,0,1-.28,3.51A4.62,4.62,0,0,1,37,48.86a6,6,0,0,1-2.51,1,6.28,6.28,0,0,1-1.13.2q-.81.06-1.62.06c-3.19,0-6.38,0-9.57,0-2.4,0-4.79,0-7.19,0-1.62,0-3.28-.14-4.89,0-2.37.21-4.66,1.1-5.86,3.21a7.89,7.89,0,0,0,.19,8.06C7,64.82,11.91,64.06,15.71,64c4.6,0,9.2,0,13.8,0q8.61,0,17.22,0H72.79a2.21,2.21,0,0,0,0-4.41Z"/></g></g></svg>