<svg xmlns="http://www.w3.org/2000/svg" viewBox="0 0 34.83 55.39"><defs><style>.cls-1{fill:#a4a4a4;}.cls-2{fill:#dfdfdf;}</style></defs><g id="Layer_2" data-name="Layer 2"><g id="Layer_1-2" data-name="Layer 1"><path class="cls-1" d="M8.39.89v9.47L16.77,16l8.38-5.68V.89L9.68,0ZM23.83,9.41l-4.19,2.84V4.68h4.19Z"/><path class="cls-2" d="M9.68,0V9.47l8.37,5.69,8.38-5.69V0ZM25.11,8.53l-4.19,2.84V3.79h4.19Z"/><polygon class="cls-1" points="27.51 38.12 27.51 49.45 6.03 49.45 1.28 37.13 0 38.12 0 55.39 33.55 55.39 34.83 54.4 28.79 37.13 27.51 38.12"/><path class="cls-1" d="M4.25,31.15c-.82,0-2.67,1.65-2.67,2.47a1.49,1.49,0,0,0,1.49,1.49c.82,0,2.75-1.43,2.75-2.25A1.77,1.77,0,0,0,4.25,31.15Z"/><polygon class="cls-2" points="28.79 37.13 28.79 48.46 7.31 48.46 7.31 37.13 1.28 37.13 1.28 54.4 34.83 54.4 34.83 37.13 28.79 37.13"/><path class="cls-2" d="M4.35,31.15a1.49,1.49,0,1,0,1.49,1.48A1.49,1.49,0,0,0,4.35,31.15Z"/><path class="cls-1" d="M4.24,25.25c-.82,0-2.67,1.65-2.67,2.47A1.49,1.49,0,0,0,3.06,29.2c.82,0,2.75-1.42,2.75-2.25A1.76,1.76,0,0,0,4.24,25.25Z"/><path class="cls-2" d="M4.34,25.24a1.49,1.49,0,1,0,1.49,1.49A1.49,1.49,0,0,0,4.34,25.24Z"/><path class="cls-1" d="M4.23,19.35c-.82,0-2.67,1.65-2.67,2.47A1.49,1.49,0,0,0,3.05,23.3c.82,0,2.75-1.43,2.75-2.25A1.75,1.75,0,0,0,4.23,19.35Z"/><path class="cls-2" d="M4.33,19.34a1.49,1.49,0,1,0,1.49,1.49A1.49,1.49,0,0,0,4.33,19.34Z"/><path class="cls-1" d="M11.06,19.35c-.82,0-2.67,1.65-2.67,2.47a1.49,1.49,0,0,0,1.49,1.49c.82,0,2.75-1.43,2.75-2.25A1.77,1.77,0,0,0,11.06,19.35Z"/><path class="cls-2" d="M11.16,19.34a1.49,1.49,0,1,0,1.49,1.49A1.49,1.49,0,0,0,11.16,19.34Z"/><path class="cls-1" d="M18,19.24c-.82,0-2.67,1.65-2.67,2.47a1.48,1.48,0,0,0,1.48,1.48c.82,0,2.75-1.43,2.75-2.25A1.75,1.75,0,0,0,18,19.24Z"/><path class="cls-2" d="M18.05,19.23a1.49,1.49,0,1,0,1.49,1.49A1.49,1.49,0,0,0,18.05,19.23Z"/><path class="cls-1" d="M24.48,19.24c-.82,0-2.67,1.65-2.67,2.47a1.48,1.48,0,0,0,1.49,1.48c.82,0,2.74-1.42,2.74-2.25A1.75,1.75,0,0,0,24.48,19.24Z"/><path class="cls-2" d="M24.58,19.23a1.49,1.49,0,1,0,0,3,1.49,1.49,0,0,0,0-3Z"/><path class="cls-1" d="M31.6,19.24c-.82,0-2.67,1.65-2.67,2.47a1.49,1.49,0,0,0,1.49,1.49c.82,0,2.75-1.43,2.75-2.25A1.77,1.77,0,0,0,31.6,19.24Z"/><path class="cls-2" d="M31.7,19.24a1.49,1.49,0,1,0,1.49,1.48A1.49,1.49,0,0,0,31.7,19.24Z"/><path class="cls-1" d="M31.59,25.25c-.82,0-2.67,1.65-2.67,2.47a1.49,1.49,0,0,0,1.49,1.49c.82,0,2.75-1.43,2.75-2.25A1.77,1.77,0,0,0,31.59,25.25Z"/><path class="cls-2" d="M31.69,25.24a1.49,1.49,0,1,0,1.49,1.49A1.49,1.49,0,0,0,31.69,25.24Z"/><path class="cls-1" d="M31.59,31.19c-.82,0-2.67,1.65-2.67,2.47a1.49,1.49,0,0,0,1.49,1.49c.82,0,2.75-1.43,2.75-2.25A1.77,1.77,0,0,0,31.59,31.19Z"/><path class="cls-2" d="M31.69,31.19a1.49,1.49,0,1,0,1.49,1.48A1.49,1.49,0,0,0,31.69,31.19Z"/></g></g></svg>