<svg xmlns="http://www.w3.org/2000/svg" viewBox="0 0 79.06 74.61"><defs><style>.cls-1{fill:#a4a4a4;}.cls-2{fill:#dfdfdf;}</style></defs><g id="Layer_2" data-name="Layer 2"><g id="Layer_1-2" data-name="Layer 1"><path class="cls-1" d="M60.23,8.82a34.89,34.89,0,0,0-43.56,5.25,38.27,38.27,0,0,0-6,8c-.57-1.48-1-2.45-1.32-3.43-2.14-5.94-.78-9.08-6.74-6.74C1.2,12.46-.45,16.23.11,17.71,2.49,23.92,4.9,30.13,7,36.45,7.79,39,8.73,39.14,11,38.22c4.83-1.95,9.79-3.6,14.71-5.35,3.16-1.12,6.77-5.41,7.19-6.48s-2.28,1.21-3.48-1.79c-.59-1.48-1.23-1.51-2.51-1-2.4,1-4.86,1.76-7.85,2.82C27.72,9.7,51.46,8.1,62.29,22.93,70.06,33.58,68.13,47.57,59,56.59V55.11c0-.15,0-.3,0-.45-.06-1-.75-1.41-1.63-.93-1.1.6-2.19,1.23-3.28,1.84-.16.09-.3.28-.55.15,0-.25,0-.51,0-.76l-.24-11.39c-.06-3-.11-6-.17-9,0-1-.38-1.37-1.39-1.38s-1.32-3.36-2.45-3.36c-1.38,0-2.58,3.63-2.6,5q-.18,9.48-.36,19a1.07,1.07,0,0,1-.63,1.07c-1.84,1-3.65,2-5.48,3.08-.16.09-.31.29-.59.15V44.89c0-2.25,1.19-5.66-1.09-5.65-1.26,0-2.75,3.72-2.75,5,0,2.75-.16,5.51,0,8.25a3.19,3.19,0,0,1-2.21,3.7,37,37,0,0,0-3.78,2.09c0-1.22,0-2.31,0-3.39,0-1.29-.72-1.69-1.85-1-3,1.68-4.48.29-7.48,1.94-.73.4-2.46,4-2.46,4.82,0,4.13,0,8.26,0,12.38,0,1.32.32,1.63,1.63,1.63H57.33c1.36,0,3.51-2.77,3.51-4.12S59,70.11,59,68.66c1.79-1.36,3.88-3,6.33-4.9C83.42,49.5,79.75,21.16,60.23,8.82ZM25.05,69.29c0,.28-.07.45-.38.42h-.16c-.69,0-1.62.23-2-.12s-.08-1.39-.16-2v-.2c0-2.2,0-2.19,2.27-2.05.33,0,.45.1.44.43C25,67,25,68.12,25.05,69.29Zm7.38-1.73v.15c0,2.24,0,2.23-2.31,2-.34,0-.42-.17-.42-.48,0-1.14,0-2.28,0-3.42,0-.37.12-.5.49-.47.73.07,1.71-.31,2.12.15s.07,1.35.07,2.06Zm7,2.15h-.08c-2.25.11-2.25.11-2.25-2.15V67.4c0-2.27,0-2.26,2.35-2.05.29,0,.39.1.39.39,0,1.2,0,2.39,0,3.59C39.82,69.64,39.69,69.73,39.41,69.71Zm7.8-.42c0,.28-.07.45-.38.42h-.16c-.71,0-1.63.29-2.08-.14s-.07-1.35-.13-1.93v-.2c0-2.24,0-2.24,2.31-2.09.33,0,.44.1.44.43C47.19,67,47.2,68.12,47.21,69.29Z"/><path class="cls-2" d="M62.22,5.33a34.9,34.9,0,0,0-43.56,5.25,38.51,38.51,0,0,0-6,8c-.58-1.48-1-2.45-1.33-3.43C9.23,9.2,9.25,9.24,3.3,11.59c-1.44.56-1.76,1.15-1.19,2.63C4.48,20.43,6.89,26.64,9,33c.83,2.58,1.78,2.7,4.05,1.78,4.84-2,9.8-3.6,14.72-5.35,6.2-2.21,6.14-2.17,3.71-8.28-.6-1.48-1.24-1.51-2.51-1-2.41.95-4.87,1.76-7.85,2.82C29.72,6.21,53.46,4.62,64.28,19.44c7.77,10.65,5.85,24.64-3.34,33.66V51.63c0-.16,0-.31,0-.46-.06-1-.75-1.41-1.63-.93-1.1.6-2.18,1.23-3.28,1.84-.16.09-.3.28-.55.15,0-.25,0-.5,0-.76-.08-3.79-.16-7.59-.23-11.38-.06-3-.11-6-.18-9,0-1-.37-1.38-1.39-1.39H50.25c-1.37,0-1.63.27-1.66,1.66q-.18,9.47-.36,19a1.05,1.05,0,0,1-.63,1.07c-1.84,1-3.65,2.06-5.48,3.08-.16.09-.31.29-.59.16V41.4c0-2.25,0-2.25-2.27-2.24-1.26,0-1.57.31-1.57,1.59,0,2.75-.16,5.52.05,8.25a3.2,3.2,0,0,1-2.21,3.71,36.8,36.8,0,0,0-3.78,2.08c0-1.22,0-2.3,0-3.39,0-1.29-.72-1.68-1.85-1-3,1.69-6,3.39-9,5a1.72,1.72,0,0,0-1,1.73c0,4.12,0,8.25,0,12.38,0,1.31.31,1.63,1.62,1.63H59.33c1.35,0,1.61-.26,1.61-1.62V65.17c1.8-1.35,3.89-3,6.34-4.9C85.41,46,81.75,17.67,62.22,5.33ZM27,65.81c0,.27-.06.44-.38.41a.75.75,0,0,0-.15,0c-.69,0-1.63.23-2-.11s-.09-1.39-.17-2v-.2c0-2.2,0-2.19,2.27-2,.33,0,.45.1.44.43C27,63.46,27,64.64,27,65.81Zm7.38-1.74v.15c0,2.25,0,2.24-2.3,2-.35,0-.43-.17-.42-.47,0-1.14,0-2.28,0-3.43,0-.36.12-.5.49-.46.73.06,1.71-.32,2.12.15s.07,1.34.07,2Zm7,2.15h-.07c-2.26.12-2.26.12-2.26-2.15v-.15c0-2.28,0-2.27,2.35-2.06.29,0,.4.1.39.4,0,1.19,0,2.39,0,3.58C41.82,66.15,41.69,66.25,41.4,66.22Zm7.8-.41c0,.27-.06.44-.38.41a.75.75,0,0,0-.15,0c-.72,0-1.64.3-2.08-.14s-.08-1.35-.14-1.93V64c0-2.24,0-2.23,2.31-2.09.33,0,.45.1.44.43C49.19,63.46,49.19,64.64,49.2,65.81Z"/></g></g></svg>