<svg xmlns="http://www.w3.org/2000/svg" viewBox="0 0 84.75 84.75"><defs><style>.cls-1{fill:#828282;}.cls-2{fill:#414042;}.cls-3{fill:#dfdfdf;}.cls-4{fill:none;}</style></defs><g id="Layer_2" data-name="Layer 2"><g id="Layer_1-2" data-name="Layer 1"><path class="cls-1" d="M64.82,43c-2.15,1.66-1.78,2.1-4,4a24.25,24.25,0,0,1-9.76,5,32.81,32.81,0,0,1-22.16-1.46A20.48,20.48,0,0,1,21,44.71c-1.07-1.31,0,1.35-.54-.4.52,2.91.18.26.14.08s.4.42.4.32,1.37.7.91-1.23c1.66,2.57.5,1.56,3.15,3.31A28.23,28.23,0,0,0,37,51.14a33.57,33.57,0,0,0,16.76-1.7A23.47,23.47,0,0,0,62.37,44c1.21-1.23.34,1,1.16-.66A2.93,2.93,0,0,1,64.82,43Z"/><path class="cls-1" d="M64.81,46.67c-.92,3.3-1.79,2.1-4,4a24.15,24.15,0,0,1-9.75,5A32.87,32.87,0,0,1,28.9,54.25,20.36,20.36,0,0,1,21,48.42c-1.07-1.3-.67,0-1.23-1.75-.06-.16,0,.18,0,0s.76-.08.76-.18,0,0,0,0c1.58,3.32,1.87,2.26,4.53,4A28.45,28.45,0,0,0,37,54.86a33.58,33.58,0,0,0,16.76-1.71,23.31,23.31,0,0,0,8.62-5.42c1.22-1.22.35,1,1.16-.65A3,3,0,0,1,64.81,46.67Z"/><path class="cls-1" d="M65.83,46.68a15,15,0,0,1-4.93,7.54,24.4,24.4,0,0,1-9.76,5A32.87,32.87,0,0,1,29,57.79,20.48,20.48,0,0,1,21.08,52a13.71,13.71,0,0,1-2.5-4.54c0-.17-.1-.34-.14-.51a1,1,0,0,1,0-.24s.1,0,.12.09a17.77,17.77,0,0,0,6.58,7.28,28.38,28.38,0,0,0,11.91,4.36A33.69,33.69,0,0,0,53.81,56.7a23.47,23.47,0,0,0,8.63-5.42A16.31,16.31,0,0,0,65.52,47C65.58,46.83,65.61,46.64,65.83,46.68Z"/><path class="cls-1" d="M61.51,44.75v5.66c0,1.57,0,3.14,0,4.7a6.41,6.41,0,0,1-2.27,5.32A13.44,13.44,0,0,1,54.71,63a33.71,33.71,0,0,1-10.48,1.86,37.75,37.75,0,0,1-13.61-1.72,13,13,0,0,1-5.41-3.2c-1.16-1.21-4.16-2.56-4.14-4.44,0-3.46.37-5.92.36-9.37,0-.23,2.17-1.87,1.68-1.55A20.16,20.16,0,0,0,17,50.5a12.44,12.44,0,0,0-.63,12.93,16.43,16.43,0,0,0,3.68,4.65,27.58,27.58,0,0,0,10.44,5.77,40.49,40.49,0,0,0,17.34,1.51A34.4,34.4,0,0,0,61,71.14,21,21,0,0,0,67.9,65a12.58,12.58,0,0,0,.41-14.43,20.08,20.08,0,0,0-6.44-6.19C61.48,44.16,61.51,44.44,61.51,44.75Z"/><path class="cls-1" d="M42.88,22.8a11.5,11.5,0,0,1,5.94,1.71,5.39,5.39,0,0,1,1.54,1.41,3,3,0,0,1,0,3.81,6,6,0,0,1-2,1.64,12.94,12.94,0,0,1-7.48,1.36,11.53,11.53,0,0,1-4.63-1.36,6.21,6.21,0,0,1-1.88-1.52,3,3,0,0,1,0-4.08,6.81,6.81,0,0,1,2.75-2A13.69,13.69,0,0,1,42.88,22.8Z"/><path class="cls-2" d="M67.7,52.44A15,15,0,0,1,62.77,60,24.25,24.25,0,0,1,53,65a32.81,32.81,0,0,1-22.16-1.46A20.51,20.51,0,0,1,23,57.72a13.56,13.56,0,0,1-2.5-4.53c-.05-.17-.1-.34-.14-.51a1,1,0,0,1,0-.25c.05,0,.1.06.12.09A17.86,17.86,0,0,0,27,59.81a28.36,28.36,0,0,0,11.91,4.35,33.57,33.57,0,0,0,16.76-1.7A23.37,23.37,0,0,0,64.31,57a16.1,16.1,0,0,0,3.08-4.31C67.45,52.59,67.48,52.39,67.7,52.44Z"/><path class="cls-3" d="M60.51,42.09v5.65c0,1.57,0,3.14,0,4.71a6.41,6.41,0,0,1-2.27,5.32,13.44,13.44,0,0,1-4.54,2.56,33.71,33.71,0,0,1-10.48,1.86,37.67,37.67,0,0,1-13.6-1.72,13,13,0,0,1-5.42-3.2,6.29,6.29,0,0,1-1.75-4.61c0-3.45,0-6.9,0-10.36,0-.23.14-.71-.35-.39A20,20,0,0,0,16,47.84a12.44,12.44,0,0,0-.63,12.93,16.43,16.43,0,0,0,3.68,4.65,27.58,27.58,0,0,0,10.44,5.77,40.33,40.33,0,0,0,17.34,1.5A34.21,34.21,0,0,0,60,68.48a21.08,21.08,0,0,0,6.93-6.12,12.56,12.56,0,0,0,.41-14.42,20.08,20.08,0,0,0-6.44-6.19C60.48,41.5,60.51,41.78,60.51,42.09Z"/><path class="cls-3" d="M42.72,21.11a11.5,11.5,0,0,1,5.94,1.71,5.39,5.39,0,0,1,1.54,1.41,3,3,0,0,1,0,3.81,5.87,5.87,0,0,1-2,1.64A12.94,12.94,0,0,1,40.71,31a11.67,11.67,0,0,1-4.63-1.35,6.24,6.24,0,0,1-1.88-1.52,3,3,0,0,1,0-4.08,6.84,6.84,0,0,1,2.75-2A13.69,13.69,0,0,1,42.72,21.11Z"/><path class="cls-3" d="M21.57,43.06a14.22,14.22,0,0,0,3.56,2.74A28.5,28.5,0,0,0,37,50.15,33.58,33.58,0,0,0,53.8,48.44,23.34,23.34,0,0,0,62.43,43l.14-.14.11-.1.83.69,0,.12c-.52.9-1.15,1.16-2.57,2.38a24.25,24.25,0,0,1-9.76,5A32.87,32.87,0,0,1,29,49.54a20.51,20.51,0,0,1-7.9-5.83"/><path class="cls-3" d="M19.73,44.5a18.77,18.77,0,0,0,5.4,5.2A28.23,28.23,0,0,0,37,54.05a33.57,33.57,0,0,0,16.76-1.7,23.47,23.47,0,0,0,8.63-5.42,16.13,16.13,0,0,0,1.72-2c.1-.13.28-.4.28-.4l.38.48s-.11.21-.16.32a16.05,16.05,0,0,1-3.76,4.58,24.25,24.25,0,0,1-9.76,5A32.81,32.81,0,0,1,29,53.44a20.48,20.48,0,0,1-7.9-5.82,14.32,14.32,0,0,1-1.78-2.76Z"/><path class="cls-3" d="M65.82,45.87a15,15,0,0,1-4.93,7.54,24.4,24.4,0,0,1-9.76,5A32.87,32.87,0,0,1,29,57a20.48,20.48,0,0,1-7.9-5.82,13.71,13.71,0,0,1-2.5-4.54c-.05-.17-.1-.34-.14-.51a1,1,0,0,1,0-.24c.05,0,.1.05.12.09a17.77,17.77,0,0,0,6.58,7.28A28.38,28.38,0,0,0,37,57.6,33.69,33.69,0,0,0,53.8,55.89a23.47,23.47,0,0,0,8.63-5.42,16.31,16.31,0,0,0,3.08-4.32C65.57,46,65.6,45.83,65.82,45.87Z"/><path class="cls-3" d="M65.82,49.77a15.05,15.05,0,0,1-4.93,7.55,24.25,24.25,0,0,1-9.76,5A32.87,32.87,0,0,1,29,60.89a20.51,20.51,0,0,1-7.9-5.83,13.56,13.56,0,0,1-2.5-4.53c-.05-.17-.1-.34-.14-.52a1,1,0,0,1,0-.24c.05,0,.1,0,.12.09a17.86,17.86,0,0,0,6.58,7.29A28.5,28.5,0,0,0,37,61.5,33.58,33.58,0,0,0,53.8,59.79a23.34,23.34,0,0,0,8.63-5.42,16.1,16.1,0,0,0,3.08-4.31C65.57,49.93,65.6,49.73,65.82,49.77Z"/><path class="cls-1" d="M15.37,31.2C15.37,42,27.8,50.67,43.13,50.67S70.9,42,70.9,31.2,58.46,11.73,43.13,11.73,15.37,20.45,15.37,31.2ZM63.5,29.78c0,7.06-9.12,12.77-20.37,12.77S22.76,36.84,22.76,29.78,31.88,17,43.13,17,63.5,22.73,63.5,29.78Z"/><path class="cls-3" d="M14.37,28.54C14.37,39.29,26.8,48,42.13,48S69.9,39.29,69.9,28.54,57.47,9.07,42.13,9.07,14.37,17.78,14.37,28.54ZM62.5,27.12c0,7.05-9.12,12.77-20.37,12.77S21.76,34.17,21.76,27.12s9.12-12.77,20.37-12.77S62.5,20.07,62.5,27.12Z"/><circle class="cls-4" cx="42.38" cy="42.38" r="42.38"/></g></g></svg>