<svg xmlns="http://www.w3.org/2000/svg" viewBox="0 0 84.75 84.75"><defs><style>.cls-1{fill:#828282;}.cls-2{fill:#414042;}.cls-3{fill:#dfdfdf;}.cls-4{fill:none;}</style></defs><g id="Layer_2" data-name="Layer 2"><g id="Layer_1-2" data-name="Layer 1"><path class="cls-1" d="M41.8,64.82c-1.67-2.15-2.1-1.78-4-4a24.25,24.25,0,0,1-5-9.76,32.87,32.87,0,0,1,1.46-22.16A20.51,20.51,0,0,1,40.05,21c1.3-1.07-1.36,0,.39-.54-2.91.52-.25.18-.08.14s-.41.4-.31.4-.7,1.37,1.23.91c-2.58,1.66-1.56.5-3.32,3.15A28.5,28.5,0,0,0,33.61,37a33.58,33.58,0,0,0,1.71,16.76,23.34,23.34,0,0,0,5.42,8.63c1.22,1.21-1,.34.65,1.16A2.93,2.93,0,0,1,41.8,64.82Z"/><path class="cls-1" d="M38.08,64.81c-3.3-.92-2.1-1.79-4-4a24.17,24.17,0,0,1-5-9.75A32.87,32.87,0,0,1,30.51,28.9,20.34,20.34,0,0,1,36.33,21c1.3-1.07,0-.67,1.75-1.23.17-.06-.17,0,0,0s.08.76.18.76,0,0,0,0c-3.31,1.58-2.26,1.87-4,4.53A28.33,28.33,0,0,0,29.89,37,33.69,33.69,0,0,0,31.6,53.73,23.44,23.44,0,0,0,37,62.35c1.23,1.22-1,.35.65,1.16A3,3,0,0,1,38.08,64.81Z"/><path class="cls-1" d="M38.07,65.83a15,15,0,0,1-7.54-4.93,24.25,24.25,0,0,1-5-9.76A32.81,32.81,0,0,1,27,29a20.51,20.51,0,0,1,5.83-7.9,13.56,13.56,0,0,1,4.53-2.5l.51-.14a1,1,0,0,1,.25,0s-.06.1-.09.12a17.86,17.86,0,0,0-7.29,6.58,28.36,28.36,0,0,0-4.35,11.91,33.57,33.57,0,0,0,1.7,16.76,23.37,23.37,0,0,0,5.43,8.63,16.1,16.1,0,0,0,4.31,3.08C37.92,65.58,38.12,65.61,38.07,65.83Z"/><path class="cls-1" d="M40,61.51H34.35c-1.57,0-3.14,0-4.71,0a6.41,6.41,0,0,1-5.32-2.27,13.44,13.44,0,0,1-2.56-4.54A34,34,0,0,1,19.9,44.23a37.75,37.75,0,0,1,1.72-13.61,13,13,0,0,1,3.2-5.41c1.22-1.16,2.56-4.16,4.45-4.14,3.45,0,5.91.37,9.37.36.23,0,1.86,2.17,1.54,1.68A20,20,0,0,0,34.25,17a12.44,12.44,0,0,0-12.93-.63,16.43,16.43,0,0,0-4.65,3.68A27.71,27.71,0,0,0,10.9,30.49,40.33,40.33,0,0,0,9.4,47.83,34.21,34.21,0,0,0,13.61,61a21.08,21.08,0,0,0,6.12,6.93,12.56,12.56,0,0,0,14.42.41,20.08,20.08,0,0,0,6.19-6.44C40.59,61.48,40.31,61.51,40,61.51Z"/><path class="cls-1" d="M62,42.88a11.62,11.62,0,0,1-1.72,5.94,5.11,5.11,0,0,1-1.41,1.54,3,3,0,0,1-3.8,0,5.87,5.87,0,0,1-1.64-2A12.87,12.87,0,0,1,52,40.87a11.53,11.53,0,0,1,1.36-4.63,6.21,6.21,0,0,1,1.52-1.88,3,3,0,0,1,4.08,0,6.93,6.93,0,0,1,2,2.75A14,14,0,0,1,62,42.88Z"/><path class="cls-2" d="M32.32,67.7a15.05,15.05,0,0,1-7.55-4.93,24.25,24.25,0,0,1-5-9.76A32.93,32.93,0,0,1,21.2,30.85,20.61,20.61,0,0,1,27,23a13.66,13.66,0,0,1,4.53-2.5l.52-.14a1,1,0,0,1,.24,0c0,.05,0,.1-.09.12A17.86,17.86,0,0,0,24.94,27a28.5,28.5,0,0,0-4.35,11.91A33.58,33.58,0,0,0,22.3,55.68a23.34,23.34,0,0,0,5.42,8.63A16.26,16.26,0,0,0,32,67.39C32.16,67.45,32.36,67.48,32.32,67.7Z"/><path class="cls-3" d="M42.67,60.51H37c-1.57,0-3.14,0-4.7,0A6.43,6.43,0,0,1,27,58.25a13.61,13.61,0,0,1-2.56-4.54,34,34,0,0,1-1.86-10.48,37.68,37.68,0,0,1,1.73-13.6,12.9,12.9,0,0,1,3.2-5.42,6.25,6.25,0,0,1,4.6-1.75c3.45,0,6.91,0,10.36,0,.23,0,.71.14.39-.35A20,20,0,0,0,36.92,16,12.44,12.44,0,0,0,24,15.37a16.47,16.47,0,0,0-4.66,3.68,27.85,27.85,0,0,0-5.77,10.44,40.64,40.64,0,0,0-1.5,17.34A34.22,34.22,0,0,0,16.28,60a20.94,20.94,0,0,0,6.11,6.93,12.56,12.56,0,0,0,14.42.41A20,20,0,0,0,43,60.87C43.26,60.48,43,60.51,42.67,60.51Z"/><path class="cls-3" d="M63.64,42.72a11.5,11.5,0,0,1-1.71,5.94,5.25,5.25,0,0,1-1.41,1.54,3,3,0,0,1-3.8,0,5.76,5.76,0,0,1-1.64-2,12.87,12.87,0,0,1-1.37-7.48,11.53,11.53,0,0,1,1.36-4.63,6.09,6.09,0,0,1,1.52-1.88,3,3,0,0,1,4.08,0,6.81,6.81,0,0,1,2,2.75A13.69,13.69,0,0,1,63.64,42.72Z"/><path class="cls-3" d="M41.69,21.57A14,14,0,0,0,39,25.13,28.38,28.38,0,0,0,34.6,37,33.69,33.69,0,0,0,36.31,53.8a23.47,23.47,0,0,0,5.42,8.63l.14.14.1.11-.69.83-.12,0c-.9-.52-1.15-1.15-2.37-2.57a24.27,24.27,0,0,1-5-9.76A32.87,32.87,0,0,1,35.22,29,20.48,20.48,0,0,1,41,21.07"/><path class="cls-3" d="M40.25,19.73a18.91,18.91,0,0,0-5.2,5.4A28.5,28.5,0,0,0,30.7,37,33.58,33.58,0,0,0,32.41,53.8a23.22,23.22,0,0,0,5.42,8.63,16,16,0,0,0,2,1.72l.4.28-.48.38-.31-.16a16.09,16.09,0,0,1-4.59-3.76,24.25,24.25,0,0,1-5-9.76A32.87,32.87,0,0,1,31.31,29a20.51,20.51,0,0,1,5.83-7.9,14,14,0,0,1,2.75-1.78Z"/><path class="cls-3" d="M38.88,65.82a15,15,0,0,1-7.54-4.93,24.25,24.25,0,0,1-5-9.76A32.81,32.81,0,0,1,27.77,29a20.51,20.51,0,0,1,5.83-7.9,13.56,13.56,0,0,1,4.53-2.5l.51-.14a1,1,0,0,1,.25,0c0,.05-.06.1-.09.12a17.86,17.86,0,0,0-7.29,6.58A28.36,28.36,0,0,0,27.16,37a33.68,33.68,0,0,0,1.7,16.76,23.37,23.37,0,0,0,5.43,8.63,16.1,16.1,0,0,0,4.31,3.08C38.73,65.57,38.93,65.6,38.88,65.82Z"/><path class="cls-3" d="M35,65.82a15,15,0,0,1-7.54-4.93,24.27,24.27,0,0,1-5-9.76A32.87,32.87,0,0,1,23.87,29a20.48,20.48,0,0,1,5.82-7.9,13.61,13.61,0,0,1,4.54-2.5l.51-.14a1,1,0,0,1,.24,0c0,.05,0,.1-.09.12a17.77,17.77,0,0,0-7.28,6.58A28.38,28.38,0,0,0,23.25,37,33.69,33.69,0,0,0,25,53.8a23.47,23.47,0,0,0,5.42,8.63,16.31,16.31,0,0,0,4.32,3.08C34.83,65.57,35,65.6,35,65.82Z"/><path class="cls-1" d="M53.55,15.37c-10.75,0-19.47,12.43-19.47,27.76S42.8,70.9,53.55,70.9,73,58.46,73,43.13,64.31,15.37,53.55,15.37ZM55,63.5c-7,0-12.77-9.12-12.77-20.37S47.92,22.76,55,22.76s12.77,9.12,12.77,20.37S62,63.5,55,63.5Z"/><path class="cls-3" d="M56.22,14.37c-10.76,0-19.48,12.43-19.48,27.76S45.46,69.9,56.22,69.9,75.69,57.47,75.69,42.13,67,14.37,56.22,14.37ZM57.63,62.5c-7.05,0-12.77-9.12-12.77-20.37s5.72-20.37,12.77-20.37,12.78,9.12,12.78,20.37S64.69,62.5,57.63,62.5Z"/><circle class="cls-4" cx="42.38" cy="42.38" r="42.38"/></g></g></svg>