<svg xmlns="http://www.w3.org/2000/svg" viewBox="0 0 69.81 81.54"><defs><style>.cls-1{fill:#dfdfdf;}.cls-2{fill:#414042;}.cls-3{fill:#a4a4a4;}</style></defs><g id="Layer_2" data-name="Layer 2"><g id="Layer_1-2" data-name="Layer 1"><path class="cls-1" d="M62.37,41.48c-2.64,2-2.18,2.57-4.89,4.9a29.64,29.64,0,0,1-11.93,6.16,40.27,40.27,0,0,1-27.13-1.79,25.13,25.13,0,0,1-9.67-7.13c-1.3-1.6,0,1.66-.65-.48.63,3.56.21.31.16.09s.49.51.49.39c.07.05,1.69.86,1.12-1.5,2,3.15.6,1.9,3.85,4.05A34.73,34.73,0,0,0,28.3,51.5a41.2,41.2,0,0,0,20.51-2.09,28.65,28.65,0,0,0,10.56-6.64c1.49-1.49.42,1.26,1.42-.79A3.55,3.55,0,0,1,62.37,41.48Z"/><path class="cls-1" d="M62.36,46c-1.13,4-2.19,2.57-4.89,4.9a29.68,29.68,0,0,1-11.94,6.16,40.22,40.22,0,0,1-27.13-1.8,25,25,0,0,1-9.66-7.12c-1.31-1.6-.82,0-1.51-2.14-.07-.21,0,.21,0,0s.94-.1.94-.22c.07,0,0-.05,0,0,1.93,4,2.29,2.76,5.54,4.91a34.74,34.74,0,0,0,14.57,5.33A41.24,41.24,0,0,0,48.8,54a28.69,28.69,0,0,0,10.55-6.64c1.49-1.5.42,1.26,1.42-.8A3.59,3.59,0,0,1,62.36,46Z"/><path class="cls-1" d="M63.61,46a18.46,18.46,0,0,1-6,9.23,29.81,29.81,0,0,1-11.94,6.16,40.18,40.18,0,0,1-27.12-1.8,25,25,0,0,1-9.67-7.12A16.8,16.8,0,0,1,5.78,47q-.11-.32-.18-.63a3,3,0,0,1,0-.3c.07,0,.13.07.15.11a21.85,21.85,0,0,0,8.06,8.92,34.74,34.74,0,0,0,14.57,5.33A41.23,41.23,0,0,0,48.9,58.3a28.69,28.69,0,0,0,10.55-6.64,19.53,19.53,0,0,0,3.78-5.28C63.3,46.22,63.34,46,63.61,46Z"/><path class="cls-1" d="M58.32,43.67V50.6c0,1.92,0,3.84,0,5.75a7.9,7.9,0,0,1-2.79,6.52A16.43,16.43,0,0,1,50,66a41.31,41.31,0,0,1-12.84,2.27,46,46,0,0,1-16.64-2.1,15.83,15.83,0,0,1-6.62-3.92c-1.43-1.49-5.09-3.13-5.07-5.44,0-4.22.45-7.24.44-11.46,0-.29,2.65-2.29,2.06-1.89a24.48,24.48,0,0,0-7.49,7.25,15.24,15.24,0,0,0-.76,15.83,20.09,20.09,0,0,0,4.5,5.69,33.79,33.79,0,0,0,12.78,7.06,49.57,49.57,0,0,0,21.21,1.84A41.89,41.89,0,0,0,57.66,76a25.75,25.75,0,0,0,8.48-7.48,15.38,15.38,0,0,0,.5-17.65,24.51,24.51,0,0,0-7.88-7.58C58.29,43,58.32,43.3,58.32,43.67Z"/><path class="cls-1" d="M35.51,16.8a14.28,14.28,0,0,1,7.28,2.1,6.83,6.83,0,0,1,1.89,1.73,3.68,3.68,0,0,1,0,4.65,7.23,7.23,0,0,1-2.42,2A15.89,15.89,0,0,1,33.06,29,14.3,14.3,0,0,1,27.4,27.3a7.61,7.61,0,0,1-2.31-1.86,3.7,3.7,0,0,1,0-5A8.31,8.31,0,0,1,28.43,18,17,17,0,0,1,35.51,16.8Z"/><path class="cls-2" d="M65.9,53.08a18.42,18.42,0,0,1-6,9.23,29.68,29.68,0,0,1-11.94,6.16,40.27,40.27,0,0,1-27.13-1.79,25,25,0,0,1-9.66-7.13A16.7,16.7,0,0,1,8.07,54a5.79,5.79,0,0,1-.18-.63,2.78,2.78,0,0,1,0-.29c.07.05.13.06.15.11a21.78,21.78,0,0,0,8.06,8.92,34.86,34.86,0,0,0,14.57,5.32,41.12,41.12,0,0,0,20.52-2.09,28.66,28.66,0,0,0,10.55-6.63,19.69,19.69,0,0,0,3.78-5.28C65.59,53.27,65.63,53,65.9,53.08Z"/><path class="cls-3" d="M57.1,40.41v6.93c0,1.92-.06,3.84,0,5.75a7.87,7.87,0,0,1-2.78,6.52,16.43,16.43,0,0,1-5.55,3.13A41.67,41.67,0,0,1,35.94,65,46.21,46.21,0,0,1,19.3,62.91,15.86,15.86,0,0,1,12.67,59a7.68,7.68,0,0,1-2.15-5.63c0-4.23,0-8.45,0-12.68,0-.28.17-.87-.43-.48a24.68,24.68,0,0,0-7.48,7.25,15.27,15.27,0,0,0-.77,15.83A20.45,20.45,0,0,0,6.35,69,33.86,33.86,0,0,0,19.13,76a49.6,49.6,0,0,0,21.22,1.84,41.79,41.79,0,0,0,16.08-5.16,25.88,25.88,0,0,0,8.49-7.48,15.4,15.4,0,0,0,.5-17.65A24.51,24.51,0,0,0,57.54,40C57.06,39.69,57.1,40,57.1,40.41Z"/><path class="cls-3" d="M35.32,14.74a14.13,14.13,0,0,1,7.27,2.1,6.38,6.38,0,0,1,1.89,1.72,3.66,3.66,0,0,1,0,4.66,7.25,7.25,0,0,1-2.42,2,15.88,15.88,0,0,1-9.16,1.67,14.12,14.12,0,0,1-5.66-1.66,7.74,7.74,0,0,1-2.31-1.86,3.72,3.72,0,0,1,0-5A8.19,8.19,0,0,1,28.23,16,16.85,16.85,0,0,1,35.32,14.74Z"/><path class="cls-3" d="M9.44,41.61c1.09,1.34,2.27,2,4.36,3.35a34.86,34.86,0,0,0,14.57,5.32,41.12,41.12,0,0,0,20.52-2.09,28.66,28.66,0,0,0,10.55-6.63l.17-.17.14-.13,1,.85a.86.86,0,0,1-.07.14c-.63,1.1-1.41,1.42-3.14,2.91a29.68,29.68,0,0,1-11.94,6.16,40.27,40.27,0,0,1-27.13-1.79A25,25,0,0,1,8.83,42.4"/><path class="cls-3" d="M7.19,43.37a22.69,22.69,0,0,0,6.61,6.36,34.74,34.74,0,0,0,14.57,5.33A41.24,41.24,0,0,0,48.89,53a28.66,28.66,0,0,0,10.55-6.63,20.35,20.35,0,0,0,2.11-2.5l.34-.48.47.58-.2.39a19.43,19.43,0,0,1-4.6,5.61A29.68,29.68,0,0,1,45.62,56.1a40.27,40.27,0,0,1-27.13-1.79,25,25,0,0,1-9.66-7.13,17.07,17.07,0,0,1-2.18-3.37Z"/><path class="cls-3" d="M63.6,45a18.38,18.38,0,0,1-6,9.23,29.56,29.56,0,0,1-11.94,6.16,40.15,40.15,0,0,1-27.13-1.79,24.9,24.9,0,0,1-9.66-7.13A16.53,16.53,0,0,1,5.77,46a6.32,6.32,0,0,1-.18-.62,1.49,1.49,0,0,1,0-.3c.07.05.13.06.15.11a21.78,21.78,0,0,0,8.06,8.92A34.87,34.87,0,0,0,28.37,59.4a41.24,41.24,0,0,0,20.52-2.09,28.69,28.69,0,0,0,10.55-6.64,19.69,19.69,0,0,0,3.78-5.28C63.29,45.23,63.33,45,63.6,45Z"/><path class="cls-3" d="M63.6,49.82a18.42,18.42,0,0,1-6,9.23,29.56,29.56,0,0,1-11.94,6.16,40.21,40.21,0,0,1-27.13-1.79,24.9,24.9,0,0,1-9.66-7.13,16.53,16.53,0,0,1-3.06-5.55,5.79,5.79,0,0,1-.18-.63,1.39,1.39,0,0,1,0-.29c.07,0,.13.06.15.11a21.78,21.78,0,0,0,8.06,8.92,34.86,34.86,0,0,0,14.57,5.32,41.12,41.12,0,0,0,20.52-2.09,28.53,28.53,0,0,0,10.55-6.63,19.69,19.69,0,0,0,3.78-5.28C63.29,50,63.33,49.77,63.6,49.82Z"/><path class="cls-1" d="M1.85,27.09c0,13.16,15.21,23.83,34,23.83s34-10.67,34-23.83S54.59,3.26,35.83,3.26,1.85,13.93,1.85,27.09Zm58.91-1.74C60.76,34,49.6,41,35.83,41S10.89,34,10.89,25.35,22.06,9.72,35.83,9.72,60.76,16.72,60.76,25.35Z"/><path class="cls-3" d="M.62,23.83c0,13.16,15.22,23.83,34,23.83s34-10.67,34-23.83S53.37,0,34.6,0,.62,10.67.62,23.83ZM59.54,22.1c0,8.63-11.17,15.63-24.94,15.63S9.67,30.73,9.67,22.1,20.83,6.46,34.6,6.46,59.54,13.46,59.54,22.1Z"/></g></g></svg>