<svg xmlns="http://www.w3.org/2000/svg" viewBox="0 0 44.84 115.83"><defs><style>.cls-1{fill:#dfdfdf;}.cls-2{fill:#a4a4a4;}</style></defs><g id="Layer_2" data-name="Layer 2"><g id="Layer_1-2" data-name="Layer 1"><polygon class="cls-1" points="17.58 35.79 11.54 35.79 7.16 29.54 4.89 31.11 4.89 35.79 2.27 34.23 0 35.79 0 81.6 17.58 81.6 17.58 115.83 22.11 115.83 24.38 114.26 19.84 0 17.58 1.56 17.58 35.79"/><polygon class="cls-1" points="38.04 1.56 38.04 115.83 42.57 115.83 44.84 114.26 40.3 0 38.04 1.56"/><polygon class="cls-2" points="19.84 34.23 13.81 34.23 13.81 29.54 7.16 29.54 7.16 34.23 2.27 34.23 2.27 80.03 19.84 80.03 19.84 114.26 24.38 114.26 24.38 0 19.84 0 19.84 34.23"/><rect class="cls-2" x="40.3" width="4.53" height="114.26"/><polygon class="cls-1" points="29.01 12.64 31.28 12.64 33.55 11.08 31.28 0 29.01 1.56 29.01 12.64"/><rect class="cls-2" x="31.28" width="2.27" height="11.08"/><polygon class="cls-1" points="29.01 29.84 31.28 29.84 33.55 28.28 31.28 17.2 29.01 18.76 29.01 29.84"/><rect class="cls-2" x="31.28" y="17.2" width="2.27" height="11.08"/><polygon class="cls-1" points="29.01 47.04 31.28 47.04 33.55 45.47 31.28 34.39 29.01 35.96 29.01 47.04"/><rect class="cls-2" x="31.28" y="34.39" width="2.27" height="11.08"/><polygon class="cls-1" points="29.01 64.23 31.28 64.23 33.55 62.67 31.28 51.59 29.01 53.16 29.01 64.23"/><rect class="cls-2" x="31.28" y="51.59" width="2.27" height="11.08"/><polygon class="cls-1" points="29.01 81.43 31.28 81.43 33.55 79.87 31.28 68.79 29.01 70.35 29.01 81.43"/><rect class="cls-2" x="31.28" y="68.79" width="2.27" height="11.08"/><polygon class="cls-1" points="29.01 98.63 31.28 98.63 33.55 97.06 31.28 85.98 29.01 87.55 29.01 98.63"/><rect class="cls-2" x="31.28" y="85.98" width="2.27" height="11.08"/><polygon class="cls-1" points="29.01 115.83 31.28 115.83 33.55 114.26 31.28 103.18 29.01 104.75 29.01 115.83"/><rect class="cls-2" x="31.28" y="103.18" width="2.27" height="11.08"/></g></g></svg>