<svg xmlns="http://www.w3.org/2000/svg" viewBox="0 0 93.51 88.74"><defs><style>.cls-1{fill:#a4a4a4;}.cls-2{fill:#dfdfdf;}</style></defs><g id="Layer_2" data-name="Layer 2"><g id="Layer_1-2" data-name="Layer 1"><path class="cls-1" d="M50.57,59c-3.14,0-6.29,0-9.44,0-.56,0-.71-.15-.71-.72q0-9.56,0-19.11c0-.57.89-1.82,1.45-1.82,6.3,0,11.85,1.12,18.14,1.1.57,0,.72.15.71.72,0,6.37,1,11.49,1.06,17.86,0,.57-1.2,2-1.77,2C56.87,59,53.72,59,50.57,59Z"/><path class="cls-2" d="M51.61,57.73c-3.15,0-6.3,0-9.46,0-.56,0-.71-.15-.71-.72q0-9.54,0-19.08c0-.56.15-.72.71-.72q9.47,0,18.91,0c.57,0,.72.15.72.72q0,9.54,0,19.08c0,.57-.15.72-.72.72C57.91,57.72,54.76,57.73,51.61,57.73Z"/><polygon class="cls-1" points="41.44 31.08 40.42 31.64 40.42 35.89 44.44 35.89 45.46 35.33 41.44 31.08"/><polygon class="cls-1" points="60.76 31.57 57.76 31.01 56.74 31.57 56.74 35.82 60.76 35.82 61.77 35.26 60.76 31.57"/><rect class="cls-2" x="41.44" y="31.08" width="4.02" height="4.25"/><rect class="cls-2" x="57.76" y="31.01" width="4.02" height="4.25"/><polygon class="cls-1" points="45.46 63.99 41.44 59.82 40.42 60.37 40.42 64.53 44.44 64.53 45.46 63.99"/><polygon class="cls-1" points="53.62 63.96 49.6 59.79 48.58 60.34 48.58 64.5 52.59 64.5 53.62 63.96"/><polygon class="cls-1" points="61.77 63.92 57.76 59.75 56.74 60.3 56.74 64.46 60.76 64.46 61.77 63.92"/><rect class="cls-2" x="41.44" y="59.82" width="4.02" height="4.16"/><rect class="cls-2" x="49.6" y="59.79" width="4.02" height="4.16"/><rect class="cls-2" x="57.76" y="59.75" width="4.02" height="4.16"/><polygon class="cls-1" points="33.93 54.74 33.93 58.79 38.04 58.79 38.7 57.95 34.59 53.9 33.93 54.74"/><polygon class="cls-1" points="33.9 46.51 33.9 50.56 38.01 50.56 38.67 49.73 34.56 45.67 33.9 46.51"/><polygon class="cls-1" points="33.86 38.28 33.86 42.33 37.97 42.33 38.63 41.49 34.52 37.44 33.86 38.28"/><rect class="cls-2" x="34.62" y="53.87" width="4.05" height="4.11" transform="translate(-19.28 92.57) rotate(-90)"/><rect class="cls-2" x="34.59" y="45.64" width="4.05" height="4.11" transform="translate(-11.08 84.31) rotate(-90)"/><rect class="cls-2" x="34.55" y="37.41" width="4.05" height="4.11" transform="translate(-2.89 76.04) rotate(-90)"/><polygon class="cls-1" points="63.28 54.77 63.28 58.79 67.4 58.79 68.06 57.96 63.94 53.93 63.28 54.77"/><polygon class="cls-1" points="63.25 46.58 63.25 50.61 67.37 50.61 68.03 49.77 63.91 45.74 63.25 46.58"/><polygon class="cls-1" points="63.21 38.39 63.21 42.42 67.33 42.42 67.99 41.59 63.94 37.44 63.21 38.39"/><rect class="cls-2" x="63.98" y="53.88" width="4.03" height="4.12" transform="translate(10.05 121.94) rotate(-90)"/><rect class="cls-2" x="63.95" y="45.7" width="4.03" height="4.12" transform="translate(18.21 113.73) rotate(-90)"/><rect class="cls-2" x="63.92" y="37.51" width="4.03" height="4.12" transform="translate(26.36 105.5) rotate(-90)"/><path class="cls-1" d="M11.48,33.77c2.2,2,4.32,3.93,6.47,5.83a1,1,0,0,1,.32,1.1,30.53,30.53,0,0,0-.36,11.7A32.64,32.64,0,0,0,29.78,73.09a32.79,32.79,0,0,0,44.49-2.78A32.47,32.47,0,0,0,83,53a31.18,31.18,0,0,0,.12-10.29,33.22,33.22,0,0,0-25.39-27.3,34,34,0,0,0-8.16-.82c-.51,0-.69-.08-.71-.62q-.12-3.49-.34-7c0-.52.13-.62.61-.63A41.26,41.26,0,0,1,65.64,9.24a41.45,41.45,0,0,1,24,25.5,41.79,41.79,0,0,1,1.73,7.83,41.48,41.48,0,0,1,.37,6A39.56,39.56,0,0,1,90,59.33,41.11,41.11,0,0,1,79.12,77.11,40.83,40.83,0,0,1,49.5,88.72a39.94,39.94,0,0,1-22.16-7.16A40.77,40.77,0,0,1,10.78,58.44,38.87,38.87,0,0,1,9.36,45.75,54.11,54.11,0,0,1,11.48,33.77Z"/><polygon class="cls-1" points="15.54 38.43 22.52 50.65 28.05 47.49 17.85 29.64 0 39.84 3.21 45.46 15.54 38.43"/><path class="cls-1" d="M53,18.49c0,5,1.69,10,1.69,15,0,1.92-2,2.42-3,2.43s-2.32,0-3.48,0c-.85,0-1.18-.6-1.18-2.17q0-15.24,0-30.48A2.62,2.62,0,0,1,48.23,1L49.3.21S53,1.62,53,3.26Z"/><path class="cls-2" d="M13.21,32.82c2.2,2,4.32,3.93,6.47,5.82A1,1,0,0,1,20,39.75a30.28,30.28,0,0,0-.35,11.69A33.17,33.17,0,0,0,47.16,79.15a31.7,31.7,0,0,0,10.6-.09,33.11,33.11,0,0,0,27-27,31.12,31.12,0,0,0,.12-10.28A33.24,33.24,0,0,0,59.46,14.45a33.45,33.45,0,0,0-8.16-.81c-.51,0-.69-.08-.7-.62-.09-2.33-.2-4.67-.35-7,0-.52.13-.62.61-.63A41.31,41.31,0,0,1,81.19,17.31,41,41,0,0,1,91.41,33.79a42.47,42.47,0,0,1,1.72,7.82,41.62,41.62,0,0,1,.37,6,39.62,39.62,0,0,1-1.79,10.78A41.25,41.25,0,0,1,80.86,76.16,40.66,40.66,0,0,1,64.1,86.05a41.18,41.18,0,0,1-12.87,1.72A40,40,0,0,1,29.07,80.6,40.73,40.73,0,0,1,12.51,57.48,38.78,38.78,0,0,1,11.09,44.8,54,54,0,0,1,13.21,32.82Z"/><polygon class="cls-2" points="17.27 37.47 24.25 49.69 29.78 46.54 19.58 28.69 1.73 38.88 4.95 44.51 17.27 37.47"/><path class="cls-2" d="M54.73,17.54v15c0,1.92-.29,2.44-1.33,2.44s-2.32,0-3.48,0c-.85,0-1.18-.6-1.18-2.18q0-15.24,0-30.47C48.74.66,49.08,0,50,0c1.18,0,2.37,0,3.55,0,.88,0,1.21.64,1.22,2.28Z"/></g></g></svg>