<svg xmlns="http://www.w3.org/2000/svg" viewBox="0 0 79.34 79.44"><defs><style>.cls-1{fill:#a4a4a4;}.cls-2{fill:#dfdfdf;}</style></defs><g id="Layer_2" data-name="Layer 2"><g id="Layer_1-2" data-name="Layer 1"><path class="cls-1" d="M77.08,40.88c.39,20.86-17.51,38.86-39,38.56a38.57,38.57,0,1,1,39-38.56ZM30.77,53.44c0,6.87,0,13.74,0,20.61,0,1.07.3,1.32,1.33,1.3,4.37,0,8.74,0,13.11,0,.85,0,1.14-.19,1.14-1.1q0-20.86,0-41.75c0-.91-.29-1.08-1.13-1.08-4.37,0-8.74.07-13.11,0-1.19,0-1.35.37-1.34,1.42C30.79,39.7,30.77,46.57,30.77,53.44Zm8-45.09a9.28,9.28,0,0,0-9.32,6.55,8.77,8.77,0,0,0,6.24,10.7c5.12,1.48,10.57-1.19,12-5.9C49.43,14,45,8.44,38.74,8.35Z"/><path class="cls-2" d="M79.33,38.57c.39,20.85-17.51,38.86-39,38.56a38.57,38.57,0,1,1,39-38.56ZM33,51.12c0,6.87,0,13.74,0,20.61,0,1.08.3,1.32,1.33,1.31,4.37-.06,8.74,0,13.12,0,.84,0,1.13-.18,1.13-1.09q0-20.88,0-41.75c0-.92-.29-1.09-1.13-1.08-4.37,0-8.74.07-13.11,0-1.19,0-1.35.37-1.34,1.42C33.05,37.39,33,44.26,33,51.12ZM41,6a9.27,9.27,0,0,0-9.32,6.54,8.77,8.77,0,0,0,6.24,10.71c5.12,1.47,10.57-1.2,12-5.91C51.68,11.69,47.29,6.12,41,6Z"/></g></g></svg>