<svg xmlns="http://www.w3.org/2000/svg" viewBox="0 0 80.41 78.96"><defs><style>.cls-1{fill:#a4a4a4;}.cls-2{fill:#dfdfdf;}</style></defs><g id="Layer_2" data-name="Layer 2"><g id="Layer_1-2" data-name="Layer 1"><path class="cls-1" d="M39.42,65.62c-7.94,0-15.89,0-23.83,0-1.42,0-1.8-.38-1.8-1.8q.08-23.83,0-47.66c0-1.42,1-2.9,2.41-2.89,15.89,0,31.16,1.14,47.05,1.09,1.42,0,1.8.38,1.79,1.8,0,15.89,1.33,31.34,1.38,47.23,0,1.41-1.75,2.24-3.17,2.23C55.31,65.59,47.36,65.62,39.42,65.62Zm20-25.38c0-6.13,0-12.25,0-18.38,0-1.33-.22-1.85-1.72-1.84-12.18.07-24.37.05-36.55,0-1.23,0-1.74.2-1.74,1.62q.09,18.38,0,36.75c0,1.4.48,1.63,1.73,1.63,12.18,0,24.37-.06,36.55,0,1.48,0,1.75-.48,1.73-1.83C59.35,52.22,59.39,46.23,59.39,40.24Z"/><polygon class="cls-1" points="26.99 27.53 37.13 27.53 38.56 26.37 23.74 21.78 22.31 22.94 22.31 37.76 26.99 37.76 28.41 36.6 26.99 27.53"/><polygon class="cls-1" points="51.83 52.52 43.11 51.36 41.68 52.52 41.68 57.11 56.5 57.11 57.93 55.95 53.26 41.13 51.83 42.29 51.83 52.52"/><polygon class="cls-1" points="20.94 0 19.51 1.16 19.51 10.05 25.12 10.05 26.55 8.89 20.94 0"/><polygon class="cls-1" points="32.35 0.15 30.93 1.31 30.93 10.2 36.53 10.2 37.96 9.04 32.35 0.15"/><polygon class="cls-1" points="47.93 1.25 43.75 0.08 42.32 1.25 42.32 10.14 47.93 10.14 49.35 8.97 47.93 1.25"/><polygon class="cls-1" points="59.33 1.16 55.14 0 53.72 1.16 53.72 10.05 59.33 10.05 60.75 8.89 59.33 1.16"/><polygon class="cls-1" points="26.55 77.65 20.94 68.76 19.51 69.92 19.51 78.82 25.12 78.82 26.55 77.65"/><polygon class="cls-1" points="37.96 77.8 32.35 68.91 30.92 70.07 30.92 78.96 36.53 78.96 37.96 77.8"/><polygon class="cls-1" points="49.35 77.74 43.74 68.84 42.32 70.01 42.32 78.9 47.93 78.9 49.35 77.74"/><polygon class="cls-1" points="60.75 77.65 55.14 68.76 53.72 69.92 53.72 78.82 59.33 78.82 60.75 77.65"/><polygon class="cls-1" points="0 54.33 0 59.94 8.89 59.94 10.32 58.78 1.43 53.17 0 54.33"/><polygon class="cls-1" points="0.15 42.92 0.15 48.52 9.04 48.52 10.46 47.36 1.57 41.75 0.15 42.92"/><polygon class="cls-1" points="0.08 31.52 0.08 37.13 8.97 37.13 10.4 35.97 1.51 30.36 0.08 31.52"/><polygon class="cls-1" points="0 20.12 0 25.73 8.89 25.73 10.32 24.57 1.43 18.96 0 20.12"/><polygon class="cls-1" points="69.95 52.06 69.95 57.67 78.84 57.67 80.27 56.5 71.37 51.06 69.95 52.06"/><polygon class="cls-1" points="70.09 40.64 70.09 46.25 78.98 46.25 80.41 45.09 71.52 39.48 70.09 40.64"/><polygon class="cls-1" points="70.03 29.25 70.03 34.86 78.92 34.86 80.35 33.7 71.46 28.09 70.03 29.25"/><polygon class="cls-1" points="69.95 17.85 69.95 23.46 78.84 23.46 80.27 22.3 71.52 16.53 69.95 17.85"/><path class="cls-2" d="M40.85,64.46c-8,0-15.89,0-23.84,0-1.41,0-1.79-.37-1.79-1.79q.07-23.83,0-47.66c0-1.42.38-1.8,1.79-1.8q23.83.07,47.67,0c1.41,0,1.79.38,1.79,1.79q-.07,23.84,0,47.67c0,1.42-.37,1.81-1.79,1.79C56.73,64.43,48.79,64.46,40.85,64.46Zm20-25.38c0-6.13,0-12.26,0-18.38,0-1.33-.22-1.85-1.72-1.84q-18.29.09-36.55,0c-1.24,0-1.75.2-1.74,1.62q.09,18.38,0,36.75c0,1.39.47,1.63,1.72,1.62q18.29-.06,36.55,0c1.49,0,1.75-.47,1.74-1.82C60.78,51.06,60.82,45.07,60.82,39.08Z"/><polygon class="cls-2" points="28.41 26.37 38.56 26.37 38.56 21.78 23.74 21.78 23.74 36.6 28.41 36.6 28.41 26.37"/><polygon class="cls-2" points="53.26 51.36 43.11 51.36 43.11 55.95 57.93 55.95 57.93 41.13 53.26 41.13 53.26 51.36"/><rect class="cls-2" x="20.94" width="5.61" height="8.89"/><rect class="cls-2" x="32.35" y="0.15" width="5.61" height="8.89"/><rect class="cls-2" x="43.75" y="0.08" width="5.61" height="8.89"/><rect class="cls-2" x="55.14" width="5.61" height="8.89"/><rect class="cls-2" x="20.94" y="68.76" width="5.61" height="8.89"/><rect class="cls-2" x="32.35" y="68.91" width="5.61" height="8.89"/><rect class="cls-2" x="43.74" y="68.84" width="5.61" height="8.89"/><rect class="cls-2" x="55.14" y="68.76" width="5.61" height="8.89"/><rect class="cls-2" x="3.07" y="51.53" width="5.61" height="8.89" transform="translate(-50.1 61.84) rotate(-90)"/><rect class="cls-2" x="3.21" y="40.11" width="5.61" height="8.89" transform="translate(-38.54 50.58) rotate(-90)"/><rect class="cls-2" x="3.15" y="28.72" width="5.61" height="8.89" transform="translate(-27.21 39.12) rotate(-90)"/><rect class="cls-2" x="3.07" y="17.32" width="5.61" height="8.89" transform="translate(-15.89 27.64) rotate(-90)"/><rect class="cls-2" x="73.01" y="49.25" width="5.61" height="8.89" transform="translate(22.12 129.52) rotate(-90)"/><rect class="cls-2" x="73.16" y="37.84" width="5.61" height="8.89" transform="translate(33.68 118.25) rotate(-90)"/><rect class="cls-2" x="73.1" y="26.45" width="5.61" height="8.89" transform="translate(45.01 106.79) rotate(-90)"/><rect class="cls-2" x="73.01" y="15.05" width="5.61" height="8.89" transform="translate(56.33 95.31) rotate(-90)"/></g></g></svg>