<svg xmlns="http://www.w3.org/2000/svg" viewBox="0 0 68.09 97.93"><defs><style>.cls-1{fill:#dfdfdf;}.cls-2{fill:#a4a4a4;}</style></defs><g id="Layer_2" data-name="Layer 2"><g id="Layer_1-2" data-name="Layer 1"><polygon class="cls-1" points="44.22 75.8 45.36 74.45 50.76 96.59 49.62 97.93 44.22 97.93 44.22 75.8"/><polygon class="cls-1" points="17.61 75.8 18.71 74.45 24.11 96.59 23 97.93 17.61 97.93 17.61 75.8"/><polygon class="cls-1" points="22.98 16.2 19.29 18.96 11.18 7.83 11.96 7.2 22.98 16.2"/><polygon class="cls-1" points="35.41 14.4 31.8 14.4 31.8 0.63 32.57 0 35.41 0.63 36.18 13.77 35.41 14.4"/><polygon class="cls-1" points="13.89 31.16 13.01 33.74 12.24 34.37 0 28.07 1.65 24.86 2.43 24.23 13.89 31.16"/><polygon class="cls-1" points="45 16.83 47.91 18.96 48.69 18.32 56.02 7.83 53.88 5.07 53.1 5.71 45 16.83"/><polygon class="cls-1" points="53.42 31.16 55.07 34.37 67.31 28.07 68.09 27.44 65.66 24.86 54.2 30.53 53.42 31.16"/><rect class="cls-2" x="18.71" y="74.45" width="5.4" height="22.13"/><rect class="cls-2" x="15.66" y="4.82" width="3.61" height="13.77" transform="translate(-3.54 12.53) rotate(-36.07)"/><rect class="cls-2" x="32.57" width="3.61" height="13.77"/><path class="cls-1" d="M33.71,64.18H17.35c-.45,0-.61-.08-.61-.58,0-7.13,0-14.27,0-21.4A18.52,18.52,0,0,1,19.7,32a19,19,0,0,1,3.4-4A16.57,16.57,0,0,1,26,26a15.89,15.89,0,0,1,14.83-.38A15,15,0,0,1,46,29.56a18.74,18.74,0,0,1,4.73,12.67c0,6.78,1.16,20.64,1.16,20.64l-.78.71s-.52.62-1,.62Q41.93,64.17,33.71,64.18Z"/><path class="cls-1" d="M33.79,68Q43,68,52.31,68c.5,0,1.77,2.67,1.77,2.67l-.69.67s-.57.61-.88.57c-.1,0-.2,0-.3,0q-18.47,0-36.92,0c-.59,0-.73-.16-.7-.73a25.63,25.63,0,0,0,0-2.63c0-.47,1.08-1.7,1.52-1.69C22.32,66.9,27.58,68,33.79,68Z"/><path class="cls-2" d="M35,63c-5.45,0-10.91,0-16.36,0-.45,0-.61-.09-.61-.58,0-7.14,0-14.27,0-21.41A18.62,18.62,0,0,1,21,30.8a18.9,18.9,0,0,1,3.4-4,16.09,16.09,0,0,1,2.93-2,15.86,15.86,0,0,1,14.83-.39,15.22,15.22,0,0,1,5.15,3.93A18.76,18.76,0,0,1,52,41.07c0,7.11,0,14.23,0,21.34,0,.51-.14.62-.63.62C45.91,63,40.43,63,35,63Z"/><path class="cls-2" d="M35,66.87c6.17,0,12.35,0,18.52,0,.5,0,.64.12.61.62,0,1,0,1.92,0,2.88,0,.31-.1.44-.41.4-.1,0-.2,0-.3,0q-18.45,0-36.91,0c-.6,0-.74-.16-.71-.73a25.83,25.83,0,0,0,0-2.64c0-.46.13-.55.57-.55Z"/><rect class="cls-2" x="5.92" y="22.1" width="3.61" height="13.77" transform="translate(-21.58 22.58) rotate(-62.75)"/><rect class="cls-2" x="49.48" y="4.82" width="3.61" height="13.77" transform="translate(85.85 51.35) rotate(-143.93)"/><rect class="cls-2" x="59.34" y="22.1" width="3.61" height="13.77" transform="translate(63.37 96.61) rotate(-117.25)"/><rect class="cls-2" x="45.36" y="74.45" width="5.4" height="22.13"/></g></g></svg>