<svg xmlns="http://www.w3.org/2000/svg" viewBox="0 0 84.96 85.51"><defs><style>.cls-1{fill:#dfdfdf;}.cls-2{fill:#a4a4a4;}</style></defs><g id="Layer_2" data-name="Layer 2"><g id="Layer_1-2" data-name="Layer 1"><path class="cls-1" d="M41.79,1.93A41.79,41.79,0,1,0,83.58,43.72,41.84,41.84,0,0,0,41.79,1.93ZM80.2,42.49H71.91a30.18,30.18,0,0,0-29-28.89V5.31A38.47,38.47,0,0,1,80.2,42.49Zm-38.41,29A27.73,27.73,0,1,1,69.52,43.72,27.76,27.76,0,0,1,41.79,71.45ZM39.91,5.33v8.31A30.19,30.19,0,0,0,11.67,42.49H3.39A38.47,38.47,0,0,1,39.91,5.33ZM3.4,45.51h8.3A30.19,30.19,0,0,0,39.91,73.8v8.31A38.49,38.49,0,0,1,3.4,45.51ZM42.93,82.13V73.84A30.18,30.18,0,0,0,71.88,45.51h8.3A38.48,38.48,0,0,1,42.93,82.13Z"/><polygon class="cls-1" points="42.39 43.69 27.45 27.34 25.91 29.34 25.91 58.45 32.53 58.45 34.07 56.44 32.53 41.2 42.39 54.04 52.25 41.2 52.25 58.45 58.87 58.45 60.41 56.44 53.41 29.34 42.39 43.69"/><path class="cls-2" d="M43.17,0A41.79,41.79,0,1,0,85,41.79,41.84,41.84,0,0,0,43.17,0ZM81.58,40.56H73.29a30.19,30.19,0,0,0-29-28.89V3.39A38.47,38.47,0,0,1,81.58,40.56Zm-38.41,29A27.73,27.73,0,1,1,70.9,41.79,27.76,27.76,0,0,1,43.17,69.52ZM41.29,3.4v8.31A30.18,30.18,0,0,0,13.05,40.56H4.77A38.47,38.47,0,0,1,41.29,3.4ZM4.78,43.59h8.3A30.19,30.19,0,0,0,41.29,71.88v8.3A38.49,38.49,0,0,1,4.78,43.59ZM44.31,80.2V71.91a30.18,30.18,0,0,0,29-28.32h8.3A38.48,38.48,0,0,1,44.31,80.2Z"/><polygon class="cls-2" points="43.93 41.68 32.91 27.34 27.45 27.34 27.45 56.44 34.07 56.44 34.07 39.19 43.93 52.03 53.79 39.19 53.79 56.44 60.41 56.44 60.41 27.34 54.95 27.34 43.93 41.68"/></g></g></svg>