<svg xmlns="http://www.w3.org/2000/svg" viewBox="0 0 83.55 83.05"><defs><style>.cls-1{fill:#a4a4a4;}.cls-2{fill:#dfdfdf;}</style></defs><g id="Layer_2" data-name="Layer 2"><g id="Layer_1-2" data-name="Layer 1"><path class="cls-1" d="M40.55,54.56a11.88,11.88,0,1,1,12-11.83A11.79,11.79,0,0,1,40.55,54.56Z"/><path class="cls-1" d="M81.12,42.68c-.24.28-.43.51-.64.71C76.25,47.6,72,51.79,67.78,56c-.59.59-.91.67-1.52,0-1.79-1.88-3.62-3.74-5.51-5.52-.71-.67-.6-1.05,0-1.66,1.84-1.76,3.59-3.61,5.42-5.36.64-.61.75-1,0-1.62-1.85-1.74-3.58-3.61-5.43-5.35-.75-.71-.68-1.12,0-1.8,1.85-1.74,3.63-3.56,5.39-5.38.56-.58.87-.71,1.52-.05,4.21,4.24,8.46,8.42,12.7,12.63C80.69,42.17,80.9,42.43,81.12,42.68Z"/><path class="cls-1" d="M0,42.68c.24.28.43.51.64.71C4.88,47.6,9.13,51.79,13.34,56c.59.59.91.67,1.52,0,1.79-1.88,3.62-3.74,5.51-5.52.72-.67.61-1.05,0-1.66-1.83-1.76-3.58-3.61-5.42-5.36-.64-.61-.75-1,0-1.62,1.85-1.74,3.58-3.61,5.43-5.35.75-.71.68-1.12,0-1.8-1.84-1.74-3.63-3.56-5.39-5.38-.55-.58-.87-.71-1.52-.05C9.17,33.55,4.91,37.73.67,41.94.44,42.17.22,42.43,0,42.68Z"/><path class="cls-1" d="M40.56,2.32c.28.24.5.43.71.64,4.21,4.23,8.4,8.49,12.63,12.7.59.59.67.91,0,1.52-1.88,1.79-3.74,3.62-5.52,5.51-.68.71-1,.6-1.66,0-1.76-1.84-3.61-3.59-5.36-5.42-.61-.64-1-.75-1.63,0-1.73,1.85-3.61,3.58-5.35,5.43-.7.75-1.11.68-1.79,0-1.75-1.85-3.56-3.63-5.39-5.39-.57-.56-.7-.87,0-1.52C31.43,11.48,35.61,7.23,39.82,3,40.05,2.75,40.31,2.54,40.56,2.32Z"/><path class="cls-1" d="M40.56,83.05c-.27-.25-.5-.43-.71-.64-4.21-4.24-8.39-8.49-12.63-12.7-.59-.59-.66-.92,0-1.53,1.88-1.79,3.73-3.62,5.51-5.51.68-.71,1.06-.6,1.67,0,1.76,1.83,3.6,3.58,5.36,5.42.6.63.95.75,1.62,0,1.74-1.86,3.61-3.58,5.35-5.43.71-.76,1.11-.69,1.79,0,1.75,1.84,3.56,3.62,5.39,5.39.57.55.7.87,0,1.52-4.23,4.2-8.42,8.46-12.62,12.69C41.07,82.61,40.81,82.82,40.56,83.05Z"/><path class="cls-2" d="M43,52.25A11.89,11.89,0,1,1,55,40.41,11.81,11.81,0,0,1,43,52.25Z"/><path class="cls-2" d="M83.55,40.37c-.24.27-.43.5-.64.71-4.23,4.2-8.48,8.39-12.69,12.62-.6.59-.92.67-1.53,0-1.79-1.88-3.62-3.73-5.51-5.52-.71-.67-.6-1.05,0-1.66,1.84-1.76,3.59-3.61,5.43-5.36.63-.61.74-1,0-1.62-1.85-1.74-3.57-3.61-5.43-5.35-.75-.71-.68-1.12,0-1.79,1.85-1.75,3.63-3.56,5.39-5.39.56-.57.87-.71,1.53-.05,4.2,4.24,8.45,8.42,12.69,12.63C83.12,39.85,83.33,40.12,83.55,40.37Z"/><path class="cls-2" d="M2.43,40.37c.25.27.43.5.64.71,4.24,4.2,8.49,8.39,12.7,12.62.59.59.91.67,1.52,0,1.8-1.88,3.63-3.73,5.51-5.52.72-.67.61-1.05,0-1.66-1.83-1.76-3.58-3.61-5.42-5.36-.64-.61-.75-1,0-1.62,1.85-1.74,3.58-3.61,5.43-5.35.76-.71.68-1.12,0-1.79-1.84-1.75-3.62-3.56-5.39-5.39-.55-.57-.87-.71-1.52-.05-4.2,4.24-8.46,8.42-12.69,12.63C2.87,39.85,2.66,40.12,2.43,40.37Z"/><path class="cls-2" d="M43,0c.27.24.5.43.7.64,4.21,4.24,8.4,8.49,12.63,12.7.59.59.67.91,0,1.52-1.88,1.79-3.73,3.62-5.52,5.51-.67.72-1.05.61-1.66,0-1.76-1.83-3.61-3.58-5.36-5.42-.61-.64-1-.75-1.62,0-1.74,1.85-3.61,3.58-5.35,5.43-.71.75-1.12.68-1.8,0-1.74-1.84-3.56-3.63-5.38-5.39-.58-.55-.71-.87-.05-1.52C33.86,9.17,38,4.91,42.25.67,42.48.44,42.75.22,43,0Z"/><path class="cls-2" d="M43,80.73c-.27-.25-.5-.43-.71-.64-4.2-4.24-8.39-8.49-12.62-12.7-.6-.59-.67-.91,0-1.52,1.88-1.8,3.73-3.63,5.52-5.51.67-.72,1.05-.61,1.66,0,1.76,1.83,3.6,3.58,5.36,5.42.6.64.95.75,1.62,0,1.74-1.85,3.61-3.58,5.35-5.43.71-.76,1.12-.68,1.79,0,1.75,1.84,3.56,3.62,5.39,5.39.57.55.71.87,0,1.52-4.24,4.2-8.43,8.46-12.63,12.69C43.5,80.29,43.24,80.5,43,80.73Z"/></g></g></svg>