<svg xmlns="http://www.w3.org/2000/svg" viewBox="0 0 70.5 62.16"><defs><style>.cls-1{fill:#dfdfdf;}.cls-2{fill:#a4a4a4;}</style></defs><g id="Layer_2" data-name="Layer 2"><g id="Layer_1-2" data-name="Layer 1"><polygon class="cls-1" points="64.98 60.86 39.41 34.54 31.12 0 29.32 1.3 29.41 35.2 1.8 52.43 0 53.73 5.53 62.16 34.35 43.28 63.18 62.16 64.98 60.86"/><path class="cls-1" d="M16.56.25l4.85,7.82,3.26-6.51L26.47.25,23.21,11.37l1.51,3.73-1.79,1.3h-3V11.81L14.77,1.56Z"/><path class="cls-1" d="M57.93,26.47l4.49,5.77,2.7-4.46,1.8-1.31-2.25,8.08,5.83,6.77-1.8,1.3H65.12l-2.7-4.46-.9,3.16-1.8,1.3H56.14l4.49-7.42-4.49-7.42Z"/><path class="cls-1" d="M1.93,26.47l9.54,3.93L4.11,39.63l9.15,1.69-1.79,1.3H0V40l7.36-9.24H.13v-3Z"/><polygon class="cls-2" points="70.5 52.43 41.2 33.24 41.2 0 31.12 0 31.12 33.22 1.8 52.43 7.32 60.86 36.15 41.98 64.98 60.86 70.5 52.43"/><path class="cls-2" d="M20,.25l3.26,6.52L26.47.25h3.38L24.72,10.51V15.1h-3V10.51L16.56.25Z"/><path class="cls-2" d="M61.52,26.47l2.7,4.46,2.7-4.46H70.5L66,33.9l4.49,7.42H66.92l-2.7-4.46-2.7,4.46H57.93l4.5-7.42-4.5-7.43Z"/><path class="cls-2" d="M13.26,26.47V29.1L5.9,38.33h7.36v3H1.8V38.69l7.35-9.23H1.93v-3Z"/></g></g></svg>