<svg xmlns="http://www.w3.org/2000/svg" viewBox="0 0 33.06 56.15"><defs><style>.cls-1{fill:#dfdfdf;}.cls-2{fill:#a4a4a4;}</style></defs><g id="Layer_2" data-name="Layer 2"><g id="Layer_1-2" data-name="Layer 1"><path class="cls-1" d="M23.79,25.32c0,1,.34,2.51-.24,3.26-2,2.63-4.19,4.38-7.41,4.38A7.64,7.64,0,0,1,8.5,25.32c0-4.23,5.4-9.64,7.64-7.65C19.3,20.47,23.79,21.09,23.79,25.32Z"/><path class="cls-1" d="M22.57,10.44,21,0,19.76.65V12.24l1.63.75A13.13,13.13,0,0,1,29,24.87a13.62,13.62,0,0,1-8,12l-1.26.66v5h2.81l1.27-.66L22.57,39.3a15.89,15.89,0,0,0,0-28.86Z"/><path class="cls-1" d="M12,42.52l1.26-.66-2.89-5.11a13.08,13.08,0,0,1,0-23.75L12,12,10.49,0,9.23.65v9.79a15.89,15.89,0,0,0,0,28.86v3.22Z"/><path class="cls-1" d="M9.47,44.07v7.55l6.67,4.53,6.68-4.53V44.07l-12.33-.7Zm12.29,6.79-3.33,2.27v-6h3.33Z"/><path class="cls-2" d="M10.49,43.37v7.54l6.67,4.53,6.68-4.53V43.37Zm12.3,6.79-3.34,2.26v-6h3.34Z"/><path class="cls-2" d="M23.84,9.79V0H21V11.59l1.64.75a13.09,13.09,0,0,1,0,23.76L21,36.85v5h2.82V38.65a15.9,15.9,0,0,0,0-28.86Z"/><path class="cls-2" d="M13.3,41.86v-5l-1.63-.75a13.09,13.09,0,0,1,0-23.76l1.63-.75V0H10.49V9.79a15.89,15.89,0,0,0,0,28.86v3.21Z"/><circle class="cls-2" cx="17.16" cy="24.39" r="7.65"/></g></g></svg>