<svg xmlns="http://www.w3.org/2000/svg" viewBox="0 0 57.69 84.59"><defs><style>.cls-1{fill:#dfdfdf;}</style></defs><g id="Layer_2" data-name="Layer 2"><g id="Layer_1-2" data-name="Layer 1"><path class="cls-1" d="M22.25,31.27l3.13,3.18q2.91,2.94,5.83,5.86,3.48,3.48,7,6.94a2.3,2.3,0,0,0,.74.48Q48,51.39,57,55a.82.82,0,0,1,.62.92c0,.6,0,1.21.06,1.81a2.59,2.59,0,0,1-2.19,2.7c-1.19.22-2.38.36-3.57.58a.76.76,0,0,0-.51.43q-1,2.46-1.83,5a.74.74,0,0,0,.12.61c.69.87,1.42,1.7,2.13,2.55a2.64,2.64,0,0,1-.11,3.8l-4,4.23a2.65,2.65,0,0,1-3.83.32l-2.83-2.07s-.07,0-.06.08c-1.71.74-3.43,1.47-5.13,2.23a.67.67,0,0,0-.34.46c-.12,1.12-.2,2.25-.31,3.37a2.56,2.56,0,0,1-2.47,2.37c-2.09.09-4.19.16-6.28.21a2.54,2.54,0,0,1-2.65-2.16c-.19-1-.34-2.06-.47-3.1a.82.82,0,0,0-.66-.77c-1.52-.51-3-1.08-4.52-1.67a.62.62,0,0,0-.79.1c-.72.64-1.47,1.26-2.21,1.88a2.66,2.66,0,0,1-3.89-.11L7.14,74.83a2.63,2.63,0,0,1-.35-3.78c.56-.76,1.12-1.53,1.7-2.27a.65.65,0,0,0,.06-.8q-1.14-2.39-2.2-4.82a.6.6,0,0,0-.59-.45c-1-.06-2-.15-3.07-.25A2.65,2.65,0,0,1,.2,59.83q-.09-3-.2-5.92A2.66,2.66,0,0,1,2.42,51c1-.14,2-.31,2.92-.44a.59.59,0,0,0,.57-.48c.64-1.73,1.33-3.44,2-5.17a.83.83,0,0,0-.1-.67c-.62-.79-1.29-1.54-1.94-2.31a2.64,2.64,0,0,1,.1-3.8c1.32-1.44,2.66-2.86,4-4.28a2.62,2.62,0,0,1,3.74-.34c.86.63,1.72,1.26,2.57,1.91a.66.66,0,0,0,.8.08c1.51-.7,3-1.35,4.58-2,.28-.12.46-.22.46-.58S22.19,32,22.25,31.27Zm6.36,34.87A10.27,10.27,0,1,0,18.34,55.82,10.27,10.27,0,0,0,28.61,66.14Z"/><path class="cls-1" d="M50.37,35.13l-9.76,10L14.94,19.7c3.36-3.37,6.65-6.65,9.88-9.88Z"/><path class="cls-1" d="M12,17c-1.81-1.86-3.73-3.74-5.54-5.74A6.14,6.14,0,0,1,5.31,8.94a7,7,0,0,1,3-7.83,7,7,0,0,1,8.41.62l.44.42L22,7.07Z"/><path class="cls-1" d="M52.68,37.46,57.44,52,43.49,46.86C46.57,43.72,49.58,40.63,52.68,37.46Z"/></g></g></svg>