<svg xmlns="http://www.w3.org/2000/svg" viewBox="0 0 77.64 73.45"><defs><style>.cls-1{fill:#dfdfdf;}.cls-2{fill:#a4a4a4;}</style></defs><g id="Layer_2" data-name="Layer 2"><g id="Layer_1-2" data-name="Layer 1"><polygon class="cls-1" points="45.69 22.68 30.34 22.68 30.34 17.16 32.76 14.41 48.11 19.94 45.69 22.68"/><path class="cls-1" d="M29.45,53.17,14.8,50.43l-2.41,2.74V58.7H30.05C30.55,58,32.47,56,32.47,56S29.45,54.58,29.45,53.17Z"/><path class="cls-1" d="M31.5,43c.07-.18.15-.35.23-.52L15.31,39.77l-2.42,2.75V48H30a30.67,30.67,0,0,1,2.41-2.74S31.09,44,31.5,43Z"/><path class="cls-1" d="M36.9,34.76A25.22,25.22,0,0,1,39.62,32L15.31,30.36l-2.42,2.75v5.52h21C34.82,37.26,36,36.14,36.9,34.76Z"/><path class="cls-1" d="M52.5,2.74H17.34L2.42,0,0,2.74V65.4H0v8H39.27l2.41-2.74s-4-.75-4.36-1.09c-1.78-1.8-3.6-2-4.78-4.22H7.31V25.16h15.1l2.42-2.75L22.41,9.8H52.5V27.25l1.19,0h0a25.37,25.37,0,0,1,7,1l2.41-2.75L60.68,9.8V2.74Z"/><path class="cls-1" d="M75.22,53c.2,10.91-9.16,20.32-20.4,20.17A20.18,20.18,0,1,1,75.22,53ZM51,59.54c0,3.59,0,3.85,0,7.44a2.37,2.37,0,0,0,1.56,1.67c2.29,0,2.67.66,5,.68.44,0,2.54.58,2.54.1,0-7.28-.93-13.57-.91-20.85,0-.47-.15-.56-.59-.56-2.29,0-4.57,0-6.86,0-.62,0-.7.2-.7.75C51,52.35,51,55.94,51,59.54ZM55.16,36a4.85,4.85,0,0,0-4.87,3.43A4.58,4.58,0,0,0,53.55,45a5.07,5.07,0,0,0,6.29-3.09A4.68,4.68,0,0,0,55.16,36Z"/><rect class="cls-2" x="32.75" y="14.41" width="15.35" height="5.52"/><path class="cls-2" d="M31.87,50.43H14.8V56H32.47A25.44,25.44,0,0,1,31.87,50.43Z"/><path class="cls-2" d="M33.92,40.29c.07-.17.15-.34.22-.52H15.31V45.3H32.37A25.94,25.94,0,0,1,33.92,40.29Z"/><path class="cls-2" d="M39.49,32q.9-.88,1.86-1.68h-26v5.53h21A25.92,25.92,0,0,1,39.49,32Z"/><path class="cls-2" d="M54.92,0H2.42V62.66h0v8H41.68a27.45,27.45,0,0,1-2.27-2,26.29,26.29,0,0,1-4.46-6H9.72V22.41H24.83V7.06H54.92V24.5l1.19,0h0a25.68,25.68,0,0,1,7,.95V0Z"/><path class="cls-2" d="M77.63,50.22c.21,10.91-9.16,20.33-20.39,20.17A20.17,20.17,0,1,1,77.63,50.22ZM53.41,56.79c0,3.6,0,7.19,0,10.78,0,.56.15.69.69.69q3.44,0,6.86,0c.45,0,.6-.09.6-.57q0-10.92,0-21.84c0-.48-.15-.57-.59-.56-2.29,0-4.58,0-6.86,0-.62,0-.71.19-.7.74C53.42,49.61,53.41,53.2,53.41,56.79Zm4.17-23.58a4.87,4.87,0,0,0-4.88,3.42A4.59,4.59,0,0,0,56,42.23a5,5,0,0,0,6.28-3.09A4.66,4.66,0,0,0,57.58,33.21Z"/></g></g></svg>