<svg xmlns="http://www.w3.org/2000/svg" viewBox="0 0 81.85 80.41"><defs><style>.cls-1{fill:#dfdfdf;}.cls-2{fill:#a4a4a4;}</style></defs><g id="Layer_2" data-name="Layer 2"><g id="Layer_1-2" data-name="Layer 1"><path class="cls-1" d="M.14,47.4a28.73,28.73,0,0,1,0-5.64c.12-1.39.46-2.75.7-4.12C3.56,21.84,18.24,9.13,34.23,8.79a5.09,5.09,0,0,1,.12.66c.47,10.55,1,21.1,1.34,31.66a11.27,11.27,0,0,0,1.62,6c1.88,3,3.54,6.07,5.29,9.11,3.27,5.7,13.19,17.12,13.19,17.12l-2.06,2.24c-.49.29-.88.54-1.28.76a33.79,33.79,0,0,1-20.94,3.77C17.7,78.09,8,70.5,2.69,57.53A39.74,39.74,0,0,1,.14,47.4Z"/><path class="cls-1" d="M79.79,44.23C73.51,44.08,67.23,44,61,43.78c-6.69-.18-13.38-.41-20.07-.62H39V2.29L41.05,0s5.7,2.81,8.6,3.77c16.94,5.58,26.8,17.28,29.73,34.84.2,1.14,2.47,3.33,2.47,3.33ZM43.28,38.9l31.82,1C73.41,21.82,58.12,8.27,43.28,7Z"/><path class="cls-1" d="M73.31,46.83c.54,9.66-4.93,21.7-14.6,27.88q-8.16-14-16.29-27.88l2.06-2.24S64,46.83,73.31,46.83Z"/><path class="cls-2" d="M2.2,45.15a28.73,28.73,0,0,1,0-5.64c.12-1.38.46-2.75.7-4.12C5.61,19.6,20.3,6.89,36.28,6.55a3.51,3.51,0,0,1,.13.66c.46,10.55,1,21.1,1.34,31.65a11.33,11.33,0,0,0,1.62,6c1.88,3,3.54,6.06,5.29,9.11,3.69,6.43,7.39,12.86,11.13,19.36-.49.29-.88.54-1.28.75a33.72,33.72,0,0,1-20.94,3.77C19.76,75.85,10,68.25,4.75,55.29A39.81,39.81,0,0,1,2.2,45.15Z"/><path class="cls-2" d="M81.85,42c-6.28-.14-12.56-.27-18.84-.44-6.69-.18-13.38-.41-20.07-.62-.52,0-1,0-1.89,0V0A28.78,28.78,0,0,1,51.71,1.56c16.94,5.59,26.8,17.28,29.73,34.85.2,1.14.28,2.3.41,3.46ZM45.34,36.66l31.82,1C75.47,19.58,60.18,6,45.34,4.77Z"/><path class="cls-2" d="M75.37,44.59c.54,9.65-4.93,21.69-14.6,27.88L44.48,44.59Z"/></g></g></svg>