<svg xmlns="http://www.w3.org/2000/svg" viewBox="0 0 58.91 85.81"><defs><style>.cls-1{fill:#dfdfdf;}.cls-2{fill:#a4a4a4;}</style></defs><g id="Layer_2" data-name="Layer 2"><g id="Layer_1-2" data-name="Layer 1"><path class="cls-1" d="M22.25,32.49l1.22-1.22s1.09,3.57,1.91,4.4c1.94,1.95,3.88,3.91,5.83,5.86,2.32,2.31,4.65,4.63,7,6.93a2.17,2.17,0,0,0,.74.49Q48,52.61,57,56.24a.82.82,0,0,1,.62.92c0,.6,1.27.38,1.28,1,0,1.38-2.06,3.29-3.41,3.53-1.19.21-2.39.36-3.57.57a.81.81,0,0,0-.51.43q-1,2.47-1.83,5a.73.73,0,0,0,.12.62c.69.86,1.42,1.7,2.13,2.55a2.64,2.64,0,0,1-.11,3.8l-4,4.23a2.66,2.66,0,0,1-3.84.32l-2.82-2.07s-.07,0-.06.08c-1.71.74-3.43,1.47-5.13,2.23a.65.65,0,0,0-.34.46c-.13,1.12,1,1.28.86,2.41-.13,1.34-2.3,3.26-3.64,3.32-2.09.1-4.19.17-6.28.21a2.52,2.52,0,0,1-2.65-2.15c-.19-1-.34-2.07-.47-3.11a.83.83,0,0,0-.66-.77c-1.52-.51-3-1.07-4.52-1.66a.63.63,0,0,0-.79.09c-.72.65-1.47,1.27-2.21,1.89A2.66,2.66,0,0,1,11.33,80L7.14,76.05a2.63,2.63,0,0,1-.35-3.78c.56-.76,1.12-1.53,1.7-2.28a.63.63,0,0,0,.06-.79q-1.14-2.4-2.2-4.82a.61.61,0,0,0-.6-.46c-1-.05-2-.15-3.07-.24A2.65,2.65,0,0,1,.2,61.05q-.09-3-.2-5.92a4.64,4.64,0,0,1,3.26-4.07c1-.14,1.1.83,2.08.7a.61.61,0,0,0,.57-.48c.64-1.74,1.33-3.45,2-5.18a.8.8,0,0,0-.1-.66c-.62-.79-1.29-1.54-1.94-2.32a2.64,2.64,0,0,1,.09-3.8c1.33-1.43,2.67-2.86,4-4.27a2.6,2.6,0,0,1,3.73-.34c.87.62,1.73,1.26,2.57,1.91a.67.67,0,0,0,.8.08c1.51-.7,3.05-1.35,4.58-2,.29-.13.47-.22.47-.58S22.25,32.49,22.25,32.49Zm6.36,34.87A10.28,10.28,0,1,0,18.34,57,10.27,10.27,0,0,0,28.61,67.36Z"/><path class="cls-1" d="M50.37,36.35l-9.76,10L14.94,20.91,24.82,11Q37.5,23.6,50.37,36.35Z"/><path class="cls-1" d="M12,18.22c-1.81-1.85-3.73-3.74-5.54-5.73a6.18,6.18,0,0,1-1.19-2.34c-.89-3,.89-6.89,3.5-8.55S14.32.9,16.68,3a5.77,5.77,0,0,1,.44.42C18.77,5,20.41,6.67,22,8.29Z"/><path class="cls-1" d="M52.68,38.67c1.2,3.67,6,13.34,6,13.34l-1.22,1.22L43.49,48.08Z"/><path class="cls-2" d="M23.47,31.27c1.13,1.15,2.12,2.17,3.13,3.18q2.91,2.94,5.83,5.86,3.48,3.48,7,6.94a2.46,2.46,0,0,0,.75.48q9,3.66,18.07,7.29a.82.82,0,0,1,.62.92c0,.6,0,1.21.06,1.81a2.59,2.59,0,0,1-2.19,2.7c-1.19.22-2.39.36-3.57.58a.76.76,0,0,0-.51.43q-1,2.46-1.83,5a.71.71,0,0,0,.12.61c.69.87,1.42,1.7,2.13,2.55a2.64,2.64,0,0,1-.11,3.8l-4,4.23a2.66,2.66,0,0,1-3.84.32l-2.82-2.07s-.07,0-.06.08c-1.71.74-3.43,1.47-5.13,2.23a.67.67,0,0,0-.34.46c-.13,1.12-.2,2.25-.31,3.37A2.56,2.56,0,0,1,34,84.38c-2.09.09-4.19.16-6.28.21a2.54,2.54,0,0,1-2.65-2.16c-.19-1-.34-2.06-.47-3.1a.82.82,0,0,0-.66-.77c-1.52-.51-3-1.08-4.52-1.67a.62.62,0,0,0-.79.1c-.72.64-1.47,1.26-2.21,1.88a2.66,2.66,0,0,1-3.89-.11c-1.4-1.31-2.8-2.61-4.19-3.93A2.63,2.63,0,0,1,8,71.05c.56-.76,1.12-1.53,1.7-2.27a.65.65,0,0,0,.06-.8q-1.14-2.39-2.2-4.82a.6.6,0,0,0-.6-.45c-1-.06-2-.15-3.07-.25a2.65,2.65,0,0,1-2.48-2.63q-.09-3-.2-5.92A2.65,2.65,0,0,1,3.64,51c1-.14,1.94-.31,2.92-.44a.6.6,0,0,0,.57-.48c.64-1.73,1.33-3.44,2-5.17a.83.83,0,0,0-.1-.67c-.62-.79-1.29-1.54-1.94-2.31a2.63,2.63,0,0,1,.09-3.8c1.33-1.44,2.67-2.86,4-4.28a2.61,2.61,0,0,1,3.73-.34c.87.63,1.72,1.26,2.57,1.91a.66.66,0,0,0,.8.08c1.51-.7,3.05-1.35,4.58-2,.29-.12.47-.22.47-.58S23.41,32,23.47,31.27Zm6.36,34.87A10.27,10.27,0,1,0,19.56,55.82,10.27,10.27,0,0,0,29.83,66.14Z"/><path class="cls-2" d="M51.59,35.13l-9.76,10L16.16,19.7c3.36-3.37,6.65-6.65,9.88-9.88Z"/><path class="cls-2" d="M13.26,17c-1.81-1.86-3.73-3.74-5.54-5.74A6.14,6.14,0,0,1,6.53,8.94a7,7,0,0,1,3-7.83,7,7,0,0,1,8.41.62l.44.42,4.89,4.92Z"/><path class="cls-2" d="M53.9,37.46,58.66,52,44.71,46.86C47.79,43.72,50.8,40.63,53.9,37.46Z"/></g></g></svg>