<svg xmlns="http://www.w3.org/2000/svg" viewBox="0 0 76.28 80.18"><defs><style>.cls-1{fill:#dfdfdf;}.cls-2{fill:#a4a4a4;}</style></defs><g id="Layer_2" data-name="Layer 2"><g id="Layer_1-2" data-name="Layer 1"><path class="cls-1" d="M9.69,68.83c0,1.06,2,1.14,2,2.2,0,2.49-1.62,3.14-4.16,3.17-1.66,0-3.32,0-5,0-.78,0-1.06-.23-1.06-1q0-9.23,0-18.46c0-.83,1.69-3.81,2.55-3.81,6.15,0,10.85,2.69,17,2.73.36,0,3.07,5.44,3.07,5.44l-2,2.75H15.4a10.4,10.4,0,0,0,.93,1.3c8.56,8.36,18.69,11.09,30,7.29,25.59-7.92,26.37-44.6,1.49-54.22a1.5,1.5,0,0,1-1.12-1.69c.12-2.37.11-7.12.11-7.12l2-2.76c23.77,9.31,34.85,48.64,11.73,67.3C46,84.17,23.14,82.54,10.18,68.68Z"/><path class="cls-1" d="M42.18,18.81c0,4.57,1.9,7.1,2,11.67,0,3.25-1,4.28-4.19,4.27H34.13c-1.43,0-2-.55-2-2q0-13.93,0-27.89c0-1.5,0-4.81,3.57-4.81,2,0,2.43,2.7,4.41,2.72,1.47,0,2,.59,2,2.09Q42.19,11.84,42.18,18.81Z"/><path class="cls-1" d="M25.71,7.72c.45,1.75,3.26,2.21,3.67,3.84.71,2.85-1.73,3.95-4.29,5.23-1.73.86-3.34,2-5,2.89-.33.18-1,.27-1.18.09-1.7-1.78-5.08-5.58-5.08-5.58a15.08,15.08,0,0,1,2-2.75C18.85,9.27,22.06,8.92,25.71,7.72Z"/><path class="cls-1" d="M10.39,17.5c1.68,1.87,3.36,3.71,5,5.6a20.39,20.39,0,0,1-1.58,3.6,24.4,24.4,0,0,1-2.82,4c-.43.54-.66.68-1.25.46Q6.78,30.08,3.8,29c-.57-.2-.93-.42-.6-1.13A37.69,37.69,0,0,1,9.88,17.84,2.91,2.91,0,0,1,10.39,17.5Z"/><path class="cls-1" d="M1.48,33.24l2-2.76s3.13,4.6,4.86,5.28a1.23,1.23,0,0,1,.49,1c-.14,2.58,1.56,2.8,1.34,5.37a15.67,15.67,0,0,1-2.5,3.29c-2.11.36-4.23.63-6.35.93-.79.11-1.22-.15-1.26-1A37,37,0,0,1,1.2,33.7,3,3,0,0,1,1.48,33.24Z"/><path class="cls-2" d="M11.7,66.08c0,1.06,0,2.12,0,3.18,0,2.5.35,2.16-2.19,2.18-1.66,0-3.32,0-5,0-.77,0-1.06-.24-1.05-1q0-9.22,0-18.45c0-.83.24-1.13,1.1-1.13,6.15,0,12.3,0,18.45,0,.35,0,1,.39,1,.62.07,2.45.05,4.92.05,7.58H17.4a13,13,0,0,0,.93,1.3c8.57,8.36,18.7,11.08,30,7.29,25.59-7.93,26.37-44.61,1.49-54.22a1.5,1.5,0,0,1-1.12-1.69c.11-2.38-.1-4.75.11-7.13,27.4,6.15,38.36,44.67,13.74,64.54C48,81.42,25.15,79.78,12.19,65.93Z"/><path class="cls-2" d="M44.18,16.06c0,4.56,0,9.13,0,13.7C44.18,31.52,43.7,32,42,32c-1.94,0-3.89,0-5.83,0-1.42,0-2-.54-2-2q0-14,0-27.9C34.15.61,34.72,0,36.2,0c2,0,4,0,5.94,0,1.47,0,2,.59,2,2.09C44.19,6.76,44.18,11.41,44.18,16.06Z"/><path class="cls-2" d="M27.72,5c.44,1.75.86,3.38,1.26,5,.71,2.85.68,2.79-1.89,4.06-1.72.86-3.33,2-5,2.89-.33.18-1,.28-1.19.09-1.69-1.77-3.31-3.61-5.08-5.57A36.47,36.47,0,0,1,27.72,5Z"/><path class="cls-2" d="M12.39,14.75c1.68,1.86,3.37,3.71,5,5.6.16.18,0,.75-.13,1C15.84,23.59,14.37,25.75,13,28a.87.87,0,0,1-1.26.45c-2-.74-3.94-1.45-5.92-2.15-.57-.21-.93-.43-.61-1.13a37.93,37.93,0,0,1,6.68-10.06A4,4,0,0,1,12.39,14.75Z"/><path class="cls-2" d="M3.48,30.48c2.33.84,4.62,1.64,6.87,2.52a1.27,1.27,0,0,1,.48,1q-.2,3.87-.54,7.73c0,.34-.36.88-.62.93-2.1.36-4.23.62-6.35.93-.78.11-1.22-.15-1.26-1A37.26,37.26,0,0,1,3.21,31,3.11,3.11,0,0,1,3.48,30.48Z"/></g></g></svg>