<svg xmlns="http://www.w3.org/2000/svg" viewBox="0 0 83.19 75.39"><defs><style>.cls-1{fill:#dfdfdf;}.cls-2{fill:#a4a4a4;}</style></defs><g id="Layer_2" data-name="Layer 2"><g id="Layer_1-2" data-name="Layer 1"><path class="cls-1" d="M56.33,53.17a3,3,0,0,1-.62-2.55A20.29,20.29,0,0,0,54.13,37C51,30.64,45.7,26.84,38.46,25.64a2.87,2.87,0,0,1-2-4.69c.79-1,2-3.26,3.21-3.45,4.53-.72,11.25,5.64,15.4,10a25.69,25.69,0,0,1,7.14,20.89c-.1,1.11,1.33.55,1.06,1.65s-2.82,3.72-4.11,4A2.75,2.75,0,0,1,56.33,53.17Z"/><path class="cls-1" d="M35.94,30.23c.79-.55.34,1.16,1.23,1.31A15.08,15.08,0,0,1,46,36.13c3.48,3.74,6.25,6.84,5.33,12-.27,1.47-2.85,3.92-4.2,4.18A2.83,2.83,0,0,1,43.7,49a9.55,9.55,0,0,0-.45-5.66,9.28,9.28,0,0,0-7.46-5.84,2.86,2.86,0,0,1-1.71-4.88C34.25,32.4,35.75,30.41,35.94,30.23Z"/><path class="cls-1" d="M29.93,50c-1.31-1.88.59-6.38,2.62-7.78s6.64,4.6,6.64,4.6a12.48,12.48,0,0,1-3.34,4A4.17,4.17,0,0,1,29.93,50Z"/><path class="cls-1" d="M10.18,26.68c1.94,1.77,3.82,3.49,5.72,5.17a.85.85,0,0,1,.29,1,27,27,0,0,0-.32,10.37A29,29,0,0,0,26.39,61.53a28.66,28.66,0,0,0,13.87,6.21,28.2,28.2,0,0,0,9.39-.08,29.34,29.34,0,0,0,23.9-23.94,27.59,27.59,0,0,0,.11-9.11,29.47,29.47,0,0,0-22.5-24.2,29.87,29.87,0,0,0-7.24-.72c-.45,0-.6-.07-.62-.55-.07-2.07-.17-4.13-.3-6.2C43,2.48,44.36,0,44.78,0c5.06-.13,8.68,3.07,13.38,5a36.68,36.68,0,0,1,21.3,22.59A37.22,37.22,0,0,1,81,34.48a36.36,36.36,0,0,1,.33,5.3,35.28,35.28,0,0,1-1.58,9.55,36.53,36.53,0,0,1-9.63,15.76,35.88,35.88,0,0,1-14.85,8.76,36.28,36.28,0,0,1-11.4,1.53A35.47,35.47,0,0,1,24.23,69,36.12,36.12,0,0,1,9.55,48.54,34.68,34.68,0,0,1,8.29,37.3,48.26,48.26,0,0,1,10.18,26.68Z"/><polygon class="cls-1" points="13.77 30.81 19.95 41.64 24.85 38.84 26.72 36.48 15.82 23.02 1.86 29.69 0 32.06 2.85 37.04 13.77 30.81"/><path class="cls-2" d="M58.19,50.8a3,3,0,0,1-.62-2.55A20.27,20.27,0,0,0,56,34.61c-3.18-6.33-8.42-10.13-15.67-11.33a2.86,2.86,0,0,1-2-4.69,3.11,3.11,0,0,1,3.1-1.29,26.24,26.24,0,0,1,15.51,7.83A25.7,25.7,0,0,1,64.07,46a22.37,22.37,0,0,1-.55,3.34A3.09,3.09,0,0,1,61,51.68,2.75,2.75,0,0,1,58.19,50.8Z"/><path class="cls-2" d="M36.51,29.71A3.28,3.28,0,0,1,39,29.17a15.05,15.05,0,0,1,8.83,4.59,14.9,14.9,0,0,1,3.78,13.43A3.31,3.31,0,0,1,49,50a2.82,2.82,0,0,1-3.44-3.35A9.59,9.59,0,0,0,45.12,41a9.25,9.25,0,0,0-7.46-5.83,2.87,2.87,0,0,1-1.72-4.89A7,7,0,0,1,36.51,29.71Z"/><path class="cls-2" d="M31.79,47.64a4.38,4.38,0,1,1,5.93.84A4.19,4.19,0,0,1,31.79,47.64Z"/><path class="cls-2" d="M12,24.32c2,1.76,3.82,3.48,5.73,5.16a.9.9,0,0,1,.29,1,26.63,26.63,0,0,0-.32,10.37A29,29,0,0,0,28.25,59.16,29.08,29.08,0,0,0,67.68,56.7a28.86,28.86,0,0,0,7.74-15.35,27.58,27.58,0,0,0,.1-9.11A29.41,29.41,0,0,0,53,8.05a29.34,29.34,0,0,0-7.23-.72c-.45,0-.61-.07-.62-.56C45.09,4.71,45,2.64,44.86.58c0-.46.12-.55.54-.56A36.58,36.58,0,0,1,72.27,10.58a36.2,36.2,0,0,1,9.06,14.6,37.2,37.2,0,0,1,1.52,6.94,34.93,34.93,0,0,1,.33,5.3A35,35,0,0,1,81.6,47,36.51,36.51,0,0,1,72,62.73,36.16,36.16,0,0,1,45.73,73a35.47,35.47,0,0,1-19.64-6.34A36.14,36.14,0,0,1,11.42,46.18a34.14,34.14,0,0,1-1.26-11.24A47.66,47.66,0,0,1,12,24.32Z"/><polygon class="cls-2" points="15.63 28.44 21.82 39.27 26.72 36.48 17.68 20.66 1.86 29.69 4.71 34.68 15.63 28.44"/></g></g></svg>