<svg xmlns="http://www.w3.org/2000/svg" viewBox="0 0 74.21 83.48"><defs><style>.cls-1{fill:#dfdfdf;}.cls-2{fill:#a4a4a4;}</style></defs><g id="Layer_2" data-name="Layer 2"><g id="Layer_1-2" data-name="Layer 1"><path class="cls-1" d="M50.38,13c-1.86,1.86-3.67,3.64-5.44,5.47a.88.88,0,0,1-1,.24,26.76,26.76,0,0,0-10.34-.82,29,29,0,0,0-18.83,9.6A29.06,29.06,0,0,0,15.33,67a28.84,28.84,0,0,0,15,8.48,27.8,27.8,0,0,0,9.09.55,29.43,29.43,0,0,0,25.26-21.3,29.71,29.71,0,0,0,1.08-7.19c0-.45,1-3.14,1.51-3.14,2.06,0,3.2,2.57,5.27,2.55.46,0,.55.14.54.56A36.65,36.65,0,0,1,69.75,62,36.71,36.71,0,0,1,46.14,82.15a37.52,37.52,0,0,1-7,1.19,36.24,36.24,0,0,1-5.31.07,35,35,0,0,1-9.46-2A36.45,36.45,0,0,1,9.1,71a36.21,36.21,0,0,1-9-26.73A35.44,35.44,0,0,1,7.4,25,36.11,36.11,0,0,1,28.57,11.3a34.31,34.31,0,0,1,11.29-.71A48.08,48.08,0,0,1,50.38,13Z"/><path class="cls-1" d="M68.1,28.26a2.27,2.27,0,0,1-.17.22l-.3.31Q49.89,46.52,32.15,64.28c-.41.41-.61.5-1.08,0q-7.69-7.76-15.45-15.46c-.35-.35-.46-.52-.27-1,.48-1,1.2-2.22,1.2-2.22s3.88-2.3,4.32-1.85c3.41,3.45,6.85,6.86,10.26,10.3.37.38.55.43,1,0Q47.27,38.9,62.47,23.72c.45-.45.68-.5,1.14,0,1.27,1.34,4.37.7,5.67,2C69.48,25.9,68.1,28.26,68.1,28.26Z"/><polygon class="cls-1" points="46.08 16.37 36.14 19.46 34.96 22.02 37.52 27.05 53.76 18.8 54.94 16.24 45.5 2.56 41.56 2.6 40.38 5.16 46.08 16.37"/><path class="cls-2" d="M51.56,10.43c-1.86,1.86-3.67,3.64-5.44,5.46a.89.89,0,0,1-1,.25,27,27,0,0,0-10.34-.83A29,29,0,0,0,16,24.92a29.06,29.06,0,0,0,.55,39.5,28.84,28.84,0,0,0,15,8.48,27.8,27.8,0,0,0,9.09.55,29.43,29.43,0,0,0,25.26-21.3A29.71,29.71,0,0,0,66.89,45c0-.45.1-.6.58-.6,2.07,0,4.13,0,6.2,0,.46,0,.55.14.54.56A36.69,36.69,0,0,1,62.35,71.25a36.17,36.17,0,0,1-15,8.34,37.52,37.52,0,0,1-7,1.19,37.67,37.67,0,0,1-5.31.07,35,35,0,0,1-9.46-2A36.47,36.47,0,0,1,10.28,68.42a36.21,36.21,0,0,1-9-26.72,35.41,35.41,0,0,1,7.3-19.3A36.06,36.06,0,0,1,29.76,8.74,34.23,34.23,0,0,1,41,8,47.51,47.51,0,0,1,51.56,10.43Z"/><path class="cls-2" d="M69.28,25.7a2.11,2.11,0,0,1-.17.22l-.3.31Q51.07,44,33.33,61.72c-.41.4-.61.5-1.08,0Q24.56,54,16.8,46.29c-.35-.35-.43-.52,0-.91q2.12-2,4.13-4.13c.45-.46.7-.45,1.14,0,3.41,3.44,6.85,6.86,10.26,10.3.37.37.55.42,1,0Q48.45,36.35,63.65,21.15c.45-.44.68-.49,1.14,0,1.27,1.34,2.59,2.62,3.9,3.92Z"/><polygon class="cls-2" points="47.26 13.81 36.14 19.46 38.7 24.49 54.94 16.24 46.68 0 41.56 2.6 47.26 13.81"/></g></g></svg>