<svg xmlns="http://www.w3.org/2000/svg" viewBox="0 0 70.17 81.63"><defs><style>.cls-1{fill:#dfdfdf;}.cls-2{fill:#a4a4a4;}</style></defs><g id="Layer_2" data-name="Layer 2"><g id="Layer_1-2" data-name="Layer 1"><rect class="cls-1" x="17.37" y="30.87" width="4.4" height="0.52"/><rect class="cls-1" x="21.21" y="30.87" width="0.56" height="14.42"/><path class="cls-1" d="M33.34,59,4.51,58.26a1.66,1.66,0,0,0-1.7,1.45v4.57a.68.68,0,0,0,.68.68H5.57v3.31a.68.68,0,0,0,.68.68H30.58c1.47,0,1.83-1,1.83-1.36L31.26,65h2.08c.37,0,1.81.11,1.81-1.28l-1.13-4A.68.68,0,0,0,33.34,59Z"/><path class="cls-1" d="M17.43,76c.24-.11,1.43-.79,1.43-1,0-1.37-1.07-2.33-1.07-3.7,0-.33-.12-.44-.47-.44-1.36,0-1.41-.76-2.76-.76a3,3,0,0,0-1.66,1.14v4.17a.62.62,0,0,0,.35.6A4.66,4.66,0,0,0,17.43,76Z"/><path class="cls-1" d="M18.67,77.14a.8.8,0,0,0-.53,0c-.9.43-3.32-.22-3.32-.22s-.8.54-1.15.76c1.35,1.26,2.59,2.53,4,3.79a2.4,2.4,0,0,0,2.12-.2c.82-.82.74-.77,1.62-1.6.36-.33,1.32-1.55,1.67-1.93A6.87,6.87,0,0,1,18.67,77.14Z"/><path class="cls-1" d="M23.47,70.83c-1.35,0-1.5-.76-2.85-.76a2.72,2.72,0,0,0-1.56,1.14v4.17a.59.59,0,0,0,.35.6,4.66,4.66,0,0,0,4.18,0c.23-.11,1.39-.74,1.39-1,0-1.37-1-2.38-1-3.75C23.94,70.94,23.82,70.83,23.47,70.83Z"/><path class="cls-1" d="M36.83,25c0-2.52-12.54,26.25-15.06,26.25-9.3,0-7.48-31.53-16.78-31.54-2.42,0-5,2.69-5,5.1Q0,38.87,0,52.94a4.31,4.31,0,0,0,4.32,4.32h28c2.5,0,5.08-1.88,5.08-4.38C37.37,43.63,36.82,34.24,36.83,25Z"/><path class="cls-2" d="M34.49,58.26H4.65A.69.69,0,0,0,4,59v4.56a.69.69,0,0,0,.69.69H6.72v3.31a.69.69,0,0,0,.69.68H31.73a.68.68,0,0,0,.68-.68V64.2h2.08a.69.69,0,0,0,.68-.69V59A.69.69,0,0,0,34.49,58.26Z"/><path class="cls-2" d="M18.58,75.22a.6.6,0,0,0,.36-.55V70.5c0-.32-.12-.43-.47-.43h-4s-.41.11-.41.38v4.17a.6.6,0,0,0,.36.6A4.64,4.64,0,0,0,18.58,75.22Z"/><path class="cls-2" d="M19.82,76.37a1,1,0,0,0-.53,0,6.92,6.92,0,0,1-4.47.55c1.35,1.26,2.59,2.52,4,3.78a1.61,1.61,0,0,0,1.71-.16c.82-.82,1.7-1.65,2.59-2.47.35-.33.76-.71,1.12-1.1A6.83,6.83,0,0,1,19.82,76.37Z"/><path class="cls-2" d="M24.62,70.07h-4s-.41.11-.41.38v4.17a.8.8,0,0,0,.35.6,4.66,4.66,0,0,0,4.18,0,.59.59,0,0,0,.35-.55V70.5C25.09,70.18,25,70.07,24.62,70.07Z"/><path class="cls-2" d="M38,24.23a4.56,4.56,0,0,0-4.56-4.56H5.52A4.37,4.37,0,0,0,1.15,24q0,14.07,0,28.14A4.31,4.31,0,0,0,5.47,56.5h28A4.53,4.53,0,0,0,38,52Z"/><rect class="cls-1" x="54.82" y="8.34" width="3.28" height="0.39"/><rect class="cls-1" x="57.69" y="8.34" width="0.42" height="10.74"/><path class="cls-1" d="M66.71,29.31l-21.46-.57A1.23,1.23,0,0,0,44,29.82v3.4a.51.51,0,0,0,.51.51H46v2.46a.5.5,0,0,0,.5.51H64.66c1.1,0,1.36-.73,1.36-1l-.85-2h1.54c.28,0,1.35.08,1.35-1l-.84-3A.51.51,0,0,0,66.71,29.31Z"/><path class="cls-1" d="M54.87,41.94c.18-.08,1.06-.59,1.06-.76,0-1-.8-1.73-.8-2.75,0-.25-.08-.33-.35-.33-1,0-1-.57-2.05-.57a2.21,2.21,0,0,0-1.24.86v3.1a.46.46,0,0,0,.27.45A3.47,3.47,0,0,0,54.87,41.94Z"/><path class="cls-1" d="M55.79,42.8a.53.53,0,0,0-.39,0,5.5,5.5,0,0,1-2.48-.17s-.59.41-.86.57c1,.94,1.93,1.88,3,2.82a1.78,1.78,0,0,0,1.57-.14c.62-.62.56-.58,1.21-1.19.27-.25,1-1.16,1.25-1.45A5.07,5.07,0,0,1,55.79,42.8Z"/><path class="cls-1" d="M59.37,38.1c-1,0-1.12-.57-2.13-.57a2,2,0,0,0-1.16.86v3.1a.45.45,0,0,0,.26.45,3.47,3.47,0,0,0,3.11,0c.18-.08,1-.56,1-.72,0-1-.77-1.77-.77-2.79C59.72,38.18,59.63,38.1,59.37,38.1Z"/><path class="cls-1" d="M69.32,4c0-1.87-9.34,19.55-11.22,19.55C51.18,23.51,52.53,0,45.6,0a4.18,4.18,0,0,0-3.71,3.81v21A3.2,3.2,0,0,0,45.1,28H65.94c1.87,0,3.78-1.4,3.78-3.26C69.72,17.84,69.31,10.85,69.32,4Z"/><path class="cls-2" d="M67.57,28.74H45.35a.51.51,0,0,0-.51.51v3.4a.51.51,0,0,0,.51.51h1.54v2.47a.5.5,0,0,0,.51.5H65.52a.5.5,0,0,0,.5-.5V33.16h1.55a.51.51,0,0,0,.51-.51v-3.4A.51.51,0,0,0,67.57,28.74Z"/><path class="cls-2" d="M55.73,41.37A.46.46,0,0,0,56,41v-3.1c0-.25-.09-.33-.35-.33h-3s-.31.08-.31.29v3.1a.44.44,0,0,0,.27.45A3.47,3.47,0,0,0,55.73,41.37Z"/><path class="cls-2" d="M56.65,42.23a.68.68,0,0,0-.4,0,5.13,5.13,0,0,1-3.33.4c1,.94,1.93,1.88,3,2.82a1.17,1.17,0,0,0,1.27-.12c.62-.61,1.28-1.23,1.93-1.84.27-.24.57-.53.84-.81A5.14,5.14,0,0,1,56.65,42.23Z"/><path class="cls-2" d="M60.22,37.53h-3s-.3.08-.3.29v3.1a.55.55,0,0,0,.26.45,3.47,3.47,0,0,0,3.11,0,.45.45,0,0,0,.27-.41v-3.1C60.58,37.61,60.49,37.53,60.22,37.53Z"/><path class="cls-2" d="M70.17,3.4A3.4,3.4,0,0,0,66.78,0H46a3.25,3.25,0,0,0-3.25,3.26v21A3.2,3.2,0,0,0,46,27.43H66.8a3.37,3.37,0,0,0,3.37-3.38Z"/><path class="cls-1" d="M55.73,54.1l-3.66,7.36a1,1,0,0,0,1,1.38l2.59-.13c-.71,2.78-2.14,5.91-5.67,7.22-11.4,4.22-14.77-3.06-14.77-3.06,2.48,4.54,9.68,8.75,16.13,5.64a12.51,12.51,0,0,0,7.14-10l2.87-.14A.94.94,0,0,0,62.07,61l-4.2-7.48S56.06,53.43,55.73,54.1Z"/><path class="cls-1" d="M20.73,17.11l2.77-5.5a.79.79,0,0,0-.73-1.15L21.09,9.38c.66-2.23,2.28-4,5.07-5.17,9.11-4,13,2.87,13,2.87C36.73,2,29.89,0,24.58,2.34a10.84,10.84,0,0,0-6.2,8.18l-2.32,0a.76.76,0,0,0-.66,1.16l3.52,5.75C19.24,18,20.73,17.11,20.73,17.11Z"/><path class="cls-2" d="M21,16.82,24.19,11a.78.78,0,0,0-.73-1.14l-2.1,0a8.44,8.44,0,0,1,4.8-5.66c9.11-4,13,2.87,13,2.87a10.79,10.79,0,0,0-14-5A10.1,10.1,0,0,0,19.07,9.9l-2.32,0a.76.76,0,0,0-.66,1.16l3.52,5.76A.82.82,0,0,0,21,16.82Z"/><path class="cls-2" d="M57.16,54,53.5,61.36a1,1,0,0,0,1,1.38L57,62.61a10.48,10.48,0,0,1-5.67,7.22c-11.07,5.33-16.2-3-16.2-3a13.35,13.35,0,0,0,17.56,5.54,12.51,12.51,0,0,0,7.14-9.94l2.87-.15a.94.94,0,0,0,.76-1.46l-4.62-7A1,1,0,0,0,57.16,54Z"/></g></g></svg>