<svg xmlns="http://www.w3.org/2000/svg" viewBox="0 0 93.51 88.74"><defs><style>.cls-1{fill:#a4a4a4;}.cls-2{fill:#dfdfdf;}</style></defs><g id="Layer_2" data-name="Layer 2"><g id="Layer_1-2" data-name="Layer 1"><path class="cls-1" d="M59.7,48.63c3.73,3.26-4.1,9.16-9.16,9.16a9.16,9.16,0,0,1-9.16-9.16c0-5.06,4.78-8.68,8.51-9.8C54.74,37.37,55.89,45.3,59.7,48.63Z"/><path class="cls-1" d="M48.79,67a1.86,1.86,0,0,1-.12-.38A1.84,1.84,0,0,0,46.9,65c-.33,0-.65-.16-1-.24-.49-.12-.35.36-.71.69s-.75.77-1.06,1.14c-.59.7-1.69.46-2.5,0-.48-.25-.95-.53-1.42-.79a1.07,1.07,0,0,1-.56-1.23c.13-.7.3-1.38.46-2.07a1.06,1.06,0,0,0-.32-1.08c-.43-.37-.85-.77-1.26-1.18a1.13,1.13,0,0,0-1.22-.32c-.55.18-1.1.32-1.66.47a1.29,1.29,0,0,1-1.75-.74c-.26-.45-.55-.88-.84-1.32a1.18,1.18,0,0,1,.2-1.49,15.06,15.06,0,0,1,1.25-1.4,1.11,1.11,0,0,0,.3-1.18c-.15-.58-.34-1.15-.51-1.73-.22-.78-.93-.82-1.53-1-.39-.13-.79-.19-1.19-.29a1.21,1.21,0,0,1-.94-1.27c0-.61-.13-1.21-.06-1.83A1.44,1.44,0,0,1,31.49,47c.69-.37.84-.54,1.58-.89.32-.15,1.22-.36,1.19-.6a4.55,4.55,0,0,1,.31-1.68,1.11,1.11,0,0,0-.37-1.11c-.45-.47-.88-1-1.37-1.39a1.08,1.08,0,0,1-.27-1.49c.31-.6.64-1.19,1-1.77A3.66,3.66,0,0,1,35,36.68c.93-.46,1.26,0,1.91.09.49.1.64,1.25,1,.86s.8-.81,1.16-1.26a1.28,1.28,0,0,0,.24-1.21c-.17-.59-.32-1.2-.52-1.78a1.21,1.21,0,0,1,.61-1.51c.48-.31,1-.57,1.46-.91s2-1.43,2.65-1.08c.41.43-.08,2.35.41,2.7a1.28,1.28,0,0,0,1.21.19,11.88,11.88,0,0,1,1.29-.38,1.34,1.34,0,0,0,1-1c.19-.6.35-1.22.48-1.84a1.13,1.13,0,0,1,1-.95,11.6,11.6,0,0,1,2.28-.07c.41,0,.66.33.79.69a10.53,10.53,0,0,1,.47,1.44A1.79,1.79,0,0,0,54,32.22c.8.11,1.6.64,2.36-.06a11.28,11.28,0,0,0,1-1c.65-.8,1.54-2.25,3.32-1.64,1.37.54-.31,1.63.12,1.88a1.42,1.42,0,0,1,.54,1.73c-.12.43-.24.86-.32,1.3A1.42,1.42,0,0,0,61.43,36c.47.34.81.82,1.28,1.16a1.07,1.07,0,0,0,1,.17c.61-.17,1.21-.36,1.83-.51a1.19,1.19,0,0,1,1.33.43A9.44,9.44,0,0,1,68,39.09a1.19,1.19,0,0,1-.29,1.43c-.46.48-.89,1-1.31,1.5a1,1,0,0,0-.18,1.06,4.62,4.62,0,0,1,.31,1c.13,1.1.86,1.47,1.81,1.65a11,11,0,0,1,1.13.28,1.37,1.37,0,0,1,1,1.59c0,.4,1.71.17,1.75.57.12,1.5-2,1.88-2.73,2.1-.46.15-.91.32-1.38.43a1.49,1.49,0,0,0-1.28,1.34,8,8,0,0,1-.25,1.08,1.61,1.61,0,0,0,.54,1.7c.3.31.6.62.92.9.68.61.79.94.42,1.75-.29.64,3.37-3.11,0,2.21-.24.28-1.54,0-1.93-.07-.69-.13-1.38-.26-2.06-.43a1.34,1.34,0,0,0-1.32.4c-.43.45-.82.91-1.24,1.36-.26.27-.17.6-.11.9.11.61.27,1.21.42,1.81.24,1,.52,1.23-.37,1.7a10.13,10.13,0,0,0-1.59.86,1,1,0,0,1-1.34,0,12.07,12.07,0,0,1-1.42-1.26,1.43,1.43,0,0,0-1.65-.41,3.34,3.34,0,0,1-.8.24c-1,.09.15.82,0,1.67a14.66,14.66,0,0,1-.55,1.66c-.14.39-2.13.53-2.13.53s-1.63,0-2.44.15a.7.7,0,0,1-.71-.52c-.11-.41-.26-.82-.39-1.23Zm5.59-6.73A12.3,12.3,0,1,0,39,52.58,12.19,12.19,0,0,0,54.38,60.29Z"/><path class="cls-1" d="M11.48,33.77c2.2,2,4.32,3.93,6.47,5.83a1,1,0,0,1,.32,1.1,30.53,30.53,0,0,0-.36,11.7A32.64,32.64,0,0,0,29.78,73.09a32.79,32.79,0,0,0,44.49-2.78A32.47,32.47,0,0,0,83,53a31.18,31.18,0,0,0,.12-10.29,33.22,33.22,0,0,0-25.39-27.3,34,34,0,0,0-8.16-.82c-.51,0-.69-.08-.71-.62q-.12-3.49-.34-7c0-.52.13-.62.61-.63A41.26,41.26,0,0,1,65.64,9.24a41.45,41.45,0,0,1,24,25.5,41.79,41.79,0,0,1,1.73,7.83,41.48,41.48,0,0,1,.37,6A39.56,39.56,0,0,1,90,59.33,41.11,41.11,0,0,1,79.12,77.11,40.83,40.83,0,0,1,49.5,88.72a39.94,39.94,0,0,1-22.16-7.16A40.77,40.77,0,0,1,10.78,58.44,38.87,38.87,0,0,1,9.36,45.75,54.11,54.11,0,0,1,11.48,33.77Z"/><polygon class="cls-1" points="15.54 38.43 22.52 50.65 28.05 47.49 17.85 29.64 0 39.84 3.21 45.46 15.54 38.43"/><path class="cls-1" d="M53,18.49v15c0,1.92-.29,2.44-1.33,2.45s-2.32,0-3.48,0c-.85,0-1.18-.6-1.18-2.17q0-15.24,0-30.48A2.62,2.62,0,0,1,48.23,1L49.3.21S53,1.62,53,3.26Z"/><circle class="cls-2" cx="52.27" cy="47.68" r="9.16"/><path class="cls-2" d="M50.52,66.06a2.29,2.29,0,0,1-.12-.37A1.85,1.85,0,0,0,48.63,64a8,8,0,0,1-1-.23,1.3,1.3,0,0,0-1.27.41,12.29,12.29,0,0,0-1,1,1.43,1.43,0,0,1-2,.39L42,64.82a1.08,1.08,0,0,1-.56-1.24c.13-.69.3-1.38.46-2.07a1,1,0,0,0-.31-1.07c-.44-.38-.86-.78-1.27-1.18a1.13,1.13,0,0,0-1.22-.33c-.54.18-1.1.32-1.66.48a1.3,1.3,0,0,1-1.75-.74c-.25-.46-.55-.89-.84-1.33a1.17,1.17,0,0,1,.2-1.48,16.78,16.78,0,0,1,1.25-1.41,1.09,1.09,0,0,0,.3-1.17c-.15-.58-.34-1.15-.5-1.73-.23-.79-.94-.82-1.54-1-.39-.12-.79-.19-1.18-.29a1.2,1.2,0,0,1-1-1.27c0-.61-.13-1.2-.06-1.82A1.25,1.25,0,0,1,33.22,46c.77-.28,1.57-.46,2.31-.8a.73.73,0,0,0,.46-.69,4.73,4.73,0,0,1,.31-1.68,1.13,1.13,0,0,0-.37-1.12c-.45-.46-.88-1-1.37-1.38a1.09,1.09,0,0,1-.27-1.5c.31-.6.64-1.18,1-1.76a.9.9,0,0,1,1.14-.44c.64.18,1.29.31,2,.44a1.26,1.26,0,0,0,1.27-.39c.36-.45.81-.82,1.16-1.26A1.29,1.29,0,0,0,41,34.21c-.17-.6-.32-1.2-.52-1.78a1.22,1.22,0,0,1,.61-1.52c.48-.31,1-.57,1.46-.91s1.14-.18,1.73.44a9.28,9.28,0,0,0,1.33,1.18,1.31,1.31,0,0,0,1.22.2,11.13,11.13,0,0,1,1.28-.39,1.31,1.31,0,0,0,1-1,16.41,16.41,0,0,0,.48-1.83,1.12,1.12,0,0,1,1-.95,12.43,12.43,0,0,1,2.28-.08c.41,0,.66.33.8.7a14.24,14.24,0,0,1,.47,1.44,1.77,1.77,0,0,0,1.62,1.56c.81.12,1.6.65,2.36-.06a9.07,9.07,0,0,0,1-1,1.45,1.45,0,0,1,2.12-.47c.45.23.89.46,1.32.71A1.44,1.44,0,0,1,63,32.18c-.12.43-.24.86-.32,1.29a1.44,1.44,0,0,0,.44,1.58c.47.34.81.82,1.28,1.16a1.13,1.13,0,0,0,1,.17c.61-.18,1.21-.36,1.83-.51a1.2,1.2,0,0,1,1.33.42,9.74,9.74,0,0,1,1.08,1.84,1.18,1.18,0,0,1-.29,1.43c-.46.49-.89,1-1.31,1.51a1,1,0,0,0-.18,1,4.78,4.78,0,0,1,.31,1c.13,1.11.87,1.48,1.81,1.66a9,9,0,0,1,1.14.28,1.37,1.37,0,0,1,1,1.59,6.53,6.53,0,0,0,0,1.17,1.37,1.37,0,0,1-1,1.5c-.46.14-.92.32-1.39.43a1.49,1.49,0,0,0-1.28,1.33,7.84,7.84,0,0,1-.25,1.09,1.61,1.61,0,0,0,.54,1.7c.3.31.6.62.92.9.68.61.79.94.43,1.74a8.25,8.25,0,0,1-1,1.83.82.82,0,0,1-.88.32c-.68-.14-1.37-.26-2.06-.43a1.32,1.32,0,0,0-1.32.4c-.42.44-.82.9-1.24,1.35a.93.93,0,0,0-.11.91c.11.6.27,1.2.42,1.8.24,1,.07,1.4-.82,1.87a5.1,5.1,0,0,0-1.14.69,1,1,0,0,1-1.34,0A11.15,11.15,0,0,1,59.26,64a1.45,1.45,0,0,0-1.66-.42,2.94,2.94,0,0,1-.8.24c-1,.1-1.34.8-1.54,1.65A13.79,13.79,0,0,1,54.84,67a1,1,0,0,1-.77.65,18,18,0,0,1-2.44.15.66.66,0,0,1-.7-.51c-.12-.42-.27-.82-.4-1.23Zm5.6-6.73a12.3,12.3,0,1,0-15.35-7.71A12.19,12.19,0,0,0,56.12,59.33Z"/><path class="cls-2" d="M13.21,32.82c2.2,2,4.32,3.93,6.47,5.82A1,1,0,0,1,20,39.75a30.28,30.28,0,0,0-.35,11.69A33.17,33.17,0,0,0,47.16,79.15a31.7,31.7,0,0,0,10.6-.09,33.11,33.11,0,0,0,27-27,31.12,31.12,0,0,0,.12-10.28A33.24,33.24,0,0,0,59.46,14.45a33.45,33.45,0,0,0-8.16-.81c-.51,0-.69-.08-.7-.62-.09-2.33-.2-4.67-.35-7,0-.52.13-.62.61-.63A41.31,41.31,0,0,1,81.19,17.31,41,41,0,0,1,91.41,33.79a42.47,42.47,0,0,1,1.72,7.82,41.62,41.62,0,0,1,.37,6,39.62,39.62,0,0,1-1.79,10.78A41.25,41.25,0,0,1,80.86,76.16,40.66,40.66,0,0,1,64.1,86.05a41.18,41.18,0,0,1-12.87,1.72A40,40,0,0,1,29.07,80.6,40.73,40.73,0,0,1,12.51,57.48,38.78,38.78,0,0,1,11.09,44.8,54,54,0,0,1,13.21,32.82Z"/><polygon class="cls-2" points="17.27 37.47 24.25 49.69 29.78 46.54 19.58 28.69 1.73 38.88 4.95 44.51 17.27 37.47"/><path class="cls-2" d="M54.73,17.54v15c0,1.92-.29,2.44-1.33,2.44s-2.32,0-3.48,0c-.85,0-1.18-.6-1.18-2.18q0-15.24,0-30.47C48.74.66,49.08,0,50,0c1.18,0,2.37,0,3.55,0,.88,0,1.21.64,1.22,2.28Z"/></g></g></svg>