<svg xmlns="http://www.w3.org/2000/svg" viewBox="0 0 31.79 54.6"><defs><style>.cls-1{fill:#a4a4a4;}.cls-2{fill:#dfdfdf;}</style></defs><g id="Layer_2" data-name="Layer 2"><g id="Layer_1-2" data-name="Layer 1"><path class="cls-1" d="M11.89,18.64s0,1,0,1.54h1.7l1.1-1.13L13,17.51Z"/><path class="cls-1" d="M13.58,23.27l1.11-1.13L13,20.65l-1.1,1.13v1.49Z"/><path class="cls-1" d="M13,14.42l-1.1,1.13V17h1.7l1.1-1.13s-1.1-.1-1.07-.36C13.28,15.55,13,14.42,13,14.42Z"/><path class="cls-1" d="M13.57,26.36l1.1-1.13s-1.09-.17-1.09-.37c-.33,0-.57-1.13-.57-1.13L11.9,24.87s0,1,0,1.49h1.66Z"/><path class="cls-1" d="M30.18,25.61,29,24.42a1.74,1.74,0,0,0-2.46,0l-11,11a.31.31,0,0,1-.44,0l-11-11a1.73,1.73,0,0,0-2.45,0L.51,25.61a1.74,1.74,0,0,0,0,2.46l11,11a.31.31,0,0,1,0,.44l-11,11a1.74,1.74,0,0,0,0,2.46L1.7,54.09a1.73,1.73,0,0,0,2.45,0l11-11a.31.31,0,0,1,.44,0l11,11a1.74,1.74,0,0,0,2.46,0l1.18-1.18a1.74,1.74,0,0,0,0-2.46l-11-11a.31.31,0,0,1,0-.44l11-11A1.74,1.74,0,0,0,30.18,25.61Z"/><path class="cls-1" d="M7.29,33.82,8.51,35a8.67,8.67,0,0,1,2.86-2.24l-1.26-1.26A10.5,10.5,0,0,0,7.29,33.82Z"/><path class="cls-1" d="M22.39,35l1.22-1.21a10.75,10.75,0,0,0-2.86-2.25l-1.27,1.26A9,9,0,0,1,22.39,35Z"/><path class="cls-1" d="M5.16,44.22c0,.17.12.34.18.51L7.8,42.24c0-.21-1.2.72-1.24.51-.42-2.3-.17-7,.89-8.82l-1.1,1.13A10.63,10.63,0,0,0,5.16,44.22Z"/><path class="cls-1" d="M12.92,32.16c.55-.27,1.74-1.08,1.72-1.79,0-.95-1.62-3.54-1.62-3.54L11.91,28s0,.82,0,1.24a2,2,0,0,1-.45,1.51Z"/><path class="cls-1" d="M14.27,14h.06a1.56,1.56,0,0,1,1.18-.5c1.18,0,1.85,1.44,1.85,3.09,0,3.66,0,10.68,0,14.34,0,.64.12,1,.59,1.24l1.45-1.45A1.76,1.76,0,0,1,19,29.37c.06-4.05,0-8.11,0-12.16h0c0-4.18,0-8.36,0-12.54C19,2.48,18.56,0,16.4,0,13,0,12.08,2.52,11.92,4.68h2.34c.6,0,1,.33,1,.78s-.36.78-1,.8S13,5.15,13,5.15L11.9,6.28V7.77h2.37c.59,0,1,.35,1,.8s-.39.77-1,.78S13,8.24,13,8.24L11.9,9.37s0,1,0,1.49h2.37c.6,0,1,.33,1,.78s-.36.78-1,.8S13,11.33,13,11.33l-1.11,1.13V14Z"/><path class="cls-1" d="M7.3,45,6,46.2A11.3,11.3,0,0,0,8.32,49L9.56,47.8A8.92,8.92,0,0,1,7.3,45Z"/><path class="cls-1" d="M22.42,48.9c-1.3.77-5.15,1.1-6.78,1.13a9.53,9.53,0,0,1-5-1.18L9.55,50a10.67,10.67,0,0,0,7.84,1.63A10.87,10.87,0,0,0,21.32,50Z"/><path class="cls-1" d="M24.42,35.09l-1.1,1.13a8.54,8.54,0,0,1,1.21,5.44,10.85,10.85,0,0,1-.36,1.75l1.44,1.44,1.1-1.14S26.44,36.92,24.42,35.09Z"/><path class="cls-1" d="M24.89,46.31,23.56,45a8.88,8.88,0,0,1-2.21,2.9l1.21,1.21A11.06,11.06,0,0,0,24.89,46.31Z"/><path class="cls-2" d="M13,17.51v1.54c.57,0,1.13,0,1.7,0V17.51Z"/><path class="cls-2" d="M14.69,22.14V20.65H13v1.49Z"/><path class="cls-2" d="M13.69,14.41H13v1.49h1.7c0-.26,0-.49,0-.68a4.41,4.41,0,0,1,.05-.82Z"/><path class="cls-2" d="M14.67,25.23c0-.33,0-.65,0-1v-.53H13v1.5h1.66Z"/><path class="cls-2" d="M31.29,24.48,30.1,23.29a1.74,1.74,0,0,0-2.46,0l-11,11a.31.31,0,0,1-.44,0l-11-11a1.74,1.74,0,0,0-2.46,0L1.61,24.48a1.73,1.73,0,0,0,0,2.45l11,11a.3.3,0,0,1,0,.44l-11,11a1.74,1.74,0,0,0,0,2.46L2.8,53a1.74,1.74,0,0,0,2.46,0l11-11a.31.31,0,0,1,.44,0l11,11a1.74,1.74,0,0,0,2.46,0l1.19-1.18a1.76,1.76,0,0,0,0-2.46l-11-11a.31.31,0,0,1,0-.44l11-11A1.74,1.74,0,0,0,31.29,24.48Z"/><path class="cls-2" d="M8.39,32.68,9.61,33.9a8.64,8.64,0,0,1,2.86-2.24L11.22,30.4A10.71,10.71,0,0,0,8.39,32.68Z"/><path class="cls-2" d="M23.5,33.83l1.21-1.21a10.75,10.75,0,0,0-2.86-2.25l-1.26,1.26A9.24,9.24,0,0,1,23.5,33.83Z"/><path class="cls-2" d="M6.26,43.09l.18.51L7.8,42.24c0-.21-.1-.41-.14-.62a9.51,9.51,0,0,1,1.05-6.43L7.45,33.93A10.66,10.66,0,0,0,6.26,43.09Z"/><path class="cls-2" d="M14,31c.54-.27.69-.64.67-1.35,0-.95,0-1.9,0-2.85H13v1.24a2,2,0,0,1-.44,1.51Z"/><path class="cls-2" d="M15.38,12.83h0a1.56,1.56,0,0,1,1.18-.5c1.18,0,1.85,1.44,1.85,3.09,0,3.66,0,10.68,0,14.34,0,.64.12,1,.59,1.24l1.45-1.45a1.77,1.77,0,0,1-.38-1.32c.06-4.05,0-8.1,0-12.15h0c0-4.18,0-8.36,0-12.54A3.41,3.41,0,0,0,16.4,0C14.46.06,13.19,1.39,13,3.55h2.35c.59,0,1,.34,1,.79s-.36.78-1,.8-1.1,0-1.65,0H13V6.64h2.38c.59,0,1,.35,1,.8s-.38.77-1,.78H13V9.73h2.37c.59,0,1,.34,1,.79s-.36.78-1,.8-1.1,0-1.65,0H13v1.49Z"/><path class="cls-2" d="M8.4,43.82,7.15,45.07A11,11,0,0,0,9.43,47.9l1.23-1.23A9.32,9.32,0,0,1,8.4,43.82Z"/><path class="cls-2" d="M21.19,47.66a9,9,0,0,1-9.26-.08l-1.27,1.27a10.64,10.64,0,0,0,7.83,1.63,10.8,10.8,0,0,0,3.93-1.58Z"/><path class="cls-2" d="M25.66,33.85l-1.24,1.24a8.61,8.61,0,0,1,1.22,5.44,10.86,10.86,0,0,1-.37,1.75l1.44,1.43a9.66,9.66,0,0,0,.59-2.2A11.1,11.1,0,0,0,25.66,33.85Z"/><path class="cls-2" d="M26,45.18l-1.33-1.33a8.88,8.88,0,0,1-2.21,2.9L23.66,48A11.06,11.06,0,0,0,26,45.18Z"/></g></g></svg>