<svg xmlns="http://www.w3.org/2000/svg" viewBox="0 0 50.82 87.83"><defs><style>.cls-1{fill:#dfdfdf;}.cls-2{fill:#a4a4a4;}</style></defs><g id="Layer_2" data-name="Layer 2"><g id="Layer_1-2" data-name="Layer 1"><path class="cls-1" d="M24.57,28.92c0,6.9.07,13.81,0,20.71a2.84,2.84,0,0,0,1.93,3.11A18.24,18.24,0,0,1,36.78,72.26c-1.05,7.43-7.38,13.89-15,15.28A18.57,18.57,0,0,1,.93,75,18.23,18.23,0,0,1,10.39,52.8c1.74-.82,2.06-1.76,2.06-3.46q-.09-20.49,0-41c0-4.15,4-8.24,7.57-8.34s4.52,3.79,4.55,7.53c.06,7.12,0,14.24,0,21.37Zm-9.3,13.93c0,3.08-.08,6.17,0,9.25,0,1.47-1,1.11-2.53,1.6C5.43,56.09,1.88,64.61,3.31,72.44,4.6,79.5,11.44,85,18.78,84.84,26.67,84.69,32.88,79,34,70.58A15.14,15.14,0,0,0,23.46,54.65a2.09,2.09,0,0,1-1.76-2.43c.06-6.23,0-12.47,0-18.71,0-2.82-1.15-4.41-3.16-4.45s-3.29,1.59-3.3,4.54Z"/><path class="cls-1" d="M39.37,16.43c-1.91,0-3.81,0-5.71,0-2.25-.06-3.68-1.26-3.61-2.93s3.18-4.23,5.33-4.26c3.88,0,6,1.45,9.86,1.5,2.12,0,5.56.08,5.58,1.7s-3.38,3.91-5.53,4C43.32,16.49,41.34,16.43,39.37,16.43Z"/><path class="cls-2" d="M26.64,27.41c0,6.9.06,13.8-.05,20.71a2.86,2.86,0,0,0,1.93,3.11A18.23,18.23,0,0,1,38.84,70.75c-1,7.43-7.38,13.88-15,15.27A18.57,18.57,0,0,1,3,73.43a18.24,18.24,0,0,1,9.47-22.14c1.74-.82,2.06-1.76,2-3.46-.06-13.66,0-27.32,0-41C14.49,2.7,16.73.11,20.28,0a5.81,5.81,0,0,1,6.33,6c.06,7.12,0,14.24,0,21.37Zm-9.3,13.93c0,3.08-.08,6.17,0,9.25.06,1.47-.33,2.08-1.84,2.57C8.17,55.55,4,63.1,5.38,70.93,6.67,78,13.5,83.46,20.85,83.33,28.73,83.18,35,77.53,36,69.07A15.13,15.13,0,0,0,25.52,53.14a2.1,2.1,0,0,1-1.76-2.43c.07-6.23,0-12.47,0-18.71,0-2.82-1.14-4.41-3.15-4.45s-3.29,1.59-3.3,4.54S17.34,38.26,17.34,41.34Z"/><path class="cls-2" d="M41.43,14.92c-1.9,0-3.8,0-5.7,0-2.25-.06-3.68-1.26-3.62-2.93s1.42-2.73,3.57-2.76c3.88,0,7.75-.05,11.63,0,2.12,0,3.49,1.2,3.51,2.82s-1.32,2.79-3.46,2.87C45.38,15,43.41,14.92,41.43,14.92Z"/><path class="cls-1" d="M39.37,30.15c-1.91,0-3.81,0-5.71,0-2.25-.07-3.68-1.26-3.61-2.93s3.18-4.24,5.33-4.27c3.88,0,6,1.46,9.86,1.5,2.12,0,5.56.08,5.58,1.7s-3.38,3.91-5.53,4C43.32,30.2,41.34,30.14,39.37,30.15Z"/><path class="cls-2" d="M41.43,28.63c-1.9,0-3.8.05-5.7,0-2.25-.06-3.68-1.26-3.62-2.93s1.42-2.73,3.57-2.76c3.88,0,7.75-.05,11.63,0,2.12,0,3.49,1.2,3.51,2.82s-1.32,2.79-3.46,2.87C45.38,28.69,43.41,28.63,41.43,28.63Z"/><path class="cls-1" d="M39.37,43.9c-1.91,0-3.81,0-5.71,0C31.41,43.83,30,42.63,30.05,41s3.18-4.23,5.33-4.26c3.88,0,6,1.45,9.86,1.5,2.12,0,5.56.08,5.58,1.7s-3.38,3.91-5.53,4C43.32,44,41.34,43.9,39.37,43.9Z"/><path class="cls-2" d="M41.43,42.39c-1.9,0-3.8,0-5.7,0-2.25-.06-3.68-1.26-3.62-2.93s1.42-2.73,3.57-2.76c3.88,0,7.75,0,11.63,0,2.12,0,3.49,1.2,3.51,2.82s-1.32,2.79-3.46,2.87C45.38,42.45,43.41,42.39,41.43,42.39Z"/></g></g></svg>