<svg xmlns="http://www.w3.org/2000/svg" viewBox="0 0 79.55 71.4"><defs><style>.cls-1{fill:#dfdfdf;}.cls-2{fill:#a4a4a4;}</style></defs><g id="Layer_2" data-name="Layer 2"><g id="Layer_1-2" data-name="Layer 1"><path class="cls-1" d="M63,71.4H13.38a15.75,15.75,0,0,1-7.87-2.13A11,11,0,0,1,0,58.43a16.79,16.79,0,0,1,2.39-7.21Q14.49,30.31,26.58,9.4a16.53,16.53,0,0,1,5.6-6A11.3,11.3,0,0,1,45.71,4.49,17.94,17.94,0,0,1,49.8,9.41q12.12,21,24.2,41.92a17.66,17.66,0,0,1,2.26,6.33,11.33,11.33,0,0,1-7.09,12.48A17.7,17.7,0,0,1,63,71.4Zm-25.19-7h14c3.54,0,7.09,0,10.64,0a10.36,10.36,0,0,0,4.25-.83,4.31,4.31,0,0,0,2.68-5,12,12,0,0,0-1.63-4.29L53.51,29.78q-4.89-8.46-9.79-16.93A10.31,10.31,0,0,0,41,9.66a4.28,4.28,0,0,0-5.59,0,11.55,11.55,0,0,0-3,3.63L8.65,54.4A14.09,14.09,0,0,0,7.42,57,6.94,6.94,0,0,0,7,60.26a4.28,4.28,0,0,0,3.06,3.49,11.79,11.79,0,0,0,4.32.69Z"/><path class="cls-1" d="M40.74,37.18c-.14,4.18,2.81,7,2.68,11.14,0,.31-3.2,1.78-3.5,1.78-1.54,0-3.09,0-4.63,0-.37,0-.42-.12-.43-.43-.08-2.62-.17-5.25-.26-7.87q-.23-6.52-.44-13c0-1.41-.08-2.81-.14-4.21a16.33,16.33,0,0,1,3.43-1.91c2.19,0,1.22,1.65,3.4,1.64.27,0,.32.08.31.33q-.1,3-.19,5.91-.12,3.33-.23,6.66Z"/><path class="cls-1" d="M33.55,56.76c0-2.18,4.48-5.47,6.51-5.84,2.21-.41,1.16,2.74,1.48,5,.21,1.51,2.63,1.61,1.48,2.68s-5.42,2.65-7,2.05a3.8,3.8,0,0,1-2.45-3.36C33.56,57.09,33.56,56.9,33.55,56.76Z"/><path class="cls-2" d="M66.14,69.75H16.53a15.81,15.81,0,0,1-7.87-2.12A11,11,0,0,1,3.19,56.78a16.82,16.82,0,0,1,2.38-7.21Q17.65,28.66,29.72,7.76a16.56,16.56,0,0,1,5.61-6A11.27,11.27,0,0,1,48.86,2.85,17.89,17.89,0,0,1,53,7.76q12.11,21,24.2,41.92A17.66,17.66,0,0,1,79.41,56a11.33,11.33,0,0,1-7.09,12.48A17.7,17.7,0,0,1,66.14,69.75ZM41,62.79H54.9c3.55,0,7.1,0,10.65,0A10.32,10.32,0,0,0,69.79,62,4.3,4.3,0,0,0,72.48,57a12.2,12.2,0,0,0-1.63-4.3L56.65,28.13,46.87,11.2A10.43,10.43,0,0,0,44.11,8a4.29,4.29,0,0,0-5.59,0,11.76,11.76,0,0,0-3,3.64Q23.66,32.22,11.79,52.75a15.38,15.38,0,0,0-1.22,2.64,6.94,6.94,0,0,0-.39,3.22,4.28,4.28,0,0,0,3.06,3.49,11.55,11.55,0,0,0,4.32.69Z"/><path class="cls-2" d="M43.89,35.54c-.14,4.18-.29,8.36-.42,12.54,0,.31-.1.37-.4.37-1.54,0-3.09,0-4.64,0-.36,0-.42-.13-.43-.44-.07-2.62-.16-5.24-.25-7.87q-.22-6.51-.44-13c-.05-1.4-.08-2.81-.14-4.21,0-.24.09-.26.28-.26,2.19,0,4.37,0,6.55,0,.26,0,.32.08.31.33q-.11,3-.19,5.92-.12,3.33-.23,6.66Z"/><path class="cls-2" d="M36.7,55.12a4.06,4.06,0,0,1,3.36-4.2,4,4,0,0,1,4.63,3.33,4.27,4.27,0,0,1-1.21,4,3.91,3.91,0,0,1-4.3.77,3.79,3.79,0,0,1-2.45-3.36C36.71,55.44,36.71,55.26,36.7,55.12Z"/></g></g></svg>