<svg xmlns="http://www.w3.org/2000/svg" viewBox="0 0 69.39 69.54"><defs><style>.cls-1{fill:#a4a4a4;}.cls-2{fill:#dfdfdf;}</style></defs><g id="Layer_2" data-name="Layer 2"><g id="Layer_1-2" data-name="Layer 1"><path class="cls-1" d="M58.81,51.19l-6.66-6.77h0c-.18-.2-.36-.39-.53-.55C45.34,37.79,39.21,31.56,33,25.42a3.46,3.46,0,0,1-1.09-3.55,15.23,15.23,0,0,0-1.17-10.28c-2.4-5.39-9.11-11-14.79-10-.71.13-2.35,2.18-2.55,2.75a2.67,2.67,0,0,0,.76,2.1c1.78,1.93,3.74,3.7,5.53,5.62,1.64,1.76,2.75,3.8,2.1,6.33-1.34,5.26-7.08,6.87-11,3.1-2.12-2-4.68-6.23-6.83-8.21,0,0-.48.4-1,.93A5.42,5.42,0,0,0,1.6,16.67a14.79,14.79,0,0,0,2.17,9.94c3.31,5.26,10.32,8.73,16.09,7.09a3.75,3.75,0,0,1,4.05,1.16c4.59,4.66,9.24,9.25,13.85,13.89,2.61,2.63,5.19,5.3,7.8,8L46.89,58c3,2.83,5.9,5.91,9.13,8.65,2.33,2,6.24,1.43,8.29-.74,5-5.24,2.75-6.11.53-8.61C62.86,55.07,60.71,53,58.81,51.19Z"/><path class="cls-1" d="M45.53,31.22c.82.88,1.29.74,2,0,5.78-5.77,11-10.89,16.75-16.7,2.32-2.34,3.37-6.27,1.67-8.8-2.43-3.62-7.11-4.05-10.38-.84C51.23,9.17,38.74,21.14,38.74,21.14l-1.48,1.8S42.89,28.43,45.53,31.22Z"/><path class="cls-1" d="M22.47,40.17c-.36-.34.38-2.52,0-2.38-2.13.89-4.62,5.42-3.58,7.51a1.38,1.38,0,0,1-.42,2c-1.66,1.53-3.27,3.12-4.81,4.77a4.14,4.14,0,0,1-3.61,1.54A2.92,2.92,0,0,0,8,54.51c-1.83,2-3.6,4.12-5.25,6.28-3.39,4.43-4.2,3.53.54,8.14,1.16,1.12,2.06.52,3.2-.4,3-2.39,6-4.69,8.83-7.19A4.4,4.4,0,0,0,16.5,59.1c.23-.72.12-1.66.55-2.17,2-2.35,4.18-4.59,6.2-6.77,2.91,1.91,5.84.14,9-3.55C29.43,43.83,25.24,42.87,22.47,40.17Z"/><path class="cls-2" d="M61.17,48.45l-6.66-6.76h0c-.19-.21-.37-.39-.54-.56-6.28-6.07-12.4-12.31-18.63-18.45a3.46,3.46,0,0,1-1.08-3.54A15.34,15.34,0,0,0,33.09,8.86C30.68,3.46,23.31-.63,17.64.41a2.68,2.68,0,0,0-1.89,1.22,2.66,2.66,0,0,0,.76,2.11C18.28,5.67,20.25,7.43,22,9.35c1.64,1.76,2.75,3.8,2.1,6.33-1.34,5.27-7.09,6.87-11,3.1C11,16.75,9,14.67,6.8,12.68c-.42-.38-1.36-.74-1.69-.53A2.7,2.7,0,0,0,4,13.93a14.73,14.73,0,0,0,2.16,9.94c3.32,5.26,10.33,8.74,16.1,7.09a3.78,3.78,0,0,1,4.05,1.16c4.58,4.66,9.24,9.25,13.85,13.89,2.61,2.63,5.18,5.31,7.8,8l1.33,1.25c3,2.83,5.9,5.91,9.13,8.66,2.32,2,6.23,1.42,8.28-.75,2.39-2.52,2.76-6.11.53-8.61C65.22,52.34,63.06,50.29,61.17,48.45Z"/><path class="cls-2" d="M48,28.66c.83.88,1.29.75,2,0,5.78-5.78,11.6-11.52,17.34-17.33A6.62,6.62,0,0,0,68.31,3c-2.43-3.62-7.1-4-10.37-.84-4.36,4.27-8.63,8.63-13,12.93-1.7,1.68-3.45,3.29-5.36,5.11C42.64,23.21,45.4,25.87,48,28.66Z"/><path class="cls-2" d="M24.82,37.44c-.35-.35-1.09-.73-1.43-.59a4.29,4.29,0,0,0-2.11,5.71,1.38,1.38,0,0,1-.42,1.95c-1.65,1.54-3.26,3.13-4.81,4.77a4.11,4.11,0,0,1-3.6,1.54,3,3,0,0,0-2.07,1c-1.83,2-3.59,4.12-5.25,6.28-3.39,4.43-4.19,3.53.55,8.14a2.11,2.11,0,0,0,3.24.19c2.95-2.39,6-4.69,8.82-7.19.68-.6.8-1.85,1.11-2.83.23-.71.12-1.66.56-2.17,2-2.35,4.17-4.58,6.2-6.77,2.91,1.91,4.36,1.94,7.49-1.75C30.31,42.89,27.59,40.14,24.82,37.44Z"/></g></g></svg>