<svg xmlns="http://www.w3.org/2000/svg" viewBox="0 0 62.07 63.04"><defs><style>.cls-1{fill:#dfdfdf;}.cls-2{fill:#a4a4a4;}</style></defs><g id="Layer_2" data-name="Layer 2"><g id="Layer_1-2" data-name="Layer 1"><path class="cls-1" d="M17.64,12.09l-.4-.78a6.81,6.81,0,0,0-.9.88V38.52a.11.11,0,0,0,.11.1h.38l1.82-1.82-.9-24.61A.11.11,0,0,0,17.64,12.09Z"/><path class="cls-1" d="M14,8.59a3.39,3.39,0,0,0-2.5,2.47V39.65a1.67,1.67,0,0,0,1.74,1.59c1,0,2.65-1.44,2.65-2.31L15,11.06C15,10.18,14.94,8.59,14,8.59Z"/><path class="cls-1" d="M53.38,15.22,41.16,27.44V53.15a.11.11,0,0,1-.11.1H39.86a.11.11,0,0,1-.11-.1V28.85l-1.53,1.53V53.15a.11.11,0,0,1-.12.1H36.91a.11.11,0,0,1-.11-.1V31.8l-1.58,1.58V53.15a.11.11,0,0,1-.12.1H33.91a.11.11,0,0,1-.11-.1V34.8l-1.5,1.5V53.15a.11.11,0,0,1-.11.1H31a.11.11,0,0,1-.11-.1V37.71l-1.37,1.37v15.2a1.76,1.76,0,0,1-3.5,0V42.57L19.59,49V60.09A3.1,3.1,0,0,0,22.83,63H52.06a3.1,3.1,0,0,0,3.24-2.95V17.91A3,3,0,0,0,53.38,15.22ZM43.94,53.15a.11.11,0,0,1-.12.1H42.63a.11.11,0,0,1-.11-.1V26.82a.11.11,0,0,1,.11-.1h1.19a.11.11,0,0,1,.12.1Zm4.92,1.13a1.75,1.75,0,0,1-3.49,0V25.69a1.75,1.75,0,0,1,3.49,0Z"/><path class="cls-1" d="M7.33,48.12l2.19-2.2a2.62,2.62,0,0,1-2-2.48V6.4a2.7,2.7,0,0,1,2.79-2.59H35.41A2.69,2.69,0,0,1,38.19,6.4V15H34.31V11.06c0-.88-.07-2.46-1-2.46a3.33,3.33,0,0,0-2.45,2.46V15H29.39V12.19a.11.11,0,0,0-.11-.1l-.41-.78a6.81,6.81,0,0,0-.9.88V15H26.61V12.19a.11.11,0,0,0-.11-.1l-.4-.78a6.25,6.25,0,0,0-.9.88V15H23.67V12.19a.11.11,0,0,0-.11-.1l-.41-.78a6.81,6.81,0,0,0-.9.88V15a3.25,3.25,0,0,0-1.58.7V12.19a.11.11,0,0,0-.11-.1l-.41-.78a6.81,6.81,0,0,0-.9.88v24L26,29.42V25.69a1.76,1.76,0,0,1,3.5,0v.24L41.06,14.39v-8A5.6,5.6,0,0,0,35.41.88H10.32A5.6,5.6,0,0,0,4.67,6.4v37A5.51,5.51,0,0,0,7.33,48.12Z"/><rect class="cls-1" x="27.3" y="-8.21" width="6.26" height="79.82" transform="translate(31.33 -12.24) rotate(45)"/><path class="cls-2" d="M18.54,11.21H17.35a.1.1,0,0,0-.11.1V37.63a.1.1,0,0,0,.11.1h.37l.93-.93V11.31A.1.1,0,0,0,18.54,11.21Z"/><path class="cls-2" d="M14.12,8.59a1.67,1.67,0,0,0-1.75,1.58v28.6a1.67,1.67,0,0,0,1.75,1.59,1.68,1.68,0,0,0,1.75-1.59V10.17A1.68,1.68,0,0,0,14.12,8.59Z"/><path class="cls-2" d="M54.27,14.34,42.06,26.55V52.26a.1.1,0,0,1-.11.1H40.76a.1.1,0,0,1-.11-.1V28L39.11,29.5V52.26a.1.1,0,0,1-.11.1H37.81a.1.1,0,0,1-.11-.1V30.91L36.11,32.5V52.26a.1.1,0,0,1-.11.1H34.81a.1.1,0,0,1-.11-.1V33.91l-1.5,1.5V52.26a.1.1,0,0,1-.11.1H31.9a.1.1,0,0,1-.11-.1V36.82L30.41,38.2V53.4a1.75,1.75,0,0,1-3.49,0V41.69l-6.44,6.44V59.21a3.11,3.11,0,0,0,3.25,2.95H53a3.11,3.11,0,0,0,3.25-2.95V17A3,3,0,0,0,54.27,14.34ZM44.83,52.26a.1.1,0,0,1-.11.1H43.53a.1.1,0,0,1-.11-.1V25.94a.1.1,0,0,1,.11-.1h1.19a.1.1,0,0,1,.11.1Zm4.93,1.14a1.76,1.76,0,0,1-3.5,0V24.8a1.76,1.76,0,0,1,3.5,0Z"/><path class="cls-2" d="M8.22,47.23,10.42,45a2.63,2.63,0,0,1-2-2.48v-37a2.7,2.7,0,0,1,2.79-2.59H36.3a2.7,2.7,0,0,1,2.79,2.59v8.56H35.21V10.17a1.76,1.76,0,0,0-3.5,0v3.91H30.28V11.31a.1.1,0,0,0-.11-.1H29a.1.1,0,0,0-.11.1v2.77H27.51V11.31a.1.1,0,0,0-.11-.1H26.21a.1.1,0,0,0-.11.1v2.77H24.56V11.31a.1.1,0,0,0-.11-.1H23.26a.1.1,0,0,0-.11.1v2.82a3.4,3.4,0,0,0-1.59.71V11.31a.1.1,0,0,0-.11-.1H20.26a.1.1,0,0,0-.11.1v24l6.77-6.77V24.8a1.75,1.75,0,0,1,3.49,0V25L42,13.51v-8A5.59,5.59,0,0,0,36.3,0H11.22A5.59,5.59,0,0,0,5.57,5.52v37A5.47,5.47,0,0,0,8.22,47.23Z"/><rect class="cls-2" x="28.25" y="-9.53" width="6.26" height="80.54" transform="translate(30.93 -13.19) rotate(45)"/></g></g></svg>