<svg xmlns="http://www.w3.org/2000/svg" viewBox="0 0 62.42 63.14"><defs><style>.cls-1{fill:#dfdfdf;}.cls-2{fill:#a4a4a4;}</style></defs><g id="Layer_2" data-name="Layer 2"><g id="Layer_1-2" data-name="Layer 1"><path class="cls-1" d="M50.3,22.67,51,22a2.72,2.72,0,0,0-2.46,2.29V53.78a1.71,1.71,0,0,0,1.78,1.63h0a2.26,2.26,0,0,0,2.45-2.09l-.67-29A1.71,1.71,0,0,0,50.3,22.67Z"/><path class="cls-1" d="M46.94,25.37l-.53-.66a4.8,4.8,0,0,0-.79.77V52.61a.11.11,0,0,0,.11.1h1.21a4.07,4.07,0,0,0,.78-.71l-.66-26.52A.11.11,0,0,0,46.94,25.37Z"/><path class="cls-1" d="M55.33,15.61H53.4l-2,2h3.95a1.91,1.91,0,0,1,2,1.83V59.29a1.91,1.91,0,0,1-2,1.83H25.19a1.91,1.91,0,0,1-2-1.83V45.81l-4.41,4.41H21v9.07a4,4,0,0,0,4.2,3.85H55.33a4,4,0,0,0,4.2-3.85V19.46A4,4,0,0,0,55.33,15.61Z"/><path class="cls-1" d="M6.16,49.62,17.4,38.38H16.18a.1.1,0,0,1-.11-.1V11.15a.11.11,0,0,1,.11-.11H17.4a.11.11,0,0,1,.11.11V38.27L19,36.74V11.15a.11.11,0,0,1,.11-.11h1.21a.11.11,0,0,1,.12.11V35.3l2.72-2.72V19.46a1.91,1.91,0,0,1,2-1.83h13l3-3V4.54c0-2.13-1.27-3.87-2.84-3.87H7.67C6.1.67,4.83,2.41,4.83,4.54v41.8A4.34,4.34,0,0,0,6.16,49.62ZM30.82,10a1.79,1.79,0,0,1,3.57,0v5.63H30.82Zm-2.9,1.17A.12.12,0,0,1,28,11h1.21a.11.11,0,0,1,.11.11v4.46H27.92Zm-2.82,0a.11.11,0,0,1,.11-.11h1.21a.11.11,0,0,1,.12.11v4.46H25.1Zm-3,0a.11.11,0,0,1,.11-.11h1.21a.11.11,0,0,1,.11.11v4.77a4.14,4.14,0,0,0-1.43.94ZM11.11,10a1.71,1.71,0,0,1,1.78-1.64A1.71,1.71,0,0,1,14.67,10V39.45a1.79,1.79,0,0,1-3.56,0Z"/><path class="cls-1" d="M33.76,35.25V52.61a.11.11,0,0,0,.12.1h1.21a4.33,4.33,0,0,0,.77-.71L35.2,33.81Z"/><path class="cls-1" d="M36.73,32.28V52.61a.11.11,0,0,0,.11.1h1.22a4.33,4.33,0,0,0,.77-.71l-.66-21.16Z"/><path class="cls-1" d="M39.79,29.22V52.61a.11.11,0,0,0,.11.1h1.21a4.07,4.07,0,0,0,.78-.71l-.66-24.22Z"/><path class="cls-1" d="M44.12,25.37h-.48l-.85.85V52.61a.11.11,0,0,0,.11.1h1.22a4.33,4.33,0,0,0,.77-.71l-.66-26.52A.11.11,0,0,0,44.12,25.37Z"/><path class="cls-1" d="M32.21,23.64a1.8,1.8,0,0,0-1.63-1A1.71,1.71,0,0,0,28.8,24.3v2.75Z"/><path class="cls-1" d="M28.8,40.28v13.5a1.71,1.71,0,0,0,1.78,1.63A2.24,2.24,0,0,0,33,53.31l-.68-16.59Z"/><rect class="cls-1" x="27.72" y="-8.98" width="6.3" height="81.02" transform="translate(31.34 -12.59) rotate(45)"/><path class="cls-2" d="M51,22h0a1.71,1.71,0,0,0-1.78,1.63V53.12A1.71,1.71,0,0,0,51,54.75h0a1.71,1.71,0,0,0,1.78-1.63V23.64A1.71,1.71,0,0,0,51,22Z"/><path class="cls-2" d="M47.62,24.71H46.41a.11.11,0,0,0-.11.11V52a.11.11,0,0,0,.11.1h1.21a.11.11,0,0,0,.12-.1V24.82A.11.11,0,0,0,47.62,24.71Z"/><path class="cls-2" d="M56,15H54.08l-2,2H56a1.92,1.92,0,0,1,2,1.83V58.63a1.92,1.92,0,0,1-2,1.83H25.87a1.91,1.91,0,0,1-2-1.83V45.15l-4.4,4.41h2.19v9.07a4,4,0,0,0,4.2,3.85H56a4,4,0,0,0,4.2-3.85V18.8A4,4,0,0,0,56,15Z"/><path class="cls-2" d="M6.84,49,18.08,37.72H16.86a.11.11,0,0,1-.11-.1V10.49a.11.11,0,0,1,.11-.11h1.22a.11.11,0,0,1,.11.11V37.61l1.53-1.53V10.49a.11.11,0,0,1,.11-.11H21a.11.11,0,0,1,.12.11V34.64l2.72-2.72V18.8a1.91,1.91,0,0,1,2-1.83h13l3-3V3.88C41.79,1.75,40.52,0,39,0H8.35C6.78,0,5.51,1.75,5.51,3.88v41.8A4.34,4.34,0,0,0,6.84,49ZM31.5,9.31a1.79,1.79,0,0,1,3.57,0V15H31.5Zm-2.89,1.18a.11.11,0,0,1,.11-.11h1.21a.11.11,0,0,1,.11.11V15H28.61Zm-2.83,0a.11.11,0,0,1,.11-.11h1.22a.11.11,0,0,1,.11.11V15H25.78Zm-3,0a.11.11,0,0,1,.11-.11H24.1a.12.12,0,0,1,.12.11v4.77a4.09,4.09,0,0,0-1.44.94Zm-11-1.18a1.71,1.71,0,0,1,1.78-1.63,1.71,1.71,0,0,1,1.78,1.63V38.79a1.71,1.71,0,0,1-1.78,1.63,1.71,1.71,0,0,1-1.78-1.63Z"/><path class="cls-2" d="M34.44,34.59V52a.11.11,0,0,0,.12.1h1.21a.11.11,0,0,0,.11-.1V33.15Z"/><path class="cls-2" d="M37.41,31.62V52a.11.11,0,0,0,.11.1h1.22a.11.11,0,0,0,.11-.1V30.18Z"/><path class="cls-2" d="M40.47,28.56V52a.11.11,0,0,0,.11.1h1.21a.11.11,0,0,0,.12-.1V27.12Z"/><path class="cls-2" d="M44.8,24.71h-.48l-.85.85V52a.11.11,0,0,0,.11.1H44.8a.11.11,0,0,0,.11-.1V24.82A.11.11,0,0,0,44.8,24.71Z"/><path class="cls-2" d="M32.89,23a1.8,1.8,0,0,0-1.63-1,1.71,1.71,0,0,0-1.78,1.63v2.75Z"/><path class="cls-2" d="M29.48,39.62v13.5a1.79,1.79,0,0,0,3.56,0V36.06Z"/><rect class="cls-2" x="28.4" y="-9.64" width="6.3" height="81.02" transform="translate(31.07 -13.27) rotate(45)"/></g></g></svg>