<svg xmlns="http://www.w3.org/2000/svg" viewBox="0 0 94.65 79.96"><defs><style>.cls-1{fill:#dfdfdf;}.cls-2{fill:#a4a4a4;}</style></defs><g id="Layer_2" data-name="Layer 2"><g id="Layer_1-2" data-name="Layer 1"><path class="cls-1" d="M16.92,52.07a3.25,3.25,0,0,1,0-.54,2.53,2.53,0,0,0-1.59-3,13.53,13.53,0,0,1-1.17-.72,1.83,1.83,0,0,0-1.85,0c-.59.29-1.18.6-1.75,1a2,2,0,0,1-2.8-.35c-.52-.54-1-1.1-1.53-1.64A1.49,1.49,0,0,1,6,44.92c.47-.86,1-1.68,1.49-2.52a1.43,1.43,0,0,0,.05-1.54c-.41-.68-.79-1.38-1.15-2.09a1.57,1.57,0,0,0-1.47-1c-.79,0-1.58,0-2.38-.09A1.79,1.79,0,0,1,.59,36c-.14-.7-.34-1.4-.53-2.09A1.62,1.62,0,0,1,1,32.05,22,22,0,0,1,3.2,30.74a1.52,1.52,0,0,0,.89-1.41c0-.83,0-1.66.08-2.48,0-1.13-.88-1.48-1.58-2-.45-.33-1-.59-1.43-.89A1.66,1.66,0,0,1,.47,21.9c.29-.79.34-1.64.69-2.42a1.71,1.71,0,0,1,1.65-1.13c1.12,0,2.25.07,3.38-.06a1,1,0,0,0,.9-.71,6.38,6.38,0,0,1,1.12-2.07,1.59,1.59,0,0,0,0-1.62c-.4-.81-.75-1.65-1.22-2.41a1.52,1.52,0,0,1,.3-2.08c.65-.65,1.34-1.28,2-1.9A1.23,1.23,0,0,1,11,7.42c.77.5,1.57,1,2.37,1.41a1.71,1.71,0,0,0,1.83,0c.67-.43,1.41-.73,2.07-1.16a1.79,1.79,0,0,0,.84-1.48c0-.86,2.3-1.27,2.28-2.12s-.4-1.3.47-1.53.32-1,1.08-1.21S23.5,1.62,24,2.68A12.5,12.5,0,0,0,25.25,4.8a1.77,1.77,0,0,0,1.51.77,16.15,16.15,0,0,1,1.84,0,1.84,1.84,0,0,0,1.75-.9,22.84,22.84,0,0,0,1.41-2.2,1.56,1.56,0,0,1,1.68-.83,17,17,0,0,1,3,.87,1.23,1.23,0,0,1,.74,1.25,16.35,16.35,0,0,1,0,2.1,2.48,2.48,0,0,0,1.46,2.75c1,.49,1.83,1.52,3.13.92a12.88,12.88,0,0,0,1.68-.9,2,2,0,0,1,3,.29c.48.49,1,1,1.42,1.5a2,2,0,0,1,0,2.51,15.77,15.77,0,0,0-1,1.57,2,2,0,0,0-.1,2.25c.47.64.7,1.42,1.18,2.07a1.52,1.52,0,0,0,1.3.66c.87,0,1.74,0,2.61.11a1.67,1.67,0,0,1,1.57,1.14,12.9,12.9,0,0,1,.62,2.87c.11.82-1.28,1.09-2,1.48s-.59,1.19-1.36,1.69a1.43,1.43,0,0,0-.7,1.3,6,6,0,0,1,0,1.47c-.3,1.51.5,2.31,1.67,2.95a13,13,0,0,1,1.37.85,1.91,1.91,0,0,1,.63,2.52,10.67,10.67,0,0,0-.48,1.55c-.21,1-.93-.3-1.91-.31-.67,0-1.79,0-2.45-.06-1-.1-1.36,2.13-1.83,3.08a9.69,9.69,0,0,1-.79,1.31,2.22,2.22,0,0,0,0,2.47c.26.53.52,1.06.81,1.57.64,1.09.65,1.58-.18,2.47a10.54,10.54,0,0,1-2.15,2,1.11,1.11,0,0,1-1.27,0c-.85-.47-1.7-.93-2.53-1.44a1.82,1.82,0,0,0-1.91,0c-.74.4-1.46.84-2.2,1.25-.45.25-.48.72-.53,1.14-.11.84-.16,1.69-.22,2.54-.11,1.42-.51,1.87-1.88,2.1a7.9,7.9,0,0,0-1.79.42,1.4,1.4,0,0,1-1.73-.63,16.35,16.35,0,0,1-1.32-2.25,2,2,0,0,0-2-1.26,4,4,0,0,1-1.15,0c-1.37-.31-2.1.48-2.73,1.51a17.64,17.64,0,0,1-1.22,1.87,1.36,1.36,0,0,1-1.28.52,26.48,26.48,0,0,1-3.26-.85.92.92,0,0,1-.71-1c0-.59,0-1.18,0-1.78Zm10.22-6.43A17,17,0,1,0,10.31,29,16.83,16.83,0,0,0,27.14,45.64Z"/><circle class="cls-1" cx="27.04" cy="28.68" r="12.54"/><path class="cls-1" d="M49.42,66.72a6.64,6.64,0,1,1-6.13,6.59"/><path class="cls-1" d="M66.09,54.88c-4.25-4.23-14.68-8.46-14.68-8.46l-1.9,1.28a7.8,7.8,0,0,1-1.09,1.77,12.82,12.82,0,0,1-2.59,2.33,3.28,3.28,0,0,1-3.51.1l-.38-.21c-.68-.38-1-1.21-1.67-1.63-.36.19-1.12.84-1.47,1l-.43.25c-.06.56-.1,1.12-.14,1.69l0,.55a4,4,0,0,1-3.7,4.09l-.24,0c-.44.08.51-.15.24,0-.46.19-.88-.77-1.33-.77-.19,0-1.73,1.32-1.91,1.29a2.17,2.17,0,0,0,0,.36,10.8,10.8,0,0,0,.15,1.16c.89,3.68,6.28,4,8.91,1.31,3.89-4,7.14-4.56,12.38-3.44a14.59,14.59,0,0,1,7.44,4.35c2.26,2.33,6.11,1.81,8.4-1.57C69.69,58.65,67.7,56.49,66.09,54.88Z"/><path class="cls-1" d="M52.29,25c-.8.44-.81,1.33-1.58,1.83a1.43,1.43,0,0,0-.7,1.3,6.1,6.1,0,0,1,0,1.48c-.3,1.5.5,2.3,1.67,2.94a14.87,14.87,0,0,1,1.37.85,1.91,1.91,0,0,1,.63,2.52,10.67,10.67,0,0,0-.48,1.55c-.21,1-1-.74-2-.75-.66,0-1.93.85-2.59.79-1-.09-1.11,1.72-1.58,2.67a9.8,9.8,0,0,1-.79,1.32,2.2,2.2,0,0,0,0,2.46c.26.53.52,1.07.81,1.57.64,1.09.65,1.58-.18,2.48a10.78,10.78,0,0,1-2.15,1.95,1.1,1.1,0,0,1-1.27,0c-.85-.47-1.7-.93-2.53-1.44a1.82,1.82,0,0,0-1.91,0c-.74.4-1.46.84-2.2,1.25-.45.25-.48.72-.53,1.14-.11.84-.16,1.7-.22,2.55-.11,1.41-.51,1.86-1.88,2.09a7.9,7.9,0,0,0-1.79.42,1.4,1.4,0,0,1-1.73-.63,15.78,15.78,0,0,1-1.32-2.25,2,2,0,0,0-2-1.26,4.42,4.42,0,0,1-1.15,0c-1.37-.32-2.1.47-2.73,1.5a17.64,17.64,0,0,1-1.22,1.87,1.36,1.36,0,0,1-1.28.52,26.48,26.48,0,0,1-3.26-.85.91.91,0,0,1-.71-1c0-.6,0-1.19,0-1.79h0a3.25,3.25,0,0,1,0-.54,2.53,2.53,0,0,0-1.59-3,11.44,11.44,0,0,1-1.17-.72,1.85,1.85,0,0,0-1.85,0c-.59.29-1.18.6-1.75.95a2,2,0,0,1-2.8-.35c-.52-.54-1-1.09-1.53-1.64A1.49,1.49,0,0,1,6,44.91c.47-.85,1-1.68,1.49-2.52a1.43,1.43,0,0,0,.05-1.54c-.41-.68-.79-1.38-1.15-2.09A1.59,1.59,0,0,0,5,37.81c-.79,0-1.58-.05-2.38-.09A1.78,1.78,0,0,1,.59,36c-.14-.71-.34-1.4-.53-2.1A1.62,1.62,0,0,1,1,32,24,24,0,0,1,3.2,30.73a1.52,1.52,0,0,0,.89-1.41c0-.83,0-1.66.08-2.48,0-1.13-.88-1.48-1.58-2-.45-.33-1-.59-1.43-.89a1.66,1.66,0,0,1-.69-2.07c.29-.79.34-1.64.69-2.42a1.71,1.71,0,0,1,1.65-1.13c1.12,0,2.25.07,3.38-.06a1,1,0,0,0,.9-.71A6.48,6.48,0,0,1,8.21,15.5a1.59,1.59,0,0,0,0-1.62c-.4-.81-.75-1.65-1.22-2.41a1.52,1.52,0,0,1,.3-2.08c.65-.65,1.34-1.27,2-1.89A1.22,1.22,0,0,1,11,7.41c.77.51,1.57,1,2.37,1.41a1.71,1.71,0,0,0,1.83,0c.67-.43,1.41-.72,2.07-1.16a1.79,1.79,0,0,0,.84-1.48c0-.86,2.19-1.13,2.18-2s.24-1.39,1.11-1.63-.22-1,.54-1.23S23.5,1.61,24,2.67a12.5,12.5,0,0,0,1.24,2.12,1.8,1.8,0,0,0,1.51.78,16.15,16.15,0,0,1,1.84,0,1.84,1.84,0,0,0,1.75-.9,22.84,22.84,0,0,0,1.41-2.2,1.58,1.58,0,0,1,1.68-.83,17,17,0,0,1,3,.87,1.24,1.24,0,0,1,.74,1.26,16.19,16.19,0,0,1,0,2.09,2.48,2.48,0,0,0,1.46,2.75c1,.49,1.83,1.52,3.13.93a12.94,12.94,0,0,0,1.68-.91,2,2,0,0,1,3,.29c.48.49,1,1,1.42,1.51a2,2,0,0,1,0,2.5,15.77,15.77,0,0,0-1,1.57,2,2,0,0,0-.1,2.25c.47.64.7,1.42,1.18,2.07a1.5,1.5,0,0,0,1.3.66c.87,0,1.74.06,2.61.12a1.64,1.64,0,0,1,1.57,1.13,12.9,12.9,0,0,1,.62,2.87m-26.92,22A17,17,0,1,0,10.31,29,16.83,16.83,0,0,0,27.14,45.63Z"/><circle class="cls-1" cx="27.04" cy="28.67" r="12.54"/><path class="cls-1" d="M49.46,80a6.34,6.34,0,0,1-6.17-6.65c0-3.68,4.18-7.86,7.6-7.86S57.5,69,57.51,72.71,53,80,49.46,80Z"/><path class="cls-1" d="M26.53,48.25l.44-.43a18.58,18.58,0,0,1-8.2-2,5.85,5.85,0,0,0,.2.8C20.11,50.15,24,50.9,26.53,48.25Z"/><path class="cls-1" d="M47.84,29.15a2.73,2.73,0,0,0,0-.43c-.59,0-1.19.08-1.78.13a19.27,19.27,0,0,1-2.83,9.93c.75-.15,1.5-.26,2.26-.35a4.23,4.23,0,0,1,3.94-1.66,11.21,11.21,0,0,0,1.18,0h.46a12.38,12.38,0,0,1,.54-1.7h0a9.89,9.89,0,0,0-1-.62C47.75,32.9,47.52,30.71,47.84,29.15Z"/><path class="cls-1" d="M79.08,42a32.71,32.71,0,0,0-3.67-3.59c-6.69-5.58-21.27-10.92-21.27-10.92l-1.9,1.28a7.88,7.88,0,0,1-.1,1.27,1.18,1.18,0,0,0,0,.19,3.3,3.3,0,0,0,.59.39,18.55,18.55,0,0,1,1.58,1,4.08,4.08,0,0,1,1.41,5.12,6.66,6.66,0,0,0-.37,1.21,4.2,4.2,0,0,1-.26.78,30.91,30.91,0,0,1,17.48,9.71,4.53,4.53,0,0,0,3.72,1.44c1.38-.09,3.07-.36,4.8-2.92C82.19,45.26,80.35,43.44,79.08,42Z"/><path class="cls-1" d="M16.92,52.06a3.25,3.25,0,0,1,0-.54,2.53,2.53,0,0,0-1.59-3,11.44,11.44,0,0,1-1.17-.72,1.85,1.85,0,0,0-1.85,0c-.59.29-1.18.6-1.75.95a2,2,0,0,1-2.8-.35c-.52-.54-1-1.09-1.53-1.64A1.49,1.49,0,0,1,6,44.91c.47-.85,1-1.68,1.49-2.52a1.43,1.43,0,0,0,.05-1.54c-.41-.68-.79-1.38-1.15-2.09A1.59,1.59,0,0,0,5,37.81c-.79,0-1.58-.05-2.38-.09A1.78,1.78,0,0,1,.59,36c-.14-.71-.34-1.4-.53-2.1A1.62,1.62,0,0,1,1,32,24,24,0,0,1,3.2,30.73a1.52,1.52,0,0,0,.89-1.41c0-.83,0-1.66.08-2.48,0-1.13-.88-1.48-1.58-2-.45-.33-1-.59-1.43-.89a1.66,1.66,0,0,1-.69-2.07c.29-.79.34-1.64.69-2.42a1.71,1.71,0,0,1,1.65-1.13c1.12,0,2.25.07,3.38-.06a1,1,0,0,0,.9-.71A6.48,6.48,0,0,1,8.21,15.5a1.59,1.59,0,0,0,0-1.62c-.4-.81-.75-1.65-1.22-2.41a1.52,1.52,0,0,1,.3-2.08c.65-.65,1.34-1.27,2-1.89A1.22,1.22,0,0,1,11,7.41c.77.51,1.57,1,2.37,1.41a1.71,1.71,0,0,0,1.83,0c.67-.43,1.41-.72,2.07-1.16a1.79,1.79,0,0,0,.84-1.48c0-.86,1.74-1.46,1.72-2.31s-.18-1.22.69-1.46.66-.84,1.42-1.08S23.5,1.61,24,2.67a12.5,12.5,0,0,0,1.24,2.12,1.8,1.8,0,0,0,1.51.78,16.15,16.15,0,0,1,1.84,0,1.84,1.84,0,0,0,1.75-.9,22.84,22.84,0,0,0,1.41-2.2,1.58,1.58,0,0,1,1.68-.83,17,17,0,0,1,3,.87,1.24,1.24,0,0,1,.74,1.26,16.19,16.19,0,0,1,0,2.09,2.48,2.48,0,0,0,1.46,2.75c1,.49,1.83,1.52,3.13.93a12.94,12.94,0,0,0,1.68-.91,2,2,0,0,1,3,.29c.48.49,1,1,1.42,1.51a2,2,0,0,1,0,2.5,15.77,15.77,0,0,0-1,1.57,2,2,0,0,0-.1,2.25c.47.64.7,1.42,1.18,2.07a1.5,1.5,0,0,0,1.3.66c.87,0,1.74.06,2.61.12a1.64,1.64,0,0,1,1.57,1.13,12.9,12.9,0,0,1,.62,2.87c.11.82-.84,1-1.55,1.43s-1,1.24-1.8,1.74a1.43,1.43,0,0,0-.7,1.3,6.1,6.1,0,0,1,0,1.48c-.3,1.5.5,2.3,1.67,2.94a14.87,14.87,0,0,1,1.37.85,1.91,1.91,0,0,1,.63,2.52,10.67,10.67,0,0,0-.48,1.55c-.21,1-1,.14-1.93.13-.67,0-2.35,0-3-.09-1-.09-.78,1.72-1.25,2.67a9.8,9.8,0,0,1-.79,1.32,2.2,2.2,0,0,0,0,2.46c.26.53.52,1.07.81,1.57.64,1.09.65,1.58-.18,2.48a10.78,10.78,0,0,1-2.15,1.95,1.1,1.1,0,0,1-1.27,0c-.85-.47-1.7-.93-2.53-1.44a1.82,1.82,0,0,0-1.91,0c-.74.4-1.46.84-2.2,1.25-.45.25-.48.72-.53,1.14-.11.84-.16,1.7-.22,2.55-.11,1.41-.51,1.86-1.88,2.09a7.9,7.9,0,0,0-1.79.42,1.4,1.4,0,0,1-1.73-.63,15.78,15.78,0,0,1-1.32-2.25,2,2,0,0,0-2-1.26,4.42,4.42,0,0,1-1.15,0c-1.37-.32-2.1.47-2.73,1.5a17.64,17.64,0,0,1-1.22,1.87,1.36,1.36,0,0,1-1.28.52,26.48,26.48,0,0,1-3.26-.85.91.91,0,0,1-.71-1c0-.6,0-1.19,0-1.79Zm10.22-6.43A17,17,0,1,0,10.31,29,16.83,16.83,0,0,0,27.14,45.63Z"/><circle class="cls-1" cx="27.04" cy="28.67" r="12.54"/><path class="cls-1" d="M91.11,27.89C80.29,16.76,67.78,9.39,51.88,8.36c-.54,0-1.9,1.29-1.9,1.29s.69,3-.3,4.53l-.09.14a13.61,13.61,0,0,0-.77,1.24l-.09.19a10.9,10.9,0,0,1,.59,1.08c.1.19.18.36.27.51h.13c.77,0,1.53.05,2.3.11a3.78,3.78,0,0,1,3.26,2.09q1.14.13,2.28.33a45.55,45.55,0,0,1,20.16,8.62A88.27,88.27,0,0,1,85.08,35c2,1.91,5.08,2.51,8.44-1.42C94.88,32,93.44,30.3,91.11,27.89Z"/><path class="cls-1" d="M8.17,27.57l-.57.59a4.89,4.89,0,0,0,1.54,8,3.68,3.68,0,0,0,.54.16A18.82,18.82,0,0,1,8.12,29C8.11,28.5,8.14,28,8.17,27.57Z"/><path class="cls-1" d="M45,18.07a4.12,4.12,0,0,1-.06-4.56,16.38,16.38,0,0,1,1-1.61l.09-.14,0,0c-.37-.41-.76-.81-1.15-1.2l-.09-.08-.15.09a16.63,16.63,0,0,1-1.95,1.05,4.34,4.34,0,0,1-4.5-.64l-.14-.09c-.89.18-1.77.38-2.65.6a18.32,18.32,0,0,1,4.67,3.23,19.1,19.1,0,0,1,3.68,4.82c.63-.07,1.26-.13,1.9-.18-.1-.18-.19-.36-.27-.52A6.24,6.24,0,0,0,45,18.07Z"/><path class="cls-1" d="M16.92,52.06a3.25,3.25,0,0,1,0-.54,2.53,2.53,0,0,0-1.59-3,11.44,11.44,0,0,1-1.17-.72,1.85,1.85,0,0,0-1.85,0c-.59.29-1.18.6-1.75.95a2,2,0,0,1-2.8-.35c-.52-.54-1-1.09-1.53-1.64A1.49,1.49,0,0,1,6,44.91c.47-.85,1-1.68,1.49-2.52a1.43,1.43,0,0,0,.05-1.54c-.41-.68-.79-1.38-1.15-2.09A1.59,1.59,0,0,0,5,37.81c-.79,0-1.58-.05-2.38-.09A1.78,1.78,0,0,1,.59,36c-.14-.71-.34-1.4-.53-2.1A1.62,1.62,0,0,1,1,32,24,24,0,0,1,3.2,30.73a1.52,1.52,0,0,0,.89-1.41c0-.83,0-1.66.08-2.48,0-1.13-.88-1.48-1.58-2-.45-.33-1-.59-1.43-.89a1.66,1.66,0,0,1-.69-2.07c.29-.79.34-1.64.69-2.42s.79-2.4,1.59-2.42c1.12,0,2.45.14,3.57,0,.49-.06.7.84.77.51A6.48,6.48,0,0,1,8.21,15.5a1.59,1.59,0,0,0,0-1.62c-.4-.81-.75-1.65-1.22-2.41a1.52,1.52,0,0,1,.3-2.08c.65-.65,1.34-1.27,2-1.89.53-.48,2.3-2,2.91-1.65s.34,2.52,1.14,3a1.71,1.71,0,0,0,1.83,0c.67-.43,1.41-.72,2.07-1.16a1.79,1.79,0,0,0,.84-1.48c0-.86.09-1.71.07-2.56S19.93,1.17,20.8.94s.37.66,1.13.42S23.5,1.61,24,2.67a12.5,12.5,0,0,0,1.24,2.12,1.8,1.8,0,0,0,1.51.78,16.15,16.15,0,0,1,1.84,0,1.84,1.84,0,0,0,1.75-.9,22.84,22.84,0,0,0,1.41-2.2c.39-.68,1.67-2.3,3.07-2.11,1.05.14.62,1.85,1.63,2.15a1.24,1.24,0,0,1,.74,1.26,16.19,16.19,0,0,1,0,2.09,2.48,2.48,0,0,0,1.46,2.75c1,.49,1.83,1.52,3.13.93a12.94,12.94,0,0,0,1.68-.91,2,2,0,0,1,3,.29c.48.49,1,1,1.42,1.51a2,2,0,0,1,0,2.5,15.77,15.77,0,0,0-1,1.57,2,2,0,0,0-.1,2.25c.47.64.7,1.42,1.18,2.07a1.5,1.5,0,0,0,1.3.66c.87,0,1.74.06,2.61.12a1.64,1.64,0,0,1,1.57,1.13,12.9,12.9,0,0,1,.62,2.87c.11.82-1.23.8-1.94,1.18s-.64,1.49-1.41,2a1.43,1.43,0,0,0-.7,1.3,6.1,6.1,0,0,1,0,1.48c-.3,1.5.5,2.3,1.67,2.94a14.87,14.87,0,0,1,1.37.85,1.91,1.91,0,0,1,.63,2.52c-.2.51,1.54-.26,1.43.27-1.16,4-2.68,3-3.85,2.81-.49-.1-2.38-.38-3-.43-1-.1-.74.66-1.21,1.61a9.8,9.8,0,0,1-.79,1.32,2.2,2.2,0,0,0,0,2.46c.26.53.52,1.07.81,1.57.64,1.09,1.58,1.31.75,2.21a18.57,18.57,0,0,1-3.08,2.22,1.1,1.1,0,0,1-1.27,0c-.85-.47-1.7-.93-2.53-1.44a1.82,1.82,0,0,0-1.91,0c-.74.4-1.46.84-2.2,1.25-.45.25-.48.72-.53,1.14-.11.84,1.65,1.11,1.59,2-.17,2.15-2.32,2.45-3.69,2.68a7.9,7.9,0,0,0-1.79.42,1.4,1.4,0,0,1-1.73-.63,15.78,15.78,0,0,1-1.32-2.25,2,2,0,0,0-2-1.26,4.42,4.42,0,0,1-1.15,0c-1.37-.32-1.57,1.22-2.2,2.25a3.86,3.86,0,0,1-1.59,1.24,2.2,2.2,0,0,1-1.44.4,26.48,26.48,0,0,1-3.26-.85.91.91,0,0,1-.71-1c0-.6,0-1.19,0-1.79Zm10.22-6.43A17,17,0,1,0,10.31,29,16.83,16.83,0,0,0,27.14,45.63Z"/><circle class="cls-1" cx="27.04" cy="28.67" r="12.54"/><path class="cls-2" d="M18.82,50.78a3.25,3.25,0,0,1,0-.54,2.53,2.53,0,0,0-1.59-3,12.64,12.64,0,0,1-1.17-.72,1.83,1.83,0,0,0-1.84,0c-.6.29-1.19.61-1.75.95a2,2,0,0,1-2.81-.35c-.52-.54-1-1.09-1.52-1.64a1.46,1.46,0,0,1-.2-1.85c.46-.86,1-1.69,1.48-2.53a1.41,1.41,0,0,0,.05-1.54c-.41-.68-.78-1.38-1.15-2.09a1.57,1.57,0,0,0-1.46-.95c-.8,0-1.59-.05-2.38-.08a1.79,1.79,0,0,1-2-1.72c-.14-.71-.35-1.4-.53-2.1a1.6,1.6,0,0,1,.88-1.87,23,23,0,0,1,2.25-1.3A1.53,1.53,0,0,0,6,28c0-.83,0-1.65.08-2.48,0-1.13-.88-1.48-1.58-2-.45-.33-1-.59-1.43-.89a1.66,1.66,0,0,1-.69-2.07c.29-.79.34-1.64.7-2.42a1.7,1.7,0,0,1,1.64-1.13C5.84,17,7,17.13,8.09,17a1,1,0,0,0,.9-.71,6.32,6.32,0,0,1,1.13-2.07,1.59,1.59,0,0,0,0-1.62c-.39-.81-.74-1.64-1.21-2.41a1.5,1.5,0,0,1,.29-2.07c.66-.66,1.34-1.28,2-1.9a1.22,1.22,0,0,1,1.67-.09c.77.51,1.57,1,2.37,1.42a1.74,1.74,0,0,0,1.84,0c.67-.43,1.41-.72,2.07-1.16A1.78,1.78,0,0,0,20,4.93c0-.85.1-1.71.08-2.56A1.66,1.66,0,0,1,21.52.65c.77-.21,1.55-.33,2.31-.57s1.57.25,2.08,1.31a13.2,13.2,0,0,0,1.24,2.12,1.8,1.8,0,0,0,1.51.78,16.27,16.27,0,0,1,1.85,0,1.81,1.81,0,0,0,1.74-.9,22.93,22.93,0,0,0,1.42-2.2A1.58,1.58,0,0,1,35.34.4a16.57,16.57,0,0,1,3,.87,1.25,1.25,0,0,1,.75,1.26,18.22,18.22,0,0,1,0,2.09,2.46,2.46,0,0,0,1.46,2.75c1,.49,1.82,1.53,3.12.93a12.94,12.94,0,0,0,1.68-.91,2,2,0,0,1,3,.29c.49.49,1,1,1.43,1.51a2,2,0,0,1,0,2.5c-.34.51-.68,1-1,1.57a2,2,0,0,0-.1,2.25c.47.65.71,1.42,1.19,2.07a1.51,1.51,0,0,0,1.29.67c.87,0,1.74.05,2.61.11a1.64,1.64,0,0,1,1.57,1.13A12.9,12.9,0,0,1,56,22.36a1.62,1.62,0,0,1-1,1.75c-.8.44-1.59.92-2.36,1.42a1.43,1.43,0,0,0-.69,1.31,7.21,7.21,0,0,1,0,1.47c-.31,1.5.5,2.31,1.67,2.94a14.72,14.72,0,0,1,1.36.85,1.9,1.9,0,0,1,.63,2.52,9.53,9.53,0,0,0-.47,1.55,1.88,1.88,0,0,1-1.94,1.54c-.67,0-1.34,0-2,0a2.08,2.08,0,0,0-2.26,1.2,9.22,9.22,0,0,1-.79,1.32,2.2,2.2,0,0,0,0,2.46c.25.53.51,1.07.81,1.58.64,1.08.64,1.57-.19,2.47a10.73,10.73,0,0,1-2.14,1.95,1.11,1.11,0,0,1-1.28,0c-.85-.47-1.7-.93-2.52-1.44a1.8,1.8,0,0,0-1.91,0c-.74.39-1.47.83-2.2,1.24-.46.25-.48.72-.54,1.14-.11.84-.15,1.7-.22,2.55-.11,1.42-.51,1.86-1.88,2.09a8,8,0,0,0-1.79.42A1.4,1.4,0,0,1,32.5,54a15.78,15.78,0,0,1-1.32-2.25,2,2,0,0,0-2-1.25,4.91,4.91,0,0,1-1.15,0c-1.37-.31-2.09.47-2.72,1.5a17.72,17.72,0,0,1-1.23,1.87,1.35,1.35,0,0,1-1.27.52,27.1,27.1,0,0,1-3.27-.85.92.92,0,0,1-.71-1c0-.6,0-1.19,0-1.79Zm10.23-6.43a16.82,16.82,0,0,0,16.74-17,16.79,16.79,0,1,0-16.74,17Z"/><circle class="cls-2" cx="28.94" cy="27.39" r="12.54"/><path class="cls-2" d="M51.37,78.67A6.63,6.63,0,1,1,57.54,72,6.33,6.33,0,0,1,51.37,78.67Z"/><path class="cls-2" d="M68,53.6c-4.8-4.79-10.33-7.22-16.59-7.18a4.64,4.64,0,0,1-1.08,1.77,12.85,12.85,0,0,1-2.6,2.32,3.26,3.26,0,0,1-3.51.1l-.38-.21c-.68-.38-1.38-.77-2.07-1.19l-1.06.6-.44.25c-.06.56-.1,1.12-.14,1.69l0,.55a4,4,0,0,1-3.7,4.1l-.24,0a5.37,5.37,0,0,0-1.07.24,3.57,3.57,0,0,1-1.37.28,3.31,3.31,0,0,1-.55-.05c0,.12,0,.24,0,.36a9.14,9.14,0,0,0,.16,1.17,4.35,4.35,0,0,0,7.56,2.09,14.06,14.06,0,0,1,13.73-4.22A14.52,14.52,0,0,1,62,60.65a4.28,4.28,0,0,0,7.15-1.36A5,5,0,0,0,68,53.6Z"/><path class="cls-2" d="M18.82,50.78a3.37,3.37,0,0,1,0-.55,2.53,2.53,0,0,0-1.59-3,10.8,10.8,0,0,1-1.17-.72,1.83,1.83,0,0,0-1.84,0c-.6.29-1.19.61-1.75.95a2,2,0,0,1-2.81-.34c-.52-.54-1-1.1-1.52-1.64a1.48,1.48,0,0,1-.2-1.86c.46-.86,1-1.69,1.48-2.52a1.43,1.43,0,0,0,.05-1.55c-.41-.68-.78-1.38-1.15-2.09a1.57,1.57,0,0,0-1.46-.95c-.8,0-1.59-.05-2.38-.08a1.79,1.79,0,0,1-2-1.72c-.14-.71-.35-1.4-.53-2.1a1.59,1.59,0,0,1,.88-1.86A21.23,21.23,0,0,1,5.1,29.45,1.53,1.53,0,0,0,6,28c0-.82,0-1.65.08-2.48,0-1.13-.88-1.48-1.58-2-.45-.33-1-.59-1.43-.89a1.66,1.66,0,0,1-.69-2.07c.29-.79.34-1.64.7-2.42a1.7,1.7,0,0,1,1.64-1.13C5.84,17,7,17.12,8.09,17a1,1,0,0,0,.9-.71,6.32,6.32,0,0,1,1.13-2.07,1.59,1.59,0,0,0,0-1.62,25.65,25.65,0,0,0-1.21-2.4,1.51,1.51,0,0,1,.29-2.08c.66-.66,1.34-1.28,2-1.9a1.22,1.22,0,0,1,1.67-.09c.77.51,1.57,1,2.37,1.42a1.72,1.72,0,0,0,1.84,0c.67-.43,1.41-.72,2.07-1.16A1.78,1.78,0,0,0,20,4.92c0-.85.1-1.71.08-2.56A1.66,1.66,0,0,1,21.52.64c.77-.21,1.55-.33,2.31-.57s1.57.25,2.08,1.31a13.75,13.75,0,0,0,1.24,2.13,1.79,1.79,0,0,0,1.51.77,16.27,16.27,0,0,1,1.85,0,1.82,1.82,0,0,0,1.74-.89,24.4,24.4,0,0,0,1.42-2.21A1.58,1.58,0,0,1,35.34.39a16.59,16.59,0,0,1,3,.88c.55.16.72.71.75,1.25a18.22,18.22,0,0,1,0,2.09,2.45,2.45,0,0,0,1.46,2.75c1,.49,1.82,1.53,3.12.93a14.21,14.21,0,0,0,1.68-.9,2,2,0,0,1,3,.29c.49.48,1,1,1.43,1.5a2,2,0,0,1,0,2.5c-.34.52-.68,1-1,1.57a2,2,0,0,0-.1,2.25c.47.65.71,1.42,1.19,2.07a1.51,1.51,0,0,0,1.29.67c.87,0,1.74.05,2.61.11a1.64,1.64,0,0,1,1.57,1.13A12.9,12.9,0,0,1,56,22.35a1.6,1.6,0,0,1-1,1.75c-.8.45-1.59.92-2.36,1.42a1.43,1.43,0,0,0-.69,1.31,7.2,7.2,0,0,1,0,1.47c-.31,1.5.5,2.31,1.67,2.94.47.26.92.55,1.36.85a1.9,1.9,0,0,1,.63,2.52,9.53,9.53,0,0,0-.47,1.55,1.88,1.88,0,0,1-1.94,1.54c-.67,0-1.34,0-2,0a2.08,2.08,0,0,0-2.26,1.2,9.22,9.22,0,0,1-.79,1.32,2.2,2.2,0,0,0,0,2.46c.25.53.51,1.07.81,1.58.64,1.09.64,1.57-.19,2.47a10.73,10.73,0,0,1-2.14,1.95,1.1,1.1,0,0,1-1.28,0c-.85-.47-1.7-.93-2.52-1.44a1.82,1.82,0,0,0-1.91,0c-.74.4-1.47.83-2.2,1.24-.46.25-.48.72-.54,1.14-.11.84-.15,1.7-.22,2.55-.11,1.42-.51,1.86-1.88,2.09a8.64,8.64,0,0,0-1.79.43A1.41,1.41,0,0,1,32.5,54a15.78,15.78,0,0,1-1.32-2.25,2,2,0,0,0-2-1.25,4.42,4.42,0,0,1-1.15,0c-1.37-.31-2.09.47-2.72,1.51a18.68,18.68,0,0,1-1.23,1.86,1.35,1.35,0,0,1-1.27.52,29.05,29.05,0,0,1-3.27-.84.94.94,0,0,1-.71-1c0-.59,0-1.19,0-1.78Zm10.23-6.44a16.82,16.82,0,0,0,16.74-17,16.79,16.79,0,1,0-16.74,17Z"/><circle class="cls-2" cx="28.94" cy="27.38" r="12.54"/><path class="cls-2" d="M51.37,78.67A6.63,6.63,0,1,1,57.54,72,6.33,6.33,0,0,1,51.37,78.67Z"/><path class="cls-2" d="M28.43,47c.15-.14.3-.28.44-.43a18.67,18.67,0,0,1-8.19-1.94,6,6,0,0,0,.19.79C22,48.86,25.85,49.62,28.43,47Z"/><path class="cls-2" d="M49.75,27.86a3,3,0,0,0,0-.43c-.59,0-1.18.08-1.78.13a19.24,19.24,0,0,1-2.82,9.93c.74-.15,1.49-.26,2.25-.35a4.24,4.24,0,0,1,3.94-1.65c.36,0,.76,0,1.18,0H53a12.76,12.76,0,0,1,.53-1.7h0c-.36-.24-.69-.45-1-.62C49.65,31.61,49.43,29.42,49.75,27.86Z"/><path class="cls-2" d="M81,40.69a30.25,30.25,0,0,0-3.67-3.58q-10.56-8.84-23.17-9.64a5.62,5.62,0,0,1-.09,1.26.39.39,0,0,0,0,.2,3.31,3.31,0,0,0,.58.38,15.86,15.86,0,0,1,1.58,1,4.08,4.08,0,0,1,1.41,5.13,8.23,8.23,0,0,0-.37,1.2,4.06,4.06,0,0,1-.26.79,30.83,30.83,0,0,1,17.49,9.7,4.52,4.52,0,0,0,3.71,1.44,4.15,4.15,0,0,0,3.54-2.77A4.63,4.63,0,0,0,81,40.69Z"/><path class="cls-2" d="M18.82,50.78a3.37,3.37,0,0,1,0-.55,2.53,2.53,0,0,0-1.59-3,10.8,10.8,0,0,1-1.17-.72,1.83,1.83,0,0,0-1.84,0c-.6.29-1.19.61-1.75.95a2,2,0,0,1-2.81-.34c-.52-.54-1-1.1-1.52-1.64a1.48,1.48,0,0,1-.2-1.86c.46-.86,1-1.69,1.48-2.52a1.43,1.43,0,0,0,.05-1.55c-.41-.68-.78-1.38-1.15-2.09a1.57,1.57,0,0,0-1.46-.95c-.8,0-1.59-.05-2.38-.08a1.79,1.79,0,0,1-2-1.72c-.14-.71-.35-1.4-.53-2.1a1.59,1.59,0,0,1,.88-1.86A21.23,21.23,0,0,1,5.1,29.45,1.53,1.53,0,0,0,6,28c0-.82,0-1.65.08-2.48,0-1.13-.88-1.48-1.58-2-.45-.33-1-.59-1.43-.89a1.66,1.66,0,0,1-.69-2.07c.29-.79.34-1.64.7-2.42a1.7,1.7,0,0,1,1.64-1.13C5.84,17,7,17.12,8.09,17a1,1,0,0,0,.9-.71,6.32,6.32,0,0,1,1.13-2.07,1.59,1.59,0,0,0,0-1.62,25.65,25.65,0,0,0-1.21-2.4,1.51,1.51,0,0,1,.29-2.08c.66-.66,1.34-1.28,2-1.9a1.22,1.22,0,0,1,1.67-.09c.77.51,1.57,1,2.37,1.42a1.72,1.72,0,0,0,1.84,0c.67-.43,1.41-.72,2.07-1.16A1.78,1.78,0,0,0,20,4.92c0-.85.1-1.71.08-2.56A1.66,1.66,0,0,1,21.52.64c.77-.21,1.55-.33,2.31-.57s1.57.25,2.08,1.31a13.75,13.75,0,0,0,1.24,2.13,1.79,1.79,0,0,0,1.51.77,16.27,16.27,0,0,1,1.85,0,1.82,1.82,0,0,0,1.74-.89,24.4,24.4,0,0,0,1.42-2.21A1.58,1.58,0,0,1,35.34.39a16.59,16.59,0,0,1,3,.88c.55.16.72.71.75,1.25a18.22,18.22,0,0,1,0,2.09,2.45,2.45,0,0,0,1.46,2.75c1,.49,1.82,1.53,3.12.93a14.21,14.21,0,0,0,1.68-.9,2,2,0,0,1,3,.29c.49.48,1,1,1.43,1.5a2,2,0,0,1,0,2.5c-.34.52-.68,1-1,1.57a2,2,0,0,0-.1,2.25c.47.65.71,1.42,1.19,2.07a1.51,1.51,0,0,0,1.29.67c.87,0,1.74.05,2.61.11a1.64,1.64,0,0,1,1.57,1.13A12.9,12.9,0,0,1,56,22.35a1.6,1.6,0,0,1-1,1.75c-.8.45-1.59.92-2.36,1.42a1.43,1.43,0,0,0-.69,1.31,7.2,7.2,0,0,1,0,1.47c-.31,1.5.5,2.31,1.67,2.94.47.26.92.55,1.36.85a1.9,1.9,0,0,1,.63,2.52,9.53,9.53,0,0,0-.47,1.55,1.88,1.88,0,0,1-1.94,1.54c-.67,0-1.34,0-2,0a2.08,2.08,0,0,0-2.26,1.2,9.22,9.22,0,0,1-.79,1.32,2.2,2.2,0,0,0,0,2.46c.25.53.51,1.07.81,1.58.64,1.09.64,1.57-.19,2.47a10.73,10.73,0,0,1-2.14,1.95,1.1,1.1,0,0,1-1.28,0c-.85-.47-1.7-.93-2.52-1.44a1.82,1.82,0,0,0-1.91,0c-.74.4-1.47.83-2.2,1.24-.46.25-.48.72-.54,1.14-.11.84-.15,1.7-.22,2.55-.11,1.42-.51,1.86-1.88,2.09a8.64,8.64,0,0,0-1.79.43A1.41,1.41,0,0,1,32.5,54a15.78,15.78,0,0,1-1.32-2.25,2,2,0,0,0-2-1.25,4.42,4.42,0,0,1-1.15,0c-1.37-.31-2.09.47-2.72,1.51a18.68,18.68,0,0,1-1.23,1.86,1.35,1.35,0,0,1-1.27.52,29.05,29.05,0,0,1-3.27-.84.94.94,0,0,1-.71-1c0-.59,0-1.19,0-1.78Zm10.23-6.44a16.82,16.82,0,0,0,16.74-17,16.79,16.79,0,1,0-16.74,17Z"/><circle class="cls-2" cx="28.94" cy="27.38" r="12.54"/><path class="cls-2" d="M93,26.61C81.82,15.09,68.55,9.07,51.88,8.36a4.23,4.23,0,0,1-.3,4.53l-.09.14c-.29.44-.56.85-.77,1.24l-.09.19a11.13,11.13,0,0,1,.6,1.08c.09.19.18.36.26.51h.13c.77,0,1.54.05,2.3.1a3.81,3.81,0,0,1,3.27,2.09c.75.09,1.51.2,2.27.33A45.7,45.7,0,0,1,79.63,27.2,90,90,0,0,1,87,33.69c2,1.92,4.79,2,6.54-.13A5.11,5.11,0,0,0,93,26.61Z"/><path class="cls-2" d="M10.08,26.28l-.58.59a4.89,4.89,0,0,0,1.54,8,5.6,5.6,0,0,0,.54.17A19.28,19.28,0,0,1,10,27.69C10,27.22,10.05,26.75,10.08,26.28Z"/><path class="cls-2" d="M46.9,16.79a4.14,4.14,0,0,1-.06-4.56,18.77,18.77,0,0,1,1-1.62l.09-.14s0,0,0-.05c-.37-.41-.75-.8-1.14-1.2l-.09-.08-.16.09a14.62,14.62,0,0,1-2,1,4.35,4.35,0,0,1-4.5-.64L40,9.56c-.89.17-1.77.37-2.64.59a18.66,18.66,0,0,1,8.34,8.06c.63-.08,1.27-.14,1.9-.19-.1-.18-.19-.36-.27-.52A4.38,4.38,0,0,0,46.9,16.79Z"/><path class="cls-2" d="M18.82,50.78a3.37,3.37,0,0,1,0-.55,2.53,2.53,0,0,0-1.59-3,10.8,10.8,0,0,1-1.17-.72,1.83,1.83,0,0,0-1.84,0c-.6.29-1.19.61-1.75.95a2,2,0,0,1-2.81-.34c-.52-.54-1-1.1-1.52-1.64a1.48,1.48,0,0,1-.2-1.86c.46-.86,1-1.69,1.48-2.52a1.43,1.43,0,0,0,.05-1.55c-.41-.68-.78-1.38-1.15-2.09a1.57,1.57,0,0,0-1.46-.95c-.8,0-1.59-.05-2.38-.08a1.79,1.79,0,0,1-2-1.72c-.14-.71-.35-1.4-.53-2.1a1.59,1.59,0,0,1,.88-1.86A21.23,21.23,0,0,1,5.1,29.45,1.53,1.53,0,0,0,6,28c0-.82,0-1.65.08-2.48,0-1.13-.88-1.48-1.58-2-.45-.33-1-.59-1.43-.89a1.66,1.66,0,0,1-.69-2.07c.29-.79.34-1.64.7-2.42a1.7,1.7,0,0,1,1.64-1.13C5.84,17,7,17.12,8.09,17a1,1,0,0,0,.9-.71,6.32,6.32,0,0,1,1.13-2.07,1.59,1.59,0,0,0,0-1.62,25.65,25.65,0,0,0-1.21-2.4,1.51,1.51,0,0,1,.29-2.08c.66-.66,1.34-1.28,2-1.9a1.22,1.22,0,0,1,1.67-.09c.77.51,1.57,1,2.37,1.42a1.72,1.72,0,0,0,1.84,0c.67-.43,1.41-.72,2.07-1.16A1.78,1.78,0,0,0,20,4.92c0-.85.1-1.71.08-2.56A1.66,1.66,0,0,1,21.52.64c.77-.21,1.55-.33,2.31-.57s1.57.25,2.08,1.31a13.75,13.75,0,0,0,1.24,2.13,1.79,1.79,0,0,0,1.51.77,16.27,16.27,0,0,1,1.85,0,1.82,1.82,0,0,0,1.74-.89,24.4,24.4,0,0,0,1.42-2.21A1.58,1.58,0,0,1,35.34.39a16.59,16.59,0,0,1,3,.88c.55.16.72.71.75,1.25a18.22,18.22,0,0,1,0,2.09,2.45,2.45,0,0,0,1.46,2.75c1,.49,1.82,1.53,3.12.93a14.21,14.21,0,0,0,1.68-.9,2,2,0,0,1,3,.29c.49.48,1,1,1.43,1.5a2,2,0,0,1,0,2.5c-.34.52-.68,1-1,1.57a2,2,0,0,0-.1,2.25c.47.65.71,1.42,1.19,2.07a1.51,1.51,0,0,0,1.29.67c.87,0,1.74.05,2.61.11a1.64,1.64,0,0,1,1.57,1.13A12.9,12.9,0,0,1,56,22.35a1.6,1.6,0,0,1-1,1.75c-.8.45-1.59.92-2.36,1.42a1.43,1.43,0,0,0-.69,1.31,7.2,7.2,0,0,1,0,1.47c-.31,1.5.5,2.31,1.67,2.94.47.26.92.55,1.36.85a1.9,1.9,0,0,1,.63,2.52,9.53,9.53,0,0,0-.47,1.55,1.88,1.88,0,0,1-1.94,1.54c-.67,0-1.34,0-2,0a2.08,2.08,0,0,0-2.26,1.2,9.22,9.22,0,0,1-.79,1.32,2.2,2.2,0,0,0,0,2.46c.25.53.51,1.07.81,1.58.64,1.09.64,1.57-.19,2.47a10.73,10.73,0,0,1-2.14,1.95,1.1,1.1,0,0,1-1.28,0c-.85-.47-1.7-.93-2.52-1.44a1.82,1.82,0,0,0-1.91,0c-.74.4-1.47.83-2.2,1.24-.46.25-.48.72-.54,1.14-.11.84-.15,1.7-.22,2.55-.11,1.42-.51,1.86-1.88,2.09a8.64,8.64,0,0,0-1.79.43A1.41,1.41,0,0,1,32.5,54a15.78,15.78,0,0,1-1.32-2.25,2,2,0,0,0-2-1.25,4.42,4.42,0,0,1-1.15,0c-1.37-.31-2.09.47-2.72,1.51a18.68,18.68,0,0,1-1.23,1.86,1.35,1.35,0,0,1-1.27.52,29.05,29.05,0,0,1-3.27-.84.94.94,0,0,1-.71-1c0-.59,0-1.19,0-1.78Zm10.23-6.44a16.82,16.82,0,0,0,16.74-17,16.79,16.79,0,1,0-16.74,17Z"/><circle class="cls-2" cx="28.94" cy="27.38" r="12.54"/></g></g></svg>