<svg xmlns="http://www.w3.org/2000/svg" viewBox="0 0 85.37 85.26"><defs><style>.cls-1{fill:#a4a4a4;}.cls-2{fill:#dfdfdf;}</style></defs><g id="Layer_2" data-name="Layer 2"><g id="Layer_1-2" data-name="Layer 1"><polygon class="cls-1" points="51.01 55.25 44.73 45.93 42.95 47.61 49.09 60.03 49.09 64.99 52.93 64.99 54.71 63.31 53.51 59.54 56.57 45.93 54.78 47.61 51.01 55.25"/><path class="cls-1" d="M41.79,1.68A41.79,41.79,0,1,0,83.58,43.47,41.83,41.83,0,0,0,41.79,1.68ZM80.2,42.24H71.91A30.18,30.18,0,0,0,43.74,13.39V5.08A38.49,38.49,0,0,1,80.2,42.24Zm-38.41,29A27.73,27.73,0,1,1,69.52,43.47,27.76,27.76,0,0,1,41.79,71.2ZM40.72,5.06v8.29a30.18,30.18,0,0,0-29,28.89H3.39A38.46,38.46,0,0,1,40.72,5.06ZM3.4,45.26h8.3A30.19,30.19,0,0,0,39.91,73.55v8.31A38.49,38.49,0,0,1,3.4,45.26ZM42.93,81.88V73.59A30.18,30.18,0,0,0,71.88,45.26h8.3A38.48,38.48,0,0,1,42.93,81.88Z"/><polygon class="cls-1" points="56.54 32.05 25.99 52.2 24.21 53.88 25.56 55.89 57.9 34.06 59.69 32.38 56.54 32.05"/><polygon class="cls-1" points="28.85 40.59 30.64 38.92 31.84 35.66 34.83 40.59 38.79 40.59 40.58 38.92 33.82 32.38 36.61 22.49 34.83 24.16 31.84 29.1 26.67 22.49 24.88 24.16 29.86 32.38 24.88 40.59 28.85 40.59"/><polygon class="cls-2" points="52.79 53.57 49.02 45.93 44.73 45.93 50.87 58.35 50.87 63.31 54.71 63.31 54.71 58.35 60.85 45.93 56.57 45.93 52.79 53.57"/><path class="cls-2" d="M43.58,0A41.79,41.79,0,1,0,85.37,41.79,41.83,41.83,0,0,0,43.58,0ZM82,40.56H73.7A30.19,30.19,0,0,0,45.53,11.71V3.41A38.47,38.47,0,0,1,82,40.56Zm-38.4,29A27.73,27.73,0,1,1,71.31,41.79,27.76,27.76,0,0,1,43.58,69.52ZM42.5,3.38v8.29a30.17,30.17,0,0,0-29,28.89H5.17A38.49,38.49,0,0,1,42.5,3.38ZM5.19,43.59h8.3A30.19,30.19,0,0,0,41.7,71.88v8.3A38.49,38.49,0,0,1,5.19,43.59ZM44.72,80.2V71.91a30.18,30.18,0,0,0,29-28.32H82A38.48,38.48,0,0,1,44.72,80.2Z"/><rect class="cls-2" x="23.33" y="41.08" width="39.02" height="2.42" transform="translate(-16.33 31.21) rotate(-34.02)"/><polygon class="cls-2" points="30.64 38.92 33.63 33.98 36.61 38.92 40.58 38.92 35.61 30.7 40.58 22.49 36.61 22.49 33.63 27.43 30.64 22.49 26.67 22.49 31.64 30.7 26.67 38.92 30.64 38.92"/></g></g></svg>