<svg xmlns="http://www.w3.org/2000/svg" viewBox="0 0 86.8 68.72"><defs><style>.cls-1{fill:#3d752d;}.cls-2{fill:#5dbb46;}</style></defs><g id="Layer_2" data-name="Layer 2"><g id="Layer_1-2" data-name="Layer 1"><path class="cls-1" d="M82.92,11.6c-.11.12-.19.24-.28.34s-.31.32-.47.48Q54.29,40.29,26.43,68.18c-.64.64-1,.79-1.7,0Q12.64,56,.47,44c-.56-.55-.68-.82,0-1.43Q3.76,39.35,6.93,36c.69-.73,1.08-.72,1.78,0,5.36,5.41,10.76,10.78,16.12,16.19.58.58.87.66,1.51,0Q50.18,28.32,74.06,4.45c.7-.7,1.08-.78,1.8,0,2,2.1,4.07,4.11,6.12,6.16C82.29,10.91,82.58,11.24,82.92,11.6Z"/><path class="cls-2" d="M86.8,7.7c-.11.13-.18.25-.28.35l-.47.48Q58.16,36.4,30.31,64.28c-.64.64-1,.79-1.7,0Q16.52,52.14,4.35,40.05c-.56-.55-.68-.81,0-1.43q3.33-3.16,6.5-6.49c.69-.72,1.08-.71,1.79,0C18,37.54,23.35,42.9,28.71,48.31c.58.59.87.67,1.51,0Q54.07,24.43,77.94.56c.7-.71,1.08-.78,1.8,0,2,2.1,4.07,4.11,6.12,6.16Z"/></g></g></svg>