<svg xmlns="http://www.w3.org/2000/svg" viewBox="0 0 73.7 75.71"><defs><style>.cls-1{fill:#a4a4a4;}.cls-2{fill:#dfdfdf;}</style></defs><g id="Layer_2" data-name="Layer 2"><g id="Layer_1-2" data-name="Layer 1"><g id="Layer_2-2" data-name="Layer 2"><g id="Layer_1-2-2" data-name="Layer 1-2"><path class="cls-1" d="M36.85,70.18C17,70.18,7.08,50.81,7.27,36.5c0-8.6-1.74-16.95,3.76-23.56A36.59,36.59,0,0,0,36,75.71H73.69V73Z"/><path class="cls-1" d="M68.66,36.5A29.08,29.08,0,0,0,39.77,7.23h0A28.72,28.72,0,0,0,17.44,17.91a28.63,28.63,0,0,1,19.82-8A29.09,29.09,0,0,1,66.15,39.2h0A29.46,29.46,0,0,1,59.58,57.8,29.4,29.4,0,0,0,68.66,36.5Z"/><path class="cls-2" d="M43.62,0C27.92,0,17.83,4.75,11,12.94A36.65,36.65,0,0,0,2.54,36.5C2.54,56.66,18.67,73,43.6,73H73.7V0ZM39.76,65.77A29.08,29.08,0,0,1,10.87,36.5h0a29.46,29.46,0,0,1,6.57-18.59A28.72,28.72,0,0,1,39.76,7.23a29.08,29.08,0,0,1,28.9,29.26h0a29.4,29.4,0,0,1-9.08,21.3A28.6,28.6,0,0,1,39.76,65.77Z"/></g></g></g></g></svg>