<svg xmlns="http://www.w3.org/2000/svg" viewBox="0 0 68.91 76"><defs><style>.cls-1{fill:#dfdfdf;}.cls-2{fill:none;}.cls-3{fill:#a4a4a4;}</style></defs><g id="Layer_2" data-name="Layer 2"><g id="Layer_1-2" data-name="Layer 1"><path class="cls-1" d="M38.68,73.28A36.73,36.73,0,0,1,11.07,13a36.73,36.73,0,0,0,25.1,63H68.89V73.28Z"/><path class="cls-2" d="M37.37,10a28.7,28.7,0,0,0-19.89,8,29.52,29.52,0,0,0-6.6,18.66A29.2,29.2,0,0,0,39.89,66a28.72,28.72,0,0,0,19.89-8,29.53,29.53,0,0,0,6.59-18.66A29.2,29.2,0,0,0,37.37,10Z"/><path class="cls-1" d="M68.59,36.64c0-16.23-12.69-29.39-28.7-29.39A28.8,28.8,0,0,0,17.48,18a28.7,28.7,0,0,1,19.89-8,29.2,29.2,0,0,1,29,29.39A29.53,29.53,0,0,1,59.78,58,29.26,29.26,0,0,0,68.59,36.64Z"/><path class="cls-3" d="M38.68,0A35.91,35.91,0,0,0,11.07,13,36.73,36.73,0,0,0,38.68,73.28H68.89L68.91,0Zm1.25,66A29.15,29.15,0,0,1,11,36.64,29.49,29.49,0,0,1,17.56,18,28.75,28.75,0,0,1,39.93,7.3c16,0,28.66,13.14,28.66,29.34A29.17,29.17,0,0,1,59.79,58,28.62,28.62,0,0,1,39.93,66Z"/></g></g></svg>