<svg xmlns="http://www.w3.org/2000/svg" viewBox="0 0 283.13 76.51"><defs><style>.cls-1{fill:#dfdfdf;}.cls-2{fill:#a4a4a4;}</style></defs><g id="Layer_2" data-name="Layer 2"><g id="Layer_1-2" data-name="Layer 1"><path class="cls-1" d="M244.19,2.74H36.41A36.65,36.65,0,0,0,0,39.62C0,60,16.3,76.51,36.41,76.51H244.19c20.11,0,36.41-16.52,36.41-36.89A36.65,36.65,0,0,0,244.19,2.74ZM37.62,69.2a29.58,29.58,0,1,1,29.2-29.58A29.39,29.39,0,0,1,37.62,69.2Zm209-3.92H80.71V14H246.63Z"/><path class="cls-2" d="M246.73,0H38.94A36.65,36.65,0,0,0,2.53,36.89,36.65,36.65,0,0,0,38.94,73.77H246.73c20.1,0,36.4-16.51,36.4-36.88S266.83,0,246.73,0Z"/></g></g></svg>