<svg xmlns="http://www.w3.org/2000/svg" viewBox="0 0 139.21 72.43"><defs><style>.cls-1{fill:#dfdfdf;}.cls-2{fill:#a4a4a4;}.cls-3{fill:#fff;}</style></defs><g id="Layer_2" data-name="Layer 2"><g id="Layer_1-2" data-name="Layer 1"><path class="cls-1" d="M102,2.26H57.2c-18.79,0,8.44,14.24,8.44,33.28S38.41,71.23,57.2,71.23H102a34.27,34.27,0,0,0,34-34.49A34.26,34.26,0,0,0,102,2.26ZM98.47,52.91V50.22c0-.18,0-.28.27-.25h2.58c.23,0,.31.07.31.28V53c0,.14-1.57,0-1.72.11-.84.43-.37.67-1.21.24A.35.35,0,0,1,98.47,52.91Zm5.86,2.24c-.57.53-1.14,1.06-1.67,1.59a1.06,1.06,0,0,1-1.11.11c-.91-.82-1.71-1.63-2.59-2.45a4.57,4.57,0,0,0,2.9-.35.5.5,0,0,1,.34,0,4.46,4.46,0,0,0,2.85.39C104.82,54.68,104.56,54.93,104.33,55.15Zm1.28-2.2c0,.14,0-.06-.12,0-.84.42-1.18,0-2-.4-.15-.07-1.06.53-1,.35,0-.46.73-.8.73-1.22a11.26,11.26,0,0,1,0-1.19c0-.18,0-.56.24-.53h1.91c.23,0,.31.07.31.28Zm6.51-7.21c0,.24-.39-.63-.64-.63l-1.14,1.07v2.14a.44.44,0,0,1-.44.44H94.17a.44.44,0,0,1-.44-.44V46.18H92.39a.44.44,0,0,1-.44-.44v-3a.44.44,0,0,1,.44-.44h19.29a.44.44,0,0,1,.44.44ZM111,41.2c-3,0-6,0-9,0s-6.08,0-9.12,0a2.79,2.79,0,0,1-2.79-2.79V20.22A2.83,2.83,0,0,1,93,17.39h18a3,3,0,0,1,3,2.95V38.27A2.93,2.93,0,0,1,111,41.2Z"/><path class="cls-2" d="M44.76,42.07,26.7,41a4.31,4.31,0,0,0-1.46,1.48v2.92a.44.44,0,0,0,.44.43H27V48a.44.44,0,0,0,.43.44H43a3.9,3.9,0,0,0,1.47-1.32l-1-1.24h1.33a4.25,4.25,0,0,0,1.56-1.35l-1.12-2A.44.44,0,0,0,44.76,42.07Z"/><path class="cls-2" d="M100.75,1.06H37.54l-1.2,0-1.14,0A35.22,35.22,0,0,0,2.77,50a37.65,37.65,0,0,0,1.89,3.82C11,65,23.32,72.43,37.54,72.43h63.21c20.61,0,37.31-15.62,37.31-35.69h0C138.06,16.68,121.36,1.06,100.75,1.06ZM35.2,63.92A27.65,27.65,0,0,1,7.72,39.34c-.08-.86-.12-1.72-.12-2.6a29.2,29.2,0,0,1,6.46-18.31,27.66,27.66,0,0,1,48.8,17.83h0A27.66,27.66,0,0,1,35.2,63.92Zm64,2.67H51.31S70,59.44,70,36.26C70,16.49,54.21,6.89,54.21,6.89s35.09.34,45,.34c17.33,0,31.43,13.31,31.43,29.68S116.5,66.59,99.17,66.59Z"/><path class="cls-2" d="M47,20.31a2.92,2.92,0,0,0-2.92-2.92c-5.95,0-11.56-.93-17.5-.94-1.55,0-3.13,2.19-3.13,3.74v18a2.75,2.75,0,0,0,2.76,2.76H44.1c1.6,0,4-1.81,4-3.41C48.08,31.62,47,26.22,47,20.31ZM37,36.22H33.79V25.29H32.67V22.12H37Z"/><path class="cls-1" d="M102.23,33.14l3.3-3.48a4.66,4.66,0,0,0,1-5.13c-.72-1.68-1.43-3.79-3.33-3.79-3,0-5.26,3.32-5.58,4.51l-.27,1,3.17.82L101.64,26s-.55-1,.62-1a1.37,1.37,0,0,1,1.31.81,1.32,1.32,0,0,1-.33,1.49L97,33.84v2.51h9.93l1.14-1.06Z"/><path class="cls-2" d="M103.16,1.2H58.35c-18.8,0,8.44,14.24,8.44,33.28S39.55,70.17,58.35,70.17h44.81a34.27,34.27,0,0,0,34-34.49A34.26,34.26,0,0,0,103.16,1.2ZM99.61,51.85V49.16c0-.18,0-.29.27-.25h2.59c.23,0,.3.07.3.28v2.7a.37.37,0,0,1-.23.35,3,3,0,0,1-2.7,0A.36.36,0,0,1,99.61,51.85Zm5.86,2.23c-.57.54-1.14,1.07-1.67,1.6a1,1,0,0,1-1.1.1c-.92-.81-1.72-1.63-2.59-2.44A4.47,4.47,0,0,0,103,53a.65.65,0,0,1,.34,0,4.37,4.37,0,0,0,2.86.39C106,53.62,105.7,53.87,105.47,54.08Zm1.28-2.19a.37.37,0,0,1-.23.35,3,3,0,0,1-2.7,0,.36.36,0,0,1-.23-.39V49.16c0-.18,0-.29.27-.25h2.59c.23,0,.3.07.3.28Zm6.52-7.22a.44.44,0,0,1-.44.44h-1.35v2.14a.44.44,0,0,1-.44.45H95.32a.44.44,0,0,1-.44-.45V45.11H93.53a.44.44,0,0,1-.44-.44v-3a.44.44,0,0,1,.44-.44h19.3a.44.44,0,0,1,.44.44Zm-1.12-4.53H94.07a2.79,2.79,0,0,1-2.8-2.79q0-9.1,0-18.2a2.83,2.83,0,0,1,2.83-2.82h18a2.93,2.93,0,0,1,2.94,3V37.21A2.92,2.92,0,0,1,112.15,40.14Z"/><path class="cls-3" d="M45.91,41H26.83a.44.44,0,0,0-.44.44v2.92a.43.43,0,0,0,.44.43h1.32v2.12a.44.44,0,0,0,.44.44H44.14a.44.44,0,0,0,.44-.44V44.8h1.33a.43.43,0,0,0,.43-.43V41.45A.44.44,0,0,0,45.91,41Z"/><path class="cls-1" d="M101.89,0H38.69L37.48,0,36.35,0A35.22,35.22,0,0,0,3.91,48.91a35.74,35.74,0,0,0,1.9,3.82c6.3,11.2,18.66,18.63,32.88,18.63h63.2c20.61,0,37.32-15.61,37.32-35.68h0C139.21,15.62,122.5,0,101.89,0ZM36.35,62.86A27.66,27.66,0,0,1,8.86,38.28c-.08-.86-.12-1.72-.12-2.6a29.21,29.21,0,0,1,6.47-18.31A27.65,27.65,0,0,1,64,35.2h0A27.65,27.65,0,0,1,36.35,62.86Zm64,2.67H52.46S71.14,58.37,71.14,35.2c0-19.77-15.79-29.37-15.79-29.37s35.09.34,45,.34c17.33,0,31.43,13.31,31.43,29.68S117.65,65.53,100.32,65.53Z"/><path class="cls-3" d="M48.14,19.25a2.91,2.91,0,0,0-2.91-2.92q-8.92,0-17.84,0a2.8,2.8,0,0,0-2.8,2.8q0,9,0,18a2.76,2.76,0,0,0,2.76,2.76H45.24a2.9,2.9,0,0,0,2.9-2.9Zm-10,15.91H34.93V24.23H33.82V21.05h4.29Z"/><path class="cls-2" d="M103.37,32.08l3.31-3.48a4.68,4.68,0,0,0,1-5.13,4.51,4.51,0,0,0-4.24-2.73,4.8,4.8,0,0,0-4.68,3.45l-.26,1,3.16.82.28-1A1.53,1.53,0,0,1,103.4,24a1.37,1.37,0,0,1,1.32.81,1.33,1.33,0,0,1-.33,1.49l-6.24,6.53v2.51h9.93V32.08Z"/><path class="cls-2" d="M34.75,52.9a5.37,5.37,0,0,0,1-1.31c0-.88-.77-.83-.77-1.72,0-.21-.07-.28-.3-.28-.87,0-1.07-1.08-1.94-1.08-.23,0-.9,1.15-.9,1.33v2.68a.35.35,0,0,0,.23.38A3,3,0,0,0,34.75,52.9Z"/><path class="cls-2" d="M35.55,53.64l-2.43-.72L32.33,54l2.49,2.22a1,1,0,0,0,1.1-.1c.53-.53.78-.8,1.34-1.33.23-.21.71-.64.94-.89A3.78,3.78,0,0,1,35.55,53.64Z"/><path class="cls-2" d="M38.63,49.59c-.87,0-1.07-1.08-1.94-1.08-.22,0-.89,1.15-.89,1.33v2.68a.34.34,0,0,0,.22.38,3,3,0,0,0,2.69,0,5.53,5.53,0,0,0,1-1.3c0-.88-.76-.84-.76-1.73C38.94,49.66,38.86,49.59,38.63,49.59Z"/><path class="cls-3" d="M35.54,51.82a.37.37,0,0,0,.23-.35V48.79c0-.21-.07-.28-.3-.28H32.9c-.23,0-.27.07-.27.25v2.68a.35.35,0,0,0,.23.38A3,3,0,0,0,35.54,51.82Z"/><path class="cls-3" d="M36.34,52.56a.65.65,0,0,0-.34,0,4.44,4.44,0,0,1-2.88.36c.87.81,1.67,1.62,2.58,2.43a1,1,0,0,0,1.09-.11c.53-.53,1.1-1.06,1.67-1.59.22-.21.49-.45.71-.7A4.35,4.35,0,0,1,36.34,52.56Z"/><path class="cls-3" d="M39.42,48.51H36.85c-.23,0-.26.07-.26.25v2.68a.34.34,0,0,0,.22.38,3,3,0,0,0,2.69,0,.39.39,0,0,0,.23-.35V48.79C39.73,48.58,39.65,48.51,39.42,48.51Z"/></g></g></svg>