<svg xmlns="http://www.w3.org/2000/svg" viewBox="0 0 138.86 72.44"><defs><style>.cls-1{fill:#dfdfdf;}.cls-2{fill:#a4a4a4;}.cls-3{fill:#fff;}</style></defs><g id="Layer_2" data-name="Layer 2"><g id="Layer_1-2" data-name="Layer 1"><polygon class="cls-1" points="33.1 22.68 33.1 25.89 34.23 25.89 34.23 36.94 37.44 36.94 38.23 35.86 37.44 22.68 33.89 21.6 33.1 22.68"/><path class="cls-1" d="M2,36.76a34.27,34.27,0,0,0,34,34.49H80.86c18.8,0-8.44-16.64-8.44-35.69S99.66,2.28,80.86,2.28H36.05A34.26,34.26,0,0,0,2,36.76ZM39.1,52.82c-.84.42-.86.31-1.7-.11-.15-.08-1,.4-1,.26v-2.7c0-.21.07-.28.3-.28h2.59c.23,0,.26.07.26.25v2.69C39.63,53.11,39.25,52.75,39.1,52.82ZM33,54.45a4.37,4.37,0,0,0,2.86-.39.65.65,0,0,1,.34,0,4.47,4.47,0,0,0,2.89.36c-.87.81-1.67,1.63-2.59,2.44a1,1,0,0,1-1.1-.1c-.53-.53-1.1-1.06-1.68-1.6C33.51,55,33.24,54.7,33,54.45Zm-.55-4.18c0-.21.07-.28.3-.28h2.59c.23,0,.27.07.27.25v2.69c0,.18-1.67,0-1.82,0-.84.42-.28.79-1.12.36a.38.38,0,0,1-.22-.35ZM25.94,42.8a.44.44,0,0,1,.44-.44h19.3a.44.44,0,0,1,.44.44v3c0,.25-.75-.64-1-.64l-.79,1.08v2.14a.44.44,0,0,1-.44.45H28.17a.44.44,0,0,1-.44-.45V46.19H26.38a.44.44,0,0,1-.44-.44Zm-1.82-4.51q0-9,0-17.93a3,3,0,0,1,2.95-2.95h18a2.81,2.81,0,0,1,2.82,2.82v18.2a2.78,2.78,0,0,1-2.79,2.79H27.05A2.93,2.93,0,0,1,24.12,38.29Z"/><path class="cls-2" d="M0,36.76H0C0,56.83,16.71,72.44,37.32,72.44h63.2c14.22,0,26.58-7.43,32.88-18.64A34.68,34.68,0,0,0,135.3,50,35.2,35.2,0,0,0,102.86,1.08l-1.13,0-1.21,0H37.32C16.71,1.08,0,16.7,0,36.76Zm75.21-.48h0A27.65,27.65,0,0,1,124,18.45a29.21,29.21,0,0,1,6.47,18.31c0,.88-.05,1.74-.12,2.6a27.66,27.66,0,0,1-55.14-3.08Zm-67.75.65c0-16.37,14.1-29.68,31.43-29.68,9.88,0,45-.34,45-.34s-15.78,9.6-15.78,29.37c0,23.17,18.68,30.33,18.68,30.33H38.89C21.56,66.61,7.46,53.3,7.46,36.93Z"/><path class="cls-2" d="M112.82,42.2l-18.64-1c-.24,0-1,1.19-1,1.43v2.93a.44.44,0,0,0,.44.44H95v2.13a.44.44,0,0,0,.44.44h15.63a3.46,3.46,0,0,0,1.21-1.41L111.49,46h1.33A3.46,3.46,0,0,0,114,44.6l-.77-2A.44.44,0,0,0,112.82,42.2Z"/><path class="cls-2" d="M102.6,53.09a5.37,5.37,0,0,0,1-1.31c0-.88-.77-.84-.77-1.72,0-.21-.07-.28-.3-.28-.87,0-1.07-1.08-1.94-1.08-.23,0-.9,1.15-.9,1.33v2.68a.35.35,0,0,0,.23.38A3,3,0,0,0,102.6,53.09Z"/><path class="cls-2" d="M103.4,53.83,101,53.11l-.79,1.07,2.49,2.22a1,1,0,0,0,1.1-.1c.53-.53.78-.8,1.34-1.33.23-.21.71-.64.94-.89A3.78,3.78,0,0,1,103.4,53.83Z"/><path class="cls-2" d="M106.48,49.78c-.87,0-1.07-1.08-1.94-1.08-.22,0-.89,1.15-.89,1.33v2.68a.34.34,0,0,0,.22.38,3,3,0,0,0,2.69,0,5.53,5.53,0,0,0,1-1.3c0-.88-.76-.85-.76-1.73C106.79,49.85,106.71,49.78,106.48,49.78Z"/><path class="cls-2" d="M112.14,17.41H94.21a2.8,2.8,0,0,0-2.8,2.81V38.29a2.77,2.77,0,0,0,2.77,2.78h18a2.9,2.9,0,0,0,2.91-2.91V20.34A2.92,2.92,0,0,0,112.14,17.41Zm-4.27,18.53H98l-.15-3.13,5.6-6c.6-.63,1.17-1.11,1.07-1.34a1.28,1.28,0,0,0-.56-.63,2.74,2.74,0,0,0-.51-.06c-.88,0,.77-.89.17-1.17-.08,0-.92.25-1.88,2.14a5.74,5.74,0,0,0-.27,1l-3.15-.82.26-1a4.77,4.77,0,0,1,4.65-3.43,4.48,4.48,0,0,1,4.21,2.71,4.63,4.63,0,0,1-1,5.1L104,31.67l-.79,1.08h4.68Z"/><polygon class="cls-2" points="33.89 21.6 33.89 24.82 35.02 24.82 35.02 35.86 38.23 35.86 38.23 21.6 33.89 21.6"/><path class="cls-2" d="M2.8,35.68a34.27,34.27,0,0,0,34,34.49H81.65c18.8,0-8.44-16.64-8.44-35.69S100.45,1.2,81.65,1.2H36.84A34.26,34.26,0,0,0,2.8,35.68ZM40.16,52.24a3,3,0,0,1-2.7,0,.37.37,0,0,1-.23-.35v-2.7c0-.21.07-.28.3-.28h2.59c.23,0,.27.07.27.25v2.69A.36.36,0,0,1,40.16,52.24ZM33.8,53.37A4.37,4.37,0,0,0,36.66,53,.65.65,0,0,1,37,53a4.47,4.47,0,0,0,2.89.36c-.87.81-1.67,1.63-2.59,2.44a1,1,0,0,1-1.1-.1c-.53-.53-1.1-1.06-1.68-1.6C34.3,53.87,34,53.62,33.8,53.37Zm-.55-4.18c0-.21.07-.28.3-.28h2.59c.23,0,.27.07.27.25v2.69a.36.36,0,0,1-.23.39,3,3,0,0,1-2.7,0,.37.37,0,0,1-.23-.35Zm-6.52-7.47a.44.44,0,0,1,.44-.44h19.3a.44.44,0,0,1,.44.44v3a.44.44,0,0,1-.44.44H45.12v2.14a.44.44,0,0,1-.44.45H29a.44.44,0,0,1-.44-.45V45.11H27.17a.44.44,0,0,1-.44-.44Zm-1.82-4.51q0-9,0-17.93a3,3,0,0,1,2.95-3h18a2.81,2.81,0,0,1,2.82,2.82v18.2a2.78,2.78,0,0,1-2.79,2.79H27.84A2.93,2.93,0,0,1,24.91,37.21Z"/><path class="cls-1" d="M.79,35.68h0c0,20.07,16.71,35.68,37.32,35.68h63.2c14.22,0,26.58-7.43,32.88-18.63a35.74,35.74,0,0,0,1.9-3.82A35.2,35.2,0,0,0,103.65,0l-1.13,0-1.21,0H38.11C17.5,0,.79,15.62.79,35.68ZM76,35.2h0a27.65,27.65,0,0,1,48.79-17.83,29.21,29.21,0,0,1,6.47,18.31c0,.88,0,1.74-.12,2.6A27.66,27.66,0,0,1,76,35.2Zm-67.75.65c0-16.37,14.1-29.68,31.43-29.68,9.88,0,45-.34,45-.34S68.86,15.43,68.86,35.2c0,23.17,18.68,30.33,18.68,30.33H39.68C22.35,65.53,8.25,52.22,8.25,35.85Z"/><path class="cls-3" d="M113.61,41.12H94.44a.44.44,0,0,0-.44.44v2.93a.44.44,0,0,0,.44.44h1.34v2.13a.44.44,0,0,0,.43.44h15.63a.44.44,0,0,0,.44-.44V44.93h1.33a.44.44,0,0,0,.44-.44V41.56A.44.44,0,0,0,113.61,41.12Z"/><path class="cls-3" d="M103.39,52a.37.37,0,0,0,.23-.35V49c0-.21-.07-.28-.3-.28h-2.57c-.23,0-.27.07-.27.25v2.68a.35.35,0,0,0,.23.38A3,3,0,0,0,103.39,52Z"/><path class="cls-3" d="M104.19,52.75a.65.65,0,0,0-.34,0,4.44,4.44,0,0,1-2.88.36c.87.81,1.67,1.62,2.58,2.43a1,1,0,0,0,1.09-.11c.53-.53,1.1-1.06,1.67-1.59.22-.21.49-.45.71-.7A4.35,4.35,0,0,1,104.19,52.75Z"/><path class="cls-3" d="M107.27,48.7H104.7c-.23,0-.26.07-.26.25v2.68a.34.34,0,0,0,.22.38,3,3,0,0,0,2.69,0,.39.39,0,0,0,.23-.35V49C107.58,48.77,107.5,48.7,107.27,48.7Z"/><path class="cls-3" d="M112.93,16.33H95a2.81,2.81,0,0,0-2.81,2.81V37.21A2.77,2.77,0,0,0,95,40h18a2.9,2.9,0,0,0,2.91-2.91V19.26A2.92,2.92,0,0,0,112.93,16.33Zm-4.27,18.53H98.8v-2.5L105,25.88a1.36,1.36,0,0,0-.23-2.1,1.55,1.55,0,0,0-2.22.9,6.93,6.93,0,0,0-.27,1l-3.15-.82.27-1A4.75,4.75,0,0,1,104,20.4a4.48,4.48,0,0,1,4.21,2.71,4.63,4.63,0,0,1-1,5.1L104,31.67h4.68Z"/></g></g></svg>