<svg xmlns="http://www.w3.org/2000/svg" viewBox="0 0 140 74.47"><defs><style>.cls-1{fill:#a4a4a4;}.cls-2{fill:#dfdfdf;}.cls-3{fill:#ee2b24;}.cls-4{fill:#a01a1a;}.cls-5{fill:#3d752d;}.cls-6{fill:#5dbb46;}</style></defs><g id="Layer_2" data-name="Layer 2"><g id="Layer_1-2" data-name="Layer 1"><path class="cls-1" d="M135.36,23.9A36.38,36.38,0,0,0,101.82,1.68H36.4A36.4,36.4,0,0,0,22.23,71.61,36.17,36.17,0,0,0,36.4,74.47h65.42A36.42,36.42,0,0,0,135.36,23.9Zm-70,14.17A28.93,28.93,0,1,1,36.4,9.15,28.92,28.92,0,0,1,65.32,38.07Zm65.43,0A28.93,28.93,0,0,1,101.82,67H58.24A36.91,36.91,0,0,0,62,63.7a36.19,36.19,0,0,0,0-51.25,34.62,34.62,0,0,0-3.78-3.3h43.58a28.92,28.92,0,0,1,28.93,28.92Z"/><path class="cls-1" d="M78,10.77a36.91,36.91,0,0,1,3.78-3.3H38.18A28.93,28.93,0,0,0,9.25,36.4h0A28.92,28.92,0,0,0,38.18,65.32H81.76A34.62,34.62,0,0,1,78,62a36.2,36.2,0,0,1,0-51.25Z"/><path class="cls-2" d="M137.14,22.23A36.37,36.37,0,0,0,103.6,0H38.18A36.42,36.42,0,0,0,4.64,50.57a36.56,36.56,0,0,0,7.8,11.57A36.4,36.4,0,0,0,38.18,72.8H103.6a36.4,36.4,0,0,0,25.74-10.66,36.56,36.56,0,0,0,7.8-11.57,36.53,36.53,0,0,0,0-28.34ZM103.6,65.32A28.93,28.93,0,1,1,130,24.49c.1.22.19.43.28.65a29.37,29.37,0,0,1,1.18,3.34c.06.23.13.46.19.69.17.69.33,1.4.45,2.11a28.9,28.9,0,0,1-28.47,34ZM9.25,36.4h0A28.93,28.93,0,0,1,38.18,7.47H81.76A36.91,36.91,0,0,0,78,10.77,36.19,36.19,0,0,0,78,62a34.62,34.62,0,0,0,3.78,3.3H38.18A28.92,28.92,0,0,1,9.25,36.4Z"/><rect class="cls-3" x="34.33" y="17.24" width="5.39" height="40.62" transform="translate(37.4 -15.18) rotate(45)"/><rect class="cls-3" x="34.33" y="17.24" width="5.39" height="40.62" transform="translate(89.75 37.93) rotate(135)"/><rect class="cls-4" x="36.63" y="14.93" width="5.39" height="40.62" transform="translate(36.44 -17.49) rotate(45)"/><rect class="cls-4" x="36.63" y="14.93" width="5.39" height="40.62" transform="translate(92.06 32.36) rotate(135)"/><path class="cls-5" d="M122.37,25.58a1.26,1.26,0,0,1-.13.17L122,26Q108.78,39.21,95.54,52.46c-.3.3-.45.37-.81,0Q89,46.69,83.21,41c-.26-.26-.32-.39,0-.68,1.06-1,2.08-2,3.09-3.08.33-.35.51-.34.85,0,2.54,2.57,5.11,5.12,7.65,7.68.28.28.42.32.72,0q11.32-11.36,22.67-22.7c.33-.33.51-.37.85,0,.94,1,1.93,2,2.9,2.93Z"/><path class="cls-6" d="M124.21,23.74a1,1,0,0,1-.13.16l-.22.23L97.38,50.61c-.3.3-.45.38-.8,0Q90.84,44.84,85.05,39.1c-.26-.26-.32-.39,0-.68q1.58-1.5,3.08-3.08c.33-.35.52-.34.85,0,2.54,2.57,5.11,5.12,7.65,7.68.28.28.42.32.72,0Q108.67,31.69,120,20.34c.33-.33.51-.37.85,0,1,1,1.94,2,2.91,2.93C123.92,23.41,124.06,23.57,124.21,23.74Z"/></g></g></svg>