<svg xmlns="http://www.w3.org/2000/svg" viewBox="0 0 40.5 33.52"><defs><style>.cls-1{fill:#fff;}</style></defs><g id="Layer_2" data-name="Layer 2"><g id="Layer_1-2" data-name="Layer 1"><path class="cls-1" d="M32.63,33.52H.94a.94.94,0,0,1-.68-1.58l6.92-7.35a.92.92,0,0,1,.68-.29h31.7a.94.94,0,0,1,.68,1.58l-6.92,7.35A1,1,0,0,1,32.63,33.52Z"/><path class="cls-1" d="M10.32,0c.3.49.6,1,.91,1.47l3.83,6.16,0,.09H11.55l.14.24a4.37,4.37,0,0,1,.64,2.51,4.94,4.94,0,0,1-.62,2.06,19,19,0,0,1-1.27,1.9,8.33,8.33,0,0,0-.78,1.32,2.52,2.52,0,0,0,.46,2.74,5.42,5.42,0,0,0,1.31,1c.1.05.08.09,0,.18l-1,1.6-.16-.08a7.56,7.56,0,0,1-2-1.84,4.43,4.43,0,0,1-.92-2.59,4.58,4.58,0,0,1,.47-2.1A12.13,12.13,0,0,1,9,12.81a8.92,8.92,0,0,0,1-1.56,2.5,2.5,0,0,0-.07-2.33,3.68,3.68,0,0,0-1-1.11.4.4,0,0,0-.25-.09H5.52s.83-1.38,1.23-2C7.93,3.81,9.11,1.9,10.3,0Z"/><path class="cls-1" d="M22.72,0l.9,1.47q1.92,3.08,3.83,6.16a.24.24,0,0,1,.05.09H23.94c.06.09.1.17.14.24a4.29,4.29,0,0,1,.64,2.51,4.8,4.8,0,0,1-.62,2.06,17.37,17.37,0,0,1-1.26,1.9,7.63,7.63,0,0,0-.78,1.32,2.5,2.5,0,0,0,.46,2.74,5.37,5.37,0,0,0,1.3,1c.1.05.09.09,0,.18-.33.49-1,1.6-1,1.6l-.16-.08a7.71,7.71,0,0,1-2-1.84,4.5,4.5,0,0,1-.92-2.59,4.58,4.58,0,0,1,.47-2.1,13,13,0,0,1,1.19-1.88,8.92,8.92,0,0,0,1-1.56,2.47,2.47,0,0,0-.08-2.33,3.65,3.65,0,0,0-1-1.11A.41.41,0,0,0,21,7.72H17.91s.84-1.38,1.23-2C20.33,3.81,21.51,1.9,22.69,0Z"/><path class="cls-1" d="M35.12,0,36,1.47l3.83,6.16,0,.09H36.34c.06.09.1.17.14.24a4.37,4.37,0,0,1,.64,2.51,4.8,4.8,0,0,1-.62,2.06,19,19,0,0,1-1.26,1.9,7,7,0,0,0-.78,1.32,2.5,2.5,0,0,0,.45,2.74,5.42,5.42,0,0,0,1.31,1c.1.05.09.09,0,.18l-1,1.6-.16-.08a7.56,7.56,0,0,1-2-1.84,4.43,4.43,0,0,1-.92-2.59,4.58,4.58,0,0,1,.47-2.1,12.93,12.93,0,0,1,1.18-1.88,8.36,8.36,0,0,0,1-1.56,2.44,2.44,0,0,0-.07-2.33,3.56,3.56,0,0,0-1-1.11.38.38,0,0,0-.25-.09H30.31s.84-1.38,1.23-2L35.09,0Z"/></g></g></svg>