<svg xmlns="http://www.w3.org/2000/svg" viewBox="0 0 40.86 40.86"><defs><style>.cls-1{fill:#fff;}</style></defs><g id="Layer_2" data-name="Layer 2"><g id="Layer_1-2" data-name="Layer 1"><path class="cls-1" d="M37.66,0H3.2A3.2,3.2,0,0,0,0,3.2V37.66a3.2,3.2,0,0,0,3.2,3.2H37.66a3.21,3.21,0,0,0,3.2-3.2V3.2A3.2,3.2,0,0,0,37.66,0Zm-.33,4.63v30.1a.81.81,0,0,1-.81.81H4.33a.81.81,0,0,1-.81-.81V4.63a.81.81,0,0,1,.81-.81H36.52A.81.81,0,0,1,37.33,4.63Z"/><path class="cls-1" d="M11,12.35l.69,1.11c1,1.56,1.93,3.12,2.9,4.67l0,.07H12c0,.08.08.13.11.19a3.31,3.31,0,0,1,.48,1.9,3.77,3.77,0,0,1-.47,1.57,13.86,13.86,0,0,1-1,1.44,5.84,5.84,0,0,0-.59,1,1.89,1.89,0,0,0,.35,2.07,3.71,3.71,0,0,0,1,.78c.07.05.07.08,0,.14l-.78,1.22L11,28.44a5.5,5.5,0,0,1-1.54-1.39,3.44,3.44,0,0,1-.7-2,3.49,3.49,0,0,1,.36-1.59,8.73,8.73,0,0,1,.9-1.42,7.2,7.2,0,0,0,.74-1.19,1.85,1.85,0,0,0-.06-1.77,2.73,2.73,0,0,0-.78-.84.34.34,0,0,0-.19-.07H7.39s.63-1.05.93-1.53L11,12.35Z"/><path class="cls-1" d="M20.44,12.35l.68,1.11L24,18.13l0,.07H21.36l.11.19a3.32,3.32,0,0,1,.49,1.9,3.77,3.77,0,0,1-.47,1.57,15.66,15.66,0,0,1-1,1.44,4.78,4.78,0,0,0-.59,1,1.87,1.87,0,0,0,.34,2.07,3.87,3.87,0,0,0,1,.78c.08.05.07.08,0,.14-.25.37-.78,1.22-.78,1.22l-.13-.07a5.64,5.64,0,0,1-1.54-1.39,3.36,3.36,0,0,1-.69-2,3.49,3.49,0,0,1,.35-1.59,10.34,10.34,0,0,1,.9-1.42,6.59,6.59,0,0,0,.74-1.19,1.88,1.88,0,0,0,0-1.77,2.76,2.76,0,0,0-.79-.84.34.34,0,0,0-.19-.07H16.79s.64-1.05.93-1.53l2.7-4.33Z"/><path class="cls-1" d="M29.84,12.35l.69,1.11c1,1.56,1.93,3.12,2.9,4.67l0,.07h-2.7a1.6,1.6,0,0,0,.11.19,3.31,3.31,0,0,1,.48,1.9,3.77,3.77,0,0,1-.47,1.57,13.86,13.86,0,0,1-1,1.44,5.84,5.84,0,0,0-.59,1,1.89,1.89,0,0,0,.35,2.07,3.71,3.71,0,0,0,1,.78c.07.05.07.08,0,.14l-.78,1.22-.12-.07a5.5,5.5,0,0,1-1.54-1.39,3.44,3.44,0,0,1-.7-2,3.49,3.49,0,0,1,.36-1.59,8.73,8.73,0,0,1,.9-1.42,7.2,7.2,0,0,0,.74-1.19,1.85,1.85,0,0,0-.06-1.77,2.73,2.73,0,0,0-.78-.84.35.35,0,0,0-.2-.07H26.19s.64-1.05.94-1.53l2.69-4.33Z"/></g></g></svg>