<svg xmlns="http://www.w3.org/2000/svg" viewBox="0 0 88.32 34.24"><defs><style>.cls-1{fill:#f05a28;}.cls-2{fill:#f6921e;}.cls-3{fill:#ec1c24;}</style></defs><g id="Layer_2" data-name="Layer 2"><g id="Layer_1-2" data-name="Layer 1"><path class="cls-1" d="M78.12,20.56h-7.8a2.38,2.38,0,0,1-2.39-2.38q0-7.8,0-15.58A2.42,2.42,0,0,1,70.35.18H85.79A2.52,2.52,0,0,1,88.32,2.7q0,7.68,0,15.36a2.5,2.5,0,0,1-2.51,2.5Zm8.57-10.17A8.64,8.64,0,1,0,77.9,19,8.66,8.66,0,0,0,86.69,10.39Zm0,7.72a.91.91,0,0,0-1.82,0,.92.92,0,0,0,.92.92A.9.9,0,0,0,86.69,18.11ZM69.41,2.62a.88.88,0,0,0,.88.92.91.91,0,0,0,.93-.91.92.92,0,0,0-.9-.91A.91.91,0,0,0,69.41,2.62Zm17.28,0a.91.91,0,0,0-.9-.91.91.91,0,1,0,0,1.82A.9.9,0,0,0,86.69,2.63ZM70.32,17.2a.91.91,0,1,0,0,1.81.91.91,0,0,0,0-1.81Z"/><path class="cls-2" d="M84.77,9.88a5.16,5.16,0,0,0-5.53-.78l-.33-.16c-1.66-1.66,3.25-3.6,4.68-3.11a6.92,6.92,0,0,0-4.37-2.55C76.81,3.17,76,6.77,76.73,8.65c.25.69.25.67-.25,1.2a.38.38,0,0,1-.57.05c-1.83-1.07-2.33-3.11-2.22-5.12-1.52,1.22-3.78,4.49-2,6.2a4.87,4.87,0,0,0,4.83.82c.65-.26.64-.26,1.13.22.44,2-3.25,3.16-4.94,2.89,1.2,1.47,4.31,3.65,6,1.92a4.62,4.62,0,0,0,.92-4.66c-.4-3.86,3.89,1,3,3.73C84.06,15,86.18,11.51,84.77,9.88Z"/><rect class="cls-2" x="69.49" y="21.54" width="17.27" height="3.28" rx="0.38"/><rect class="cls-2" x="71.02" y="23.62" width="14.22" height="3.42" rx="0.38"/><path class="cls-1" d="M75.07,29.47V28.29c0-.15,0-.25.23-.22h2.22c.19,0,.26.07.26.25v2.3a.35.35,0,0,1-.2.31,2.61,2.61,0,0,1-2.31,0,.32.32,0,0,1-.2-.34Z"/><path class="cls-1" d="M75.5,31.87A3.81,3.81,0,0,0,78,31.56a.48.48,0,0,1,.29,0,3.78,3.78,0,0,0,2.45.34c-.2.21-.43.42-.62.6-.49.46-1,.92-1.43,1.37a.91.91,0,0,1-1,.09C76.93,33.26,76.24,32.57,75.5,31.87Z"/><path class="cls-1" d="M78.48,29.47V28.29c0-.15,0-.25.23-.22h2.21c.2,0,.26.07.26.25v2.3a.34.34,0,0,1-.19.31,2.63,2.63,0,0,1-2.32,0,.31.31,0,0,1-.19-.34Z"/><polygon class="cls-3" points="22.12 14.08 4.35 14.08 4.35 0 0 0 0 34.24 4.35 34.24 4.35 18.42 22.12 18.42 22.12 34.24 26.46 34.24 26.46 0 22.12 0 22.12 14.08"/><polygon class="cls-3" points="30.33 0 30.33 4.35 42.39 4.35 42.39 34.24 46.74 34.24 46.74 4.35 58.8 4.35 58.8 0 30.33 0"/></g></g></svg>