<svg xmlns="http://www.w3.org/2000/svg" viewBox="0 0 176.02 58.41"><defs><style>.cls-1{font-size:65.78px;font-family:Momcake-Thin, Momcake;font-weight:200;}.cls-1,.cls-3{fill:#fff;}.cls-2{letter-spacing:-0.03em;}</style></defs><g id="Layer_2" data-name="Layer 2"><g id="Layer_1-2" data-name="Layer 1"><text class="cls-1" transform="translate(47.91 49.93)">hi<tspan class="cls-2" x="39.73" y="0">p</tspan><tspan x="66.43" y="0">s</tspan></text><path class="cls-3" d="M24.78,18.14c2.56,1.35,3.71,6.44,4.18,9.06,1.2,6.56,1.14,19.1-3.09,24.51-.81,1-1.82,1.22-2.74.23a9.11,9.11,0,0,1-1.85-3.11c-2.83-7.6-2.88-19.29,0-26.9.58-1.42,1.31-3,2.75-3.79ZM23.53,49.72a.88.88,0,0,0,.86.6.91.91,0,0,0,.89-.62c3.09-6.54,3.13-16.55,1.69-23.57A20.27,20.27,0,0,0,25.27,21a.9.9,0,0,0-.85-.6.92.92,0,0,0-.9.61,14.94,14.94,0,0,0-1.3,3.48C20.52,31.64,19.41,40.41,23.53,49.72Z" transform="translate(0)"/><path class="cls-3" d="M5.64,18.14a5.13,5.13,0,0,1,2,2.27c-.72,0-1.39,0-2.06,0s-1,.1-1.29.74C1,28.48,1,41.19,3.92,48.7c.15.36.33.71.49,1.06a1,1,0,0,0,1,.57H7.67A5.07,5.07,0,0,1,5.92,52.4c-1.24.74-2.4-.88-2.93-1.81C-.82,43.53-.74,30.28,1.83,22.74c.59-1.64,1.4-3.69,3.05-4.6Z" transform="translate(0)"/><path class="cls-3" d="M3.52,35.77c0-5,.37-9.23,2.17-13.61a.42.42,0,0,1,.48-.29c.6,0,1.2,0,1.8,0,.29,0,.35,0,.25.3a27.35,27.35,0,0,0-1.37,5c-1.17,6.9-1.08,14.75,1.37,21.38.1.24.09.34-.25.33-.6,0-1.21,0-1.81,0a.43.43,0,0,1-.47-.3C4,44.68,3.52,39.68,3.52,35.77Z" transform="translate(0)"/><path class="cls-3" d="M18.38,21.87c.28.05.81-.16,1,.09s-.13.61-.22.92a45.69,45.69,0,0,0-1.52,17.29,39.61,39.61,0,0,0,1.72,8.31c.11.33.05.4-.33.38s-1,0-1.53,0a.49.49,0,0,1-.54-.33,23.85,23.85,0,0,1-1.51-5.3c-1.09-6.58-1-14.74,1.49-21a.5.5,0,0,1,.6-.37A7.41,7.41,0,0,0,18.38,21.87Z" transform="translate(0)"/><path class="cls-3" d="M7.87,36.54a11.26,11.26,0,0,1-.06-2.33c.27-4.08.57-8.28,2.25-12.11a.36.36,0,0,1,.38-.23c1.39-.08,1.38-.08,1,1C9,30.45,8.93,41,11.68,48.5c.12.31.05.37-.3.36-1.25,0-1.26,0-1.64-1A36.14,36.14,0,0,1,7.87,36.54Z" transform="translate(0)"/><path class="cls-3" d="M11.35,35.66c0-4.86.38-9.17,2.17-13.49a.4.4,0,0,1,.47-.3c.4,0,1-.15,1.18.07s-.17.63-.28,1c-2.41,7.61-2.51,18,.27,25.56.14.36,0,.4-.35.39-1.17,0-1.19,0-1.57-1A35.74,35.74,0,0,1,11.35,35.66Z" transform="translate(0)"/><path class="cls-3" d="M19.12,20.77c.92,0,.92,0,1.13-.78.86-2.86-.25-5.45-3.5-5.87-1.51-.23-1.5-.21-1.48,1.1,0,.25.09.33.37.33a5,5,0,0,1,1.49.23,2.11,2.11,0,0,1,1.58,1.77,5.74,5.74,0,0,1-.38,2.78c-.15.44-.15.44.41.44Z" transform="translate(0)"/><ellipse class="cls-3" cx="24.42" cy="35.54" rx="1.01" ry="5.99"/></g></g></svg>