<svg xmlns="http://www.w3.org/2000/svg" viewBox="0 0 11.24 26.8"><defs><style>.cls-1{fill:#fff;}</style></defs><g id="Layer_2" data-name="Layer 2"><g id="Layer_1-2" data-name="Layer 1"><path class="cls-1" d="M8.64,19v1.12c0,.48-.13.6-.61.61H7.78V26.2c0,.46-.14.6-.59.6H4c-.43,0-.57-.15-.57-.57V20.76H3.21c-.5,0-.62-.13-.62-.63V19H2.22a.44.44,0,0,1-.49-.51c0-1,0-2,0-3.05a1,1,0,0,0-.1-.4L.14,12.45A1.14,1.14,0,0,1,0,11.94Q0,6.66,0,1.38A1.29,1.29,0,0,1,1.39,0H9.84a1.31,1.31,0,0,1,1.4,1.4q0,5.28,0,10.54a1.12,1.12,0,0,1-.15.53c-.47.86-1,1.7-1.45,2.56a1,1,0,0,0-.12.45c0,1,0,1.93,0,2.89,0,.53-.12.64-.63.65ZM.86,7.79c0,1.38,0,2.73,0,4.08a.61.61,0,0,0,.09.28c.45.79.9,1.57,1.34,2.36a.32.32,0,0,0,.32.19h6a.32.32,0,0,0,.32-.18c.44-.79.9-1.58,1.34-2.37a.83.83,0,0,0,.1-.38v-4h-3v3A1.3,1.3,0,0,1,6,12.1H5.26a1.29,1.29,0,0,1-1.37-1.37V7.79ZM1.73.89C1.11.81.85.88.86,1.62c0,1.67,0,3.33,0,5v.3h3A.33.33,0,0,0,4,6.74a1.32,1.32,0,0,1,1.15-.69h.86a1.24,1.24,0,0,1,1.12.68.32.32,0,0,0,.34.19h2.86V1.29A.4.4,0,0,0,10,.88a2.77,2.77,0,0,0-.5,0v2.9A1.31,1.31,0,0,1,8.1,5.19H3.16A1.31,1.31,0,0,1,1.73,3.76Zm.86,0V3.78c0,.39.16.54.54.54h5c.4,0,.54-.15.54-.56V1.09c0-.07,0-.14,0-.22ZM4.34,20.76v5.15H6.9V20.76ZM4.75,9.05c0,.57,0,1.13,0,1.7a.44.44,0,0,0,.48.49H6a.43.43,0,0,0,.46-.46V7.37A.42.42,0,0,0,6,6.92H5.27c-.36,0-.51.16-.52.51Zm3.88,6.53h-6v2.55h6ZM3.47,19v.83H7.76V19Z"/><path class="cls-1" d="M4.31,1.75V3.44H3.47V1.75Z"/><path class="cls-1" d="M5.21,1.74H6v1.7H5.21Z"/><path class="cls-1" d="M7.76,3.45H6.93V1.74h.83Z"/></g></g></svg>