<svg xmlns="http://www.w3.org/2000/svg" viewBox="0 0 13.86 12.27"><defs><style>.cls-1{fill:#fff;}</style></defs><g id="Layer_2" data-name="Layer 2"><g id="Layer_1-2" data-name="Layer 1"><path class="cls-1" d="M0,4.13A1.87,1.87,0,0,1,.58,2.76,8.64,8.64,0,0,1,5.66.1a8.57,8.57,0,0,1,7.59,2.63A1.91,1.91,0,0,1,13.7,4.9,1.63,1.63,0,0,1,11,5.42,5.55,5.55,0,0,0,8.15,3.76,5.34,5.34,0,0,0,2.94,5.37a1.66,1.66,0,0,1-2.88-.8A3.11,3.11,0,0,1,0,4.13Z"/><path class="cls-1" d="M6.93,12.27A2.4,2.4,0,0,1,4.59,9.74,2.41,2.41,0,0,1,6.92,7.23,2.41,2.41,0,0,1,9.28,9.74,2.4,2.4,0,0,1,6.93,12.27Z"/></g></g></svg>