<svg xmlns="http://www.w3.org/2000/svg" viewBox="0 0 32.92 28.9"><defs><style>.cls-1{fill:#d0d2d3;}.cls-2{fill:#929497;}</style></defs><g id="Layer_2" data-name="Layer 2"><g id="Layer_1-2" data-name="Layer 1"><path class="cls-1" d="M15.87,2A22.17,22.17,0,0,1,32.3,9a2,2,0,0,1,.19,2.65,1.65,1.65,0,0,1-2.49,0,32.42,32.42,0,0,0-2.79-2.47A17.35,17.35,0,0,0,19.54,6,18,18,0,0,0,10,6.86a18.88,18.88,0,0,0-7.09,4.8,1.57,1.57,0,0,1-1.81.48,1.86,1.86,0,0,1-.59-3A22.5,22.5,0,0,1,4,6.08a21,21,0,0,1,8.45-3.63C13.76,2.21,15.1,2.13,15.87,2Z"/><path class="cls-1" d="M26.65,17.35a1.7,1.7,0,0,1-1.41-.55,11.87,11.87,0,0,0-17.5-.06,1.65,1.65,0,0,1-2.88-.6,1.8,1.8,0,0,1,.42-1.89,15.13,15.13,0,0,1,8.81-4.76A14.84,14.84,0,0,1,26.32,13a12.94,12.94,0,0,1,1.4,1.37A1.76,1.76,0,0,1,28,16.3,1.57,1.57,0,0,1,26.65,17.35Z"/><path class="cls-1" d="M9.53,20.66a1.9,1.9,0,0,1,.57-1.37,8.7,8.7,0,0,1,5.08-2.66,8.58,8.58,0,0,1,7.6,2.64,1.91,1.91,0,0,1,.45,2.16,1.63,1.63,0,0,1-2.72.52,5.47,5.47,0,0,0-2.83-1.65,5.33,5.33,0,0,0-5.22,1.6,1.65,1.65,0,0,1-2.87-.79A3.47,3.47,0,0,1,9.53,20.66Z"/><path class="cls-1" d="M16.46,28.8a2.52,2.52,0,1,1,2.35-2.53A2.42,2.42,0,0,1,16.46,28.8Z"/><path class="cls-2" d="M7.8,0l8.66,12L25.12,0h3.51L18.21,14.45,28.63,28.9H25.12l-8.66-12L7.8,28.9H4.29L14.71,14.45,4.29,0Z"/></g></g></svg>