<svg xmlns="http://www.w3.org/2000/svg" viewBox="0 0 23.41 19.5"><defs><style>.cls-1{fill:#37b34a;}</style></defs><g id="Layer_2" data-name="Layer 2"><g id="Layer_1-2" data-name="Layer 1"><path class="cls-1" d="M21.9,8.05a1.76,1.76,0,0,1-1.42-.54,11.67,11.67,0,0,0-7-3.75A11.7,11.7,0,0,0,3,7.45,1.65,1.65,0,0,1,.11,6.84,1.78,1.78,0,0,1,.52,5,15.09,15.09,0,0,1,9.33.2,14.81,14.81,0,0,1,21.57,3.7,11.9,11.9,0,0,1,23,5.06,1.77,1.77,0,0,1,23.24,7,1.57,1.57,0,0,1,21.9,8.05Z"/><path class="cls-1" d="M4.77,11.37A1.89,1.89,0,0,1,5.35,10a8.71,8.71,0,0,1,5.08-2.67A8.61,8.61,0,0,1,18,10a1.89,1.89,0,0,1,.44,2.16,1.62,1.62,0,0,1-2.71.52A5.51,5.51,0,0,0,12.93,11a5.35,5.35,0,0,0-5.22,1.6,1.65,1.65,0,0,1-2.88-.79C4.8,11.67,4.79,11.51,4.77,11.37Z"/><path class="cls-1" d="M11.71,19.5A2.41,2.41,0,0,1,9.36,17a2.35,2.35,0,1,1,4.69,0A2.4,2.4,0,0,1,11.71,19.5Z"/></g></g></svg>