<svg xmlns="http://www.w3.org/2000/svg" viewBox="0 0 32.92 26.77"><defs><style>.cls-1{fill:#8bc53f;}</style></defs><g id="Layer_2" data-name="Layer 2"><g id="Layer_1-2" data-name="Layer 1"><path class="cls-1" d="M15.87,0A22.22,22.22,0,0,1,32.3,7a2,2,0,0,1,.19,2.64A1.64,1.64,0,0,1,30,9.66a34.21,34.21,0,0,0-2.79-2.47,17.47,17.47,0,0,0-7.67-3.28A17.85,17.85,0,0,0,10,4.83,18.74,18.74,0,0,0,2.94,9.62a1.57,1.57,0,0,1-1.81.48,1.85,1.85,0,0,1-.59-3A23.12,23.12,0,0,1,4,4,21.24,21.24,0,0,1,12.45.41C13.76.17,15.1.09,15.87,0Z"/><path class="cls-1" d="M26.65,15.32a1.73,1.73,0,0,1-1.41-.55,11.85,11.85,0,0,0-17.5-.06,1.65,1.65,0,0,1-2.87-.6,1.79,1.79,0,0,1,.41-1.9,15.14,15.14,0,0,1,8.81-4.75A14.82,14.82,0,0,1,26.33,11a12.73,12.73,0,0,1,1.39,1.36A1.77,1.77,0,0,1,28,14.26,1.59,1.59,0,0,1,26.65,15.32Z"/><path class="cls-1" d="M9.53,18.63a1.86,1.86,0,0,1,.58-1.37,8.71,8.71,0,0,1,5.08-2.67,8.58,8.58,0,0,1,7.59,2.64,1.9,1.9,0,0,1,.45,2.16,1.63,1.63,0,0,1-2.72.52,5.47,5.47,0,0,0-2.83-1.65,5.31,5.31,0,0,0-5.21,1.61,1.66,1.66,0,0,1-2.88-.8A3.11,3.11,0,0,1,9.53,18.63Z"/><path class="cls-1" d="M16.46,26.77a2.53,2.53,0,1,1,2.35-2.53A2.42,2.42,0,0,1,16.46,26.77Z"/></g></g></svg>