<svg xmlns="http://www.w3.org/2000/svg" viewBox="0 0 82.23 36.17"><defs><style>.cls-1{fill:#8bc53f;}.cls-2{fill:#009147;}.cls-3{fill:#00a551;}</style></defs><g id="Layer_2" data-name="Layer 2"><g id="Layer_1-2" data-name="Layer 1"><path class="cls-1" d="M72,20.58h-7.8a2.39,2.39,0,0,1-2.39-2.39V2.62A2.42,2.42,0,0,1,64.27.2H79.71a2.52,2.52,0,0,1,2.52,2.52V18.07a2.51,2.51,0,0,1-2.51,2.51ZM80.6,10.4A8.64,8.64,0,1,0,71.82,19,8.64,8.64,0,0,0,80.6,10.4Zm0,7.72a.88.88,0,0,0-.9-.9.91.91,0,0,0-.92.89.93.93,0,0,0,.93.92A.9.9,0,0,0,80.6,18.12ZM63.33,2.64a.88.88,0,0,0,.88.91.89.89,0,0,0,.92-.9.91.91,0,0,0-.9-.91A.88.88,0,0,0,63.33,2.64Zm17.27,0a.9.9,0,0,0-.9-.91.93.93,0,0,0-.92.9.91.91,0,0,0,.93.91A.89.89,0,0,0,80.6,2.65ZM64.23,17.22a.88.88,0,0,0-.9.89.89.89,0,0,0,.91.92.9.9,0,0,0,.89-.91A.89.89,0,0,0,64.23,17.22Z"/><path class="cls-2" d="M78.68,9.9a5.14,5.14,0,0,0-5.52-.79L72.82,9c-1.65-1.67,3.26-3.6,4.69-3.11A6.9,6.9,0,0,0,73.14,3.3c-2.41-.11-3.22,3.48-2.5,5.37.25.69.26.67-.24,1.19a.38.38,0,0,1-.57.06C68,8.84,67.5,6.81,67.6,4.8c-1.51,1.21-3.78,4.48-2,6.2a4.87,4.87,0,0,0,4.83.81c.65-.26.63-.26,1.12.23.45,2-3.25,3.15-4.94,2.89,1.2,1.46,4.31,3.64,6,1.91a4.64,4.64,0,0,0,.92-4.66c-.4-3.86,3.89,1,3,3.73C78,15,80.1,11.53,78.68,9.9Z"/><rect class="cls-2" x="63.4" y="21.56" width="17.27" height="3.28" rx="0.38"/><rect class="cls-2" x="64.93" y="23.63" width="14.22" height="3.42" rx="0.38"/><path class="cls-1" d="M69,29.49V28.3c0-.15,0-.24.23-.21h2.21c.2,0,.26.06.26.24v2.31a.32.32,0,0,1-.19.3,2.56,2.56,0,0,1-2.32,0,.29.29,0,0,1-.19-.33Z"/><path class="cls-1" d="M69.41,31.88a3.83,3.83,0,0,0,2.48-.3.48.48,0,0,1,.29,0,3.69,3.69,0,0,0,2.44.33,7.1,7.1,0,0,1-.62.61c-.48.46-1,.91-1.43,1.37a.89.89,0,0,1-.94.09C70.84,33.28,70.16,32.58,69.41,31.88Z"/><path class="cls-1" d="M72.39,29.49V28.3c0-.15,0-.24.23-.21h2.22c.19,0,.26.06.26.24v2.31a.33.33,0,0,1-.2.3,2.54,2.54,0,0,1-2.31,0,.3.3,0,0,1-.2-.33Z"/><path class="cls-3" d="M19.38,18.48a17.89,17.89,0,0,0-6.79-3.33l-.4-.12c-3-.9-6.78-2-6.78-5.79,0-3.13,3-4.76,6-4.76a13.45,13.45,0,0,1,6.89,2.09l.52.29,2.26-3.74-.54-.32A16.75,16.75,0,0,0,11.45,0,11.61,11.61,0,0,0,3.91,2.64,8.62,8.62,0,0,0,.74,9.24c0,4.85,3.32,8.29,9.59,10a17,17,0,0,1,5.32,2.23,5.13,5.13,0,0,1,2.55,4.13c0,3.39-3,5.95-7.1,5.95h0a16.11,16.11,0,0,1-8.22-2.61l-.54-.35L0,32.48l.49.32A19.57,19.57,0,0,0,11.2,36.17a11.77,11.77,0,0,0,8.62-3.32,10.41,10.41,0,0,0,3.05-7.31v0A9.47,9.47,0,0,0,19.38,18.48Z"/><polygon class="cls-3" points="24.2 0.81 24.2 5.2 36.37 5.2 36.37 35.36 40.75 35.36 40.75 5.2 52.92 5.2 52.92 0.81 24.2 0.81"/></g></g></svg>