<svg xmlns="http://www.w3.org/2000/svg" viewBox="0 0 176.02 58.41"><defs><style>.cls-1{font-size:65.78px;font-family:Momcake-Thin, Momcake;font-weight:200;}.cls-1,.cls-3{fill:#fff;}.cls-2{letter-spacing:-0.01em;}</style></defs><g id="Layer_2" data-name="Layer 2"><g id="Layer_1-2" data-name="Layer 1"><text class="cls-1" transform="translate(47.91 49.93)">t<tspan class="cls-2" x="33.35" y="0">p</tspan><tspan x="61.37" y="0">u</tspan></text><path class="cls-3" d="M24.78,18.84c2.56,1.35,3.71,6.44,4.18,9.07,1.2,6.56,1.14,19.1-3.09,24.51-.81,1-1.82,1.21-2.74.22a9.11,9.11,0,0,1-1.85-3.11c-2.83-7.6-2.88-19.29,0-26.9A7.06,7.06,0,0,1,24,18.84ZM23.53,50.42a.88.88,0,0,0,.86.6.91.91,0,0,0,.89-.62c3.09-6.54,3.13-16.55,1.69-23.57a20.27,20.27,0,0,0-1.7-5.12.91.91,0,0,0-.85-.6.92.92,0,0,0-.9.61,15,15,0,0,0-1.3,3.49C20.52,32.34,19.41,41.11,23.53,50.42Z" transform="translate(0)"/><path class="cls-3" d="M5.64,18.84a5.19,5.19,0,0,1,2,2.27H5.61c-.8,0-1,.11-1.29.74C1,29.18,1,41.9,3.92,49.4c.15.36.33.71.49,1.06a1,1,0,0,0,1,.57H7.67A5,5,0,0,1,5.92,53.1c-1.24.74-2.4-.87-2.93-1.8C-.82,44.23-.74,31,1.83,23.44c.59-1.64,1.4-3.68,3.05-4.6Z" transform="translate(0)"/><path class="cls-3" d="M3.52,36.47c0-5,.37-9.23,2.17-13.61a.43.43,0,0,1,.48-.29q.9,0,1.8,0c.29,0,.35.05.25.3a27.35,27.35,0,0,0-1.37,5c-1.17,6.9-1.08,14.76,1.37,21.38.1.25.09.34-.25.33-.6,0-1.21,0-1.81,0a.42.42,0,0,1-.47-.3C4,45.39,3.52,40.38,3.52,36.47Z" transform="translate(0)"/><path class="cls-3" d="M18.38,22.58c.28,0,.81-.16,1,.08s-.13.61-.22.92a45.72,45.72,0,0,0-1.52,17.3,39.65,39.65,0,0,0,1.72,8.3c.11.33.05.41-.33.39a13,13,0,0,0-1.53,0,.48.48,0,0,1-.54-.33,23.85,23.85,0,0,1-1.51-5.3c-1.09-6.58-1-14.74,1.49-21a.5.5,0,0,1,.6-.37A7.13,7.13,0,0,0,18.38,22.58Z" transform="translate(0)"/><path class="cls-3" d="M7.87,37.25a11.28,11.28,0,0,1-.06-2.33c.27-4.08.57-8.29,2.25-12.12a.38.38,0,0,1,.38-.23c1.39-.07,1.38-.08,1,1C9,31.15,8.93,41.73,11.68,49.2c.12.31.05.37-.3.37-1.25,0-1.26,0-1.64-1A36.08,36.08,0,0,1,7.87,37.25Z" transform="translate(0)"/><path class="cls-3" d="M11.35,36.37c0-4.86.38-9.18,2.17-13.5a.4.4,0,0,1,.47-.3c.4,0,1-.15,1.18.07s-.17.64-.28,1c-2.41,7.61-2.51,18,.27,25.57.14.36,0,.39-.35.39-1.17,0-1.19,0-1.57-1A35.72,35.72,0,0,1,11.35,36.37Z" transform="translate(0)"/><path class="cls-3" d="M19.12,21.47c.92,0,.92,0,1.13-.78.86-2.86-.25-5.45-3.5-5.86-1.51-.23-1.5-.21-1.48,1.09,0,.25.09.33.37.34a4.68,4.68,0,0,1,1.49.22,2.11,2.11,0,0,1,1.58,1.78A5.78,5.78,0,0,1,18.33,21c-.15.43-.15.43.41.43Z" transform="translate(0)"/><ellipse class="cls-3" cx="24.42" cy="36.25" rx="1.01" ry="5.99"/></g></g></svg>