<svg id="Layer_1" data-name="Layer 1" xmlns="http://www.w3.org/2000/svg" viewBox="0 0 600 600"><defs><style>.cls-1{fill:#d0d2d3;}.cls-2{fill:#929497;}.cls-3{fill:#5e6061;}</style></defs><path class="cls-1" d="M290.18,82.62C402,84.4,490.1,122.7,563.9,198.71c14.8,15.25,11.81,33.93,3.26,44-11.12,13.16-28.62,13-41.46.83-15.08-14.27-30.2-28.71-46.61-41.1-38.4-29-81.33-46.75-127.75-54.65-54-9.19-106.92-4.32-158.5,15.23C147.84,180.12,108.55,207,74.68,243c-8.57,9.1-18.65,12.32-30.19,8-20.09-7.56-25.2-34.08-9.74-50.6A380,380,0,0,1,92.37,150c43-30.57,89.93-51.09,140.77-60.45C255.07,85.49,277.43,84.11,290.18,82.62Z"/><path class="cls-1" d="M300,528.64c-22,0-39.15-18.46-39.11-42.12,0-23.37,17.19-41.83,38.86-41.79,22.25,0,39.32,18.17,39.34,41.81S322.1,528.63,300,528.64Z"/><path class="cls-1" d="M379.58,395.57c3.18-.06,6.31-.05,9.61,0,0-3.23,0-6.43,0-9.61,0-10.52,0-20.48,0-30.58-32.14-25.27-68.93-35.42-110.44-29.57-32.8,4.62-60.8,20.09-84.64,44.43-6,6.17-9.63,13.6-9.61,22.82a69.28,69.28,0,0,0,1,7.38c5.63,23.27,31.27,30.27,47.93,13.26,24.61-25.11,53.75-33.86,87-26.76,15,3.2,28,10.35,39.6,20.42C363.17,400.08,370.07,395.75,379.58,395.57Z"/><path class="cls-1" d="M454.65,327.57a26.12,26.12,0,0,0-7.79,1.66c5.59,5.72,12.34,8.79,23,8.61a23.55,23.55,0,0,0,6.25-1.27A25.71,25.71,0,0,0,454.65,327.57Z"/><path class="cls-1" d="M436.62,289.74c2.61-.8,5.23-1.45,7.77-2.08l3.42-.87.62-.16h16l.93.39c.36.16.72.33,1.07.51l.37.18a66.18,66.18,0,0,1,26.83,10.38,30.45,30.45,0,0,0-5.94-10.15,205.83,205.83,0,0,0-23.25-22.7c-60.22-50.3-128.31-70-203.91-58.36-57.09,8.81-105.84,36.05-146.84,79.28-8.27,8.73-10.79,19.63-6.89,31.52,7.24,22,31.56,26.83,47.91,10,49.22-50.57,108-71.07,175.39-61.4A188.14,188.14,0,0,1,415,300.94,67.49,67.49,0,0,1,436.62,289.74Z"/><path class="cls-2" d="M449.07,291.63h14.35a10.64,10.64,0,0,0,2.42,1c27.47,4,49.6,26.67,51.68,54.26,1.17,15.53.58,31.2.78,46.8,0,2.13,0,4.25,0,6.87h11.75c13.94,0,19.36,5.39,19.36,19.22,0,33.25-.18,66.5.12,99.75.09,9.68-2.93,16.67-12.16,20.39H375.12c-7.24-3.17-12-8.11-12-16.53,0-35.46-.08-70.91,0-106.37,0-10.29,6.24-16.24,16.56-16.44,4.69-.09,9.39,0,14.51,0,0-15.73-.08-30.59,0-45.44.19-28.8,17.28-52.37,43.89-60.59C441.71,293.41,445.41,292.59,449.07,291.63Zm38.31,108.49c0-16.54.94-32.73-.25-48.77-1.31-17.82-15.93-29.75-32.77-28.77-16.65,1-29.21,14.73-29.42,32.52-.16,13.77,0,27.54,0,41.31a33.19,33.19,0,0,0,.42,3.71Zm-31.33,46.71a14.92,14.92,0,0,0-13.68,8.66c-2.82,5.57-2.8,11.59,1.6,15.86,4.16,4,4.44,8.34,4.22,13.31a68.38,68.38,0,0,0,0,7.71c.37,5.34,3.6,8.83,8,8.87s7.75-3.46,8.07-8.76a111.43,111.43,0,0,0,0-11.56,9.69,9.69,0,0,1,3.2-8.13c4.71-4.64,5.61-10.53,3-16.72A15.48,15.48,0,0,0,456.05,446.83Z"/><path class="cls-3" d="M358.24,415.88c0-12.05,7.7-19.69,20-19.93,3.25-.06,6.45,0,9.84,0h1.24c0-2.52,0-5,0-7.48l-61.71-85.62,172.21-239H441.87L298.62,262.63,155.38,63.86H97.45l172.21,239-172.23,239h57.95L298.62,343l59.59,82.69Z"/></svg>