<svg id="Layer_1" data-name="Layer 1" xmlns="http://www.w3.org/2000/svg" viewBox="0 0 600 600"><defs><style>.cls-1{fill:#d0d2d3;}.cls-2{fill:#5e6061;}</style></defs><path class="cls-1" d="M290.26,94.7c110.94,1.77,198.39,39.77,271.62,115.21,14.69,15.13,11.72,33.67,3.24,43.7-11,13.07-28.4,12.89-41.15.83-15-14.16-30-28.5-46.25-40.79-38.11-28.78-80.71-46.39-126.78-54.23-53.6-9.12-106.09-4.28-157.28,15.11C149,191.45,110,218.12,76.4,253.85c-8.5,9-18.5,12.23-30,7.91-19.93-7.5-25-33.82-9.66-50.21a377.3,377.3,0,0,1,57.18-50c42.7-30.35,89.24-50.71,139.69-60C255.41,97.55,277.6,96.18,290.26,94.7Z"/><path class="cls-1" d="M468.51,348c-10.91.18-17.69-3.05-23.34-9.06-32.12-34.18-70.59-55.5-115.36-61.93-66.85-9.59-125.2,10.75-174,60.94-16.22,16.67-40.36,11.91-47.54-10-3.88-11.8-1.37-22.62,6.84-31.27,40.68-42.91,89.06-69.94,145.71-78.68,75-11.57,142.59,8,202.35,57.92a203.47,203.47,0,0,1,23.07,22.52c8,9.22,9.43,20.46,4.56,32.08S477.19,347.41,468.51,348Z"/><path class="cls-1" d="M185.36,402.73c0-9.15,3.55-16.52,9.54-22.64,23.66-24.15,51.44-39.5,84-44.09,48.28-6.81,90.14,8.19,125.67,43.62,10.09,10.07,12.7,23.82,7.39,35.77-8.39,18.85-30.77,23.27-45,8.6-13.3-13.73-28.58-23.45-46.75-27.33-33-7.05-61.88,1.64-86.3,26.56-16.54,16.88-42,9.93-47.57-13.17A70.41,70.41,0,0,1,185.36,402.73Z"/><path class="cls-1" d="M300,537.3c-21.83,0-38.84-18.31-38.81-41.79,0-23.19,17.06-41.51,38.56-41.47,22.09,0,39,18,39,41.49S321.91,537.29,300,537.3Z"/><path class="cls-2" d="M156.76,61,300,259.8,443.25,61h57.93L329,300,501.19,539H443.25L300,340.19,156.76,539H98.81L271,300,98.83,61Z"/></svg>