<svg id="Layer_1" data-name="Layer 1" xmlns="http://www.w3.org/2000/svg" viewBox="0 0 600 600"><defs><style>.cls-1{opacity:0.75;}.cls-2{fill:#e0e0df;}</style></defs><g class="cls-1"><path class="cls-2" d="M186.18,406.23c0-9.09,3.52-16.41,9.47-22.48,23.48-24,51.07-39.23,83.39-43.78,47.94-6.76,89.5,8.13,124.77,43.31,10,10,12.62,23.65,7.34,35.52-8.32,18.71-30.54,23.1-44.66,8.54-13.2-13.63-28.38-23.29-46.41-27.15-32.74-7-61.45,1.63-85.69,26.38-16.42,16.76-41.69,9.86-47.23-13.07A67.56,67.56,0,0,1,186.18,406.23Z"/><path class="cls-2" d="M300,539.84c-21.67,0-38.57-18.18-38.53-41.49,0-23,16.94-41.22,38.28-41.18,21.93,0,38.75,17.91,38.76,41.2S321.76,539.83,300,539.84Z"/></g></svg>