<svg id="Layer_1" data-name="Layer 1" xmlns="http://www.w3.org/2000/svg" viewBox="0 0 600 600"><defs><style>.cls-1{fill:#d0d2d3;}.cls-2{fill:#8cc540;}</style></defs><path class="cls-1" d="M290.18,77C402,78.77,490.1,117.07,563.9,193.09c14.8,15.25,11.81,33.93,3.26,44-11.12,13.17-28.62,13-41.46.83-15.08-14.27-30.2-28.71-46.61-41.1-38.4-29-81.33-46.75-127.75-54.65-54-9.19-106.92-4.31-158.5,15.23-45,17.05-84.29,43.93-118.16,79.93-8.57,9.11-18.65,12.32-30.19,8-20.09-7.57-25.2-34.09-9.74-50.61a380,380,0,0,1,57.62-50.38c43-30.58,89.93-51.1,140.77-60.46C255.07,79.87,277.43,78.48,290.18,77Z"/><path class="cls-1" d="M469.87,332.21c-11,.18-17.83-3.07-23.52-9.12C414,288.65,375.22,267.16,330.1,260.68c-67.37-9.67-126.17,10.83-175.39,61.41-16.35,16.8-40.67,12-47.91-10-3.9-11.9-1.38-22.8,6.89-31.52,41-43.24,89.75-70.48,146.84-79.28,75.6-11.66,143.69,8.05,203.91,58.36a205.74,205.74,0,0,1,23.25,22.69c8.08,9.3,9.5,20.62,4.59,32.34S478.62,331.66,469.87,332.21Z"/><path class="cls-2" d="M184.52,387.4c0-9.22,3.57-16.65,9.61-22.81C218,340.24,246,324.78,278.77,320.15c48.66-6.86,90.83,8.25,126.63,44,10.18,10.15,12.81,24,7.45,36.05-8.44,19-31,23.45-45.32,8.66-13.4-13.83-28.8-23.63-47.11-27.54-33.22-7.1-62.36,1.65-87,26.77-16.66,17-42.3,10-47.93-13.27A69.28,69.28,0,0,1,184.52,387.4Z"/><path class="cls-2" d="M300,523c-22,0-39.15-18.46-39.11-42.11,0-23.38,17.19-41.83,38.86-41.8,22.25,0,39.32,18.18,39.34,41.81S322.1,523,300,523Z"/></svg>