<svg id="Layer_1" data-name="Layer 1" xmlns="http://www.w3.org/2000/svg" viewBox="0 0 600 600"><defs><style>.cls-1{fill:#38b34a;}</style></defs><path class="cls-1" d="M468.51,350.51c-10.91.18-17.69-3.05-23.34-9.06-32.12-34.18-70.59-55.5-115.36-61.93-66.85-9.59-125.2,10.75-174,60.94-16.22,16.67-40.36,11.91-47.54-10-3.88-11.8-1.37-22.62,6.84-31.27,40.68-42.91,89.06-69.94,145.71-78.68,75-11.57,142.59,8,202.35,57.92A203.47,203.47,0,0,1,486.19,301c8,9.22,9.43,20.46,4.56,32.08S477.19,350,468.51,350.51Z"/><path class="cls-1" d="M185.36,405.27c0-9.15,3.55-16.52,9.54-22.64,23.66-24.15,51.44-39.5,84-44.09,48.28-6.81,90.14,8.19,125.67,43.62,10.09,10.07,12.7,23.82,7.39,35.77-8.39,18.84-30.77,23.27-45,8.6-13.3-13.73-28.58-23.45-46.75-27.33-33-7.05-61.88,1.64-86.3,26.56-16.54,16.88-42,9.93-47.57-13.17A70.41,70.41,0,0,1,185.36,405.27Z"/><path class="cls-1" d="M300,539.84c-21.83,0-38.84-18.31-38.81-41.79,0-23.19,17.06-41.51,38.56-41.47,22.09,0,39,18,39,41.49S321.91,539.83,300,539.84Z"/></svg>