<svg id="Layer_1" data-name="Layer 1" xmlns="http://www.w3.org/2000/svg" viewBox="0 0 600 600"><defs><style>.cls-1{fill:#d0d2d3;}.cls-2{fill:#8cc540;}.cls-3{fill:#929497;}</style></defs><path class="cls-1" d="M290.18,71.35C402,73.14,490.1,111.44,563.9,187.45c14.8,15.25,11.81,33.93,3.26,44.05-11.12,13.16-28.62,13-41.46.83-15.08-14.27-30.2-28.72-46.61-41.11-38.4-29-81.33-46.74-127.75-54.64-54-9.2-106.92-4.32-158.5,15.22-45,17-84.29,43.93-118.16,79.94-8.57,9.1-18.65,12.32-30.19,8-20.09-7.56-25.2-34.08-9.74-50.61a380.51,380.51,0,0,1,57.62-50.38c43-30.58,89.93-51.1,140.77-60.45C255.07,74.23,277.43,72.85,290.18,71.35Z"/><path class="cls-2" d="M300,517.37c-22,0-39.15-18.45-39.11-42.11,0-23.37,17.19-41.83,38.86-41.79,22.25,0,39.32,18.17,39.34,41.81S322.1,517.37,300,517.37Z"/><path class="cls-3" d="M449.07,280.37h14.35a10.64,10.64,0,0,0,2.42,1c27.47,4,49.6,26.67,51.68,54.26,1.17,15.53.58,31.2.78,46.8,0,2.12,0,4.25,0,6.86h11.75c13.94,0,19.36,5.39,19.36,19.22,0,33.25-.18,66.5.12,99.75.09,9.68-2.93,16.67-12.16,20.39H375.12c-7.24-3.17-12-8.11-12-16.53,0-35.46-.08-70.91,0-106.37,0-10.29,6.24-16.25,16.56-16.44,4.69-.09,9.39,0,14.51,0,0-15.73-.08-30.59,0-45.45.19-28.79,17.28-52.36,43.89-60.58C441.71,282.14,445.41,281.33,449.07,280.37Zm38.31,108.49c0-16.54.94-32.73-.25-48.77-1.31-17.82-15.93-29.75-32.77-28.77-16.65,1-29.21,14.73-29.42,32.52-.16,13.77,0,27.54,0,41.31a33.19,33.19,0,0,0,.42,3.71Zm-31.33,46.71a14.91,14.91,0,0,0-13.68,8.66c-2.82,5.57-2.8,11.59,1.6,15.85,4.16,4,4.44,8.35,4.22,13.32a68.38,68.38,0,0,0,0,7.71c.37,5.33,3.6,8.83,8,8.87s7.75-3.46,8.07-8.76a111.44,111.44,0,0,0,0-11.56,9.68,9.68,0,0,1,3.2-8.13c4.71-4.64,5.61-10.53,3-16.72A15.48,15.48,0,0,0,456.05,435.57Z"/><path class="cls-2" d="M379.58,384.31c3.18-.06,6.31-.05,9.61,0,0-3.24,0-6.43,0-9.61,0-10.53,0-20.48,0-30.58-32.14-25.27-68.93-35.42-110.44-29.57C246,319.14,218,334.61,194.13,359c-6,6.17-9.63,13.59-9.61,22.81a68.93,68.93,0,0,0,1,7.38c5.63,23.28,31.27,30.28,47.93,13.27,24.61-25.11,53.75-33.86,87-26.77,15,3.2,28,10.35,39.6,20.42C363.17,388.82,370.07,384.49,379.58,384.31Z"/><path class="cls-1" d="M454.65,316.31a26.12,26.12,0,0,0-7.79,1.66c5.59,5.72,12.34,8.78,23,8.61a24,24,0,0,0,6.25-1.27A25.68,25.68,0,0,0,454.65,316.31Z"/><path class="cls-1" d="M436.62,278.48c2.61-.8,5.23-1.46,7.77-2.09,1.14-.28,2.28-.56,3.42-.86l.62-.16h16l.93.39c.36.15.72.33,1.07.5l.37.19a66.18,66.18,0,0,1,26.83,10.38,30.35,30.35,0,0,0-5.94-10.15A205,205,0,0,0,464.44,254c-60.22-50.31-128.31-70-203.91-58.36-57.09,8.8-105.84,36-146.84,79.28-8.27,8.72-10.79,19.62-6.89,31.52,7.24,22,31.56,26.83,47.91,10,49.22-50.57,108-71.07,175.39-61.4A187.92,187.92,0,0,1,415,289.68,67.49,67.49,0,0,1,436.62,278.48Z"/></svg>