<svg id="Layer_1" data-name="Layer 1" xmlns="http://www.w3.org/2000/svg" viewBox="0 0 600 600"><defs><style>.cls-1{fill:#e0e0df;}</style></defs><path class="cls-1" d="M392,402.76H236.64a3.55,3.55,0,0,0-3.55,3.56v23.77a3.55,3.55,0,0,0,3.55,3.56h10.81v17.23a3.55,3.55,0,0,0,3.55,3.55H377.63a3.55,3.55,0,0,0,3.56-3.55V433.65H392a3.55,3.55,0,0,0,3.55-3.56V406.32A3.55,3.55,0,0,0,392,402.76Z"/><path class="cls-1" d="M309.2,491a3.1,3.1,0,0,0,1.84-2.85V466.49c0-1.72-.61-2.29-2.45-2.29H287.75c-1.84-.28-2.14.57-2.14,2v21.69a2.83,2.83,0,0,0,1.84,3.14A24.27,24.27,0,0,0,309.2,491Z"/><path class="cls-1" d="M315.64,497a4.49,4.49,0,0,0-2.76,0,36.24,36.24,0,0,1-23.29,2.85c7.05,6.57,13.48,13.13,20.84,19.7a8.39,8.39,0,0,0,8.89-.86c4.29-4.28,8.88-8.56,13.48-12.84,1.84-1.72,4-3.71,5.82-5.71A35.68,35.68,0,0,1,315.64,497Z"/><path class="cls-1" d="M340.64,464.2H319.8c-1.84-.28-2.14.57-2.14,2v21.69A2.83,2.83,0,0,0,319.5,491a24.27,24.27,0,0,0,21.75,0,3.1,3.1,0,0,0,1.84-2.85V466.49C343.09,464.77,342.48,464.2,340.64,464.2Z"/><path class="cls-1" d="M410.19,225.56a23.71,23.71,0,0,0-23.73-23.73q-72.63,0-145.25,0a22.73,22.73,0,0,0-22.76,22.76q0,73.25,0,146.5a22.45,22.45,0,0,0,22.48,22.47q36.69,0,73.39,0,36.14,0,72.27,0A23.55,23.55,0,0,0,410.19,370Q410.15,297.77,410.19,225.56Z"/><rect class="cls-1" x="211.41" y="203.36" width="31.19" height="187.91" transform="translate(-70.31 524.32) rotate(-90)"/><polygon class="cls-1" points="148.88 342.32 83.98 297.78 149.26 252.69 148.88 342.32"/><rect class="cls-1" x="295.11" y="125.01" width="31.19" height="187.91"/><polygon class="cls-1" points="265.7 140.84 310.25 75.93 355.34 141.21 265.7 140.84"/><rect class="cls-1" x="383.87" y="280.87" width="31.19" height="187.91" transform="translate(936.78 268.26) rotate(125.61)"/><polygon class="cls-1" points="489.19 383.71 516.02 457.72 436.7 456.38 489.19 383.71"/></svg>