<svg id="Layer_1" data-name="Layer 1" xmlns="http://www.w3.org/2000/svg" viewBox="0 0 600 600"><defs><style>.cls-1{fill:#e0e0df;}</style></defs><path class="cls-1" d="M521.33,340.66c-7.94.77-13.9-3.56-19.34-8.46-50.09-45.12-100.8-89.51-149.72-136-18.57-17.63-37.5-34.85-55.85-52.71-8-7.74-12.5-6.55-20,.46-67.1,63-134.21,126-203.53,186.36-4,3.46-8.09,7.57-12.81,9.09-11.64,3.76-22.6.46-28.89-10.43s-2-21,6.93-29.06c30.29-27.2,61.09-53.8,90.66-81.84Q193.64,156.63,260,97c22.5-20.12,31.55-20,54.11.54,30.84,28.06,62.87,54.8,92.44,84.25,41.28,41.09,85.66,78.38,128.1,118,7.12,6.65,14.14,14.08,9.35,25.77C539.71,336,531.44,339.9,521.33,340.66Z"/><path class="cls-1" d="M433.45,335.07h27.4c-54.12-47.93-108.14-96-161.55-144.74-10.33-9.43-14.63-9.86-25.44.07C215.53,244,156,296.13,96.91,348.86c-6.23,5.56-11.77,11-11.65,21.3C85.6,398.28,104.82,507,123.66,518c0,0,54.84-.45,94.37,0,10.77.14,14.67-3.39,14.45-14.8-.59-30.68-.49-61.38-.08-92.07.37-27.47,22-47.44,51.85-48.79,30.27-1.37,53.64,17.48,56.05,45.44,2.73,31.7,1,63.49,1.09,95.24,0,9.94,2.93,14.2,11.34,14.9Z"/><path class="cls-1" d="M451.18,350.55l-73.8,167.18h48.24l13-32.48h70.89l13,32.48h49.2l-74-167.18Zm1.47,99.83,21.45-53.45,21.45,53.45Z"/></svg>