<svg id="Layer_1" data-name="Layer 1" xmlns="http://www.w3.org/2000/svg" viewBox="0 0 600 600"><defs><style>.cls-1{fill:#e0e0df;}.cls-2{fill:#a4a4a5;}.cls-3{fill:none;}</style></defs><path class="cls-1" d="M296.57,448.7v-.31l0-.05.18-.16.62-.38.9-.39,1.13-.43,1.31-.45,2.74-.86,1.35-.46,1.23-.45,1-.45.47-.24,0,0v.53l-.46.44.29.3,0,0-.05.1-.37.31-.68.37-1,.4-1.17.44-1.3.44-2.71.84-1.31.45h4.8l1-.34,1.22-.46,1-.43.46-.23.17-.1v.36l-.54.55.33.31.07.09,0,.06-.22.19h3V324.05h-2.63v12.61l-.68.63.29.3,0,0-.05.09-.38.31-.67.37-1,.4-1.17.44-1.31.44-2.7.84-1.32.46-1.17.45-.91.4V324.05H294V448.7Zm0-105.14.25-.19.33-.18.9-.4,1.11-.43,1.27-.44,2.7-.84,1.34-.45,1.22-.46,1.05-.43.47-.23.38-.23v.28l-.75.76.33.31.06.09,0,.06-.34.3-.27.17-.37.19-1,.41-1.17.43L300,343.59l-1.33.45-1.2.46-.94.41Zm0,3.07h0l.25-.17.34-.19.91-.4,1.14-.43,1.29-.44,2.73-.86,1.35-.46,1.23-.45,1-.45.47-.24.26-.17v.4l-.7.69.3.29,0,0L307,344l-.49.34-.38.19-1,.4-1.17.43-4,1.3-1.31.45-1.18.45-.93.41Zm0,3.08h0l.24-.17.33-.18.91-.4,1.13-.43,1.27-.44,2.71-.85,1.35-.46,1.22-.45,1-.43.48-.24.17-.11h.16v.23l-.73.73.32.31.06.08-.16.19-.2.15-.68.39-1,.4-1.17.44-1.31.44-2.73.85-1.33.46-1.18.45-.95.41Zm0,3.09h0l.62-.38.89-.38,1.13-.44,1.29-.44,2.72-.85,1.35-.46,1.22-.45,1-.44.47-.24.12-.08h.17v.23l-.73.72.32.31.05.08-.15.19-.23.18-.28.18-.37.18-1,.41-1.17.44-1.31.44-2.74.85-1.32.46-1.19.45-.94.41Zm0,3.09.61-.38.89-.38,1.14-.43,1.28-.45,2.73-.85,1.35-.45,1.22-.46,1-.44.47-.24.12-.08h.17V352l-.71.7.3.3,0,.05-.18.24-.49.33-.37.19-1,.41-1.18.43-1.3.44-2.73.85-1.31.46-1.19.45-.94.41Zm0,3.08.62-.37.88-.39,2.41-.87,2.72-.85,1.34-.45,1.22-.45,1.05-.44.47-.24.14-.09h.17V355l-.76.8.33.3.06.08-.15.21-.18.15-.65.37-1,.4-1.17.44-1.32.45-2.74.86-1.33.46-1.2.45-.95.42Zm0,3.11.28-.21.31-.17.92-.41,1.14-.43,1.3-.44,2.74-.86,1.35-.46,1.22-.46,1-.44.47-.24.08,0h.17v.31l-.7.67.3.3,0,0-.19.25-.5.34-.37.19-1,.4-1.18.43-1.3.44-2.71.85-1.32.46-1.18.45-.93.41Zm0,3.09.26-.19.33-.19.91-.4,1.12-.43,1.28-.44,2.7-.84,1.34-.46,1.22-.45,1-.43.49-.24.16-.11h.17v.07l-.79.85.35.31.08.1h0l-.33.33-.64.37-.95.41-1.17.43-1.31.45-2.76.86-1.34.46-1.2.46-1,.42Zm0,3.06h0l.61-.36.92-.41,1.14-.43,1.3-.45,2.76-.86,1.35-.46,1.22-.46,1-.44.47-.25,0,0h.17v.35l-.68.63.28.3.05.06-.2.22-.21.16-.69.38-1,.4L304,367l-1.31.44-2.7.85-1.31.45-1.19.44-.91.41Zm0,3.11.26-.19.33-.19.89-.39,1.13-.43,1.27-.44,2.7-.84,1.33-.45,1.22-.45,1.06-.44.47-.24.2-.12h.15l-.8.91.35.31.1.11-.13.18-.17.15-.62.37-.95.4-1.17.44-1.31.45-2.77.86-1.34.47-1.22.46-1,.42Zm0,3.08,0,0,.25-.17.34-.19.93-.41,1.16-.44,1.31-.45,2.76-.86,1.35-.46,1.23-.46,1-.45.45-.25h.18v.38l-.66.62.27.28,0,0-.07.12-.13.12-.23.17-.7.38-1,.4-1.18.43-4,1.29-1.31.45-1.17.45-.91.4Zm0,3.08.58-.36.9-.39,1.11-.43,1.27-.43,2.69-.85,1.33-.45,1.23-.45,1.06-.44.68-.37h.17v.07l-.79.87.35.3.08.11-.32.33-.63.36-.95.41-1.18.44-1.32.45-2.74.86-1.35.46-1.2.46-1,.42Zm0,3.08h0l.61-.36.92-.41,1.14-.43,1.31-.45,2.75-.86,1.35-.46,1.23-.46,1-.45.45-.24.05,0h.17v.41l-.65.61.27.27,0,0L307,378l-.23.17-.7.38-1,.4-1.17.43-4,1.28-1.3.45-1.18.45-.89.4Zm0,3.09.25-.17.33-.18.88-.4,1.12-.42,1.26-.44,2.69-.84,1.33-.45,1.23-.45,1.07-.44.69-.37h.17v.13l-.76.82.33.3.06.08-.15.21-.18.14-.64.38-1,.4-1.17.43-1.32.45-2.74.86-1.34.46-1.2.46-.95.41Zm0,3.09h0l.25-.17.34-.19.92-.4,1.14-.43,1.3-.45,2.74-.86,1.35-.46,1.22-.45,1.05-.44.46-.25.07,0h.17V383l-.68.64.29.3,0,.05-.05.09-.13.12-.54.36-.37.19-1,.4-1.17.44-1.31.44-2.71.85-1.32.45-1.17.45-.91.4Zm0,3.09h0l.24-.17.33-.18.9-.39,1.12-.43,1.27-.44,2.71-.85,1.34-.45,1.21-.45,1.06-.44.48-.24.18-.12h.17v.2l-.74.76.33.31,0,.07-.16.21-.2.16-.27.17-.37.19-1,.41-1.17.43-1.31.45-2.74.85-1.33.46-1.19.45-.95.41Zm0,3.08h0l.61-.37.89-.39,1.14-.43,1.28-.45,2.74-.85,1.35-.46,1.22-.46,1-.44.47-.24.11-.07h.16V389l-.64.65.31.29.05.07,0,.07-.35.31-.27.18-.38.19-1,.4-1.17.44-1.32.44-2.73.85-1.32.46-1.19.45-1,.44h0Zm0,3.1.09-.09.24-.17.34-.19.91-.4,1.13-.43,1.28-.44,2.72-.85,1.35-.45,1.23-.46,1-.44.48-.24h.22v.26l-.64.63.32.31,0,.06,0,.09-.34.29-.66.36-1,.41-1.17.43-1.31.44-2.72.86-1.32.45-1.19.45-1,.45h0Zm0,3.07.08-.07.6-.36.9-.4,1.13-.43,1.29-.44,2.72-.86,1.34-.45,1.22-.45,1-.44.45-.24.24-.14V395l-.72.8.35.3.08.1,0,0-.33.33-.26.17-.35.19-.95.4-1.17.44-1.32.45-2.76.87-1.34.46-1.21.46-1,.44,0,0Zm0,3.09.1-.08.27-.19.32-.17.93-.41,1.16-.43,1.3-.45,2.76-.87,1.35-.46,1.23-.46,1-.44.47-.25,0,0h.08v.37L307,399l.3.29,0,.05,0,.09-.34.29-.32.19-.36.19-1,.4-1.18.44-1.3.44-2.71.85-1.33.45-1.18.45-1,.44h0Zm0,3.09.34-.25.34-.19.9-.39,1.12-.43,1.28-.44,2.71-.85,1.34-.46,1.22-.44,1.05-.44.47-.25.16-.09h.09v.17l-.7.76.35.31.07.09-.14.19-.19.15-.66.38-.93.39-1.17.45-1.32.44-2.75.86-1.34.46-1.2.46-1,.42-.07,0Zm0,3.1.35-.27.35-.2.9-.39,1.15-.43,1.3-.45,2.75-.86,1.35-.46,1.22-.46,1-.42.5-.27.06,0h.09v.41l-.6.58.29.29,0,.05-.06.1-.12.12-.53.36-.37.18-1,.41-1.18.43-1.29.44-2.72.85-1.31.45-1.18.45-1,.44h0Zm0,3.08.34-.26.33-.18.9-.4,1.12-.42,1.27-.45,2.71-.84,1.33-.45,1.22-.45,1-.44.48-.24.18-.11h.09v.49l-.43.51.18.19v.33l-.14.12-.26.17-.36.2-.92.4-1.17.44-1.31.45-2.78.87-1.35.47-1.23.46-1,.45-.21.12Zm0,3.27.08-.11.18-.16.61-.37.94-.41,1.17-.44,1.32-.45,2.77-.87,1.36-.46,1.21-.46,1-.43.38-.21v.41l-.59.53.28.3,0,0-.21.22-.22.17-.72.39-.95.39-1.17.43-1.3.44-2.71.85-1.3.45-1.18.45-1,.44Zm0,2.9.08-.08.58-.35.9-.4,1.12-.42,1.26-.44,2.7-.85,1.33-.45,1.23-.45,1-.42.71-.38h.09v.14l-.71.79.34.3.09.1h0l-.14.19-.17.15-.64.37-.94.41-1.17.43-1.32.45-2.76.86-1.35.47-1.2.45-1,.45,0,0Zm0,3.08.08-.07.61-.37.92-.4,1.15-.44,1.31-.45,2.75-.86,1.36-.46,1.22-.46,1-.44.46-.25,0,0h.09V417l-.57.5.27.3,0,0-.07.11-.37.3-.73.39-.95.39-1.18.43-1.3.44-2.69.84-1.31.46-1.16.44-.95.41,0,0Zm0,3.09.07-.07.6-.37.88-.38,1.1-.42,1.27-.44,2.69-.84,1.32-.45,1.23-.45,1-.42.75-.4h.09v.27l-.48.48.29.29,0,.06,0,.08-.34.29-.31.2-.37.19-1,.4-1.18.43-1.3.44-2.71.85-1.32.46-1.19.45-1,.44-.15.08Zm0,3,.06-.07.41-.31.34-.19.9-.4,1.12-.43,1.29-.44,2.71-.85,1.33-.45,1.22-.45,1.05-.44.48-.24.11-.07v.29l-.57.61.35.31.07.09-.14.19-.18.15-.66.39-.94.39-1.17.44-1.31.45-2.75.86-1.35.46-1.19.45-1,.42-.2.12Zm0,3.09.05-.07.43-.32.36-.2.9-.39,1.14-.44,1.3-.44,2.75-.86,1.36-.46,1.21-.46,1-.42.5-.27h0V426l-.47.46.29.29,0,0-.05.1-.12.12-.54.36-.37.19-1,.4-1.17.44-1.3.44-2.71.84-1.31.46-1.18.44-1,.45-.14.07Zm0,3.09.05-.07.42-.32.33-.19.9-.39,1.13-.43,1.26-.44,2.71-.84,1.34-.45,1.21-.46,1.06-.43.48-.24.13-.09V429l-.47.57.32.32-.11.16-.17.15-.26.18-.36.2-.93.39-1.16.45-1.31.45-2.78.87-1.35.46-1.23.46-1,.46-.17.09Zm0,3.08,0-.06.18-.16.61-.36.94-.41,1.17-.44,1.31-.45,2.78-.87,1.36-.47,1.21-.46,1-.43.42-.23v.55l-.45.41.28.3,0,.06-.2.22-.23.17-.71.39-.95.39-1.18.43-1.3.44-2.7.84-1.31.46-1.18.45-1,.44-.13.07Zm0,3.1.21-.22.59-.36.89-.39,1.12-.43,1.27-.44,2.69-.84,1.34-.45,1.22-.45,1-.42.67-.37V435l-.58.64.35.31.08.09h0l-.14.2-.17.14-.64.37-.94.41-1.17.44-1.32.44-2.76.86-1.34.47-1.21.46-1,.45-.16.08Zm0,3.07,0,0,.18-.16.6-.36.92-.41,1.16-.43,1.3-.46,2.76-.86,1.35-.45,1.23-.46,1-.45.45-.24v.58l-.44.38.27.3,0,0-.07.12-.37.3-.73.38-.94.39-1.19.44-1.3.43-2.69.85-1.31.45-1.16.44-.94.42-.17.09Zm0,3.09,0-.05.18-.15.6-.37.87-.38,1.1-.42,1.27-.44,2.69-.84,1.33-.45,1.23-.45,1-.42.7-.38v.33l-.55.59.33.3.07.09-.15.2-.18.15-.65.37-.95.41-1.17.43-1.31.45-2.75.86-1.34.46-1.19.46-1,.42-.2.11Z"/><polyline class="cls-2" points="297.15 507.25 297.15 448.7 307.01 448.7 307.01 507.31"/><path class="cls-1" d="M322.52,253.81a3.73,3.73,0,0,0-1.27-2.09L319.19,250a3.55,3.55,0,0,0-2.27-.82h-8v9.44h-.36c-1,1.31-3.68,2.25-6.8,2.25S296,260,295,258.66l-.08-.11a2,2,0,0,1-.36-.83h0v-.11a.61.61,0,0,1,0-.31v-2.7l0-.67,0-4.71h-8.26a3.58,3.58,0,0,0-2.31.85l-2.06,1.74a3.77,3.77,0,0,0-1.26,2.16l-2.47,11.72h47Z"/><rect class="cls-1" x="294.96" y="249.94" width="1.09" height="1.55"/><path class="cls-1" d="M296.24,251.68h-1.48v-1.94h1.48Zm-1.09-.39h.7v-1.15h-.7Z"/><rect class="cls-1" x="294.96" y="246.86" width="1.09" height="1.54"/><path class="cls-1" d="M296.24,248.59h-1.48v-1.93h1.48Zm-1.09-.39h.7v-1.14h-.7Z"/><rect class="cls-1" x="294.96" y="243.77" width="1.09" height="1.54"/><path class="cls-1" d="M296.24,245.51h-1.48v-1.94h1.48Zm-1.09-.4h.7V244h-.7Z"/><polygon class="cls-1" points="295.47 252.5 295.21 252.19 295.03 251.83 294.95 251.53 295.02 251.07 295.18 250.76 295.41 250.46 295.7 250.2 296.07 249.94 296.92 249.49 297.93 249.08 299.15 248.63 300.47 248.19 303.15 247.34 304.43 246.91 305.54 246.48 306.42 246.1 307.04 245.71 307.24 245.54 307.41 245.31 307.43 245.19 308.5 245.36 308.42 245.73 308.24 246.04 307.99 246.33 307.68 246.59 307.35 246.81 306.88 247.07 305.95 247.48 304.8 247.92 303.5 248.37 300.81 249.21 299.51 249.65 298.32 250.09 297.37 250.48 296.62 250.87 296.37 251.06 296.19 251.22 296.06 251.45 296.07 251.5 296.13 251.6 296.29 251.78 295.47 252.5"/><path class="cls-1" d="M295.45,252.78l-.39-.46-.21-.4-.1-.38.1-.55.15-.32.26-.33.31-.29.39-.27.87-.46,1-.42,1.23-.45,1.33-.45,2.69-.84,1.26-.44,1.11-.42.87-.38.6-.37.17-.16.11-.15,0-.27,1.48.23-.15.63-.18.31-.27.32-.33.28-.35.23-.48.28-1,.41-1.16.44-1.31.46-2.69.84-1.3.44-1.18.43-.95.39-.72.39-.38.3-.06.11,0,0,.27.3Zm-.3-1.26.07.26.16.32.11.12.52-.46,0,0-.12-.26,0-.12.18-.27.18-.17.27-.2.76-.4,1-.41,1.19-.43,1.31-.44,2.69-.85,1.3-.45,1.14-.43.93-.41.45-.25.31-.21.3-.25.22-.27.14-.25,0-.13-.69-.11-.17.24-.23.2-.65.4-.9.4-1.12.43-1.28.44-2.69.84-1.32.45-1.22.44-1,.41-.83.44-.35.25-.28.25-.21.27-.12.25Z"/><polygon class="cls-1" points="295.66 249.58 295.35 249.28 295.11 248.94 294.98 248.57 294.95 248.26 295.1 247.81 295.29 247.51 295.56 247.23 295.9 246.96 296.25 246.74 296.71 246.51 297.73 246.07 298.95 245.62 300.29 245.16 303.03 244.3 304.34 243.85 305.48 243.42 306.39 243.02 307.03 242.63 307.24 242.46 307.41 242.22 307.43 242.1 308.5 242.26 308.46 242.56 308.24 242.95 307.99 243.24 307.67 243.51 307.33 243.74 306.85 244 305.89 244.42 304.71 244.87 303.37 245.33 300.63 246.19 299.31 246.63 298.13 247.07 297.18 247.48 296.51 247.86 296.28 248.04 296.06 248.36 296.09 248.46 296.19 248.59 296.4 248.78 295.66 249.58"/><path class="cls-1" d="M295.67,249.86l-.46-.44-.28-.41-.14-.38,0-.39.18-.53.2-.3.29-.31.36-.29.37-.23.47-.25,1-.44,1.23-.46,1.34-.46,2.75-.86,1.3-.44,1.14-.44.9-.39.62-.37.18-.16.11-.16,0-.27,1.47.22-.1.56-.22.39-.27.32-.35.29-.35.24-.5.28-1,.42-1.19.45-1.34.46-2.75.86-1.31.45-1.18.44-.95.4-.64.37-.18.15-.15.2.07.1.33.29Zm-.38-1,.22.32.14.13.47-.51-.06,0-.15-.22-.07-.19.32-.44.23-.18.69-.4,1-.42,1.19-.44,1.31-.45,2.75-.86,1.34-.46,1.17-.45.95-.41.46-.26.33-.21.3-.26.23-.27.19-.39-.7-.11-.18.25-.24.21-.67.41-.93.41-1.15.44-1.32.45-2.75.86-1.33.45-1.21.45-1,.44-.43.23-.35.21-.32.26-.25.26-.16.25-.12.39,0,.26Z"/><polygon class="cls-1" points="295.7 255.78 295.38 255.49 295.13 255.15 294.99 254.78 294.95 254.48 295.08 254.02 295.27 253.72 295.54 253.43 295.87 253.16 296.22 252.94 296.67 252.7 297.69 252.26 298.91 251.8 300.25 251.35 303 250.49 304.31 250.03 305.47 249.6 306.4 249.19 307.03 248.81 307.24 248.63 307.41 248.4 307.43 248.27 308.5 248.44 308.46 248.74 308.24 249.13 307.99 249.42 307.67 249.69 307.33 249.91 306.89 250.16 305.89 250.6 304.69 251.05 303.35 251.51 300.6 252.38 299.27 252.82 298.1 253.26 297.14 253.67 296.49 254.05 296.27 254.23 296.06 254.53 296.06 254.56 296.1 254.65 296.2 254.78 296.43 254.98 295.7 255.78"/><path class="cls-1" d="M295.71,256.06l-.46-.43-.3-.41-.15-.37-.05-.38.16-.55.2-.31.28-.31.35-.29.37-.24.47-.25,1-.44,1.23-.46,1.35-.46,2.76-.86,1.3-.45,1.15-.44.93-.4.6-.37.18-.16.11-.16,0-.27,1.47.22-.1.56-.22.39-.27.33-.35.29-.35.24-.45.25-1,.45-1.21.45-1.35.47-2.76.86-1.31.45-1.18.43-.94.41-.63.37-.18.15-.13.19h0l.08.1.35.3Zm-.41-1,.24.31.14.14.47-.52-.08-.06-.13-.16-.08-.18v-.08l0-.09.24-.34.22-.18.69-.4,1-.42,1.19-.44,1.32-.45,2.76-.86,1.34-.47,1.19-.45,1-.43.42-.24.33-.22.3-.25.23-.27.19-.4-.7-.1-.18.25-.24.21-.65.4-1,.42-1.17.44-1.31.45-2.76.87L299,252l-1.21.45-1,.44-.44.23-.34.22-.31.25-.24.27-.16.25-.11.4,0,.26Z"/><path class="cls-1" d="M306.93,183.83v.31l0,.05-.17.16-.62.38-.91.38-1.13.44-1.3.44-2.75.87-1.35.45-1.22.46-1,.44-.46.25h0v-.53l.47-.43-.3-.3,0,0,.05-.09.38-.32.67-.36,1-.4,1.17-.44,1.31-.44,2.7-.84,1.31-.45h-4.8l-1,.34-1.22.45-1.05.44-.47.23-.17.1V185l.54-.55-.33-.31-.06-.1,0,0,.21-.19h-3V308.47h2.62v-12.6l.68-.63-.29-.3,0,0,.05-.09.37-.32.68-.36,1-.41,1.17-.43,1.3-.44,2.71-.85,1.32-.45,1.16-.45.91-.4v17.77h2.62V183.83Zm0,105.14-.25.18-.32.19-.91.4-1.11.43-1.27.43-2.7.85-1.34.45-1.22.45-1.05.43-.47.24-.38.22V293l.75-.77-.32-.31-.07-.09,0-.05.34-.3.28-.18.36-.19,1-.4,1.17-.44,4-1.3,1.33-.46L306,288l.94-.42Zm0-3.07h0l-.24.16-.34.19-.91.41-1.15.43-1.29.44-2.73.86-1.35.45-1.22.46-1.05.44-.46.25-.27.16v-.39l.7-.69-.3-.29,0-.05.19-.25.49-.33.38-.19,1-.4,1.17-.44,4-1.29,1.32-.46,1.18-.45.92-.4Zm0-3.09h0l-.24.17-.33.18-.91.4-1.12.43-1.28.44-2.71.85-1.35.45-1.22.46-1,.43-.48.24-.17.1h-.16v-.23l.73-.72-.32-.32-.05-.07.15-.19.2-.15.68-.39,1-.4,1.18-.44,1.31-.44,2.72-.86,1.33-.45,1.19-.45.94-.41Zm0-3.08h0l-.62.37-.89.39-1.13.43-1.28.44-2.73.85-1.34.46-1.22.46-1.05.43-.46.25-.13.07h-.17v-.22l.73-.73-.31-.31-.06-.08.15-.19.23-.17.28-.18.37-.19,1-.4,1.17-.44,1.32-.44,2.73-.86,1.33-.45,1.18-.46.94-.4Zm0-3.09-.61.37-.89.39-1.13.43-1.29.44-2.72.86-1.35.45-1.23.46-1,.44-.47.24-.13.07h-.17v-.26l.71-.71-.3-.29,0,0,.17-.25.49-.33.37-.18,1-.41,1.17-.43,1.3-.45,2.73-.85,1.31-.45,1.19-.45.94-.41Zm0-3.09-.62.38-.87.38-2.41.87-2.73.85-1.33.46-1.23.45-1,.44-.47.24-.15.09h-.17v-.15l.76-.79-.33-.31-.06-.08.15-.2.19-.15.64-.37,1-.41,1.18-.44,1.31-.44,2.74-.86,1.33-.46,1.2-.45.95-.42Zm0-3.11-.28.22-.31.17-.92.4-1.14.43-1.3.45-2.74.86-1.34.46-1.23.45-1,.45-.47.24-.07.05h-.18v-.31l.7-.67-.3-.3,0,0,.18-.25.5-.33.38-.19,1-.4,1.17-.44,1.3-.44,2.71-.85,1.32-.45,1.18-.45.93-.41Zm0-3.08-.25.19-.34.19-.9.4-1.13.42L303,269l-2.71.85-1.34.45-1.22.46-1,.43-.48.24-.17.1h-.17v-.07l.79-.84-.34-.31-.09-.1h0l.33-.33.63-.37,1-.41,1.16-.44,1.32-.44,2.75-.86,1.35-.46,1.2-.46,1-.43Zm0-3.07h0l-.6.37-.93.4-1.14.44-1.3.44-2.76.87-1.35.45-1.22.46-1,.45-.47.25,0,0h-.17v-.34l.69-.64-.29-.29,0-.06.19-.23.21-.15.69-.39,1-.4,1.17-.43,1.31-.44,2.7-.85,1.31-.45,1.19-.45.91-.4Zm0-3.11-.26.2-.33.18-.89.4-1.13.42-1.26.44-2.7.85-1.34.45-1.22.45-1.06.44-.47.23-.2.13h-.15l.81-.92-.36-.3-.09-.11.12-.19.17-.14.62-.37.95-.41,1.17-.43,1.32-.45,2.76-.87,1.35-.46,1.21-.46,1-.43Zm0-3.07,0,0-.25.17-.34.19-.93.4-1.16.44-1.3.45-2.77.87-1.35.46-1.23.46-1,.45-.45.24h-.18v-.38l.66-.62-.27-.29,0,0,.07-.11.13-.13.23-.16.7-.38,1-.4,1.17-.44,4-1.28,1.31-.45,1.17-.45.91-.4Zm0-3.08-.58.35-.89.4-1.12.42-1.26.44-2.69.85-1.34.44-1.23.46-1.06.44-.67.36h-.18v-.06l.79-.87-.35-.31-.08-.1.32-.33.64-.37.95-.4,1.17-.44,1.32-.45,2.75-.86,1.35-.46,1.2-.46,1-.43Zm0-3.09h0l-.6.37-.93.4-1.14.44-1.31.45-2.75.86-1.35.46-1.23.46-1,.44-.46.25-.05,0h-.17v-.4l.65-.61-.27-.28,0,0,.21-.24.23-.16.7-.38,1-.4,1.17-.44,4-1.28,1.31-.45L306,251l.89-.4Zm0-3.09-.25.17-.33.19-.88.39-1.12.43-1.25.43-2.69.85-1.34.44-1.23.46-1.06.44-.69.37h-.18v-.14l.76-.81-.33-.3-.06-.08.15-.21.18-.14.65-.38.95-.4,1.17-.44,1.32-.44,2.74-.87,1.34-.46,1.2-.45.95-.42Zm0-3.08h0l-.25.16-.34.19-.91.4-1.15.44-1.29.44-2.74.86-1.36.46-1.22.46-1,.44-.46.25-.08.05h-.17v-.36l.69-.63-.29-.3,0,0,.05-.09.12-.13L297,248l.37-.19,1-.4,1.17-.43,1.31-.44,2.71-.85,1.32-.46,1.17-.45.91-.4Zm0-3.09h0l-.24.16-.33.19-.9.39-1.11.43-1.28.44-2.7.84-1.34.46-1.22.45-1.05.43-.48.25-.19.11h-.17v-.19l.75-.76-.33-.32-.05-.06.16-.21.2-.16.27-.17.37-.19,1-.41,1.18-.44,1.31-.44,2.73-.86,1.33-.46,1.2-.45.94-.41Zm0-3.09h0l-.61.37-.89.39-1.15.43-1.28.44-2.74.86-1.34.46-1.23.45-1,.44-.48.24-.11.07h-.16v-.24l.64-.65-.31-.29-.05-.07,0-.08.35-.31.28-.17.38-.19,1-.41,1.17-.43,1.31-.44,2.73-.86,1.32-.45,1.19-.45,1-.45h0Zm0-3.09-.09.09-.24.16-.34.19-.9.4-1.14.43-1.28.44-2.72.86-1.35.45-1.23.45-1,.44-.48.24h-.22v-.25l.64-.64-.32-.3,0-.06.05-.09.33-.29.66-.37,1-.4,1.17-.44,1.31-.44,2.72-.85,1.32-.45,1.2-.46,1-.45h0Zm0-3.07-.08.06-.6.37-.9.4-1.13.43-1.28.44-2.72.85-1.34.45-1.22.46-1.06.44-.45.23-.24.15v-.17l.72-.8-.35-.31-.08-.09v0l.32-.32.26-.17.36-.19.94-.41,1.18-.44,1.31-.45,2.76-.86,1.34-.46,1.21-.46,1-.45,0,0Zm0-3.1-.1.09-.27.18-.32.18-.93.4-1.15.44-1.31.45-2.76.86-1.35.47-1.22.45-1,.45-.46.25h-.11v-.37l.62-.61-.3-.29,0-.06.05-.08.34-.29.31-.2.37-.19,1-.4,1.17-.43,1.31-.44,2.7-.85,1.33-.46,1.18-.45,1-.44h0Zm0-3.09-.33.25-.34.19-.91.4-1.12.43L303,229l-2.71.85-1.33.45-1.23.45-1.05.44-.47.24-.16.1h-.09v-.18l.7-.75-.34-.31-.07-.09.13-.19.19-.15.66-.39.93-.39,1.17-.44,1.32-.45,2.75-.86,1.34-.46,1.2-.45,1-.42.07,0Zm0-3.09-.35.26-.35.2-.9.39-1.14.44-1.31.44-2.74.86-1.36.46-1.22.46-1,.42-.5.27-.05,0h-.1V228l.6-.58-.29-.3,0,0,.05-.1.12-.12.53-.36.38-.19,1-.4,1.17-.44,1.29-.43,2.72-.85,1.31-.46,1.18-.44,1-.44h0Zm0-3.08-.34.25-.33.19-.9.39-1.12.43-1.27.44-2.71.84-1.33.46-1.22.45-1,.43-.48.24-.18.11h-.09v-.48l.44-.52-.19-.18v-.33l.14-.12.27-.18.36-.2.92-.39,1.16-.45,1.32-.45,2.77-.87,1.36-.46,1.22-.46,1-.46.21-.11Zm0-3.28-.08.12-.18.16-.61.37-.94.41-1.17.43-1.31.45-2.78.87-1.35.47-1.22.46-1,.43-.39.21v-.41l.59-.53-.28-.3,0-.05.21-.23.23-.16.71-.4.95-.39,1.17-.43,1.31-.44,2.7-.84,1.3-.46,1.18-.44,1-.44Zm0-2.9-.08.08-.58.36-.89.39-1.13.43-1.26.44-2.69.84-1.34.45-1.22.45-1,.42-.71.39h-.1V219l.72-.79-.35-.31-.09-.09h0l.14-.19.17-.15.64-.37.94-.41,1.18-.44,1.31-.44,2.76-.86,1.35-.47,1.21-.46,1-.45h0Zm0-3.08-.08.08-.6.36-.93.41-1.15.44-1.31.45-2.75.86-1.35.46-1.23.45-1,.45L296,216l0,0h-.09v-.49l.58-.5-.27-.3,0,0,.06-.12.38-.3.72-.38.95-.39,1.18-.44,1.3-.43,2.69-.85,1.31-.45,1.16-.44.95-.42h0Zm0-3.08-.07.06-.6.37-.87.38-1.11.43-1.26.43-2.69.84-1.33.45-1.23.45-1,.42-.75.4h-.09v-.26l.49-.48-.3-.29,0-.06,0-.08.34-.3.32-.19.36-.19,1-.4,1.18-.43,1.3-.45,2.71-.85,1.33-.45,1.18-.45,1-.44.15-.08Zm0-3-.05.08-.42.31-.34.19-.9.4-1.12.42-1.28.44-2.71.85-1.34.46-1.22.45-1.05.43L296,210l-.12.07v-.29l.57-.62-.35-.31-.07-.08.14-.19.19-.15.66-.39.93-.39,1.17-.44,1.32-.45,2.75-.86,1.34-.46,1.2-.46,1-.42.2-.11Zm0-3.08-.05.06-.43.33-.35.2-.9.39-1.15.43-1.3.45-2.75.86-1.35.46-1.22.46-1,.42-.5.27h0v-.52l.47-.45-.29-.29,0-.05.06-.09.11-.12.54-.36.37-.19,1-.4,1.18-.44,1.29-.44,2.72-.84,1.31-.46,1.18-.45,1-.44.14-.08Zm0-3.09-.05.07-.42.32-.33.18-.9.4-1.12.42-1.27.45-2.71.84-1.33.45-1.22.45-1.05.44-.48.24-.14.08v-.41l.48-.56-.32-.33.1-.15.17-.15.27-.18.36-.2.92-.4,1.16-.44,1.32-.45,2.77-.87,1.36-.46,1.22-.46,1-.46.17-.09Zm0-3.08,0,0-.18.16-.61.37-.94.41-1.17.44-1.31.45-2.78.87-1.35.46-1.22.47-1,.42-.43.24v-.55l.46-.42-.28-.29,0-.06.21-.22.22-.17.72-.39.95-.39,1.17-.43,1.3-.44,2.71-.84,1.3-.46,1.18-.45,1-.44.13-.07Zm0-3.1-.21.22-.58.35-.9.4-1.12.42-1.26.45-2.7.84-1.33.45-1.23.45-1,.42-.67.36v-.26l.58-.64-.35-.31-.08-.09h0l.14-.19.17-.15.64-.37.94-.4,1.17-.44,1.32-.45,2.76-.86,1.34-.46,1.21-.46,1-.45.16-.09Zm0-3.08,0,.06-.18.15-.6.37-.92.4-1.15.44-1.31.45L300,193l-1.36.46-1.23.46-1,.45-.45.24v-.58l.44-.39-.27-.3,0,0,.07-.12.37-.3.73-.39.95-.39,1.18-.43,1.3-.44,2.69-.84,1.31-.45,1.16-.45.95-.41.16-.09Zm0-3.08,0,0-.17.16-.6.37-.88.38-1.1.42-1.27.44-2.69.84-1.32.45-1.23.45-1,.42-.71.37v-.32l.56-.6-.33-.29-.07-.1.14-.2.18-.15.65-.37.95-.4,1.17-.44,1.31-.44,2.75-.87,1.35-.46,1.19-.45,1-.42.2-.11Z"/><path class="cls-1" d="M315.07,270.32h-27.3v-13.5l5,1.7a26.65,26.65,0,0,0,17.37,0l5-1.7Z"/><path class="cls-1" d="M460.18,441l.64-.7-.34-.31-.07-.09.14-.19.18-.15.66-.38.94-.39,1.17-.45,1.31-.44,2.75-.86,1.35-.46,1.19-.46,1-.42.06,0V437l-.33.25-.34.19-.9.39-1.13.43-1.28.44-2.71.85-1.33.46-1.22.44-1.06.44-.2.11h4.14l.14,0,2.71-.85,1.32-.45,1.18-.45,1-.44h0v1.34l-.09.08-.28.19-.32.17-.93.41-.16.06h4.41V393.6h-2.63v.31l0,0-.18.16-.62.38-.9.39-1.14.43-1.3.45-2.75.86-1.34.46-1.23.45-1,.45-.46.24,0,0v-.53l.47-.44-.29-.3,0,0,.06-.09.37-.31.68-.37,1-.4,1.18-.44,1.3-.44,2.71-.84,1.3-.45H464l-1,.34-1.22.46-1.05.43-.47.23-.17.1v-.36l.54-.55-.32-.31-.07-.09,0-.06.22-.19h-3V441Zm-.06-40,.56-.59-.33-.3-.07-.09.14-.2.19-.15.64-.37.95-.41,1.18-.44,1.31-.44,2.75-.86,1.34-.46,1.19-.46,1-.42.2-.11V397l0,.05-.17.15-.6.37-.87.38-1.11.42-1.26.44-2.69.84-1.33.45-1.23.45-1,.42-.71.38Zm0,2.82.45-.38-.27-.3,0,0,.06-.12.38-.3.72-.38.95-.39,1.18-.44,1.3-.44,2.69-.84,1.31-.45,1.16-.45,1-.41.16-.09v1.28l0,.05-.18.16-.6.36-.93.41-1.15.43-1.31.45-2.75.87-1.35.45-1.23.46-1,.45-.45.24Zm0,3.42.59-.64-.35-.31-.08-.09h0l.14-.2.17-.14.64-.38.94-.4,1.18-.44,1.31-.44,2.76-.87,1.35-.46,1.21-.46,1-.45.15-.09v1.27l-.21.22-.58.36-.89.39-1.13.43-1.26.44-2.69.84-1.34.45-1.22.45-1,.42-.68.37Zm0,2.79.46-.41-.28-.3,0-.06.21-.22.23-.17.71-.39.95-.39,1.17-.43,1.31-.44,2.7-.84,1.3-.46,1.18-.45,1-.44.13-.07v1.28l0,.06-.18.16-.61.36-.94.41-1.17.44-1.31.45-2.78.87-1.35.47-1.22.46-1,.43-.43.23Zm0,3.23.48-.57-.32-.32.1-.16.18-.15.26-.18.36-.2.92-.39,1.17-.45,1.31-.45,2.78-.87,1.35-.46,1.22-.46,1-.46.17-.09v1.27l-.05.07-.42.32-.33.19-.9.39-1.12.43-1.27.44-2.71.84-1.33.45-1.22.46-1.05.43-.48.24-.14.09Zm0,3,.47-.46-.29-.29,0,0,.05-.1.12-.12.53-.36.38-.19,1-.4,1.17-.44,1.29-.44,2.72-.84,1.31-.46,1.18-.44,1-.45.13-.07v1.27l-.05.06-.43.33-.35.2-.9.39-1.14.44-1.31.44-2.74.86-1.36.46-1.22.46-1,.42-.5.27h0Zm0,3.31.57-.61-.34-.31-.07-.09.13-.19.19-.15.66-.39.93-.39,1.17-.44,1.32-.45,2.75-.86,1.34-.46,1.2-.45,1-.42.2-.12v1.28l-.05.07-.41.31-.34.19-.91.4-1.12.43-1.28.44-2.71.84-1.33.46-1.23.45-1.05.44-.47.24-.12.07Zm0,2.9.49-.48-.3-.29,0-.06.05-.08.34-.29.31-.2.37-.19,1-.4,1.17-.43,1.31-.45,2.7-.84,1.33-.46,1.18-.45,1-.44.15-.08v1.17l-.07.07-.6.36-.87.39-1.11.42-1.26.44-2.69.84-1.33.45-1.23.45-1,.42-.75.39h-.09Zm0,2.85.58-.5-.27-.3,0,0,.07-.11.37-.3.72-.39.95-.39,1.19-.43,1.29-.44,2.7-.84,1.31-.46,1.15-.44.95-.41,0,0v1.34l-.08.07-.6.37-.92.4-1.16.44-1.3.45-2.76.86-1.35.46-1.23.46-1,.44-.47.25,0,0h-.09Zm0,3.45.72-.79-.35-.3-.08-.1h0l.13-.19.18-.15.63-.37.95-.41,1.17-.43,1.32-.45,2.75-.86,1.35-.47,1.21-.45,1-.45,0,0v1.34l-.07.08-.59.35-.89.4-1.13.42-1.26.44-2.69.85-1.34.45-1.22.44-1,.42-.71.39h-.1Zm0,2.76.59-.53-.28-.3,0-.05.21-.22.23-.17.71-.39.95-.39,1.18-.43,1.3-.44,2.7-.85,1.31-.45,1.18-.45,1-.44v1.14l-.08.12-.18.16-.61.37-.94.41-1.17.44-1.31.45-2.78.87-1.35.46-1.22.46-1,.43-.39.21Zm0,3.06.44-.51-.18-.19v-.33l.14-.12.26-.17.36-.2.92-.4,1.17-.44,1.31-.45,2.78-.87,1.35-.47,1.22-.46,1-.45.21-.12v1.43l-.34.26-.32.18-.9.4-1.13.42-1.27.44-2.71.85-1.33.45-1.22.45-1.05.44-.48.24-.18.11h-.09Zm0,3.16.61-.58-.3-.29,0-.05,0-.1.12-.12.53-.36.38-.18,1-.41,1.17-.43,1.3-.44,2.71-.85,1.31-.45,1.18-.45,1-.44h0v1.32l-.35.27-.35.2-.9.39-1.14.43-1.3.45-2.75.86L463,437l-1.22.46-1,.42-.49.27-.06,0h-.1Z"/><path class="cls-1" d="M131.35,441l.72-.69-.39-.31-.07-.09.15-.19.2-.15.74-.39,1-.39,1.3-.44,1.46-.44,3.06-.87,1.5-.46,1.33-.45,1.08-.42.08,0V437l-.37.26-.38.18-1,.4-1.25.43-1.42.44-3,.85-1.48.45-1.36.45-1.17.44-.23.1h4.61l.15,0,3-.85,1.47-.46,1.32-.45,1.1-.44h0V440l-.11.09-.3.18-.36.18-1,.4-.18.06h4.9v-47.4h-2.92v.31l0,.05-.2.16-.69.38-1,.39-1.27.43-1.45.44-3.05.87-1.5.45-1.36.46-1.16.44-.51.25h0v-.53l.51-.43-.32-.3,0,0,.06-.09.42-.32.75-.36,1.09-.4,1.3-.44,1.45-.44,3-.84,1.46-.45h-5.34l-1.13.34-1.36.46-1.17.43-.51.23-.19.1v-.36l.6-.55-.37-.31-.07-.09,0-.06.25-.19h-3.36V441Zm-.06-40,.61-.6-.36-.29-.08-.1.16-.2.2-.15.72-.37,1.06-.4,1.31-.44,1.45-.44,3.06-.87,1.5-.46,1.32-.45,1.09-.42.22-.11V397l0,.05-.19.15-.67.37-1,.38-1.23.42-1.41.44-3,.84-1.48.45-1.36.45-1.14.42-.78.37Zm0,2.82.49-.39-.3-.3,0,0,.07-.11.42-.3.8-.39,1.06-.39,1.32-.43,1.44-.44,3-.84,1.46-.45,1.29-.45,1.06-.41.18-.09V400l0,.06-.2.15-.67.37-1,.4-1.28.44-1.45.45-3.07.86-1.5.46-1.37.46-1.15.44-.5.25Zm0,3.42.64-.65-.38-.3-.09-.1h0l.16-.19.19-.15.71-.37,1.05-.4,1.3-.44,1.47-.45,3.07-.86,1.49-.46,1.35-.46,1.13-.45.18-.09v1.27l-.24.22-.65.35-1,.4-1.25.42-1.4.44-3,.85-1.49.45-1.36.45-1.14.42-.74.36Zm0,2.78.51-.41-.32-.3,0,0,.23-.22.25-.17.8-.39,1.05-.39,1.31-.43,1.45-.44,3-.85,1.45-.45,1.31-.45,1.1-.44.15-.07v1.27l-.05.06-.2.16-.68.37-1,.41-1.3.44-1.46.45-3.09.87-1.51.46-1.35.46-1.11.43-.47.24Zm0,3.23.53-.56-.36-.33.11-.16.2-.15.29-.17.4-.21,1-.39,1.29-.44,1.47-.45,3.09-.87,1.5-.47,1.36-.46,1.16-.45.19-.1v1.28l-.06.07-.47.32-.36.18-1,.4-1.25.42-1.41.44-3,.85-1.48.45-1.36.45-1.17.43-.53.25-.15.08Zm0,3,.52-.45-.32-.3,0,0,0-.1.14-.12.59-.36.42-.18,1.09-.41,1.3-.43,1.44-.44,3-.85,1.45-.45,1.31-.45,1.11-.44.16-.08v1.27l-.06.07-.48.33-.39.2-1,.38-1.27.44-1.45.44-3.06.87-1.51.45L133,416l-1.12.42-.55.26,0,0Zm0,3.31.63-.61-.39-.31-.07-.09.15-.19.21-.15.73-.39,1-.39,1.3-.44,1.47-.44,3-.87,1.5-.45,1.33-.46,1.09-.42.22-.11v1.27l-.06.07-.46.32-.38.18-1,.4-1.25.43-1.43.44-3,.85-1.49.45-1.36.45-1.17.44-.52.24-.13.07Zm0,2.9.54-.48-.33-.29-.05-.06.05-.08.38-.29.35-.2.41-.19,1.07-.4L135,420l1.44-.44,3-.85,1.47-.45,1.32-.46,1.1-.44.17-.08v1.17l-.08.07-.67.37-1,.38-1.23.42-1.41.44-3,.84-1.48.45-1.36.45-1.14.42-.83.4h-.1Zm0,2.85.64-.5-.3-.3,0,0,.08-.11.41-.3.81-.39,1.06-.39,1.31-.43,1.45-.44,3-.84,1.46-.46,1.29-.44,1-.41,0,0v1.34l-.09.07-.67.37-1,.4-1.28.44-1.46.45-3.06.86-1.51.46-1.36.46-1.15.44-.52.25,0,0h-.1Zm0,3.45.79-.79-.38-.3-.1-.1h0l.16-.19.19-.15.71-.37,1-.41L135,426l1.46-.45,3.07-.86,1.5-.47,1.35-.45,1.13-.45,0,0v1.34l-.09.08-.65.35-1,.4-1.25.42-1.41.44-3,.85-1.49.45-1.36.44-1.14.42-.79.39h-.1Zm0,2.76.65-.53-.31-.3,0-.05.23-.23.25-.16.8-.39,1-.39,1.31-.43,1.45-.44,3-.85,1.45-.45,1.31-.45,1.1-.44v1.14l-.09.12-.2.16-.68.37-1.05.41-1.3.44-1.46.45-3.09.86-1.51.47-1.35.46-1.11.43-.42.21Zm0,3.06.48-.52-.2-.18v-.33l.15-.12.3-.18.4-.2,1-.39,1.3-.44,1.46-.46,3.09-.86,1.5-.47,1.37-.46,1.15-.45.24-.12v1.43l-.38.25-.36.19-1,.4-1.25.42-1.41.44-3,.85-1.49.45-1.35.45-1.17.43-.53.25-.2.11h-.1Zm0,3.16.67-.58-.33-.3,0,0,.06-.1.14-.12.59-.36.42-.19,1.09-.4,1.3-.43,1.44-.44,3-.85,1.46-.45,1.31-.45,1.11-.44h0v1.33l-.39.27-.39.2-1,.38-1.28.44-1.45.44-3,.86-1.51.46-1.36.47-1.11.41-.55.27-.07,0h-.1Z"/><path class="cls-3" d="M145,385.88a2,2,0,0,0,.33-1.06,2,2,0,0,0-.33-1.07Z"/><path class="cls-1" d="M209.12,363.87c.54.48-2.23.73-1,1.2l3.42.54,3,5a28.87,28.87,0,0,0,9.61,2H378.6a28.81,28.81,0,0,0,9.6-2l2.21-4.67a4,4,0,0,0,1.85-1.26l4.72-1.24,2.9.37,40.79,1.07-5.12-14.36c-9.61,0-31,0-34.87.11a8.49,8.49,0,0,1-4,3l-7.52,3.77a30.44,30.44,0,0,1-10.42,2.13H224.36a30.44,30.44,0,0,1-10.42-2.13l-.11-.05-7.41-3.72a8.43,8.43,0,0,1-4-3c-4.6-.08-24.52-.1-36.09-.1l-4.81,12.83,45.09-.81Z"/><path class="cls-1" d="M577,289.23V282H536.48l7.86-7.86a3.63,3.63,0,0,0,0-5.14l-.35-.36a3.63,3.63,0,0,0-5.14,0l-13.28,13.28a5,5,0,0,0,0,7.05l13.7,13.69a3.62,3.62,0,0,0,5.13,0h0a3.64,3.64,0,0,0,0-5.15l-8.25-8.25Z"/><path class="cls-1" d="M145,385.09v.79a2,2,0,0,0,.33-1.06,2.64,2.64,0,0,0,0-.28v.55Z"/><path class="cls-1" d="M145.14,385.57c-1,1.42-4.15,2.92-7.44,2.92-4.2,0-7.61-1.64-7.61-3.67l-.11-11H80L67.86,396.89H534.28L520.11,373.8H472.62v11.95a17.73,17.73,0,0,1-7.25,1.69,14.34,14.34,0,0,1-7.34-2.1V373.8H443.86l-1.78-5c-14.87,0-35.1,0-41.58.1a8.56,8.56,0,0,1-4,3L389,375.65a30.68,30.68,0,0,1-10.42,2.13H224.18a30.68,30.68,0,0,1-10.42-2.13l-.11,0-7.41-3.72a8.56,8.56,0,0,1-4-3c-6.68-.13-27.94-.12-42.78-.09l-1.07,4.95H145.29"/><path class="cls-1" d="M404.48,263H196.71l-22.63,44.21,0,0-29.81,58.12h60.84c.15,1.31,1.59,2.56,4,3.49l7.29,3.75a29,29,0,0,0,9.81,1.53H377.06a29,29,0,0,0,9.81-1.53l7.29-3.75c2.46-.93,3.9-2.18,4-3.49h60.84Z"/><path class="cls-1" d="M471.14,185.13v.31l0,.05-.18.16-.62.38-.9.39-1.14.43-1.3.45-2.75.86-1.34.46-1.23.45-1,.45-.46.24,0,0v-.53l.47-.44-.29-.3,0,0,.06-.1.37-.31.68-.37,1-.4,1.18-.44,1.3-.44,2.71-.84,1.3-.45H464l-1,.34-1.22.46-1.05.43-.47.23-.17.1v-.36l.54-.55-.32-.31-.07-.09,0-.06.22-.19h-3V388.65c1.05.24,2.1.43,3.16.57l.2-.19-.33-.31,0-.08.16-.19.19-.15.68-.39,1-.4,1.17-.43,1.31-.45,2.72-.85,1.33-.46,1.19-.45.94-.41v1.37h0l-.25.17-.32.19-.92.39-1.12.43-1.27.44-2.72.86-1.34.45-1.22.45-.32.13a35.53,35.53,0,0,0,3.86.22l2.2-.71,1.32-.45,1.18-.45.92-.41v1.37h0l-.24.17-.23.12c1-.14,2.08-.32,3.11-.56V185.13Zm-11,7.42.56-.59-.33-.3-.07-.09.14-.2.19-.15.64-.37.95-.41,1.18-.43,1.31-.45,2.75-.86,1.34-.46,1.19-.46,1-.42.2-.11v1.28l0,.05-.17.15-.6.37-.87.38-1.11.42-1.26.44-2.69.84-1.33.45-1.23.45-1,.42-.71.38Zm0,2.82.45-.38-.27-.3,0,0,.06-.12.38-.3.72-.38.95-.39,1.18-.44,1.3-.43,2.69-.85,1.31-.45,1.16-.44,1-.42.16-.09v1.28l0,0-.18.16-.6.36-.93.41-1.15.43-1.31.46-2.75.86-1.35.45-1.23.46-1,.45-.45.24Zm0,3.42.59-.64-.35-.31-.08-.09h0l.14-.2.17-.14.64-.37.94-.41,1.18-.44,1.31-.44,2.76-.86,1.35-.47L470,194l1-.45.15-.08v1.26l-.21.22-.58.36-.89.39-1.13.43-1.26.44-2.69.84-1.34.45-1.22.45-1,.42-.68.37Zm0,2.79.46-.41-.28-.3,0-.06.21-.22.23-.17.71-.39.95-.39,1.17-.43,1.31-.44,2.7-.84,1.3-.46L470,197l1-.44.13-.07v1.28l0,.06-.18.16-.61.36-.94.41-1.17.44-1.31.45-2.78.87-1.35.47-1.22.46-1,.43-.43.23Zm0,3.23.48-.57-.32-.32.1-.16.18-.15.26-.18.36-.2.92-.39,1.17-.45,1.31-.45,2.78-.87,1.35-.46,1.22-.46,1-.46.17-.09v1.27l-.05.07-.42.32-.33.19-.9.39-1.12.43-1.27.44-2.71.84L463,204l-1.22.46-1.05.43-.48.24-.14.09Zm0,3,.47-.46-.29-.29,0,0,.05-.1.12-.12.53-.36.38-.19,1-.4,1.17-.44,1.29-.44,2.72-.84,1.31-.46,1.18-.44,1-.45.13-.07V204l-.05.07-.43.32-.35.2-.9.39-1.14.44-1.31.44-2.74.86-1.36.46-1.22.46-1,.42-.5.27h0Zm0,3.31.57-.61-.34-.31-.07-.09.13-.19.19-.15.66-.39.93-.39,1.17-.44,1.32-.45,2.75-.86,1.34-.46,1.2-.45,1-.42.2-.12v1.28l-.05.07-.41.31-.34.19-.91.4-1.12.43-1.28.44-2.71.84-1.33.46-1.23.45-1.05.44-.47.24-.12.07Zm0,2.9.49-.48-.3-.29,0-.06.05-.08.34-.29.31-.2.37-.19,1-.4,1.17-.43,1.31-.44,2.7-.85,1.33-.46,1.18-.45,1-.44.15-.08V210l-.07.07-.6.37-.87.38-1.11.42-1.26.44-2.69.84-1.33.45-1.23.45-1,.42-.75.4h-.09Zm0,2.85.58-.5-.27-.3,0,0,.07-.11.37-.3.72-.39.95-.39,1.19-.43L465,214l2.7-.84,1.31-.46,1.15-.44.95-.41,0,0v1.34l-.08.07-.6.37-.92.4-1.16.44-1.3.45-2.76.86-1.35.46-1.23.46-1,.44-.47.25,0,0h-.09Zm0,3.45.72-.79-.35-.3-.08-.1h0l.13-.19.18-.15.63-.37.95-.41,1.17-.43,1.32-.45,2.75-.86,1.35-.47,1.21-.45,1-.45,0,0v1.34l-.07.08-.59.35-.89.4-1.13.42-1.26.44-2.69.85-1.34.45-1.22.44-1,.43-.71.38h-.1Zm0,2.76.59-.53-.28-.3,0,0,.21-.22.23-.17.71-.39.95-.39,1.18-.43,1.3-.44,2.7-.85,1.31-.45,1.18-.45,1-.44v1.15l-.08.11-.18.16-.61.37-.94.41-1.17.44-1.31.45-2.78.87-1.35.46-1.22.46-1,.43-.39.21Zm0,3.06.44-.51-.18-.19v-.33l.14-.12.26-.17.36-.2.92-.4,1.17-.44,1.31-.45,2.78-.87,1.35-.47,1.22-.46,1-.45.21-.12v1.43l-.34.26-.32.18-.9.4-1.13.42-1.27.45-2.71.84-1.33.45-1.22.45-1.05.44-.48.24-.18.11h-.09Zm0,3.16.61-.58-.3-.29,0,0,0-.1.12-.12.53-.36.38-.18,1-.41,1.17-.43,1.3-.44,2.71-.85L469,225l1.18-.45,1-.44h0v1.32l-.35.27-.35.2-.9.39-1.14.43-1.3.45-2.75.86-1.36.46-1.22.46-1,.42-.49.27-.06,0h-.1Zm0,3.33.7-.76-.34-.31-.07-.09.14-.19.18-.15.66-.38.94-.39,1.17-.45,1.31-.44,2.75-.86,1.35-.46,1.19-.46,1-.42.06,0v1.34l-.33.25-.34.19-.9.39-1.13.43-1.28.44-2.71.85-1.33.46-1.22.44-1.06.44-.47.25-.15.09h-.1Zm0,2.89.62-.62-.3-.29,0-.05,0-.09.34-.29.31-.19.37-.19,1-.4,1.18-.44,1.3-.44,2.71-.85,1.32-.45,1.18-.45,1-.44h0v1.34l-.09.08-.28.19-.32.17-.93.41-1.15.43-1.31.45-2.75.87-1.35.46-1.23.46-1,.44-.47.25,0,0h-.09Zm0,3.34.73-.8-.35-.3-.09-.1v0l.32-.32.27-.17.35-.19.94-.4,1.18-.44,1.31-.45,2.76-.87,1.35-.46,1.21-.46,1-.44,0,0v1.34l-.08.07-.59.36-.91.4-1.13.43-1.28.44-2.72.86-1.34.45-1.22.45-1.06.44-.45.24-.24.14Zm0,2.87.64-.63-.31-.31,0-.06,0-.09.34-.29.65-.36,1-.41,1.18-.43,1.3-.44,2.72-.86,1.33-.45,1.19-.45,1-.45h0v1.33l-.09.09-.24.17-.34.19-.9.4-1.13.43-1.28.44-2.73.85-1.35.45-1.22.46-1,.44-.48.24h-.23Zm0,3.1.64-.65-.3-.29-.06-.07,0-.07.35-.31.28-.18.38-.19,1-.4,1.17-.44,1.31-.44,2.73-.85,1.32-.46,1.2-.45,1-.44h0v1.34h0l-.61.37-.89.39-1.14.43-1.29.45-2.73.85-1.35.46-1.23.46-1,.43-.47.25-.11.07h-.17Zm0,3.14.75-.76-.33-.31-.05-.07.16-.21.21-.16.27-.17.37-.19,1-.41,1.17-.43,1.31-.45,2.74-.85,1.32-.46,1.2-.45.94-.41V244h0l-.25.17-.32.18-.9.39-1.12.43-1.27.44-2.71.85-1.34.45-1.22.45-1.05.44-.48.24-.19.12h-.17Zm0,2.93.69-.64-.29-.3,0-.05.05-.09.12-.12.54-.36.38-.19,1-.4,1.17-.44,1.3-.44,2.71-.85,1.32-.45,1.17-.45.91-.4v1.37h0l-.24.17-.34.19-.92.4-1.15.43-1.29.45-2.74.86-1.35.46-1.23.45-1,.44-.46.25-.08,0h-.17Zm0,3.31.77-.82-.34-.3-.06-.08.15-.21.18-.14.65-.38.95-.4,1.18-.43,1.31-.45,2.75-.86,1.33-.46,1.2-.46.95-.41v1.37l-.24.17-.33.18-.89.4-1.11.42-1.26.44-2.69.84-1.34.45-1.22.45L461,254l-.69.37h-.18Zm0,2.8.66-.61-.27-.27,0-.05.21-.23.23-.17.7-.38,1-.4,1.18-.43,4-1.28,1.3-.45,1.17-.45.89-.4v1.38h0l-.6.36-.92.41-1.15.43-1.31.45-2.75.86-1.35.46-1.22.46-1,.45-.46.24,0,0h-.18Zm0,3.44.79-.87-.35-.3-.08-.11.32-.33.64-.36.95-.41,1.18-.44,1.31-.45,2.75-.86,1.35-.46,1.2-.46,1-.42v1.37l-.58.36-.89.39-1.11.43-1.27.43-2.69.85-1.34.45-1.23.45-1,.44-.68.37h-.18Zm0,2.76.67-.62-.28-.28,0,0,.07-.12.13-.12.23-.17.7-.38,1-.4,1.18-.43,4-1.29,1.31-.45,1.17-.45.9-.4v1.37l0,0-.25.17-.34.19-.92.41-1.17.44-1.3.45-2.77.86-1.35.46-1.22.46-1,.45-.46.25h-.18Zm.47,2.26-.1-.11.13-.18.16-.15.63-.37.94-.4,1.18-.44,1.31-.45,2.76-.86L469,262l1.22-.46,1-.42v1.35l-.25.19-.34.19-.88.39-1.13.43-1.27.43-2.7.85-1.34.45-1.22.45-1.06.44-.46.24-.2.12h-.16l.81-.91Zm-.47,3.95.69-.63-.29-.3,0-.06.2-.22.2-.16.7-.38,1-.41,1.18-.43,1.3-.44,2.71-.85,1.3-.45,1.19-.44.91-.41v1.38h0l-.6.36-.92.41-1.15.43-1.3.45-2.75.86-1.36.46-1.22.45-1,.45-.46.25,0,0h-.18Zm0,3.37.79-.85-.34-.31-.09-.1h0l.33-.33.64-.37.95-.41,1.16-.43,1.32-.45,2.76-.86,1.34-.46,1.2-.46,1-.42v1.35l-.25.19-.34.19-.9.4-1.13.43-1.27.44-2.71.84-1.34.46-1.22.45-1,.43-.48.24-.17.11h-.17Zm0,2.84.7-.67-.3-.3,0,0,.18-.25.5-.34.38-.19,1-.4,1.17-.43,1.31-.44,2.71-.85,1.31-.46,1.19-.45.92-.41v1.36l-.28.21-.31.17-.92.41-1.14.43-1.29.44-2.74.86-1.35.46-1.22.46-1.05.44-.46.24-.08.05h-.18Zm0,3.26.76-.8-.33-.3-.06-.08.15-.21.19-.15.65-.37,1-.4,1.17-.44,1.31-.45,2.74-.86,1.34-.46,1.19-.45.95-.42v1.37l-.61.38-.88.39-2.41.87-2.73.85-1.33.45-1.23.45-1,.44-.47.24-.15.09h-.17Zm0,3,.72-.7-.31-.3,0-.05.18-.24.49-.33.37-.19,1-.41,1.18-.43,1.3-.44,2.73-.85,1.3-.46,1.2-.45.93-.41v1.37l-.61.38-.89.38-1.13.43-1.29.45-2.72.85-1.35.45-1.23.46-1,.44-.47.24-.13.08h-.17Zm0,3.13.74-.72-.32-.31-.06-.08.16-.19.22-.18.29-.18.37-.18,1-.41,1.17-.44,1.31-.44,2.73-.85,1.33-.46,1.18-.45.94-.41V281h0l-.61.38-.89.38-1.14.44-1.28.44-2.72.85-1.35.46-1.22.45-1.05.44-.46.24-.12.08h-.18Zm.54,2.55.2-.19-.33-.31,0-.08.16-.19.19-.15.68-.39,1-.4,1.17-.44,1.31-.44,2.72-.85,1.33-.46,1.19-.45.94-.41v1.37h0l-.25.17-.32.18-.92.4-1.12.43-1.27.44-3.29,1.1-.06.05-.88.29-1.22.46-1.05.43-.47.24-.17.09V288l.53-.53Zm10.48,95.23h0l-.61.38-.89.39-1.14.43-1.28.44-2.72.85-1.35.46-1.22.45-1.05.44-.46.24-.12.08h-.18v-.22l.74-.73-.32-.31-.06-.08.16-.19.22-.18.29-.17.37-.19,1-.41,1.17-.43,1.31-.44,2.73-.86,1.33-.46,1.18-.45.94-.41Zm0-3.09-.61.38-.89.39-1.13.43-1.29.44-2.72.85-1.35.46-1.23.45-1,.44-.47.24-.13.08h-.17v-.27l.72-.7-.31-.3,0-.05.18-.24.49-.33.37-.19,1-.4,1.18-.44,1.3-.44,2.73-.85,1.3-.46,1.2-.44.93-.41Zm0-3.08-.61.38-.88.38-2.41.87-2.73.85-1.33.45L462,380l-1,.44-.47.24-.15.09h-.17v-.14l.76-.8-.33-.3-.06-.08.15-.21.19-.15.65-.37,1-.4,1.17-.44,1.31-.45,2.74-.86,1.34-.46,1.19-.45.95-.42Zm0-3.11-.28.21-.31.17-.92.41-1.14.43-1.29.44-2.74.86-1.35.46-1.22.46-1.05.44-.46.25-.08,0h-.18v-.3l.7-.67-.3-.31,0,0,.18-.25.5-.34.38-.19,1-.4,1.17-.43,1.31-.44,2.71-.85L469,373l1.19-.46.92-.41Zm0-3.09-.25.2-.34.18-.9.4-1.13.43-1.27.44-2.71.85-1.34.45-1.22.45-1,.43-.48.25-.17.1h-.17v-.07l.79-.85-.34-.31-.09-.1h0l.33-.33.64-.37.95-.41,1.16-.43,1.32-.45,2.76-.86,1.34-.46,1.2-.46,1-.42Zm0-3.06h0l-.6.36-.92.41-1.15.44-1.3.44-2.75.86-1.36.46-1.22.46-1,.44-.46.25,0,0h-.18v-.35l.69-.63-.29-.3,0-.06.2-.22.2-.16.7-.38,1-.4,1.18-.43,1.3-.44,2.71-.85,1.3-.46,1.19-.44.91-.41Zm0-3.11-.25.19-.34.19-.88.39-1.13.43-1.27.44-2.7.84-1.34.46-1.22.44L461,368l-.46.24-.2.12h-.16l.81-.91-.35-.31-.1-.11.13-.18.16-.14.63-.38.94-.4,1.18-.44,1.31-.45,2.76-.86,1.35-.47,1.22-.46,1-.42Zm0-3.08,0,0-.25.18-.34.19-.92.4-1.17.44-1.3.45-2.77.86-1.35.46-1.22.46-1,.45-.46.25h-.18v-.38l.67-.62-.28-.28,0,0,.07-.12.13-.12.23-.17.7-.37,1-.41,1.18-.43,4-1.29,1.31-.45,1.17-.44.9-.41Zm0-3.07-.58.35-.89.39-1.11.43-1.27.44-2.69.84-1.34.45-1.23.45-1,.45-.68.36h-.18v-.07l.79-.87-.35-.3-.08-.11.32-.33.64-.36.95-.41,1.18-.44,1.31-.45,2.75-.86,1.35-.46,1.2-.46,1-.42Zm0-3.09h0l-.6.36-.92.41-1.15.43-1.31.45-2.75.86-1.35.47-1.22.45-1,.45-.46.24,0,0h-.18v-.41l.66-.6-.27-.28,0-.05.21-.23.23-.17.7-.37,1-.41,1.18-.43,4-1.28,1.3-.45,1.17-.45.89-.4Zm0-3.09-.24.17-.33.18-.89.4-1.11.42-1.26.44-2.69.84-1.34.45-1.22.45-1.07.44-.69.37h-.18v-.13l.77-.82-.34-.3-.06-.08.15-.2.18-.15.65-.38.95-.4,1.18-.43,1.31-.45,2.75-.86,1.33-.46,1.2-.46.95-.41Zm0-3.09h0l-.24.17-.34.19-.92.4-1.15.43-1.29.45-2.74.86-1.35.46-1.23.45-1,.45-.46.24-.08.05h-.17v-.35l.69-.64-.29-.3,0,0,.05-.09.12-.12.54-.36.38-.19,1-.4,1.17-.44,1.3-.44,2.71-.85,1.32-.45,1.17-.45.91-.4Zm0-3.08h0l-.25.17-.32.18-.9.4-1.12.42-1.27.44-2.71.85-1.34.45-1.22.46-1.05.43-.48.24-.19.12h-.17v-.2l.75-.76-.33-.31-.05-.06.16-.22.21-.16.27-.17.37-.19,1-.4,1.17-.44,1.31-.45,2.74-.85,1.32-.46,1.2-.45.94-.41Zm0-3.09h0l-.61.38-.89.38-1.14.43-1.29.45-2.73.85-1.35.46-1.23.46-1,.44-.47.24-.11.07h-.17v-.25l.64-.65-.3-.29-.06-.07,0-.07.35-.31.28-.17.38-.19,1-.41,1.17-.44,1.31-.44,2.73-.85,1.32-.45,1.2-.46,1-.44h0Zm0-3.1-.09.09-.24.17-.34.19-.9.4-1.13.43-1.28.44-2.73.85-1.35.45-1.22.46-1,.44-.48.24h-.23v-.26l.64-.63-.31-.31,0-.06,0-.08.34-.29.65-.37,1-.4,1.18-.44,1.3-.44,2.72-.86,1.33-.45,1.19-.45,1-.45h0Zm0-3.07-.08.07-.59.36-.91.41-1.13.42-1.28.44-2.72.86-1.34.45-1.22.45-1.06.44-.45.24-.24.14v-.17l.73-.79-.35-.31-.09-.1v0l.32-.32.27-.18.35-.19.94-.4,1.18-.44,1.31-.45,2.76-.86,1.35-.47,1.21-.46,1-.44,0,0Zm0-3.09-.09.08-.28.19-.32.17-.93.41-1.15.43-1.31.46-2.75.86-1.35.46-1.23.46-1,.44-.47.25,0,0h-.09v-.37l.62-.61-.3-.29,0-.06,0-.09.34-.29.31-.19.37-.19,1-.4,1.18-.43,1.3-.45,2.71-.85,1.32-.45,1.18-.45,1-.44h0Zm0-3.09-.33.25-.34.19-.9.39-1.13.43-1.28.44-2.71.85-1.33.46-1.22.45-1.06.43-.47.25-.15.09h-.1v-.17l.7-.76-.34-.31-.07-.09.14-.18.18-.16.66-.38.94-.39,1.17-.45,1.31-.44,2.75-.86,1.35-.46,1.19-.46,1-.42.06,0Zm0-3.09-.35.26-.35.2-.9.39-1.14.43-1.3.45-2.75.86-1.36.46-1.22.46-1,.42-.49.27-.06,0h-.1V331l.61-.58-.3-.29,0-.05,0-.1.12-.11.53-.36.38-.19,1-.4,1.17-.44,1.3-.44,2.71-.84,1.31-.46,1.18-.45,1-.44h0Zm0-3.09-.34.26-.32.18-.9.4-1.13.42-1.27.45-2.71.84-1.33.45-1.22.45-1.05.44-.48.24-.18.11h-.09v-.49l.44-.51-.18-.19v-.33l.14-.11.26-.18.36-.2.92-.4,1.17-.44,1.31-.45,2.78-.87,1.35-.47,1.22-.45,1-.46.21-.12Zm0-3.27-.08.11-.18.16-.61.37-.94.41-1.17.44-1.31.45-2.78.87-1.35.46-1.22.47-1,.42-.39.21v-.4l.59-.54-.28-.29,0-.06.21-.22.23-.17.71-.39.95-.39,1.18-.43,1.3-.44,2.7-.85,1.31-.45,1.18-.45,1-.44Zm0-2.9-.07.08-.59.35-.89.4-1.13.42-1.26.45-2.69.84-1.34.45-1.22.45-1,.42-.71.38h-.1V322l.72-.79-.35-.3-.08-.1h0l.13-.19.18-.15.63-.37.95-.4,1.17-.44,1.32-.45,2.75-.86,1.35-.46,1.21-.46,1-.45h0Zm0-3.08-.08.07-.6.37-.92.4-1.16.44-1.3.45-2.76.86-1.35.46-1.23.46-1,.44-.47.25,0,0h-.09v-.49l.58-.5-.27-.3,0,0,.07-.11.37-.3.72-.39.95-.39,1.19-.43,1.29-.44,2.7-.84,1.31-.46,1.15-.44.95-.41,0,0Zm0-3.09-.07.07-.6.37-.87.38-1.11.42-1.26.44-2.69.84-1.33.45-1.23.45-1,.42-.75.4h-.09v-.27l.49-.48-.3-.29,0-.06.05-.08.34-.29.31-.19.37-.2,1-.4,1.17-.43,1.31-.44,2.7-.85,1.33-.46,1.18-.45,1-.44.15-.08Zm0-3-.05.07-.41.32-.34.18-.91.4-1.12.43-1.28.44-2.71.85-1.33.45-1.23.45-1.05.44-.47.24-.12.07v-.29l.57-.61-.34-.31-.07-.09.13-.19.19-.15.66-.39.93-.39,1.17-.44,1.32-.44,2.75-.87,1.34-.46L470,308l1-.42.2-.11Zm0-3.09-.05.07-.43.33-.35.19-.9.39-1.14.44-1.31.44-2.74.86-1.36.46-1.22.47-1,.41-.5.27,0,0v-.52l.47-.45-.29-.3,0,0,.05-.1.12-.12.53-.36.38-.19,1-.4,1.17-.44,1.29-.43,2.72-.85,1.31-.46,1.18-.44,1-.44.13-.08Zm0-3.09-.05.07-.42.32-.33.19-.9.39-1.12.43-1.27.44-2.71.84-1.33.46-1.22.45-1.05.43-.48.24-.14.09v-.41l.48-.57-.32-.32.1-.16.18-.15.26-.18.36-.2.92-.39,1.17-.45,1.31-.45,2.78-.87,1.35-.46,1.22-.46,1-.45.17-.1Zm0-3.08,0,.06-.18.16-.61.37-.94.41-1.17.43-1.31.45-2.78.87-1.35.47-1.22.46-1,.43-.43.23v-.55l.46-.41-.28-.3,0-.06.21-.22.23-.16.71-.4.95-.39,1.17-.43,1.31-.44,2.7-.84,1.3-.46,1.18-.44,1-.45.13-.07Zm0-3.1-.21.22-.58.36-.89.39-1.13.43-1.26.44-2.69.84-1.34.45-1.22.45-1,.42-.68.37v-.27l.59-.64-.35-.31-.08-.09h0l.14-.19.17-.15.64-.37.94-.41,1.18-.44,1.31-.44,2.76-.86,1.35-.47,1.21-.46,1-.45.15-.08Zm0-3.07,0,.05-.18.16-.6.37-.93.4-1.15.44-1.31.45-2.75.86-1.35.46-1.23.45-1,.45-.45.24v-.58l.45-.38-.27-.3,0,0,.06-.12.38-.29.72-.39.95-.39,1.18-.43,1.3-.44,2.69-.85,1.31-.45,1.16-.44,1-.42.16-.09Zm0-3.09,0,.05-.17.15-.6.37-.87.38-1.11.43-1.26.43-2.69.85-1.33.45-1.23.44-1,.42-.71.38v-.33l.56-.59-.33-.3-.07-.09.14-.2.19-.15.64-.37.95-.41,1.18-.43,1.31-.45,2.75-.86,1.34-.46,1.19-.46,1-.42.2-.11Zm0-3.09,0,.06-.13.1-.09.07-.23.12h0l-.4.24-.9.39-1.14.43L467,289l-2.75.86-1.34.46-1.23.46-1,.44-.46.24,0,0V291l.47-.43-.29-.3,0,0,.06-.1.37-.31.68-.37,1-.4,1.18-.44,1.3-.43,2.71-.85,2.39-.94h0l.29-.11.92-.41v1.32Z"/><path class="cls-1" d="M143.55,185.13v.31l0,.05-.2.16-.69.38-1,.39-1.27.43-1.45.45-3.05.86-1.5.46-1.36.45-1.16.45-.51.24,0,0v-.53l.51-.44-.32-.3,0,0,.06-.09.42-.31.75-.37,1.09-.4,1.3-.44,1.45-.44,3-.84,1.46-.45h-5.34l-1.13.34-1.36.46-1.17.43-.51.23-.19.1v-.36l.6-.55-.37-.31-.07-.09,0-.06.25-.19h-3.36V388.6c1.16.24,2.34.43,3.52.57l.21-.19-.36-.31-.06-.08.18-.19.22-.15.75-.39,1.07-.4,1.31-.43,1.46-.45,3-.85,1.48-.46,1.32-.45,1.05-.41v1.37h0l-.27.17-.36.19-1,.39-1.25.43-1.42.44-3,.85-1.51.46-1.35.45-.35.13c1.42.14,2.85.22,4.29.22l2.45-.71,1.47-.45,1.31-.45,1-.41v1.37h0l-.26.17-.26.12c1.16-.14,2.31-.32,3.46-.56V185.13Zm-12.26,7.42.61-.6-.36-.29-.08-.09.16-.21.2-.14.72-.37,1.06-.41,1.31-.44,1.45-.44,3.06-.86,1.5-.46,1.32-.46,1.09-.42.22-.11v1.28l0,.05-.19.15-.67.37-1,.38-1.23.42-1.41.44-3,.84-1.48.45-1.36.45-1.14.42-.78.37Zm0,2.82.49-.39-.3-.3,0,0,.07-.12.42-.3.8-.39,1.06-.39,1.32-.43,1.44-.44,3-.84,1.46-.45,1.29-.45,1.06-.41.18-.09v1.27l0,.06-.2.16-.67.36-1,.41-1.28.43-1.45.45-3.07.86-1.5.46-1.37.46-1.15.45-.5.24Zm0,3.42.64-.64-.38-.31-.09-.09h0l.16-.19.19-.15.71-.37,1.05-.4,1.3-.44,1.47-.44,3.07-.87,1.49-.46,1.35-.46,1.13-.45.18-.09v1.27l-.24.22-.65.35-1,.4-1.25.42-1.4.45-3,.84-1.49.45-1.36.45-1.14.42-.74.36Zm0,2.79.51-.42-.32-.29,0-.06.23-.22.25-.17.8-.39,1.05-.39,1.31-.43,1.45-.44,3-.84,1.45-.46,1.31-.45,1.1-.44.15-.07v1.28l-.05.05-.2.16-.68.37-1,.41-1.3.44-1.46.45-3.09.87-1.51.46-1.35.47-1.11.42-.47.24Zm0,3.22.53-.56-.36-.33.11-.16.2-.15.29-.17.4-.2,1-.4,1.29-.44,1.47-.45,3.09-.87,1.5-.46,1.36-.46,1.16-.46.19-.09v1.27l-.06.07-.47.32-.36.18-1,.4-1.25.42-1.41.45-3,.84-1.48.45-1.36.45-1.17.44-.53.24-.15.08Zm0,3,.52-.45-.32-.29,0,0,0-.1.14-.12.59-.36.42-.18,1.09-.4,1.3-.44,1.44-.44,3-.84,1.45-.46,1.31-.45,1.11-.44.16-.08V204l-.06.07-.48.33-.39.2-1,.39-1.27.43-1.45.45-3.06.86-1.51.46-1.35.46-1.12.42-.55.27h0Zm0,3.31.63-.61-.39-.31-.07-.09.15-.19.21-.15.73-.38,1-.39,1.3-.45,1.47-.44,3-.86,1.5-.46,1.33-.46,1.09-.42.22-.11V207l-.06.08-.46.31-.38.19-1,.39-1.25.43-1.43.44-3,.85-1.49.46-1.36.44-1.17.44-.52.24-.13.08Zm0,2.9.54-.48-.33-.29-.05-.06.05-.08.38-.29.35-.19.41-.19,1.07-.4,1.32-.44,1.44-.44,3-.85,1.47-.45,1.32-.45,1.1-.44.17-.09V210l-.08.06-.67.37-1,.38-1.23.42-1.41.44-3,.84-1.48.45-1.36.45-1.14.42-.83.4h-.1Zm0,2.85.64-.5-.3-.3,0,0,.08-.12.41-.3.81-.39,1.06-.39,1.31-.43,1.45-.44,3-.84,1.46-.45,1.29-.45,1-.41,0,0v1.34l-.09.07-.67.37-1,.4-1.28.44-1.46.45-3.06.86-1.51.46-1.36.46-1.15.45-.52.25h-.13Zm0,3.45.79-.79-.38-.3-.1-.1h0l.16-.19.19-.15.71-.37,1-.4,1.31-.44,1.46-.45,3.07-.86,1.5-.46,1.35-.46,1.13-.45h0v1.33l-.09.08-.65.35-1,.4-1.25.42-1.41.45-3,.84-1.49.45-1.36.45-1.14.42-.79.38h-.1Zm0,2.76.65-.53-.31-.29,0-.06.23-.22.25-.17.8-.39,1-.39,1.31-.43,1.45-.44,3-.85,1.45-.45,1.31-.45,1.1-.44v1.15l-.09.11-.2.16-.68.37-1.05.41-1.3.44-1.46.45-3.09.87-1.51.46-1.35.46-1.11.43-.42.21Zm0,3.06.48-.51-.2-.19v-.33l.15-.12.3-.17.4-.2,1-.4,1.3-.44,1.46-.45,3.09-.87,1.5-.47,1.37-.45,1.15-.46.24-.12v1.43l-.38.26-.36.18-1,.4-1.25.42-1.41.45-3,.84-1.49.45-1.35.45-1.17.44-.53.24-.2.11h-.1Zm0,3.16.67-.58-.33-.29,0-.05.06-.1.14-.12.59-.36.42-.18,1.09-.41,1.3-.43,1.44-.44,3-.85,1.46-.45,1.31-.45,1.11-.44h0v1.32l-.39.27-.39.2-1,.39-1.28.43-1.45.45-3,.86-1.51.46-1.36.46-1.11.42-.55.27-.07,0h-.1Zm0,3.32.78-.75-.39-.31-.07-.09.15-.19.2-.15.74-.38,1-.39,1.3-.45,1.46-.44,3.06-.86,1.5-.46,1.33-.46,1.08-.42.08,0v1.34l-.37.25-.38.18-1,.4-1.25.43-1.42.44-3,.85-1.48.45-1.36.45-1.17.44-.53.24-.17.1h-.1Zm0,2.89.68-.61-.33-.29,0-.06.05-.08.38-.29.35-.19.41-.19,1.07-.41,1.31-.43,1.45-.44,3-.85,1.47-.45,1.32-.46,1.1-.43h0v1.34l-.11.08-.3.19-.36.17-1,.4-1.29.44-1.45.45-3.07.86-1.5.47-1.37.46-1.15.44-.52.25h-.11Zm0,3.35.8-.8-.39-.3-.09-.1,0,0,.37-.32.29-.17.39-.19,1.05-.41,1.31-.44,1.46-.45,3.07-.86,1.5-.46,1.34-.46,1.13-.45.05,0v1.35l-.09.06-.66.37-1,.4-1.26.43-1.43.44-3,.85-1.49.45-1.36.46-1.18.44-.5.23-.26.15Zm0,2.87.71-.64-.35-.3-.05-.06.05-.09.37-.29.74-.37,1.08-.4,1.3-.44,1.45-.44,3-.85,1.47-.45,1.33-.46,1.12-.44h0v1.33l-.1.09-.27.16-.38.19-1,.4-1.26.43-1.43.44-3,.86-1.5.45-1.36.45-1.15.44-.53.24h-.25Zm0,3.1.71-.66-.34-.29-.06-.06,0-.08.39-.31.31-.17.42-.19,1.07-.41,1.3-.43,1.46-.44,3-.86,1.47-.45,1.33-.45,1.11-.45h0v1.33h0l-.68.37-1,.39-1.27.43-1.43.44-3,.86-1.5.45-1.36.46-1.15.44-.53.24-.12.07h-.18Zm0,3.14.83-.76-.37-.32-.05-.06.18-.21.22-.17.3-.17.42-.18,1.06-.41,1.31-.44,1.45-.44,3.05-.86,1.48-.46,1.33-.45,1.05-.41V244h0l-.27.17-.36.19-1,.39-1.24.43-1.41.44-3,.84-1.49.45-1.35.46-1.17.43-.54.24-.21.12h-.18Zm0,2.92.76-.64-.32-.29,0-.05.06-.1.14-.12.6-.36.41-.19,1.09-.4,1.31-.44,1.45-.44,3-.84,1.47-.46,1.31-.45,1-.4v1.37h0l-.27.17-.38.19-1,.4-1.27.44-1.44.44-3.05.86-1.51.46-1.36.46-1.16.44-.51.24-.09.05h-.18Zm0,3.31.84-.82-.37-.3-.06-.08.16-.2.2-.15.72-.37,1.07-.4,1.3-.44,1.47-.45,3-.86,1.49-.46,1.33-.45,1.06-.42v1.37l-.28.17-.36.19-1,.39-1.24.43-1.4.43-3,.84-1.49.45-1.36.45-1.19.45-.77.36h-.19Zm0,2.8.72-.6-.3-.28,0,0,.24-.23.26-.17.77-.37,1.09-.41,1.31-.43,4.45-1.28,1.45-.45,1.31-.45,1-.4v1.38h0l-.67.37-1,.4-1.27.44-1.46.44-3.06.86-1.5.47-1.37.45-1.15.45-.51.24-.05,0h-.19Zm0,3.44.88-.87-.39-.3-.1-.11.36-.32.71-.37,1.06-.41,1.31-.44,1.46-.45,3.06-.86,1.5-.46,1.34-.46,1.07-.42v1.38l-.65.35-1,.39-1.24.43-1.41.44-3,.84-1.49.45-1.37.45-1.18.45-.75.36h-.19Zm0,2.76.74-.62-.31-.28,0,0,.08-.12.14-.12.25-.17.78-.37L134,261l1.31-.43,4.45-1.29,1.46-.45,1.3-.44,1-.41v1.38h0l-.28.18-.38.19-1,.4-1.3.44-1.45.45-3.07.86-1.51.46-1.36.46-1.16.45-.5.25h-.2Zm.51,2.26-.1-.11.13-.18L132,265l.7-.37,1.05-.4,1.3-.44,1.46-.45,3.08-.86,1.5-.47,1.35-.46,1.09-.42v1.35l-.29.19-.37.19-1,.39-1.25.43-1.41.44-3,.84-1.48.45-1.36.45-1.18.44-.52.24-.22.12h-.17l.9-.91Zm-.51,3.95.76-.64-.32-.29,0-.06.22-.22.23-.16.77-.38,1.09-.41,1.31-.43,1.45-.44,3-.85,1.45-.45,1.32-.44,1-.41v1.38h0l-.67.36-1,.41-1.27.43-1.45.45-3.07.86-1.5.46-1.36.45-1.16.45-.51.25-.05,0h-.19Zm0,3.37.87-.85-.38-.31-.09-.1h0l.37-.33.71-.37,1.06-.41,1.29-.43,1.47-.45,3.07-.86,1.49-.46,1.34-.46,1.07-.42v1.35l-.28.19-.38.19-1,.4-1.25.43-1.41.44-3,.84-1.49.45-1.35.46-1.16.43-.54.24-.19.11h-.18Zm0,2.84.77-.67-.33-.3,0,0,.21-.24.55-.34.42-.19,1.08-.4,1.31-.44,1.45-.44,3-.85,1.47-.45,1.32-.45,1-.41v1.36l-.31.21-.35.17-1,.4-1.27.43-1.44.45-3,.86-1.5.46-1.36.45-1.16.45-.52.24-.09,0h-.19Zm0,3.25.84-.79-.36-.31-.07-.08.17-.2.2-.15.72-.37,1.07-.41,1.31-.43,1.45-.45,3.06-.86,1.48-.46,1.33-.45,1.06-.42v1.37l-.69.38-1,.39-2.69.86-3,.85-1.48.46-1.37.45-1.16.44-.52.24-.16.09h-.19Zm0,3,.79-.71-.34-.29,0-.05.2-.25.55-.33.41-.18,1.07-.41,1.31-.43,1.45-.45,3-.85,1.46-.45,1.33-.45,1-.41v1.37l-.68.37-1,.39-1.26.43-1.43.44-3,.86-1.5.45-1.36.46-1.15.44-.52.24-.14.07h-.19Zm0,3.13.81-.73-.35-.31-.07-.08.18-.19.25-.17.31-.18.42-.19,1.06-.4,1.31-.44,1.46-.44,3-.86,1.47-.45,1.32-.46,1.05-.4V281h0l-.69.37-1,.39-1.26.43-1.43.44-3,.85-1.5.46-1.35.46-1.17.43-.51.25-.14.07h-.19Zm.6,2.55.21-.19-.36-.32-.06-.07.18-.19.22-.15.75-.39,1.07-.4,1.31-.44,1.46-.45,3-.85,1.48-.45,1.32-.46,1.05-.4v1.36h0l-.27.17-.36.18-1,.4-1.25.43-1.42.44-3.65,1.1-.07,0-1,.3-1.36.45-1.17.44-.51.23-.19.1V288l.58-.53Zm11.66,95.2h0l-.69.38-1,.39-1.26.43-1.43.44-3,.85-1.5.46-1.35.45-1.17.44-.51.24-.14.08h-.19v-.22l.81-.73-.35-.31-.07-.08.18-.19.25-.18.31-.17.42-.19,1.06-.41,1.31-.43,1.46-.44,3-.86,1.47-.46,1.32-.45,1.05-.41Zm0-3.08-.68.37-1,.39-1.26.43-1.43.44-3,.85-1.5.46-1.36.45-1.15.44-.52.24-.14.08h-.19v-.26l.79-.71-.34-.3,0,0,.2-.25.55-.33.41-.19,1.07-.4,1.31-.44,1.45-.44,3-.85,1.46-.46,1.33-.44,1-.41Zm0-3.09-.69.38-1,.38-2.69.87-3,.85-1.48.46-1.37.45-1.16.44-.52.24-.16.09h-.19v-.15l.84-.8-.36-.3-.07-.08.17-.21.2-.14.72-.38,1.07-.4,1.31-.44,1.45-.44,3.06-.87,1.48-.45,1.33-.46,1.06-.41Zm0-3.11-.31.21-.35.18-1,.4-1.27.43-1.44.44-3,.87-1.5.45-1.36.46-1.16.44-.52.25-.09,0h-.19v-.31l.77-.67-.33-.3,0,0,.21-.25.55-.33.42-.19,1.08-.4,1.31-.44,1.45-.44,3-.85,1.47-.45,1.32-.45,1-.41Zm0-3.08-.28.19-.38.19-1,.39-1.25.43-1.41.44-3,.85-1.49.45-1.35.46-1.16.43-.54.24-.19.1h-.18v-.07l.87-.85-.38-.3-.09-.1h0l.37-.33.71-.38,1.06-.4,1.29-.44,1.47-.44,3.07-.87,1.49-.45,1.34-.46,1.07-.43Zm0-3.07h0l-.67.37-1,.4-1.27.44-1.45.44-3.07.87-1.5.45-1.36.46-1.16.45-.51.25-.05,0h-.19v-.34l.76-.64-.32-.29,0-.07.22-.22.23-.15.77-.39,1.09-.4,1.31-.43,1.45-.44,3-.85,1.45-.45,1.32-.45,1-.4Zm0-3.11-.29.2-.37.18-1,.4-1.25.42-1.41.44-3,.85-1.48.45-1.36.45-1.18.44-.52.23-.22.13h-.17l.9-.92-.4-.3-.1-.11.13-.19.19-.14.7-.37,1.05-.4,1.3-.44,1.46-.45,3.08-.87,1.5-.46,1.35-.46,1.09-.43Zm0-3.07,0,0-.28.17-.38.19-1,.41-1.3.43-1.45.45-3.07.87-1.51.46-1.36.46L132,365l-.5.24h-.2v-.38l.74-.62-.31-.28,0,0,.08-.11.14-.13.25-.16.78-.38,1.08-.4,1.31-.44,4.45-1.28,1.46-.45,1.3-.45,1-.4Zm0-3.08-.65.35-1,.4-1.24.42-1.41.44-3,.85-1.49.44-1.37.46-1.18.44-.75.36h-.19v-.06l.88-.87-.39-.31-.1-.1.36-.33.71-.37,1.06-.4,1.31-.44,1.46-.45,3.06-.86,1.5-.46,1.34-.46,1.07-.42Zm0-3.08h0l-.67.36-1,.41-1.27.43-1.46.45-3.06.86-1.5.46-1.37.46-1.15.45-.51.24-.05,0h-.19v-.41l.72-.61-.3-.27,0,0,.24-.24.26-.16L133,357l1.09-.4,1.31-.43,4.45-1.28,1.45-.45,1.31-.45,1-.4Zm0-3.09-.28.17-.36.18-1,.4-1.24.42-1.4.44-3,.84-1.49.44-1.36.46-1.19.44-.77.37h-.19v-.13l.84-.82-.37-.3-.06-.08.16-.21.2-.14.72-.38,1.07-.4,1.3-.43,1.47-.45,3-.86,1.49-.46,1.33-.46,1.06-.41Zm0-3.09h0l-.27.17-.38.19-1,.4-1.27.43-1.44.45-3.05.86-1.51.46-1.36.45-1.16.44-.51.25-.09,0h-.18v-.35l.76-.64-.32-.3,0-.05.06-.09.14-.12.6-.36.41-.19,1.09-.4,1.31-.44,1.45-.44,3-.85,1.47-.45,1.31-.45,1-.4Zm0-3.08h0l-.27.17-.36.18-1,.4-1.24.42-1.41.44-3,.85-1.49.45-1.35.45-1.17.44-.54.24-.21.12h-.18v-.2l.83-.76-.37-.31-.05-.06.18-.22.22-.16.3-.17.42-.19,1.06-.4,1.31-.44,1.45-.45,3.05-.85,1.48-.46,1.33-.45,1.05-.41Zm0-3.09h0l-.68.38-1,.38-1.27.43-1.43.45-3,.85-1.5.46-1.36.46-1.15.44-.53.24-.12.07h-.18v-.25l.71-.65-.34-.29-.06-.07,0-.07.39-.31.31-.17.42-.19,1.07-.41,1.3-.44,1.46-.44,3-.85,1.47-.45,1.33-.46,1.11-.44h0Zm0-3.1-.1.1-.27.16-.38.19-1,.4-1.26.43-1.43.44-3,.85-1.5.45-1.36.46-1.15.44-.53.24h-.25v-.26l.71-.63-.35-.31-.05-.05.05-.09L132,342l.74-.37,1.08-.4,1.3-.44,1.45-.44,3-.85,1.47-.46,1.33-.45,1.12-.45h0Zm0-3.07-.09.07-.66.37-1,.4-1.26.43-1.43.44-3,.85-1.49.45-1.36.46-1.18.43-.5.24-.26.14v-.17l.8-.79-.39-.31-.09-.1,0,0L132,339l.29-.18.39-.19,1.05-.4,1.31-.44,1.46-.45,3.07-.86L141,336l1.34-.45,1.13-.45.05,0Zm0-3.09-.11.09-.3.18-.36.18-1,.4-1.29.44-1.45.45-3.07.86-1.5.46-1.37.46-1.15.45-.52.25h-.11v-.37l.68-.61-.33-.29,0-.06.05-.08.38-.29.35-.2.41-.19,1.07-.4,1.31-.43,1.45-.45,3-.84,1.47-.46,1.32-.45,1.1-.44h0Zm0-3.09-.37.25-.38.19-1,.4-1.25.43-1.42.44-3,.84-1.48.46-1.36.45-1.17.44-.53.24-.17.1h-.1v-.18l.78-.75-.39-.31-.07-.09.15-.19.2-.15.74-.39,1-.39,1.3-.44,1.46-.45,3.06-.86,1.5-.46,1.33-.45,1.08-.42.08,0Zm0-3.09-.39.26-.39.2-1,.39-1.28.44-1.45.44-3,.86-1.51.46-1.36.46-1.11.42-.55.27-.07,0h-.1V331l.67-.59-.33-.29,0,0,.06-.1.14-.12.59-.36.42-.19,1.09-.4,1.3-.44,1.44-.44,3-.84,1.46-.46,1.31-.44,1.11-.44h0Zm0-3.08-.38.25-.36.19-1,.39-1.25.43-1.41.44-3,.84-1.49.46-1.35.45-1.17.43-.53.24-.2.11h-.1v-.48l.48-.52-.2-.18v-.33l.15-.12.3-.18.4-.2,1-.39,1.3-.45,1.46-.45,3.09-.87,1.5-.46,1.37-.46,1.15-.45.24-.12Zm0-3.28-.09.12-.2.16-.68.37-1.05.41-1.3.43-1.46.45-3.09.87-1.51.47-1.35.46-1.11.43-.42.21v-.41l.65-.53-.31-.3,0-.05.23-.23.25-.16.8-.39,1-.4,1.31-.43,1.45-.43,3-.85,1.45-.46,1.31-.44,1.1-.44Zm0-2.9-.09.08-.65.36-1,.39-1.25.43-1.41.44-3,.84-1.49.45-1.36.45-1.14.42-.79.39h-.1V322l.79-.79-.38-.3-.1-.1h0l.16-.19.19-.15.71-.37,1-.41,1.31-.43,1.46-.45,3.07-.86,1.5-.47,1.35-.46,1.13-.44,0,0Zm0-3.07-.09.07-.67.37-1,.4-1.28.44-1.46.45-3.06.86-1.51.46-1.36.46-1.15.44-.52.25,0,0h-.1v-.49l.64-.5-.3-.3,0,0,.08-.12.41-.29.81-.39,1.06-.39,1.31-.43,1.45-.44,3-.84,1.46-.46,1.29-.44,1-.41,0,0Zm0-3.09-.08.07-.67.37-1,.38-1.23.42-1.41.44-3,.84-1.48.45-1.36.45-1.14.42-.83.39h-.1v-.26l.54-.48-.33-.29-.05-.06.05-.08.38-.29.35-.2.41-.19,1.07-.4,1.32-.43,1.44-.44,3-.85,1.47-.46,1.32-.45,1.1-.44.17-.08Zm0-3-.06.07-.46.31-.38.19-1,.4-1.25.43-1.43.44-3,.85-1.49.45-1.36.45-1.17.44-.52.24-.13.07v-.29l.63-.61-.39-.31-.07-.09.15-.19.21-.15.73-.39,1-.39,1.3-.44,1.47-.45,3-.86,1.5-.46,1.33-.45,1.09-.42.22-.11Zm0-3.09-.06.07L143,306l-.39.19-1,.39-1.27.44-1.45.44-3.06.86-1.51.46-1.35.46-1.12.42-.55.27h0v-.51l.52-.45-.32-.3,0,0,0-.1.14-.12.59-.36.42-.19,1.09-.4,1.3-.44,1.44-.43,3-.85,1.45-.46,1.31-.44,1.11-.44.16-.08Zm0-3.09-.06.07-.47.32-.36.19-1,.4-1.25.42-1.41.44-3,.84-1.48.46-1.36.45-1.17.43-.53.24-.15.09v-.41l.53-.57-.36-.32.11-.16.2-.15.29-.18.4-.2,1-.39,1.29-.44,1.47-.46,3.09-.86,1.5-.47,1.36-.46,1.16-.45.19-.1Zm0-3.08-.05.06-.2.16-.68.37-1,.41-1.3.43-1.46.46-3.09.86-1.51.47-1.35.46-1.11.43-.47.23v-.55l.51-.41-.32-.3,0-.05.23-.23.25-.16.8-.39,1.05-.39,1.31-.43,1.45-.44,3-.85,1.45-.46,1.31-.44,1.1-.44.15-.08Zm0-3.09-.24.22-.65.35-1,.4-1.25.42-1.4.44-3,.84-1.49.46-1.36.44-1.14.42-.74.37v-.27l.64-.64-.38-.3-.09-.1h0l.16-.19.19-.15.71-.37,1.05-.41,1.3-.43,1.47-.45,3.07-.86,1.49-.47,1.35-.45,1.13-.45.18-.09Zm0-3.08,0,.05-.2.16-.67.37-1,.4-1.28.44-1.45.45-3.07.86-1.5.46-1.37.46-1.15.44-.5.25v-.59l.49-.38-.3-.3,0,0,.07-.11.42-.3.8-.39,1.06-.39,1.32-.43,1.44-.44,3-.84L141,293l1.29-.44,1.06-.41.18-.09Zm0-3.08,0,0-.19.16-.67.37-1,.38-1.23.42L139,292l-3,.84-1.48.45-1.36.45-1.14.42-.78.37v-.32l.61-.6-.36-.29-.08-.1.16-.2.2-.15.72-.37,1.06-.4,1.31-.44,1.45-.45,3.06-.86,1.5-.46,1.32-.45,1.09-.42.22-.11Zm0-3.09,0,.05-.14.11-.1.06-.26.13h.06l-.45.25-1,.38-1.27.44-1.45.44-3.05.86-1.5.46-1.36.46-1.16.44-.51.25h0v-.53l.51-.43-.32-.3,0,0,.06-.09.42-.32.75-.36,1.09-.4,1.3-.44,1.45-.44,3-.84,2.67-.95h0l.32-.11,1-.4v1.32Z"/><path class="cls-1" d="M361.91,140.07v-5.36h-30l5.81-5.82a2.69,2.69,0,0,0,0-3.8l-.26-.26a2.69,2.69,0,0,0-3.8,0l-9.81,9.81a3.69,3.69,0,0,0,0,5.22L334,150a2.67,2.67,0,0,0,3.79,0h0a2.68,2.68,0,0,0,0-3.8l-6.09-6.1Z"/><path class="cls-1" d="M23,289.55v-7.26H63.52l-7.86-7.86a3.63,3.63,0,0,1,0-5.14l.35-.36a3.63,3.63,0,0,1,5.14,0l13.28,13.28a5,5,0,0,1,0,7.05L60.73,303a3.63,3.63,0,0,1-5.13,0h0a3.64,3.64,0,0,1,0-5.15l8.25-8.25Z"/><path class="cls-1" d="M558.17,220.81c.77,2,1.36,3.93,2.25,5.73q2.9,5.88,6.05,11.62c1.65,3,3.38,6,3.86,9.45a12.27,12.27,0,0,1-24.2,4.1,14.25,14.25,0,0,1,1.16-8.47,67.83,67.83,0,0,1,3.26-6.13,83.49,83.49,0,0,0,7.29-15.48C557.92,221.39,558,221.15,558.17,220.81Zm-4.37,36.71c-2.81-6.35-1.86-12.66-.41-19-1.75,1.92-3.71,6.42-4.28,9.79A8.74,8.74,0,0,0,553.8,257.52Z"/><path class="cls-1" d="M380.28,121.26c.53,1.39.94,2.74,1.56,4q2,4.09,4.21,8.09a19.08,19.08,0,0,1,2.69,6.59,8.54,8.54,0,0,1-16.85,2.85,9.89,9.89,0,0,1,.81-5.9,47.19,47.19,0,0,1,2.27-4.27,58,58,0,0,0,5.08-10.78C380.1,121.66,380.18,121.5,380.28,121.26Zm-3,25.57c-2-4.43-1.29-8.82-.28-13.24a16.14,16.14,0,0,0-3,6.82A6.09,6.09,0,0,0,377.23,146.83Z"/><path class="cls-1" d="M44.63,220.81c.77,2,1.36,3.93,2.25,5.72q2.88,5.86,6,11.6c1.66,3,3.38,6,3.86,9.44a12.25,12.25,0,0,1-24.15,4.09,14.1,14.1,0,0,1,1.15-8.45A67.83,67.83,0,0,1,37,237.08a83.14,83.14,0,0,0,7.27-15.45C44.39,221.39,44.5,221.15,44.63,220.81Zm-4.36,36.65c-2.8-6.34-1.85-12.64-.41-19-1.74,1.92-3.7,6.41-4.27,9.78A8.7,8.7,0,0,0,40.27,257.46Z"/><polyline class="cls-1" points="306.35 92.78 306.35 183.83 296.49 183.83 296.49 92.69"/><path class="cls-1" d="M361.91,481.32V476h-30l5.81-5.81a2.69,2.69,0,0,0,0-3.8l-.26-.26a2.69,2.69,0,0,0-3.8,0l-9.81,9.81a3.69,3.69,0,0,0,0,5.22L334,491.22a2.68,2.68,0,0,0,3.79,0h0a2.68,2.68,0,0,0,0-3.8l-6.09-6.1Z"/><path class="cls-1" d="M380.28,462.51c.53,1.38.94,2.74,1.56,4,1.34,2.72,2.75,5.43,4.21,8.09a19.11,19.11,0,0,1,2.69,6.58A8.55,8.55,0,0,1,371.89,484a9.89,9.89,0,0,1,.81-5.9,45.89,45.89,0,0,1,2.27-4.27,58.28,58.28,0,0,0,5.08-10.78A5.23,5.23,0,0,1,380.28,462.51Zm-3,25.56c-2-4.42-1.29-8.81-.28-13.24a16.19,16.19,0,0,0-3,6.82A6.08,6.08,0,0,0,377.23,488.07Z"/><path class="cls-1" d="M506.75,383.6V184.1h-8.52V383.55l0,0a7,7,0,0,0,8.5,0Z"/><polyline class="cls-1" points="297.15 507.25 297.15 448.7 307.01 448.7 307.01 507.31"/><polyline class="cls-1" points="498.23 441.21 498.23 397.73 506.75 397.73 506.75 441.25"/><path class="cls-1" d="M102.52,384.05V184.55H94V384h0a7,7,0,0,0,8.49,0Z"/><polyline class="cls-1" points="94 441.66 94 398.17 102.53 398.17 102.53 441.7"/></svg>