<svg id="Layer_1" data-name="Layer 1" xmlns="http://www.w3.org/2000/svg" viewBox="0 0 600 600"><defs><style>.cls-1{fill:#e0e0df;}</style></defs><polygon class="cls-1" points="586.24 483.28 342.11 323.38 342.11 46.44 258.1 46.44 258.1 323.25 13.76 483.28 59.8 553.57 300.01 396.23 540.22 553.57 586.24 483.28"/><path class="cls-1" d="M165,48.55l27.16,54.29,27.15-54.29h28.21L204.8,134v38.22H179.57V134L136.82,48.55Z"/><path class="cls-1" d="M511.39,267l22.49,37.17L556.38,267h29.86l-37.43,61.84,37.43,61.84H556.38l-22.5-37.17-22.49,37.17H481.53L519,328.87,481.53,267Z"/><path class="cls-1" d="M109.29,267v21.85L48,365.83h61.3v24.88H13.76V368.86l61.31-76.95H14.88V267Z"/></svg>