<svg id="Layer_1" data-name="Layer 1" xmlns="http://www.w3.org/2000/svg" viewBox="0 0 600 600"><defs><style>.cls-1{fill:#e0e0df;}</style></defs><rect class="cls-1" x="42.43" y="283.39" width="515.15" height="36.84" rx="15.32"/><path class="cls-1" d="M93.43,147.1c1,.9,1.85,1.59,2.62,2.36,15.52,15.64,31,31.33,46.6,46.87,2.2,2.19,2.47,3.38.11,5.63-6.94,6.62-13.78,13.37-20.37,20.35-2.48,2.63-3.88,2.22-6.14-.13-6.49-6.77-13.31-13.23-19.78-20-2.24-2.34-3.53-2.76-6-.14-6.42,6.83-13.32,13.21-19.75,20-2.61,2.79-4.12,2.52-6.61-.11-6.45-6.8-13.15-13.38-19.89-19.9-2.11-2-2.61-3.2-.18-5.61,15.65-15.51,31.1-31.23,46.62-46.87C91.54,148.71,92.51,147.93,93.43,147.1Z"/><path class="cls-1" d="M93.41,456.51c-1-.9-1.85-1.59-2.61-2.36-15.52-15.64-31-31.33-46.61-46.87-2.19-2.19-2.47-3.38-.11-5.63,7-6.62,13.78-13.37,20.37-20.34,2.49-2.63,3.89-2.23,6.14.12,6.5,6.77,13.31,13.23,19.79,20,2.24,2.35,3.53,2.76,6,.15,6.41-6.84,13.32-13.22,19.74-20,2.62-2.78,4.12-2.52,6.62.11,6.45,6.8,13.14,13.39,19.89,19.9,2.11,2,2.61,3.21.17,5.62C127.15,422.68,111.7,438.39,96.17,454,95.3,454.9,94.34,455.69,93.41,456.51Z"/></svg>