<svg id="Layer_1" data-name="Layer 1" xmlns="http://www.w3.org/2000/svg" viewBox="0 0 600 600"><defs><style>.cls-1{fill:#e0e0df;}</style></defs><rect class="cls-1" x="159.63" y="262.67" width="280.73" height="74.66" rx="16.1"/><path class="cls-1" d="M300,56.41c2,1.83,3.75,3.23,5.3,4.79,31.46,31.69,62.8,63.5,94.45,95,4.45,4.42,5,6.84.22,11.4-14.07,13.41-27.92,27.1-41.28,41.23-5,5.33-7.87,4.51-12.44-.26-13.17-13.71-27-26.8-40.1-40.55-4.53-4.75-7.16-5.59-12.13-.29-13,13.86-27,26.78-40,40.62-5.31,5.65-8.35,5.11-13.41-.21C227.53,194.34,214,181,200.3,167.8c-4.28-4.13-5.29-6.49-.36-11.38,31.71-31.43,63-63.28,94.49-95C296.19,59.67,298.15,58.09,300,56.41Z"/><path class="cls-1" d="M300,543.59c-2-1.83-3.75-3.23-5.3-4.79-31.46-31.69-62.8-63.5-94.45-95-4.45-4.42-5-6.84-.22-11.4,14.07-13.41,27.92-27.1,41.28-41.23,5-5.33,7.87-4.51,12.44.26,13.17,13.71,27,26.8,40.1,40.55,4.53,4.75,7.16,5.59,12.13.29,13-13.86,27-26.78,40-40.62,5.31-5.65,8.35-5.11,13.41.21C372.47,405.66,386,419,399.7,432.2c4.28,4.13,5.29,6.49.36,11.38-31.71,31.43-63,63.28-94.49,95C303.81,540.33,301.85,541.91,300,543.59Z"/></svg>