<svg id="Layer_1" data-name="Layer 1" xmlns="http://www.w3.org/2000/svg" viewBox="0 0 600 600"><defs><style>.cls-1{fill:#e0e0df;}</style></defs><path class="cls-1" d="M282.56,237c0,24.72.84,45.67-.21,66.52-1.48,29.76-22.74,42.18-48.6,27.6q-93.21-52.56-185.34-107c-25.66-15.15-26.07-40.56-.74-55.55Q139.76,114,233,61.52c26.93-15.18,48.28-2.24,49.4,29,.74,20.73.14,41.51.14,65.17,18,0-14.5,0,.4,0,66.33.1-16.43-.32,49.89.44,131.38,1.51,234.38,59.5,238.12,187,3.79,129.43-93,192.15-224.88,199.77-59.42,3.43-119.18,1.49-178.78.82-25.9-.29-42.82-17.38-43.15-39.87-.35-23.47,17.31-40.9,44.37-41.27,59.6-.82,119.31,1.4,178.8-1.34,80.05-3.68,143.13-30.16,142.78-110.87-.35-81.68-65.22-110-146.52-112.78-54.5-1.88,40-.51-14.6-.57C298.94,237,316.24,237,282.56,237Z"/></svg>