<svg id="Layer_1" data-name="Layer 1" xmlns="http://www.w3.org/2000/svg" xmlns:xlink="http://www.w3.org/1999/xlink" viewBox="0 0 600 600"><defs><style>.cls-1{fill:#e0e0df;}.cls-2{fill:none;}.cls-3{fill:url(#linear-gradient);}.cls-4{fill:url(#linear-gradient-2);}.cls-5{fill:url(#linear-gradient-3);}</style><linearGradient id="linear-gradient" x1="523.46" y1="250.86" x2="553.93" y2="250.86" gradientUnits="userSpaceOnUse"><stop offset="0" stop-color="#e0e0df"/><stop offset="1" stop-color="#e0e0df"/></linearGradient><linearGradient id="linear-gradient-2" x1="342.86" y1="159.38" x2="365.38" y2="159.38" xlink:href="#linear-gradient"/><linearGradient id="linear-gradient-3" x1="38.42" y1="253.47" x2="68.89" y2="253.47" xlink:href="#linear-gradient"/></defs><path class="cls-1" d="M323,255.85a4.35,4.35,0,0,0-1.48-2.41l-2.38-1.95a4.17,4.17,0,0,0-2.63-.94h-9.21v10.92h-.42c-1.19,1.52-4.26,2.6-7.88,2.6s-6.68-1.08-7.87-2.6l-.09-.12a2.23,2.23,0,0,1-.41-1h0v-.12a.87.87,0,0,1,0-.37v-3.12l0-.77,0-5.45h-9.56a4.17,4.17,0,0,0-2.68,1l-2.39,2a4.34,4.34,0,0,0-1.45,2.5l-2.86,13.55H326Z"/><rect class="cls-1" x="291.1" y="251.38" width="1.26" height="1.79"/><path class="cls-1" d="M292.59,253.4h-1.72v-2.25h1.72Zm-1.27-.46h.81V251.6h-.81Z"/><rect class="cls-1" x="291.1" y="247.81" width="1.26" height="1.78"/><path class="cls-1" d="M292.59,249.82h-1.72v-2.23h1.72Zm-1.27-.46h.81V248h-.81Z"/><rect class="cls-1" x="291.1" y="244.24" width="1.26" height="1.78"/><path class="cls-1" d="M292.59,246.25h-1.72V244h1.72Zm-1.27-.46h.81v-1.33h-.81Z"/><polygon class="cls-1" points="291.69 254.34 291.39 253.98 291.18 253.57 291.09 253.22 291.17 252.69 291.35 252.33 291.62 251.98 291.96 251.68 292.39 251.38 293.37 250.86 294.53 250.38 295.95 249.87 297.48 249.35 300.59 248.38 302.06 247.87 303.34 247.37 304.36 246.93 305.09 246.49 305.32 246.29 305.51 246.02 305.53 245.89 306.78 246.08 306.68 246.51 306.47 246.87 306.19 247.2 305.83 247.5 305.45 247.76 304.9 248.06 303.83 248.53 302.49 249.04 300.99 249.56 297.88 250.54 296.37 251.04 294.99 251.55 293.89 252 293.03 252.46 292.73 252.67 292.52 252.86 292.37 253.13 292.38 253.18 292.45 253.3 292.64 253.51 291.69 254.34"/><path class="cls-1" d="M291.67,254.66l-.46-.53-.24-.46-.11-.44.11-.64.18-.36.29-.39.37-.33.45-.32,1-.53,1.18-.49,1.42-.52,1.54-.52,3.11-1,1.46-.51,1.28-.49,1-.44.7-.43.2-.17.12-.18,0-.31,1.71.27-.18.72-.2.36-.31.37-.38.32-.41.28-.56.31-1.09.48-1.34.51-1.52.53-3.12,1-1.5.51-1.37.5-1.1.45-.84.45-.43.35-.08.13,0,.05.31.34Zm-.35-1.45.08.3.19.37.12.14.61-.53,0,0-.14-.3,0-.13.2-.33.21-.19.31-.22.89-.48,1.13-.46,1.38-.51,1.51-.51,3.12-1,1.5-.52,1.32-.51,1.07-.47.52-.29.37-.25L306,247l.26-.3.16-.3,0-.15-.8-.13-.2.28-.27.24-.75.46-1.05.46-1.29.5-1.48.51-3.11,1-1.53.52-1.41.52-1.15.47-1,.51-.41.29-.32.28-.24.32-.14.29Z"/><polygon class="cls-1" points="291.91 250.96 291.55 250.62 291.28 250.22 291.12 249.79 291.09 249.44 291.26 248.92 291.48 248.57 291.8 248.24 292.19 247.94 292.6 247.68 293.12 247.4 294.31 246.9 295.71 246.37 297.26 245.85 300.44 244.85 301.95 244.33 303.27 243.83 304.33 243.37 305.07 242.92 305.31 242.72 305.51 242.44 305.53 242.3 306.78 242.5 306.72 242.84 306.47 243.29 306.18 243.63 305.81 243.94 305.42 244.2 304.86 244.51 303.75 244.99 302.39 245.51 300.84 246.04 297.66 247.03 296.14 247.55 294.78 248.06 293.67 248.53 292.89 248.97 292.63 249.19 292.37 249.55 292.41 249.66 292.53 249.82 292.77 250.04 291.91 250.96"/><path class="cls-1" d="M291.92,251.28l-.53-.5-.33-.48-.15-.43-.05-.46.21-.61.22-.35.34-.36.42-.33.43-.28.54-.28,1.2-.51,1.41-.53,1.56-.53,3.18-1,1.51-.51,1.31-.5,1.05-.45.71-.44.21-.18.13-.19,0-.32,1.7.26-.12.65-.25.45-.32.37-.4.35-.41.27-.57.32-1.13.48-1.37.53-1.56.53-3.18,1-1.51.52-1.36.5-1.11.47-.74.43-.21.17-.17.24.08.1.38.34Zm-.44-1.17.26.38.16.15.54-.59-.06-.06-.18-.25-.09-.23.38-.5.26-.21.8-.47,1.14-.48,1.37-.51,1.53-.52,3.18-1,1.54-.53,1.36-.52,1.1-.47.54-.3.37-.25.35-.3.27-.31.22-.45-.82-.13-.21.29-.27.25-.77.47-1.08.47-1.34.51-1.52.52-3.18,1-1.54.53-1.41.52-1.17.5-.51.27-.39.25-.37.29-.29.31-.19.29-.14.44,0,.31Z"/><polygon class="cls-1" points="291.96 258.14 291.58 257.8 291.3 257.41 291.13 256.98 291.09 256.63 291.24 256.1 291.46 255.75 291.77 255.42 292.15 255.11 292.56 254.85 293.08 254.57 294.26 254.06 295.67 253.54 297.23 253.01 300.41 252.01 301.93 251.49 303.27 250.98 304.35 250.51 305.07 250.07 305.31 249.87 305.51 249.59 305.53 249.45 306.78 249.64 306.72 249.98 306.47 250.44 306.18 250.77 305.81 251.09 305.42 251.34 304.91 251.63 303.75 252.14 302.36 252.66 300.81 253.2 297.62 254.2 296.1 254.71 294.73 255.22 293.63 255.69 292.87 256.14 292.61 256.35 292.37 256.69 292.37 256.73 292.42 256.83 292.54 256.98 292.8 257.21 291.96 258.14"/><path class="cls-1" d="M292,258.46l-.54-.49-.34-.47-.17-.44-.06-.44.19-.64.22-.35.33-.37.41-.33.42-.27.54-.29,1.2-.52,1.42-.53,1.57-.53,3.18-1,1.51-.52,1.34-.5,1.07-.47.69-.42.21-.19.13-.18,0-.32,1.7.26-.12.65-.25.45-.32.37-.39.34-.42.28-.52.29-1.18.52-1.4.53-1.56.54-3.19,1-1.52.52-1.36.5-1.09.47-.74.44-.2.16-.16.23h0l.1.11.4.35Zm-.47-1.16.27.36.17.16.54-.59-.09-.08-.15-.18-.09-.21v-.09l0-.11.29-.39.25-.21.8-.46,1.12-.49,1.38-.51,1.53-.52,3.19-1,1.55-.53,1.38-.52,1.15-.51.49-.27.37-.25.35-.3.27-.31.22-.46-.82-.12-.21.29-.27.24-.75.46-1.11.49-1.35.51-1.52.53-3.19,1-1.56.53-1.4.52-1.17.51-.51.27-.39.25-.36.3-.28.3-.18.29-.13.46,0,.3Z"/><path class="cls-1" d="M305,117.62V118l0,.06-.2.18-.72.44-1,.45-1.32.5-1.5.52-3.19,1-1.55.53-1.42.52-1.2.52-.54.28,0,0v-.62l.54-.5-.34-.34,0-.05.05-.11.44-.36.78-.42,1.13-.47,1.36-.51,1.51-.5,3.13-1,1.51-.52h-5.55l-1.18.4-1.41.52-1.21.5-.54.27-.2.12V119l.63-.64-.38-.36-.08-.1,0-.07.25-.22h-3.49V261.89h3V247.3l.79-.73-.34-.35,0,0,.06-.11.43-.36.79-.43,1.13-.46,1.36-.51,1.51-.51,3.13-1,1.52-.53,1.35-.52,1.06-.47v20.58h3V117.62Zm0,121.69-.29.22-.38.21-1,.46-1.29.5-1.47.51-3.13,1-1.55.52-1.41.53-1.22.5-.53.27-.45.26v-.32l.87-.88-.37-.36-.08-.11,0-.06.39-.34.32-.21.42-.22,1.11-.47,1.36-.5,4.69-1.51,1.54-.53,1.39-.53,1.09-.48Zm0-3.55h0l-.28.19-.39.22-1.06.47-1.32.5-1.49.51-3.17,1-1.56.52-1.41.53-1.21.51-.54.28-.31.2v-.46l.81-.8-.34-.34,0,0,.22-.29.57-.39.43-.21,1.13-.47,1.35-.5,4.67-1.5,1.52-.53,1.37-.52,1.07-.47Zm0-3.57h0l-.29.2-.37.21-1.06.46-1.3.5-1.47.51-3.14,1-1.56.52-1.41.53-1.21.5-.56.28-.19.12h-.19v-.27l.85-.84-.37-.37-.07-.08.18-.22.23-.18.79-.45,1.11-.46,1.36-.51,1.52-.51,3.15-1,1.54-.53,1.37-.52,1.1-.47Zm0-3.58h0l-.71.43-1,.45-1.31.5-1.49.51-3.15,1-1.56.53-1.41.53-1.21.51-.54.28-.14.09h-.2v-.26l.85-.84-.37-.36-.06-.09.17-.22.27-.21.33-.2.42-.22,1.11-.47,1.36-.5,1.52-.51,3.16-1,1.54-.54,1.37-.52L305,227Zm0-3.57-.71.44-1,.44-1.31.5-1.49.52-3.16,1-1.56.53-1.41.53-1.2.5-.55.28-.14.09h-.2v-.3l.83-.82-.36-.34,0-.06.2-.28.57-.39.43-.21L295,227l1.36-.5,1.51-.52,3.16-1,1.51-.53,1.38-.52,1.09-.47Zm0-3.57-.72.44-1,.44-2.79,1-3.16,1-1.54.53-1.42.52-1.21.51-.54.28-.17.1h-.2v-.17l.88-.92-.38-.35-.07-.09.17-.24.22-.17.75-.43,1.11-.47,1.36-.51,1.51-.52,3.18-1,1.54-.53,1.39-.53,1.1-.48Zm0-3.6-.33.25-.36.2-1.06.46-1.32.5-1.5.52-3.17,1-1.56.53-1.42.53-1.21.52-.54.28-.09,0h-.2v-.35l.81-.78-.35-.35,0,0,.21-.29.58-.39.43-.21,1.13-.47,1.35-.5,1.51-.51,3.14-1,1.52-.52,1.37-.52,1.08-.48Zm0-3.57-.3.22-.39.22-1,.46-1.31.5-1.47.5-3.13,1-1.56.52-1.41.52-1.2.5-.56.28-.19.12h-.2v-.08l.91-1-.39-.35-.1-.12h0l.38-.38.74-.44,1.1-.47,1.35-.5,1.53-.52,3.19-1,1.55-.54,1.39-.53,1.12-.49Zm0-3.55h0l-.69.43-1.07.47-1.33.5-1.5.51-3.19,1-1.57.53-1.41.53-1.2.52-.54.29-.05,0h-.2v-.4l.79-.74-.33-.34-.05-.07.23-.26.24-.18.8-.44,1.13-.47,1.36-.5,1.51-.51,3.13-1,1.51-.52,1.38-.52,1.06-.47Zm0-3.6-.3.23-.39.21-1,.46-1.31.49-1.47.51-3.12,1-1.55.52-1.41.52-1.23.51-.54.27-.23.15h-.18l.94-1.06-.41-.35-.11-.14.14-.2.19-.17.73-.43,1.09-.47,1.36-.51,1.52-.52,3.2-1,1.56-.53,1.41-.54,1.13-.49Zm0-3.55h0l-.29.21-.39.22-1.07.46-1.35.51-1.51.52-3.2,1-1.56.54-1.42.53-1.21.52-.52.28h-.21V208l.77-.72-.32-.33,0,0,.08-.14.15-.14.26-.19.81-.44,1.12-.46,1.37-.51,4.63-1.48,1.51-.53,1.36-.51,1-.47Zm0-3.57-.68.41-1,.46-1.29.49-1.46.51-3.12,1-1.54.51-1.43.53-1.22.51-.79.42h-.2v-.07l.92-1-.41-.35-.09-.13.37-.38.73-.42,1.11-.47,1.36-.51,1.52-.52,3.18-1,1.56-.53,1.39-.53,1.12-.49Zm0-3.57h0l-.69.42-1.07.47-1.32.51-1.52.51-3.18,1-1.57.54-1.42.52L293,201l-.52.28-.06,0h-.2v-.47l.76-.7-.32-.32,0-.06.25-.27.27-.19.81-.43,1.13-.47,1.36-.5,4.63-1.48,1.51-.52,1.35-.52,1-.47Zm0-3.58-.29.2-.38.21-1,.46-1.29.49-1.45.51-3.12,1-1.54.52-1.42.52-1.24.52-.8.42h-.2v-.15l.88-1-.38-.35-.07-.09.17-.24.21-.16.75-.44,1.1-.46,1.36-.51,1.53-.52,3.17-1,1.55-.53,1.39-.53,1.1-.48Zm0-3.57h0l-.28.2-.39.22-1.07.46-1.32.5-1.5.52-3.17,1-1.57.53-1.41.53-1.21.51-.53.29-.09.05h-.2v-.4L293,193l-.33-.35,0,0,.06-.11.15-.14.62-.42.43-.22,1.14-.46,1.35-.51,1.51-.51,3.14-1,1.53-.53,1.35-.52,1.06-.46Zm0-3.57h0l-.29.2-.37.21-1,.46-1.3.49-1.47.51-3.13,1-1.55.52-1.41.53-1.22.5-.56.28-.22.13h-.19v-.22l.87-.88-.39-.36-.05-.08.18-.24.24-.19.31-.2.43-.22,1.11-.47,1.36-.5,1.51-.52,3.17-1,1.54-.53,1.38-.52,1.1-.48Zm0-3.58h0l-.71.43-1,.45-1.32.5-1.49.51-3.16,1-1.56.53-1.42.53-1.19.51-.55.28-.13.08h-.19v-.28l.74-.76-.35-.33-.06-.08,0-.09.41-.36.32-.2.44-.22,1.11-.47,1.35-.5,1.52-.51,3.16-1,1.53-.53,1.38-.52,1.16-.52h0Zm0-3.58-.11.11-.27.19-.4.22-1.05.46-1.31.5-1.48.51-3.15,1-1.56.53-1.42.53-1.2.5-.55.28h-.26v-.29l.74-.74-.36-.35-.05-.07.05-.1.39-.34.76-.42,1.12-.47,1.36-.5,1.51-.51,3.15-1,1.53-.53,1.38-.52,1.16-.52h0Zm0-3.55-.1.07-.69.43-1,.46-1.31.5-1.49.51-3.14,1-1.56.52-1.41.52-1.22.51-.52.28-.28.16v-.2l.84-.92-.41-.35-.1-.11v0l.38-.37.3-.21.41-.22,1.09-.46,1.36-.51,1.52-.52,3.19-1,1.56-.54,1.4-.53,1.18-.52,0,0Zm0-3.58-.12.09-.31.22-.37.2-1.08.47-1.33.51-1.52.52-3.19,1-1.56.53-1.42.53-1.19.52-.55.29h-.12v-.43l.72-.7-.35-.34,0-.07.05-.09.39-.34.37-.22.42-.22,1.12-.47,1.36-.5,1.51-.51,3.14-1,1.53-.52,1.37-.52,1.15-.51h0Zm0-3.58-.39.29-.39.22-1.05.46-1.3.5-1.48.5-3.14,1-1.54.53-1.42.52-1.21.51-.55.28-.18.11h-.11v-.2l.81-.88-.4-.35-.08-.11.16-.21.22-.18.76-.45,1.08-.45,1.35-.51,1.53-.52,3.18-1,1.56-.54,1.38-.52,1.13-.49.08,0Zm0-3.58-.41.31-.41.23-1,.45-1.32.5-1.51.52-3.18,1-1.57.53-1.41.54-1.16.48-.57.31-.07,0h-.11v-.48l.7-.67-.34-.34,0-.05.06-.12.14-.14.62-.41.43-.22,1.14-.46,1.35-.51,1.5-.51,3.14-1,1.52-.52,1.37-.52,1.15-.51h0Zm0-3.57-.4.3-.38.21-1,.46-1.3.49-1.47.52-3.13,1-1.55.52-1.4.53-1.22.5-.56.28-.2.13h-.11v-.57l.5-.59-.21-.22v-.38l.17-.13.3-.21.42-.23,1.06-.46,1.35-.51,1.52-.52,3.22-1,1.56-.54,1.42-.53,1.2-.53.25-.13Zm0-3.79-.1.14-.21.18-.7.43-1.09.47-1.35.51-1.52.52-3.22,1-1.57.54-1.4.54-1.15.49-.45.25v-.47l.68-.62-.32-.35,0-.06.24-.26.26-.19.82-.45,1.1-.46,1.36-.49,1.51-.51,3.13-1,1.51-.53,1.36-.52,1.15-.51Zm0-3.35-.09.09-.68.41-1,.46-1.3.49-1.47.51-3.11,1-1.55.52-1.41.52-1.19.48-.82.45h-.11v-.16l.83-.92-.4-.35-.1-.11h0l.16-.22.2-.17.74-.43,1.09-.47,1.35-.51,1.53-.51,3.19-1,1.56-.54,1.4-.53,1.18-.52,0,0Zm0-3.57-.1.09-.7.42-1.06.47-1.34.51-1.51.52-3.19,1-1.56.53-1.43.53-1.19.52-.54.29,0,0h-.1v-.57l.67-.58-.32-.34,0,0,.08-.13.43-.35.84-.44L295,152l1.37-.5,1.5-.5,3.12-1,1.51-.52,1.34-.52,1.1-.48,0,0Zm0-3.57-.09.07-.69.43-1,.44-1.28.49-1.47.51-3.11,1-1.54.52-1.42.52-1.18.49-.87.46h-.1V151l.56-.55-.34-.34-.05-.06.05-.1.4-.34.36-.22.43-.22,1.12-.47,1.36-.5,1.51-.51,3.13-1,1.54-.53,1.36-.52,1.15-.51.18-.09Zm0-3.45-.07.08-.47.36-.4.22-1,.46-1.3.5-1.49.51-3.13,1-1.55.53-1.41.52-1.22.5-.54.28-.14.09v-.34l.66-.71-.4-.36-.08-.1.16-.22.21-.18.77-.44,1.08-.46,1.35-.51,1.52-.51,3.19-1,1.55-.53,1.39-.53,1.12-.49.24-.13Zm0-3.58-.06.08-.5.38-.41.23-1,.45-1.33.5-1.5.52-3.18,1-1.57.54-1.41.53-1.16.49-.58.31h0v-.6l.55-.52-.34-.34,0,0,.06-.11.14-.14.61-.42.44-.22,1.13-.46,1.36-.51,1.5-.51,3.14-1,1.52-.53,1.36-.52,1.16-.51.16-.09Zm0-3.57-.06.08-.49.37-.38.21-1,.46-1.3.49-1.47.52-3.14,1-1.54.53-1.41.52-1.22.5-.55.28-.16.1v-.48l.55-.65-.37-.38.12-.18.2-.17.31-.21.41-.23,1.07-.46,1.35-.51,1.52-.52,3.21-1,1.57-.54,1.42-.53,1.2-.52.2-.11Zm0-3.57,0,.07-.21.18-.7.43-1.09.47-1.36.51-1.52.52-3.21,1-1.57.54-1.41.53-1.15.49-.49.28v-.64l.53-.48-.32-.34-.05-.07.24-.26.26-.19.83-.45,1.1-.45,1.36-.5,1.51-.51,3.13-1,1.5-.53,1.37-.51,1.15-.51.15-.09Zm0-3.58-.25.25-.67.41-1,.46-1.3.49-1.46.51-3.12,1-1.55.52-1.41.52-1.18.48-.78.43v-.31l.68-.74-.41-.36-.09-.11h0l.16-.22.19-.17.74-.43,1.09-.47,1.36-.51,1.52-.51,3.2-1,1.55-.54,1.4-.53,1.18-.52.19-.1Zm0-3.56,0,.06-.2.18-.7.42-1.07.47-1.33.51-1.51.52-3.19,1-1.57.53-1.42.53-1.2.51-.52.28v-.67l.51-.44-.31-.35,0,0,.08-.14.43-.34.84-.45,1.09-.45,1.37-.5,1.51-.51,3.11-1,1.52-.52,1.34-.52,1.1-.47.19-.11Zm0-3.57,0,0-.2.18-.69.43-1,.44-1.28.49-1.47.5-3.11,1-1.54.52-1.42.52-1.18.48-.82.44v-.38l.64-.69-.38-.34-.08-.11.17-.23.21-.17.75-.43,1.1-.47,1.36-.51,1.51-.51,3.18-1,1.56-.53,1.38-.53,1.12-.49.24-.13Z"/><rect class="cls-1" x="283.54" y="253.44" width="31.61" height="12.02"/><path class="cls-1" d="M482.33,472.53l.75-.8-.4-.36-.08-.1.16-.22.21-.17.76-.45,1.08-.45,1.36-.52,1.52-.51,3.18-1,1.56-.53,1.38-.53,1.13-.49.08,0v1.54l-.39.3-.39.21-1,.46-1.3.5-1.49.51-3.13,1-1.55.53-1.41.52-1.22.5-.24.12h4.8l.15,0,3.14-1,1.53-.53,1.37-.52,1.15-.51h0v1.55l-.11.1-.32.21-.37.21-1.08.46-.18.07h5.09V417.65h-3V418l0,.06-.21.19-.72.43-1,.45-1.31.51-1.51.51-3.18,1-1.56.53-1.42.53-1.2.51-.54.28,0,0v-.61l.53-.5-.33-.35,0-.05.06-.1.43-.37.78-.42,1.14-.47,1.35-.5,1.51-.51,3.13-1,1.51-.52H486.8l-1.17.4-1.41.53-1.22.5-.54.27-.19.11V419l.62-.63-.38-.36-.08-.11,0-.06.25-.23h-3.49v54.88Zm-.06-46.28.64-.7-.38-.34-.09-.11.17-.23.21-.17.75-.43,1.1-.47,1.36-.5,1.52-.52,3.18-1,1.55-.53,1.38-.53,1.13-.48.23-.13v1.48l0,.05-.2.18-.69.43-1,.44-1.28.49-1.47.51-3.11,1-1.54.52-1.42.52-1.18.49-.81.43Zm0,3.26.51-.45-.32-.35,0,0,.08-.14.43-.34.84-.45,1.1-.45,1.37-.5,1.5-.51,3.11-1,1.52-.53,1.34-.51,1.1-.48.19-.11v1.48l0,.06-.21.18-.7.43-1.07.47-1.33.5-1.51.52-3.19,1-1.57.53-1.42.53-1.19.52-.52.28Zm0,4,.67-.75-.4-.35-.1-.11h0l.16-.23.2-.17.74-.43,1.09-.47,1.35-.5,1.53-.52,3.19-1,1.56-.53,1.4-.53,1.18-.52.18-.11v1.47l-.24.25-.68.41-1,.46-1.3.5-1.47.51-3.11,1-1.55.52-1.42.52-1.18.49-.77.42Zm0,3.22.52-.47-.32-.35,0-.06.23-.26.27-.19.82-.46,1.1-.45,1.36-.5,1.51-.51,3.13-1,1.51-.53,1.36-.52,1.15-.51.15-.08v1.48l0,.06-.2.19-.71.42-1.09.48-1.35.5-1.52.53-3.22,1-1.56.54-1.41.54-1.15.49-.49.27Zm0,3.74.55-.66-.38-.37.12-.18.21-.18.3-.2.42-.24,1.06-.45,1.35-.52,1.52-.52,3.22-1,1.56-.54,1.42-.53,1.2-.53.2-.11v1.47L495,436l-.49.37-.38.22-1,.46-1.3.49-1.47.51-3.13,1-1.55.52-1.41.52-1.21.51-.56.28-.15.09Zm0,3.45.54-.53-.34-.33,0-.06.06-.11.14-.14.62-.42.43-.21,1.13-.47,1.36-.5,1.5-.51,3.14-1,1.52-.53,1.37-.51,1.15-.52L495,438v1.47l-.06.07-.5.38-.41.23-1,.45-1.32.51-1.51.51-3.18,1-1.57.53-1.41.54-1.16.48-.57.31h0Zm0,3.83.65-.71-.4-.36-.08-.1.16-.22.22-.17.76-.45,1.08-.45,1.35-.51,1.53-.52,3.18-1,1.56-.53,1.38-.53,1.13-.48.23-.13V443l-.06.09-.48.36-.39.22-1,.46-1.3.49-1.48.51-3.14,1-1.54.53-1.42.52-1.22.51-.54.28-.13.08Zm0,3.36.56-.56-.35-.33,0-.07.05-.1.39-.33.36-.23.43-.22,1.12-.46,1.36-.5,1.51-.52,3.14-1,1.53-.52,1.37-.53,1.15-.51.17-.09v1.36l-.08.07-.7.43-1,.44-1.28.49-1.46.5-3.11,1-1.54.52-1.42.52-1.18.48-.87.46h-.1Zm0,3.3.66-.58-.31-.35,0,0,.08-.14.43-.34.84-.45L485,452l1.37-.5,1.5-.51,3.12-1,1.51-.52,1.35-.51,1.09-.48,0,0v1.55l-.1.08-.69.43-1.07.46-1.34.51-1.51.52-3.18,1-1.57.53-1.42.53-1.2.51-.54.29,0,0h-.1Zm0,4,.82-.91-.4-.35-.1-.11h0l.16-.22.2-.17.74-.43,1.09-.47,1.36-.5,1.52-.52,3.19-1,1.56-.54,1.4-.53,1.18-.52h0v1.54l-.09.09-.68.41-1,.46-1.3.49-1.46.52-3.12,1-1.55.52-1.41.52-1.18.49-.82.44h-.11Zm0,3.2.68-.62-.33-.34,0-.06.24-.26.26-.2.83-.45,1.09-.45,1.37-.5,1.5-.51,3.13-1,1.51-.52,1.37-.52,1.14-.51V457l-.1.13-.2.18-.71.43-1.09.47-1.35.51-1.52.52-3.21,1-1.57.54-1.41.53-1.15.5-.44.24Zm0,3.54.5-.6-.21-.21v-.38l.16-.14.3-.21.42-.23,1.07-.46,1.35-.51,1.52-.52,3.21-1,1.56-.53,1.42-.53,1.2-.53.25-.14v1.66l-.39.29-.38.22-1,.46-1.3.49-1.47.51-3.14,1-1.54.53-1.41.52-1.22.5-.55.28-.21.13h-.1Zm0,3.65.69-.67-.34-.34,0-.05.07-.11.13-.14.62-.42.43-.21,1.14-.47,1.36-.51,1.49-.5,3.15-1,1.52-.53,1.36-.52,1.15-.51h0v1.54l-.4.3-.41.23-1,.45-1.33.5-1.5.52-3.18,1-1.58.53-1.4.53-1.16.49-.58.31-.06,0h-.11Z"/><path class="cls-1" d="M101.38,472.53l.75-.8-.4-.36-.08-.1.16-.22.21-.17.77-.45,1.08-.45,1.35-.52,1.53-.51,3.18-1,1.55-.53,1.39-.53,1.13-.49.07,0v1.54l-.38.3-.39.21-1,.46-1.3.5-1.48.51-3.14,1-1.54.53-1.42.52-1.22.5-.23.12h4.79l.16,0,3.14-1,1.53-.53,1.37-.52,1.15-.51h0v1.55l-.11.1-.31.21-.37.21-1.08.46-.18.07h5.09V417.65h-3V418l0,.06-.2.19-.72.43-1,.45-1.32.51-1.51.51-3.18,1-1.55.53-1.42.53-1.2.51-.54.28,0,0v-.61l.54-.5-.34-.35,0-.05.06-.1.44-.37.78-.42,1.13-.47,1.36-.5,1.51-.51,3.13-1,1.51-.52h-5.55l-1.18.4-1.41.53-1.21.5-.54.27-.2.11V419l.62-.63-.37-.36-.08-.11,0-.06.26-.23h-3.5v54.88Zm-.06-46.28.64-.7-.38-.34-.08-.11.17-.23.21-.17.75-.43,1.1-.47,1.36-.5,1.51-.52,3.18-1,1.56-.53,1.38-.53,1.12-.48.23-.13v1.48l0,.05-.2.18-.69.43-1,.44-1.28.49-1.46.51-3.11,1-1.54.52-1.42.52-1.18.49-.82.43Zm0,3.26.51-.45-.31-.35,0,0,.07-.14.44-.34.83-.45,1.1-.45,1.37-.5,1.5-.51,3.12-1,1.52-.53,1.34-.51,1.1-.48.18-.11v1.48l0,.06-.2.18-.7.43-1.07.47-1.33.5-1.52.52-3.18,1-1.57.53-1.42.53-1.2.52-.52.28Zm0,4,.67-.75-.4-.35-.09-.11h0l.16-.23.2-.17.74-.43,1.09-.47,1.36-.5,1.52-.52,3.2-1,1.55-.53,1.4-.53,1.18-.52.18-.11v1.47l-.24.25-.68.41-1,.46-1.3.5-1.46.51-3.12,1-1.55.52-1.41.52-1.18.49-.78.42Zm0,3.22.53-.47-.33-.35,0-.06.24-.26.26-.19.83-.46,1.1-.45,1.36-.5,1.51-.51,3.12-1,1.51-.53,1.37-.52,1.14-.51.15-.08v1.48l0,.06-.21.19-.71.42-1.08.48-1.36.5-1.52.53-3.21,1-1.57.54-1.41.54-1.15.49-.49.27Zm0,3.74.55-.66-.37-.37.12-.18.2-.18.31-.2.41-.24,1.07-.45,1.35-.52,1.52-.52,3.21-1,1.57-.54,1.41-.53,1.21-.53.19-.11v1.47l0,.08-.49.37-.38.22-1,.46-1.3.49-1.47.51-3.14,1-1.54.52-1.41.52-1.22.51-.55.28-.16.09Zm0,3.45.55-.53-.34-.33,0-.06.06-.11.14-.14.61-.42.44-.21,1.13-.47,1.36-.5,1.5-.51,3.14-1,1.52-.53,1.36-.51,1.16-.52.15-.08v1.47l0,.07-.5.38-.41.23-1,.45-1.33.51-1.5.51-3.18,1-1.57.53-1.41.54-1.16.48-.58.31h0Zm0,3.83L102,447l-.4-.36-.08-.1.16-.22.21-.17.77-.45,1.08-.45,1.35-.51,1.52-.52,3.19-1,1.55-.53,1.39-.53,1.12-.48.23-.13V443l-.06.09-.48.36-.39.22-1,.46-1.3.49-1.49.51-3.13,1-1.55.53-1.41.52-1.22.51-.55.28-.13.08Zm0,3.36.56-.56-.34-.33-.05-.07.05-.1.4-.33.36-.23.43-.22,1.12-.46,1.36-.5,1.51-.52,3.13-1,1.53-.52,1.37-.53,1.15-.51.17-.09v1.36l-.08.07-.69.43-1,.44-1.28.49-1.47.5-3.11,1-1.54.52-1.42.52-1.18.48-.87.46h-.1Zm0,3.3.67-.58-.32-.35,0,0,.08-.14.43-.34.84-.45,1.1-.45,1.37-.5L107,451l3.11-1,1.52-.52,1.34-.51,1.1-.48,0,0v1.55l-.09.08-.7.43-1.07.46-1.33.51-1.51.52-3.19,1-1.57.53-1.42.53-1.19.51-.54.29,0,0h-.1Zm0,4,.83-.91-.4-.35-.1-.11h0l.16-.22.2-.17.73-.43,1.09-.47,1.36-.5,1.53-.52,3.19-1,1.56-.54,1.4-.53,1.18-.52h0v1.54l-.08.09-.68.41-1,.46-1.31.49-1.46.52-3.11,1-1.55.52-1.42.52-1.18.49-.82.44h-.11Zm0,3.2.68-.62-.32-.34-.05-.06.24-.26.27-.2.82-.45,1.1-.45,1.36-.5,1.51-.51,3.13-1,1.51-.52,1.36-.52,1.14-.51V457l-.09.13-.21.18-.7.43-1.09.47-1.35.51-1.52.52-3.22,1-1.57.54-1.4.53-1.15.5-.45.24Zm0,3.54.5-.6-.21-.21v-.38l.16-.14.31-.21.42-.23,1.06-.46,1.35-.51,1.52-.52,3.22-1,1.56-.53,1.42-.53,1.2-.53.24-.14v1.66l-.39.29-.38.22-1,.46-1.3.49-1.47.51-3.13,1-1.55.53-1.41.52-1.21.5-.56.28-.21.13h-.1Zm0,3.65.7-.67-.34-.34,0-.05.06-.11.14-.14.62-.42.43-.21,1.13-.47,1.36-.51,1.5-.5,3.14-1,1.52-.53,1.36-.52,1.16-.51h0v1.54l-.4.3-.41.23-1,.45-1.32.5-1.51.52-3.18,1-1.57.53-1.41.53-1.16.49-.57.31-.07,0h-.11Z"/><path class="cls-2" d="M117.51,408.72a2.18,2.18,0,0,0,0-2.46Z"/><path class="cls-1" d="M191.74,383.24c.64.55-2.58.85-1.11,1.39l4,.63,3.46,5.75a33.25,33.25,0,0,0,11.12,2.29H387.9A33.2,33.2,0,0,0,399,391l2.56-5.41a4.57,4.57,0,0,0,2.13-1.46l5.47-1.43,3.35.43,47.22,1.24-5.92-16.62c-11.13,0-35.88,0-40.37.13a9.92,9.92,0,0,1-4.58,3.43l-8.7,4.36a35.37,35.37,0,0,1-12.07,2.46H209.39a35.31,35.31,0,0,1-12.06-2.46l-.13-.06-8.57-4.31a9.8,9.8,0,0,1-4.59-3.42c-5.32-.1-28.38-.13-41.78-.12l-5.56,14.84,52.19-.93Z"/><path class="cls-3" d="M538.59,276.55a15.34,15.34,0,0,1-14.88-12.65,17.52,17.52,0,0,1,1.42-10.42c1-2.26,2.31-4.63,3.86-7.25a96.13,96.13,0,0,0,8.44-17.91c.07-.21.15-.41.25-.65l1-2.49.83,2.15c.29.74.56,1.47.82,2.2a42.87,42.87,0,0,0,1.78,4.42c2.31,4.69,4.68,9.24,7,13.53l.33.59c1.84,3.33,3.73,6.76,4.29,10.77a15.31,15.31,0,0,1-13,17.54A14.52,14.52,0,0,1,538.59,276.55Zm.08-46.28a99.49,99.49,0,0,1-8.11,16.89,76.18,76.18,0,0,0-3.77,7.08,15.69,15.69,0,0,0-1.28,9.36A13.42,13.42,0,0,0,552,259.09c-.5-3.67-2.24-6.81-4.08-10.14l-.32-.59c-2.38-4.31-4.76-8.89-7.09-13.61A42.32,42.32,0,0,1,538.67,230.27Zm-3.21,42.31-2.32-1.23a11.07,11.07,0,0,1-5.95-11.73c.7-4.11,3.09-9.56,5.23-11.9l2.33-2.56-.77,3.38c-1.57,6.9-2.84,14.25.42,21.63Z"/><path class="cls-1" d="M569.33,315v-8.4h-47l9.1-9.11a4.21,4.21,0,0,0,0-5.95l-.41-.41a4.21,4.21,0,0,0-6,0l-15.36,15.37a5.76,5.76,0,0,0,0,8.16l15.84,15.85a4.21,4.21,0,0,0,5.94,0h0a4.2,4.2,0,0,0,0-6L522,315Z"/><path class="cls-2" d="M117.51,407.81v.91a2.25,2.25,0,0,0,.38-1.23c0-.11,0-.21,0-.32v.64Z"/><path class="cls-1" d="M117.7,408.36c-1.22,1.64-4.8,3.38-8.61,3.38-4.87,0-8.81-1.9-8.81-4.25l-.13-12.77H95.53L81.45,421.46H516.27l-16.39-26.72h-3.15v13.83a20.68,20.68,0,0,1-8.39,2c-3.13,0-7-1.26-8.5-2.43l0-13.36H463.44L461.39,389c-17.22,0-40.63,0-48.14.12a9.84,9.84,0,0,1-4.58,3.42l-8.7,4.37a35.61,35.61,0,0,1-12.07,2.46H209.18a35.55,35.55,0,0,1-12.06-2.46l-.13-.06-8.58-4.31a9.84,9.84,0,0,1-4.58-3.42c-7.73-.15-32.34-.14-49.51-.11l-1.25,5.74h-15.2"/><path class="cls-1" d="M417.87,266.52H177.38l-26.19,51.17,0,0-34.5,67.28h70.42c.17,1.51,1.84,3,4.69,4l8.43,4.34a33.49,33.49,0,0,0,11.36,1.78H386.13a33.42,33.42,0,0,0,11.35-1.78l8.44-4.34c2.85-1.07,4.51-2.52,4.68-4H481Z"/><path class="cls-1" d="M495,176.37v.36l0,.06-.21.18-.72.44-1,.45-1.31.5-1.51.51-3.18,1-1.56.53-1.42.53-1.2.51-.54.29h0v-.61l.53-.5-.33-.35,0,0,.06-.11.43-.36.78-.43,1.14-.46,1.35-.51,1.51-.51,3.13-1,1.51-.52H486.8l-1.17.39-1.41.53-1.22.5-.54.27-.19.12v-.43l.62-.63-.38-.36-.08-.11,0-.06.25-.22h-3.49V411.93q1.81.4,3.66.66l.22-.22-.37-.37-.06-.08.18-.22.23-.18.78-.45,1.12-.46,1.36-.51,1.51-.51,3.16-1,1.53-.53,1.38-.52,1.09-.47v1.58h0l-.28.2-.38.21-1.05.46-1.3.5-1.48.51-3.14,1-1.56.52-1.41.53-.37.15a44.64,44.64,0,0,0,4.47.25l2.55-.82,1.52-.53,1.37-.52,1.07-.47v1.59h0l-.27.19-.27.15c1.21-.17,2.41-.38,3.59-.65V176.37ZM482.27,185l.64-.69-.38-.34-.09-.11.17-.24.21-.17.75-.43,1.1-.47L486,182l1.52-.52,3.18-1,1.55-.54,1.38-.52,1.13-.49.23-.13v1.49l0,.05-.2.17-.69.43-1,.44-1.28.49-1.47.51-3.11,1-1.54.52-1.42.52-1.18.49-.81.43Zm0,3.26.51-.45-.32-.34,0-.05.08-.13.43-.35.84-.45,1.1-.45,1.37-.5,1.5-.51,3.11-1,1.52-.53,1.34-.51,1.1-.48.19-.1v1.47l0,.06-.21.19-.7.42L493,185l-1.33.5-1.51.53L487,187l-1.57.53-1.42.53-1.19.52-.52.28Zm0,4,.67-.74-.4-.36-.1-.11h0l.16-.22.2-.17.74-.43,1.09-.47,1.35-.51,1.53-.51,3.19-1,1.56-.54,1.4-.53,1.18-.52.18-.1v1.46l-.24.26-.68.41-1,.46-1.3.49-1.47.51-3.11,1-1.55.53-1.42.52-1.18.48-.77.42Zm0,3.23.52-.48-.32-.35,0-.06.23-.26.27-.19.82-.45,1.1-.46,1.36-.49,1.51-.51,3.13-1,1.51-.53,1.36-.52,1.15-.51.15-.08V191l0,.07-.2.18-.71.43-1.09.47-1.35.51-1.52.52-3.22,1-1.56.54-1.41.54-1.15.49-.49.27Zm0,3.73.55-.65-.38-.38.12-.18.21-.18.3-.2.42-.23,1.06-.46,1.35-.51,1.52-.53,3.22-1,1.56-.54,1.42-.53,1.2-.53.2-.11v1.48l-.06.08-.49.37-.38.21-1,.46-1.3.49-1.47.51-3.13,1-1.55.52-1.41.53-1.21.5-.56.28-.15.1Zm0,3.45.54-.52-.34-.34,0-.06.06-.11.14-.14.62-.41.43-.22,1.13-.46,1.36-.51,1.5-.51,3.14-1,1.52-.52,1.37-.52,1.15-.51.16-.09v1.47l-.06.08-.5.38-.41.23-1,.45-1.32.5-1.51.52-3.18,1-1.57.53-1.41.54-1.16.48-.57.31,0,0Zm0,3.83.65-.71-.4-.35-.08-.11.16-.21.22-.18.76-.45,1.08-.45,1.35-.51,1.53-.52,3.18-1,1.56-.54,1.38-.52,1.13-.49.23-.13v1.47l-.06.09-.48.36-.39.22-1,.46-1.3.49-1.48.51-3.14,1-1.54.53-1.42.52-1.22.51-.54.28-.13.08Zm0,3.36.56-.55-.35-.34,0-.07.05-.09.39-.34.36-.23.43-.22,1.12-.46,1.36-.5,1.51-.51,3.14-1,1.53-.52,1.37-.52,1.15-.51.17-.1v1.36l-.08.07-.7.43-1,.44-1.28.49-1.46.51-3.11,1-1.54.52-1.42.52-1.18.49-.87.46h-.1Zm0,3.3.66-.58-.31-.34,0,0,.08-.13.43-.35.84-.45,1.1-.45,1.37-.5,1.5-.51,3.12-1,1.51-.53,1.35-.51,1.09-.48,0,0v1.55l-.1.08-.69.43-1.07.47-1.34.5-1.51.52-3.18,1-1.57.53-1.42.53-1.2.52-.54.29,0,0h-.1Zm0,4,.82-.92-.4-.35-.1-.11h0l.16-.23.2-.17.74-.43,1.09-.47,1.36-.5,1.52-.52,3.19-1,1.56-.53,1.4-.53,1.18-.52,0,0v1.54l-.09.1-.68.41-1,.45-1.3.5-1.46.51-3.12,1-1.55.52-1.41.52-1.18.49-.82.44h-.11Zm0,3.19.68-.61-.33-.35,0-.06.24-.26.26-.19.83-.46,1.09-.45,1.37-.5,1.5-.51,3.13-1,1.51-.53,1.37-.52,1.14-.51v1.33l-.1.13-.2.19-.71.42-1.09.48-1.35.5-1.52.53-3.21,1-1.57.54-1.41.54-1.15.49-.44.24Zm0,3.54.5-.6-.21-.21v-.38l.16-.14.3-.2.42-.24,1.07-.45,1.35-.52,1.52-.52,3.21-1,1.56-.54,1.42-.53,1.2-.53.25-.14v1.66l-.39.29-.38.22-1,.46-1.3.49-1.47.51-3.14,1-1.54.52-1.41.52-1.22.51-.55.28-.21.12h-.1Zm0,3.66.69-.68-.34-.33,0-.06.07-.11.13-.14.62-.41.43-.22,1.14-.47,1.36-.5,1.49-.51,3.15-1,1.52-.53,1.36-.51,1.15-.52h0V223l-.4.3-.41.23-1,.45-1.33.51-1.5.51-3.18,1-1.58.53-1.4.54-1.16.48-.58.31-.06,0h-.11Zm0,3.85.81-.88-.4-.36-.08-.1.16-.22.21-.17.76-.45,1.08-.45,1.36-.51,1.52-.52,3.18-1,1.56-.53,1.38-.53,1.13-.48.08-.05v1.55l-.39.29-.39.22-1,.46-1.3.49-1.49.51-3.13,1-1.55.53-1.41.52-1.22.51-.55.28-.18.11h-.1Zm0,3.34L483,234l-.34-.33-.05-.07.05-.1.4-.33.36-.23.42-.22,1.12-.46,1.37-.5,1.5-.52,3.14-1,1.53-.52,1.37-.53,1.15-.51h0v1.56l-.11.09-.32.22-.37.2-1.08.47-1.33.5-1.51.52-3.19,1-1.57.54-1.42.53-1.19.51-.54.29,0,0h-.09Zm0,3.87.83-.92-.4-.35-.1-.12,0,0,.38-.37.3-.2.41-.22,1.09-.47,1.37-.5,1.52-.53,3.19-1,1.56-.54,1.4-.53,1.17-.52,0,0v1.55l-.09.08-.69.42-1.05.47-1.31.5-1.48.5-3.15,1-1.55.53-1.42.52-1.22.51-.52.27-.27.17Zm0,3.32.73-.73-.36-.35-.05-.07.05-.1.39-.34.76-.43,1.13-.46,1.35-.51,1.51-.5,3.15-1,1.54-.53,1.38-.52,1.16-.52h0v1.54l-.11.11-.27.19-.4.21-1,.47-1.31.5-1.49.5-3.15,1-1.56.53-1.42.52-1.19.51-.56.28h-.25Zm0,3.59.73-.75-.35-.34-.06-.08,0-.08.41-.36.32-.2.44-.22,1.11-.47,1.35-.51,1.52-.51,3.16-1,1.53-.52,1.38-.52,1.16-.52h0v1.54h0l-.71.44-1,.45-1.32.5-1.49.51-3.17,1-1.56.53-1.41.53-1.2.51-.55.28-.13.07h-.18Zm0,3.64.86-.88-.38-.37-.06-.07.19-.24.23-.19.32-.2.43-.22,1.11-.47,1.35-.5,1.52-.52,3.17-1,1.53-.53,1.39-.52,1.09-.48v1.58h0l-.28.2-.38.21-1,.45-1.29.5-1.48.51-3.13,1-1.55.52-1.41.53-1.22.5-.55.28-.22.13h-.19Zm0,3.38.79-.73-.34-.35,0-.06.06-.11.14-.13.62-.42.44-.22,1.13-.47,1.36-.5L488,249l3.13-1,1.53-.53,1.36-.52,1-.46v1.59h0l-.28.19-.39.22-1.06.46-1.33.51-1.5.51-3.17,1-1.56.53-1.42.53-1.21.51-.53.28-.09.06h-.19Zm0,3.84.88-1-.39-.35-.07-.09.17-.24.21-.17.75-.43,1.11-.47,1.35-.5,1.53-.52,3.17-1,1.55-.53,1.39-.53L495,250v1.59l-.29.19-.38.22-1,.46L492,253l-1.46.5-3.11,1-1.55.51-1.42.53-1.23.51-.8.43h-.2Zm0,3.24.75-.7-.31-.32,0-.06.24-.27.27-.19.81-.44,1.13-.46,1.36-.51,4.63-1.48,1.51-.52,1.36-.52,1-.46v1.59h0l-.7.42-1.07.47-1.32.5-1.52.52-3.18,1-1.56.53-1.42.53-1.2.52-.53.28,0,0h-.2Zm0,4,.91-1-.41-.36-.09-.12.37-.38.74-.43,1.1-.46,1.36-.51,1.52-.52,3.18-1,1.57-.53,1.38-.53,1.12-.49v1.59l-.67.41-1,.46-1.29.49-1.46.5-3.12,1-1.54.52-1.42.53-1.23.51-.78.42h-.2Zm0,3.19L483,266l-.32-.33,0-.05.08-.13.15-.15.27-.19.81-.43,1.12-.47,1.36-.5,4.63-1.49,1.51-.52,1.36-.52,1-.47v1.59l0,0-.3.2-.39.22-1.07.47-1.35.51-1.51.52-3.2,1-1.56.53-1.42.54-1.2.51-.53.29h-.2Zm.53,2.62-.11-.13.14-.21.2-.16.72-.43,1.09-.47,1.36-.51,1.52-.52,3.2-1,1.56-.54,1.41-.53,1.13-.49v1.56l-.3.23-.38.21-1,.46-1.31.49-1.46.51-3.13,1-1.55.52-1.41.52-1.23.51-.53.27-.24.14h-.17l.93-1.06Zm-.53,4.58.79-.74-.33-.34-.05-.08.22-.25.24-.18.81-.45,1.13-.46,1.36-.5,1.51-.51,3.13-1,1.51-.53,1.37-.51,1.06-.47v1.59h0l-.7.42-1.07.47-1.32.51-1.51.51-3.19,1-1.56.53-1.41.53-1.21.52-.54.28,0,0h-.2Zm0,3.89.91-1-.4-.36-.1-.12h0l.38-.38.74-.43,1.1-.47,1.35-.5,1.52-.52,3.19-1,1.56-.53,1.38-.53,1.12-.49v1.57l-.29.22-.4.22-1,.46-1.3.49-1.48.51-3.13,1-1.55.53-1.41.52-1.21.5-.56.28-.19.12h-.19Zm0,3.29.8-.77-.34-.35,0,0,.21-.29.58-.39.44-.22,1.12-.46,1.36-.51,1.51-.51,3.13-1,1.53-.52,1.37-.53,1.07-.47v1.57l-.33.24-.35.2-1.07.47L492,278l-1.5.51-3.17,1-1.56.53-1.42.53-1.2.51-.54.28-.09.06h-.2Zm0,3.77.87-.92-.38-.35-.07-.1.18-.24.21-.17.75-.43,1.11-.47,1.36-.5,1.52-.52,3.17-1,1.55-.53,1.38-.52,1.1-.48v1.59l-.72.43-1,.45-2.79,1-3.15,1-1.55.53-1.42.52-1.21.51-.54.27-.17.11h-.19Zm0,3.43.82-.81-.35-.35,0-.05.21-.29.56-.38.43-.22,1.11-.47,1.37-.5,1.5-.51,3.16-1,1.52-.52,1.38-.52,1.08-.47v1.58l-.71.43-1,.45-1.31.5-1.49.51-3.15,1-1.56.52-1.42.53-1.2.51-.54.28-.15.09h-.19Zm0,3.63.84-.85-.36-.35-.07-.1.18-.22.26-.2.33-.2.43-.22,1.11-.47,1.35-.51,1.52-.51,3.16-1,1.54-.53,1.37-.52,1.09-.47v1.58h0l-.71.44-1,.45-1.32.5-1.48.51-3.16,1-1.55.53-1.42.53-1.21.51-.53.28-.15.09h-.19Zm.62,2.94.22-.22-.37-.36-.06-.08.18-.23.23-.17.78-.45,1.12-.47,1.36-.5,1.51-.52,3.16-1,1.53-.53,1.38-.52,1.09-.48v1.59h0l-.28.2-.38.21-1.05.46-1.3.5-1.48.5-3.8,1.28-.07.05-1,.35-1.41.52-1.22.5-.54.27-.19.12v-.42l.6-.62ZM495,405.08h0l-.71.43-1,.45-1.32.5-1.48.51-3.16,1-1.55.53-1.42.53-1.21.51-.53.28-.15.09h-.19v-.26l.84-.84-.36-.36-.07-.09.18-.22.26-.21.33-.2.43-.22L485,407l1.35-.5,1.52-.51,3.16-1,1.54-.54,1.37-.52,1.09-.47Zm0-3.57-.71.44-1,.44-1.31.5-1.49.52-3.15,1-1.56.53-1.42.53-1.2.5-.54.28-.15.09h-.19V406l.82-.82-.35-.34,0-.06.21-.28.56-.39.43-.21,1.11-.47,1.37-.5,1.5-.52,3.16-1,1.52-.53,1.38-.52,1.08-.47Zm0-3.57-.72.44-1,.44-2.79,1-3.15,1-1.55.53-1.42.52-1.21.51-.54.28-.17.1h-.19v-.17l.87-.92-.38-.35-.07-.09.18-.24.21-.17.75-.43,1.11-.47,1.36-.51,1.52-.52,3.17-1,1.55-.53,1.38-.53,1.1-.48Zm0-3.6-.33.25-.35.2-1.07.46-1.32.5-1.5.52-3.17,1-1.56.53-1.42.53-1.2.52-.54.28-.09.05h-.2v-.35l.8-.78-.34-.35,0,0,.21-.29.58-.39.44-.21,1.12-.47,1.36-.5,1.51-.51,3.13-1,1.53-.52,1.37-.52,1.07-.48Zm0-3.57-.29.22-.4.22-1,.46-1.3.5-1.48.5-3.13,1-1.55.52-1.41.52-1.21.51-.56.27-.19.12h-.19v-.08l.91-1-.4-.35-.1-.12h0l.38-.38.74-.44,1.1-.47,1.35-.5,1.52-.52,3.19-1,1.56-.54,1.38-.53,1.12-.49Zm0-3.55h0l-.7.43-1.07.47-1.32.5-1.51.51-3.19,1-1.56.53-1.41.53-1.21.52-.54.29,0,0h-.2v-.4l.79-.74-.33-.34-.05-.07.22-.26.24-.18.81-.44,1.13-.47,1.36-.5,1.51-.51,3.13-1,1.51-.52,1.37-.52,1.06-.47Zm0-3.6-.3.23-.38.21-1,.46L492,385l-1.46.51-3.13,1-1.55.52-1.41.52-1.23.51-.53.27-.24.15h-.17l.93-1.06-.41-.35-.11-.14.14-.2.2-.17.72-.43,1.09-.47,1.36-.51,1.52-.52,3.2-1,1.56-.53,1.41-.54,1.13-.49Zm0-3.55h0l-.3.21-.39.22-1.07.46-1.35.51-1.51.52-3.2,1-1.56.54-1.42.53-1.2.52-.53.28h-.2v-.44l.76-.72-.32-.33,0,0,.08-.14.15-.14.27-.19.81-.44,1.12-.46,1.36-.51L491.1,380l1.51-.53L494,379l1-.47Zm0-3.57-.67.41-1,.46-1.29.49-1.46.51-3.12,1-1.54.51-1.42.53-1.23.51-.78.42h-.2v-.07l.91-1-.41-.35-.09-.13.37-.38.74-.42,1.1-.47,1.36-.51,1.52-.52,3.18-1,1.57-.53,1.38-.53,1.12-.49Zm0-3.57h0l-.7.42-1.07.47-1.32.51-1.52.51-3.18,1-1.56.54-1.42.52-1.2.52-.53.28,0,0h-.2v-.47l.75-.7-.31-.32,0-.06.24-.27.27-.19.81-.43,1.13-.47,1.36-.5,4.63-1.48,1.51-.52,1.36-.52,1-.47Zm0-3.58-.29.2-.38.21-1,.46-1.29.49-1.46.51-3.11,1-1.55.52-1.42.52-1.23.52-.8.42h-.2V374l.88-.95-.39-.35-.07-.09.17-.24.21-.16.75-.44,1.11-.46,1.35-.51,1.53-.52,3.17-1,1.55-.53,1.39-.53,1.1-.48Zm0-3.57h0l-.28.2-.39.22-1.06.46-1.33.5-1.5.52-3.17,1-1.56.53-1.42.53-1.21.51-.53.29-.09,0h-.19v-.4l.79-.74-.34-.35,0-.05.06-.11.14-.14.62-.42.44-.22,1.13-.46,1.36-.51,1.51-.51,3.13-1,1.53-.53,1.36-.52,1-.46Zm0-3.57h0l-.28.2-.38.21-1,.46-1.29.49-1.48.51-3.13,1-1.55.52-1.41.53-1.22.5-.55.28-.22.14h-.19v-.23l.86-.88-.38-.36-.06-.08.19-.24.23-.19.32-.2.43-.21,1.11-.48,1.35-.5,1.52-.52,3.17-1,1.53-.53,1.39-.52,1.09-.48Zm0-3.58h0l-.71.43-1,.45L492,360l-1.49.51-3.17,1-1.56.53-1.41.53-1.2.51-.55.28-.13.08h-.18v-.28l.73-.76-.35-.33-.06-.08,0-.09.41-.36.32-.2.44-.22,1.11-.47,1.35-.5,1.52-.51,3.16-1,1.53-.53,1.38-.52,1.16-.52h0Zm0-3.58-.11.11-.27.19-.4.22-1,.46-1.31.5-1.49.51-3.15,1-1.56.53-1.42.53-1.19.5-.56.28h-.25v-.29l.73-.74-.36-.35-.05-.07.05-.1L483,358l.76-.42,1.13-.47,1.35-.5,1.51-.51,3.15-1,1.54-.53,1.38-.52,1.16-.52h0Zm0-3.55-.09.07-.69.43-1.05.46-1.31.5-1.48.51-3.15,1-1.55.52-1.42.52-1.22.51-.52.28-.27.16v-.2l.83-.92-.4-.35-.1-.11,0,0,.38-.37.3-.21.41-.22,1.09-.46,1.37-.51,1.52-.52,3.19-1,1.56-.54,1.4-.53L495,350l0,0Zm0-3.58-.11.09-.32.22-.37.2-1.08.47-1.33.51-1.51.52-3.19,1-1.57.53-1.42.53-1.19.52-.54.29h-.12v-.43l.71-.7-.34-.34-.05-.07.05-.09.4-.34.36-.22.42-.22,1.12-.47,1.37-.5,1.5-.51,3.14-1,1.53-.52,1.37-.52,1.15-.51h0Zm0-3.58-.39.29-.39.22-1,.46-1.3.5-1.49.5-3.13,1-1.55.53-1.41.52-1.22.51-.55.28-.18.11h-.1V349l.81-.88-.4-.35-.08-.11.16-.21.21-.18.76-.45,1.08-.45,1.36-.51,1.52-.52,3.18-1,1.56-.54,1.38-.52,1.13-.49.08,0Zm0-3.58-.4.31-.41.23-1,.45-1.33.5-1.5.52-3.18,1-1.58.53-1.4.54-1.16.48-.58.31-.06.05h-.11v-.48l.69-.67-.34-.34,0-.05.07-.12.13-.13.62-.42.43-.22,1.14-.46,1.36-.51,1.49-.51,3.15-1,1.52-.52,1.36-.52,1.15-.51h0Zm0-3.57-.39.3-.38.21-1,.46-1.3.49-1.47.52-3.14,1-1.54.52-1.41.53-1.22.5-.55.28-.21.13h-.1v-.57l.5-.59-.21-.22v-.38l.16-.13.3-.21.42-.23,1.07-.46,1.35-.51,1.52-.52,3.21-1,1.56-.54,1.42-.53,1.2-.53.25-.13Zm0-3.79-.1.14-.2.18-.71.43-1.09.47-1.35.51-1.52.52-3.21,1-1.57.54-1.41.54-1.15.49-.44.25V338l.68-.62-.33-.35,0-.06.24-.26.26-.19.83-.45,1.09-.46,1.37-.49,1.5-.51,3.13-1,1.51-.53,1.37-.52,1.14-.51Zm0-3.35-.09.09-.68.41-1,.46-1.3.49-1.46.51-3.12,1-1.55.52-1.41.52-1.18.48-.82.45h-.11v-.16l.82-.92-.4-.35-.1-.11h0l.16-.22.2-.17.74-.43,1.09-.47,1.36-.51,1.52-.51,3.19-1,1.56-.54,1.4-.53,1.18-.52,0,0Zm0-3.57-.1.09-.69.42-1.07.47-1.34.51-1.51.52-3.18,1-1.57.53-1.42.53-1.2.52-.54.29,0,0h-.1v-.57l.66-.58-.31-.34,0-.05.08-.13.43-.35.84-.44,1.1-.46,1.37-.5,1.5-.5,3.12-1,1.51-.52,1.35-.52L495,325l0,0Zm0-3.57-.08.07-.7.43-1,.44-1.28.49-1.46.51-3.11,1-1.54.52-1.42.52-1.18.49-.87.46h-.1v-.31l.56-.55-.35-.34,0-.06.05-.1.39-.34.36-.22.43-.22,1.12-.47,1.36-.5,1.51-.51,3.14-1,1.53-.53,1.37-.52,1.15-.51.17-.09Zm0-3.45-.06.08-.48.36-.39.22-1,.46-1.3.5-1.48.51-3.14,1-1.54.53-1.42.52-1.22.5-.54.28-.13.09v-.34l.65-.71-.4-.36-.08-.1.16-.22.22-.18.76-.44,1.08-.46,1.35-.51,1.53-.51,3.18-1,1.56-.53,1.38-.53,1.13-.49L495,318Zm0-3.58L495,316l-.5.38-.41.23-1,.45-1.32.5-1.51.52L487,319l-1.57.54-1.41.53-1.16.49-.57.31h0v-.6l.54-.52-.34-.34,0-.05.06-.11.14-.14.62-.42.43-.22,1.13-.46,1.36-.51,1.5-.51,3.14-1,1.52-.53,1.37-.52,1.15-.51.16-.09Zm0-3.57-.06.08-.49.37-.38.21-1,.46-1.3.5-1.47.51-3.13,1-1.55.53-1.41.52L483,317l-.56.28-.15.1v-.48l.55-.65-.38-.38.12-.18.21-.17.3-.21.42-.23,1.06-.46,1.35-.51,1.52-.52,3.22-1,1.56-.53,1.42-.54,1.2-.52.2-.11Zm0-3.57,0,.07-.2.18-.71.43-1.09.47-1.35.51-1.52.52-3.22,1-1.56.54-1.41.53-1.15.5-.49.27v-.64l.52-.48-.32-.34,0-.07.23-.26.27-.19.82-.45,1.1-.45,1.36-.5,1.51-.51,3.13-1,1.51-.53,1.36-.51,1.15-.51.15-.09Zm0-3.58-.24.25-.68.41-1,.46-1.3.49-1.47.51-3.11,1-1.55.52-1.42.52-1.18.48-.77.43v-.31l.67-.74-.4-.36-.1-.11h0l.16-.22.2-.17.74-.43,1.09-.47,1.35-.51,1.53-.51,3.19-1,1.56-.54,1.4-.53,1.18-.52.18-.1Zm0-3.56,0,.06-.21.18-.7.42-1.07.47-1.33.51-1.51.52-3.19,1-1.57.53-1.42.53-1.19.51-.52.28v-.67l.51-.44-.32-.35,0,0,.08-.14.43-.34.84-.45,1.1-.45,1.37-.5,1.5-.51,3.11-1,1.52-.52,1.34-.52,1.1-.47.19-.11Zm0-3.57,0,.05-.2.18-.69.43-1,.44-1.28.49-1.47.5-3.11,1-1.54.52-1.42.52-1.18.48-.81.44v-.38l.64-.69-.38-.34-.09-.11.17-.23.21-.17.75-.43,1.1-.47,1.36-.51,1.52-.51,3.18-1,1.55-.53,1.38-.53,1.13-.49.23-.13Zm0-3.58,0,.06-.15.13-.1.07-.27.14h.06l-.47.28-1,.45-1.31.5-1.51.52-3.18,1-1.56.53-1.42.52-1.2.52-.54.28,0,0v-.62l.53-.5-.33-.34,0-.05.06-.11.43-.36.78-.42,1.14-.47,1.35-.51,1.51-.5,3.13-1,2.77-1.09h0l.34-.13,1.07-.47v1.53Z"/><path class="cls-1" d="M114.07,176.37v.36l0,.06-.2.18-.72.44-1,.45-1.32.5-1.51.51-3.18,1-1.55.53-1.42.53-1.2.51-.54.29h0v-.61l.54-.5-.34-.35,0,0,.06-.11.44-.36.78-.43,1.13-.46,1.36-.51,1.51-.51,3.13-1,1.51-.52h-5.55l-1.18.39-1.41.53-1.21.5-.54.27-.2.12v-.43l.62-.63-.37-.36-.08-.11,0-.06.26-.22h-3.5V411.93c1.22.27,2.44.49,3.67.66l.22-.22-.37-.37-.07-.08.18-.22.23-.18.79-.45,1.11-.46,1.36-.51,1.52-.51,3.15-1,1.54-.53,1.37-.52,1.09-.47v1.58h0l-.29.2-.37.21-1.06.46-1.3.5-1.47.51-3.14,1-1.56.52-1.42.53-.36.15a44.27,44.27,0,0,0,4.46.25l2.56-.82,1.52-.53,1.37-.52,1.06-.47v1.59h0l-.28.19-.26.15c1.2-.17,2.4-.38,3.59-.65V176.37ZM101.32,185l.64-.69-.38-.34-.08-.11.17-.24.21-.17.75-.43,1.1-.47,1.36-.5,1.51-.52,3.18-1,1.56-.54,1.38-.52,1.12-.49.23-.13v1.49l0,.05-.2.17-.69.43-1,.44-1.28.49-1.46.51-3.11,1-1.54.52-1.42.52-1.18.49-.82.43Zm0,3.26.51-.45-.31-.34,0-.05.07-.13.44-.35.83-.45,1.1-.45,1.37-.5,1.5-.51,3.12-1,1.52-.53,1.34-.51,1.1-.48.18-.1v1.47l0,.06-.2.19-.7.42-1.07.47-1.33.5-1.52.53L106,187l-1.57.53-1.42.53-1.2.52-.52.28Zm0,4,.67-.74-.4-.36-.09-.11h0l.16-.22.2-.17.74-.43,1.09-.47,1.36-.51,1.52-.51,3.2-1,1.55-.54,1.4-.53,1.18-.52.18-.1v1.46l-.24.26-.68.41-1,.46-1.3.49-1.46.51-3.12,1-1.55.53-1.41.52-1.18.48-.78.42Zm0,3.23.53-.48-.33-.35,0-.06.24-.26.26-.19.83-.45,1.1-.46,1.36-.49,1.51-.51,3.12-1,1.51-.53,1.37-.52,1.14-.51.15-.08V191l0,.07-.21.18-.71.43-1.08.47-1.36.51-1.52.52-3.21,1-1.57.54-1.41.54-1.15.49-.49.27Zm0,3.73.55-.65-.37-.38.12-.18.2-.18.31-.2.41-.23,1.07-.46,1.35-.51,1.52-.53,3.21-1,1.57-.54,1.41-.53,1.21-.53.19-.11v1.48l0,.08-.49.37-.38.21-1,.46-1.3.49-1.47.51-3.14,1-1.54.52-1.41.53-1.22.5-.55.28-.16.1Zm0,3.45.55-.52-.34-.34,0-.06.06-.11.14-.14.61-.41.44-.22,1.13-.46,1.36-.51,1.5-.51,3.14-1,1.52-.52,1.36-.52,1.16-.51.15-.09v1.47l0,.08-.5.38-.41.23-1,.45-1.33.5-1.5.52-3.18,1-1.57.53-1.41.54-1.16.48-.58.31,0,0Zm0,3.83.66-.71-.4-.35-.08-.11.16-.21.21-.18.77-.45,1.08-.45,1.35-.51,1.52-.52,3.19-1,1.55-.54,1.39-.52,1.12-.49.23-.13v1.47l-.06.09-.48.36-.39.22-1,.46-1.3.49-1.49.51-3.13,1-1.55.53-1.41.52-1.22.51-.55.28-.13.08Zm0,3.36.56-.55-.34-.34-.05-.07.05-.09.4-.34.36-.23.43-.22,1.12-.46,1.36-.5,1.51-.51,3.13-1,1.53-.52,1.37-.52,1.15-.51.17-.1v1.36l-.08.07-.69.43-1,.44-1.28.49-1.47.51-3.11,1-1.54.52-1.42.52-1.18.49-.87.46h-.1Zm0,3.3.67-.58-.32-.34,0,0,.08-.13.43-.35.84-.45,1.1-.45,1.37-.5,1.5-.51,3.11-1,1.52-.53,1.34-.51,1.1-.48,0,0v1.55l-.09.08-.7.43-1.07.47-1.33.5-1.51.52-3.19,1-1.57.53-1.42.53-1.19.52-.54.29,0,0h-.1Zm0,4,.83-.92-.4-.35-.1-.11h0l.16-.23.2-.17.73-.43,1.09-.47,1.36-.5,1.53-.52,3.19-1,1.56-.53,1.4-.53,1.18-.52,0,0v1.54l-.08.1-.68.41-1,.45-1.31.5-1.46.51-3.11,1-1.55.52-1.42.52-1.18.49-.82.44h-.11Zm0,3.19.68-.61-.32-.35-.05-.06.24-.26.27-.19.82-.46,1.1-.45,1.36-.5,1.51-.51,3.13-1,1.51-.53,1.36-.52,1.14-.51v1.33l-.09.13-.21.19-.7.42-1.09.48-1.35.5-1.52.53-3.22,1-1.57.54-1.4.54-1.15.49-.45.24Zm0,3.54.5-.6-.21-.21v-.38l.16-.14.31-.2.42-.24,1.06-.45,1.35-.52,1.52-.52,3.22-1,1.56-.54,1.42-.53,1.2-.53.24-.14v1.66l-.39.29-.38.22-1,.46-1.3.49-1.47.51-3.13,1-1.55.52-1.41.52-1.21.51-.56.28-.21.12h-.1Zm0,3.66.7-.68-.34-.33,0-.06.06-.11.14-.14.62-.41.43-.22,1.13-.47,1.36-.5,1.5-.51,3.14-1,1.52-.53,1.36-.51,1.16-.52h0V223l-.4.3-.41.23-1,.45-1.32.51-1.51.51-3.18,1-1.57.53-1.41.54-1.16.48-.57.31-.07,0h-.11Zm0,3.85.81-.88-.4-.36-.08-.1.16-.22.21-.17.77-.45,1.08-.45,1.35-.51,1.53-.52,3.18-1,1.55-.53,1.39-.53,1.13-.48.07-.05v1.55l-.38.29-.39.22-1,.46-1.3.49-1.48.51-3.14,1-1.54.53-1.42.52-1.22.51-.54.28-.18.11h-.11Zm0,3.34L102,234l-.35-.33,0-.07,0-.1.39-.33.36-.23.43-.22,1.12-.46,1.36-.5,1.51-.52,3.14-1,1.53-.52,1.37-.53,1.15-.51h0v1.56l-.11.09-.31.22-.37.2-1.08.47-1.34.5-1.51.52-3.19,1-1.56.54-1.42.53-1.2.51-.54.29,0,0h-.1Zm0,3.87.84-.92-.41-.35-.1-.12v0l.38-.37.3-.2.41-.22,1.09-.47,1.36-.5,1.52-.53,3.19-1,1.56-.54,1.4-.53,1.18-.52,0,0v1.55l-.09.08-.69.42-1,.47-1.31.5-1.49.5-3.15,1-1.55.53-1.41.52-1.22.51-.52.27-.28.17Zm0,3.32.74-.73-.37-.35,0-.07,0-.1.39-.34.76-.43,1.12-.46,1.36-.51,1.51-.5,3.15-1,1.53-.53,1.38-.52,1.16-.52h0v1.54l-.1.11-.28.19-.39.21-1,.47-1.31.5-1.48.5-3.15,1-1.57.53-1.41.52-1.2.51-.55.28h-.26Zm0,3.59.74-.75-.36-.34-.06-.08,0-.08.4-.36.32-.2.44-.22,1.11-.47,1.36-.51,1.52-.51,3.16-1,1.53-.52,1.38-.52,1.16-.52h0v1.54h0l-.71.44-1,.45-1.32.5-1.49.51-3.16,1-1.56.53-1.42.53-1.2.51-.54.28-.13.07h-.19Zm0,3.64.86-.88-.38-.37,0-.07.18-.24.24-.19.31-.2.43-.22,1.11-.47,1.36-.5,1.51-.52,3.17-1,1.54-.53,1.38-.52,1.09-.48v1.58h0l-.29.2-.37.21-1,.45-1.3.5-1.47.51-3.13,1-1.56.52-1.4.53-1.22.5-.56.28-.22.13h-.19Zm0,3.38.79-.73-.33-.35,0-.06.06-.11.15-.13.62-.42.43-.22,1.13-.47,1.36-.5L107,249l3.14-1,1.53-.53,1.35-.52,1-.46v1.59h0l-.28.19-.4.22-1.06.46-1.32.51-1.5.51-3.17,1-1.57.53-1.41.53-1.21.51-.53.28-.1.06h-.19Zm0,3.84.88-1-.38-.35-.07-.09.17-.24.21-.17.75-.43,1.1-.47,1.36-.5,1.52-.52,3.18-1,1.55-.53,1.38-.53,1.1-.48v1.59l-.28.19-.38.22-1,.46-1.29.49-1.45.5-3.12,1L105,255l-1.42.53-1.24.51-.8.43h-.2Zm0,3.24.76-.7-.32-.32,0-.06.25-.27.27-.19.8-.44,1.14-.46,1.36-.51,4.63-1.48,1.5-.52,1.36-.52,1-.46v1.59h0l-.69.42-1.07.47-1.33.5-1.51.52-3.18,1-1.57.53-1.42.53-1.2.52-.53.28,0,0h-.2Zm0,4,.91-1-.4-.36-.1-.12.38-.38.73-.43,1.1-.46,1.37-.51,1.52-.52,3.18-1,1.56-.53,1.39-.53,1.11-.49v1.59l-.67.41-1,.46-1.29.49-1.47.5-3.11,1-1.55.52-1.42.53-1.22.51-.79.42h-.2Zm0,3.19.77-.71-.32-.33,0-.05.08-.13.15-.15.26-.19.81-.43,1.12-.47,1.37-.5,4.63-1.49,1.51-.52,1.36-.52,1-.47v1.59l0,0-.29.2-.39.22-1.08.47-1.34.51-1.51.52-3.2,1-1.56.53-1.42.54-1.21.51-.52.29h-.21Zm.54,2.62-.12-.13.15-.21.19-.16.73-.43,1.09-.47,1.36-.51,1.52-.52,3.2-1,1.56-.54,1.4-.53,1.13-.49v1.56l-.29.23-.39.21-1,.46-1.3.49-1.47.51-3.12,1-1.55.52-1.41.52-1.23.51-.54.27-.23.14h-.18l.94-1.06Zm-.54,4.58.79-.74-.33-.34,0-.08.23-.25.24-.18.8-.45,1.13-.46,1.36-.5,1.51-.51,3.13-1,1.51-.53,1.38-.51,1-.47v1.59h0l-.69.42-1.07.47-1.33.51-1.5.51-3.19,1-1.57.53-1.41.53-1.21.52-.53.28,0,0h-.2Zm0,3.89.91-1-.39-.36-.1-.12h0l.38-.38.74-.43,1.1-.47,1.35-.5,1.53-.52,3.19-1,1.55-.53L113,272l1.11-.49v1.57l-.29.22-.39.22-1,.46-1.3.49-1.47.51-3.13,1-1.56.53-1.41.52-1.2.5-.56.28-.19.12h-.2Zm0,3.29.81-.77-.35-.35,0,0,.22-.29.57-.39L103,279l1.12-.46,1.36-.51,1.51-.51,3.14-1,1.52-.52,1.37-.53,1.07-.47v1.57l-.32.24-.36.2-1.07.47L111,278l-1.49.51-3.18,1-1.55.53-1.42.53-1.21.51-.54.28-.09.06h-.2Zm0,3.77.88-.92-.38-.35-.07-.1.17-.24.22-.17.75-.43,1.11-.47,1.36-.5,1.51-.52,3.18-1,1.54-.53,1.39-.52,1.09-.48v1.59l-.71.43-1,.45-2.8,1-3.15,1-1.54.53-1.42.52-1.21.51-.54.27-.17.11h-.2Zm0,3.43.83-.81-.36-.35,0-.05.2-.29.57-.38.42-.22,1.12-.47,1.36-.5,1.51-.51,3.16-1,1.51-.52,1.38-.52,1.08-.47v1.58l-.7.43-1,.45-1.31.5-1.49.51-3.16,1-1.56.52-1.42.53-1.19.51-.55.28-.14.09h-.2Zm0,3.63.85-.85-.37-.35-.07-.1.18-.22.27-.2.32-.2.43-.22,1.11-.47,1.36-.51,1.52-.51,3.16-1,1.54-.53,1.37-.52,1.08-.47v1.58h0l-.71.44-1,.45-1.31.5-1.49.51-3.15,1-1.56.53-1.41.53-1.21.51-.54.28-.14.09h-.2Zm.63,2.94.22-.22-.37-.36-.07-.08.18-.23.23-.17.79-.45,1.11-.47,1.36-.5,1.52-.52,3.15-1,1.54-.53,1.37-.52,1.09-.48v1.59h0l-.29.2-.37.21-1.06.46-1.3.5-1.47.5-3.81,1.28-.07.05-1,.35-1.41.52-1.21.5-.54.27-.2.12v-.42l.6-.62Zm12.12,110.22h0l-.71.43-1,.45-1.31.5-1.49.51-3.15,1-1.56.53-1.41.53-1.21.51-.54.28-.14.09h-.2v-.26l.85-.84-.37-.36-.07-.09.18-.22.27-.21.32-.2.43-.22L104,407l1.36-.5,1.52-.51,3.16-1,1.54-.54L113,404l1.08-.47Zm0-3.57-.7.44-1,.44-1.31.5-1.49.52-3.16,1-1.56.53-1.42.53-1.19.5-.55.28-.14.09h-.2V406l.83-.82-.36-.34,0-.06.2-.28.57-.39.42-.21,1.12-.47,1.36-.5,1.51-.52,3.16-1,1.51-.53,1.38-.52,1.08-.47Zm0-3.57-.71.44-1,.44-2.8,1-3.15,1-1.54.53-1.42.52-1.21.51-.54.28-.17.1h-.2v-.17l.88-.92-.38-.35-.07-.09.17-.24.22-.17.75-.43,1.11-.47,1.36-.51,1.51-.52,3.18-1,1.54-.53,1.39-.53,1.09-.48Zm0-3.6-.32.25-.36.2-1.07.46-1.32.5-1.49.52-3.18,1-1.55.53-1.42.53-1.21.52-.54.28-.09.05h-.2v-.35l.81-.78-.35-.35,0,0,.22-.29.57-.39.44-.21,1.12-.47,1.36-.5,1.51-.51,3.14-1,1.52-.52,1.37-.52,1.07-.48Zm0-3.57-.29.22-.39.22-1,.46-1.3.5-1.47.5-3.13,1-1.56.52-1.41.52-1.2.51-.56.27-.19.12h-.2v-.08l.91-1-.39-.35-.1-.12h0l.38-.38.74-.44,1.1-.47,1.35-.5,1.53-.52,3.19-1,1.55-.54,1.39-.53,1.11-.49Zm0-3.55h0l-.69.43-1.07.47-1.33.5-1.5.51-3.19,1-1.57.53-1.41.53-1.21.52-.53.29,0,0h-.2v-.4l.79-.74-.33-.34,0-.07.23-.26.24-.18.8-.44,1.13-.47,1.36-.5,1.51-.51,3.13-1,1.51-.52,1.38-.52,1-.47Zm0-3.6-.29.23-.39.21-1,.46-1.3.49-1.47.51-3.12,1-1.55.52-1.41.52-1.23.51-.54.27-.23.15h-.18l.94-1.06-.41-.35-.12-.14.15-.2.19-.17.73-.43,1.09-.47,1.36-.51,1.52-.52,3.2-1,1.56-.53,1.4-.54,1.13-.49Zm0-3.55h0l-.29.21-.39.22-1.08.46-1.34.51-1.51.52-3.2,1-1.56.54-1.42.53-1.21.52-.52.28h-.21v-.44l.77-.72-.32-.33,0,0,.08-.14.15-.14.26-.19.81-.44,1.12-.46,1.37-.51,4.63-1.48,1.51-.53L113,379l1-.47Zm0-3.57-.67.41-1,.46-1.29.49-1.47.51-3.11,1-1.55.51-1.42.53-1.22.51-.79.42h-.2v-.07l.91-1-.4-.35-.1-.13.38-.38.73-.42,1.1-.47,1.37-.51,1.52-.52,3.18-1,1.56-.53,1.39-.53,1.11-.49Zm0-3.57h0l-.69.42-1.07.47-1.33.51-1.51.51-3.18,1-1.57.54-1.42.52-1.2.52-.53.28,0,0h-.2v-.47l.76-.7-.32-.32,0-.06.25-.27.27-.19.8-.43,1.14-.47,1.36-.5,4.63-1.48,1.5-.52,1.36-.52,1-.47Zm0-3.58-.28.2-.38.21-1,.46-1.29.49-1.45.51-3.12,1-1.54.52-1.42.52-1.24.52-.8.42h-.2V374l.88-.95-.38-.35-.07-.09.17-.24.21-.16.75-.44,1.1-.46,1.36-.51,1.52-.52,3.18-1,1.55-.53,1.38-.53,1.1-.48Zm0-3.57h0l-.28.2-.4.22-1.06.46-1.32.5-1.5.52-3.17,1-1.57.53-1.41.53-1.21.51-.53.29-.1,0h-.19v-.4l.79-.74-.33-.35,0-.05.06-.11.15-.14.62-.42.43-.22,1.13-.46,1.36-.51,1.51-.51,3.14-1,1.53-.53,1.35-.52,1-.46Zm0-3.57h0l-.29.2-.37.21-1,.46-1.3.49-1.47.51-3.13,1-1.56.52-1.4.53-1.22.5-.56.28-.22.14h-.19v-.23l.86-.88-.38-.36,0-.08.18-.24.24-.19.31-.2.43-.21,1.11-.48,1.36-.5,1.51-.52,3.17-1,1.54-.53,1.38-.52,1.09-.48Zm0-3.58h0l-.71.43-1,.45L111,360l-1.49.51-3.16,1-1.56.53-1.42.53-1.2.51-.54.28-.13.08h-.19v-.28l.74-.76-.36-.33-.06-.08,0-.09.4-.36.32-.2.44-.22,1.11-.47,1.36-.5,1.52-.51,3.16-1,1.53-.53,1.38-.52,1.16-.52h0Zm0-3.58-.1.11-.28.19-.39.22-1,.46-1.31.5-1.48.51-3.15,1-1.57.53-1.41.53-1.2.5-.55.28h-.26v-.29l.74-.74-.37-.35,0-.07,0-.1.39-.34.76-.42,1.12-.47,1.36-.5,1.51-.51,3.15-1,1.53-.53,1.38-.52,1.16-.52h0Zm0-3.55-.09.07-.69.43-1,.46-1.31.5-1.49.51-3.15,1-1.55.52-1.41.52-1.22.51-.52.28-.28.16v-.2l.84-.92-.41-.35-.1-.11v0l.38-.37.3-.21.41-.22,1.09-.46,1.36-.51,1.52-.52,3.19-1,1.56-.54,1.4-.53L114,350l0,0Zm0-3.58L114,348l-.31.22-.37.2-1.08.47-1.34.51-1.51.52-3.19,1-1.56.53-1.42.53-1.2.52-.54.29h-.12v-.43l.72-.7-.35-.34,0-.07,0-.09.39-.34.36-.22.43-.22,1.12-.47,1.36-.5,1.51-.51,3.14-1,1.53-.52,1.37-.52,1.15-.51h0Zm0-3.58-.38.29-.39.22-1,.46-1.3.5-1.48.5-3.14,1-1.54.53-1.42.52-1.22.51-.54.28-.18.11h-.11V349l.81-.88-.4-.35-.08-.11.16-.21.21-.18.77-.45,1.08-.45,1.35-.51,1.53-.52,3.18-1,1.55-.54,1.39-.52,1.13-.49.07,0Zm0-3.58-.4.31-.41.23-1,.45-1.32.5-1.51.52-3.18,1-1.57.53-1.41.54-1.16.48-.57.31-.07.05h-.11v-.48l.7-.67-.34-.34,0-.05.06-.12.14-.13.62-.42.43-.22,1.13-.46,1.36-.51,1.5-.51,3.14-1,1.52-.52,1.36-.52,1.16-.51h0Zm0-3.57-.39.3-.38.21-1,.46-1.3.49-1.47.52-3.13,1-1.55.52-1.41.53-1.21.5-.56.28-.21.13h-.1v-.57l.5-.59-.21-.22v-.38l.16-.13.31-.21.42-.23,1.06-.46,1.35-.51,1.52-.52,3.22-1,1.56-.54,1.42-.53,1.2-.53.24-.13Zm0-3.79-.09.14-.21.18-.7.43-1.09.47-1.35.51-1.52.52-3.22,1-1.57.54-1.4.54-1.15.49-.45.25V338l.68-.62-.32-.35-.05-.06.24-.26.27-.19.82-.45,1.1-.46,1.36-.49,1.51-.51,3.13-1,1.51-.53,1.36-.52,1.14-.51Zm0-3.35-.08.09-.68.41-1,.46-1.31.49-1.46.51-3.11,1-1.55.52-1.42.52-1.18.48-.82.45h-.11v-.16l.83-.92-.4-.35-.1-.11h0l.16-.22.2-.17.73-.43,1.09-.47,1.36-.51,1.53-.51,3.19-1,1.56-.54,1.4-.53,1.18-.52,0,0Zm0-3.57-.09.09-.7.42-1.07.47-1.33.51-1.51.52-3.19,1-1.57.53-1.42.53-1.19.52-.54.29,0,0h-.1v-.57l.67-.58-.32-.34,0-.05.08-.13.43-.35.84-.44,1.1-.46,1.37-.5,1.5-.5,3.11-1,1.52-.52,1.34-.52L114,325l0,0Zm0-3.57L114,323l-.69.43-1,.44-1.28.49-1.47.51-3.11,1-1.54.52-1.42.52-1.18.49-.87.46h-.1v-.31l.56-.55-.34-.34-.05-.06.05-.1.4-.34.36-.22.43-.22,1.12-.47,1.36-.5,1.51-.51,3.13-1,1.53-.53,1.37-.52,1.15-.51.17-.09Zm0-3.45-.06.08-.48.36-.39.22-1,.46-1.3.5-1.49.51-3.13,1-1.55.53-1.41.52-1.22.5-.55.28-.13.09v-.34l.66-.71-.4-.36-.08-.1.16-.22.21-.18.77-.44,1.08-.46,1.35-.51,1.52-.51,3.19-1,1.55-.53,1.39-.53,1.12-.49.23-.13Zm0-3.58,0,.08-.5.38-.41.23-1,.45-1.33.5-1.5.52-3.18,1-1.57.54-1.41.53-1.16.49-.58.31h0v-.6l.55-.52-.34-.34,0-.05.06-.11.14-.14.61-.42.44-.22,1.13-.46,1.36-.51,1.5-.51,3.14-1,1.52-.53,1.36-.52,1.16-.51.15-.09Zm0-3.57,0,.08-.49.37-.38.21-1,.46-1.3.5-1.47.51-3.14,1-1.54.53-1.41.52L102,317l-.55.28-.16.1v-.48l.55-.65-.37-.38.12-.18.2-.17.31-.21.41-.23,1.07-.46,1.35-.51,1.52-.52,3.21-1,1.57-.53,1.41-.54,1.21-.52.19-.11Zm0-3.57,0,.07-.21.18-.71.43-1.08.47-1.36.51-1.52.52-3.21,1-1.57.54L103,313l-1.15.5-.49.27v-.64l.53-.48-.33-.34,0-.07.24-.26.26-.19.83-.45,1.1-.45,1.36-.5,1.51-.51,3.12-1,1.51-.53,1.37-.51,1.14-.51.15-.09Zm0-3.58-.24.25-.68.41-1,.46-1.3.49-1.46.51-3.12,1-1.55.52-1.41.52-1.18.48-.78.43v-.31l.67-.74-.4-.36-.09-.11h0l.16-.22.2-.17.74-.43,1.09-.47,1.36-.51,1.52-.51,3.2-1,1.55-.54,1.4-.53,1.18-.52.18-.1Zm0-3.56,0,.06-.2.18-.7.42-1.07.47-1.33.51-1.52.52-3.18,1-1.57.53-1.42.53-1.2.51-.52.28v-.67l.51-.44-.31-.35,0,0,.07-.14.44-.34.83-.45,1.1-.45,1.37-.5,1.5-.51,3.12-1,1.52-.52,1.34-.52,1.1-.47.18-.11Zm0-3.57,0,.05-.2.18-.69.43-1,.44-1.28.49-1.46.5-3.11,1-1.54.52-1.42.52-1.18.48-.82.44v-.38L102,302l-.38-.34-.08-.11.17-.23.21-.17.75-.43,1.1-.47,1.36-.51,1.51-.51,3.18-1,1.56-.53,1.38-.53,1.12-.49.23-.13Zm0-3.58,0,.06-.14.13-.11.07-.26.14h.06l-.47.28-1,.45-1.32.5-1.51.52-3.18,1-1.55.53-1.42.52-1.2.52-.54.28,0,0v-.62l.54-.5-.34-.34,0-.05.06-.11.44-.36.78-.42,1.13-.47,1.36-.51,1.51-.5,3.13-1,2.77-1.09h0l.34-.13,1.06-.47v1.53Z"/><path class="cls-4" d="M354,178.36a11.31,11.31,0,0,1-11-9.34,13,13,0,0,1,1-7.7c.78-1.68,1.71-3.43,2.85-5.36a70.44,70.44,0,0,0,6.24-13.24c.05-.15.11-.3.19-.48l.75-1.84.61,1.59c.21.54.41,1.09.6,1.62a32.3,32.3,0,0,0,1.32,3.27c1.71,3.47,3.46,6.83,5.2,10l.24.44a22.77,22.77,0,0,1,3.17,8,11.31,11.31,0,0,1-9.62,13A10.77,10.77,0,0,1,354,178.36Zm.06-34.2a73.62,73.62,0,0,1-6,12.48,58.43,58.43,0,0,0-2.78,5.24,11.64,11.64,0,0,0-.95,6.92,9.92,9.92,0,0,0,19.56-3.34c-.37-2.71-1.66-5-3-7.49l-.25-.44c-1.75-3.18-3.51-6.57-5.23-10.06A28.6,28.6,0,0,1,354.1,144.16Zm-2.37,31.27-1.72-.91a8.16,8.16,0,0,1-4.39-8.67,20.66,20.66,0,0,1,3.86-8.79l1.72-1.89-.57,2.49c-1.16,5.1-2.09,10.54.31,16Z"/><path class="cls-1" d="M376.76,206.75v-6.22h-34.7l6.73-6.72a3.12,3.12,0,0,0,0-4.4l-.31-.3a3.1,3.1,0,0,0-4.4,0l-11.35,11.35a4.27,4.27,0,0,0,0,6l11.71,11.71a3.12,3.12,0,0,0,4.39,0h0a3.11,3.11,0,0,0,0-4.41l-7.06-7.05Z"/><path class="cls-5" d="M53.54,279.16a15.33,15.33,0,0,1-14.87-12.65,17.52,17.52,0,0,1,1.42-10.42A77.31,77.31,0,0,1,44,248.84a96,96,0,0,0,8.43-17.91c.07-.21.16-.41.26-.65l1-2.49.83,2.14c.29.74.55,1.48.82,2.2a43.3,43.3,0,0,0,1.77,4.42c2.32,4.7,4.69,9.25,7.05,13.54l.33.59c1.83,3.32,3.73,6.76,4.28,10.77a15.31,15.31,0,0,1-13,17.54A14.66,14.66,0,0,1,53.54,279.16Zm.09-46.28a99.93,99.93,0,0,1-8.12,16.89c-1.51,2.56-2.75,4.88-3.77,7.08a15.75,15.75,0,0,0-1.27,9.36,13.42,13.42,0,0,0,26.46-4.51c-.51-3.68-2.24-6.82-4.08-10.14l-.33-.59c-2.37-4.31-4.76-8.89-7.08-13.61A43.2,43.2,0,0,1,53.63,232.88Zm-3.21,42.3L48.1,274a11.05,11.05,0,0,1-6-11.72c.7-4.11,3.09-9.56,5.23-11.9l2.33-2.56-.77,3.37c-1.58,6.91-2.84,14.26.42,21.64Z"/><path class="cls-1" d="M22.65,317.44V309H69.6l-9.1-9.1a4.21,4.21,0,0,1,0-5.95l.41-.41a4.21,4.21,0,0,1,6,0l15.36,15.36a5.77,5.77,0,0,1,0,8.17L66.38,333a4.21,4.21,0,0,1-5.94,0h0a4.2,4.2,0,0,1,0-6L70,317.45Z"/></svg>