<svg id="Layer_1" data-name="Layer 1" xmlns="http://www.w3.org/2000/svg" viewBox="0 0 600 600"><defs><style>.cls-1{fill:#e0e0df;}</style></defs><path class="cls-1" d="M315.62,557c-39.23-2.58-78.76-12.34-111-38.8-17.4-14.28-31.44-33.57-44.13-52.53A857.83,857.83,0,0,1,53.79,242.84c-20.45-65.57,20-156.17,72.64-187.09C169.09,30.69,208.1,43,226.28,89A100.82,100.82,0,0,1,231,103.42c5.52,24.12,10.5,48.31,3.23,73-9,30.65-32.05,42.87-62.37,33.16-20.59-6.6-32.37,1.09-30.94,22.89a179.63,179.63,0,0,0,10,47.14c17,48.38,39.63,94,72.29,133.88,7.37,9,18.1,16,28.57,21.45,9.84,5.15,17.4.87,22.15-9.27a96.25,96.25,0,0,0,3.81-10.44c8.21-24.38,30.42-37.56,55-29.38,41.74,13.88,68.42,44.09,83.93,84.59,1.64,4.3,1.8,9.25,2.17,13.93,1.8,22.89-8.33,39.82-26.94,52.07C369.42,551.23,344.05,555.89,315.62,557Z"/><path class="cls-1" d="M254.54,349c6.49-21.73,13.08-42.95,19-64.36.93-3.39-.2-8.49-2.31-11.4-39.08-54-20.78-121.89,37.05-156C366.7,82.84,442.35,89.43,492.35,135c22.1,20.12,34.82,45.4,33.75,77.59-8.25-2.95-15.68-5.29-22.79-8.34a9.36,9.36,0,0,1-4.58-5.82c-9.52-42-39.62-63-78.11-72.08-43.14-10.17-84-3.1-117.55,28.57-32.92,31-34.89,73.52-5.13,107.61,4.78,5.48,6.59,10,4.62,17-3,10.75-5.23,21.74-8.37,35.17l46.6-19.73c.45,8.36.89,16.54,1.4,26.14C314.75,335.71,284.32,343.29,254.54,349Z"/><path class="cls-1" d="M541.66,344.18c15.23-23.89,12.47-54.1-4.73-76.75-33.81-44.52-109.94-49.9-151.57-10.7-28.88,27.19-32.64,66.15-7.78,97.17,24.72,30.84,58.67,38.39,96.18,33.46,8.85-1.16,16.5-.72,25.09,2.66,16,6.3,32.79,10.49,51.34,16.2-4.45-11.85-7.89-20.94-11.27-30C534.8,365.09,534.56,355.3,541.66,344.18Zm-134.54-17a15,15,0,1,1,15.05-15A15,15,0,0,1,407.12,327.16Zm48.75,0a15,15,0,1,1,15.05-15A15,15,0,0,1,455.87,327.16Zm48.75,0a15,15,0,1,1,15-15A15,15,0,0,1,504.62,327.16Z"/></svg>