<svg id="Layer_1" data-name="Layer 1" xmlns="http://www.w3.org/2000/svg" viewBox="0 0 600 600"><defs><style>.cls-1{fill:#e0e0df;}</style></defs><path class="cls-1" d="M456.17,317.85c.46-11.89,5.18-17.42,14.86-16.79,10.75.69,13.24,7.77,13.22,17.2-.11,66,0,132-.1,198,0,11-5,16.52-14.18,16.2-10-.34-14.44-6.51-13.59-15.6,1.05-11.22-3.38-13.62-14-13.54-64.49.47-129,.38-193.49.12-43.63-.17-81.5-15.6-114.23-44.32a192.18,192.18,0,0,0-22.44-16.89A204.82,204.82,0,0,1,22.32,233.86C44.11,115.69,165,41.7,280.44,75.87,362.25,100.08,420.28,171.77,425,257c1.32,23.65-2.2,47.56-3.53,71.88h34.08C455.82,324.48,456,321.16,456.17,317.85ZM223.78,96C127,95.56,46.64,176,47.59,272.22c.94,95.84,79.41,173.94,174.78,173.94a175.28,175.28,0,0,0,175.44-175.4C397.81,175.72,318.86,96.44,223.78,96Z"/><path class="cls-1" d="M332.25,179.94c-20.49-2.07-39.35.79-57.26,9.18a80,80,0,0,0-36,32.48c-2.76,4.71-2.79,7.93,1.54,12,9.24,8.59,8.91,8.63,20.23,4.18,34.69-13.63,64.82-4,93.32,17.4,10.34,7.74,9.71,16.61,8.18,27.06q-7.44,50.93-46.65,84.05a7.61,7.61,0,0,1-1.86,1c-.17.08-.46-.12-1.06-.31,2.06-19.64.11-38.88-8.13-57.13-7.26-16.08-18.34-28.82-33.8-37.65-3.47-2-5.49-1.53-8.82,1.16-8.7,7-9.63,13.11-5.13,24.32,12.79,31.77,2.12,60.22-17.08,86.51-7.31,10-15.43,14.07-28.57,11.71-32.19-5.78-59-20.23-80.69-44.51a17.2,17.2,0,0,1-1.43-2.7,111.8,111.8,0,0,0,41.44-3.46c22.12-6.14,39.83-18.23,51.88-38.25,3-5,2.54-8.13-1.47-12.06-9.11-8.94-8.9-9-20.92-4.15-33,13.18-61.88,4-89.75-15.14-12.81-8.79-12.91-19.44-10.64-32.51,5.64-32.46,20.8-59.28,45.79-80.64.66-.56,1.42-1,2.87-2,.77,12.36-.7,23.84,1.56,35.19,5.08,25.46,17.12,46.09,39.71,59.95,4.18,2.56,6.88,2.81,10.61-1.09,9.28-9.74,9.2-9.4,4.55-22.16-11.69-32.07-3-60.42,16.13-87,7.66-10.63,16-15.55,30.24-12.82,31.82,6.09,58.38,20.44,80,44.33C331.48,177.39,331.57,178.18,332.25,179.94ZM230.59,280.72c3.59.1,16.37-12.49,16.57-16.34S235.16,248,231,247.75c-3.52-.19-16.54,12.5-16.65,16.23S226.69,280.61,230.59,280.72Z"/><path class="cls-1" d="M581,332.82c-3.61,2.13-7.23,4.25-10.83,6.39l-45.41,27c-.16.1-.33.19-.66.37,0-2.31-.06-19.34-.06-19.34h-23V319.4h23s0-20.36,0-20.51c.07,0,10.18,5.91,14.84,8.68L581,332.64Z"/><path class="cls-1" d="M581,494c-3.61,2.13-7.23,4.25-10.83,6.39l-45.41,27c-.16.1-.33.19-.66.37,0-2.31-.06-19.34-.06-19.34h-23V480.61h23s0-20.36,0-20.51,10.18,5.91,14.84,8.69L581,493.85Z"/><path class="cls-1" d="M581,413.43c-3.61,2.13-7.23,4.24-10.83,6.38l-45.41,27c-.16.1-.33.18-.66.37,0-2.32-.06-19.35-.06-19.35h-23V400h23s0-20.36,0-20.51,10.18,5.91,14.84,8.68L581,413.24Z"/></svg>