<svg id="Layer_1" data-name="Layer 1" xmlns="http://www.w3.org/2000/svg" viewBox="0 0 600 600"><defs><style>.cls-1{fill:#e0e0df;}</style></defs><rect class="cls-1" x="26.74" y="406.36" width="546.53" height="33.21"/><rect class="cls-1" x="484.99" y="319.1" width="14.78" height="62.66"/><ellipse class="cls-1" cx="492.38" cy="362.62" rx="11.48" ry="8.74"/><path class="cls-1" d="M492.84,379.67a.63.63,0,0,0-.83,0c-2.12,2.5-5,.26-7,2.08,2.13,4.79,4.07,9.58,6.28,14.36.84,1,1.94.84,2.68-.62,1.3-3.12,2.68-6.24,4.07-9.37.55-1.24,1.2-2.91,1.75-4.37C497.21,379.93,495,382.38,492.84,379.67Z"/><path class="cls-1" d="M255.33,323.35a7,7,0,0,0,4.44-6.39V268.39c0-3.84-1.48-5.12-5.92-5.12H203.48c-4.44-.64-5.18,1.28-5.18,4.48v48.57c-.74,3.19,1.48,5.75,4.44,7A63,63,0,0,0,255.33,323.35Z"/><path class="cls-1" d="M270.88,336.77a11.83,11.83,0,0,0-6.67,0,93.76,93.76,0,0,1-56.28,6.39c17,14.7,32.58,29.4,50.36,44.09,6.66,3.2,15.55,2.56,21.48-1.91,10.37-9.59,21.47-19.18,32.58-28.76,4.45-3.84,9.63-8.31,14.08-12.78C307.91,347,287.91,345.07,270.88,336.77Z"/><path class="cls-1" d="M331.3,263.27H280.94c-4.44-.64-5.18,1.28-5.18,4.48v48.57c-.74,3.19,1.48,5.75,4.44,7a63,63,0,0,0,52.58,0,7,7,0,0,0,4.45-6.39V268.39C337.23,264.55,335.75,263.27,331.3,263.27Z"/><path class="cls-1" d="M71.38,160.08v33.74c0,4.4,3.84,8,8.58,8h26.13v38.59c0,4.39,3.84,7.95,8.58,7.95h306c4.74,0,8.59-3.56,8.59-7.95V201.78h26.12c4.74,0,8.59-3.56,8.59-8V160.08Z"/><rect class="cls-1" x="456.14" y="160.08" width="72.48" height="185.67"/></svg>