<svg id="Layer_1" data-name="Layer 1" xmlns="http://www.w3.org/2000/svg" viewBox="0 0 600 600"><defs><style>.cls-1{fill:#e0e0df;}</style></defs><path class="cls-1" d="M300,57.32C166.18,57.32,57.32,166.18,57.32,300S166.18,542.68,300,542.68,542.68,433.82,542.68,300,433.82,57.32,300,57.32ZM523,292.87H474.89c-3.67-91-77.17-164.37-168.28-167.78V77C424.25,80.42,519.29,175.3,523,292.87ZM300,461c-88.78,0-161-72.23-161-161s72.23-161,161-161,161,72.23,161,161S388.78,461,300,461ZM289.07,77.09V125.3c-89.11,5.52-160.35,78-164,167.57H77C80.66,176.73,173.42,82.69,289.07,77.09Zm-212,233.32h48.19c5.2,88.09,75.79,158.83,163.81,164.29v48.21C174.51,517.36,82.37,425,77.07,310.41ZM306.61,523V474.91c90-3.37,162.85-75,168.13-164.5h48.19C517.57,426.47,423.16,519.61,306.61,523Z"/><polygon class="cls-1" points="304.4 299.36 240.43 216.06 208.72 216.06 208.72 385.07 247.15 385.07 247.15 284.9 304.4 359.44 361.66 284.9 361.66 385.07 400.09 385.07 400.09 216.06 368.37 216.06 304.4 299.36"/></svg>