<svg id="Layer_1" data-name="Layer 1" xmlns="http://www.w3.org/2000/svg" viewBox="0 0 600 600"><defs><style>.cls-1{fill:#e0e0df;}</style></defs><polygon class="cls-1" points="245.34 245.14 323.21 245.14 237.6 369.1 237.6 387.71 365.88 387.71 365.88 358.74 280.06 358.74 365.88 234.32 365.88 216.17 245.34 216.17 245.34 245.14"/><path class="cls-1" d="M300,57.32C166.18,57.32,57.32,166.18,57.32,300S166.18,542.68,300,542.68,542.68,433.82,542.68,300,433.82,57.32,300,57.32ZM523,294.18H474.93c-3-91.67-76.81-165.7-168.38-169.09V77C424.65,80.4,520,176,523,294.18ZM300,461c-88.78,0-161-72.23-161-161s72.23-161,161-161,161,72.23,161,161S388.78,461,300,461ZM289,77.09v48.22c-89.08,5.55-160.29,78-163.9,167.56H77C80.66,176.76,173.39,82.73,289,77.09ZM77.07,310.41h48.19c5.2,88.18,75.94,159,164.08,164.31l-.64,48.18C174.31,517.17,82.36,424.92,77.07,310.41ZM306.25,523l.63-48.13c90.33-3.52,163.32-75.75,168-165.8H523C518.25,425.89,423.4,519.79,306.25,523Z"/></svg>