<svg id="Layer_1" data-name="Layer 1" xmlns="http://www.w3.org/2000/svg" viewBox="0 0 600 600"><defs><style>.cls-1{fill:#e0e0df;}</style></defs><polygon class="cls-1" points="353.51 368.41 331.58 324.03 306.7 324.03 342.36 396.17 342.36 424.97 364.65 424.97 364.65 396.17 400.31 324.03 375.44 324.03 353.51 368.41"/><path class="cls-1" d="M300,57.32C166.18,57.32,57.32,166.18,57.32,300S166.18,542.68,300,542.68,542.68,433.82,542.68,300,433.82,57.32,300,57.32ZM523,292.87H474.89C471.29,203.4,400.23,131,311.31,125.33V77.1C426.78,82.89,519.34,176.86,523,292.87ZM300,461c-88.78,0-161-72.23-161-161s72.23-161,161-161,161,72.23,161,161S388.78,461,300,461ZM293.76,77v48.11c-91.28,3.22-165,76.62-168.65,167.79H77C80.71,175.17,176,80.23,293.76,77ZM77.07,310.41h48.19c5.2,88.09,75.79,158.83,163.81,164.29v48.21C174.51,517.36,82.37,425,77.07,310.41ZM306.61,523V474.91c90-3.37,162.85-75,168.13-164.5h48.19C517.57,426.47,423.16,519.61,306.61,523Z"/><rect class="cls-1" x="182.43" y="295.87" width="226.56" height="14.08" transform="translate(-118.86 217.28) rotate(-34.02)"/><polygon class="cls-1" points="224.85 283.3 242.2 254.63 259.56 283.3 282.59 283.3 253.72 235.6 282.59 187.9 259.55 187.9 242.2 216.57 224.85 187.9 201.82 187.9 230.69 235.6 201.82 283.3 224.85 283.3"/></svg>