<svg id="Layer_1" data-name="Layer 1" xmlns="http://www.w3.org/2000/svg" viewBox="0 0 600 600"><defs><style>.cls-1{fill:#e0e0df;}</style></defs><path class="cls-1" d="M493.17,71H106.83A35.86,35.86,0,0,0,71,106.83V493.17A35.86,35.86,0,0,0,106.83,529H493.17A35.86,35.86,0,0,0,529,493.17V106.83A35.86,35.86,0,0,0,493.17,71Zm-3.69,51.89V460.32a9.09,9.09,0,0,1-9.08,9.09H119.6a9.09,9.09,0,0,1-9.08-9.09V122.9a9.09,9.09,0,0,1,9.08-9.09H480.4A9.09,9.09,0,0,1,489.48,122.9Z"/><path class="cls-1" d="M194.67,209.41c2.56,4.17,5.11,8.34,7.69,12.5l32.56,52.37c.12.19.22.38.44.76H205.07l1.21,2.06a37.13,37.13,0,0,1,5.44,21.32A41.4,41.4,0,0,1,206.45,316c-3.1,5.77-7,10.88-10.76,16.17a61,61,0,0,0-6.63,11.23c-3.62,8.48-1.81,16.78,3.89,23.23a43.2,43.2,0,0,0,11.1,8.76c.85.49.76.82.29,1.52-2.75,4.17-8.78,13.68-8.78,13.68s-1-.53-1.36-.74a63.45,63.45,0,0,1-17.27-15.65,38.13,38.13,0,0,1-7.84-22,39.13,39.13,0,0,1,4-17.84c2.73-5.77,6.41-10.84,10.06-15.93,3-4.25,6.14-8.45,8.32-13.32,3-6.73,3-13.38-.63-19.84a31.36,31.36,0,0,0-8.82-9.44,3.32,3.32,0,0,0-2.14-.74c-8.27,0-25.64.08-26.12.05,0-.08,7.12-11.74,10.46-17.11l30.2-48.59Z"/><path class="cls-1" d="M300.09,209.41c2.57,4.17,5.11,8.34,7.69,12.5l32.56,52.37c.12.19.23.38.44.76H310.5c.48.83.84,1.45,1.21,2.06a37.2,37.2,0,0,1,5.43,21.32A41.4,41.4,0,0,1,311.87,316c-3.1,5.77-7,10.88-10.76,16.17a62.11,62.11,0,0,0-6.63,11.23c-3.62,8.48-1.81,16.78,3.89,23.23a43.08,43.08,0,0,0,11.11,8.76c.84.49.75.82.29,1.52C307,381.08,301,390.59,301,390.59s-1-.53-1.36-.74a63.26,63.26,0,0,1-17.26-15.65,38.06,38.06,0,0,1-7.84-22,39,39,0,0,1,4-17.84c2.74-5.77,6.41-10.84,10.06-15.93,3-4.25,6.15-8.45,8.33-13.32,3-6.73,3-13.38-.64-19.84a31.33,31.33,0,0,0-8.81-9.44,3.35,3.35,0,0,0-2.14-.74c-8.28,0-25.65.08-26.12.05,0-.08,7.11-11.74,10.46-17.11l30.19-48.59Z"/><path class="cls-1" d="M405.52,209.41c2.56,4.17,5.11,8.34,7.69,12.5l32.55,52.37c.12.19.23.38.45.76H415.92c.48.83.85,1.45,1.21,2.06a37.12,37.12,0,0,1,5.43,21.32A41.39,41.39,0,0,1,417.3,316c-3.11,5.77-7.05,10.88-10.76,16.17a61.58,61.58,0,0,0-6.64,11.23c-3.61,8.48-1.8,16.78,3.9,23.23a43.2,43.2,0,0,0,11.1,8.76c.84.49.75.82.29,1.52-2.76,4.17-8.79,13.68-8.79,13.68s-1-.53-1.36-.74a63.26,63.26,0,0,1-17.26-15.65,38.13,38.13,0,0,1-7.84-22,39.12,39.12,0,0,1,4-17.84c2.74-5.77,6.42-10.84,10.07-15.93,3-4.25,6.14-8.45,8.32-13.32,3-6.73,3-13.38-.63-19.84a31.36,31.36,0,0,0-8.82-9.44,3.35,3.35,0,0,0-2.14-.74c-8.28,0-25.64.08-26.12.05,0-.08,7.12-11.74,10.46-17.11l30.19-48.59Z"/></svg>