<svg id="Layer_1" data-name="Layer 1" xmlns="http://www.w3.org/2000/svg" viewBox="0 0 600 600"><defs><style>.cls-1{fill:#e0e0df;}.cls-2{fill:#424143;}</style></defs><path class="cls-1" d="M95.19,291.9l10.36-79c.92-7-6.31-12.31-13.09-9.59l-23.29,9.34c-2.32-27.72,3.23-58.33,29.16-84C182.94,45,256,104.66,256,104.66c-49.14-46.26-129-44.19-178.29,4.62C46,140.7,34.63,183.82,43.65,222.9L17.89,233.22A9.13,9.13,0,0,0,15.48,249L79.7,298.11C85.54,302.58,94.25,299.08,95.19,291.9Z"/><path class="cls-2" d="M470.84,191.72c-3.14,11.23-9.27,19.19-16.79,25.66a82.51,82.51,0,0,1-33.19,17.13c-25.48,6.81-50.68,5.73-75.42-5a69.55,69.55,0,0,1-26.87-19.82,46.42,46.42,0,0,1-8.51-15.43c-.18-.57-.35-1.16-.48-1.75a3.62,3.62,0,0,1,0-.82c.19.13.36.18.42.3,5.37,11.27,13.36,18.82,22.4,24.8,12.7,8.39,26.35,12.81,40.52,14.81,19.29,2.73,38.35,1.18,57-5.81a79.56,79.56,0,0,0,29.34-18.45,54.43,54.43,0,0,0,10.5-14.68C470,192.24,470.09,191.57,470.84,191.72Z"/><path class="cls-1" d="M446.37,156.51q0,9.62,0,19.24c0,5.34-.16,10.68,0,16a21.93,21.93,0,0,1-7.75,18.11,46,46,0,0,1-15.43,8.72c-11.63,4.22-23.59,5.9-35.69,6.32-15.64.54-31.14-.71-46.27-5.86-6.69-2.28-13.09-5.33-18.42-10.89a21.32,21.32,0,0,1-6-15.66c.11-11.75,0-23.5,0-35.25,0-.79.48-2.43-1.18-1.34-8,5.22-15.22,11.49-20.81,20.17-8.9,13.82-9.68,29.54-2.13,44a56.53,56.53,0,0,0,12.51,15.84c10.65,9.61,22.74,15.56,35.53,19.62a137.46,137.46,0,0,0,59,5.12c15.54-1.89,30.57-6.2,44.71-14.35,9-5.16,17.13-11.61,23.59-20.79,10.75-15.3,11.29-33.42,1.39-49.08-5.81-9.2-13.48-15.7-21.9-21.08C446.27,154.49,446.37,155.46,446.37,156.51Z"/><path class="cls-1" d="M385.82,85.12A39.48,39.48,0,0,1,406.05,91a17.93,17.93,0,0,1,5.24,4.8,10.19,10.19,0,0,1-.11,12.94,20.14,20.14,0,0,1-6.73,5.58c-8.22,4.41-16.76,5.43-25.45,4.65a39.32,39.32,0,0,1-15.75-4.63,21.24,21.24,0,0,1-6.42-5.16c-3.6-4.39-3.64-9.45-.08-13.89a23.09,23.09,0,0,1,9.36-6.69C371.9,86.06,377.84,85.1,385.82,85.12Z"/><path class="cls-1" d="M313.86,159.82c3,3.74,6.32,5.47,12.13,9.31,12.7,8.39,26.35,12.81,40.52,14.81,19.3,2.73,38.36,1.18,57-5.81a79.56,79.56,0,0,0,29.34-18.45l.48-.46.39-.36,2.83,2.36s-.12.28-.19.4c-1.76,3.06-3.91,3.93-8.74,8.08a82.38,82.38,0,0,1-33.19,17.13c-25.47,6.81-50.68,5.73-75.42-5A69.55,69.55,0,0,1,312.17,162"/><path class="cls-1" d="M307.62,164.71A63.29,63.29,0,0,0,326,182.41c12.7,8.39,26.35,12.81,40.52,14.81,19.3,2.73,38.36,1.18,57-5.8A79.82,79.82,0,0,0,452.88,173a56.16,56.16,0,0,0,5.88-6.93c.32-.45.94-1.36.94-1.36l1.29,1.64-.55,1.07A53.92,53.92,0,0,1,447.65,183a82.48,82.48,0,0,1-33.19,17.12c-25.47,6.82-50.68,5.74-75.42-5a69.52,69.52,0,0,1-26.87-19.81,48.5,48.5,0,0,1-6.07-9.38Z"/><path class="cls-1" d="M464.45,169.37c-3.15,11.23-9.28,19.19-16.8,25.67a82.48,82.48,0,0,1-33.19,17.12c-25.47,6.82-50.68,5.74-75.42-5a69.52,69.52,0,0,1-26.87-19.81,46.57,46.57,0,0,1-8.51-15.44q-.27-.85-.48-1.74a4.35,4.35,0,0,1,0-.82c.19.13.36.17.42.3C309,180.93,317,188.49,326,194.46c12.7,8.39,26.35,12.81,40.52,14.81,19.3,2.73,38.36,1.18,57-5.8A79.82,79.82,0,0,0,452.88,185a54.49,54.49,0,0,0,10.5-14.69C463.59,169.9,463.69,169.23,464.45,169.37Z"/><path class="cls-1" d="M464.45,182.66c-3.15,11.23-9.28,19.19-16.8,25.66a82.51,82.51,0,0,1-33.19,17.13c-25.47,6.81-50.68,5.73-75.42-5a69.55,69.55,0,0,1-26.87-19.82,46.52,46.52,0,0,1-8.51-15.43c-.18-.57-.34-1.16-.48-1.75a4.31,4.31,0,0,1,0-.82c.19.13.36.18.42.3C309,194.22,317,201.77,326,207.75c12.7,8.39,26.35,12.81,40.52,14.81,19.3,2.73,38.36,1.18,57-5.81a79.56,79.56,0,0,0,29.34-18.45,54.43,54.43,0,0,0,10.5-14.68C463.59,183.18,463.69,182.51,464.45,182.66Z"/><path class="cls-1" d="M289.36,110.4c0,36.59,42.3,66.25,94.47,66.25S478.3,147,478.3,110.4,436,44.14,383.83,44.14,289.36,73.81,289.36,110.4Zm163.79-4.83c0,24-31,43.46-69.32,43.46s-69.32-19.46-69.32-43.46,31-43.45,69.32-43.45S453.15,81.57,453.15,105.57Z"/><path class="cls-2" d="M335.66,463.22c-4.16,14.85-12.27,25.37-22.22,33.93-13.33,11.49-28.2,18.46-43.89,22.65-33.69,9-67,7.59-99.73-6.59-13.2-5.71-25.39-13.83-35.54-26.2A61.47,61.47,0,0,1,123,466.6c-.25-.76-.46-1.53-.64-2.31a5.4,5.4,0,0,1,0-1.09c.26.18.49.24.56.4,7.11,14.9,17.67,24.89,29.63,32.79,16.79,11.1,34.84,16.94,53.58,19.59,25.52,3.61,50.72,1.56,75.42-7.68,14.06-5.25,27.26-12.78,38.81-24.4a72,72,0,0,0,13.88-19.42C334.53,463.91,334.66,463,335.66,463.22Z"/><path class="cls-1" d="M303.3,416.65q0,12.72,0,25.45c0,7-.2,14.12.05,21.16.38,10.4-3.55,18-10.24,23.95-6.15,5.49-13.13,8.89-20.4,11.53-15.38,5.58-31.2,7.8-47.2,8.36-20.68.71-41.19-1-61.2-7.76-8.84-3-17.31-7-24.35-14.39-5.24-5.47-8-12.22-7.9-20.71.14-15.54.05-31.08,0-46.62,0-1.05.63-3.22-1.56-1.78C120,422.75,110.39,431,103,442.52c-11.77,18.28-12.8,39.06-2.82,58.18a74.58,74.58,0,0,0,16.55,20.94c14.09,12.71,30.07,20.59,47,26,25.63,8.13,51.69,10,78,6.77,20.55-2.51,40.43-8.21,59.13-19C312.69,528.56,323.5,520,332,507.88c14.22-20.22,14.93-44.18,1.84-64.9-7.68-12.16-17.83-20.76-29-27.87C303.16,414,303.29,415.26,303.3,416.65Z"/><path class="cls-1" d="M223.21,322.24A52.19,52.19,0,0,1,250,330a24.09,24.09,0,0,1,6.94,6.35c4,5.57,4,11.68-.15,17.11a26.61,26.61,0,0,1-8.91,7.38C237,366.63,225.69,368,214.2,367a52.05,52.05,0,0,1-20.83-6.11,28.3,28.3,0,0,1-8.49-6.84c-4.76-5.79-4.82-12.48-.1-18.36,3.56-4.45,7.89-6.91,12.37-8.85C204.81,323.48,212.67,322.21,223.21,322.24Z"/><path class="cls-1" d="M128.06,421c4,4.94,8.35,7.23,16,12.31,16.79,11.09,34.84,16.94,53.58,19.59,25.52,3.6,50.72,1.55,75.42-7.68,14.06-5.26,27.26-12.78,38.81-24.4.22-.23.43-.43.63-.62s.51-.46.51-.46l3.75,3.11s-.16.37-.25.53c-2.33,4-5.18,5.19-11.57,10.69-13.33,11.48-28.2,18.45-43.89,22.65-33.69,9-67,7.58-99.73-6.59-13.2-5.72-25.39-13.83-35.54-26.21"/><path class="cls-1" d="M119.79,427.5c6.63,9.93,15,17.29,24.31,23.41,16.79,11.09,34.84,16.94,53.58,19.58,25.52,3.61,50.72,1.56,75.42-7.67,14.06-5.26,27.26-12.78,38.81-24.4a75.45,75.45,0,0,0,7.77-9.16c.42-.59,1.25-1.8,1.25-1.8l1.7,2.16s-.48.95-.73,1.42A71.43,71.43,0,0,1,305,451.67c-13.33,11.48-28.2,18.45-43.89,22.65-33.69,9-67,7.58-99.73-6.59-13.2-5.72-25.39-13.84-35.54-26.21a63.46,63.46,0,0,1-8-12.39Z"/><path class="cls-1" d="M327.2,433.67C323,448.51,314.93,459,305,467.6c-13.33,11.49-28.2,18.46-43.89,22.65-33.69,9-67,7.59-99.73-6.59-13.2-5.71-25.39-13.83-35.54-26.2a61.67,61.67,0,0,1-11.26-20.41q-.36-1.14-.63-2.31a5.4,5.4,0,0,1,0-1.09c.26.18.49.24.56.4,7.1,14.9,17.67,24.89,29.63,32.79,16.79,11.1,34.84,16.94,53.58,19.59C223.2,490,248.4,488,273.1,478.75c14.06-5.26,27.26-12.78,38.81-24.4a72,72,0,0,0,13.88-19.42C326.07,434.36,326.19,433.47,327.2,433.67Z"/><path class="cls-1" d="M95.66,355.67c0,48.39,55.93,87.62,124.93,87.62s124.93-39.23,124.93-87.62-55.93-87.62-124.93-87.62S95.66,307.28,95.66,355.67Zm216.6-6.38c0,31.74-41,57.47-91.67,57.47S128.92,381,128.92,349.29s41-57.47,91.67-57.47S312.26,317.55,312.26,349.29Z"/><path class="cls-1" d="M492.54,279.93l16,78c1.42,6.93,10,9.58,15.5,4.79l19-16.43c11.24,25.45,16,56.18-.15,88.9-52.65,106.77-141.2,74.19-141.2,74.19,61.55,27.68,136.32-.33,167-62.57,19.76-40.06,16.4-84.52-4.89-118.52l21-18.17a9.13,9.13,0,0,0-2.89-15.73L505.16,269C498.18,266.69,491.09,272.84,492.54,279.93Z"/></svg>