<?xml version="1.0" encoding="UTF-8"?>
<svg id="Layer_1" data-name="Layer 1" xmlns="http://www.w3.org/2000/svg" viewBox="0 0 600 600">
  <defs>
    <style>
      .cls-1 {
        fill: #e0e0df;
      }
    </style>
  </defs>
  <path class="cls-1" d="M466.76,388.65h-32.51c-6.83,0-12.36-5.54-12.36-12.36v-123.27h0c-12.39,0-22.43,10.04-22.43,22.43v111.56c0,6.79,5.51,12.3,12.3,12.3h77.51c6.79,0,0-3.86,0-10.66"/>
  <path class="cls-1" d="M310.32,408.74c5.73,0,10.51-1.98,14.2-5.88,3.68-3.88,5.55-8.55,5.55-13.87s-1.87-10.23-5.56-14.02c-3.7-3.8-8.47-5.72-14.19-5.72s-10.78,1.93-14.48,5.73c-3.68,3.79-5.55,8.5-5.55,14.02s1.86,9.98,5.54,13.86c3.7,3.91,8.58,5.89,14.5,5.89Z"/>
  <path class="cls-1" d="M265.11,396.81c-.02-.12-.04-.25-.06-.37-.12-.68-.22-1.36-.31-2.05-.03-.23-.05-.46-.08-.69-.07-.61-.12-1.22-.16-1.84-.02-.23-.04-.47-.05-.7-.04-.83-.07-1.66-.07-2.5h-17.83c-6.83,0-12.36-5.54-12.36-12.37v-118.98l-.09-.08-.08-.07-4.16-3.72c-10.31,2.02-18.1,11.1-18.1,22.01v111.56c0,6.79,5.51,12.3,12.3,12.3h41.6s0,0,0,0c-.2-.83-.38-1.66-.53-2.5Z"/>
  <path class="cls-1" d="M474.54,388.65h-116.87c0,3.67-.33,7.23-.97,10.66h117.84c5.23,0,0-3.86,0-10.66Z"/>
  <path class="cls-1" d="M269.99,391c0-.79.02-1.57.06-2.35h-127.53c-6.83,0-12.36-5.54-12.36-12.37v-123.27h0c-12.39,0-22.43,10.04-22.43,22.43v111.56c0,6.79,5.51,12.3,12.3,12.3h150.72c-.5-2.7-.76-5.47-.76-8.31Z"/>
  <path class="cls-1" d="M359.41,296.82c5.22-6.3,9.61-13.65,13.16-22.05,3.55-8.39,5.32-18.77,5.32-31.12,0-20.5-6.36-36.62-19.07-48.35-12.72-11.73-29.72-17.6-51.01-17.6-17.35,0-32.38,3.65-45.1,10.93-12.72,7.29-23.21,17.48-31.49,30.57l21.59,19.27c5.91-9.38,13.21-16.61,21.88-21.68,8.67-5.06,19.02-7.6,31.05-7.6,13.21,0,23.56,3.71,31.05,11.12,7.49,7.41,11.24,17.04,11.24,28.9,0,8.65-1.73,16.12-5.17,22.42-3.45,6.3-7.79,12.23-13.01,17.79-5.23,5.56-10.4,11.43-15.53,17.6-5.13,6.18-9.46,13.34-13.01,21.49-3.04,6.99-4.77,15.27-5.21,24.81,4.38-1.64,9.16-2.49,14.22-2.49,5.5,0,10.67,1.03,15.37,3.03.46-7.8,2.18-14.59,5.19-20.35,3.55-6.79,7.88-13.03,13.01-18.71,5.12-5.68,10.3-11.67,15.52-17.97Z"/>
  <path class="cls-1" d="M315.48,275.11c3.36-3.58,6.26-7.37,8.65-11.3v-6.51l-.09-.08-.08-.07-4.16-3.72c-10.31,2.02-18.1,11.1-18.1,22.01v15.14c4.56-5.4,9.19-10.6,13.78-15.48Z"/>
  <path class="cls-1" d="M347.03,399.31h10.37l1.12-10.66h-9.93c-.03,3.69-.56,7.26-1.56,10.66Z"/>
  <path class="cls-1" d="M145.64,388.99c-1.15-26.08,2.27-53.46,10.65-72.58,1.28-2.8,2.08-3.9,5.46-3.9,2.86,0,5.71,0,8.78,0-2.13-4.14-4.54-7.67-8.63-10.03h-3.24c-7.03,4.04-10.48,13.72-12.97,21-4.94,15.09-7.73,35.35-7.79,55.91-.01,3.2.05,6.4.17,9.59h7.57Z"/>
  <path class="cls-1" d="M172.14,388.99h7.36c-1.01-22.71,1.6-46.07,7.58-65.08,1.68-4.98,1.71-4.95-4.21-4.62-.89.05-1.29.34-1.6,1.04-7.14,16.95-8.45,35.58-9.59,53.65-.23,3.46-.18,7.07.27,10.33.05,1.57.11,3.12.18,4.68h0Z"/>
  <path class="cls-1" d="M194.74,388.99c-.99-22.62,1.66-45.87,7.51-65.07.46-1.48,2.04-3.34,1.19-4.29-.86-.96-3.3-.17-5.03-.3-1.18-.09-1.59.4-1.99,1.32-7.6,19.15-9.08,38.26-9.23,59.79-.01,2.76.04,5.63.14,8.55h7.41,0Z"/>
  <path class="cls-1" d="M163.81,388.99c-.99-22.62,1.66-45.87,7.51-65.07.46-1.48,2.04-3.34,1.19-4.29-.86-.96-3.3-.17-5.03-.3-1.18-.09-1.59.4-1.99,1.32-7.6,19.15-9.08,38.26-9.23,59.79-.01,2.76.04,5.63.14,8.55h7.41,0Z"/>
  <path class="cls-1" d="M203.06,388.99h7.36c-1.01-22.71,1.6-46.07,7.58-65.08,1.68-4.98,1.71-4.95-4.21-4.62-.89.05-1.29.34-1.6,1.04-7.14,16.95-8.45,35.58-9.59,53.65-.23,3.46-.18,7.07.27,10.33.05,1.57.11,3.12.18,4.68h0Z"/>
  <path class="cls-1" d="M250.79,388.99c-1.15-26.08,2.27-53.46,10.65-72.58,1.28-2.8,2.08-3.9,5.46-3.9,2.86,0,5.71,0,8.78,0-2.13-4.14-4.54-7.67-8.63-10.03h-3.24c-7.03,4.04-10.48,13.72-12.97,21-4.94,15.09-7.73,35.35-7.79,55.91-.01,3.2.05,6.4.17,9.59h7.57Z"/>
  <path class="cls-1" d="M268.97,388.99c-.99-22.62,1.66-45.87,7.51-65.07.46-1.48,2.04-3.34,1.19-4.29-.86-.96-3.3-.17-5.03-.3-1.18-.09-1.59.4-1.99,1.32-7.6,19.15-9.08,38.26-9.23,59.79-.01,2.76.04,5.63.14,8.55h7.41,0Z"/>
  <path class="cls-1" d="M359.56,388.99h7.36c-1.01-22.71,1.6-46.07,7.58-65.08,1.68-4.98,1.71-4.95-4.21-4.62-.89.05-1.29.34-1.6,1.04-7.14,16.95-8.45,35.58-9.59,53.65-.23,3.46-.18,7.07.27,10.33.05,1.57.11,3.12.18,4.68h0Z"/>
  <path class="cls-1" d="M382.15,388.99c-.99-22.62,1.66-45.87,7.51-65.07.46-1.48,2.04-3.34,1.19-4.29-.86-.96-3.3-.17-5.03-.3-1.18-.09-1.59.4-1.99,1.32-7.6,19.15-9.08,38.26-9.23,59.79-.01,2.76.04,5.63.14,8.55h7.41,0Z"/>
  <path class="cls-1" d="M390.48,388.99h7.36c-1.01-22.71,1.6-46.07,7.58-65.08,1.68-4.98,1.71-4.95-4.21-4.62-.89.05-1.29.34-1.6,1.04-7.14,16.95-8.45,35.58-9.59,53.65-.23,3.46-.18,7.07.27,10.33.05,1.57.11,3.12.18,4.68h0Z"/>
  <path class="cls-1" d="M439.11,388.65c-1.15-26.08,2.27-53.46,10.65-72.58,1.28-2.8,2.08-3.9,5.46-3.9,2.86,0,5.71,0,8.78,0-2.13-4.14-4.54-7.67-8.63-10.03h-3.24c-7.03,4.04-10.48,13.72-12.97,21-4.94,15.09-7.73,35.35-7.79,55.91-.01,3.2.05,6.4.17,9.59h7.57Z"/>
  <path class="cls-1" d="M465.61,388.65h7.36c-1.01-22.71,1.6-46.07,7.58-65.08,1.68-4.98,1.71-4.95-4.21-4.62-.89.05-1.29.34-1.6,1.04-7.14,16.95-8.45,35.58-9.59,53.65-.23,3.46-.18,7.07.27,10.33.05,1.57.11,3.12.18,4.68h0Z"/>
  <path class="cls-1" d="M488.21,388.65c-.99-22.62,1.66-45.87,7.51-65.07.46-1.48,2.04-3.34,1.19-4.29-.86-.96-3.3-.17-5.03-.3-1.18-.09-1.59.4-1.99,1.32-7.6,19.15-9.08,38.26-9.23,59.79-.01,2.76.04,5.63.14,8.55h7.41,0Z"/>
  <path class="cls-1" d="M457.29,388.65c-.99-22.62,1.66-45.87,7.51-65.07.46-1.48,2.04-3.34,1.19-4.29-.86-.96-3.3-.17-5.03-.3-1.18-.09-1.59.4-1.99,1.32-7.6,19.15-9.08,38.26-9.23,59.79-.01,2.76.04,5.63.14,8.55h7.41,0Z"/>
</svg>