<svg id="Layer_1" data-name="Layer 1" xmlns="http://www.w3.org/2000/svg" viewBox="0 0 600 600"><defs><style>.cls-1{fill:#e0e0df;}</style></defs><path class="cls-1" d="M563.67,503.27,452.84,392.44c.44-.81.91-1.61,1.32-2.44,3.68-7.45,9.49-10.11,17.43-9.39,5.12.46,10.3.17,15.44.2,7.59,0,12.74-4.61,15-12l3.68-12.14c2.68-8.82,1.72-15-4.87-19.74a107.65,107.65,0,0,0-10.55-6.68c-9-5-12.95-11.07-12.9-23.07,0-3.9.21-4,.17-11.52a11.39,11.39,0,0,1,5.34-10.22c6-3.9,12-7.65,18.26-11.12,5.44-3,8.15-9.84,7.64-13.7-1-7.6-2-15.2-4.78-22.49-2.26-5.94-6.43-8.48-12.15-8.88-6.71-.48-13.45-.65-20.18-.89a11.65,11.65,0,0,1-10-5.2C458,218,456.16,212,452.55,206.92c-4.33-6.06-2.18-12,.76-17.63,2.21-4.25,4.88-8.26,7.5-12.27,4.61-7.06,4.85-14.42.26-19.63-3.55-4-7.25-7.94-11-11.77-7.74-7.88-13.79-8.3-23.07-2.27a104.07,104.07,0,0,1-13,7.07c-10.06,4.69-16.36-3.43-24.15-7.26-9.38-4.61-12.11-11.71-11.29-21.55a129.9,129.9,0,0,0,0-16.39c-.19-4.21-1.54-8.51-5.77-9.81-7.75-2.37-15.18-6-23.33-6.83-5.6-.6-9.94,1.2-12.93,6.5a183.69,183.69,0,0,1-10.92,17.25c-3.23,4.45-7.27,7.18-13.51,7L297.83,119a14,14,0,0,1-11.67-6,103.73,103.73,0,0,1-9.58-16.65C272.66,88,266.89,84,260.5,86c-5.88,1.92-11.94,2.85-17.84,4.45-6.73,1.83-11.33,5.85-11.17,13.51.14,6.67-.36,13.36-.59,20a14,14,0,0,1-6.45,11.62c-5.1,3.42-10.82,5.71-16,9.08a12.41,12.41,0,0,1-2.21,1.12L96.73,36.33l-60.4,60.4,111.2,111.2a21.34,21.34,0,0,0-1.72,5.11c-.49,2.58-3.2,5.1-6.93,5.55-8.71,1-17.42.22-26.12.49-6.13.19-10,2.89-12.71,8.84-2.75,6.14-3.14,12.78-5.37,19-2.33,6.47-.37,12.48,5.34,16.21,3.65,2.38,7.55,4.38,11,7,5.4,4,12.55,6.75,12.22,15.57-.25,6.48-.23,13-.64,19.44-.31,4.83-2,8.72-6.85,11.1a168.36,168.36,0,0,0-17.4,10.25c-5.12,3.33-8.66,7.71-6.86,14.6,1.43,5.47,3,10.9,4.09,16.44,1.84,9.41,5.72,13,15.31,13.46,6.13.29,12.27.69,18.4.67,5.49,0,9,2.94,11.31,7.45,2.83,5.54,5.72,11,8.88,16.38,2.31,3.93,2,8.08-.37,12.08-3.9,6.53-7.89,13-11.46,19.75-2.67,5-2.65,10.08,1.52,14.56,4,4.25,7.8,8.62,11.79,12.84,6.85,7.26,13.37,7.94,21.69,2.74A146.65,146.65,0,0,1,186.2,450c4.66-2.27,9.72-2.87,14.24,0a94.83,94.83,0,0,0,9.07,5.65c9.6,4.7,13.58,25.84,12.36,41.58a7.14,7.14,0,0,0,5.47,7.65c8.62,1.53,16.42,6.16,25.24,6.65,3.88.21,7.15-.57,9.88-4.1a152.28,152.28,0,0,0,9.45-14.61c4.87-8.08,10.35-10,21-11.82,3.64-.6,5.77.07,8.89.23,7.42.39,12.14,3.18,15.44,9.82a128.21,128.21,0,0,0,10.22,17.65c3.09,4.32,7.31,6.4,13.37,5l13.84-3.31c10.44-2.5,13.67-5.3,14.5-16.41.5-6.67.87-13.35,1.71-20,.42-3.28.61-6.94,4.14-8.92,5.7-3.2,11.27-6.62,17-9.75a16,16,0,0,1,1.93-.9L503.27,563.67ZM292.3,167.34c79.25-4.2,137.76,59.11,137.88,132.32a136.07,136.07,0,0,1-12.52,57.6l-15-14.95a117.46,117.46,0,0,0,7.94-42.62c0-61.9-48.7-112.75-111.24-112.49a103.61,103.61,0,0,0-42.59,9.22l-15-15A123,123,0,0,1,292.3,167.34ZM219.17,279.57,322.44,382.84a83.12,83.12,0,0,1-22.1,3.09c-45.16.06-83.31-37.06-83.63-85.79A88,88,0,0,1,219.17,279.57Zm162.08,41.28L277.89,217.49a81.36,81.36,0,0,1,21.21-3.19c46.09-.63,84.39,36.61,84.69,84.77A91.69,91.69,0,0,1,381.25,320.85Zm-80.46,112c-70.27.43-129.15-58.78-130-130.67A136.05,136.05,0,0,1,183,243.44l15.16,15.15A113.94,113.94,0,0,0,190.41,300c0,62.5,49.59,112.43,109,112.8A110,110,0,0,0,343.58,404l14.91,14.9A130.19,130.19,0,0,1,300.79,432.87Z"/></svg>