<svg id="Layer_1" data-name="Layer 1" xmlns="http://www.w3.org/2000/svg" viewBox="0 0 600 600"><defs><style>.cls-1{fill:#e0e0df;}.cls-2,.cls-3,.cls-4{fill:none;stroke:#e0e0df;stroke-miterlimit:10;}.cls-2{stroke-width:6px;}.cls-3,.cls-4{stroke-width:41.39px;}.cls-4{stroke-dasharray:21.44 21.44;}</style></defs><path class="cls-1" d="M188.84,171.36H95.25a2,2,0,0,0-2,2V276.47a2,2,0,0,0,2,1.95h93.59a2,2,0,0,0,1.95-1.95V173.32A2,2,0,0,0,188.84,171.36Zm-7.37,96.45H165.75l-48.63-62.63v62.63H102.63V182h14.49L167,246.08V182h14.49Z"/><path class="cls-2" d="M507,171.36H413.38a2,2,0,0,0-1.95,2V276.47a2,2,0,0,0,1.95,1.95H507a2,2,0,0,0,1.95-1.95V173.32A2,2,0,0,0,507,171.36Zm-22.05,91q-8.48,7-22.23,7-20.15,0-35.73-13.88L436,244.54q13,11.29,27,11.3,7,0,11.11-3a9.41,9.41,0,0,0,4.12-8,9,9,0,0,0-3.87-7.74q-3.87-2.76-13.32-5a120,120,0,0,1-14.37-4.18,32.61,32.61,0,0,1-8.72-5q-7.62-5.77-7.62-17.69t8.66-18.36q8.65-6.44,21.43-6.44a51.33,51.33,0,0,1,16.33,2.7,42.75,42.75,0,0,1,14,7.61l-7.74,10.93A29.43,29.43,0,0,0,472.76,196a39.85,39.85,0,0,0-12.83-2.21,19,19,0,0,0-10.38,2.58,8.62,8.62,0,0,0-4.05,7.8,9.06,9.06,0,0,0,4.05,8q4.05,2.76,17.26,6t19.89,9q6.69,5.78,6.69,17A22.54,22.54,0,0,1,484.92,262.35Z"/><path class="cls-3" d="M82.28,376.26q5.28,0,10.35-.19"/><path class="cls-4" d="M114,374.37c120.24-15,137.1-114.24,191.83-114.24,56.44,0,55.41,105.47,190.83,115.39"/><path class="cls-3" d="M507.37,376.09q5.05.17,10.35.17"/><rect class="cls-1" x="23.6" y="406.36" width="546.53" height="33.21"/><polygon class="cls-1" points="486.3 186.3 469.09 180.44 451.35 180.44 435.93 189.7 430.39 205.24 435.09 220.15 450.69 229.27 471.73 235.56 478.29 244.85 473.78 254.91 461.05 255.78 444.57 250.67 436.04 244.54 426.96 255.47 437.52 264.83 457.28 269.35 481.33 264.86 487.61 258.3 493.34 245.82 493.39 236.13 486.7 227.1 470.89 219.24 456.25 215.17 449.55 212.18 445.09 202.74 447.78 197.85 454.38 194.42 472.76 196.03 483.08 201.68 490.81 190.75 486.3 186.3"/></svg>