<svg id="Layer_1" data-name="Layer 1" xmlns="http://www.w3.org/2000/svg" viewBox="0 0 600 600"><defs><style>.cls-1{fill:#e0e0df;}.cls-2,.cls-3{fill:none;stroke:#e0e0df;stroke-miterlimit:10;stroke-width:34.03px;}.cls-3{stroke-dasharray:17.63 17.63;}</style></defs><rect class="cls-1" x="99.65" y="490.92" width="400.7" height="21.63"/><path class="cls-1" d="M214.44,114.72c27.43-19.45,58-28.56,91.62-27.12,40.44,1.72,74.57,17.62,102.14,47,24.68,26.29,38.16,57.82,39.32,93.9.9,28.17.24,51.82.38,80,0,3.62-1.17,5.11-4.93,5.08-17.11-.12-34.22-.15-51.32,0-4.25,0-4.94-2-4.93-5.56.09-23.76.43-43-.05-66.71-.74-36.66-17.58-64.05-50.91-79.21-32.93-15-64.5-10.11-92.38,13.2-20.23,16.91-30,39.21-30.17,65.55q-.26,33.27,0,66.52c.05,4.61-1.43,6-6,5.91-16.47-.23-32.95-.2-49.42,0-4.2.05-5.9-1-5.86-5.57.19-24.86-.21-49.74.19-74.6.58-37.12,13.29-69.62,38.37-97.16C191.92,134.47,208.14,119.19,214.44,114.72Z"/><path class="cls-1" d="M211.9,324.36H153.22a1.23,1.23,0,0,0-1.22,1.23v64.68a1.22,1.22,0,0,0,1.22,1.22H211.9a1.23,1.23,0,0,0,1.23-1.22V325.59A1.24,1.24,0,0,0,211.9,324.36Zm-4.62,60.48h-9.86l-30.49-39.27v39.27h-9.09V331h9.09l31.26,40.19V331h9.09Z"/><path class="cls-1" d="M446.78,324.36H388.1a1.24,1.24,0,0,0-1.23,1.23v64.68a1.23,1.23,0,0,0,1.23,1.22h58.68a1.22,1.22,0,0,0,1.22-1.22V325.59A1.23,1.23,0,0,0,446.78,324.36ZM433,381.41q-5.31,4.39-13.93,4.39a32.75,32.75,0,0,1-22.41-8.7l5.7-6.85q8.16,7.08,16.94,7.08a11.64,11.64,0,0,0,7-1.88,5.91,5.91,0,0,0,2.57-5,5.6,5.6,0,0,0-2.42-4.85q-2.43-1.74-8.35-3.16a73.77,73.77,0,0,1-9-2.62,20.16,20.16,0,0,1-5.47-3.11q-4.77-3.63-4.77-11.09t5.42-11.51a21.85,21.85,0,0,1,13.44-4.05,32.19,32.19,0,0,1,10.24,1.7,26.79,26.79,0,0,1,8.78,4.77l-4.85,6.85a18.56,18.56,0,0,0-6.47-3.54,25,25,0,0,0-8.05-1.38,12,12,0,0,0-6.5,1.61,5.4,5.4,0,0,0-2.54,4.89,5.68,5.68,0,0,0,2.54,5q2.54,1.73,10.82,3.73t12.47,5.62q4.2,3.63,4.2,10.67A14.1,14.1,0,0,1,433,381.41Z"/><path class="cls-2" d="M121,484.52c2.9,0,5.73-.06,8.51-.16"/><path class="cls-3" d="M147.06,483C245.93,470.6,259.8,389,304.8,389c46.4,0,45.55,86.72,156.91,94.87"/><path class="cls-2" d="M470.51,484.37q4.15.15,8.51.15"/></svg>