<svg id="Layer_1" data-name="Layer 1" xmlns="http://www.w3.org/2000/svg" viewBox="0 0 600 600"><defs><style>.cls-1{fill:#e0e0df;}</style></defs><polygon class="cls-1" points="236.76 47.49 209.21 103.71 181.66 47.49 160.92 47.49 199.91 127.03 199.91 157.81 218.51 157.81 218.51 127.04 257.5 47.49 236.76 47.49"/><polygon class="cls-1" points="123.69 312.98 46.72 312.98 46.72 331.67 96.33 331.67 41.79 411.3 41.79 423.29 123.69 423.29 123.69 404.61 69.02 404.61 123.69 324.68 123.69 312.98"/><polygon class="cls-1" points="567.89 312.98 544.52 312.98 516.78 351.79 489.05 312.98 465.68 312.98 505.1 368.13 465.67 423.29 489.05 423.29 516.78 384.49 544.52 423.29 567.89 423.29 528.47 368.13 567.89 312.98"/><rect class="cls-1" x="290.02" y="48.25" width="27.35" height="181.74"/><polygon class="cls-1" points="25.34 532.47 41.13 554.94 202.04 455.65 186.24 433.18 25.34 532.47"/><polygon class="cls-1" points="417.4 425.37 401.6 447.86 569.6 547.16 585.4 524.67 417.4 425.37"/><path class="cls-1" d="M303.69,243.6c-65.71,0-119.17,53.9-119.17,120.14S238,483.89,303.69,483.89,422.87,430,422.87,363.74,369.41,243.6,303.69,243.6ZM234,401.74a80,80,0,0,1-9.54-38c0-44.06,35.54-79.92,79.22-79.92a78.29,78.29,0,0,1,37.7,9.64Zm133.64-85.09a79.93,79.93,0,0,1,15.27,47.09c0,44.07-35.54,79.92-79.23,79.92A78.32,78.32,0,0,1,257,428.24Z"/></svg>