<svg id="Layer_1" data-name="Layer 1" xmlns="http://www.w3.org/2000/svg" viewBox="0 0 600 600"><defs><style>.cls-1{fill:#e0e0df;}</style></defs><path class="cls-1" d="M271,313.87a7,7,0,0,0,4.44-6.39V258.91c0-3.83-1.48-5.11-5.92-5.11H219.1c-4.44-.64-5.18,1.28-5.18,4.47v48.57c-.74,3.2,1.48,5.75,4.44,7A63,63,0,0,0,271,313.87Z"/><path class="cls-1" d="M286.5,327.29a11.79,11.79,0,0,0-6.66,0,93.73,93.73,0,0,1-56.29,6.39c17,14.7,32.59,29.4,50.36,44.1,6.67,3.19,15.55,2.55,21.48-1.92,10.37-9.59,21.48-19.17,32.59-28.76,4.44-3.83,9.62-8.31,14.07-12.78C323.53,337.52,303.54,335.6,286.5,327.29Z"/><path class="cls-1" d="M346.93,253.8H296.56c-4.44-.64-5.18,1.28-5.18,4.47v48.57c-.74,3.2,1.48,5.75,4.44,7a63,63,0,0,0,52.59,0,7,7,0,0,0,4.44-6.39V258.91C352.85,255.08,351.37,253.8,346.93,253.8Z"/><rect class="cls-1" x="341.48" y="397.32" width="171.52" height="33.21"/><path class="cls-1" d="M87,150.61v33.74c0,4.39,3.84,8,8.58,8h26.13v38.59c0,4.4,3.84,8,8.58,8h306c4.74,0,8.59-3.56,8.59-8V192.3H471c4.74,0,8.59-3.56,8.59-8V150.61Z"/><path class="cls-1" d="M322,449.39H244.58V416.18h0a64.59,64.59,0,0,1,77.46,0h0Z"/></svg>