<svg id="Layer_1" data-name="Layer 1" xmlns="http://www.w3.org/2000/svg" viewBox="0 0 600 600"><defs><style>.cls-1{fill:#fff;}.cls-2{fill:#eb2127;}.cls-3{fill:#293576;}</style></defs><ellipse class="cls-1" cx="300" cy="300" rx="273.44" ry="270.39"/><path class="cls-2" d="M363,36.84a278.24,278.24,0,0,0-127.31.3V244.62H32.32A269.34,269.34,0,0,0,32.22,355H235.73V562.86a278.24,278.24,0,0,0,127.31.3V355H567.78a269.34,269.34,0,0,0-.1-110.33H363Z"/><path class="cls-2" d="M120.12,205.68,57.6,173.38a271.59,271.59,0,0,0-14.33,32.3Z"/><path class="cls-2" d="M188.57,397.62v-7.46H118.3L55.6,422.72a273.57,273.57,0,0,0,19.86,33.33Z"/><path class="cls-3" d="M188.23,549.61V418L86.71,471.08A274.28,274.28,0,0,0,188.23,549.61Z"/><path class="cls-3" d="M400.44,418V554.4a274.18,274.18,0,0,0,109.48-79.2Z"/><path class="cls-2" d="M553.26,390.17H468.54L541.69,428a272.8,272.8,0,0,0,15.75-35.62Z"/><path class="cls-2" d="M400.74,199.65v6.22h72.67l67.47-35.37a275.52,275.52,0,0,0-20.65-32.57Z"/><path class="cls-3" d="M400.44,45.6V178.74L508,122.51A274.16,274.16,0,0,0,400.44,45.6Z"/><path class="cls-3" d="M188.23,178.77V50.39a274.21,274.21,0,0,0-99.69,76.26Z"/></svg>