<?xml version="1.0" encoding="UTF-8"?>
<svg id="Layer_1" data-name="Layer 1" xmlns="http://www.w3.org/2000/svg" viewBox="0 0 600 600">
  <defs>
    <style>
      .cls-1 {
        fill: #e0e0df;
      }
    </style>
  </defs>
  <path class="cls-1" d="M262.05,359.51c24.92-.22,49.84-.39,74.75.08,6.74.13,7.67-2.12,7.62-8.1-.27-39.15-.14-78.3-.14-117.45s-.15-78.3.15-117.45c.05-6.13-1.71-7.53-7.6-7.46-24.92.33-49.84.26-74.76.04-4.82-.04-6.47,1.05-6.46,6.24.17,79.32.17,158.64,0,237.96-.01,5.22,1.66,6.19,6.43,6.14Z"/>
  <path class="cls-1" d="M25.76,305.62c0,151.74,121.71,274.29,272.57,274.46,153.03.16,275.86-121.9,275.96-274.24.1-150.26-122.4-272.56-271.02-274.63C150.35,29.08,22.95,157.2,25.76,305.62ZM302.62,85.85c119.03,1.66,217.13,99.61,217.06,219.95-.08,122-98.45,219.76-221.01,219.63-120.82-.13-218.3-98.28-218.3-219.81-2.25-118.87,99.78-221.47,222.25-219.77Z"/>
  <path class="cls-1" d="M298.87,491.03c25.31.35,47.33-15.12,53.13-37.32,6.98-26.7-8.46-53.2-35.55-61.01-29.23-8.42-60.25,6.81-68.5,33.64-9.98,32.46,14.99,64.19,50.91,64.68Z"/>
</svg>