<?xml version="1.0" encoding="UTF-8" standalone="no"?>
<!-- Created with Inkscape (http://www.inkscape.org/) -->

<svg
   width="138.39391mm"
   height="138.47105mm"
   viewBox="0 0 138.39391 138.47105"
   version="1.1"
   id="svg1"
   inkscape:version="1.4 (86a8ad7, 2024-10-11)"
   sodipodi:docname="error.svg"
   xml:space="preserve"
   xmlns:inkscape="http://www.inkscape.org/namespaces/inkscape"
   xmlns:sodipodi="http://sodipodi.sourceforge.net/DTD/sodipodi-0.dtd"
   xmlns="http://www.w3.org/2000/svg"
   xmlns:svg="http://www.w3.org/2000/svg"><sodipodi:namedview
     id="namedview1"
     pagecolor="#ffffff"
     bordercolor="#000000"
     borderopacity="0.25"
     inkscape:showpageshadow="2"
     inkscape:pageopacity="0.0"
     inkscape:pagecheckerboard="0"
     inkscape:deskcolor="#d1d1d1"
     inkscape:document-units="mm"
     inkscape:zoom="0.7349537"
     inkscape:cx="442.88504"
     inkscape:cy="298.65827"
     inkscape:window-width="1920"
     inkscape:window-height="1027"
     inkscape:window-x="1912"
     inkscape:window-y="22"
     inkscape:window-maximized="1"
     inkscape:current-layer="svg1"><inkscape:page
       x="0"
       y="0"
       width="138.39391"
       height="138.47105"
       id="page3"
       margin="0"
       bleed="0" /></sodipodi:namedview><defs
     id="defs1"><style
       id="style1">.cls-1{fill:#e0e0df;}</style></defs><path
     class="cls-1"
     d="M 0.01151603,69.234831 C -0.69756397,31.791001 31.441375,-0.53050014 70.020265,0.00659946 107.51438,0.53576946 138.41771,31.383541 138.3939,69.290391 138.3701,107.71848 107.38209,138.51333 68.776725,138.471 30.716415,138.4313 0.01151603,107.5121 0.01151603,69.234831 Z M 83.148895,46.687041 c 0,-12.33223 -0.0476,-24.66711 0.0476,-36.9993416 0.0159,-1.92881 -0.52916,-2.38125 -2.38125,-2.34685 -7.84754,0.10319 -15.69773,0.0794 -23.54791,0 -1.51607,-0.0132 -2.03729,0.33073 -2.03465,1.96585 q 0.082,37.4782316 0,74.9564616 c 0,1.64306 0.52917,1.94734 2.02406,1.93411 7.84755,-0.0688 15.70038,-0.12171 23.54792,0.0265 2.11667,0.0397 2.413,-0.66675 2.39977,-2.55059 -0.0979,-12.32164 -0.0556,-24.65387 -0.0556,-36.9861 z m -14.30867,80.962499 c 7.9719,0.10848 14.90927,-4.7625 16.73754,-11.75544 2.19605,-8.4111 -2.667,-16.758707 -11.19716,-19.216687 -9.2075,-2.64583 -18.97857,2.14577 -21.57677,10.596567 -3.1459,10.21291 4.72281,20.20887 16.03639,20.36233 z"
     id="path1"
     style="stroke-width:0.264583" /></svg>
