<?xml version="1.0" encoding="UTF-8"?>
<svg id="Layer_1" data-name="Layer 1" xmlns="http://www.w3.org/2000/svg" viewBox="0 0 600 600">
  <defs>
    <style>
      .cls-1 {
        fill: #e0e0df;
      }
    </style>
  </defs>
  <path class="cls-1" d="M205.02,529.25l-134.28-134.29v-189.93S205.02,70.75,205.02,70.75h189.95s134.25,134.26,134.25,134.26l.04,183.72-.04.53c-.29,4.14-1.91,7.7-4.82,10.57l-129.47,129.41h-189.92ZM101.17,382.36l116.46,116.46h164.72s116.49-116.45,116.49-116.45l-.04-164.76-116.43-116.43h-164.74s-116.46,116.46-116.46,116.46v164.73Z"/>
  <path class="cls-1" d="M258.88,418c0-21.85,17.13-38.12,41.12-38.12s41.12,16.28,41.12,38.12-17.13,38.98-41.12,38.98-41.12-17.56-41.12-38.98ZM253.19,153.7h93.61l-20.25,195.76h-53.12l-20.25-195.76Z"/>
</svg>