<?xml version="1.0" encoding="UTF-8"?>
<svg id="Layer_1" data-name="Layer 1" xmlns="http://www.w3.org/2000/svg" viewBox="0 0 600 600">
  <defs>
    <style>
      .cls-1 {
        fill: #e0e0df;
      }
    </style>
  </defs>
  <path class="cls-1" d="M561.65,191.57L408.4,38.32h-216.82S38.3,191.6,38.3,191.6v216.8l153.28,153.28h216.79s144.62-144.57,144.62-144.57c5.14-5.08,8.13-11.61,8.63-18.89l.07-.98-.04-205.68ZM214.84,505.55l-120.4-120.4v-170.3s120.4-120.4,120.4-120.4h170.31s120.37,120.37,120.37,120.37l.04,170.33-120.43,120.38h-170.29Z"/>
  <path class="cls-1" d="M255.12,428.8c0-23.84,18.7-41.61,44.88-41.61s44.88,17.77,44.88,41.61-18.7,42.55-44.88,42.55-44.88-19.17-44.88-42.55ZM248.91,140.32h102.18l-22.1,213.67h-57.98l-22.1-213.67Z"/>
</svg>