<svg id="Layer_1" data-name="Layer 1" xmlns="http://www.w3.org/2000/svg" viewBox="0 0 600 600"><defs><style>.cls-1{fill:#e0e0df;}</style></defs><rect class="cls-1" x="285.88" y="19.98" width="40.93" height="127.2"/><path class="cls-1" d="M420.07,311.83V174.17H169.58V311.83l125.25,82.63Zm-82.39-82.58h62.63v68.82l-62.63,41.32Z"/><path class="cls-1" d="M171.76,580H479.29c10.74,0,19.48-8.13,19.61-18.23.13-10.28-8.68-18.68-19.61-18.68H169.76a19.23,19.23,0,0,1-14.57-6.53h0A25.24,25.24,0,0,1,155.4,503h0a18.55,18.55,0,0,1,13.9-6.13H274.56c21.84,0,39.55-16.67,39.55-37.22V424.8c0-10.28-8.85-18.61-19.78-18.61s-19.77,8.33-19.77,18.61v26.73a8.78,8.78,0,0,1-9,8.5h-93.6a78.42,78.42,0,0,0-53.46,20.72,53.12,53.12,0,0,0,.11,78.66A78.05,78.05,0,0,0,171.76,580Z"/></svg>