<svg id="Layer_1" data-name="Layer 1" xmlns="http://www.w3.org/2000/svg" viewBox="0 0 600 600"><defs><style>.cls-1{fill:#e0e0df;}</style></defs><path class="cls-1" d="M224.76,38.32v91.12l80.61,54.71L386,129.44V38.32Zm148.5,82L333,147.69V74.78h40.31Z"/><polygon class="cls-1" points="408.69 395.48 408.69 504.5 202.04 504.5 202.04 395.48 144 395.48 144 561.68 466.73 561.68 466.73 395.48 408.69 395.48"/><path class="cls-1" d="M173.54,338a14.3,14.3,0,1,0,14.29,14.29A14.29,14.29,0,0,0,173.54,338Z"/><path class="cls-1" d="M173.45,281.16a14.3,14.3,0,1,0,14.29,14.29A14.29,14.29,0,0,0,173.45,281.16Z"/><path class="cls-1" d="M173.35,224.39a14.3,14.3,0,1,0,14.3,14.3A14.29,14.29,0,0,0,173.35,224.39Z"/><path class="cls-1" d="M239.06,224.42a14.3,14.3,0,1,0,14.29,14.29A14.29,14.29,0,0,0,239.06,224.42Z"/><path class="cls-1" d="M305.37,223.32a14.3,14.3,0,1,0,14.29,14.29A14.29,14.29,0,0,0,305.37,223.32Z"/><path class="cls-1" d="M368.12,223.34a14.3,14.3,0,1,0,14.29,14.3A14.3,14.3,0,0,0,368.12,223.34Z"/><path class="cls-1" d="M436.64,223.37a14.3,14.3,0,1,0,14.3,14.29A14.29,14.29,0,0,0,436.64,223.37Z"/><path class="cls-1" d="M436.55,281.18a14.3,14.3,0,1,0,14.29,14.3A14.3,14.3,0,0,0,436.55,281.18Z"/><path class="cls-1" d="M436.55,338.33a14.3,14.3,0,1,0,14.29,14.3A14.3,14.3,0,0,0,436.55,338.33Z"/></svg>