<svg id="Layer_1" data-name="Layer 1" xmlns="http://www.w3.org/2000/svg" viewBox="0 0 600 600"><defs><style>.cls-1{fill:#e0e0df;}</style></defs><path class="cls-1" d="M455.22,84.47C356.34,22,226.17,37.86,144.62,121.89a273,273,0,0,0-42.5,57c-4.1-10.57-6.93-17.46-9.46-24.46C77.4,112,77.54,112.32,35.08,129c-10.26,4-12.5,8.26-8.48,18.78,16.94,44.3,34.14,88.57,48.77,133.64,6,18.34,12.68,19.2,28.9,12.66,34.49-13.92,69.87-25.68,104.94-38.15,44.23-15.73,43.81-15.49,26.44-59-4.23-10.58-8.78-10.79-17.89-7.18-17.13,6.79-34.69,12.54-56,20.11C223.47,90.72,392.74,79.36,469.9,185.05c55.42,75.92,41.69,175.7-23.8,240V414.54c0-1.09,0-2.18,0-3.27-.41-7.17-5.35-10-11.63-6.61-7.84,4.28-15.56,8.77-23.36,13.11-1.15.64-2.17,2-4,1.06-.09-1.78-.23-3.59-.27-5.39q-.84-40.6-1.66-81.19c-.43-21.43-.8-42.87-1.25-64.3-.15-7.35-2.68-9.83-9.92-9.87-8.05,0-16.11,0-24.16,0-9.83,0-11.68,1.9-11.86,11.79q-1.29,67.58-2.57,135.14c-.06,3.62-1,5.8-4.47,7.66-13.14,7.11-26.05,14.65-39.08,21.95-1.16.65-2.23,2.06-4.2,1.09V341.62c0-16,0-16-16.23-16-9,0-11.17,2.24-11.18,11.36,0,19.62-1.12,39.32.38,58.83,1.05,13.65-3.35,21.28-15.77,26.43-9.13,3.78-17.44,9.53-26.94,14.87,0-8.71.08-16.46,0-24.2-.12-9.19-5.15-12-13.2-7.46-21.27,12-42.45,24.15-63.84,35.93-5.2,2.87-7.05,6.6-7,12.28.16,29.43.07,58.87.08,88.3,0,9.37,2.24,11.6,11.55,11.6q107,0,214.08,0h55c9.67,0,11.51-1.82,11.51-11.48v-31c12.79-9.69,27.71-21.25,45.16-35C620.57,374.5,594.43,172.42,455.22,84.47ZM204.39,515.63c0,2-.47,3.18-2.73,3a9.91,9.91,0,0,0-1.09,0c-4.92-.11-11.56,1.67-14.32-.81-3.52-3.15-.59-9.91-1.18-14.22v-1.41c0-15.71,0-15.65,16.2-14.65,2.34.15,3.17.72,3.14,3.1C204.29,498.93,204.33,507.28,204.39,515.63ZM257,503.26v1.08c0,16,0,15.94-16.43,14.31-2.46-.25-3-1.2-3-3.37.07-8.13.11-16.27,0-24.4,0-2.62.86-3.58,3.47-3.35,5.2.46,12.18-2.23,15.13,1.08,2.51,2.84.52,9.61.52,14.65Zm49.77,15.32a3.37,3.37,0,0,0-.55,0c-16.05.84-16.05.84-16.05-15.33v-1.08c0-16.21,0-16.16,16.72-14.68,2.11.19,2.83.74,2.81,2.83q-.12,12.78,0,25.55C309.74,518.1,308.8,518.78,306.78,518.58Zm55.6-3c0,2-.44,3.19-2.71,3-.36,0-.73,0-1.09,0-5.08-.3-11.67,2.14-14.82-1s-.54-9.63-1-13.79v-1.4c0-16,0-15.95,16.48-14.94,2.35.14,3.16.72,3.12,3.1C362.27,498.94,362.31,507.29,362.38,515.63Z"/></svg>