<?xml version="1.0" encoding="UTF-8"?>
<svg id="Camada_2" data-name="Camada 2" xmlns="http://www.w3.org/2000/svg" viewBox="0 0 469.76 469.83">
  <defs>
    <style>
      .cls-1 {
        fill: #e0e0df;
      }
    </style>
  </defs>
  <g id="Layer_1" data-name="Layer 1">
    <path class="cls-1" d="M414.92,85.39c-36.35-3.67-69.84,1.4-101.62,16.29-27.13,12.71-48.58,31.64-63.86,57.66-4.91,8.36-4.96,14.08,2.72,21.22,16.41,15.25,15.81,15.32,35.9,7.43,61.58-24.19,115.05-7.04,165.65,30.88,18.34,13.74,17.22,29.49,14.51,48.03-8.8,60.25-36.4,109.9-82.8,149.18-.94.8-2.16,1.3-3.3,1.81-.3.13-.81-.22-1.88-.55,3.65-34.86.19-69.01-14.43-101.4-12.9-28.55-32.56-51.16-59.99-66.83-6.17-3.52-9.75-2.72-15.66,2.05-15.45,12.5-17.1,23.27-9.1,43.17,22.69,56.39,3.75,106.89-30.32,153.56-12.98,17.78-27.4,24.97-50.72,20.78-57.13-10.26-104.72-35.91-143.21-79.01-.81-.9-1.18-2.19-2.53-4.79,25.57,2.54,49.85.43,73.55-6.14,39.25-10.89,70.7-32.36,92.09-67.88,5.3-8.8,4.49-14.44-2.62-21.42-16.17-15.87-15.79-15.89-37.12-7.37-58.52,23.4-109.84,7.1-159.3-26.86C-1.86,239.59-2.03,220.7,2,197.5c10.01-57.62,36.91-105.22,81.27-143.12,1.17-1,2.53-1.77,5.1-3.55,1.36,21.93-1.24,42.3,2.77,62.45,9.01,45.19,30.37,81.82,70.47,106.41,7.42,4.55,12.22,5,18.83-1.94,16.48-17.28,16.33-16.68,8.08-39.33-20.75-56.93-5.33-107.25,28.62-154.34,13.61-18.88,28.34-27.61,53.67-22.76,56.49,10.81,103.62,36.28,141.97,78.69.78.86.93,2.27,2.14,5.39ZM234.48,264.27c6.39.18,29.07-22.17,29.43-29,.36-6.83-21.3-29.13-28.67-29.52-6.25-.33-29.36,22.2-29.56,28.82-.2,6.73,21.88,29.51,28.8,29.71Z"/>
  </g>
</svg>