<svg id="Layer_1" data-name="Layer 1" xmlns="http://www.w3.org/2000/svg" viewBox="0 0 600 600"><defs><style>.cls-1{fill:#e0e0df;}</style></defs><path class="cls-1" d="M406.86,211.25c-21.57-2.18-41.45.83-60.31,9.67a84.15,84.15,0,0,0-37.91,34.22c-2.91,5-2.94,8.36,1.62,12.6,9.74,9.05,9.39,9.09,21.31,4.41,36.55-14.36,68.29-4.18,98.32,18.32,10.89,8.16,10.22,17.5,8.62,28.51q-7.85,53.64-49.15,88.55a8.08,8.08,0,0,1-2,1.07c-.18.08-.48-.13-1.11-.32,2.16-20.69.11-41-8.57-60.19-7.65-16.94-19.32-30.36-35.61-39.66-3.66-2.09-5.79-1.62-9.29,1.22-9.17,7.41-10.15,13.81-5.4,25.62,13.46,33.47,2.22,63.44-18,91.14-7.7,10.55-16.26,14.82-30.1,12.34-33.92-6.09-62.16-21.32-85-46.9a17.63,17.63,0,0,1-1.5-2.84,117.92,117.92,0,0,0,43.66-3.65c23.3-6.46,42-19.2,54.65-40.29,3.15-5.22,2.67-8.57-1.55-12.71-9.6-9.42-9.38-9.44-22-4.37C232.8,341.88,202.34,332.2,173,312c-13.49-9.26-13.6-20.48-11.21-34.25,5.95-34.2,21.91-62.46,48.24-85,.69-.59,1.5-1.05,3-2.11.81,13-.73,25.11,1.65,37.07,5.35,26.82,18,48.56,41.83,63.16,4.41,2.7,7.26,3,11.18-1.15,9.78-10.26,9.69-9.9,4.79-23.35-12.31-33.78-3.16-63.65,17-91.6,8.08-11.21,16.82-16.39,31.86-13.51,33.53,6.41,61.5,21.53,84.26,46.7C406.05,208.56,406.15,209.4,406.86,211.25ZM299.76,317.42c3.8.11,17.26-13.16,17.47-17.21s-12.64-17.29-17-17.53c-3.71-.19-17.43,13.18-17.54,17.11S295.66,317.3,299.76,317.42Z"/></svg>