<svg id="Layer_1" data-name="Layer 1" xmlns="http://www.w3.org/2000/svg" viewBox="0 0 600 600"><defs><style>.cls-1{fill:#e0e0df;}</style></defs><path class="cls-1" d="M409.55,484.33h0L386,460.41q-19.58-19.89-39.19-39.75c-.14-.15-.29-.29-.44-.44l-.87-.88-.86-.88-.42-.45c-2.92-3.1-5.21-6.37-4.24-10.74a13,13,0,0,1,1.28-3.32l-20.42-20.13q-6.89,4.68-13.92,8.57-3.51,2-7.06,3.68C277.61,407,254.34,411.77,230,409.21a130.75,130.75,0,0,1-18.39-3.29c-3.3-.83-6.63-1.78-10-2.89a128.34,128.34,0,0,1-18.13-7.52c-1-.49-1.92-1-2.87-1.51-1.25-.67-2.48-1.37-3.7-2.08a123.49,123.49,0,0,1-17.82-12.66l-.6-.52c-22.24-19.25-36.91-46-41.75-76.54-.26-1.58-.48-3.18-.68-4.79-.36-2.93-.64-5.89-.82-8.88a151.13,151.13,0,0,1,.44-23.44c5.27-54.89,53.22-102.88,109.87-109.6,19.94-2.36,38.38-1.1,55.14,3.74,1.4.4,2.79.83,4.16,1.28a113,113,0,0,1,12.05,4.76,110.28,110.28,0,0,1,11.39,6.09q3.69,2.25,7.23,4.8c1.18.85,2.35,1.73,3.51,2.62a126.62,126.62,0,0,1,16.37,15.35,145.1,145.1,0,0,1,10.05,12.61c1.48,2.09,2.95,4.21,4.36,6.42q4,6.27,7.29,12.59c.72,1.4,1.42,2.81,2.08,4.21q2,4.23,3.67,8.47c.55,1.41,1.08,2.83,1.58,4.24A120.14,120.14,0,0,1,369,259.74a113.57,113.57,0,0,1,2.06,21.47c0,23-7,46.08-20.61,69-1.55,2.59-3.17,5.15-4.76,7.72l20.52,20.92h0c3.26-1.81,6.05-2,8.61-1.09.32.11.64.23.95.37a22.26,22.26,0,0,1,6.24,4.7q3.27,3.26,6.59,6.47l.29.28c4.25,4.12,8.55,8.2,12.84,12.27l.63.61,6.41,6.11q.21-132.45.54-264.91c0-6.25-2.38-10.38-6.61-14.57Q363.5,90.29,324.73,51c-4.92-5-9.85-7.09-16.91-7.06-70.12.26-140.25.16-210.38.2-16.07,0-17.62,1.6-17.62,18.07q0,219.47,0,438.94c0,17,1.44,18.45,18.57,18.45q139,0,277.91,0c34.78,0,33,4,32.9-31.4C409.19,486.91,409.43,485.62,409.55,484.33ZM129.46,99.06q51.09.06,102.18,0c6.69,0,12.33,1.56,12,9.84-.3,8-6.21,8-12.09,8q-25.22,0-50.44,0c-12.93,0-25.87-.09-38.8,0q-6.47,0-12.93.11c-6.37.09-11.91-1.45-12.25-8.3C116.77,101,122.68,99.05,129.46,99.06ZM117,437.17c.31-5.23,3.54-8.59,9.36-8.56,7.76.05,15.53,0,23.3,0,7.33,0,14.67,0,22,0,5.28,0,8,3.47,8.52,8,.53,4.9-2.7,8.81-7.39,9q-23.9.8-47.82.19A8,8,0,0,1,117,437.17Zm167.81,45.72q-38.91,0-77.81,0-28.22,0-56.41,0l-18.81.05c-6.86,0-14.38-.39-14.62-8.81s7-9.14,14-9.12q77.16.21,154.31.06c6.25,0,13.05-.36,13.07,8.39C298.6,482.61,291.6,482.9,284.79,482.89Z"/><path class="cls-1" d="M408.67,407.21c6.43,6.8,12.83,13.62,19.28,20.4,4,4.24,8.09,8.44,12.22,12.59q12.76,12.82,25.61,25.57c8.48,8.42,17,16.77,25.48,25.23q10.42,10.46,20.65,21.1A28.09,28.09,0,0,1,520,529a3,3,0,0,0,.21.62v4.22c-.12.6-.26,1.19-.37,1.8-1.86,9.86-7.75,16.21-17.05,19.6l-2.13.81H488.43a1.61,1.61,0,0,0-.36-.24,26,26,0,0,1-9.64-5.34c-3.79-3.35-7.46-6.85-11.07-10.41q-19.83-19.51-39.57-39.1l-19.12-18.89Z"/><path class="cls-1" d="M245.19,190.06c-50-.34-92.08,41.13-92.43,91.07s41,92,91,92.55c49.77.52,91.68-40.75,92.53-91.12C337.14,233.18,295,190.41,245.19,190.06Zm11.54,95.39L291,319.67a5.42,5.42,0,0,1,0,7.67l-3.7,3.7a5.42,5.42,0,0,1-7.67,0l-34.22-34.22a1,1,0,0,0-1.37,0L209.77,331a5.41,5.41,0,0,1-7.66,0l-3.71-3.7a5.44,5.44,0,0,1,0-7.67l34.23-34.22a1,1,0,0,0,0-1.37L198.4,249.86a5.44,5.44,0,0,1,0-7.67l3.71-3.7a5.41,5.41,0,0,1,7.66,0L244,272.71a1,1,0,0,0,1.37,0l34.22-34.22a5.42,5.42,0,0,1,7.67,0l3.7,3.7a5.42,5.42,0,0,1,0,7.67l-34.22,34.22A1,1,0,0,0,256.73,285.45Z"/></svg>