<svg id="Layer_1" data-name="Layer 1" xmlns="http://www.w3.org/2000/svg" viewBox="0 0 600 600"><defs><style>.cls-1{fill:#e0e0df;}</style></defs><path class="cls-1" d="M339.63,64.3c0,11.9,0,22.65,0,33.4,0,15.48-.4,31,.14,46.45,1.33,38,28.46,64.07,66.56,64.23,25.07.11,50.15,0,76.81,0v34.53q0,122.54,0,245.07c0,33.45-14.49,47.69-48.27,47.7q-135.94,0-271.9,0c-30.64,0-46-14.94-46-45.23q-.14-190.47,0-381c0-30.3,15.38-45.17,46.08-45.19q81.92,0,163.84,0ZM300,365.91c-29,0-58.05.1-87.08-.06-9,0-16.81,1.37-16.68,12.61.13,10.8,7.68,13.1,16.71,13.09H387.11c9,0,16.56-2.32,16.68-13.12.12-11.27-7.72-12.61-16.72-12.57C358.05,366,329,365.91,300,365.91Zm-1.06,77.31c29.8,0,59.6-.1,89.4.06,8.94.05,15.58-2.36,15.48-12.65-.1-10.13-7.06-13-15.65-13q-88.25-.11-176.48,0c-8.66,0-15.47,3.08-15.47,13.17,0,10.34,6.78,12.53,15.65,12.48C240.88,443.12,269.91,443.22,298.93,443.22ZM247.79,338.64q19.14,0,38.28,0c7.74,0,12.58-3.37,13.15-11.43.62-8.64-4.4-13.7-12.19-13.86q-39.42-.8-78.85,0c-7.82.17-12.69,5.45-12,14,.66,8.08,5.63,11.3,13.33,11.26C222.28,338.6,235,338.64,247.79,338.64Z"/><path class="cls-1" d="M375.42,80.18l92.08,91.4c-24.27-1.26-46-.94-67.26-4-13.31-1.94-23-13.38-24.32-26.59C374,120.89,375.42,100.51,375.42,80.18Z"/></svg>