<?xml version="1.0" encoding="UTF-8" standalone="no"?>
<svg
   id="Layer_1"
   data-name="Layer 1"
   viewBox="0 0 60 60"
   version="1.1"
   sodipodi:docname="back_folder.svg"
   inkscape:export-filename="\\wsl.localhost\Debian\home\bugo\github\Blocks_Screen\BlocksScreen\lib\ui\resources\media\btn_icons\folder_icon.svg"
   inkscape:export-xdpi="9.6000004"
   inkscape:export-ydpi="9.6000004"
   inkscape:version="1.4 (86a8ad7, 2024-10-11)"
   width="60"
   height="60"
   xmlns:inkscape="http://www.inkscape.org/namespaces/inkscape"
   xmlns:sodipodi="http://sodipodi.sourceforge.net/DTD/sodipodi-0.dtd"
   xmlns="http://www.w3.org/2000/svg"
   xmlns:svg="http://www.w3.org/2000/svg">
  <sodipodi:namedview
     id="namedview3"
     pagecolor="#ffffff"
     bordercolor="#000000"
     borderopacity="0.25"
     inkscape:showpageshadow="2"
     inkscape:pageopacity="0.0"
     inkscape:pagecheckerboard="0"
     inkscape:deskcolor="#d1d1d1"
     inkscape:zoom="11.002582"
     inkscape:cx="-4.5443881"
     inkscape:cy="42.580916"
     inkscape:window-width="3440"
     inkscape:window-height="1369"
     inkscape:window-x="1072"
     inkscape:window-y="-8"
     inkscape:window-maximized="1"
     inkscape:current-layer="Layer_1">
    <inkscape:page
       x="0"
       y="0"
       width="60"
       height="60"
       id="page2"
       margin="0"
       bleed="0" />
  </sodipodi:namedview>
  <defs
     id="defs1">
    <style
       id="style1">.cls-1{fill:#a4a4a5;}.cls-2{fill:#e0e0df;}</style>
  </defs>
  <path
     class="cls-2"
     d="M 60.036606,13.715689 C 59.160525,12.4764 58.027038,11.823261 56.744527,11.519021 a 10.677806,13.199547 0 0 0 -2.015213,-0.200966 q -19.699412,0.0084 -39.401082,0.02372 c -3.408363,0 -6.8178543,-0.02652 -10.2262163,-0.02093 -1.1199398,0 -2.2195568,0.188406 -3.2593388,0.74804 A 6.1788574,7.6380968 0 0 0 0.54887581,13.01789 c -0.107252,0.101879 -0.213375,0.252603 -0.369173,0.13956 -0.155798,-0.113044 -0.08354,-0.286098 -0.08354,-0.435426 0,-2.232954 0,-4.4533475 0,-6.6807185 a 0.96865697,1.1974214 0 0 1 0.123058,-0.601502 C 0.59516781,4.5801165 0.92144084,3.6841436 1.4260899,2.9179616 2.6555399,1.0520497 4.2575489,0.13793467 6.1903467,0.12676967 q 9.0351493,-0.01814 18.0725603,-0.01814 c 0.470781,0 0.941562,-0.02233 1.413472,-0.02652 a 2.0637587,2.5511495 0 0 1 1.555722,0.794094 c 1.205741,1.52538593 2.447609,3.01029993 3.623996,4.57057683 0.677383,0.891786 1.467662,1.1723 2.399063,1.095543 0.107252,-0.0084 0.213376,-0.01814 0.320628,-0.01814 5.457445,0 10.913761,-0.02233 16.370077,0 1.436051,0 2.873231,-0.07536 4.307024,0.06141 2.852909,0.272141 4.720227,2.14224 5.531957,5.5307475 0.09145,0.379602 0.172732,0.764787 0.240471,1.151367 0.02484,0.139559 0.103865,0.302844 0,0.452173 z"
     id="path3"
     style="stroke-width:0.125523"
     inkscape:export-filename="\\wsl.localhost\Debian\home\bugo\github\Blocks_Screen\BlocksScreen\lib\ui\resources\media\btn_icons\folder_icon.svg"
     inkscape:export-xdpi="96.000015"
     inkscape:export-ydpi="96.000015" />
  <path
     style="fill:#e0e0df;fill-opacity:1;stroke-width:0.0645361"
     d="m 5.3240047,60.027629 c -1.7328198,-0.3141 -3.1662758,-1.52113 -4.1689708,-3.51046 -0.33078809,-0.65627 -0.81085209,-1.90163 -0.93780809,-2.43281 -0.08439,-0.35309 -0.09315,-2.04629 -0.09315,-18.01286 0,-19.35724 -0.02597,-17.93507 0.345492,-18.92172 0.82287909,-2.185701 2.35302509,-3.355335 4.60393989,-3.519223 0.422388,-0.03075 12.1041223,-0.03817 25.9594093,-0.01648 23.968881,0.03752 25.212558,0.04568 25.626767,0.168226 0.932994,0.27602 1.526648,0.698449 2.2461,1.598257 0.381331,0.47694 0.528452,0.72701 0.741401,1.26024 0.487599,1.22093 0.452261,-0.4448 0.409151,19.28514 -0.02389,10.935 -0.05993,17.71929 -0.09567,18.00998 -0.108364,0.88147 -0.481917,2.01878 -0.964129,2.93541 -0.116067,0.22062 -0.447723,0.69342 -0.737024,1.05068 -0.777074,0.9596 -1.627862,1.56399 -2.789748,1.98182 l -0.464358,0.16699 -24.669028,0.01 c -13.675373,0.005 -24.8220403,-0.0182 -25.0123773,-0.0527 z m 36.9377463,-6.48452 c 0.120097,-0.0768 0.253307,-0.31805 0.485288,-0.87897 2.109536,-5.10084 2.136004,-11.09578 0.07191,-16.28685 -0.944758,-2.376 -2.330533,-4.48889 -4.095097,-6.24378 -1.635651,-1.62669 -3.615653,-2.87709 -5.543275,-3.50067 -0.454699,-0.1471 -1.409869,-0.39356 -1.525228,-0.39356 -0.199433,0 -0.0049,0.077 0.542452,0.21464 3.252083,0.81797 6.198594,2.92917 8.402422,6.02041 1.855544,2.60271 3.028471,5.67177 3.485499,9.12009 0.497472,3.75348 -0.07858,8.08793 -1.489344,11.20638 -0.291653,0.64469 -0.370069,0.71726 -0.746274,0.69071 -0.290565,-0.0205 -0.317772,-0.0385 -0.412569,-0.2731 -0.08167,-0.20211 -0.101505,-0.4417 -0.101578,-1.22732 -3.38e-4,-4.05597 -0.859552,-7.32086 -2.735953,-10.39667 -0.515743,-0.8454 -1.694965,-2.4396 -1.804568,-2.4396 -0.03362,0 0.236646,0.3794 0.60059,0.8431 0.634115,0.80793 1.423715,2.0348 1.867529,2.90174 0.676561,1.32159 1.257307,2.98636 1.573082,4.50939 0.284561,1.3725 0.389172,2.3961 0.421383,4.12317 0.02902,1.55591 0.06665,1.83336 0.272896,2.01194 0.155734,0.13484 0.519075,0.13432 0.730836,-9.8e-4 z m -12.964371,-12.47966 0.197352,-0.24396 -0.01291,-2.89523 -0.01291,-2.89524 -0.03062,2.87714 c -0.03361,3.1577 -0.01929,3.04064 -0.395653,3.23511 -0.169862,0.0878 -0.218716,0.0834 -0.443335,-0.0394 -0.13884,-0.0759 -0.860177,-0.62872 -1.602974,-1.22844 -0.742795,-0.59973 -1.392199,-1.10732 -1.44312,-1.12799 -0.10662,-0.0433 1.449409,1.26427 2.425497,2.03817 0.798907,0.63342 0.998402,0.67576 1.318678,0.27984 z m 7.368286,-2.04733 c -0.06742,-0.13484 -0.945432,-0.97353 -1.453523,-1.38843 -0.712392,-0.58171 -2.475122,-1.64358 -3.239324,-1.95137 -0.92114,-0.371 -0.894356,-0.30039 0.03927,0.10353 1.478319,0.63956 3.050476,1.70905 4.215837,2.86789 0.444646,0.44217 0.496404,0.48572 0.43774,0.36838 z m -11.551509,-0.64697 c -0.01874,-0.0375 -1.097735,-0.94632 -2.397772,-2.01966 -4.15544,-3.4308 -6.239505,-5.18819 -6.466749,-5.45309 -0.149798,-0.17463 -0.22129,-0.32032 -0.22129,-0.45098 0,-0.42755 -0.250812,-0.21325 5.212695,-4.45382 0.903618,-0.70136 1.631576,-1.28924 1.617684,-1.30642 -0.04827,-0.0597 -6.464801,4.93659 -6.729819,5.24021 -0.199877,0.22898 -0.2178,0.6502 -0.03958,0.93027 0.06546,0.10288 0.529095,0.53411 1.030295,0.95829 1.211545,1.02538 7.978674,6.62334 8.006659,6.62334 0.01207,0 0.0066,-0.0307 -0.01212,-0.0681 z m 5.831694,-3.06093 c -0.353169,-0.13691 -1.111817,-0.32791 -1.144075,-0.28803 -0.01431,0.0177 0.126236,0.07 0.312334,0.11627 0.186099,0.0463 0.468962,0.12686 0.628585,0.17913 0.385487,0.12623 0.533908,0.12085 0.203156,-0.007 z m 0.174135,-9.13625 c -0.04789,-0.0346 -0.409648,-0.0969 -0.803914,-0.13849 -0.394265,-0.0416 -0.752181,-0.11179 -0.795369,-0.15609 -0.06267,-0.0643 -0.08201,-0.59254 -0.09578,-2.61669 -0.01666,-2.44786 -0.02151,-2.54318 -0.139276,-2.73859 -0.162782,-0.27009 -0.37554,-0.35766 -0.648346,-0.26687 -0.119019,0.0396 -0.712679,0.45409 -1.319247,0.92107 -1.229305,0.94641 -1.160745,0.88952 -1.125175,0.93349 0.01432,0.0177 0.547611,-0.36848 1.18508,-0.85821 1.036837,-0.79654 1.187155,-0.89071 1.42575,-0.89323 0.313253,-0.003 0.451088,0.14024 0.488215,0.50848 0.04913,0.48728 0.08565,1.92952 0.08618,3.40346 3.39e-4,1.0948 0.02053,1.54475 0.0731,1.63343 0.05528,0.0933 0.245285,0.14566 0.798116,0.22009 0.936482,0.12608 0.981944,0.1286 0.870671,0.0482 z m -6.605798,-2.70509 c 1.155983,-0.88863 1.406434,-1.10038 1.189476,-1.00571 -0.145419,0.0635 -2.428331,1.83286 -2.535812,1.96542 -0.07734,0.0954 -0.07283,0.0984 0.04033,0.0268 0.07007,-0.0443 0.657771,-0.48824 1.306006,-0.98655 z"
     id="path7"
     inkscape:export-filename="\\wsl.localhost\Debian\home\bugo\github\Blocks_Screen\BlocksScreen\lib\ui\resources\media\btn_icons\folder_icon.svg"
     inkscape:export-xdpi="10.83812"
     inkscape:export-ydpi="10.83812"
     inkscape:transform-center-x="2.9992961"
     inkscape:transform-center-y="11.270082" />
  <rect
     style="fill:#e0e0df;fill-opacity:1"
     id="rect8"
     width="35.718891"
     height="37.445759"
     x="12.906063"
     y="18.450216" />
</svg>
