<svg id="Layer_1" data-name="Layer 1" xmlns="http://www.w3.org/2000/svg" viewBox="0 0 600 600"><defs><style>.cls-1{fill:#e0e0df;}</style></defs><path class="cls-1" d="M301.36,181.65h218.5c9.57,0,18.72,1.52,26.65,7.34,10.6,7.79,16.55,18.13,16.45,31.47-.63,80.34-.27,160.68-.39,241a53.57,53.57,0,0,1-53.85,53.65l-368.34.09c-17.66,0-35.33-.23-53,0-21.6.22-37.41-9.32-48.13-27.77a110.35,110.35,0,0,1-5.35-10.8c-1-2.28-2.67-7-2.67-9.45q0-123.22-.07-246.45a30.24,30.24,0,0,1,2.5-12.1c6.5-15.34,18.29-23.68,34.48-26.31,9.71-1.59,19.5-1.06,29.26-1.08.67,0,1.33,0,2,0,20.7.08,41.4.19,62.09.2q69.93,0,139.87,0Z"/><path class="cls-1" d="M562.19,182.5c-7.75-8.88-17.79-13.56-29.16-15.74a94.51,94.51,0,0,0-17.85-1.44q-174.48.06-349,.17c-30.2,0-60.39-.19-90.59-.15-9.91,0-19.65,1.35-28.87,5.36a54.66,54.66,0,0,0-11.45,6.8c-.95.73-1.9,1.81-3.27,1s-.74-2.05-.74-3.12c0-16,0-31.91-.05-47.87a8.7,8.7,0,0,1,1.1-4.31c3.33-6.16,6.22-12.58,10.69-18.07,10.88-13.37,25.07-19.92,42.2-20q80-.19,160.1-.21c4.18,0,8.35-.16,12.52-.19a18.32,18.32,0,0,1,13.79,5.69c10.68,10.93,21.68,21.57,32.1,32.75,6,6.39,13,8.4,21.25,7.85.94-.06,1.89-.13,2.84-.13,48.33,0,96.67-.16,145,0,12.71,0,25.45-.54,38.14.44,25.28,1.95,41.81,15.35,49,39.63.81,2.72,1.52,5.48,2.13,8.25.22,1,.91,2.17,0,3.24Z"/></svg>