<?xml version="1.0" encoding="UTF-8" standalone="no"?>
<svg
   id="Layer_1"
   data-name="Layer 1"
   viewBox="0 0 600 600"
   version="1.1"
   sodipodi:docname="back_folder.svg"
   inkscape:version="1.4 (86a8ad7, 2024-10-11)"
   xmlns:inkscape="http://www.inkscape.org/namespaces/inkscape"
   xmlns:sodipodi="http://sodipodi.sourceforge.net/DTD/sodipodi-0.dtd"
   xmlns="http://www.w3.org/2000/svg"
   xmlns:svg="http://www.w3.org/2000/svg">
  <sodipodi:namedview
     id="namedview3"
     pagecolor="#ffffff"
     bordercolor="#000000"
     borderopacity="0.25"
     inkscape:showpageshadow="2"
     inkscape:pageopacity="0.0"
     inkscape:pagecheckerboard="0"
     inkscape:deskcolor="#d1d1d1"
     inkscape:zoom="1.945"
     inkscape:cx="299.74293"
     inkscape:cy="300"
     inkscape:window-width="3440"
     inkscape:window-height="1369"
     inkscape:window-x="1072"
     inkscape:window-y="-8"
     inkscape:window-maximized="1"
     inkscape:current-layer="Layer_1" />
  <defs
     id="defs1">
    <style
       id="style1">.cls-1{fill:#a4a4a5;}.cls-2{fill:#e0e0df;}</style>
  </defs>
  <path
     class="cls-1"
     d="M539.43,217.5l.06-.11v.15Z"
     id="path1" />
  <path
     class="cls-2"
     d="M304.29,181.65h218.5c9.57,0,18.72,1.52,26.65,7.34,10.6,7.79,16.56,18.13,16.45,31.47-.63,80.34-.27,160.68-.38,241a53.59,53.59,0,0,1-53.86,53.65l-368.34.09c-17.66,0-35.32-.23-53,0-21.6.22-37.41-9.32-48.13-27.77a108.14,108.14,0,0,1-5.35-10.8c-1-2.28-2.67-7-2.67-9.45q0-123.22-.07-246.45a30.23,30.23,0,0,1,2.49-12.1c6.5-15.34,18.29-23.68,34.48-26.31,9.72-1.59,19.5-1.06,29.27-1.08.66,0,1.32,0,2,0,20.69.08,41.39.19,62.09.2q69.93,0,139.86,0Zm-9.73,174h-.23c0-6.17.05-12.34,0-18.5,0-1.94.58-2.51,2.5-2.07,4.33,1,8.69,1.8,13,3,25.82,7.43,47.31,21.4,63.87,42.62,18.34,23.49,26.85,50.17,25.23,80a10.28,10.28,0,0,0,.3,3.94c.74,2.13,1.94,3.83,4.36,3.88s4.72-.33,6.07-2.78a129.11,129.11,0,0,0,13.25-91.32A127.8,127.8,0,0,0,387,309.78c-25.09-24.6-55.37-37.56-90.45-39.21-2-.09-2.59-.81-2.58-2.74,0-10.63.06-21.27-.09-31.9-.09-6.3-4.43-8.55-9.78-5.22q-14.7,9.15-29.35,18.38-38.08,23.82-76.15,47.67c-5.2,3.26-5.14,7.47,0,10.93q13.89,9.4,27.82,18.75,27.17,18.19,54.36,36.35,11.84,7.89,23.73,15.68c2.13,1.4,4.51,2.4,6.93,1.1,2.63-1.39,3.2-4,3.16-6.82C294.5,367.06,294.56,361.36,294.56,355.66Z"
     id="path2" />
  <path
     class="cls-2"
     d="M565.13,182.5c-7.76-8.88-17.8-13.56-29.16-15.74a94.58,94.58,0,0,0-17.85-1.44q-174.49.06-349,.17c-30.19,0-60.39-.19-90.58-.15-9.92,0-19.66,1.35-28.87,5.36a54.73,54.73,0,0,0-11.46,6.8c-.95.73-1.89,1.81-3.27,1s-.74-2.05-.74-3.12c0-16,0-31.91,0-47.87a8.58,8.58,0,0,1,1.09-4.31c3.33-6.16,6.22-12.58,10.69-18.07,10.89-13.37,25.08-19.92,42.2-20Q168.21,85,248.26,85c4.17,0,8.34-.16,12.52-.19a18.28,18.28,0,0,1,13.78,5.69c10.68,10.93,21.68,21.57,32.1,32.75,6,6.39,13,8.4,21.25,7.85.95-.06,1.89-.13,2.84-.13,48.34,0,96.67-.16,145,0,12.72,0,25.45-.54,38.15.44,25.27,1.95,41.81,15.35,49,39.63.81,2.72,1.53,5.48,2.13,8.25.22,1,.92,2.17,0,3.24Z"
     id="path3" />
  <rect
     style="fill:#e0e0df"
     id="rect3"
     width="392.2879"
     height="277.63495"
     x="113.11054"
     y="208.22623" />
</svg>
