<svg id="Layer_1" data-name="Layer 1" xmlns="http://www.w3.org/2000/svg" viewBox="0 0 600 600"><defs><style>.cls-1{fill:#e0e0df;}</style></defs><path class="cls-1" d="M583.55,315.51c-1.45,10-2.53,20.07-4.4,30-11.67,61.81-40.72,114.48-84.44,159.3C484.9,514.87,470.63,515.18,461,506s-9.92-23.8.06-34.12a274.43,274.43,0,0,0,48.49-67.61c17.66-35.14,28-72.07,26.45-111.75C534.47,254,522.5,218.44,503.8,185a275.4,275.4,0,0,0-42.4-56.48c-11.14-11.57-10-27.87,2.15-36.67a22.75,22.75,0,0,1,31.06,3.44c13.2,15.11,26.57,30.25,38,46.68,24.21,34.77,39.75,73.43,47.13,115.23,1.6,9,2.55,18.2,3.8,27.3Z"/><path class="cls-1" d="M16.45,303.24c.77-57.55,17.09-107.35,45.67-153.41A304.7,304.7,0,0,1,105.3,95.3c13.69-13.76,35.7-8.4,40.34,9.84,2.33,9.17-1,16.62-7,23.8-12.34,14.86-25.35,29.41-35.72,45.61C76.69,215.48,62,260.24,64.23,309.45c1.71,37.74,13.64,72.55,32,105.32a274.57,274.57,0,0,0,42.33,56.5c11.21,11.65,10.27,27.78-1.73,36.69-9.73,7.22-22.91,6.4-31.47-3.43-13.18-15.12-26.59-30.24-37.95-46.71A286.21,286.21,0,0,1,18.16,327.27C17.1,318.31,16.86,309.26,16.45,303.24Z"/><path class="cls-1" d="M111.22,293.71c.75-44.71,17.37-89.59,52.69-127.06,9.61-10.21,23.62-11.17,33.66-2.33s11,23.4,1.44,33.59c-19.23,20.61-32.36,44.35-37.49,72.07-8.75,47.34,1.22,90.06,33.12,126.85,5.77,6.66,11.61,13.08,10.79,22.7-.85,9.93-6,17.05-15.23,20.58-9.55,3.64-18.55,1.62-25.3-5.91-8.09-9-16.21-18.29-22.78-28.44C121.37,373.72,111.37,338.27,111.22,293.71Z"/><path class="cls-1" d="M488.88,306.57c-.39,38.15-13.7,78.36-41.14,113.66a150.87,150.87,0,0,1-12.87,14.46,23.29,23.29,0,0,1-32.91.47,23,23,0,0,1-1.39-32.41C415.73,386.2,428,368,434.32,346.32c15.54-52.82,7.08-100.94-29-143.33-5.59-6.56-11.32-12.85-10.63-22.21.74-10.17,6-17.44,15.48-21s18.52-1.4,25.24,6.16c8,8.94,16,18,22.44,28C478.73,226.17,488.84,261.77,488.88,306.57Z"/><polygon class="cls-1" points="300 288.66 259.19 206.09 212.9 206.09 279.26 340.31 279.26 393.91 320.74 393.91 320.74 340.32 387.1 206.09 340.82 206.09 300 288.66"/></svg>