<svg id="Layer_1" data-name="Layer 1" xmlns="http://www.w3.org/2000/svg" viewBox="0 0 600 600"><defs><style>.cls-1{fill:#e0e0df;}</style></defs><path class="cls-1" d="M465.61,152.49c-2.35-15.83-11.92-25.85-27.59-29.15q-24.93-5.27-50.11-9.24c-8.67-1.36-14.06-3.58-15.11-14.08C371,82,359.4,72,341.73,68.81q-29-5.22-58-10.61c-17.73-3.28-31.83,2.51-40.12,18.44-4.41,8.48-9.45,9.42-17.76,7.64-16.6-3.54-33.37-6.4-50.14-9.07-15.54-2.48-28.39,2.2-36.86,16.11-9.28,15.26-5.73,23.58,11.51,26.77q73.6,13.62,147.25,27t147.26,27C461.4,175.07,468.06,169,465.61,152.49ZM259.83,88s4.34-23.72,29.76-19.06l42.14,7.73C357.15,81.32,352.8,105,352.8,105Z"/><path class="cls-1" d="M433.2,184.58H166.8a27.1,27.1,0,0,0-26.89,30.54L178.72,519a27.11,27.11,0,0,0,26.89,23.68H397.94a27.1,27.1,0,0,0,26.93-24l35.26-303.88A27.11,27.11,0,0,0,433.2,184.58ZM240.79,508h-3c-5.25.53-7-2.9-7.58-7.64L196.59,226.64c-.58-4.75,3.2-9,8.44-9.55h-3c5.25-.52,13,2.9,13.54,7.65l33.64,273.74C249.82,503.22,246,507.5,240.79,508Zm65.48-9a9.1,9.1,0,0,1-9.1,9.09h-.94a9.09,9.09,0,0,1-9.09-9.09V224.44a9.09,9.09,0,0,1,9.09-9.09h.94a9.1,9.1,0,0,1,9.1,9.09Zm93.52-272.35L366.15,500.39c-.58,4.74-5.31,8.17-10.56,7.64h0c-5.25-.53-9-4.81-8.45-9.56l33.64-273.74c.59-4.75,5.31-8.17,10.56-7.65h0C396.59,217.61,400.38,221.89,399.79,226.64Z"/></svg>