<svg id="Layer_1" data-name="Layer 1" xmlns="http://www.w3.org/2000/svg" viewBox="0 0 600 600"><defs><style>.cls-1{fill:#ee2b24;}</style></defs><path class="cls-1" d="M465.64,152.5c-2.3-15.8-11.9-25.9-27.6-29.2-16.6-3.5-33.3-6.6-50.1-9.2-8.7-1.4-14.1-3.6-15.1-14.1-1.8-18-13.4-28-31.1-31.2q-29-5.25-58-10.6c-17.7-3.3-31.8,2.5-40.1,18.4-4.4,8.5-9.5,9.4-17.8,7.6-16.6-3.5-33.4-6.4-50.1-9.1-15.5-2.5-28.4,2.2-36.9,16.1-9.3,15.3-5.7,23.6,11.5,26.8,49.1,9.1,98.2,18,147.2,27l147.3,27C461.44,175.1,468.14,169,465.64,152.5ZM259.84,88s4.3-23.7,29.8-19.1l42.1,7.7c25.4,4.7,21.1,28.4,21.1,28.4Z"/><path class="cls-1" d="M433.24,184.6H166.84a27.08,27.08,0,0,0-26.9,30.5L178.74,519a27.11,27.11,0,0,0,26.9,23.7h192.3a27.05,27.05,0,0,0,26.9-24l35.3-303.9A27,27,0,0,0,433.24,184.6ZM240.84,508h-3c-5.2.5-7-2.9-7.6-7.6l-33.6-273.7c-.6-4.7,3.2-9,8.4-9.6h-3c5.2-.5,13,2.9,13.5,7.6l33.6,273.7C249.84,503.2,246,507.5,240.84,508Zm65.5-9a9.13,9.13,0,0,1-9.1,9.1h-.9a9.13,9.13,0,0,1-9.1-9.1V224.4a9.13,9.13,0,0,1,9.1-9.1h.9a9.13,9.13,0,0,1,9.1,9.1Zm93.5-272.4-33.6,273.7c-.6,4.7-5.3,8.2-10.6,7.6h0c-5.2-.5-9-4.8-8.4-9.6l33.6-273.7c.6-4.7,5.3-8.2,10.6-7.6h0C396.64,217.6,400.44,221.9,399.84,226.6Z"/></svg>