<svg id="Layer_1" data-name="Layer 1" xmlns="http://www.w3.org/2000/svg" viewBox="0 0 600 600"><defs><style>.cls-1{fill:#e0e0df;}</style></defs><circle class="cls-1" cx="179.06" cy="104.43" r="11.25"/><path class="cls-1" d="M112.8,57.32V542.68H487.2V57.32ZM347,85.38h75.6v38.68H347ZM161.37,104.43a17.69,17.69,0,1,1,17.69,17.69A17.69,17.69,0,0,1,161.37,104.43ZM423.43,447.51a15.25,15.25,0,0,1-4.48,10.8l-21.62,21.62a15.25,15.25,0,0,1-10.8,4.48H213.47a15.25,15.25,0,0,1-10.8-4.48l-21.62-21.62a15.25,15.25,0,0,1-4.48-10.8V197.44a15.25,15.25,0,0,1,4.48-10.8L202.67,165a15.25,15.25,0,0,1,10.8-4.48H386.53a15.25,15.25,0,0,1,10.8,4.48L419,186.64a15.25,15.25,0,0,1,4.48,10.8Zm14.71-337.12h-7V99.05h7Z"/><path class="cls-1" d="M231,469.77H200.57a45.49,45.49,0,0,1,2-6.68c3.39-7,7.35-13.74,10.76-20.74,4.48-9,4-18-.62-26.79-11.22-20-19.07-34.61-7.62-57.1,2.38-4.52,5.24-8.8,7.53-13.36,1.56-3.1,2.51-6.51,3.92-10.25H190.31l41.25-60.39,41.1,60.17c-7.78.44-15.34.1-23.1.17-1.44,0-2.38.2-2.6,1.9-.93,7.4-4.22,13.89-7.94,20.21-7.49,12.5-12.8,22.17-5.46,36.39,2.52,4.83,5.24,9.56,7.75,14.39C254,432.82,243,447.87,231,469.77Z"/><path class="cls-1" d="M298.67,370.28H268.29a44.83,44.83,0,0,1,2-6.68c3.4-7,7.35-13.74,10.76-20.75,4.48-9,4-18-.61-26.78-11.23-20-19.08-34.62-7.62-57.1,2.37-4.53,5.23-8.8,7.52-13.36,1.56-3.11,2.52-6.51,3.92-10.25H258L299.27,175l41.1,60.17c-7.78.45-15.34.11-23.1.17-1.43,0-2.38.21-2.59,1.91-.94,7.4-4.22,13.89-7.95,20.21-7.48,12.5-12.79,22.17-5.46,36.39,2.52,4.83,5.24,9.55,7.75,14.39C321.73,333.33,310.68,348.37,298.67,370.28Z"/><path class="cls-1" d="M366.39,467.93H336a45.45,45.45,0,0,1,2-6.67c3.39-7,7.34-13.74,10.75-20.75,4.49-9,4-18-.61-26.78-11.23-20-19.07-34.62-7.62-57.1,2.37-4.53,5.23-8.8,7.52-13.37,1.56-3.1,2.52-6.51,3.92-10.24H325.74c13.93-20.4,27.51-40.28,41.24-60.4l41.11,60.17c-7.78.45-15.34.1-23.11.17-1.43,0-2.37.2-2.59,1.9-.94,7.4-4.22,13.89-7.94,20.22-7.49,12.5-12.8,22.17-5.47,36.39,2.53,4.82,5.25,9.55,7.76,14.39C389.44,431,378.39,446,366.39,467.93Z"/></svg>