<svg id="Layer_1" data-name="Layer 1" xmlns="http://www.w3.org/2000/svg" viewBox="0 0 600 600"><defs><style>.cls-1{fill:#e0e0df;}</style></defs><path class="cls-1" d="M530.25,313.87c-7.94.77-13.9-3.56-19.34-8.46-50.09-45.12-100.8-89.51-149.72-136-18.57-17.63-37.5-34.85-55.85-52.71-8-7.74-12.5-6.56-20,.46-67.1,63-134.21,126-203.53,186.36-4,3.46-8.09,7.57-12.81,9.09-11.64,3.76-22.6.46-28.89-10.43s-2-21,6.93-29.06c30.29-27.2,61.09-53.8,90.66-81.84q64.83-61.47,131.18-121.13c22.5-20.12,31.55-20,54.11.54,30.84,28.06,62.87,54.8,92.44,84.25,41.28,41.09,85.66,78.37,128.1,118,7.12,6.65,14.14,14.08,9.35,25.77C548.63,309.2,540.36,313.11,530.25,313.87Z"/><path class="cls-1" d="M350.31,476.23c0,11.12,3.65,15.15,14.56,15,14.82-.18,30.85-.23,45.16-.22l8-23.88L355.63,361.92h96.88l25.39,41s19.58-52.31,19.66-58.76c.09-7.47-1.72-12.83-7.63-18.06-60.85-53.86-121.67-107.77-181.71-162.59-10.33-9.43-14.63-9.86-25.44.07C224.45,217.19,164.9,269.34,105.83,322.07c-6.23,5.56-11.77,11-11.65,21.3.34,28.12,19.56,136.82,38.4,147.8,0,0,54.84-.45,94.37,0,10.77.13,14.67-3.39,14.45-14.8-.59-30.68-.49-61.38-.08-92.07.37-27.47,22-47.44,51.85-48.79,30.27-1.37,53.64,17.47,56.05,45.43C352,412.69,350.25,444.48,350.31,476.23Z"/><polygon class="cls-1" points="562.86 377.77 517.05 377.77 477.35 444.05 437.83 377.77 387.96 377.77 451.67 484.22 451.67 544.8 498.91 544.8 498.91 484.96 562.86 377.77"/></svg>