<svg id="Layer_1" data-name="Layer 1" xmlns="http://www.w3.org/2000/svg" viewBox="0 0 600 600"><defs><style>.cls-1{fill:#e0e0df;}</style></defs><path class="cls-1" d="M534.44,315.49c-7.94.77-13.9-3.56-19.34-8.47-50.09-45.11-100.8-89.5-149.72-136-18.57-17.63-37.5-34.85-55.85-52.71-8-7.75-12.5-6.56-20,.46-67.09,63-134.2,126-203.52,186.36-4,3.46-8.09,7.57-12.81,9.09-11.64,3.76-22.6.46-28.89-10.43s-2-21,6.93-29.06c30.29-27.2,61.09-53.81,90.66-81.84Q206.75,131.46,273.09,71.8c22.51-20.13,31.56-20,54.12.54,30.84,28.06,62.87,54.8,92.44,84.24,41.28,41.1,85.66,78.38,128.09,118,7.12,6.66,14.15,14.08,9.36,25.78C552.82,310.81,544.55,314.73,534.44,315.49Z"/><polygon class="cls-1" points="558.67 543.18 499.22 460.34 555.01 382.92 506.01 382.92 474.51 429.25 442.37 382.92 391.32 382.92 447.23 462.03 388.8 543.18 440.54 543.18 473.25 493.6 506.47 543.18 558.67 543.18"/><path class="cls-1" d="M354.5,477.85c0,11.12,3.65,15.14,14.56,15,14.82-.17,30.85-.22,45.16-.21l14.17-28-66.61-98.44H456.7l25.39,38.35s19.58-52.32,19.66-58.76c.09-7.48-1.73-12.83-7.63-18.06C433.27,273.89,372.45,220,312.41,165.16c-10.33-9.43-14.64-9.86-25.44.07C228.64,218.81,169.08,271,110,323.69c-6.23,5.56-11.77,11-11.65,21.3.34,28.12,19.56,136.82,38.4,147.8,0,0,54.84-.45,94.37,0,10.77.13,14.67-3.39,14.45-14.8-.59-30.68-.49-61.39-.08-92.07.37-27.48,22-47.44,51.85-48.79,30.27-1.37,53.64,17.47,56,45.43C356.14,414.31,354.44,446.1,354.5,477.85Z"/></svg>