<svg id="Layer_1" data-name="Layer 1" xmlns="http://www.w3.org/2000/svg" viewBox="0 0 600 600"><defs><style>.cls-1{fill:#e0e0df;}</style></defs><path class="cls-1" d="M534.92,314.36c-8,.78-13.93-3.56-19.38-8.48-50.19-45.2-101-89.69-150-136.24-18.6-17.67-37.57-34.93-56-52.82-8-7.76-12.52-6.57-20,.46C222.3,180.43,155.06,243.56,85.59,304c-4,3.46-8.1,7.58-12.83,9.1-11.67,3.77-22.65.46-29-10.45s-2-21.06,7-29.12c30.35-27.25,61.22-53.91,90.85-82Q206.57,130,273,70.18c22.55-20.17,31.62-20,54.22.53,30.91,28.12,63,54.92,92.64,84.42,41.36,41.19,85.83,78.54,128.35,118.27,7.14,6.66,14.17,14.1,9.37,25.82C553.34,309.68,545.05,313.6,534.92,314.36Z"/><polygon class="cls-1" points="455.82 507.34 540.13 407.28 540.13 377.66 396.13 377.66 396.13 415.16 478.29 415.16 393.98 515.22 393.98 544.83 543.72 544.83 543.72 507.34 455.82 507.34"/><path class="cls-1" d="M441,436.92H377.14l1-74.83,121.44-.93c1.58-9.62,2.5-12.18,2.55-16.41.1-7.49-1.73-12.86-7.64-18.1-61-54-121.92-108-182.08-162.92-10.36-9.45-14.67-9.89-25.5.06-58.44,53.7-118.12,106-177.31,158.79-6.24,5.57-11.8,11.05-11.67,21.35C98.3,372.1,117.56,481,136.44,492c0,0,54.95-.46,94.55,0,10.8.13,14.71-3.4,14.49-14.83-.59-30.74-.49-61.51-.08-92.26.37-27.53,22-47.54,52-48.89,30.34-1.37,53.75,17.51,56.16,45.53,2.74,31.77,1,63.62,1.1,95.44,0,11.14,3.66,15.17,14.59,15,7.46-.08,15.22-.14,22.92-.17Z"/></svg>