<svg id="Layer_1" data-name="Layer 1" xmlns="http://www.w3.org/2000/svg" viewBox="0 0 600 600"><defs><style>.cls-1{fill:#f15b2a;}</style></defs><path class="cls-1" d="M505,323.58q-26.71,0-53.43,0a16.35,16.35,0,0,1-16.37-16.35q0-53.33,0-106.65A16.56,16.56,0,0,1,451.73,184q52.88,0,105.74,0a17.27,17.27,0,0,1,17.28,17.28q0,52.56,0,105.13a17.15,17.15,0,0,1-17.18,17.16Q531.26,323.56,505,323.58Zm58.62-69.66c0-32.65-26.38-59.31-58.75-59.35a59.2,59.2,0,1,0,58.75,59.35Z"/><path class="cls-1" d="M550.44,250.43c-11.33-9.15-24.4-11-37.84-5.35L510.3,244c-11.31-11.42,22.31-24.66,32.09-21.3-7-9.85-18.2-15-29.92-17.46-16.5-.75-22,23.86-17.09,36.77,1.71,4.71,1.74,4.58-1.68,8.17-1.37,1.44-2.37,1.35-3.91.4-12.54-7.38-15.93-21.32-15.21-35.06-10.39,8.31-25.9,30.71-14,42.44,10.28,7,20.93,10.44,33.08,5.58,4.43-1.77,4.36-1.77,7.71,1.53,3,13.93-22.25,21.62-33.85,19.81,8.22,10,29.53,25,40.8,13.09,7.07-9.69,11-20.18,6.3-31.89-2.74-26.43,26.63,7.1,20.59,25.55C545.62,285.23,560.13,261.62,550.44,250.43Z"/><rect class="cls-1" x="445.82" y="327.97" width="118.27" height="22.48" rx="2.59"/><rect class="cls-1" x="456.28" y="342.17" width="97.36" height="23.42" rx="2.59"/><polygon class="cls-1" points="172.43 277.79 54.06 277.79 54.06 184.02 25.11 184.02 25.11 412.06 54.06 412.06 54.06 306.74 172.43 306.74 172.43 412.06 201.38 412.06 201.38 184.02 172.43 184.02 172.43 277.79"/><polygon class="cls-1" points="227.14 184.02 227.14 212.97 307.47 212.97 307.47 412.06 336.42 412.06 336.42 212.97 416.75 212.97 416.75 184.02 227.14 184.02"/><path class="cls-1" d="M529,396.59V370.17H480.92v26.42l24,15.86Zm-15.81-15.85h12V394l-12,7.93Z"/></svg>