<svg id="Layer_1" data-name="Layer 1" xmlns="http://www.w3.org/2000/svg" viewBox="0 0 600 600"><defs><style>.cls-1{fill:#e0e0df;}</style></defs><path class="cls-1" d="M94.53,276.72a12.41,12.41,0,0,0,.53-2.12c.39-5.74.62-11.51,1.12-17.24a190.65,190.65,0,0,1,10.7-47.59,201.22,201.22,0,0,1,21.31-42.87,206.11,206.11,0,0,1,60.69-60.53A190.46,190.46,0,0,1,240.4,82.51c8.58-2.47,17.33-4.44,26.08-6.25a128.36,128.36,0,0,1,15.18-1.83c5-.42,10.1-.71,15.15-.75,6.64-.05,13.31-.19,19.9.39a210.56,210.56,0,0,1,35.48,6.07A202.91,202.91,0,0,1,397,97.72a206,206,0,0,1,68.74,59.69,199.54,199.54,0,0,1,30.61,60.7c2.71,8.9,4.59,18.07,6.48,27.19a127.6,127.6,0,0,1,1.82,15c.42,4.86.71,9.74.75,14.62.05,6.75.26,13.55-.42,20.25-.88,8.78-2.22,17.55-4,26.21a195.05,195.05,0,0,1-19.13,53.13,204.81,204.81,0,0,1-53.74,65,208.08,208.08,0,0,1-24.31,16.7,4,4,0,0,1-3.47.56c-4.12-1.24-8.14-2.62-10.47-6.63-1.79-3.08-1.64-6.42-1.14-9.79.08-.52.16-1,.26-1.56a5.7,5.7,0,0,1,2.93-4.42,179.5,179.5,0,0,0,89.41-136.44c.47-4.25.49-8.56.71-12.84.13-2.64.44-5.29.33-7.92-.21-5.16-.69-10.3-1-15.45a148.94,148.94,0,0,0-4.86-28,176.84,176.84,0,0,0-15.95-40.19,178.73,178.73,0,0,0-31.6-42,190.3,190.3,0,0,0-20.2-17.16,177.11,177.11,0,0,0-30.55-18.22,165.7,165.7,0,0,0-41.05-13.5c-5.53-1-11.07-2-16.65-2.73-4-.51-8.09-.54-12.14-.74-3.34-.16-6.7-.46-10.05-.35-5.27.19-10.54.68-15.82,1a162.41,162.41,0,0,0-41.19,8.62,182.6,182.6,0,0,0-88.48,64.66,178.06,178.06,0,0,0-25.56,49.26,166.82,166.82,0,0,0-6.81,28c-1.13,7.5-2.18,15-2,22.6.13,7.22-.19,14.47.42,21.65a174.06,174.06,0,0,0,12.79,52.28,177.45,177.45,0,0,0,54.13,72,247.38,247.38,0,0,0,21.56,14.78c2.38,1.51,2.93,3.52,3.37,5.79,1.92,9.82-4.42,15.24-12.72,16.58a3.47,3.47,0,0,1-2.12-.47,205.62,205.62,0,0,1-79.47-85.45,196.27,196.27,0,0,1-14.4-38c-2-7.52-3.35-15.2-4.71-22.87a156.34,156.34,0,0,1-2.23-25.75,6.43,6.43,0,0,0-.52-1.76Z"/><path class="cls-1" d="M296,526.37l-1.18-.66a74.9,74.9,0,0,1-7.5-4.18c-3.18-2.24-4.64-5.26-4.64-9.48q.19-100.29.12-200.59a3.81,3.81,0,0,0-1.91-3.71,33.31,33.31,0,0,1-15-23.38,34.84,34.84,0,0,1,25.44-39c19.82-5.42,40.43,8.08,43.29,28.33,2,14.43-3.35,25.93-15.27,34.3a3.22,3.22,0,0,0-1.63,3q.06,101.71,0,203.43a7.23,7.23,0,0,1-1.16,3.76,18.83,18.83,0,0,1-9.83,7.43,10.83,10.83,0,0,0-1.49.81Z"/><path class="cls-1" d="M176.83,272.47c0,2.14,0,5.75,0,9.35a127.93,127.93,0,0,0,21,68.28,121.22,121.22,0,0,0,36.86,36.26c1.78,1.12,1.56,2.7,1.7,4.14.6,6.33-2.64,10.67-9,12.24a3.27,3.27,0,0,1-2.18-.44,143.39,143.39,0,0,1-55.23-61.56,128.65,128.65,0,0,1-9.8-28.63,177.14,177.14,0,0,1-3-17.64A138.75,138.75,0,0,1,159.57,250a145,145,0,0,1,11.28-32.3,143.44,143.44,0,0,1,45.6-53.86,136.21,136.21,0,0,1,42-20.62c5.72-1.66,11.54-3,17.39-4.2a95.31,95.31,0,0,1,13-1.55c6.25-.34,12.54-.45,18.81-.39a95.31,95.31,0,0,1,10.5,1,144.36,144.36,0,0,1,112.71,81.72,125.73,125.73,0,0,1,9.7,28.36c1.12,5.5,2.21,11,2.78,16.61.66,6.61,1,13.28,1,19.92A82.84,82.84,0,0,1,443.05,298c-1,6.39-2.2,12.77-3.67,19.07a118.5,118.5,0,0,1-7.87,22.1,142.83,142.83,0,0,1-36.86,49.26,133.56,133.56,0,0,1-20,14.42,4.81,4.81,0,0,1-3,.5c-4-.69-7.44-2.36-8.75-6.48-1-3-.31-5.93,1-8.72a3.67,3.67,0,0,1,1.37-1.2,125,125,0,0,0,56-81.55,141,141,0,0,0,2.16-17.48,135,135,0,0,0,0-18A121.76,121.76,0,0,0,414.39,232a126,126,0,0,0-12.88-23.71A124,124,0,0,0,364.45,173a115.84,115.84,0,0,0-30.78-13.53c-5.13-1.39-10.44-2.18-15.65-3.27-8.29-1.72-16.71-1.36-25-1.13a103.15,103.15,0,0,0-23.71,3.73,121.87,121.87,0,0,0-45.18,22.75,124.57,124.57,0,0,0-31.48,37.31,127.12,127.12,0,0,0-14.07,40.18C177.84,263,177.51,267,176.83,272.47Z"/><path class="cls-1" d="M385.74,277.14c-.35,19.62-5.42,35.86-15.81,50.39A86.15,86.15,0,0,1,344.47,351c-3.79,2.31-9.55.15-10.94-4.12a7.33,7.33,0,0,1,3.43-8.55,67.71,67.71,0,0,0,22.64-21.73,68.52,68.52,0,0,0,10.72-29.38,69.22,69.22,0,0,0-34.69-68.52,71.86,71.86,0,0,0-23.25-8.35,56.72,56.72,0,0,0-8.94-.69A87.4,87.4,0,0,0,291,210a69.55,69.55,0,0,0-43.48,22.67,66.83,66.83,0,0,0-15.81,29.63,70.74,70.74,0,0,0-1.86,20.44,69.45,69.45,0,0,0,33.24,55.45,7.19,7.19,0,0,1,2.78,7.73,8.68,8.68,0,0,1-7.57,6,3.29,3.29,0,0,1-1.61-.6,84.24,84.24,0,0,1-31.57-32.44,81.86,81.86,0,0,1-9.64-30.18,80.94,80.94,0,0,1,9.26-48.91c10.11-18.74,25.33-31.82,45.18-39.51a78.71,78.71,0,0,1,20.82-5,133.7,133.7,0,0,1,16.75-.07,69.66,69.66,0,0,1,20.43,4.13,84.84,84.84,0,0,1,41.13,29.84,81.46,81.46,0,0,1,15.47,36.31C385.25,269.9,385.47,274.44,385.74,277.14Z"/></svg>