<svg id="Layer_1" data-name="Layer 1" xmlns="http://www.w3.org/2000/svg" viewBox="0 0 600 600"><defs><style>.cls-1{fill:#e0e0df;}</style></defs><path class="cls-1" d="M250.48,437.49a4.54,4.54,0,0,0,2.89-4.17V401.69c0-2.5-1-3.33-3.86-3.33h-32.8c-2.89-.41-3.37.83-3.37,2.91v31.64c-.48,2.08,1,3.74,2.89,4.58A41.05,41.05,0,0,0,250.48,437.49Z"/><path class="cls-1" d="M260.61,446.23a7.63,7.63,0,0,0-4.34,0,61.09,61.09,0,0,1-36.66,4.16c11.09,9.57,21.22,19.14,32.8,28.72a14.06,14.06,0,0,0,14-1.25c6.75-6.25,14-12.49,21.22-18.73,2.89-2.5,6.27-5.41,9.16-8.33C284.73,452.89,271.7,451.64,260.61,446.23Z"/><path class="cls-1" d="M300,398.36h-32.8c-2.89-.41-3.38.83-3.38,2.91v31.64c-.48,2.08,1,3.74,2.9,4.58a41.05,41.05,0,0,0,34.25,0,4.54,4.54,0,0,0,2.89-4.17V401.69C303.82,399.19,302.86,398.36,300,398.36Z"/><path class="cls-1" d="M380.8,313.28H136.27a5.4,5.4,0,0,0-5.59,5.18v34.67a5.4,5.4,0,0,0,5.59,5.18h17v25.13a5.4,5.4,0,0,0,5.59,5.18H358.19a5.39,5.39,0,0,0,5.59-5.18V358.31h17a5.4,5.4,0,0,0,5.59-5.18V318.46A5.4,5.4,0,0,0,380.8,313.28Z"/><path class="cls-1" d="M458.87,117.27c0-16.7-19.45-30.23-43.48-30.22q-133,.06-266.06,0c-23,0-41.72,13-41.7,29q.11,93.25,0,186.52c0,15.82,18.43,28.62,41.19,28.6q67.22,0,134.43,0,66.19,0,132.39,0c23.89,0,43.25-13.42,43.23-30Q458.78,209.21,458.87,117.27Z"/><path class="cls-1" d="M386.39,87h32.48a40,40,0,0,1,40,40V388.62a0,0,0,0,1,0,0H386.39a0,0,0,0,1,0,0V87A0,0,0,0,1,386.39,87Z"/><path class="cls-1" d="M422.81,480.41c-23.76-.33-44.52-9.61-62.1-28.3-2.61-2.78-2.58-2.82-.16-5.63,1.7-2,3.49-3.86,5.07-6,1.31-1.74,2.2-1.68,3.65-.08,7.89,8.76,17,15.5,27.33,19.41,29.35,11.06,55.79,4.86,79-18.87,1.87-1.91,3-2.29,4.63,0a56.81,56.81,0,0,0,5.27,6.16c1.5,1.55,1.44,2.6,0,4.19a92.05,92.05,0,0,1-28.33,21.23A79.35,79.35,0,0,1,422.81,480.41Z"/><path class="cls-1" d="M421.29,450.06c-15.35-.16-30-6.77-42.55-19.79-1.67-1.73-2.13-2.91-.18-4.81a70.58,70.58,0,0,0,5.67-6.57c1.14-1.44,1.92-1.55,3.24-.12,6.29,6.84,13.63,11.67,22,14,17.73,5,33.71.74,47.57-13.16,2.13-2.14,3.35-2.15,5.07.24A46.49,46.49,0,0,0,467,425.6c1.63,1.63,1.55,2.73,0,4.4-9.34,9.82-20.14,16.16-32.52,18.86A64.67,64.67,0,0,1,421.29,450.06Z"/><path class="cls-1" d="M395.46,406.66a2.42,2.42,0,0,1,.8-1.72c2.2-2.57,4.45-5.08,6.58-7.71,1-1.26,1.74-1.18,2.9-.14,11.12,10,22.8,10,34,0,1-.92,1.71-1.21,2.69,0,2.22,2.68,4.47,5.34,6.79,7.91,1.1,1.23.73,2-.21,3-14.89,15.8-38,15.54-52.58-.05A13.32,13.32,0,0,1,395.46,406.66Z"/><rect class="cls-1" x="99.65" y="491.32" width="400.7" height="21.63"/></svg>