<svg id="Layer_1" data-name="Layer 1" xmlns="http://www.w3.org/2000/svg" viewBox="0 0 600 600"><defs><style>.cls-1{fill:#e0e0df;}</style></defs><path class="cls-1" d="M210.69,323.7a7,7,0,0,0,4.44-6.4V268.73c0-3.83-1.48-5.11-5.93-5.11H158.84c-4.44-.64-5.18,1.28-5.18,4.48v48.57c-.74,3.19,1.48,5.75,4.44,7A63,63,0,0,0,210.69,323.7Z"/><path class="cls-1" d="M226.24,337.12a11.83,11.83,0,0,0-6.67,0,93.84,93.84,0,0,1-56.28,6.39c17,14.7,32.58,29.39,50.36,44.09,6.66,3.2,15.55,2.56,21.48-1.91,10.36-9.59,21.47-19.18,32.58-28.76,4.45-3.84,9.63-8.31,14.08-12.78C263.27,347.34,243.27,345.42,226.24,337.12Z"/><path class="cls-1" d="M286.66,263.62H236.3c-4.44-.64-5.18,1.28-5.18,4.48v48.57c-.75,3.19,1.48,5.75,4.44,7a63,63,0,0,0,52.58,0,7,7,0,0,0,4.45-6.4V268.73C292.59,264.9,291.11,263.62,286.66,263.62Z"/><path class="cls-1" d="M475.28,389.6c-36.48-.5-68.35-14.75-95.34-43.45-4-4.27-4-4.33-.24-8.65,2.61-3,5.35-5.93,7.78-9.15,2-2.66,3.37-2.58,5.6-.11,12.12,13.44,26,23.79,42,29.8,45.06,17,85.66,7.45,121.33-29,2.87-2.94,4.54-3.52,7.11,0a88.71,88.71,0,0,0,8.08,9.46c2.31,2.38,2.22,4,0,6.44-12.83,13.9-27.25,24.92-43.49,32.6A122,122,0,0,1,475.28,389.6Z"/><path class="cls-1" d="M473,343c-23.57-.25-46.06-10.39-65.34-30.38-2.56-2.66-3.26-4.47-.28-7.39a107.3,107.3,0,0,0,8.71-10.09c1.75-2.21,2.95-2.38,5-.18,9.66,10.51,20.92,17.92,33.77,21.54,27.22,7.66,51.76,1.14,73-20.21,3.27-3.28,5.13-3.3,7.77.38a73,73,0,0,0,7.51,8.77c2.51,2.51,2.39,4.2,0,6.76-14.35,15.08-30.92,24.81-49.93,29C487.21,342.46,481.23,342.86,473,343Z"/><path class="cls-1" d="M433.3,276.37a3.69,3.69,0,0,1,1.22-2.65c3.38-3.94,6.83-7.79,10.11-11.84,1.57-1.93,2.68-1.81,4.45-.21,17.07,15.36,35,15.35,52.19,0,1.57-1.41,2.63-1.86,4.13,0,3.41,4.13,6.87,8.2,10.42,12.16,1.7,1.88,1.13,3.11-.31,4.64-22.86,24.27-58.39,23.86-80.74-.07A21.25,21.25,0,0,1,433.3,276.37Z"/><rect class="cls-1" x="26.74" y="406.36" width="546.53" height="33.21"/><rect class="cls-1" x="419.37" y="160.43" width="111.29" height="88.24"/><path class="cls-1" d="M26.74,160.43v33.74c0,4.4,3.84,8,8.58,8H61.45v38.59c0,4.39,3.84,7.95,8.58,7.95h306c4.74,0,8.58-3.56,8.58-7.95V202.13h26.13c4.74,0,8.59-3.56,8.59-8V160.43Z"/></svg>