<svg id="Layer_1" data-name="Layer 1" xmlns="http://www.w3.org/2000/svg" viewBox="0 0 600 600"><defs><style>.cls-1{fill:#e0e0df;}</style></defs><rect class="cls-1" x="251.25" y="159.61" width="102.95" height="37.03"/><path class="cls-1" d="M245.32,401.09H130.89v37H249.31A172.61,172.61,0,0,1,245.32,401.09Z"/><path class="cls-1" d="M259,333.11c.5-1.16,1-2.32,1.52-3.47H134.25v37H248.69A172.64,172.64,0,0,1,259,333.11Z"/><path class="cls-1" d="M296.43,277.8q6-6,12.46-11.26H134.25v37H275.07A174,174,0,0,1,296.43,277.8Z"/><path class="cls-1" d="M399.86,63h-352V483.07h0v54H311.1a177.6,177.6,0,0,1-15.25-13.7A174.31,174.31,0,0,1,266,483.07H96.82V213.24H198.11v-103H399.86v117q4-.18,8-.18H408a172.6,172.6,0,0,1,46.62,6.4V63Z"/><path class="cls-1" d="M552.15,399.71c1.38,73.14-61.4,136.28-136.76,135.23-73.24-1-133.61-61.29-133.56-135.34,0-75.08,60.58-135.23,136-135.15C492.17,264.53,552.15,324.93,552.15,399.71Zm-162.41,44c0,24.09.1,48.18-.09,72.27,0,3.77,1.05,4.63,4.68,4.59,15.33-.21,30.66-.16,46,0,3,0,4-.64,4-3.83q-.17-73.22,0-146.43c0-3.21-1-3.8-3.95-3.78-15.33.14-30.67.24-46-.05-4.15-.08-4.72,1.31-4.69,5C389.82,395.56,389.74,419.66,389.74,443.75Zm28-158.13c-15.58-.22-29.13,9.3-32.7,23-4.29,16.43,5.21,32.74,21.87,37.54,18,5.18,37.08-4.19,42.15-20.7C455.16,305.44,439.8,285.92,417.7,285.62Z"/></svg>