<svg id="Layer_1" data-name="Layer 1" xmlns="http://www.w3.org/2000/svg" viewBox="0 0 600 600"><defs><style>.cls-1{fill:#e0e0df;}</style></defs><path class="cls-1" d="M561.49,300c2.68,141.52-118.79,263.68-264.6,261.65-141.71-2-258.51-118.59-258.42-261.86C38.56,154.55,155.68,38.16,301.59,38.32,445.44,38.47,561.49,155.33,561.49,300ZM247.27,385.22c0,46.61.18,93.23-.18,139.84-.06,7.29,2,9,9,8.87,29.66-.39,59.33-.3,89,0,5.73.05,7.7-1.25,7.69-7.43q-.31-141.65,0-283.3c0-6.21-2-7.36-7.65-7.31-29.66.26-59.34.46-89-.1-8-.15-9.12,2.52-9.07,9.64C247.43,292,247.27,338.61,247.27,385.22Zm54.08-306c-30.13-.41-56.35,18-63.26,44.43-8.3,31.79,10.08,63.34,42.32,72.63,34.8,10,71.73-8.11,81.55-40.05C373.85,117.63,344.11,79.85,301.35,79.27Z"/></svg>