<svg id="Layer_1" data-name="Layer 1" xmlns="http://www.w3.org/2000/svg" viewBox="0 0 600 600"><defs><style>.cls-1{fill:#e0e0df;}.cls-2,.cls-3{fill:none;stroke:#e0e0df;stroke-miterlimit:10;}.cls-2{stroke-width:24.9px;}.cls-3{stroke-width:12.35px;}</style></defs><path class="cls-1" d="M306.65,357.21l-71.28,182H282l12.59-35.36H363l12.59,35.36h47.52l-71.51-182Zm1.42,108.69,20.72-58.2,20.72,58.2Z"/><line class="cls-2" x1="74.16" y1="80.22" x2="74.16" y2="494.83"/><line class="cls-3" x1="65.76" y1="278.6" x2="544.41" y2="278.6"/><path class="cls-1" d="M508,277.09,494.23,327c-1.92,7-6.14,11.23-11.08,11.23h-.37c-5.33-.23-9.7-5.22-11.22-12.75l-8-81.34-.11-.82c-3.62-19.39-17.51-28.41-29.67-28.75h-.72c-11.78,0-25.42,8.09-29.92,26.43l-.19.8-8.9,127.15c-2,7.12-6.32,11.38-11.47,11.12-4.34-.21-9.92-4-11.4-14L349.27,193.32l0-.18c-3.05-20.95-17.55-30.39-30.57-30.45h-.12c-12.95,0-27.41,9.29-30.62,30.08l0,.2L262,424.62c-1.34,8.32-5.91,13.68-11.69,13.68h0c-5.79,0-10.37-5.4-11.69-13.76L201.15,99.88l-.05-.34c-3-20-17-29.57-29.41-30.15-12.05-.56-26.35,7.32-31.08,26.22L98.33,276.42,117,280.78l42.23-180.6c1.88-7.45,6.29-12,11.6-11.68,4.29.2,9.83,3.93,11.37,13.75l37.48,324.66.05.34c3.17,20.83,17.66,30.17,30.61,30.18h0a28.45,28.45,0,0,0,10.34-2l24-61.33,22.2-198.6c1.34-8.33,5.91-13.69,11.68-13.69h0c4.45,0,10.18,3.7,11.7,14l19.62,154.39h6.47L375.18,398a27.62,27.62,0,0,0,6.52,1.13c12.15.57,26.48-7.36,31.15-26.41l.2-.79L422,244.8c1.9-6.91,6.08-11.13,11.07-11.13h.25c5.38.15,9.79,5.15,11.32,12.76l8,81.34.12.82c3.09,16.57,14.86,28.12,29.29,28.73,14.26.6,26.31-9.3,30.71-25.24l13.77-49.9Z"/><polygon class="cls-1" points="412.14 471.92 421.93 496.82 547.27 496.82 547.27 471.92 412.14 471.92"/><polygon class="cls-1" points="359.08 471.92 359.43 472.9 298.15 472.9 298.5 471.92 269.25 471.92 259.5 496.82 398.95 496.82 389.17 471.92 359.08 471.92"/><polygon class="cls-1" points="243.79 471.92 62.9 471.92 62.9 496.82 234.04 496.82 243.79 471.92"/></svg>