<svg id="Layer_1" data-name="Layer 1" xmlns="http://www.w3.org/2000/svg" viewBox="0 0 600 600"><defs><style>.cls-1{fill:#e0e0df;}.cls-2,.cls-3{fill:none;stroke:#e0e0df;stroke-miterlimit:10;}.cls-2{stroke-width:24.9px;}.cls-3{stroke-width:12.35px;}</style></defs><path class="cls-1" d="M306.65,352.92l-71.28,182H282l12.59-35.36H363l12.59,35.36h47.52l-71.51-182Zm1.42,108.69,20.72-58.2,20.72,58.2Z"/><line class="cls-2" x1="74.16" y1="75.94" x2="74.16" y2="490.55"/><line class="cls-3" x1="65.76" y1="274.31" x2="544.41" y2="274.31"/><path class="cls-1" d="M508,272.8l-13.76,49.9c-1.93,7-6.15,11.23-11.09,11.23h-.37c-5.33-.23-9.7-5.22-11.22-12.75l-8-81.34-.11-.82c-3.62-19.39-17.51-28.41-29.67-28.75h-.72c-11.78,0-25.42,8.09-29.92,26.43l-.19.8-8.9,127.15c-2,7.12-6.32,11.38-11.47,11.12-4.33-.21-9.92-4-11.4-14L349.27,189l0-.17c-3.05-21-17.55-30.4-30.57-30.46h-.12c-12.95,0-27.41,9.29-30.62,30.08l0,.2L262,420.33c-1.34,8.32-5.91,13.68-11.69,13.68h0c-5.79,0-10.37-5.4-11.69-13.76L201.15,95.59l-.05-.34c-3-20-17-29.57-29.41-30.15-12.05-.56-26.35,7.32-31.08,26.22L98.33,272.13,117,276.49l42.23-180.6c1.88-7.45,6.29-12,11.6-11.68,4.29.2,9.83,3.93,11.37,13.76l37.48,324.65.05.35c3.17,20.82,17.66,30.16,30.61,30.17h0a28.25,28.25,0,0,0,10.34-2l24-61.33,22.2-198.6c1.34-8.33,5.91-13.68,11.68-13.68h0c4.45,0,10.18,3.69,11.7,14l19.62,154.39h6.47l18.79,47.81a27.62,27.62,0,0,0,6.52,1.13c12.15.58,26.48-7.36,31.15-26.41l.2-.79L422,240.51c1.9-6.91,6.08-11.13,11.07-11.13h.25c5.38.15,9.79,5.15,11.32,12.76l8,81.34.12.82c3.09,16.57,14.86,28.12,29.29,28.74,14.26.59,26.31-9.31,30.71-25.25l13.77-49.9Z"/><polygon class="cls-1" points="359.08 467.63 359.43 468.61 298.15 468.61 298.5 467.63 269.25 467.63 259.5 492.53 398.95 492.53 389.17 467.63 359.08 467.63"/><polygon class="cls-1" points="243.79 467.63 62.9 467.63 62.9 492.53 234.04 492.53 243.79 467.63"/><polygon class="cls-1" points="474.25 532.33 499.35 490.86 524.45 532.33 557.75 532.33 516 463.34 557.75 394.35 524.44 394.35 499.35 435.82 474.25 394.35 440.94 394.35 482.69 463.34 440.94 532.33 474.25 532.33"/></svg>