<svg id="Layer_1" data-name="Layer 1" xmlns="http://www.w3.org/2000/svg" viewBox="0 0 600 600"><defs><style>.cls-1{fill:#e0e0df;}</style></defs><path class="cls-1" d="M515.55,110c-3.09,17.26-12.84,29.48-21.77,42.33q-40,57.57-79.94,115.22c-2.45,3.55-4.53,4.32-8.18,3.07-5.73-2-11.69-2.93-18.06-4.44,6.87-9.91,13.43-19.4,20-28.87Q446.94,180.7,486.22,124a76.78,76.78,0,0,0,7.88-15.5c1.8-4.61.59-6.44-3.58-7.25a26.44,26.44,0,0,0-5-.36q-184.82,0-369.64,0c-10.78,0-13.73,5.72-7.85,16.81,4.38,8.24,9.87,15.65,15.13,23.15q57.45,81.81,115,163.49a29.49,29.49,0,0,1,5.3,17.7q-.12,75.84,0,151.68v6.95c5.63,0,11.1.68,16.41-.16,8.33-1.31,14,1.65,17.55,11.28,1.78,4.8,5.09,8.76,8,13.62H222.5v-6.24q0-86.05.07-172.11a17.61,17.61,0,0,0-3.31-10.94Q157.55,228.66,96.14,140.88a73.4,73.4,0,0,1-10.1-22c-5.9-21.59,5.18-40.73,24-42.56,3.9-.39,7.85-.3,11.77-.3q181-.06,362.06,0a58.43,58.43,0,0,1,10.9.76c10.69,2,17.59,9.53,20.81,22Z"/><path class="cls-1" d="M152.39,140.17c5.4-5.58,10.48-10.85,15.77-16.33l58.23,82.77L210.65,223Z"/><path class="cls-1" d="M244.42,271l-20.59-29.28,15.71-16.36,20.61,29.25Z"/><path class="cls-1" d="M499.42,408.82c-.82-62.17-52.16-112-114.58-111.33C322.75,298.22,272,349.6,272.72,411c.76,63.56,51.56,113.71,114.54,113.08S500.26,472.18,499.42,408.82Zm-22.61,36.7h0a19.62,19.62,0,0,1-7.25,10.35,18.29,18.29,0,0,1-11.48,3.42c-8.65-.4-15.71-6.7-17.56-15.67l-.12-.64-1.19-10.92-2.1,27-.25.92c-2.47,9.09-10.11,14.88-19,14.4a18.36,18.36,0,0,1-11.49-4.85,20,20,0,0,1-6.14-11.72l-.07-.52-3.82-45.58L388.91,479a20,20,0,0,1-6.56,12,18.33,18.33,0,0,1-24,0,19.91,19.91,0,0,1-6.53-12L333.27,369,317.4,430.09,297.68,425l17.85-68.78c2.5-9,10.12-14.78,19-14.29s16,7.06,17.62,16.42L370,464.39,378,392a20,20,0,0,1,6.59-12,18.34,18.34,0,0,1,24,.12,20,20,0,0,1,6.48,12.06l.07.52L418.63,434l1.89-24.33.25-.93c2.42-8.89,9.9-14.68,18.64-14.42s16,6.57,17.84,15.68l.12.64,2.31,21.27,4.2-13.69,19.48,6Z"/></svg>