<svg id="Layer_1" data-name="Layer 1" xmlns="http://www.w3.org/2000/svg" viewBox="0 0 600 600"><defs><style>.cls-1,.cls-2{fill:none;stroke:#e0e0df;stroke-miterlimit:10;}.cls-1{stroke-width:24.9px;}.cls-2{stroke-width:12.35px;}.cls-3{fill:#e0e0df;}</style></defs><line class="cls-1" x1="69.08" y1="71.65" x2="69.08" y2="486.26"/><line class="cls-2" x1="59.84" y1="270.02" x2="538.49" y2="270.02"/><path class="cls-3" d="M244.42,448.85h0c-13,0-27.45-9.35-30.61-30.17l-.05-.34L176.25,93.68c-1.55-9.83-7.08-13.56-11.37-13.76-5.28-.24-9.72,4.23-11.61,11.69L111.05,272.2l-18.63-4.35L134.7,87c4.72-18.9,19-26.8,31.08-26.22C178.23,61.4,192.15,71,195.19,91l.05.34L232.72,416c1.31,8.36,5.89,13.75,11.69,13.76h0c5.77,0,10.35-5.36,11.69-13.68L282,184.39l0-.2c3.21-20.79,17.67-30.07,30.62-30.07h.12c13,0,27.52,9.49,30.56,30.45l0,.17L365.3,357.47c1.48,10,7.06,13.78,11.4,14,5.16.24,9.51-4,11.46-11.12l8.9-127.15.2-.8c4.59-18.71,18.68-26.73,30.64-26.42,12.16.34,26.05,9.36,29.66,28.75l.12.82,8,81.34c1.51,7.54,5.89,12.53,11.22,12.75,5.09.2,9.48-4.08,11.45-11.21l13.77-49.91,18.44,5.09-13.76,49.9c-4.4,15.94-16.46,25.85-30.71,25.25-14.43-.61-26.2-12.16-29.29-28.74l-.12-.82-8-81.34c-1.53-7.61-5.95-12.6-11.32-12.75-5.1-.11-9.4,4.09-11.33,11.12l-8.9,127.15-.19.79c-4.67,19-19,27-31.16,26.41-12.53-.6-26.49-10.24-29.43-30.42l0-.17L324.39,187.24c-1.52-10.29-7.25-14-11.71-14h0c-5.77,0-10.34,5.36-11.68,13.68L275.07,418.58l0,.2C271.83,439.56,257.35,448.85,244.42,448.85Z"/><polygon class="cls-3" points="446.21 539.22 446.21 451.69 395.46 517.77 344.71 451.68 344.71 539.22 293.27 539.22 293.27 357.21 334.69 357.21 395.46 436.33 456.23 357.21 497.65 357.21 497.65 539.22 446.21 539.22"/><polygon class="cls-3" points="361.86 463.34 380.98 488.24 409.94 488.24 429.07 463.34 361.86 463.34"/><rect class="cls-3" x="299.77" y="463.34" width="38.44" height="24.9"/><rect class="cls-3" x="57.81" y="463.34" width="218.54" height="24.9"/><rect class="cls-3" x="452.71" y="463.34" width="38.43" height="24.9"/></svg>