<svg id="Layer_1" data-name="Layer 1" xmlns="http://www.w3.org/2000/svg" viewBox="0 0 600 600"><defs><style>.cls-1{fill:#e0e0df;}.cls-2,.cls-3{fill:none;stroke:#e0e0df;stroke-miterlimit:10;}.cls-2{stroke-width:24.9px;}.cls-3{stroke-width:12.35px;}</style></defs><path class="cls-1" d="M303.31,365.92,232,547.92h46.59l12.59-35.36h68.47l12.59,35.36h47.51l-71.5-182Zm1.42,108.68,20.72-58.19,20.72,58.19Z"/><line class="cls-2" x1="70.82" y1="88.93" x2="70.82" y2="503.54"/><line class="cls-3" x1="62.42" y1="287.3" x2="541.07" y2="287.3"/><path class="cls-1" d="M504.66,285.79,490.89,335.7c-1.92,7-6.14,11.22-11.08,11.22h-.37c-5.33-.22-9.7-5.21-11.22-12.75l-8-81.34-.12-.82c-3.61-19.38-17.5-28.41-29.66-28.75h-.72c-11.78,0-25.42,8.09-29.92,26.44l-.19.79-8.9,127.15c-2,7.13-6.32,11.38-11.47,11.12-4.34-.21-9.92-4-11.4-14L345.93,202l0-.17c-3.05-21-17.55-30.4-30.57-30.45h-.12c-13,0-27.41,9.28-30.62,30.07l0,.2L258.68,433.32C257.34,441.64,252.77,447,247,447h0c-5.8,0-10.37-5.4-11.69-13.76L197.81,108.58l-.05-.34c-3-20-17-29.56-29.41-30.15-12-.56-26.36,7.32-31.08,26.22L95,285.13l18.63,4.35,42.22-180.59c1.89-7.46,6.3-12,11.61-11.69,4.29.21,9.83,3.93,11.37,13.76L216.3,435.62l0,.34c3.17,20.82,17.65,30.16,30.61,30.18h0a28.38,28.38,0,0,0,10.33-2l24-61.33,22.2-198.6c1.34-8.32,5.9-13.68,11.67-13.68h0c4.46,0,10.19,3.7,11.71,14l19.61,154.4h6.48l18.78,47.81a27.77,27.77,0,0,0,6.52,1.12c12.16.58,26.49-7.35,31.16-26.4l.19-.8,8.9-127.15c1.91-6.91,6.09-11.13,11.08-11.13h.25c5.38.15,9.79,5.14,11.32,12.75l8,81.34.12.82c3.09,16.58,14.86,28.13,29.29,28.74,14.25.6,26.31-9.31,30.71-25.25l13.76-49.9Z"/><polygon class="cls-1" points="355.74 480.62 356.09 481.6 294.81 481.6 295.15 480.62 265.91 480.62 256.15 505.52 395.61 505.52 385.82 480.62 355.74 480.62"/><polygon class="cls-1" points="240.45 480.62 59.55 480.62 59.55 505.52 230.7 505.52 240.45 480.62"/><polygon class="cls-1" points="478.15 471.51 447.33 409.15 412.37 409.15 462.48 510.52 462.48 551 493.81 551 493.81 510.53 543.93 409.15 508.98 409.15 478.15 471.51"/></svg>