<svg id="Layer_1" data-name="Layer 1" xmlns="http://www.w3.org/2000/svg" viewBox="0 0 600 600"><defs><style>.cls-1,.cls-2{fill:none;stroke:#e0e0df;stroke-miterlimit:10;}.cls-1{stroke-width:24.9px;}.cls-2{stroke-width:12.35px;}.cls-3{fill:#e0e0df;}</style></defs><line class="cls-1" x1="65.15" y1="71.65" x2="65.15" y2="486.26"/><line class="cls-2" x1="55.92" y1="270.02" x2="534.57" y2="270.02"/><polygon class="cls-3" points="451.07 539.22 476.17 497.75 501.26 539.22 534.57 539.22 492.82 470.23 534.57 401.25 501.26 401.25 476.17 442.71 451.07 401.25 417.76 401.25 459.51 470.23 417.76 539.22 451.07 539.22"/><polygon class="cls-3" points="338.21 357.21 277.44 436.33 216.68 357.21 175.25 357.21 175.25 539.22 226.69 539.22 226.69 451.69 277.44 517.77 328.19 451.69 328.19 539.22 379.63 539.22 379.63 533.43 379.63 525.61 379.63 410.4 379.63 397.78 379.63 383.17 379.63 357.21 338.21 357.21"/><rect class="cls-3" x="53.89" y="463.34" width="103.95" height="24.9"/><path class="cls-3" d="M240.49,448.85c9.41,0,19.64-4.92,25.75-15.61l-14-18.16-.11,1c-1.34,8.32-5.91,13.68-11.69,13.68h0c-5.79,0-10.37-5.4-11.69-13.76l-4.28-37-11.29-14.7h-9.66l6.25,54.13,0,.34c1.41,9.27,5.07,16.26,9.84,21.17v-8.77l12.72,16.56a27.88,27.88,0,0,0,8.05,1.21Z"/><path class="cls-3" d="M371.86,390.57l.77,0V371.44c-3.15-.2-6.9-2.29-9.27-7.23H343.21C347.31,381.62,360.2,390,371.86,390.57Z"/><path class="cls-3" d="M271.34,416.9l25.7-230c1.34-8.32,5.91-13.68,11.68-13.68h0c4.45,0,10.18,3.7,11.7,14l20.71,163h19.28l-21-165.47,0-.17c-3.05-21-17.55-30.4-30.57-30.45h-.12c-13,0-27.41,9.28-30.62,30.07l0,.2L254.53,395Z"/><path class="cls-3" d="M201.94,350.21h18.19l1.26,1.65L191.31,91.3l0-.34c-3.05-20-17-29.56-29.42-30.15-12.07-.58-26.35,7.32-31.08,26.22L88.49,267.85l18.63,4.35L149.35,91.61c1.88-7.46,6.33-11.93,11.6-11.69,4.29.2,9.83,3.93,11.38,13.76Z"/><path class="cls-3" d="M498.16,268.51,484.4,318.42c-2,7.13-6.36,11.41-11.46,11.21-5.33-.22-9.7-5.21-11.22-12.75l-8-81.34-.11-.82C450,215.33,436.13,206.31,424,206c-12-.31-26.05,7.71-30.64,26.43l-.19.79-8.19,117h1.68v36.85c7.24-4,13.57-11.41,16.38-22.9l.2-.79,8.9-127.15c1.93-7,6.23-11.23,11.32-11.12,5.38.15,9.79,5.14,11.33,12.75l8,81.34.12.82c3.09,16.58,14.86,28.13,29.29,28.74,14.25.6,26.31-9.31,30.71-25.25l13.77-49.9Z"/></svg>