<svg id="Layer_1" data-name="Layer 1" xmlns="http://www.w3.org/2000/svg" viewBox="0 0 600 600"><defs><style>.cls-1,.cls-2{fill:none;stroke:#e0e0df;stroke-miterlimit:10;}.cls-1{stroke-width:24.9px;}.cls-2{stroke-width:12.35px;}.cls-3{fill:#e0e0df;}</style></defs><line class="cls-1" x1="69.08" y1="98.13" x2="69.08" y2="512.74"/><line class="cls-1" x1="542.19" y1="502.27" x2="57.81" y2="502.27"/><line class="cls-2" x1="60.68" y1="296.5" x2="539.32" y2="296.5"/><path class="cls-3" d="M245.25,475.33h0c-13,0-27.45-9.35-30.61-30.17l-.05-.34L177.08,120.16c-1.55-9.83-7.08-13.56-11.37-13.76-5.31-.27-9.72,4.23-11.61,11.69L111.88,298.68l-18.63-4.35,42.28-180.82c4.72-18.9,19-26.78,31.08-26.22,12.45.59,26.37,10.14,29.41,30.15l0,.34,37.48,324.66c1.31,8.36,5.89,13.75,11.69,13.76h0c5.77,0,10.35-5.36,11.69-13.68l25.89-231.65,0-.2c3.21-20.79,17.67-30.08,30.62-30.08h.12c13,.06,27.52,9.5,30.57,30.46l0,.17L366.13,384c1.48,10,7.06,13.78,11.4,14,5.15.26,9.51-4,11.47-11.12l8.9-127.15.19-.8c4.5-18.34,18.14-26.43,29.92-26.43h.72c12.16.34,26,9.36,29.66,28.75l.12.82,8,81.34c1.51,7.53,5.89,12.53,11.22,12.75h.36c4.94,0,9.17-4.26,11.09-11.23L502.92,295l18.44,5.09L507.6,350c-4.4,15.94-16.46,25.84-30.71,25.25-14.43-.61-26.2-12.16-29.29-28.74l-.12-.82-8-81.34c-1.53-7.61-5.95-12.6-11.32-12.75h-.25c-5,0-9.18,4.22-11.08,11.13L408,389.85l-.19.79c-4.67,19.05-19,27-31.16,26.41-12.53-.6-26.49-10.24-29.42-30.42l0-.18L325.22,213.72c-1.52-10.29-7.25-14-11.71-14h0c-5.77,0-10.34,5.36-11.68,13.68L275.91,445.06l0,.2C272.67,466,258.19,475.33,245.25,475.33Z"/></svg>