<svg id="Layer_1" data-name="Layer 1" xmlns="http://www.w3.org/2000/svg" viewBox="0 0 600 600"><defs><style>.cls-1{fill:#e0e0df;}</style></defs><path class="cls-1" d="M299.65,65.83a21.41,21.41,0,0,1,10.64,2Q439.16,123.71,568,179.53c2,.84,4.87,1.3,4.88,4.14,0,3.12-2.91,3.6-5.19,4.51l-257.23,103a27.43,27.43,0,0,1-21.14-.05L33.8,188.92c-.77-.31-1.52-.66-2.27-1-1.86-.84-4.19-1.34-4.43-3.82-.3-3,2.49-3.53,4.45-4.38,18.72-8.15,37.49-16.19,56.22-24.3Q187.41,112.25,287,69.05C291.21,67.24,295.27,65,299.65,65.83Z"/><path class="cls-1" d="M299.93,413.67a26.43,26.43,0,0,1-10.86-2.12Q160.79,360.15,32.48,308.82c-2.27-.9-5.31-1.32-5.37-4.36S30.18,301,32.37,300c32.33-14.07,64.68-28.07,97-42.24a10.38,10.38,0,0,1,8.8.08q70.56,28.38,141.16,56.63c13.95,5.62,27.59,5.57,41.57-.08,47-19,94.12-37.69,141.15-56.61a10.38,10.38,0,0,1,8.8.07q48.45,21.18,97,42.19c2.16,1,5.32,1.4,5.09,4.57-.22,3-3.23,3.35-5.5,4.26Q439.09,360.22,310.81,411.61A27.73,27.73,0,0,1,299.93,413.67Z"/><path class="cls-1" d="M299.81,534.22c-4,.3-7.5-.87-11-2.27Q160.73,480.68,32.63,429.5c-2.22-.89-5.41-1.23-5.53-4.23-.13-3.4,3.27-3.83,5.65-4.86,32.14-14,64.33-27.89,96.42-42,3.43-1.51,6.2-1.09,9.41.2,46.89,18.82,93.83,37.48,140.68,56.39,14,5.64,27.56,5.61,41.55-.05,46.84-18.93,93.8-37.56,140.67-56.43a11.87,11.87,0,0,1,10,.21q47.34,20.67,94.78,41.11c.76.33,1.52.65,2.25,1,2,1,4.63,1.58,4.38,4.51-.2,2.54-2.69,3-4.52,3.72Q541.69,439.9,515,450.53l-201.62,80.6C308.93,532.9,304.55,534.83,299.81,534.22Z"/></svg>