<svg id="Layer_1" data-name="Layer 1" xmlns="http://www.w3.org/2000/svg" viewBox="0 0 600 600"><defs><style>.cls-1{fill:#e0e0df;}</style></defs><path class="cls-1" d="M299.51,473.85c-54,0-108.07-.24-162.09.22-9.64.09-12.23-2.56-12.2-12.2q.51-162.09,0-324.18c0-9.63,2.56-12.23,12.19-12.19q162.09.5,324.18,0c9.63,0,12.23,2.55,12.2,12.19q-.51,162.09,0,324.18c0,9.63-2.55,12.29-12.2,12.2C407.57,473.61,353.53,473.85,299.51,473.85ZM435.33,301.2c0-41.66-.25-83.32.2-125,.1-9.06-1.5-12.57-11.7-12.52q-124.27.66-248.57.09c-8.39,0-11.87,1.33-11.82,11q.62,125,0,250c0,9.5,3.21,11.09,11.72,11.06q124.29-.42,248.58.08c10.08.05,11.9-3.25,11.79-12.44C435.06,382.69,435.33,341.94,435.33,301.2Z"/><polygon class="cls-1" points="214.94 214.76 283.95 214.76 283.95 183.54 183.16 183.54 183.16 284.33 214.94 284.33 214.94 214.76"/><polygon class="cls-1" points="383.92 384.75 314.9 384.75 314.9 415.97 415.69 415.97 415.69 315.18 383.92 315.18 383.92 384.75"/><rect class="cls-1" x="164.11" y="35.43" width="38.15" height="60.48"/><rect class="cls-1" x="241.73" y="36.43" width="38.15" height="60.48"/><rect class="cls-1" x="319.23" y="36" width="38.15" height="60.48"/><rect class="cls-1" x="396.75" y="35.43" width="38.15" height="60.48"/><rect class="cls-1" x="164.09" y="503.1" width="38.15" height="60.48"/><rect class="cls-1" x="241.72" y="504.09" width="38.15" height="60.48"/><rect class="cls-1" x="319.22" y="503.66" width="38.15" height="60.48"/><rect class="cls-1" x="396.74" y="503.1" width="38.15" height="60.48"/><rect class="cls-1" x="42.56" y="385.87" width="38.15" height="60.48" transform="translate(-354.47 477.75) rotate(-90)"/><rect class="cls-1" x="43.56" y="308.24" width="38.15" height="60.48" transform="translate(-275.85 401.11) rotate(-90)"/><rect class="cls-1" x="43.13" y="230.74" width="38.15" height="60.48" transform="translate(-198.78 323.19) rotate(-90)"/><rect class="cls-1" x="42.56" y="153.22" width="38.15" height="60.48" transform="translate(-121.82 245.1) rotate(-90)"/><rect class="cls-1" x="518.29" y="370.42" width="38.15" height="60.48" transform="translate(136.71 938.03) rotate(-90)"/><rect class="cls-1" x="519.29" y="292.79" width="38.15" height="60.48" transform="translate(215.33 861.39) rotate(-90)"/><rect class="cls-1" x="518.86" y="215.29" width="38.15" height="60.48" transform="translate(292.4 783.46) rotate(-90)"/><rect class="cls-1" x="518.29" y="137.77" width="38.15" height="60.48" transform="translate(369.36 705.38) rotate(-90)"/></svg>