<svg id="Layer_1" data-name="Layer 1" xmlns="http://www.w3.org/2000/svg" viewBox="0 0 600 600"><defs><style>.cls-1{fill:#e0e0df;}</style></defs><rect class="cls-1" x="212.24" y="446" width="30.14" height="123.53"/><rect class="cls-1" x="195.25" y="57.35" width="20.14" height="76.83" transform="translate(-17.02 139.25) rotate(-36.07)"/><rect class="cls-1" x="289.62" y="30.46" width="20.14" height="76.83"/><path class="cls-1" d="M303,382.18q-45.65,0-91.31.06c-2.52,0-3.39-.49-3.38-3.25.1-39.82,0-79.64.11-119.46.06-20.56,5.14-39.73,16.42-57.17a106.7,106.7,0,0,1,19-22.07,88.55,88.55,0,0,1,16.37-11.14c27.22-15,55-14.54,82.77-2.17,11.1,5,20.73,12.76,28.75,21.94,17.65,20.18,26.36,43.92,26.39,70.75.06,39.71,0,79.42.08,119.13,0,2.84-.82,3.45-3.53,3.44Q348.78,382.1,303,382.18Z"/><path class="cls-1" d="M303.41,403.68c34.45,0,68.9,0,103.34-.07,2.81,0,3.56.71,3.44,3.48-.24,5.34-.14,10.71,0,16.06,0,1.77-.55,2.46-2.28,2.27a15.49,15.49,0,0,0-1.67,0q-103,0-206,.08c-3.32,0-4.12-.91-3.94-4.07a141.71,141.71,0,0,0,0-14.72c-.12-2.58.69-3.08,3.15-3.08Q251.4,403.76,303.41,403.68Z"/><rect class="cls-1" x="140.85" y="153.82" width="20.14" height="76.83" transform="translate(-89.07 238.39) rotate(-62.75)"/><rect class="cls-1" x="383.99" y="57.35" width="20.14" height="76.83" transform="translate(656.19 405.19) rotate(-143.93)"/><rect class="cls-1" x="439.01" y="153.82" width="20.14" height="76.83" transform="translate(483.79 679.48) rotate(-117.25)"/><rect class="cls-1" x="361.01" y="446" width="30.14" height="123.53"/></svg>