<svg id="Layer_1" data-name="Layer 1" xmlns="http://www.w3.org/2000/svg" viewBox="0 0 600 600"><defs><style>.cls-1{fill:#e0e0df;}</style></defs><path class="cls-1" d="M311.53,315.41q-39.76,0-79.52,0c-2.2,0-3-.42-2.95-2.82.09-34.68,0-69.36.09-104,.06-17.9,4.49-34.6,14.31-49.79A93,93,0,0,1,260,139.58a77.47,77.47,0,0,1,14.26-9.7c23.71-13.06,47.92-12.66,72.08-1.89a73.43,73.43,0,0,1,25.05,19.11c15.36,17.57,22.95,38.25,23,61.62,0,34.58,0,69.16.07,103.74,0,2.47-.72,3-3.08,3C364.74,315.38,338.13,315.41,311.53,315.41Z"/><path class="cls-1" d="M335.7,523.87q0-74.73-.06-149.46c0-2.58.51-3.59,3.29-3.39,3.67.26,7.37.12,11.06,0,1.54,0,2.13.5,1.94,2a14.6,14.6,0,0,0,0,1.75c0,99.25,0,91.75.06,191,0,2.81-.46,4-3.56,3.68a92.12,92.12,0,0,0-10.77,0c-1.54,0-2.14-.49-2-2a19.62,19.62,0,0,0,0-2Z"/><path class="cls-1" d="M271.58,490.35q0-58-.06-116c0-2.65.62-3.54,3.32-3.34a62.8,62.8,0,0,0,9.89,0c2.72-.23,3.49.82,3.07,3.27a1.4,1.4,0,0,0,0,.29c0,77,0,113.41.08,190.44,0,3-.75,3.84-3.66,3.59a64,64,0,0,0-9.89,0c-2.44.18-2.81-.77-2.8-2.93.07-22.64.05-4.6.05-27.24Z"/><path class="cls-1" d="M311.92,334.13q45,0,90-.06c2.44,0,3.09.61,3,3-.21,4.65-.12,9.32,0,14,0,1.54-.48,2.15-2,2a14.2,14.2,0,0,0-1.46,0q-89.7,0-179.42.07c-2.89,0-3.59-.79-3.43-3.54a121.82,121.82,0,0,0,0-12.82c-.11-2.25.6-2.69,2.74-2.68Q266.64,334.18,311.92,334.13Z"/><path class="cls-1" d="M167.78,203.58c7.37,0,14.74.07,22.11,0,1.89,0,2.52.46,2.43,2.4-.17,3.2-.11,6.41,0,9.61,0,1.39-.42,1.85-1.82,1.85q-22.84-.06-45.69,0c-1.68,0-1.89-.79-1.86-2.15.06-3.2.1-6.41,0-9.61-.06-1.69.54-2.12,2.17-2.1C152.64,203.63,160.21,203.58,167.78,203.58Z"/><path class="cls-1" d="M455.68,217.32c-7.27,0-14.55-.1-21.82.05-2.25,0-2.81-.66-2.68-2.79.19-3,.12-6,0-9,0-1.44.26-2,1.89-2q22.83.1,45.67,0c1.4,0,1.86.44,1.82,1.83-.08,3.2-.15,6.41,0,9.6.11,2-.71,2.4-2.53,2.38C470.61,217.27,463.14,217.32,455.68,217.32Z"/><path class="cls-1" d="M305.41,57c0-8.06,0-16.12,0-24.18,0-1.78.46-2.4,2.28-2.3a64.41,64.41,0,0,0,7.86,0c2-.13,2.63.52,2.61,2.58-.11,10.29-.05,20.58-.05,30.88,0,5.72-.07,11.45,0,17.18,0,1.78-.49,2.39-2.29,2.3a79.13,79.13,0,0,0-8.15,0c-1.8.1-2.32-.48-2.3-2.29C305.47,73.08,305.41,65,305.41,57Z"/><path class="cls-1" d="M211.1,141.4c-1.93,3.67-3.66,7.12-5.56,10.47-.67,1.18-1.54.09-2.21-.29-4.86-2.7-9.29-6.1-14.16-8.81-7.22-4-13.93-8.9-21.22-12.82-1.56-.84-2.65-2.43-4.39-3.08-1-.38-.87-1-.41-1.78q2.47-4.43,4.79-8.92c.58-1.12,1.19-1.34,2.21-.58,6.95,5.26,15,8.76,22.09,13.87,3.19,2.31,6.87,3.94,10.26,6,2.68,1.62,5.25,3.43,7.89,5.13C210.83,140.87,211.15,141.13,211.1,141.4Z"/><path class="cls-1" d="M460.75,125.82c.05.47-.26.64-.6.87-1.63,1.12-3.18,2.36-4.87,3.39-9.31,5.62-18.7,11.09-27.93,16.84-2.49,1.55-4.91,3.24-7.41,4.8-1.21.75-1.79.66-2.44-.63-1.47-2.91-3.05-5.79-4.66-8.63-.54-1-.54-1.45.52-2,3-1.64,5.63-3.89,8.61-5.61q12.22-7.08,24.18-14.6c2.41-1.52,4.7-3.25,7.18-4.67.83-.48,1.46-.83,2.07.34,1.63,3.18,3.36,6.3,5.06,9.44C460.55,125.5,460.65,125.66,460.75,125.82Z"/><path class="cls-1" d="M390.73,51.35c2.68,2.35,5.72,3.75,8.61,5.38,1.54.87,2.14,1.47,1.06,3.42C393.25,73,386.3,86,379.28,99c-.09.17-.22.32-.31.5-2.08,4.32-3.12,4.54-6.82,1.43-.42-.35-.56-.89-1.09-1.25-1.57-1.06-4.27-1.41-4.52-3.17-.2-1.45,1.58-3.17,2.46-4.78Q376.49,77.85,384,64C386.2,59.86,388.4,55.7,390.73,51.35Z"/><path class="cls-1" d="M232.69,51.45q7.63,13.9,15.24,27.77c2.9,5.32,5.69,10.7,8.59,16,.53,1,.94,1.71-.4,2.27-2.76,1.15-4.89,3.27-7.34,4.89-2,1.35-2.66.64-3.6-1.13-5.85-11-11.8-22-17.71-33-1.32-2.46-2.57-5-4-7.32-1.67-2.66-.68-3.43,1.49-4.61C227.56,54.84,230.39,53.63,232.69,51.45Z"/><rect class="cls-1" x="273.46" y="-12.17" width="63.82" height="493.4" transform="translate(-76.39 284.62) rotate(-45)"/></svg>