<svg id="Layer_1" data-name="Layer 1" xmlns="http://www.w3.org/2000/svg" viewBox="0 0 600 600"><defs><style>.cls-1{fill:#e0e0df;}</style></defs><path class="cls-1" d="M431.78,99.63c33.77,17.79,49,85.1,55.21,119.79,15.77,86.72,15.09,252.5-40.83,324-10.73,13-24.09,16-36.25,3-11.73-12.1-18.68-26.4-24.42-41.07-37.47-100.52-38.13-255-.15-355.62C393,131,402.67,110,421.71,99.63ZM415.13,517c2,4.6,5.43,7.93,11.39,8,6.28.07,9.49-3.5,11.86-8.18,40.81-86.5,41.32-218.8,22.32-311.57-5-23.16-11.32-46-22.45-67.7-2.27-4.41-5.08-7.88-11.3-8-6.51-.08-9.5,3.48-11.9,8.08a199.73,199.73,0,0,0-17.22,46.07C375.35,278.07,360.7,394,415.13,517Z"/><path class="cls-1" d="M178.72,99.63c12.73,7.05,20.22,17.58,26.82,29.93H178.26c-10.49,0-13,1.43-16.95,9.78-44.25,96.9-44,265-5.29,364.23,1.87,4.75,4.26,9.35,6.4,14,2.47,5.38,7.19,7.66,13.75,7.54,10.23-.16,18.6,0,29.34-.06-6,10.81-12,20.7-23.16,27.39-16.39,9.79-31.73-11.55-38.65-23.87C93.26,435.19,94.39,260,128.37,160.45c7.73-21.75,18.44-48.75,40.28-60.82Z"/><path class="cls-1" d="M150.68,332.66c.6-66.19,4.91-122,28.68-179.94,1.27-2.82,2.73-3.93,6.29-3.82,8,.23,15.94.19,23.91,0,3.78-.09,4.61.58,3.29,3.91-8.54,21.49-13.9,43.63-18.11,66-15.5,91.16-14.31,195,18.09,282.64,1.26,3.2,1.23,4.45-3.33,4.29-8-.29-15.95-.27-23.91,0-3.7.13-5-1.21-6.18-3.94C157.13,450.49,150.66,384.32,150.68,332.66Z"/><path class="cls-1" d="M347.07,149c3.76.58,10.79-2.11,13.46,1.14,1.91,2.32-1.62,8-2.83,12.17-22.14,74.16-27.28,151.88-20.15,228.57a524.67,524.67,0,0,0,22.82,109.82c1.36,4.29.67,5.33-4.44,5.07-6.69-.33-13.43-.29-20.12.05-4.14.21-5.81-1.27-7.16-4.38-9.81-22.68-15.77-46.19-20-70-14.46-87-13.4-194.82,19.73-277.6,1.47-3.58,3.24-5.44,7.92-4.9C339.39,149.26,342.58,149,347.07,149Z"/><path class="cls-1" d="M208.21,342.89a150,150,0,0,1-.84-30.81C210.9,258.15,215,202.55,237.17,152c.94-2.1,2.2-3,5-3.1,18.4-1,18.29-1.08,13.09,13.78-32.64,99.65-33.05,239.5,3.37,338.29,1.56,4.07.65,4.8-4,4.78-16.49-.09-16.61.07-21.62-13.4C215.16,443.87,210,394.23,208.21,342.89Z"/><path class="cls-1" d="M254.19,331.26c.46-64.25,5.05-121.26,28.66-178.41,1.26-2.75,2.53-4.2,6.19-3.93,5.39.39,13-2,15.64.89s-2.26,8.4-3.7,12.8c-31.89,100.59-33.23,238.41,3.6,338,1.85,4.77.24,5.21-4.64,5.15-15.52-.17-15.72,0-20.74-12.86C260.14,442.87,254,381.72,254.19,331.26Z"/><path class="cls-1" d="M356.87,134.39c12.15,0,12.18,0,15-10.31,11.36-37.86-3.32-72.11-46.3-77.56-20-3-19.89-2.78-19.58,14.48.06,3.31,1.14,4.38,4.88,4.44a66.42,66.42,0,0,1,19.7,2.91c12.63,4.11,19.21,12.21,20.9,23.52,1.87,12.6-.73,24.75-5,36.75-2,5.76-2,5.76,5.34,5.77Z"/><ellipse class="cls-1" cx="426.92" cy="329.66" rx="13.4" ry="79.15"/></svg>