<svg id="Layer_1" data-name="Layer 1" xmlns="http://www.w3.org/2000/svg" viewBox="0 0 600 600"><defs><style>.cls-1{fill:#fff;}.cls-2{fill:none;}</style></defs><path class="cls-1" d="M37,351V249.73H62.58a81.06,81.06,0,0,1,16.16,1.17,23.44,23.44,0,0,1,8.89,3.88,23,23,0,0,1,7.3,9.07,29.22,29.22,0,0,1,2.6,12.32,23.39,23.39,0,0,1-3.74,13.53,19.53,19.53,0,0,1-10.86,7.57,20.88,20.88,0,0,1,13.94,8.06A27,27,0,0,1,102,322.24a32.2,32.2,0,0,1-2.14,11.69,26.56,26.56,0,0,1-6,9.41,22.87,22.87,0,0,1-10.32,6Q77.31,351,62.78,351ZM53.17,292.5h6.3q11.76,0,16.63-3.22T81,278.5q0-8.29-4.5-11.66t-17-3.34h-6.3Zm0,44.77h5.68a87.41,87.41,0,0,0,12.94-.69,16.65,16.65,0,0,0,6.78-2.42,13.35,13.35,0,0,0,4.62-5.4,18.24,18.24,0,0,0-.34-15.91,14,14,0,0,0-5.74-5.61,20.36,20.36,0,0,0-5.36-1.73,46.58,46.58,0,0,0-8-.55H53.09Z"/><polygon class="cls-1" points="118.69 351.03 118.69 249.73 135.16 249.73 135.16 336.29 171.97 336.29 171.97 351.03 118.69 351.03"/><path class="cls-1" d="M394.9,274.36a50.64,50.64,0,0,0-14.77-8.92,45.48,45.48,0,0,0-16.36-3q-16.62,0-27,10.65t-10.38,27.57q0,16.4,10.15,27a33.67,33.67,0,0,0,25.55,10.66,46.28,46.28,0,0,0,17.13-3.19,53.87,53.87,0,0,0,15.6-9.61v18.61a48.18,48.18,0,0,1-14.46,7.13,58.5,58.5,0,0,1-16.94,2.36A59.18,59.18,0,0,1,341.87,350a50.73,50.73,0,0,1-28.72-28.34,57.27,57.27,0,0,1,0-41.93A52,52,0,0,1,342,251.19a57.23,57.23,0,0,1,21.1-3.84,55.78,55.78,0,0,1,17,2.5,60.53,60.53,0,0,1,15.71,7.86Z"/><polygon class="cls-1" points="415.31 351.03 415.31 249.73 431.77 249.73 431.77 291.65 468.17 249.73 488.3 249.73 448.18 294.78 493.08 351.03 471.84 351.03 431.77 299.28 431.77 351.03 415.31 351.03"/><path class="cls-1" d="M497.33,330.76l13.14-6.16A18.19,18.19,0,0,0,517.32,335a21.46,21.46,0,0,0,12.74,3.56,16.31,16.31,0,0,0,11.66-4.09A14.31,14.31,0,0,0,546,323.49q0-8.92-14.81-15.91c-1.39-.7-2.45-1.21-3.19-1.54q-16.72-8.15-22.3-14.77a24.23,24.23,0,0,1-5.58-16.16,25.87,25.87,0,0,1,8.41-20q8.41-7.71,22-7.7a37.18,37.18,0,0,1,18.75,4.32,22.67,22.67,0,0,1,10.44,12.42l-12.86,6.64a21.26,21.26,0,0,0-6.69-7A17.35,17.35,0,0,0,521.37,265a11.8,11.8,0,0,0-3.91,9.24q0,9.15,17.16,17l2.08,1q15,6.93,20.62,13.54a24.69,24.69,0,0,1,5.61,16.5q0,14.38-9.08,22.87t-24.49,8.47q-12.93,0-21.21-5.94a27.89,27.89,0,0,1-10.78-17"/><path class="cls-1" d="M294.37,352.08H191.94V246.28H294.37Zm-84.71-17.72h67V264h-67Z"/><rect id="SVGID" class="cls-2" x="37.04" y="246.28" width="525.91" height="107.45"/></svg>