<svg id="Layer_1" data-name="Layer 1" xmlns="http://www.w3.org/2000/svg" viewBox="0 0 600 600"><defs><style>.cls-1{fill:#fff;}</style></defs><path class="cls-1" d="M423.78,111.78c31.73,16.71,46,79.94,51.87,112.53,14.82,81.46,14.17,237.18-38.35,304.34-10.09,12.22-22.63,15.07-34.06,2.78-11-11.37-17.55-24.8-22.94-38.58-35.19-94.43-35.82-239.56-.14-334.06,7.16-17.58,16.29-37.3,34.16-47ZM408.15,503.86c1.91,4.32,5.09,7.44,10.7,7.5,5.89.07,8.91-3.28,11.14-7.68C468.32,422.43,468.8,298.15,451,211c-4.7-21.75-10.63-43.22-21.09-63.58-2.13-4.15-4.77-7.41-10.61-7.48-6.11-.08-8.92,3.27-11.17,7.58A186.92,186.92,0,0,0,391.9,190.8C370.78,279.4,357,388.32,408.15,503.86Z"/><path class="cls-1" d="M186.08,111.78c11.95,6.63,19,16.52,25.19,28.12-9,0-17.29,0-25.62,0-9.86,0-12.19,1.34-15.93,9.19-41.57,91-41.3,248.94-5,342.13,1.76,4.47,4,8.79,6,13.17,2.32,5.06,6.75,7.2,12.92,7.09,9.61-.15,17.47,0,27.56-.06-5.6,10.16-11.29,19.45-21.75,25.73-15.4,9.19-29.81-10.85-36.31-22.42C105.8,427,106.86,262.46,138.78,168.91c7.26-20.43,17.32-45.79,37.84-57.13Z"/><path class="cls-1" d="M159.73,330.68c.57-62.18,4.62-114.64,27-169,1.19-2.65,2.56-3.69,5.9-3.59,7.48.22,15,.18,22.46,0,3.55-.08,4.34.55,3.1,3.67-8,20.19-13.06,41-17,62-14.55,85.63-13.43,183.19,17,265.5,1.18,3,1.16,4.18-3.13,4-7.48-.27-15-.26-22.46,0-3.48.12-4.67-1.14-5.81-3.7C165.79,441.36,159.72,379.21,159.73,330.68Z"/><path class="cls-1" d="M344.21,158.13c3.54.55,10.14-2,12.65,1.07,1.79,2.18-1.52,7.52-2.66,11.43-20.79,69.66-25.63,142.67-18.92,214.71A492.71,492.71,0,0,0,356.71,488.5c1.28,4,.62,5-4.17,4.76-6.28-.31-12.62-.27-18.9.05-3.89.19-5.46-1.2-6.72-4.12-9.22-21.3-14.83-43.38-18.8-65.76-13.58-81.76-12.58-183,18.54-260.77,1.38-3.36,3-5.11,7.44-4.6C337,158.4,340,158.13,344.21,158.13Z"/><path class="cls-1" d="M213.78,340.29a140.48,140.48,0,0,1-.79-29c3.31-50.65,7.15-102.88,28-150.38.89-2,2.07-2.76,4.66-2.9,17.28-.93,17.18-1,12.3,12.93-30.67,93.62-31.05,225,3.16,317.79,1.47,3.81.61,4.5-3.8,4.48-15.48-.09-15.6.06-20.3-12.59C220.3,435.15,215.45,388.52,213.78,340.29Z"/><path class="cls-1" d="M257,329.37c.43-60.36,4.74-113.91,26.92-167.6,1.19-2.58,2.38-3.94,5.82-3.69,5.06.37,12.18-1.85,14.68.84s-2.12,7.89-3.47,12c-30,94.49-31.21,224,3.38,317.48,1.74,4.47.23,4.89-4.36,4.84-14.58-.17-14.76,0-19.48-12.09C262.56,434.2,256.79,376.77,257,329.37Z"/><path class="cls-1" d="M353.42,144.43c11.41,0,11.44,0,14.09-9.68C378.18,99.18,364.39,67,324,61.89,305.26,59,305.33,59.28,305.63,75.5c.05,3.1,1.06,4.11,4.58,4.16a62.7,62.7,0,0,1,18.5,2.74c11.87,3.86,18.05,11.47,19.64,22.09,1.76,11.84-.69,23.26-4.68,34.52-1.91,5.42-1.9,5.42,5,5.42Z"/><ellipse class="cls-1" cx="419.22" cy="327.86" rx="12.59" ry="74.35"/></svg>