<svg id="Layer_1" data-name="Layer 1" xmlns="http://www.w3.org/2000/svg" viewBox="0 0 600 600"><defs><style>.cls-1{fill:#e0e0df;}</style></defs><path class="cls-1" d="M301.36,51.62c25.64,28.07,53.45,54,80.53,80.67,6.29,6.2,6.1,9.43-.2,15a361.51,361.51,0,0,0-30,29.59c-6,6.7-9.23,5.28-14.55-.42-10.34-11.08-21.63-21.28-32.12-32.22-3.72-3.88-5.73-3.93-9.48,0-10.49,10.94-22,21-32.08,32.25-6.21,6.94-9.79,5.55-15.33-.4-9.57-10.27-19.61-20.17-30.06-29.56-5.64-5.06-6-7.88-.21-13.45,25.57-24.65,50.58-49.87,75.76-74.93,2-2,3.7-4.35,5.54-6.54Z"/><path class="cls-1" d="M49.14,299.83c28.12-25.16,53.92-52.66,80.66-79.2,6.23-6.17,9.58-7.75,16-.31A370.51,370.51,0,0,0,176.39,251c5.35,4.89,4.54,7.58-.28,12-13.05,12.07-25.63,24.64-39.47,38.05,14,13.45,27,26.13,40.24,38.52,4,3.76,4.78,6.16.27,10.42q-17.4,16.38-33.75,33.83c-4.54,4.85-6.94,3.93-11.17-.33-24.78-25-49.86-49.72-74.89-74.47-2.55-2.53-5.46-4.7-8.2-7Z"/><path class="cls-1" d="M300.17,375.3c-42.81,0-75-32.81-74.88-76.35.09-40.13,33.72-72.37,75.49-72.37,41.57,0,74.43,33,74.35,74.65C375.06,342.71,342.06,375.31,300.17,375.3Z"/><path class="cls-1" d="M390.19,464.06c-2,1-4.46,1.47-6,2.95q-39.54,39-78.81,78.21c-3.71,3.72-5.95,4.56-10.15.33q-39.49-39.79-79.56-79c-3.35-3.3-3.74-5.21-.16-8.63,12.06-11.48,24-23.13,35.56-35.09,3.86-4,6.09-3.55,9.7.17,10.84,11.14,22.28,21.7,33,33,4.7,4.95,7.52,5.89,12.69.29C316.75,445.08,328.22,435,338.57,424c4.83-5.17,7.5-4.69,12.12.17,10.7,11.26,22,22,33.18,32.76,1.57,1.52,3.84,2.34,5.78,3.49Z"/><path class="cls-1" d="M550.86,301c-1.54,1.7-2.7,3.13-4,4.43-26.51,26.32-53.12,52.54-79.47,79-3.7,3.72-5.72,4.19-9.53.19-11.23-11.78-22.67-23.36-34.5-34.54-4.46-4.21-3.77-6.58.22-10.41,11.47-11,22.42-22.56,33.92-33.54,4-3.79,4.68-6,.24-10.15-11.59-10.88-22.39-22.59-34-33.48-4.72-4.43-4.27-7,.19-11.21,11.53-10.94,22.69-22.29,33.73-33.72,3.46-3.58,5.44-4.42,9.53-.3,26.29,26.53,52.93,52.72,79.44,79C548.13,297.75,549.45,299.39,550.86,301Z"/></svg>