<svg id="Layer_1" data-name="Layer 1" xmlns="http://www.w3.org/2000/svg" viewBox="0 0 600 600"><defs><style>.cls-1{fill:#fff;}</style></defs><path class="cls-1" d="M111.78,176.22c16.71-31.73,79.94-46,112.53-51.87,81.46-14.82,237.18-14.17,304.34,38.35,12.22,10.09,15.07,22.63,2.78,34.06-11.37,11-24.8,17.55-38.58,22.94-94.43,35.19-239.56,35.82-334.06.14-17.58-7.16-37.3-16.29-47-34.16Zm392.08,15.63c4.32-1.91,7.44-5.09,7.5-10.7.07-5.89-3.28-8.91-7.68-11.14-81.25-38.33-205.53-38.81-292.68-21-21.75,4.7-43.22,10.63-63.58,21.09-4.15,2.13-7.41,4.77-7.48,10.61-.08,6.11,3.27,8.92,7.58,11.17A186.92,186.92,0,0,0,190.8,208.1C279.4,229.22,388.32,243,503.86,191.85Z"/><path class="cls-1" d="M111.78,413.92c6.63-11.95,16.52-19,28.12-25.19,0,8.95,0,17.29,0,25.62,0,9.86,1.34,12.19,9.19,15.93,91,41.57,248.94,41.3,342.13,5,4.47-1.76,8.79-4,13.17-6,5.06-2.32,7.2-6.75,7.09-12.92-.15-9.61,0-17.47-.06-27.56,10.16,5.6,19.45,11.29,25.73,21.75,9.19,15.4-10.85,29.81-22.42,36.31C427,494.2,262.46,493.14,168.91,461.22c-20.43-7.26-45.79-17.32-57.13-37.84Z"/><path class="cls-1" d="M330.68,440.27c-62.18-.57-114.64-4.62-169-26.95-2.65-1.19-3.69-2.56-3.59-5.9.22-7.48.18-15,0-22.46-.08-3.55.55-4.34,3.67-3.1,20.19,8,41,13.06,62,17,85.63,14.55,183.19,13.43,265.5-17,3-1.18,4.18-1.16,4,3.13-.27,7.48-.26,15,0,22.46.12,3.48-1.14,4.67-3.7,5.81C441.36,434.21,379.21,440.28,330.68,440.27Z"/><path class="cls-1" d="M158.13,255.79c.55-3.54-2-10.14,1.07-12.65,2.18-1.79,7.52,1.52,11.43,2.66,69.66,20.79,142.67,25.63,214.71,18.92A492.71,492.71,0,0,0,488.5,243.29c4-1.28,5-.62,4.76,4.17-.31,6.28-.27,12.62.05,18.9.19,3.89-1.2,5.46-4.12,6.72-21.3,9.22-43.38,14.83-65.76,18.8-81.76,13.58-183,12.58-260.77-18.54-3.36-1.38-5.11-3-4.6-7.44C158.4,263,158.13,260,158.13,255.79Z"/><path class="cls-1" d="M340.29,386.22a140.48,140.48,0,0,1-29,.79c-50.65-3.31-102.88-7.15-150.38-28-2-.89-2.76-2.07-2.9-4.66-.93-17.28-1-17.18,12.93-12.3,93.62,30.67,225,31.05,317.79-3.16,3.81-1.47,4.5-.61,4.48,3.8-.09,15.48.06,15.6-12.59,20.3C435.15,379.7,388.52,384.55,340.29,386.22Z"/><path class="cls-1" d="M329.37,343c-60.36-.43-113.91-4.74-167.6-26.92-2.58-1.19-3.94-2.38-3.69-5.82.37-5.06-1.85-12.18.84-14.68s7.89,2.12,12,3.47c94.49,30,224,31.21,317.48-3.38,4.47-1.74,4.89-.23,4.84,4.36-.17,14.58,0,14.76-12.09,19.48C434.2,337.44,376.77,343.21,329.37,343Z"/><path class="cls-1" d="M144.43,246.58c0-11.41,0-11.44-9.68-14.09C99.18,221.82,67,235.61,61.89,276,59,294.74,59.28,294.67,75.5,294.37c3.1-.05,4.11-1.06,4.16-4.58a62.7,62.7,0,0,1,2.74-18.5c3.86-11.87,11.47-18.05,22.09-19.64,11.84-1.76,23.26.69,34.52,4.68,5.42,1.91,5.42,1.9,5.42-5Z"/><ellipse class="cls-1" cx="327.86" cy="180.78" rx="74.35" ry="12.59"/></svg>