<svg id="Layer_1" data-name="Layer 1" xmlns="http://www.w3.org/2000/svg" viewBox="0 0 600 600"><defs><style>.cls-1{fill:#d0d2d3;}.cls-2{fill:#989798;}</style></defs><path class="cls-1" d="M512.2,323q-26,0-52.08,0a15.94,15.94,0,0,1-16-15.95q0-52,0-104a16.15,16.15,0,0,1,16.16-16.16q51.53,0,103.07,0a16.84,16.84,0,0,1,16.84,16.85q0,51.24,0,102.47A16.72,16.72,0,0,1,563.48,323Q537.85,323,512.2,323Zm57.15-67.91c0-31.82-25.72-57.81-57.27-57.85a57.7,57.7,0,1,0,57.27,57.85Z"/><path class="cls-2" d="M556.54,251.68c-11-8.92-23.79-10.75-36.9-5.21l-2.23-1c-11-11.13,21.74-24,31.28-20.76-6.79-9.61-17.74-14.6-29.17-17-16.08-.73-21.46,23.26-16.66,35.84,1.67,4.59,1.7,4.47-1.63,8-1.34,1.4-2.31,1.31-3.82.39-12.22-7.2-15.52-20.79-14.82-34.18-10.13,8.1-25.25,29.93-13.67,41.37,10,6.87,20.41,10.17,32.25,5.44,4.32-1.73,4.24-1.72,7.52,1.49,3,13.58-21.7,21.07-33,19.31,8,9.76,28.78,24.33,39.77,12.76,6.89-9.45,10.73-19.67,6.13-31.08-2.66-25.77,26,6.91,20.08,24.9C551.84,285.61,566,262.59,556.54,251.68Z"/><rect class="cls-2" x="454.55" y="327.97" width="115.28" height="21.91" rx="2.52"/><rect class="cls-2" x="464.75" y="341.81" width="94.9" height="22.83" rx="2.52"/><polygon class="cls-1" points="176.12 356.92 47.35 187.1 19.64 187.1 19.64 412.9 51.02 412.9 51.02 242.34 179.81 412.9 207.51 412.9 207.51 187.1 176.12 187.1 176.12 356.92"/><polygon class="cls-1" points="218.59 397.2 214.93 412.9 239.27 412.9 291.72 187.1 267.39 187.1 218.59 397.2"/><path class="cls-1" d="M365.06,187.1H332.4L250.13,412.9h33.12l21.28-58.41h88.4l21.28,58.41h33.12Zm16.49,136H315.92L348.73,233Z"/><path class="cls-1" d="M536.24,396.59V370.17H488.16v26.42l24,15.86Zm-15.82-15.85h12V394l-12,7.93Z"/></svg>