<svg id="Layer_1" data-name="Layer 1" xmlns="http://www.w3.org/2000/svg" viewBox="0 0 600 600"><defs><style>.cls-1{fill:#d0d2d3;}.cls-2{fill:#929497;}</style></defs><path class="cls-1" d="M290.26,95.57c110.94,1.77,198.39,39.78,271.62,115.21,14.69,15.14,11.72,33.67,3.24,43.71-11,13.06-28.4,12.89-41.15.83-15-14.16-30-28.5-46.25-40.79C439.61,185.74,397,168.14,350.94,160.3c-53.6-9.13-106.09-4.29-157.28,15.11C149,192.33,110,219,76.4,254.73c-8.5,9-18.5,12.23-30,7.91-19.93-7.5-25-33.82-9.66-50.22a377.24,377.24,0,0,1,57.18-50c42.7-30.35,89.24-50.71,139.69-60C255.41,98.43,277.6,97.05,290.26,95.57Z"/><path class="cls-1" d="M468.51,348.84c-10.91.18-17.69-3-23.34-9-32.12-34.18-70.59-55.5-115.36-61.93-66.85-9.59-125.2,10.75-174,60.93-16.22,16.68-40.36,11.92-47.54-10-3.88-11.8-1.37-22.62,6.84-31.28,40.68-42.9,89.06-69.93,145.71-78.67,75-11.57,142.59,8,202.35,57.91a202.71,202.71,0,0,1,23.07,22.53c8,9.22,9.43,20.45,4.56,32.08S477.19,348.29,468.51,348.84Z"/><path class="cls-1" d="M185.36,403.61c0-9.15,3.55-16.52,9.54-22.64,23.66-24.16,51.44-39.5,84-44.09,48.28-6.81,90.14,8.18,125.67,43.62,10.09,10.07,12.7,23.82,7.39,35.77-8.39,18.84-30.77,23.27-45,8.6-13.3-13.73-28.58-23.45-46.75-27.34-33-7-61.88,1.64-86.3,26.57-16.54,16.88-42,9.92-47.57-13.17A70.78,70.78,0,0,1,185.36,403.61Z"/><path class="cls-1" d="M300,538.18c-21.83,0-38.84-18.31-38.81-41.79,0-23.2,17.06-41.51,38.56-41.47,22.09,0,39,18,39,41.49S321.91,538.17,300,538.18Z"/><path class="cls-2" d="M156.76,61.91,300,260.68,443.25,61.91h57.93L329,300.88l172.22,239H443.25L300,341.07,156.76,539.84H98.81L271,300.88,98.83,61.91Z"/></svg>