<?xml version="1.0" encoding="UTF-8"?>
<svg id="Layer_1" data-name="Layer 1" xmlns="http://www.w3.org/2000/svg" viewBox="0 0 600 600">
  <defs>
    <style>
      .cls-1 {
        fill: #e0e0df;
      }
    </style>
  </defs>
  <path class="cls-1" d="M484.47,447.1l-366.81.04c-5.74,0-12.98-5.12-15.19-8.79-2.83-4.68-1.99-14.99,1.78-19.14l42.39-46.58c8.03-8.82,14.86-19.79,14.93-32.31l.5-83.67c.38-63.49,50.25-115.1,112.1-127.11l.95-31.04c.42-13.76,11.59-23.18,23.41-23.83,13.18-.73,26.01,9.22,26.35,23.83l.72,30.93c64.53,13.32,112.23,68.41,112.57,135.01l.39,75.94c.05,10.58,4.73,21.11,11.77,28.88l46.33,51.13c2.66,2.93,3.22,12.86,1.79,16.54-1.43,3.69-7.53,10.17-13.98,10.17Z"/>
  <path class="cls-1" d="M362.65,462.93c2.55,33.85-27.84,61.11-59.62,62.38-35.76,1.44-66.44-25.24-66.35-62.31l125.97-.07Z"/>
</svg>