<?xml version="1.0" encoding="UTF-8"?>
<svg id="Layer_1" data-name="Layer 1" xmlns="http://www.w3.org/2000/svg" viewBox="0 0 600 600">
  <defs>
    <style>
      .cls-1 {
        fill: #e0e0df;
      }
    </style>
  </defs>
  <path class="cls-1" d="M489.59,451.99l-362.87.02c-5.48,0-12.75-6.37-14.31-10.35-2.03-5.17.2-14.37,4.22-18.8l44.61-49.13c5.31-5.85,10.54-16.99,10.52-24.96l-.2-74.18c-.18-67.39,45.4-124.09,112.02-136.28l.1-28.24c.05-14.58,10.18-25.51,23.85-26.12,12.54-.56,25.19,9.18,25.61,23.57l.88,30.63c63.87,13.3,110.79,67.94,111.1,133.81l.34,74.43c.04,8.44,3.7,19.6,9.3,25.85l47.55,53.12c2.93,3.27,3.84,12.8,2.46,16.46-1.53,4.04-7.53,10.17-15.18,10.17Z"/>
  <path class="cls-1" d="M439.19,467.88c-.98,36.5-29.57,60.74-61.94,61.36-33.91.66-63.96-25.91-63.45-61.65l125.4.28Z"/>
  <path class="cls-1" d="M148.51,227.73c-1.26,5.64-7.52,9.33-11.5,8.48-3.51-.76-7.46-7.06-6.43-11.88,11.17-52.26,47.63-93.91,97.53-113.21,3.82-1.48,10.65,3.14,11.32,6.33.74,3.54-2.25,9.72-6.24,11.33-43.18,17.39-74.28,52.52-84.68,98.95Z"/>
  <path class="cls-1" d="M467.7,228.65c-9.96-46.44-40.97-82.58-85.05-100.15-3.8-1.52-7.04-7.8-5.95-10.84,1.56-4.34,8.1-8.27,13.04-6.26,48.91,19.89,84.63,60.87,95.78,112.76.97,4.53-3.35,10.59-7.09,11.71-3.24.96-9.83-2.98-10.74-7.22Z"/>
  <path class="cls-1" d="M102.42,227.18c-1.69,7.55-10.07,12.49-15.38,11.34-4.7-1.02-9.98-9.45-8.6-15.9,14.95-69.94,63.75-125.68,130.52-151.5,5.11-1.98,14.25,4.21,15.15,8.47,1,4.74-3.01,13.01-8.35,15.16-57.79,23.27-99.41,70.28-113.33,132.43Z"/>
  <path class="cls-1" d="M511.76,228.38c-13.33-62.14-54.82-110.51-113.82-134.02-5.09-2.03-9.43-10.43-7.96-14.5,2.09-5.81,10.84-11.07,17.46-8.38,65.45,26.62,113.26,81.46,128.18,150.9,1.3,6.06-4.48,14.18-9.49,15.66-4.34,1.29-13.15-3.99-14.37-9.66Z"/>
</svg>