<svg id="Layer_1" data-name="Layer 1" xmlns="http://www.w3.org/2000/svg" viewBox="0 0 600 600"><defs><style>.cls-1{fill:#e0e0df;}</style></defs><path class="cls-1" d="M234.62,453.26v73.92L300,571.55l65.38-44.37V453.26Zm120.44,66.53L322.37,542V482.84h32.69Z"/><path class="cls-1" d="M365.38,124.33V28.45H337.81V141.94l16,7.41a128.18,128.18,0,0,1,0,232.7l-16,7.41v49.07h27.57V407.07a155.75,155.75,0,0,0,0-282.74Z"/><path class="cls-1" d="M262.19,438.53V389.46l-16-7.41a128.18,128.18,0,0,1,0-232.7l16-7.4V28.45H234.62v95.88a155.75,155.75,0,0,0,0,282.74v31.46Z"/><circle class="cls-1" cx="300" cy="265.42" r="102.13"/></svg>