<svg id="Layer_1" data-name="Layer 1" xmlns="http://www.w3.org/2000/svg" viewBox="0 0 600 600"><defs><style>.cls-1{fill:#a4a4a5;}.cls-2{fill:#e0e0df;}.cls-3{fill:#ee2f26;}.cls-4{fill:#48843e;}</style></defs><path class="cls-1" d="M271.57,395.61a148.37,148.37,0,0,1-15.19,13.23H431.23a116,116,0,0,0,116-116h0a116,116,0,0,0-116-116H256.38A147.25,147.25,0,0,1,271.57,190a145.31,145.31,0,0,1,0,205.6Z"/><path class="cls-2" d="M34.24,349.65a145.88,145.88,0,0,0,134.53,89.17H431.23a146,146,0,1,0,0-292H168.77A146.07,146.07,0,0,0,34.24,349.65ZM168.77,176.77A116,116,0,1,1,63,340.56c-.38-.86-.76-1.72-1.13-2.59a115.47,115.47,0,0,1-4.71-13.4q-.39-1.38-.75-2.76-1.08-4.19-1.84-8.46A116.1,116.1,0,0,1,168.77,176.77Zm378.5,116h0a116,116,0,0,1-116,116H256.38a148.37,148.37,0,0,0,15.19-13.23,145.29,145.29,0,0,0,0-205.6,147.25,147.25,0,0,0-15.19-13.24H431.23A116,116,0,0,1,547.27,292.81Z"/><rect class="cls-3" x="157.95" y="211.33" width="21.63" height="162.96" transform="translate(256.48 -33.58) rotate(45)"/><rect class="cls-3" x="157.95" y="211.33" width="21.63" height="162.96" transform="translate(495.15 380.52) rotate(135)"/><path class="cls-4" d="M501.61,244.79a8,8,0,0,1-.52.66c-.29.32-.6.61-.9.91Q447.07,299.47,394,352.6c-1.22,1.23-1.83,1.51-3.23.09q-23-23.22-46.24-46.26c-1.05-1-1.28-1.55-.06-2.72q6.33-6,12.37-12.37c1.32-1.38,2.07-1.36,3.41,0,10.2,10.32,20.49,20.54,30.7,30.84,1.11,1.12,1.66,1.27,2.88.05q45.44-45.56,90.93-91c1.34-1.34,2.05-1.48,3.42,0,3.79,4,7.77,7.83,11.66,11.74C500.42,243.48,501,244.11,501.61,244.79Z"/></svg>