<svg id="Layer_1" data-name="Layer 1" xmlns="http://www.w3.org/2000/svg" viewBox="0 0 600 600"><defs><style>.cls-1{fill:#e0e0df;}</style></defs><path class="cls-1" d="M262.28,229.72c7.36,7.5,13.87,14.18,20.44,20.8q19,19.18,38.15,38.32,22.78,22.76,45.69,45.37a15,15,0,0,0,4.84,3.19q59.07,24,118.21,47.69c3.08,1.23,4.17,2.79,4.06,6-.15,3.94.32,7.9.39,11.85.14,9-5.48,16.07-14.31,17.66-7.76,1.4-15.61,2.35-23.37,3.77a5.2,5.2,0,0,0-3.34,2.79q-6.23,16.17-12,32.52a4.94,4.94,0,0,0,.79,4c4.53,5.65,9.3,11.11,13.95,16.66,6.81,8.12,6.55,17.06-.72,24.85q-12.93,13.86-25.92,27.69c-7.37,7.84-16.34,8.56-25.07,2.11q-9.19-6.81-18.47-13.54c-.2-.15-.48-.2-.39.5-11.2,4.83-22.42,9.61-33.57,14.57a4.46,4.46,0,0,0-2.21,3c-.82,7.33-1.3,14.69-2.05,22-.91,8.79-7.35,15.08-16.15,15.48q-20.52.92-41.06,1.38c-8.92.2-15.71-5.36-17.34-14.12-1.26-6.72-2.23-13.5-3.09-20.29-.36-2.82-1.46-4.09-4.3-5-9.95-3.34-19.79-7-29.56-10.88-2.14-.84-3.43-1-5.2.62C226,533,221.13,537,216.28,541.07c-8.49,7.13-17.36,6.86-25.45-.73q-13.7-12.84-27.39-25.67c-7.8-7.35-8.6-16.16-2.3-24.74,3.67-5,7.31-10,11.1-14.89,1.38-1.78,1.44-3.06.41-5.21-5-10.41-9.74-20.94-14.41-31.5-.84-1.91-1.62-2.86-3.88-3-6.71-.35-13.39-1-20.08-1.6A17.34,17.34,0,0,1,118,416.52q-.63-19.35-1.3-38.7c-.37-10.56,5.45-17.6,15.8-19.16,6.38-1,12.74-2,19.13-2.87,2.13-.28,3-1.1,3.73-3.18,4.17-11.32,8.7-22.52,12.91-33.83a5.26,5.26,0,0,0-.63-4.34c-4.07-5.17-8.46-10.08-12.68-15.14-6.84-8.21-6.65-17.06.61-24.88q13-14,26.21-28c7.23-7.61,15.87-8.37,24.42-2.2q8.49,6.12,16.81,12.47c1.73,1.32,3,1.55,5.23.53,9.88-4.57,19.91-8.83,30-13,1.89-.79,3-1.44,3.06-3.77C261.32,237.35,261.83,234.24,262.28,229.72Zm41.56,228.09c36.53.19,67-29.8,67.18-66.18.21-37.26-29.66-68.09-66.06-68.19-37.66-.11-68.09,29.71-68.26,66.88A67.26,67.26,0,0,0,303.84,457.81Z"/><path class="cls-1" d="M446.21,255l-63.88,65.35Q298.11,236.9,214.42,154l64.63-64.58Z"/><path class="cls-1" d="M195.48,136.42c-11.84-12.14-24.43-24.47-36.25-37.51-3.71-4.1-6.14-9.87-7.77-15.29A45.42,45.42,0,0,1,170.84,32.4a46,46,0,0,1,55,4.12c1,.86,1.93,1.78,2.86,2.71l32,32.19Z"/><path class="cls-1" d="M461.32,270.17l31.14,95.2-91.27-33.65C421.31,311.13,441,291,461.32,270.17Z"/></svg>