<svg id="Layer_1" data-name="Layer 1" xmlns="http://www.w3.org/2000/svg" viewBox="0 0 600 600"><defs><style>.cls-1{fill:#e0e0df;}</style></defs><rect class="cls-1" x="253.44" y="165.93" width="98.32" height="35.36"/><path class="cls-1" d="M247.78,396.54H138.5V431.9H251.6A164.38,164.38,0,0,1,247.78,396.54Z"/><path class="cls-1" d="M260.88,331.62c.47-1.11.95-2.21,1.45-3.31H141.71v35.36H251A164.67,164.67,0,0,1,260.88,331.62Z"/><path class="cls-1" d="M296.59,278.8q5.73-5.7,11.9-10.75H141.71v35.36H276.2A165.21,165.21,0,0,1,296.59,278.8Z"/><path class="cls-1" d="M395.37,73.63H59.18v401.2h0v51.54H310.6A169.63,169.63,0,0,1,296,513.28a166.71,166.71,0,0,1-28.51-38.45H106V217.14H202.7V118.82H395.37V230.53q3.79-.17,7.62-.17h.19a164.5,164.5,0,0,1,44.52,6.12V73.63Z"/><path class="cls-1" d="M540.8,395.22c1.32,69.85-58.64,130.14-130.61,129.14-69.94-1-127.59-58.53-127.55-129.25.05-71.69,57.86-129.14,129.88-129.06C483.52,266.13,540.8,323.8,540.8,395.22ZM385.71,437.28c0,23,.08,46-.09,69,0,3.61,1,4.43,4.46,4.39,14.64-.2,29.29-.15,43.93,0,2.83,0,3.8-.61,3.8-3.66q-.17-69.92,0-139.83c0-3.07-1-3.64-3.78-3.61-14.64.13-29.29.22-43.93-.05-4-.08-4.5,1.24-4.48,4.76C385.78,391.26,385.71,414.27,385.71,437.28Zm26.69-151c-14.87-.2-27.82,8.89-31.23,21.93-4.1,15.69,5,31.27,20.89,35.85,17.18,4.95,35.41-4,40.25-19.77C448.18,305.2,433.5,286.55,412.4,286.26Z"/></svg>