<svg id="Layer_1" data-name="Layer 1" xmlns="http://www.w3.org/2000/svg" viewBox="0 0 600 600"><defs><style>.cls-1{fill:#e0e0df;}</style></defs><path class="cls-1" d="M225.88,362.85V463.3H125.67V362.85ZM142.5,378.57v67.81h67.11V378.57Z"/><path class="cls-1" d="M79,188.31H59.11c0-26.45-3-53.22.75-79,4.78-33.24,34.06-54.59,68.06-55,20.77-.26,41.55,0,63.27,0v21c-18.69,0-37.31-.07-55.93,0C97.54,75.33,79.14,93.92,79,132,78.9,150.2,79,168.38,79,188.31Z"/><path class="cls-1" d="M191.68,509.76v20.16c-25.78,0-51.38,2.2-76.44-.55C82.84,525.82,58.5,496,57.78,463.2c-.48-21.78-.09-43.58-.09-66.2H79c0,19.52-.11,38.64,0,57.76.25,35.91,19.12,54.77,55,55C152.64,509.85,171.32,509.76,191.68,509.76Z"/><path class="cls-1" d="M534.79,188.11H514.28c0-18.42,0-37,0-55.47q-.06-57.1-57.49-57.55c-18.06-.13-36.12,0-55,0V54.66c24.95,0,49.43-1.67,73.59.41C507,57.79,531,83.38,534.37,118,536.6,140.52,534.79,163.49,534.79,188.11Z"/><path class="cls-1" d="M260.68,394.9H245.77V379.31l14.91-.77Z"/><path class="cls-1" d="M514.28,442.44l19.25,25.95c2.46-23.23,2.08-47,3.27-71.29H514.26C514.26,412.39,514.32,427.44,514.28,442.44Z"/><path class="cls-1" d="M448,509.83c-15.1.06-30.31,0-46,0v20.39c21.35,0,42.26,1.12,62.92.25Q456.41,520.14,448,509.83Z"/><path class="cls-1" d="M150.88,251.19l32.11.12h5.5v12.87h38.18c0,3.86.05,7.45-.08,11,0,.41-1.09,1.08-1.7,1.11-3,.11-5.93.14-8.89,0-1.81-.07-2.49.45-2.41,2.35.14,3.45,0,6.9,0,10.54H201.7V276.4c-4.18,0-8.09,0-12,.09-.39,0-1,1.28-1.06,2-.1,3.53,0,7.06,0,10.77h-12c-.22-4.07-.44-8.14-.68-12.39l-12.29-.62c-.23-4.2-.45-8.13-.68-12.3l-12-.69v-12.1Z"/><path class="cls-1" d="M327.7,209.92H316V198.23H302.9v11.64H289.76c.17-3.72.33-7.37.51-11.37l12.45-.63V173h13.09V148H327.7Z"/><path class="cls-1" d="M289.48,236.31H277.83V223.16H264.94v-37.1c3.45-.16,6.8-.42,10.14-.42,1.74,0,2.26-.6,2.29-2.28.06-3.37.32-6.73.51-10.29h11.74V198H276.73c.21,4.29.4,8.27.61,12.51,3.63.16,7.06.34,10.5.44,1.25,0,2,.27,2,1.78-.05,7.49,0,15-.05,22.49a4.19,4.19,0,0,1-.34,1.15Z"/><path class="cls-1" d="M227.13,235.92h12.51V198.2H251.5V248h-25l.66-12.08Z"/><path class="cls-1" d="M340.69,121.37v25c-4,0-7.86,0-11.7-.08-.4,0-1.06-1.1-1.08-1.71-.11-3.29-.05-6.58-.05-10.23H303V121.37Z"/><path class="cls-1" d="M289.64,134.73h13v37.11c-3.71.16-7.38.4-11.05.41-.5,0-1.37-1.08-1.43-1.73-.26-2.53-.28-5.09-.36-7.64,0-.88,0-1.77,0-2.88h-12c0-3.9-.05-7.57.08-11.23,0-.33,1.23-.87,1.9-.89,3.19-.1,6.4,0,9.93,0V134.67Z"/><path class="cls-1" d="M200.52,327.31H176.61V302.56h23.91Z"/><path class="cls-1" d="M289.7,134H276.93v12.07H265V121.37h24.61v12.68Z"/><path class="cls-1" d="M137.83,352.36H125.67V315.54h12.16Z"/><path class="cls-1" d="M341.21,186.09H353v2.71c0,10.63-.05,21.26,0,31.88,0,1.77-.36,2.56-2.3,2.45-2.71-.14-5.43.05-8.14-.1-.6,0-1.64-.91-1.65-1.4-.07-11.62,0-23.23,0-34.84C340.92,186.64,341,186.49,341.21,186.09Z"/><path class="cls-1" d="M239.82,135h11.65v36.83H239.82Z"/><path class="cls-1" d="M214.7,352.29V340.56h23.86v11.73Z"/><path class="cls-1" d="M340.86,147.86c3.82,0,7.34-.06,10.85.07.44,0,1.21,1,1.21,1.6q.13,10.36,0,20.73c0,.61-.91,1.7-1.43,1.72-3.08.13-6.18.07-9.27-.09a1.93,1.93,0,0,1-1.3-1.33C340.84,163.09,340.86,155.63,340.86,147.86Z"/><path class="cls-1" d="M251.82,173h12.92c0,3.72,0,7.32,0,10.92a1.49,1.49,0,0,1-1,1.05c-3.6.08-7.2.05-10.79.05C252.53,180.91,252.19,177.09,251.82,173Z"/><path class="cls-1" d="M251.69,352.9v12.48H239.87v-13l11.89.55S251.69,352.9,251.69,352.9Z"/><path class="cls-1" d="M137.18,289.28H125.67V277.5c3.74,0,7.49-.05,11.23.07.39,0,1.1,1.08,1.07,1.62C137.81,282.46,137.48,285.72,137.18,289.28Z"/><path class="cls-1" d="M138.1,251.14H125.67V239.43H138c0,4,0,7.88,0,11.77Z"/><path class="cls-1" d="M188.68,352.36V340.59h11.78v11.77Z"/><path class="cls-1" d="M276.71,236.25v11.69H265V236.25Z"/><path class="cls-1" d="M239.87,426.6h11.61v11.72H239.87Z"/><path class="cls-1" d="M432.67,439.77c-3.4-3.81-6.25-7.11-9.26-10.24a3.11,3.11,0,0,0-2.62-.45,70.77,70.77,0,0,0-7.53,2.66c-7.37,3.05-14.93,5.38-23,5.48-9.52.13-19.1.64-28.55-.2-11.57-1-22.2-5.75-32.16-11.57-26.84-15.69-43.1-38.92-47.8-69.71-3.9-25.54,1.12-49.42,16.39-70.46,17.12-23.59,40.36-38,69.42-40.91,26.19-2.61,50.35,3.95,71,21.19,15.71,13.12,27.13,29.14,32.85,48.91a91.42,91.42,0,0,1,2.63,14.94c3.32,28.62-4.49,53.9-23.1,75.86q-1.72,2-3.42,4.1a3,3,0,0,0-.27.62c.29.44.6,1,1,1.45,2.15,2.82,4.32,5.64,6.72,8.76,1.31-1.11,2.52-2.08,3.68-3.12,2.72-2.46,3.95-2.64,6.61,0a78.82,78.82,0,0,1,8.21,9.12q33.21,44.54,66.22,89.23c3.92,5.31,3.85,10.27-1.12,14.56a130.48,130.48,0,0,1-19.82,14.32,13.83,13.83,0,0,1-17.39-3.38c-11.32-14.2-23.07-28.06-34.5-42.19-12.76-15.79-25.38-31.7-38-47.59-3.54-4.44-3.51-4.64.38-8.61A35.25,35.25,0,0,1,432.67,439.77ZM378.38,404c32.59.79,61.51-26.76,62.55-61.76,1-34.76-29.45-64.24-62.53-64.43-34.34-.2-62.83,28.07-63.87,62S342.68,405.26,378.38,404Z"/><path class="cls-1" d="M263.92,334.15H252.27V321H239.38V283.91c3.45-.16,6.8-.43,10.15-.43,1.73,0,2.25-.6,2.28-2.28.06-3.36.32-6.73.51-10.28h11.74v24.9H251.17c.21,4.29.41,8.28.62,12.51,3.62.16,7.06.35,10.49.44,1.25,0,2,.27,2,1.78-.05,7.5,0,15-.05,22.49a4.25,4.25,0,0,1-.34,1.16Z"/><path class="cls-1" d="M277.22,438.94v12.51h37.72V463.3H265.18v-25l12.08.66Z"/><path class="cls-1" d="M314.58,444.19H302.89V432.46h11.69Z"/><path class="cls-1" d="M468.65,222.18H368.34V121.37H468.65Zm-83.4-83.9v67.15h67.59V138.28Z"/><path class="cls-1" d="M226,222.18H125.67V121.37H226Zm-83.4-83.9v67.15h67.59V138.28Z"/></svg>