<svg id="Layer_1" data-name="Layer 1" xmlns="http://www.w3.org/2000/svg" viewBox="0 0 600 600"><defs><style>.cls-1{fill:#e0e0df;}</style></defs><path class="cls-1" d="M221.14,470.87c10.56-10.59,20.84-20.76,30.92-31.12,1.82-1.87,3.49-2,5.64-1.37a152.38,152.38,0,0,0,58.81,4.67c42.47-4.74,78.35-22.88,107.12-54.66a163.16,163.16,0,0,0,39.15-77.1,161.31,161.31,0,0,0,2.16-53.39c-4.49-36.36-19.44-67.71-44.42-94.23-23.32-24.76-51.81-40.74-85-48.23a157.33,157.33,0,0,0-51.76-3.12c-31.26,3.4-59.57,14.45-84.57,33.79-29.31,22.68-48.92,51.82-59.14,87.38a168.59,168.59,0,0,0-6.1,40.91c-.09,2.55-.57,3.41-3.31,3.38q-17.64-.25-35.29,0c-2.63,0-3.1-.8-3-3.2A208.29,208.29,0,0,1,159.74,124.8a205.74,205.74,0,0,1,85.47-47.43A213.94,213.94,0,0,1,285,70.62a204.88,204.88,0,0,1,30.22-.41,200.11,200.11,0,0,1,53.85,11.64,207.88,207.88,0,0,1,86.86,59,205.91,205.91,0,0,1,51.2,152,201.79,201.79,0,0,1-41.51,109.83c-30.71,40.28-71,66.3-120.5,77.71a195,195,0,0,1-64.21,4C260.65,482.4,240.92,477.58,221.14,470.87Z"/><polygon class="cls-1" points="245.57 451.6 308.83 419.45 294.28 390.84 201.9 437.79 248.86 530.18 277.98 515.38 245.57 451.6"/><path class="cls-1" d="M261,362.94a11.53,11.53,0,0,1,0-1.95c1-5.17-1.26-8.6-5.74-10.77a44.52,44.52,0,0,1-4.24-2.6c-2.11-1.34-4.47-1.07-6.65,0a65.14,65.14,0,0,0-6.31,3.43c-3.89,2.39-6.94,2.08-10.14-1.26-1.86-1.95-3.65-4-5.5-5.92a5.33,5.33,0,0,1-.71-6.71c1.67-3.1,3.53-6.09,5.35-9.1a5.14,5.14,0,0,0,.17-5.57c-1.47-2.47-2.82-5-4.15-7.55a5.64,5.64,0,0,0-5.28-3.43c-2.86,0-5.73-.18-8.6-.31-4.47-.21-6.29-1.87-7.14-6.2-.51-2.55-1.25-5.06-1.92-7.58-.84-3.17.82-5.19,3.21-6.73a78.47,78.47,0,0,1,8.13-4.72,5.51,5.51,0,0,0,3.19-5.12c.2-3,.19-6,.3-8.95.16-4.07-3.18-5.33-5.7-7.18-1.63-1.2-3.46-2.12-5.16-3.22a5.94,5.94,0,0,1-2.5-7.46c1.05-2.85,1.23-5.91,2.51-8.74a6.17,6.17,0,0,1,5.94-4.08c4.07-.12,8.13.26,12.2-.22a3.61,3.61,0,0,0,3.24-2.56c.58-3,2.6-5,4.06-7.47a5.71,5.71,0,0,0,0-5.85c-1.42-2.92-2.69-5.94-4.38-8.69-1.83-3-1.12-5.32,1.06-7.5,2.37-2.36,4.83-4.62,7.31-6.85,1.89-1.71,3.86-1.79,6.06-.32,2.76,1.83,5.65,3.48,8.54,5.11a6.19,6.19,0,0,0,6.63.09c2.41-1.55,5.09-2.61,7.47-4.18a6.45,6.45,0,0,0,3-5.35c.11-3.08.34-6.17.28-9.24-.08-3.53,2.07-5.39,5.21-6.22,2.76-.74,5.59-1.17,8.34-2.06,3-1,5.68.92,7.51,4.74a47,47,0,0,0,4.48,7.67,6.45,6.45,0,0,0,5.45,2.79,58.89,58.89,0,0,1,6.65.16c2.9.33,4.81-1.18,6.31-3.24a84.62,84.62,0,0,0,5.11-7.95,5.63,5.63,0,0,1,6-3c3.81.4,7.28,2.05,10.89,3.15,2,.59,2.61,2.58,2.7,4.51a57.79,57.79,0,0,1,0,7.56c-.38,4.53.9,7.8,5.27,9.93,3.64,1.76,6.59,5.51,11.29,3.35a49.88,49.88,0,0,0,6.07-3.26c4.34-2.78,7.16-2.59,10.78,1,1.76,1.77,3.49,3.57,5.15,5.43,2.14,2.4,2,5.79-.12,9a66.28,66.28,0,0,0-3.51,5.65c-1.37,2.61-2.38,5.34-.36,8.13,1.69,2.34,2.55,5.13,4.27,7.48a5.49,5.49,0,0,0,4.67,2.4c3.15.11,6.29.19,9.43.4a6,6,0,0,1,5.68,4.1,46.28,46.28,0,0,1,2.23,10.36c.42,3-1,4.92-3.57,6.32-2.91,1.59-5.74,3.32-8.53,5.12a5.15,5.15,0,0,0-2.5,4.71,23,23,0,0,1-.08,5.31c-1.1,5.42,1.81,8.34,6,10.63a48.34,48.34,0,0,1,4.93,3.08c3.08,2.16,3.85,5.14,2.28,9.09a35.22,35.22,0,0,0-1.73,5.6,6.75,6.75,0,0,1-7,5.53c-2.41,0-4.83.12-7.22-.09-3.71-.33-6.43.9-8.14,4.33a34.7,34.7,0,0,1-2.86,4.76c-2.2,3-1.46,5.94-.05,8.89.93,1.92,1.86,3.85,2.93,5.68,2.3,3.93,2.33,5.68-.66,8.93a39.5,39.5,0,0,1-7.76,7.06,4,4,0,0,1-4.61.14c-3.05-1.7-6.12-3.37-9.1-5.22a6.63,6.63,0,0,0-6.9-.15c-2.67,1.44-5.28,3-7.94,4.49-1.65.91-1.74,2.6-1.93,4.11-.39,3-.57,6.13-.8,9.2-.39,5.12-1.83,6.73-6.78,7.57a29,29,0,0,0-6.46,1.52c-2.68,1.11-4.8-.29-6.25-2.28a58.56,58.56,0,0,1-4.77-8.14c-1.54-3.06-3.75-4.69-7.21-4.52a15.2,15.2,0,0,1-4.16-.11c-4.93-1.12-7.56,1.73-9.83,5.45a69,69,0,0,1-4.42,6.73,4.92,4.92,0,0,1-4.61,1.89c-4.12-.22-7.77-2.36-11.79-3.06a3.36,3.36,0,0,1-2.56-3.53c.11-2.14,0-4.29,0-6.44Zm36.91-23.22c34.36-.37,60.51-27.88,60.45-61.38-.06-33.74-27.39-62.91-64.42-61-29.85,1.56-57.21,27.22-56.77,62.15C237.6,312.64,265.1,339.92,297.93,339.72Z"/><circle class="cls-1" cx="297.56" cy="278.49" r="45.27"/></svg>