<svg id="Layer_1" data-name="Layer 1" xmlns="http://www.w3.org/2000/svg" viewBox="0 0 600 600"><defs><style>.cls-1{fill:#e0e0df;}</style></defs><path class="cls-1" d="M157.93,434.62l17.55-133.88c1.56-11.9-10.7-20.88-22.19-16.27l-39.48,15.84c-3.93-47,5.48-98.87,49.43-142.36C306.67,16,430.52,117.22,430.52,117.22c-83.29-78.41-218.6-74.9-302.22,7.84-53.81,53.25-73,126.35-57.74,192.59l-43.67,17.5c-11.5,4.61-13.76,19.4-4.09,26.8l108.86,83.2C141.56,452.71,156.33,446.79,157.93,434.62Z"/><path class="cls-1" d="M442.56,166.12,424.24,299.9c-1.63,11.88,10.58,20.93,22.1,16.39l39.57-15.61c3.66,47-6.05,98.83-50.25,142.07-144.25,141.11-267.51,39.19-267.51,39.19,82.84,78.89,218.17,76.16,302.26-6.1,54.12-52.94,73.76-125.92,58.85-192.25L573,266.34c11.52-4.54,13.86-19.33,4.24-26.77L468.89,155.74C459,148.12,444.23,154,442.56,166.12Z"/></svg>