<svg id="Layer_1" data-name="Layer 1" xmlns="http://www.w3.org/2000/svg" viewBox="0 0 600 600"><defs><style>.cls-1{fill:#e0e0df;}</style></defs><path class="cls-1" d="M163.89,435.75c0,5.26.06,10.51,0,15.77-.17,12.38,1.75,10.71-10.86,10.83-8.23.07-16.46-.11-24.68.07-3.83.09-5.26-1.15-5.24-5.18q.21-45.76,0-91.52c0-4.14,1.2-5.61,5.46-5.59,30.51.14,61,0,91.52.2,1.75,0,5,1.93,5,3,.37,12.19.23,24.4.23,37.61H192.18c2.25,3.18,3.19,5.06,4.61,6.45,42.48,41.46,92.74,55,148.88,36.14,126.94-39.3,130.81-221.23,7.4-268.93-4.25-1.71-5.72-3.88-5.57-8.39.58-11.77-.46-23.56.54-35.32C484,161.39,538.32,352.48,416.2,451c-72.2,60.79-185.61,52.68-249.88-16Z"/><path class="cls-1" d="M325,187.63q0,34,0,68c0,8.71-2.39,11.07-11,11.09-9.62,0-19.25.07-28.87,0-7.08-.06-9.83-2.72-9.84-9.9q-.08-69.18,0-138.36c0-7.44,2.85-10.28,10.15-10.36q14.73-.16,29.48,0c7.29.08,10.08,2.92,10.1,10.38C325.05,141.51,325,164.57,325,187.63Z"/><path class="cls-1" d="M243.35,132.61c2.19,8.67,4.27,16.74,6.28,24.82,3.51,14.15,3.34,13.84-9.39,20.17-8.56,4.27-16.53,9.71-24.93,14.33-1.62.9-5,1.37-5.88.44-8.4-8.79-16.44-17.93-25.18-27.63A179.88,179.88,0,0,1,243.35,132.61Z"/><path class="cls-1" d="M167.34,181.14c8.31,9.25,16.67,18.39,24.74,27.79.76.88.18,3.71-.68,5.07-7,11-14.28,21.72-21.11,32.78-1.8,2.91-3.32,3.34-6.24,2.24-9.76-3.67-19.57-7.21-29.39-10.7-2.83-1-4.62-2.09-3-5.6a187.28,187.28,0,0,1,33.14-49.89A16,16,0,0,1,167.34,181.14Z"/><path class="cls-1" d="M123.14,259.18c11.56,4.18,22.88,8.14,34.05,12.51,1.3.52,2.49,3.37,2.4,5.07q-1,19.2-2.69,38.36c-.14,1.67-1.78,4.38-3.07,4.6-10.45,1.8-21,3.1-31.48,4.61-3.9.56-6-.73-6.26-5-1-19.58.52-38.9,5.68-57.86A14,14,0,0,1,123.14,259.18Z"/></svg>