<svg id="Layer_1" data-name="Layer 1" xmlns="http://www.w3.org/2000/svg" viewBox="0 0 600 600"><defs><style>.cls-1{fill:#e0e0df;}</style></defs><polygon class="cls-1" points="260.21 296.12 212.29 273.93 260.21 252.29 260.21 229.29 186.69 263.31 186.69 285.23 260.21 319.1 260.21 296.12"/><polygon class="cls-1" points="318.85 211.94 254 350.93 274.99 350.93 339.84 211.94 318.85 211.94"/><polygon class="cls-1" points="339.79 229.29 339.79 252.29 387.71 273.93 339.79 296.12 339.79 319.1 413.31 285.23 413.31 263.31 339.79 229.29"/><path class="cls-1" d="M221.14,470.87c10.56-10.59,20.84-20.76,30.92-31.12,1.82-1.87,3.49-2,5.64-1.37a152.38,152.38,0,0,0,58.81,4.67c42.47-4.74,78.35-22.88,107.12-54.66a163.16,163.16,0,0,0,39.15-77.1,161.31,161.31,0,0,0,2.16-53.39c-4.49-36.36-19.44-67.71-44.42-94.23-23.32-24.76-51.81-40.74-85-48.23a157.33,157.33,0,0,0-51.76-3.12c-31.26,3.4-59.57,14.45-84.57,33.79-29.31,22.68-48.92,51.82-59.14,87.38a168.59,168.59,0,0,0-6.1,40.91c-.09,2.55-.57,3.41-3.31,3.38q-17.64-.25-35.29,0c-2.63,0-3.1-.8-3-3.2A208.29,208.29,0,0,1,159.74,124.8a205.74,205.74,0,0,1,85.47-47.43A213.94,213.94,0,0,1,285,70.62a204.88,204.88,0,0,1,30.22-.41,200.11,200.11,0,0,1,53.85,11.64,207.88,207.88,0,0,1,86.86,59,205.91,205.91,0,0,1,51.2,152,201.79,201.79,0,0,1-41.51,109.83c-30.71,40.28-71,66.3-120.5,77.71a195,195,0,0,1-64.21,4C260.65,482.4,240.92,477.58,221.14,470.87Z"/><polygon class="cls-1" points="245.57 451.6 308.83 419.45 294.28 390.84 201.9 437.79 248.86 530.18 277.98 515.38 245.57 451.6"/></svg>