<svg id="Layer_1" data-name="Layer 1" xmlns="http://www.w3.org/2000/svg" viewBox="0 0 600 600"><defs><style>.cls-1{fill:#e0e0df;}.cls-2{fill:#fff;}</style></defs><path class="cls-1" d="M209.48,367.25V189.74H387V367.25Zm89.13-171.64q-34.61,0-69.22,0c-6.92,0-12.57,4.44-13.71,11.26-.56,3.38-.26,6.9-.3,10.35,0,2.24.81,3.1,3,3.3a8.31,8.31,0,0,1,0,16.6c-2.24.21-3.06,1.06-3.06,3.3q0,53.81,0,107.62A13.7,13.7,0,0,0,229,361.7q69.39,0,138.78,0a13.34,13.34,0,0,0,13.28-10.93c.58-3.43.32-7,.38-10.51,0-2.45-.72-3.22-3.22-3.48a8.3,8.3,0,0,1-.17-16.57c2.83-.32,3.4-1,3.4-3.84q0-53.12,0-106.23c0-8.68-5.85-14.53-14.53-14.53Q332.79,195.59,298.61,195.61Z"/><path class="cls-1" d="M220.91,215.18c0-2.12-.1-4.14,0-6.14a8.31,8.31,0,0,1,8.29-7.89c2.71-.07,5.42,0,8.14,0h69.37c0,4.21,0,8.28-.05,12.36,0,.57-.62,1.19-1.06,1.7-4.75,5.57-9.56,11.09-14.24,16.72a5.57,5.57,0,0,0-1.2,3.23c-.12,6.11-.06,12.22-.06,18.47h-5.55c0-2.36-.11-4.76,0-7.15.14-2.13-.78-3.26-2.67-4.08-7-3-14-6.22-21-9.27a1.8,1.8,0,0,1-1.3-2c.08-2.24.08-4.5,0-6.74a2,2,0,0,1,1.24-2.13,8.31,8.31,0,1,0-8,0,2.12,2.12,0,0,1,1.31,2.26c-.07,3,.05,6.11,0,9.17a3.49,3.49,0,0,0,2.44,3.69c7.06,3.08,14.08,6.27,21.15,9.35a1.9,1.9,0,0,1,1.38,2.17c-.1,1.55,0,3.11,0,4.58-1.6.37-3.54.26-4.52,1.18s-1,2.86-1.5,4.67c-3-.23-6.62,1-9.72-1.76a32.73,32.73,0,0,0-4.58-3.08c-1.63-1-3.18-.81-4.11.55s-.55,3,1.09,4.13c.28.2.6.36.86.58,4.65,4,9.86,6.21,16.13,5.16a2.86,2.86,0,0,1,.71.09c0,.28.09.49.09.71,0,1.49,0,3,0,4.74h-1.72c-5.08,0-10.15,0-15.23,0a4.7,4.7,0,0,1-2.5-.81c-2.41-1.67-4.7-3.52-7.09-5.23a2.41,2.41,0,0,1-1.18-2.27c.08-2.42.09-4.85,0-7.26a2,2,0,0,1,1.28-2.1,8.32,8.32,0,1,0-8,0,2.12,2.12,0,0,1,1.27,2.28c-.06,3.11-.14,6.24.05,9.34a4.69,4.69,0,0,0,1.46,3c3.31,2.69,6.75,5.21,10.22,7.69a5,5,0,0,0,2.69.85c6.17.08,12.34,0,18.65,0v5.45c-.45,0-.94.1-1.44.1-9.29,0-18.57,0-27.86,0A2,2,0,0,1,242,280.2a8.29,8.29,0,1,0-9.28,12.06,8.36,8.36,0,0,0,9.31-4c.33-.54,1-1.24,1.52-1.25,9.91-.07,19.83-.05,29.87-.05v5.55c-3.31,0-6.65.18-10-.06a10.81,10.81,0,0,0-8.5,2.82,93.09,93.09,0,0,1-7.45,5.62,3.68,3.68,0,0,0-1.67,3.36c.07,3.18,0,6.35,0,9.52a1.78,1.78,0,0,1-1.09,1.87,8.32,8.32,0,1,0,7.73.05,1.89,1.89,0,0,1-1.16-2c.06-2.54,0-5.08.06-7.62a4.11,4.11,0,0,1,.83-1.71c.14-.23.45-.34.69-.51,2.59-1.92,4.94-4.82,7.83-5.52,4-.95,8.34-.24,12.42-.24.37,1.59.29,3.53,1.22,4.49s2.87,1,4.66,1.45c0,3.77,0,7.9,0,12,0,.48-.54,1-.91,1.41-4.79,5.62-9.64,11.18-14.36,16.86a5.85,5.85,0,0,0-1.23,3.39c-.13,5.53-.06,11.07-.06,16.6v1.78H248.58c0-.92,0-1.87,0-2.82-.07-3.1.65-6.54-.47-9.21s-4-4.61-6.21-6.82c-2.42-2.47-4.92-4.88-7.32-7.36a4.23,4.23,0,0,0-3.36-1.4c-3.39.07-6.77,0-10.24,0V242.44a14,14,0,0,0,11-14.65C231.67,222,227.55,217.16,220.91,215.18Z"/><path class="cls-1" d="M323.43,281.35v-5.47h5.21c6.29,0,12.58.05,18.87-.05a5.47,5.47,0,0,0,3.11-1.08c4.3-3.29,8.49-6.74,12.74-10.09a3.67,3.67,0,0,0,1.54-3.27c-.07-2.19,0-4.38,0-6.57a2,2,0,0,1,1.21-2.15A8.27,8.27,0,0,0,362,237.11a8.27,8.27,0,0,0-3.81,15.58,2.19,2.19,0,0,1,1.2,2c.67,4.31-.68,7.44-4.56,9.72-2.41,1.41-4.43,3.49-6.67,5.2a3.37,3.37,0,0,1-1.83.74c-7.44,0-14.88,0-22.32,0a3,3,0,0,1-.58-.13v-5.41h1.78c4.73,0,9.46,0,14.19,0,2.38,0,3.31-.95,3.32-3.36,0-5,0-10,0-15.06a1.9,1.9,0,0,1,1.17-2,8.32,8.32,0,1,0-7.88,0,2,2,0,0,1,1.23,2.14c-.07,4.09,0,8.19-.06,12.28a1.77,1.77,0,0,1-.14.41H323.51c-.71-5.25-.71-5.25-5.7-5.52a55,55,0,0,0,0-6.29,12.69,12.69,0,0,1,4.05-11.23c4.06-4.07,7.54-8.71,11.33-13.05a5,5,0,0,0,1.3-3.6c-.06-6.05,0-12.1,0-18.26h13.86c0,3.42.05,6.81,0,10.19a4.26,4.26,0,0,0,1.38,3.36c4.28,4.21,8.46,8.52,12.78,12.67a5.38,5.38,0,0,0,3.17,1.3c3.38.16,6.78.06,10.28.06v85.95c-7.11,2.27-11.35,7-10.89,14.7.39,6.76,4.53,10.8,11,12.71,0,2.07.13,4.15,0,6.21-.35,4.62-3.92,7.77-8.75,7.79-8.24,0-16.49,0-24.74,0h-52.3c0-3.24.13-6.4-.05-9.53a7.36,7.36,0,0,1,2.1-5.71c4.58-5.1,9-10.35,13.39-15.63a5.37,5.37,0,0,0,1.12-3.09c.11-5.53.05-11.07.05-16.61v-1.95h5.55v1.62c0,3.86,0,7.73,0,11.59a3.4,3.4,0,0,0,1.82,3.25c3.68,2.17,7.34,4.34,10.95,6.61a3.84,3.84,0,0,1,1.07,1.86,5.27,5.27,0,0,1,0,1.38c.18,2.53.12,4.61-2.66,6.27-3,1.81-3.64,6-2.25,9.32a8.25,8.25,0,0,0,8.76,5.06,8.37,8.37,0,0,0,7.06-6.47,8.1,8.1,0,0,0-3.89-8.87,2.46,2.46,0,0,1-1.52-2.67c.1-1.95-.08-3.92.05-5.88a3.93,3.93,0,0,0-2.31-4c-3.5-2-6.92-4.16-10.4-6.18a2,2,0,0,1-1.19-2c.07-3.57,0-7.14,0-10.55,1.65-.4,3.59-.32,4.56-1.25s.95-2.87,1.44-4.67h5.29c3.63,0,7.27-.06,10.9.05a3.4,3.4,0,0,1,2.08,1.07c.95,1,1.57,2.3,2.55,3.26a12.7,12.7,0,0,1,3.69,11.28,2.14,2.14,0,0,1-1.18,2,8.27,8.27,0,0,0,3.95,15.58A8.27,8.27,0,0,0,355,315.73a1.86,1.86,0,0,1-1.22-2.14c0-.11,0-.23,0-.34A15.88,15.88,0,0,0,349.08,299a37.58,37.58,0,0,1-3.64-4.82,3.71,3.71,0,0,0-3.35-1.7c-6.17.06-12.34,0-18.62,0v-5.46c.5,0,1-.09,1.5-.09,9.23,0,18.46,0,27.69,0a2.15,2.15,0,0,1,2.26,1.3,8.29,8.29,0,1,0,9.2-12.12,8.22,8.22,0,0,0-9.24,4.08c-.41.74-.71,1.28-1.76,1.27-9.63,0-19.26,0-28.9,0C324,281.43,323.78,281.38,323.43,281.35Z"/><path class="cls-1" d="M301.21,253.67h-5.55c0-4.27.27-8.48-.08-12.64s1-7.06,3.73-10c4.16-4.38,8-9.1,11.82-13.76a5.15,5.15,0,0,0,1.09-2.93c.12-4.32,0-8.64,0-13.1h5.47c0,.5.08,1,.08,1.61,0,4-.05,8.07,0,12.1a4.25,4.25,0,0,1-1.18,3.08c-4.8,5.53-9.58,11.07-14.27,16.69a5.29,5.29,0,0,0-1.14,3.08C301.15,243.06,301.21,248.3,301.21,253.67Z"/><path class="cls-1" d="M323.35,201.21h5.55v1.65c0,5,.05,10,0,15a4.79,4.79,0,0,1-1,2.74q-7,8.34-14.17,16.55a5.34,5.34,0,0,0-1.39,3.9c.07,4.15,0,8.29,0,12.54h-5.55c0-4.22.08-8.41,0-12.59a6.53,6.53,0,0,1,1.78-4.94c4.6-5.17,9-10.5,13.55-15.72a5,5,0,0,0,1.34-3.57c-.07-4.61,0-9.22,0-13.84Z"/><path class="cls-1" d="M268,356.08c0-4.25.28-8.47-.08-12.63s1-7.05,3.74-10c4.16-4.38,8-9.11,11.82-13.77a5.08,5.08,0,0,0,1.08-2.93c.12-4.31.05-8.64.05-13.09h5.55v1.8c0,3-.23,6,.06,9,.34,3.38-.86,5.84-3.1,8.28-4.3,4.66-8.34,9.55-12.39,14.43a5.35,5.35,0,0,0-1.13,3.08c-.11,5.23-.05,10.47-.05,15.8Z"/><path class="cls-1" d="M295.66,303.64h5.55v3.29c0,2.37,0,4.73,0,7.09,0,2.65.57,5.53-.3,7.86S297.67,326,296,328c-3.33,3.9-6.64,7.82-10,11.67a5.11,5.11,0,0,0-1.35,3.75c.07,4.19,0,8.38,0,12.66H279V352c0-3.28-.07-6.57,0-9.85a4.83,4.83,0,0,1,1-2.74q7-8.35,14.16-16.55a5.4,5.4,0,0,0,1.4-3.91C295.62,313.93,295.66,308.87,295.66,303.64Z"/><path class="cls-2" d="M375.84,223.29c-3.1,0-6.08,0-9.07,0a2.48,2.48,0,0,1-1.44-.74c-3.6-3.56-7.19-7.14-10.73-10.75a2.59,2.59,0,0,1-.76-1.6c-.07-2.93,0-5.86,0-8.91h5.55a47.5,47.5,0,0,0,0,4.92,4.93,4.93,0,0,0,1.08,2.73q3.7,4,7.69,7.69a5,5,0,0,0,2.74,1.09,44.65,44.65,0,0,0,4.93.05Z"/><path class="cls-2" d="M243.06,356.11h-5.55c0-1.71.11-3.42,0-5.11a4.67,4.67,0,0,0-1.05-2.58c-2.48-2.64-5-5.22-7.69-7.69a5.07,5.07,0,0,0-2.73-1.11,45.17,45.17,0,0,0-5-.05V334c3.09,0,6.23,0,9.37,0a1.76,1.76,0,0,1,1,.59c3.68,3.65,7.35,7.3,11,11a2.41,2.41,0,0,1,.67,1.47C243.09,350,243.06,353,243.06,356.11Z"/><path class="cls-2" d="M375.86,212c-2.72.63-4.95.18-6.6-2.15a8.8,8.8,0,0,0-2.07-2.06c-2.35-1.65-2.74-3.9-2.16-6.5C371.13,200.08,376.94,204.13,375.86,212Z"/><path class="cls-2" d="M231.82,356.11c-7.69.48-11.58-3.45-10.79-10.89,2.34-.3,4.6-.51,6.24,1.85a10.65,10.65,0,0,0,2.55,2.55C232.14,351.27,232.32,353.51,231.82,356.11Z"/><path class="cls-1" d="M259.65,214.89a2.76,2.76,0,1,1-2.84-2.67A2.9,2.9,0,0,1,259.65,214.89Z"/><path class="cls-1" d="M339.91,239.88a2.76,2.76,0,1,1,2.81-2.71A2.88,2.88,0,0,1,339.91,239.88Z"/><path class="cls-1" d="M245.81,245.35a2.76,2.76,0,1,1-2.84-2.68A2.91,2.91,0,0,1,245.81,245.35Z"/><path class="cls-2" d="M364.87,245.35a2.76,2.76,0,1,1-2.84-2.68A2.9,2.9,0,0,1,364.87,245.35Z"/><path class="cls-1" d="M234.81,281.44a2.76,2.76,0,1,1-2.82,2.69A2.88,2.88,0,0,1,234.81,281.44Z"/><path class="cls-2" d="M364.87,284.11a2.76,2.76,0,1,1-2.83-2.68A2.89,2.89,0,0,1,364.87,284.11Z"/><path class="cls-1" d="M248.53,325.71a2.76,2.76,0,1,1,2.82-2.7A2.87,2.87,0,0,1,248.53,325.71Z"/><path class="cls-2" d="M351,325.71A2.76,2.76,0,1,1,353.8,323,2.9,2.9,0,0,1,351,325.71Z"/><path class="cls-2" d="M331.65,342.35a2.76,2.76,0,1,1-2.74-2.77A2.9,2.9,0,0,1,331.65,342.35Z"/><path class="cls-1" d="M221.14,470.87c10.56-10.59,20.84-20.76,30.92-31.12,1.82-1.87,3.49-2,5.64-1.37a152.38,152.38,0,0,0,58.81,4.67c42.47-4.74,78.35-22.88,107.12-54.66a163.16,163.16,0,0,0,39.15-77.1,161.31,161.31,0,0,0,2.16-53.39c-4.49-36.36-19.44-67.71-44.42-94.23-23.32-24.76-51.81-40.74-85-48.23a157.33,157.33,0,0,0-51.76-3.12c-31.26,3.4-59.57,14.45-84.57,33.79-29.31,22.68-48.92,51.82-59.14,87.38a168.59,168.59,0,0,0-6.1,40.91c-.09,2.55-.57,3.41-3.31,3.38q-17.64-.25-35.29,0c-2.63,0-3.1-.8-3-3.2A208.29,208.29,0,0,1,159.74,124.8a205.74,205.74,0,0,1,85.47-47.43A213.94,213.94,0,0,1,285,70.62a204.88,204.88,0,0,1,30.22-.41,200.11,200.11,0,0,1,53.85,11.64,207.88,207.88,0,0,1,86.86,59,205.91,205.91,0,0,1,51.2,152,201.79,201.79,0,0,1-41.51,109.83c-30.71,40.28-71,66.3-120.5,77.71a195,195,0,0,1-64.21,4C260.65,482.4,240.92,477.58,221.14,470.87Z"/><polygon class="cls-1" points="245.57 451.6 308.83 419.45 294.28 390.84 201.9 437.79 248.86 530.18 277.98 515.38 245.57 451.6"/></svg>