<svg id="Layer_1" data-name="Layer 1" xmlns="http://www.w3.org/2000/svg" viewBox="0 0 600 600"><defs><style>.cls-1{fill:#e0e0df;}</style></defs><path class="cls-1" d="M408.35,398.84c-4.63-6.43-5.52-11.8-4.28-17.65,7-33.29,3.79-65-10.93-94.35-22-43.78-58.28-70.1-108.41-78.39C268.08,205.7,260.91,189.36,271,176c5.42-7.2,12.9-10.19,21.45-8.89,42.41,6.44,78.55,24.05,107.23,54.16,38,39.88,54.33,88.22,49.37,144.49a148.12,148.12,0,0,1-3.85,23.07c-2.17,8.59-8.28,14.09-17.22,16S412.27,403.77,408.35,398.84Z"/><path class="cls-1" d="M258.4,252.93a22.61,22.61,0,0,1,17.43-3.71C300,253.3,320.67,263.48,336.89,281,361,306.89,369.37,338,363,373.86c-1.81,10.19-8.92,17.44-18.24,19.23-14.69,2.81-26.6-8.68-23.75-23.22,2.66-13.61,2.12-26.74-3.1-39.16-9.47-22.55-26.62-36.17-51.58-40.38-16.9-2.85-23.31-20.88-11.87-33.78A48.56,48.56,0,0,1,258.4,252.93Z"/><path class="cls-1" d="M225.77,376.94c-9.05-13-5.19-30.72,8.8-40.42,13.83-9.6,31.79-7,40.67,5.77,9.13,13.16,5.44,30.71-8.52,40.44S234.85,390,225.77,376.94Z"/><path class="cls-1" d="M89.15,215.66c13.48,12.2,26.43,24.08,39.61,35.71,2.38,2.1,2.61,4.13,2,6.76a185.33,185.33,0,0,0-2.2,71.69c8.27,51.29,32.42,93.78,72.71,126.83a198.35,198.35,0,0,0,95.93,43,196.16,196.16,0,0,0,64.95-.54c43.88-7.6,81.06-27.61,111.78-59.5,28.69-29.77,46.41-65.32,53.53-106.11a191,191,0,0,0,.73-63c-6-37.76-21.07-71.49-46-100.7-29.27-34.24-65.81-56.33-109.59-66.63a204.91,204.91,0,0,0-50-5c-3.09.05-4.17-.49-4.29-3.81q-.75-21.43-2.09-42.85c-.2-3.19.79-3.81,3.7-3.88a253.21,253.21,0,0,1,185.86,73.06,250,250,0,0,1,62.63,101,258.66,258.66,0,0,1,10.56,48,247.2,247.2,0,0,1,2.28,36.67,243,243,0,0,1-10.95,66.06,252.64,252.64,0,0,1-66.54,109,250.36,250.36,0,0,1-181.57,71.15q-74.53-1.78-135.8-43.9c-50.72-34.91-84.7-82.31-101.48-141.71a237.52,237.52,0,0,1-8.7-77.73C77.48,264.32,82.17,240.08,89.15,215.66Z"/><polygon class="cls-1" points="113.99 244.19 156.77 319.1 190.65 299.75 128.17 190.35 18.77 252.83 38.47 287.32 113.99 244.19"/></svg>