<svg id="Layer_1" data-name="Layer 1" xmlns="http://www.w3.org/2000/svg" viewBox="0 0 600 600"><defs><style>.cls-1{fill:#e0e0df;}</style></defs><path class="cls-1" d="M487.56,300.05c-4.4,4.89-7.75,9-11.5,12.73-76.17,75.61-152.61,150.94-228.31,227-10.63,10.69-16.44,12-27.4.53-32.24-33.82-65.12-67.11-99.09-99.21-12.82-12.12-10.83-18.91.61-29.9,33-31.64,64.41-64.83,97.46-96.37,11.42-10.89,13.44-17.2.7-29.16-33.3-31.26-64.34-64.89-97.63-96.18-13.56-12.75-12.27-20.07.53-32.21,33.14-31.44,65.2-64,96.93-96.88,9.94-10.29,15.61-12.71,27.35-.86C322.75,135.75,399.29,211,475.45,286.6,479.72,290.85,483.53,295.55,487.56,300.05Z"/></svg>