<svg id="Layer_1" data-name="Layer 1" xmlns="http://www.w3.org/2000/svg" viewBox="0 0 600 600"><defs><style>.cls-1{fill:#e0e0df;}</style></defs><path class="cls-1" d="M396.67,90.55c-12.95,13-25.55,25.44-37.9,38.14-2.24,2.3-4.29,2.43-6.91,1.69a186.85,186.85,0,0,0-72.09-5.73c-52.07,5.81-96,28-131.31,67a200,200,0,0,0-48,94.51,197.74,197.74,0,0,0-2.65,65.45c5.51,44.57,23.83,83,54.45,115.5,28.58,30.35,63.51,49.95,104.24,59.12A192.66,192.66,0,0,0,320,530.05c38.32-4.16,73-17.71,103.68-41.42,35.92-27.79,60-63.51,72.49-107.1a206.12,206.12,0,0,0,7.47-50.15c.11-3.12.7-4.18,4.05-4.14q21.63.3,43.27,0c3.22,0,3.79,1,3.73,3.91a255.37,255.37,0,0,1-82.71,183.61C441.7,542.42,406.78,562,367.16,572.89a260.18,260.18,0,0,1-48.82,8.28,249.26,249.26,0,0,1-37,.5,244.77,244.77,0,0,1-66-14.27A254.74,254.74,0,0,1,108.81,495,252.38,252.38,0,0,1,46.06,308.68c3.63-50,20.63-95,50.88-134.63C134.59,124.67,184,92.78,244.64,78.8a239.21,239.21,0,0,1,78.71-5C348.24,76.41,372.42,82.32,396.67,90.55Z"/><polygon class="cls-1" points="366.72 114.17 289.18 153.58 307.01 188.65 420.25 131.09 362.69 17.85 326.99 36 366.72 114.17"/><path class="cls-1" d="M520.31,197.08c-.45.58-.8,1.09-1.22,1.55-.68.72-1.4,1.41-2.1,2.11Q393.24,324.48,269.55,448.25c-2.85,2.85-4.26,3.51-7.53.21Q208.37,394.37,154.3,340.69c-2.45-2.44-3-3.62-.14-6.34Q168.91,320.3,183,305.53c3.08-3.21,4.83-3.18,7.94,0,23.76,24,47.75,47.85,71.53,71.86,2.59,2.61,3.87,3,6.7.12Q375,271.36,481,165.38c3.12-3.13,4.78-3.46,8-.08,8.83,9.33,18.09,18.25,27.17,27.35C517.52,194,518.82,195.5,520.31,197.08Z"/></svg>