<svg id="Layer_1" data-name="Layer 1" xmlns="http://www.w3.org/2000/svg" viewBox="0 0 600 600"><defs><style>.cls-1{fill:#e0e0df;}</style></defs><path class="cls-1" d="M253.63,346.16c11.93-13.63,21.14-25.27,31.51-35.78C323.54,271.44,362.3,232.86,401,194.2c4.62-4.62,9.2-9.38,14.38-13.31,14.09-10.67,32.18-9.81,44,1.64,12.2,11.85,13.51,31.2,2.09,45.37-6.68,8.29-14.71,15.51-22.27,23.07q-76.87,77-153.82,153.84c-23.11,23.06-40.87,23.3-64.31.59q-35.87-34.74-71.1-70.12c-17.3-17.34-18.82-37.61-4.43-51.83,14.69-14.52,33.52-12.87,51.48,5S232.55,324.68,253.63,346.16Z"/><path class="cls-1" d="M429.41,554a282.84,282.84,0,0,0,62-41.09l-38.14-38.14a234.92,234.92,0,0,1-43.84,30.84Z"/><path class="cls-1" d="M371.42,522.05c-16.66,5.49-52.23,10.8-52.23,10.8v49.3a281.74,281.74,0,0,0,71.71-12.79Z"/><path class="cls-1" d="M174.53,44a282.68,282.68,0,0,0-57.47,35.87l36.34,36.34a234.51,234.51,0,0,1,40.34-25.57Z"/><path class="cls-1" d="M232.37,75.52a234.68,234.68,0,0,1,45.35-8.45V18a282.27,282.27,0,0,0-64.41,11.24Z"/><path class="cls-1" d="M531.83,300a234,234,0,0,1-7.26,57.89l52.56,20.83A282.48,282.48,0,0,0,588.27,300C588.27,148.48,469,24.84,319.19,17.85V67.13C438.4,77.86,531.83,178,531.83,300Z"/><path class="cls-1" d="M27.69,205.62a280.53,280.53,0,0,0-14.6,64.28H66a232.92,232.92,0,0,1,10.39-45Z"/><path class="cls-1" d="M93.2,187a234.6,234.6,0,0,1,30-42.33L86.68,108.11a283.33,283.33,0,0,0-42.26,59.53Z"/><path class="cls-1" d="M518.52,400.11,510.74,397a234.32,234.32,0,0,1-29,47.51l38.85,38.85a282.46,282.46,0,0,0,42.06-65.78Z"/><path class="cls-1" d="M72.24,361.3a234,234,0,0,1-7.84-49.93H11.73a282.19,282.19,0,0,0,11.71,70Z"/><path class="cls-1" d="M112,441.7a233.86,233.86,0,0,1-25.31-41.48L38.29,420.1A283.09,283.09,0,0,0,74.5,477.8Z"/><path class="cls-1" d="M198.64,565.89A281.24,281.24,0,0,0,277.72,582V533A232.75,232.75,0,0,1,219,520.14Z"/><path class="cls-1" d="M181.37,502.75a234.59,234.59,0,0,1-41.46-30.4L103,508a284.23,284.23,0,0,0,57.79,41.08Z"/></svg>