<svg id="Layer_1" data-name="Layer 1" xmlns="http://www.w3.org/2000/svg" viewBox="0 0 600 600"><defs><style>.cls-1{fill:#e0e0df;}</style></defs><path class="cls-1" d="M86.75,127.7V472.3a62,62,0,0,0,62,62h96.12v-114c-1.58.06-3.17.1-4.76.1a120.4,120.4,0,1,1,0-240.8c1.59,0,3.18,0,4.76.1v-114H148.79A62,62,0,0,0,86.75,127.7Z"/><circle class="cls-1" cx="240.15" cy="300" r="85.45"/><path class="cls-1" d="M410.14,440.51c-.15-9.1,2.54-14.75,7.55-19.46,28.49-26.77,46.26-58.83,51.62-96.15,8-55.73-9-104.36-50.79-145.08-13.9-13.52-9.93-33.64,8.29-39.62,9.85-3.23,18.86-1.15,26.08,5.69,35.76,33.91,58.29,74.24,65.57,121.46,9.65,62.54-6.66,118.86-48.27,168.67a171.18,171.18,0,0,1-18.77,19.23c-7.69,6.68-17.06,7.85-26.75,3.79S410.6,447.74,410.14,440.51Z"/><path class="cls-1" d="M364.49,204.48a26,26,0,0,1,18.87,8c20.14,19.72,32.93,42.88,36.76,70,5.67,40.25-6.83,75.13-36.36,104.75-8.4,8.41-19.86,10.59-29.82,6.16-15.71-7-19.39-25.65-7.17-37.49,11.44-11.09,19.55-23.83,22.79-39,5.87-27.48-1.37-51.58-22.14-71.94-14.07-13.78-8.28-35,11-39.64A58.85,58.85,0,0,1,364.49,204.48Z"/></svg>