<svg id="Layer_1" data-name="Layer 1" xmlns="http://www.w3.org/2000/svg" viewBox="0 0 600 600"><defs><style>.cls-1{fill:#e0e0df;}</style></defs><path class="cls-1" d="M189.37,244.49c-23.88,0-39.23,7.21-49.57,19.68A55.69,55.69,0,0,0,126.89,300c0,30.66,24.53,55.51,62.45,55.51h45.78v-111Zm-5.87,100A44.23,44.23,0,0,1,139.56,300h0a44.75,44.75,0,0,1,10-28.27,43.65,43.65,0,0,1,33.95-16.25,44.23,44.23,0,0,1,44,44.5v0a44.79,44.79,0,0,1-13.81,32.4A43.54,43.54,0,0,1,183.5,344.52Z"/><path class="cls-1" d="M418.35,244.49v111h0a54.22,54.22,0,0,0,38-15.56A55.73,55.73,0,0,0,473.11,300,55.16,55.16,0,0,0,418.35,244.49Z"/><polygon class="cls-1" points="235.04 244.49 235.02 355.51 418.35 355.51 418.35 244.49 235.04 244.49"/></svg>