<svg id="Layer_1" data-name="Layer 1" xmlns="http://www.w3.org/2000/svg" viewBox="0 0 600 600"><defs><style>.cls-1{fill:#e0e0df;}</style></defs><path class="cls-1" d="M296.32,299.14c0,56.16.07,112.32-.11,168.47,0,5.16,2.47,11.58-4.62,14.77s-11.19-1.83-16-5.51c-40.32-30.91-81.43-60.87-120.72-93-14.49-11.85-29-14.32-46.11-13.46-14.61.73-29.29.25-43.94.09-18.73-.2-28.49-9.84-28.65-28.82-.25-27.52-.22-55,0-82.55.12-19.26,8.72-28.59,28.25-29.59,15.18-.78,30.58-1.64,45.59.09,20.19,2.32,35.1-6.07,50.07-17.75,38.24-29.84,77-59,115.76-88.22,4.66-3.5,9.85-9.1,16.26-6.26,7.28,3.22,4.09,10.93,4.12,16.67C296.4,189.08,296.32,244.11,296.32,299.14Z"/><path class="cls-1" d="M564,296.06c-1.48,64-20.43,120.28-58.7,169.86-7.36,9.53-16.15,16.36-28.21,8.19-9.85-6.67-9.61-19.81-.7-31.24C543.68,356.47,545,243.37,482,156c-7.45-10.33-9.74-20.3.22-28,10.4-8.07,21-4.5,28.91,6.38C546.59,183.07,563.26,237.77,564,296.06Z"/><path class="cls-1" d="M485.87,295.22c1.38,45.25-12.29,83.64-36.29,118.8-8.11,11.87-22.35,16.86-30.08,9.39-9.06-8.76-8.71-19.4-.83-29.57,22-28.42,32.17-61.19,33.18-96.56,1-34.16-11.37-65-29.88-92.9-7.63-11.49-9.75-21.25,1.84-28.38,12.14-7.46,22.8-.92,29.83,10.35C474.81,220.33,488,256.7,485.87,295.22Z"/><path class="cls-1" d="M411.43,297.7c-1.55,24.56-6.76,46.78-19.58,66.6-5.12,7.91-12.4,13-22.64,11.47-7.8-1.13-11.15-6.21-12.87-13.45-1.61-6.73,1.86-11.33,5-16.47,18-29.92,19.09-60.76,2.14-91.09-6.86-12.28-8.44-22.51,4.67-29.12,12.18-6.13,20.84.73,27.15,12.11C405.87,256.91,409.91,277.52,411.43,297.7Z"/></svg>