<svg id="Layer_1" data-name="Layer 1" xmlns="http://www.w3.org/2000/svg" viewBox="0 0 600 600"><defs><style>.cls-1{fill:#e0e0df;}</style></defs><path class="cls-1" d="M329,300.78c0,54.85.1,109.71-.14,164.57,0,6.31,3.27,14.71-4.76,18.24-7.13,3.14-12-2.5-17.57-6.84-42.57-33-85.55-65.38-128.47-97.9a33.83,33.83,0,0,0-22-7c-19.85.4-39.73.55-59.57-.1-20.45-.67-28.93-9.15-29.27-29.31q-.7-41.56,0-83.13c.34-20.52,9.69-29,30.75-29.45,7.37-.15,15-1.15,22.09.14,36,6.52,63.18-9.5,89.61-31.33,33.85-27.94,69.1-54.22,104.39-80.35,8.95-6.63,14.66-.56,14.81,9.44.32,19.79.14,39.59.14,59.38Q329,243.94,329,300.78Z"/><path class="cls-1" d="M407,229.71c10.67-.82,15.84,6.58,21.92,12.35,10.65,10.11,21.29,28.28,31.84,28.22s21.22-18.17,31.8-28.38c2.45-2.36,4.74-4.89,7.24-7.19,8.5-7.77,17.9-7.34,26-.51,9.19,7.73,9.7,17.76,1.59,26.74-9.11,10.09-18.44,20.16-28.87,28.8s-8.8,14.62.52,22.55,17.93,17.32,26.59,26.29,10.92,19.46.8,28c-8.76,7.39-19,8.88-28.59-1.21-11.69-12.31-23.35-32-36.64-33.39-13.62-1.45-23.9,21-36.68,31.83-9.12,7.75-19.34,13.55-29.93,3.35-11-10.58-7-21,2.76-30.41,9-8.67,17.28-18,26.64-26.24,7.68-6.74,8.57-11.6.37-18.85a347.48,347.48,0,0,1-31.08-31.39c-4.59-5.24-8.29-11.59-2.85-19.78C394.84,233.8,398.93,228.59,407,229.71Z"/></svg>