<svg id="Layer_1" data-name="Layer 1" xmlns="http://www.w3.org/2000/svg" viewBox="0 0 600 600"><defs><style>.cls-1{fill:#e0e0df;}</style></defs><path class="cls-1" d="M559.28,438.62c-.09-2.13-.19-4.27-.29-6.4v-.75c-.46-5.19-1-10.41-1.66-15.58-.87-5.6-1.88-11.06-3.13-16.48-1.23-5.09-2.67-10.24-4.16-15-1.2-3.54-2.4-7.18-3.74-10.56-.85-2-1.13-4.67-4.2-4.12l-83,19.49c-2.11.52-2,2.24-1.5,3.76.57,2.33,1,4.83,1.42,7.25.29,2.33.7,4.5.91,7.05.1,1,.21,2.07.31,3.13.27,3.64.38,7.29.4,11-.07,1.52-.13,3.09-.17,4.62-.11,2.27-.24,4.59-.35,6.86,0,.17,0-1.33,0-.68-.16,1.39-.31,2.8-.46,4.19-.26,1.67-.45,3.39-.75,5-.19,1.09-.38,2.16-.56,3.21-.82,4.1-1.82,8.16-3,12.15-.17.49-.32.95-.48,1.42H556.4a2.37,2.37,0,0,0,2.54-2v0c.09-1.55.18-3.15.26-4.79C559.34,447.2,559.37,442.88,559.28,438.62Z"/><path class="cls-1" d="M528.81,325.42c2.28-1,1.28-3,.34-4.72-2.59-5.32-5.43-10.73-8.45-15.94L517,298.7l-4.15-6.39c-2.71-4-5.7-8.14-8.69-12.05a232.73,232.73,0,0,0-36-37.07c-2.51-2-5-4-7.44-5.84-1.8-1.29-3.6-3.36-5.48-1.41l-39.44,46.2c-1.27,1.52,0,3,1.29,4,1.57,1.47,3.1,3.12,4.69,4.72,2,2.19,4.1,4.44,6.07,6.79a160.13,160.13,0,0,1,15.58,21.94l1.4,2.48c1.28,2.16,2.36,4.39,3.49,6.49.77,1.6,1.5,3.13,2.26,4.7s1.32,3,1.95,4.42c.71,1.77,1.45,3.49,2.11,5.22.69,2,1.44,4,2.08,5.9s1.23,3.95,3.62,3.18Z"/><path class="cls-1" d="M281.56,206.18l2.14.31c2.6.5,5.35.92,8,1.54l27.46-54.26c-4.66-.83-9.44-1.47-14.08-2-5.39-.56-10.8-1-16.08-1.23-2-.06-4.23-.1-5.93-.14a2.43,2.43,0,0,0-2.49,2.28l-3,50.74C277.54,205.65,279.72,206,281.56,206.18Z"/><path class="cls-1" d="M380.24,250.31c1.09,1.08,2.16,2.13,3.18,3.12,1.75,1.46,4,5.51,6.16,2.66l35.31-52.43c1.4-2.32-.45-3.71-2-4.83-2.53-2-5-3.84-7.71-5.84a202.42,202.42,0,0,0-20.38-12.76L376.1,246.58C377.5,247.82,378.9,249.11,380.24,250.31Z"/><path class="cls-1" d="M215.5,212.74c2.2-.36,4.5-.55,6.67-.82,2-.13,3.88-.32,5.8-.41l4.37-.14c2.17-.25,6,1.06,6.1-2.51l-2.73-46.07c-.49-3.55-4.18-1.65-6.38-1.59-4.58.7-9.28,1.59-13.9,2.63-4.28,1-8.61,2.22-12.89,3.53a186.27,186.27,0,0,0-53.93,27.53c-2.34,1.79-4.69,3.52-6.86,5.32-1.55,1.27-3.77,2.48-2.49,4.82l17.25,28.12c1.17,1.84,2.9.75,4.31-.25,1.92-1.23,4-2.35,6-3.56,2.76-1.49,5.6-3,8.49-4.35a151.59,151.59,0,0,1,15.78-6.42,147.29,147.29,0,0,1,20.79-5.28Z"/><path class="cls-1" d="M69.83,267c-3.69,4.89-7.13,10-10.39,15.17-2.25,3.7-4.5,7.64-6.5,11.34-1,2-2,3.95-3,5.93L47.3,305c-1.78,4-3.46,8.12-5,12.15-.5,2.3-3.27,5.78-.25,7.09l17,6.24c2.93.88,3.39-2.8,4.61-4.7,1.8-3.39,3.73-6.81,5.75-10.19L72.32,311l3.29-4.87c2.15-3,4.51-6.18,6.87-9.16A179.23,179.23,0,0,1,110.63,269l3.93-3c1.62-1.47,5.72-2.9,3.71-5.53L98.92,238.79c-1.66-1.7-3.32-.21-4.65,1.17-2.11,1.93-4.12,3.93-6.26,6A207.3,207.3,0,0,0,69.83,267Z"/><path class="cls-1" d="M241.46,522.06c23,13.51,52.47,2.5,64.17-25.9a66.59,66.59,0,0,0,3.65-12.11l48.53-247.67,18.48-94.32,11.45-58.43c1.33-6.8-3.27-11.43-7.88-11.43-2.7,0-5.41,1.59-6.94,5.26l-23.3,56L219.43,446.61C207.79,474.6,217.65,508.38,241.46,522.06Zm22.81-77.87c13,0,23.52,10.49,23.52,25.76,0,27.5-47,27.71-47,0C240.76,454.68,251.29,444.19,264.27,444.19Z"/></svg>