<svg id="Layer_1" data-name="Layer 1" xmlns="http://www.w3.org/2000/svg" viewBox="0 0 600 600"><defs><style>.cls-1{fill:#03a550;}</style></defs><path class="cls-1" d="M483.8,321.18q-27,0-54.05,0a16.53,16.53,0,0,1-16.56-16.55q0-54,0-107.9A16.75,16.75,0,0,1,430,180q53.49,0,107,0a17.47,17.47,0,0,1,17.48,17.49q0,53.17,0,106.36A17.35,17.35,0,0,1,537,321.19Q510.42,321.16,483.8,321.18Zm59.32-70.49c0-33-26.7-60-59.45-60a59.89,59.89,0,1,0,59.45,60Z"/><path class="cls-1" d="M529.82,247.17c-11.47-9.27-24.69-11.16-38.29-5.42l-2.32-1.07c-11.45-11.55,22.57-25,32.46-21.55-7-10-18.41-15.15-30.27-17.67-16.69-.75-22.27,24.15-17.29,37.21,1.73,4.76,1.77,4.63-1.7,8.26-1.39,1.46-2.4,1.37-4,.41-12.69-7.47-16.12-21.58-15.39-35.47-10.52,8.41-26.21,31.07-14.18,42.93,10.39,7.14,21.17,10.56,33.47,5.65,4.48-1.79,4.4-1.79,7.8,1.54,3.07,14.11-22.52,21.88-34.25,20.06,8.31,10.12,29.87,25.24,41.27,13.24,7.16-9.81,11.14-20.42,6.37-32.27-2.76-26.75,26.95,7.18,20.84,25.85C524.94,282.38,539.63,258.49,529.82,247.17Z"/><rect class="cls-1" x="423.97" y="327.97" width="119.66" height="22.75" rx="2.62"/><rect class="cls-1" x="434.55" y="342.33" width="98.5" height="23.69" rx="2.62"/><path class="cls-1" d="M174.2,302.61c-11.13-9.42-26.3-16.85-45.07-22.09l-2.66-.8c-20-6-45-13.36-45-38.42,0-20.75,20.08-31.6,39.91-31.6,18.66,0,33,6.66,45.68,13.86l3.47,2,15-24.87-3.57-2.1c-16-9.4-33.81-18.59-60.44-18.59-19,0-36.72,6.23-50,17.53-13.54,11.52-21,27.07-21,43.8,0,32.19,22,55,63.6,66,14.79,3.87,26.68,8.86,35.35,14.83,11,7.59,16.72,16.81,16.92,27.37,0,22.53-20.28,39.51-47.13,39.51h-.13c-18.52-.44-37.38-6.44-54.56-17.36L61,369.41,45.59,395.54l3.22,2.15c21.6,14.4,46.85,22.34,71.1,22.34,29.09,0,47.16-12,57.2-22a69.18,69.18,0,0,0,20.25-48.51v-.18C196.53,330.63,188.73,314.91,174.2,302.61Z"/><polygon class="cls-1" points="206.17 185.37 206.17 214.47 286.94 214.47 286.94 414.66 316.05 414.66 316.05 214.47 396.82 214.47 396.82 185.37 206.17 185.37"/><path class="cls-1" d="M507.29,396.59V370.17H459.21v26.42l24,15.86Zm-15.82-15.85h12V394l-12,7.93Z"/></svg>