<svg id="Layer_1" data-name="Layer 1" xmlns="http://www.w3.org/2000/svg" viewBox="0 0 600 600"><defs><style>.cls-1{fill:#e0e0df;}</style></defs><path class="cls-1" d="M25.05,342c-1.55-12.9-1.08-26,0-39,.81-9.61,3.18-19,4.82-28.52C48.65,165.2,150.21,77.29,260.79,75a30.73,30.73,0,0,1,.86,4.55c3.22,73,6.73,146,9.3,219,.53,15,3,28.3,11.18,41.24,13,20.49,24.46,42,36.57,63l77,133.92c-3.36,2-6,3.73-8.83,5.22-45.47,24.2-94.49,33.24-144.81,26.06C146.5,554.31,79,501.77,42.66,412.09A274.87,274.87,0,0,1,25.05,342Z"/><path class="cls-1" d="M575.94,320.05c-43.43-1-86.86-1.87-130.29-3.06-46.28-1.27-92.54-2.86-138.81-4.29-3.62-.11-7.25,0-13.08,0V30c24.48-1.43,49.67,2.58,73.75,10.51C484.63,79.09,552.84,160,573.15,281.48c1.32,7.91,1.88,16,2.79,23.94ZM323.42,283.24l220.11,6.83c-11.7-125-117.46-218.73-220.11-227.39Z"/><path class="cls-1" d="M531.16,338.06c3.74,66.79-34.11,150.07-101,192.86L317.46,338.06Z"/></svg>