<svg id="Layer_1" data-name="Layer 1" xmlns="http://www.w3.org/2000/svg" viewBox="0 0 600 600"><defs><style>.cls-1{fill:#e0e0df;}</style></defs><path class="cls-1" d="M299.25,175.68a127.07,127.07,0,0,0,0,254.14c70.78,0,126.85-57.09,127.16-127C426.39,232.77,369.23,175.52,299.25,175.68ZM222.2,302.52c.14-42.35,34.82-77,77.12-76.83.46,0,.89.06,1.34.07V379.68c-.46,0-.9.07-1.36.07C255.52,379.78,222.07,344,222.2,302.52Z"/><path class="cls-1" d="M443.63,188.15c1.1,1.1,1.67,1.07,2.75,0q23.5-23.61,47.1-47.14c4.62-4.62,9.21-9.27,13.87-13.86.87-.85.92-1.34,0-2.18-1.74-1.6-3.36-3.32-5-5l-28.13-28.1c-.39-.38-.69-.89-1.34-1-.38.36-.8.73-1.19,1.13q-30.41,30.44-60.84,60.86c-1.11,1.11-.9,1.64.08,2.61Q427.31,171.73,443.63,188.15Z"/><path class="cls-1" d="M152.87,189.32c.95,1,1.4.86,2.29,0q16.44-16.53,33-33c1.1-1.09.91-1.61-.08-2.59q-16-16-32-32.07-14.44-14.46-28.89-28.89c-.35-.35-.72-.67-1.14-1-.43.41-.85.78-1.24,1.17q-16.5,16.48-33,33c-1,1-1,1.46,0,2.43Q122.36,158.74,152.87,189.32Z"/><path class="cls-1" d="M119.33,323.92q-.1-23.24,0-46.46c0-1.47-.37-1.81-1.81-1.81-14.31.06-28.62,0-42.92,0s-28.74,0-43.11,0c-1.6,0-1.9.44-1.89,2q.09,23.14,0,46.28c0,1.57.41,1.92,1.94,1.92q42.92-.07,85.84,0C118.88,325.8,119.34,325.53,119.33,323.92Z"/><path class="cls-1" d="M276,119.36q23.24-.1,46.46,0c1.41,0,1.86-.29,1.85-1.8-.07-14.36,0-28.73,0-43.09s0-28.61,0-42.91c0-1.5-.27-1.95-1.88-1.94q-23.22.11-46.46,0c-1.63,0-1.86.49-1.86,2q.08,42.9,0,85.82C274.12,118.88,274.4,119.36,276,119.36Z"/><path class="cls-1" d="M570.4,276.14c0-1.49-.26-2-1.88-1.95-14.31.07-28.61,0-42.92,0s-28.75,0-43.12,0c-1.53,0-1.93.33-1.93,1.91q.1,23.13,0,46.28c0,1.49.26,1.95,1.87,1.95q43-.09,86,0c1.52,0,1.94-.31,1.93-1.9Q570.31,299.27,570.4,276.14Z"/><path class="cls-1" d="M324.05,480.69q-23.32.06-46.67,0c-1.55,0-1.8.5-1.8,1.9.05,14.31,0,28.62,0,42.93s0,28.74,0,43.12c0,1.11,0,1.77,1.5,1.76q23.61-.09,47.23,0c1.2,0,1.41-.37,1.41-1.47q0-43.3,0-86.61C325.74,481,325.32,480.69,324.05,480.69Z"/><path class="cls-1" d="M482.87,446.43l-35.93-35.87c-.3-.3-.61-.58-1-.92-.43.4-.8.72-1.14,1.07q-16.57,16.56-33.16,33.1c-.94.93-.88,1.39,0,2.3q30.6,30.51,61.11,61.11c1,1,1.5.88,2.44-.06q16.38-16.49,32.88-32.84c1.12-1.11,1.08-1.65,0-2.72C499.66,463.25,491.28,454.83,482.87,446.43Z"/><path class="cls-1" d="M156.25,411.74c-1-1-1.52-.88-2.46.07-6.61,6.68-13.28,13.29-19.92,19.93L92.69,472.89c-.66.66-1.19,1.07-.22,2q16.89,16.77,33.68,33.62c.26.25.54.48.87.78.43-.39.8-.7,1.14-1.05q30.6-30.61,61.23-61.22c.91-.9.8-1.35,0-2.18Q172.76,428.35,156.25,411.74Z"/></svg>