<svg id="Layer_1" data-name="Layer 1" xmlns="http://www.w3.org/2000/svg" viewBox="0 0 600 600"><defs><style>.cls-1{fill:#e0e0df;}</style></defs><path class="cls-1" d="M272.59,439.47h-155A3.53,3.53,0,0,0,114,443v23.73a3.54,3.54,0,0,0,3.54,3.55h10.79v17.2a3.54,3.54,0,0,0,3.55,3.54H258.25a3.54,3.54,0,0,0,3.55-3.54v-17.2h10.79a3.54,3.54,0,0,0,3.54-3.55V443A3.53,3.53,0,0,0,272.59,439.47Z"/><path class="cls-1" d="M190,527.56a3.11,3.11,0,0,0,1.83-2.85V503.06c0-1.71-.61-2.28-2.44-2.28h-20.8c-1.84-.28-2.14.57-2.14,2v21.65a2.83,2.83,0,0,0,1.83,3.13A24.27,24.27,0,0,0,190,527.56Z"/><path class="cls-1" d="M196.38,533.54a4.61,4.61,0,0,0-2.75,0,36.12,36.12,0,0,1-23.25,2.85c7,6.55,13.46,13.1,20.8,19.66a8.35,8.35,0,0,0,8.87-.86c4.28-4.27,8.87-8.54,13.46-12.82,1.83-1.71,4-3.7,5.81-5.69A35.56,35.56,0,0,1,196.38,533.54Z"/><path class="cls-1" d="M221.33,500.78H200.54c-1.84-.28-2.14.57-2.14,2v21.65a2.83,2.83,0,0,0,1.83,3.13,24.25,24.25,0,0,0,21.71,0,3.1,3.1,0,0,0,1.84-2.85V503.06C223.78,501.35,223.17,500.78,221.33,500.78Z"/><path class="cls-1" d="M290.74,262.62a23.66,23.66,0,0,0-23.68-23.69q-72.48.06-145,0a22.7,22.7,0,0,0-22.71,22.72q0,73.1,0,146.21a22.42,22.42,0,0,0,22.44,22.42q36.63,0,73.25,0,36.06,0,72.12,0a23.51,23.51,0,0,0,23.55-23.53Q290.69,334.67,290.74,262.62Z"/><path class="cls-1" d="M184.61,60.62c-47.89,31.23-60.77,93.4-28.77,138.86S122.35,129,198,79.69c82.14-53.57,131.22,6.71,131.22,6.71C297.25,40.94,232.49,29.39,184.61,60.62Z"/><path class="cls-1" d="M148.37,144.85l-32.56,5.89a7.51,7.51,0,0,0-4.56,12.35L155,213.34c4,4.56,11.58,3.19,13.53-2.45l21.43-62c1.9-5.51-3-11-9-9.91Z"/><path class="cls-1" d="M474.19,212H365.31a2.49,2.49,0,0,0-2.49,2.49V231.2a2.49,2.49,0,0,0,2.49,2.49h7.57v12.08a2.5,2.5,0,0,0,2.49,2.49h88.75a2.49,2.49,0,0,0,2.49-2.49V233.69h7.58a2.49,2.49,0,0,0,2.49-2.49V214.53A2.49,2.49,0,0,0,474.19,212Z"/><path class="cls-1" d="M416.16,273.91a2.18,2.18,0,0,0,1.29-2v-15.2c0-1.2-.43-1.6-1.72-1.6h-14.6c-1.29-.2-1.51.4-1.51,1.4v15.2a2,2,0,0,0,1.29,2.2A17.05,17.05,0,0,0,416.16,273.91Z"/><path class="cls-1" d="M420.67,278.11a3.18,3.18,0,0,0-1.93,0,25.36,25.36,0,0,1-16.32,2c4.94,4.6,9.45,9.2,14.6,13.81a5.87,5.87,0,0,0,6.23-.6c3-3,6.23-6,9.45-9,1.29-1.2,2.79-2.6,4.08-4A25,25,0,0,1,420.67,278.11Z"/><path class="cls-1" d="M438.2,255.11H423.59c-1.29-.2-1.5.4-1.5,1.4v15.2a2,2,0,0,0,1.29,2.2,17.05,17.05,0,0,0,15.25,0,2.19,2.19,0,0,0,1.28-2v-15.2C439.91,255.51,439.48,255.11,438.2,255.11Z"/><path class="cls-1" d="M486.94,87.85a16.62,16.62,0,0,0-16.63-16.64q-50.91,0-101.8,0a16,16,0,0,0-16,16q0,51.33,0,102.67a15.74,15.74,0,0,0,15.76,15.75q25.72,0,51.44,0,25.32,0,50.65,0a16.51,16.51,0,0,0,16.54-16.53Q486.91,138.47,486.94,87.85Z"/><path class="cls-1" d="M443.69,475.45C485.31,436.26,487,372.8,447.5,333.69s45.39,63.43-20.39,125.36c-71.4,67.22-130.34,16.56-130.34,16.56C336.29,514.71,402.07,514.64,443.69,475.45Z"/><path class="cls-1" d="M464.49,386.15l31-11.54a7.52,7.52,0,0,0,2.31-13L445.93,319.9c-4.72-3.79-12-1.09-12.89,4.8l-10.15,64.83c-.9,5.76,4.95,10.27,10.59,8.17Z"/></svg>