<svg id="Layer_1" data-name="Layer 1" xmlns="http://www.w3.org/2000/svg" viewBox="0 0 600 600"><defs><style>.cls-1{fill:#e0e0df;}</style></defs><path class="cls-1" d="M205,428.22a4.53,4.53,0,0,0,2.89-4.16V392.42c0-2.49-1-3.33-3.86-3.33h-32.8c-2.89-.41-3.37.84-3.37,2.92v31.63c-.49,2.08,1,3.75,2.89,4.58A41.05,41.05,0,0,0,205,428.22Z"/><path class="cls-1" d="M215.09,437a7.67,7.67,0,0,0-4.35,0,61,61,0,0,1-36.65,4.16c11.09,9.57,21.22,19.15,32.8,28.72a14,14,0,0,0,14-1.25c6.76-6.24,14-12.49,21.23-18.73,2.89-2.5,6.27-5.41,9.16-8.32C239.2,443.62,226.18,442.37,215.09,437Z"/><path class="cls-1" d="M254.44,389.09h-32.8c-2.9-.41-3.38.84-3.38,2.92v31.63c-.48,2.08,1,3.75,2.9,4.58a41,41,0,0,0,34.24,0,4.54,4.54,0,0,0,2.9-4.16V392.42C258.3,389.93,257.33,389.09,254.44,389.09Z"/><path class="cls-1" d="M309.26,304.19H116.76c-2.43,0-4.4,2.32-4.4,5.18v34.68c0,2.86,2,5.18,4.4,5.18h13.4v25.13c0,2.86,2,5.18,4.4,5.18h156.9c2.43,0,4.4-2.32,4.4-5.18V349.23h13.4c2.43,0,4.4-2.32,4.4-5.18V309.37C313.66,306.51,311.69,304.19,309.26,304.19Z"/><path class="cls-1" d="M351.26,106.74c0-16.69-15.31-30.23-34.23-30.21q-104.71.06-209.44,0c-18.14,0-32.84,13-32.83,29q.08,93.25,0,186.52c0,15.81,14.51,28.62,32.42,28.6q52.92,0,105.83,0,52.11,0,104.22,0c18.8,0,34-13.42,34-30Q351.18,198.68,351.26,106.74Z"/><rect class="cls-1" x="250.14" y="480.21" width="275.1" height="21.63"/><rect class="cls-1" x="187.79" y="480.21" width="50.45" height="43.26"/></svg>