<svg id="Layer_1" data-name="Layer 1" xmlns="http://www.w3.org/2000/svg" viewBox="0 0 600 600"><defs><style>.cls-1{fill:#e0e0df;}</style></defs><path class="cls-1" d="M265.18,207q0,7.76,0,15.51,8.58,0,17.17,0c0-5.37,0-10.62,0-15.54Q273.78,207,265.18,207Z"/><path class="cls-1" d="M282.23,253.67c0-4.75,0-9.84.08-15.08-3.25,0-6.5,0-9.76,0-2.44,0-4.89,0-7.33,0q0,7.53,0,15.05Q273.73,253.61,282.23,253.67Z"/><path class="cls-1" d="M272.21,175.73l-7,0q0,7.53,0,15.05l7.63,0,9.49,0c0-2.6-.08-4.91-.14-6.81a46.28,46.28,0,0,1,.49-8.26Z"/><path class="cls-1" d="M282.1,284.78c0-3.26,0-6.52,0-9.78,0-1.51,0-3.3,0-5.28-3.31,0-6.62,0-9.94,0-2.31,0-4.61,0-6.92,0q0,7.51,0,15l7.47,0Z"/><path class="cls-1" d="M449.62,277.21l-12-12a17.53,17.53,0,0,0-24.78,0L302.21,375.89a3.13,3.13,0,0,1-4.42,0L187.14,265.24a17.53,17.53,0,0,0-24.78,0l-12,12a17.53,17.53,0,0,0,0,24.78L261,412.65a3.13,3.13,0,0,1,0,4.42L150.38,527.72a17.53,17.53,0,0,0,0,24.78l12,12a17.53,17.53,0,0,0,24.78,0L297.79,453.83a3.11,3.11,0,0,1,4.42,0L412.86,564.48a17.53,17.53,0,0,0,24.78,0l12-12a17.53,17.53,0,0,0,0-24.78L339,417.07a3.13,3.13,0,0,1,0-4.42L449.62,302A17.53,17.53,0,0,0,449.62,277.21Z"/><path class="cls-1" d="M218.72,360l12.3,12.3a87.3,87.3,0,0,1,28.86-22.66L247.25,337A105.89,105.89,0,0,0,218.72,360Z"/><path class="cls-1" d="M371.08,371.55l12.23-12.23a107.91,107.91,0,0,0-28.84-22.68l-12.74,12.74A92.05,92.05,0,0,1,371.08,371.55Z"/><path class="cls-1" d="M197.25,464.92q.87,2.58,1.86,5.09l13.69-13.69c-.55-2.06-1-4.13-1.43-6.24A95.73,95.73,0,0,1,222,385.26l-12.75-12.75C191.9,399.35,186.63,433.44,197.25,464.92Z"/><path class="cls-1" d="M275.57,343.31c5.52-2.7,7-6.41,6.78-13.59-.36-9.59-.39-19.2-.35-28.82q-8.31.06-16.61,0l0,12.49c0,6.73-.82,11.45-4.47,15.29Z"/><path class="cls-1" d="M289.19,159.75c.19,0,.35,0,.53,0a15.81,15.81,0,0,1,11.95-5.06c11.9.21,18.65,14.49,18.66,31.14,0,36.92.22,107.69-.16,144.6-.07,6.47,1.26,9.92,6,12.48l14.59-14.59c-2.9-3.2-3.95-7.26-3.86-13.25.66-40.84.28-81.7.28-122.55h-.1c0-42.15.27-84.3-.1-126.45-.2-22.13-15.65-36.34-37.43-35.7-19.63.58-32.45,14-34.09,35.77,7.87,0,15.75,0,23.63.06,6,.08,9.81,3.36,9.86,7.93s-3.69,7.85-9.73,8.07c-5.55.2-11.11,0-16.67,0-2.43,0-4.86,0-7.29,0q0,7.53,0,15.06c8,0,16,0,23.95.06,5.94.08,9.82,3.5,9.77,8.08s-3.93,7.72-10,7.87c-5.57.13-11.16,0-16.74,0-2.33,0-4.66,0-7,0q0,7.53,0,15c8-.05,15.93-.05,23.89.05,6,.08,9.81,3.37,9.87,7.93s-3.69,7.85-9.74,8.07c-5.55.2-11.11,0-16.67,0l-7.36,0q0,7.53,0,15.06C273.19,159.64,281.19,159.64,289.19,159.75Z"/><path class="cls-1" d="M218.85,472.26l-12.66,12.66a112.4,112.4,0,0,0,23,28.52L241.63,501A92.33,92.33,0,0,1,218.85,472.26Z"/><path class="cls-1" d="M347.77,511a91.08,91.08,0,0,1-93.33-.84L241.6,523a107.09,107.09,0,0,0,118.63.46Z"/><path class="cls-1" d="M392.88,371.74l-12.5,12.5c10.34,17,14.56,36.62,12.26,54.86A111.65,111.65,0,0,1,389,456.73l14.49,14.48A97.79,97.79,0,0,0,409.4,449C413.39,420.63,407.25,393.58,392.88,371.74Z"/><path class="cls-1" d="M396.24,486l-13.39-13.39a91.66,91.66,0,0,1-22.29,29.24L372.77,514A113.57,113.57,0,0,0,396.24,486Z"/></svg>