<svg id="Layer_1" data-name="Layer 1" xmlns="http://www.w3.org/2000/svg" viewBox="0 0 600 600"><defs><style>.cls-1{fill:#e0e0df;}</style></defs><path class="cls-1" d="M470.26,530.38H34.58a12.87,12.87,0,0,1-9.36-21.69l95.15-101.05a12.87,12.87,0,0,1,9.37-4H565.42a12.86,12.86,0,0,1,9.36,21.68L479.63,526.33A12.84,12.84,0,0,1,470.26,530.38Z"/><path class="cls-1" d="M163.58,69.62c4.14,6.73,8.26,13.48,12.43,20.2q26.3,42.33,52.62,84.64c.19.3.37.63.72,1.24h-49c.79,1.33,1.37,2.33,2,3.33a59.9,59.9,0,0,1,8.78,34.45c-.54,10.25-3.76,19.6-8.51,28.42-5,9.32-11.38,17.59-17.39,26.13-4,5.73-7.92,11.56-10.72,18.14-5.84,13.71-2.92,27.13,6.29,37.55a69.76,69.76,0,0,0,17.95,14.17c1.36.78,1.21,1.32.47,2.45-4.46,6.75-14.21,22.11-14.21,22.11s-1.67-.86-2.19-1.2c-10.56-6.81-20.22-14.78-27.91-25.28s-12.35-22.14-12.66-35.62a63,63,0,0,1,6.5-28.83c4.42-9.33,10.36-17.52,16.26-25.75,4.92-6.86,9.93-13.66,13.45-21.52,4.87-10.88,4.85-21.63-1-32.08-3.56-6.33-8.69-11-14.25-15.25a5.44,5.44,0,0,0-3.46-1.19c-13.38.05-41.45.13-42.22.08,0-.13,11.51-19,16.91-27.66l48.8-78.53Z"/><path class="cls-1" d="M334,69.62c4.14,6.73,8.26,13.48,12.43,20.2L399,174.46c.19.3.37.63.72,1.24H350.79l1.95,3.33a59.9,59.9,0,0,1,8.78,34.45c-.54,10.25-3.76,19.6-8.51,28.42-5,9.32-11.38,17.59-17.39,26.13-4,5.73-7.91,11.56-10.72,18.14-5.84,13.71-2.92,27.13,6.29,37.55a69.76,69.76,0,0,0,17.95,14.17c1.36.78,1.22,1.32.47,2.45-4.46,6.75-14.21,22.11-14.21,22.11s-1.67-.86-2.19-1.2c-10.56-6.81-20.22-14.78-27.9-25.28S293,313.83,292.64,300.35a63.13,63.13,0,0,1,6.5-28.83c4.42-9.33,10.36-17.52,16.26-25.75,4.92-6.86,9.93-13.66,13.45-21.52,4.87-10.88,4.85-21.63-1-32.08-3.56-6.33-8.69-11-14.25-15.25a5.44,5.44,0,0,0-3.46-1.19c-13.37.05-41.45.13-42.22.08,0-.13,11.51-19,16.91-27.66q24.4-39.27,48.8-78.53Z"/><path class="cls-1" d="M504.36,69.62c4.15,6.73,8.26,13.48,12.44,20.2q26.3,42.33,52.61,84.64c.2.3.37.63.72,1.24h-49l2,3.33a60,60,0,0,1,8.79,34.45c-.55,10.25-3.77,19.6-8.52,28.42-5,9.32-11.38,17.59-17.39,26.13-4,5.73-7.91,11.56-10.72,18.14-5.84,13.71-2.92,27.13,6.3,37.55a69.72,69.72,0,0,0,17.94,14.17c1.36.78,1.22,1.32.47,2.45-4.46,6.75-14.2,22.11-14.2,22.11s-1.68-.86-2.2-1.2C493,354.44,483.38,346.47,475.7,336S463.34,313.83,463,300.35a63.13,63.13,0,0,1,6.5-28.83c4.42-9.33,10.36-17.52,16.27-25.75,4.91-6.86,9.92-13.66,13.45-21.52,4.86-10.88,4.84-21.63-1-32.08-3.56-6.33-8.69-11-14.25-15.25a5.44,5.44,0,0,0-3.46-1.19c-13.37.05-41.44.13-42.22.08,0-.13,11.51-19,16.91-27.66q24.41-39.27,48.8-78.53Z"/></svg>