<svg id="Layer_1" data-name="Layer 1" xmlns="http://www.w3.org/2000/svg" viewBox="0 0 600 600"><defs><style>.cls-1{fill:#e0e0df;}</style></defs><polygon class="cls-1" points="326.62 216.09 326.64 232.6 344.92 232.62 344.94 216.08 326.62 216.09"/><polygon class="cls-1" points="344.77 265.82 344.86 249.77 334.47 249.74 326.66 249.78 326.68 265.8 344.77 265.82"/><path class="cls-1" d="M415.12,350.8c-9.33-4.37-12.32-9.3-12.15-19.58.69-43.47.29-87,.29-130.44h-.1c0-44.87.28-89.74-.12-134.61-.2-23.56-16.65-38.69-39.84-38-20.89.62-34.54,14.89-36.28,38.08,8.38,0,16.77,0,25.15.06,6.35.08,10.45,3.58,10.5,8.44s-3.93,8.36-10.36,8.59c-5.91.21-11.83,0-17.74,0-2.59,0-5.18,0-7.77,0q0,8,0,16c8.5,0,17,0,25.5.07,6.32.08,10.46,3.73,10.39,8.6s-4.18,8.21-10.64,8.37c-5.94.15-11.89,0-17.83,0-2.48,0-5,0-7.44,0q0,8,0,16c8.48-.05,16.95-.05,25.43.06,6.35.08,10.45,3.58,10.5,8.44s-3.92,8.36-10.36,8.59c-5.9.21-11.83,0-17.74,0-2.61,0-7.84,0-7.84,0v16s17-.05,25.56.07c.2,0,.37,0,.56,0a16.85,16.85,0,0,1,12.72-5.39c12.67.23,19.85,15.43,19.86,33.15,0,39.3.24,114.63-.17,153.93-.09,8.67,2.17,12.24,11.08,15.26,47.8,16.2,71,61.29,66.07,100.36-6.71,53.29-45.85,88.9-95.5,89.8-46.28.85-89.32-33.64-97.46-78.11C260.32,425.6,287,378,333.27,363c9.52-3.1,12-6.93,11.62-16.21-.37-10.22-.41-20.45-.36-30.68-5.9,0-17.69,0-17.69,0l0,13.3s-2,16.62-12.93,21.8c-52.35,24.71-77.79,85.68-59.64,139.48,18.91,56.05,74.56,89.65,131.34,79.3,48-8.76,87.9-49.39,94.48-96.24C487.52,421.25,462.37,372.94,415.12,350.8Z"/><polygon class="cls-1" points="334.11 182.85 326.62 182.89 326.61 198.91 334.73 198.95 344.83 198.92 344.69 191.67 345.21 182.88 334.11 182.85"/><polygon class="cls-1" points="344.63 298.94 344.68 288.53 344.69 282.9 334.11 282.88 326.73 282.91 326.79 298.94 334.74 298.97 344.63 298.94"/><rect class="cls-1" x="175.9" y="127.86" width="29.08" height="254.37"/><polygon class="cls-1" points="118.59 184.71 190.01 83 261.43 184.71 118.59 184.71"/></svg>