<svg id="Layer_1" data-name="Layer 1" xmlns="http://www.w3.org/2000/svg" viewBox="0 0 600 600"><defs><style>.cls-1{fill:#e0e0df;}</style></defs><path class="cls-1" d="M301.08,214.14c0,37.62.35,75.26-.25,112.87-.15,8.9,2.44,13.17,10.52,16.95,40.88,19.16,62.64,61,56.25,106.4-5.7,40.54-40.22,75.7-81.76,83.27-49.13,9-97.29-20.11-113.65-68.62-15.71-46.55,6.3-99.31,51.6-120.7,9.49-4.47,11.24-9.59,11.2-18.86q-.5-111.67-.15-223.36c0-22.64,12.22-36.75,31.58-37.32,20.06-.59,34.3,12.5,34.48,32.88.34,38.83.09,77.66.09,116.49Zm-50.69,75.94c0,16.8-.43,33.62.18,50.4.3,8-1.82,11.35-10.06,14-40.08,13-63.12,54.18-55.32,96.84,7.05,38.47,44.29,68.32,84.34,67.59,43-.79,76.83-31.6,82.64-77.71,4.27-33.82-15.8-72.83-57.17-86.85-7.71-2.61-9.67-5.7-9.59-13.21.36-34,.17-68,.15-102,0-15.34-6.22-24-17.19-24.24-11.46-.2-17.94,8.68-18,24.75C250.36,256.47,250.39,273.27,250.39,290.08Z"/><path class="cls-1" d="M381.71,146.09c-10.37,0-20.74.22-31.09-.06-12.27-.33-20.07-6.87-19.71-16,.35-8.87,7.72-14.92,19.45-15q31.68-.37,63.38,0c11.56.14,19,6.52,19.11,15.36S425.71,145.58,414,146C403.25,146.39,392.47,146.08,381.71,146.09Z"/><path class="cls-1" d="M381.71,220.83c-10.37,0-20.74.22-31.09-.06-12.27-.33-20.07-6.86-19.71-16,.35-8.87,7.72-14.92,19.45-15.05q31.68-.37,63.38,0c11.56.14,19,6.52,19.11,15.36s-7.14,15.21-18.85,15.63C403.25,221.13,392.47,220.82,381.71,220.83Z"/><path class="cls-1" d="M381.71,295.82c-10.37,0-20.74.22-31.09-.06-12.27-.33-20.07-6.87-19.71-16,.35-8.87,7.72-14.92,19.45-15.05q31.68-.37,63.38,0c11.56.14,19,6.52,19.11,15.36s-7.14,15.21-18.85,15.63C403.25,296.12,392.47,295.81,381.71,295.82Z"/></svg>