<svg id="Layer_1" data-name="Layer 1" xmlns="http://www.w3.org/2000/svg" viewBox="0 0 600 600"><defs><style>.cls-1{fill:#e0e0df;}</style></defs><path class="cls-1" d="M300,152.88A191.15,191.15,0,0,1,491.29,344.41c-.11,105.65-85.81,191.21-191.45,191.1s-191.23-85.8-191.13-191.43A191.17,191.17,0,0,1,300,152.88Zm-.12,36.1A155.2,155.2,0,0,0,144.77,344.13c0,85.56,69.48,155.25,154.82,155.3,86,.05,155.6-69.36,155.64-155.21A155.19,155.19,0,0,0,299.92,189Z"/><path class="cls-1" d="M300.12,64.5q17.06,0,34.11,0c9.17,0,15.35,6.1,15.41,15.3.07,10.17,0,20.34.06,30.51,0,1.75-.58,2.12-2.19,2.1-5.21,0-10.41.14-15.62.06-1.9,0-2.58.4-2.53,2.48.14,7,0,13.93.09,20.9,0,1.72-.19,2.3-2.2,2-15.66-2.3-31.37-3-47.12-.87-2.53.33-5.09.54-7.61.95-1.43.24-1.95,0-1.93-1.62.09-7.2,0-14.41.09-21.62,0-1.86-.53-2.24-2.28-2.22-5.36.07-10.72-.11-16.09-.07-1.51,0-1.86-.45-1.85-1.9.06-10.49,0-21,0-31.47a14.61,14.61,0,0,1,14.54-14.52C276.74,64.46,288.43,64.5,300.12,64.5Z"/><path class="cls-1" d="M188.33,109.48a14.93,14.93,0,0,1,12.43,7.7c5.1,8.67,10.07,17.42,15.15,26.11.67,1.15.58,1.69-.64,2.39q-25.86,14.85-51.65,29.82c-1.42.82-2,.49-2.72-.82-4.77-8.4-9.68-16.72-14.46-25.12s-2.31-17.64,6-22.51c8.76-5.1,17.57-10.14,26.34-15.22A17.13,17.13,0,0,1,188.33,109.48Z"/><path class="cls-1" d="M410.26,109.46a15.88,15.88,0,0,1,8.36,2c9.26,5.35,18.59,10.6,27.78,16.08a15.44,15.44,0,0,1,5.8,20.9c-4.91,9-10.17,17.73-15.24,26.6-.64,1.13-1.16,1.16-2.23.53q-25.92-15-51.88-29.91c-1.15-.66-1.4-1.17-.69-2.38,5.13-8.75,10.12-17.58,15.3-26.3A15,15,0,0,1,410.26,109.46Z"/><path class="cls-1" d="M177,344.08c0-68.28,55.21-123,124-122.91,67.28.07,122.19,55.55,122.1,123.35-.1,68-55.43,122.83-123.74,122.72C232,467.14,176.92,411.74,177,344.08ZM370.1,281.15a15.88,15.88,0,0,0-4.78.9c-9.59,2.83-18.68,6.92-27.67,11.22-18.88,9-37.4,18.7-55,30-5.56,3.57-7.64,8.76-6.45,14.85,3,15.4,12.3,25.73,27.07,30.77,6.66,2.27,12.62.78,17.22-5.28a511.94,511.94,0,0,0,41.1-63.27C364.91,294.29,368.08,288.11,370.1,281.15Z"/></svg>