<svg id="Layer_1" data-name="Layer 1" xmlns="http://www.w3.org/2000/svg" viewBox="0 0 600 600"><defs><style>.cls-1{fill:#e0e0df;}</style></defs><path class="cls-1" d="M481.22,554.94c-2.47,0-4.93-.07-7.39-.07H126c-2.46,0-4.93,0-7.39.07-20.37-.79-40-4.68-57.56-15.53-29.37-18.19-42.45-44.94-40-79.27,1.36-19,8-36.37,17.45-52.7Q126.67,254.55,215,101.75c10.26-17.73,23.35-33,41-43.84,32.08-19.65,69.24-16.59,98.89,8a131.29,131.29,0,0,1,29.9,35.92Q473.34,255,561.74,408.23a129.86,129.86,0,0,1,16.49,46.29c5.9,40.17-14.15,75.55-51.84,91.2C511.94,551.72,496.79,554.38,481.22,554.94ZM297.08,504.07h102c25.94,0,51.87.09,77.8-.08,10.68-.06,21.18-1.61,31.05-6.07,15.48-7,22.12-19.37,19.63-36.12-1.68-11.37-6.25-21.58-11.92-31.41L411.89,250.71q-35.76-61.89-71.55-123.77c-5.23-9-11.7-17.07-20.16-23.32-13.63-10.05-27.33-10-40.85.22-9.43,7.11-16.14,16.48-22,26.58Q170.68,280.57,84,430.7A103.93,103.93,0,0,0,75,450c-2.54,7.64-4,15.47-2.88,23.52C74,486.88,82.68,494.4,94.53,499c10.15,4,20.79,5,31.57,5Q211.6,504.09,297.08,504.07Z"/><path class="cls-1" d="M318.6,304.84q-1.58,45.82-3.09,91.66c-.07,2.26-.74,2.77-2.91,2.75-11.3-.11-22.6-.16-33.9,0-2.67,0-3.08-.9-3.14-3.18-.57-19.17-1.23-38.34-1.88-57.51q-1.59-47.68-3.21-95.36c-.34-10.25-.59-20.5-1-30.75-.07-1.8.63-1.94,2.08-1.94q23.94.06,47.86,0c1.92,0,2.33.54,2.26,2.37-.53,14.42-.94,28.84-1.42,43.27q-.81,24.33-1.69,48.67Z"/><path class="cls-1" d="M266,448c.1-16,9.77-28,24.56-30.69a28.81,28.81,0,0,1,33.84,24.34c1.57,11-.43,21.13-8.84,28.92-9.13,8.46-20,10.08-31.45,5.67C273,472,267.65,463.13,266.24,451.63,266.08,450.32,266.07,449,266,448Z"/></svg>