<svg id="Layer_1" data-name="Layer 1" xmlns="http://www.w3.org/2000/svg" viewBox="0 0 600 600"><defs><style>.cls-1{fill:#e0e0df;}</style></defs><path class="cls-1" d="M496.77,416.11,445,363.49h0c-1.42-1.57-2.81-3.05-4.13-4.32-48.89-47.25-96.53-95.79-144.95-143.53-8.22-8.11-11.17-17-8.46-27.59,7.14-27.91,2.37-54.21-9.11-80-18.69-42-76-73.83-120.18-65.72-5.55,1-13.18,5.08-14.72,9.51s2.12,12.27,5.91,16.38c13.84,15,29.11,28.74,43,43.69,12.75,13.7,21.37,29.57,16.35,49.26-10.45,40.95-55.15,53.45-85.72,24.1-16.44-15.79-32.47-32-49.22-47.46-3.22-3-10.53-5.79-13.15-4.16-4.29,2.66-8.29,8.78-8.92,13.87-3.4,27.58,1.83,53.45,16.86,77.34,25.75,40.95,80.29,68,125.18,55.18,12.49-3.57,22.31-.35,31.53,9,35.66,36.27,71.89,72,107.73,108.06,20.34,20.47,40.34,41.28,60.7,62.15L404.06,469c23,22,45.9,46,71,67.33,18.09,15.38,48.49,11.08,64.45-5.76,18.62-19.65,21.46-47.57,4.13-67C528.3,446.34,511.52,430.44,496.77,416.11Z"/><path class="cls-1" d="M394.64,262.16c6.43,6.8,10.06,5.78,15.66.18,44.94-45,90.21-89.6,134.92-134.79,18-18.23,20.37-45.33,7.16-65C533.45,34.33,497.1,31.05,471.65,56c-33.9,33.23-67.13,67.13-100.82,100.56-13.18,13.07-26.86,25.64-41.7,39.76C352.61,219.76,374.14,240.47,394.64,262.16Z"/><path class="cls-1" d="M214,330.42c-2.75-2.69-8.47-5.65-11.18-4.52-16.53,6.87-24.44,28.17-16.37,44.41,3.43,6.9,1.92,10.35-3.26,15.15q-19.34,17.91-37.43,37.12c-7.81,8.31-15.93,13-28,12-5.22-.43-12.37,3.27-16.1,7.39-14.21,15.75-27.94,32-40.84,48.86-26.37,34.42-32.63,27.45,4.27,63.3,9,8.7,16.25,8.67,25.19,1.44,23-18.56,46.49-36.45,68.63-55.93,5.27-4.65,6.26-14.41,8.68-22,1.78-5.56.92-12.92,4.29-16.86,15.72-18.3,32.5-35.69,48.25-52.7,22.62,14.89,34,15.08,58.26-13.59C256.73,372.85,235.57,351.44,214,330.42Z"/></svg>