<svg id="Layer_1" data-name="Layer 1" xmlns="http://www.w3.org/2000/svg" viewBox="0 0 600 600"><defs><style>.cls-1{fill:#e0e0df;}</style></defs><path class="cls-1" d="M99.63,168.22c17.79-33.77,85.1-48.95,119.79-55.21,86.72-15.77,252.5-15.09,324,40.83,13,10.73,16,24.09,3,36.25-12.1,11.73-26.4,18.68-41.07,24.42-100.52,37.47-255,38.13-355.62.15C131,207,110,197.33,99.63,178.29ZM517,184.87c4.6-2,7.93-5.43,8-11.39.07-6.28-3.5-9.49-8.18-11.86C430.33,120.81,298,120.3,205.26,139.3c-23.16,5-46,11.32-67.7,22.45-4.41,2.27-7.88,5.08-8,11.3-.08,6.51,3.48,9.5,8.08,11.9a199.73,199.73,0,0,0,46.07,17.22C278.07,224.65,394,239.3,517,184.87Z"/><path class="cls-1" d="M99.63,421.28c7.05-12.73,17.58-20.22,29.93-26.82,0,9.53,0,18.4,0,27.28,0,10.49,1.43,13,9.78,16.95,96.9,44.25,265,44,364.23,5.29,4.75-1.87,9.35-4.26,14-6.4,5.38-2.47,7.66-7.19,7.54-13.75-.16-10.23,0-18.6-.06-29.34,10.81,6,20.7,12,27.39,23.16,9.79,16.39-11.55,31.73-23.87,38.65-93.4,50.44-268.55,49.31-368.14,15.33-21.75-7.73-48.75-18.44-60.82-40.28Z"/><path class="cls-1" d="M332.66,449.32c-66.19-.6-122-4.91-179.94-28.68-2.82-1.27-3.93-2.73-3.82-6.29.23-8,.19-15.94,0-23.91-.09-3.78.58-4.61,3.91-3.29,21.49,8.54,43.63,13.9,66,18.11,91.16,15.5,195,14.31,282.64-18.09,3.2-1.26,4.45-1.23,4.29,3.33-.29,8-.27,15.95,0,23.91.13,3.7-1.21,5-3.94,6.18C450.49,442.87,384.32,449.34,332.66,449.32Z"/><path class="cls-1" d="M149,252.93c.58-3.76-2.11-10.79,1.14-13.46,2.32-1.91,8,1.62,12.17,2.83,74.16,22.14,151.88,27.28,228.57,20.15a524.67,524.67,0,0,0,109.82-22.82c4.29-1.36,5.33-.67,5.07,4.44-.33,6.69-.29,13.43.05,20.12.21,4.14-1.27,5.81-4.38,7.16-22.68,9.81-46.19,15.77-70,20-87,14.46-194.82,13.4-277.6-19.73-3.58-1.47-5.44-3.24-4.9-7.92C149.26,260.61,149,257.42,149,252.93Z"/><path class="cls-1" d="M342.89,391.79a150,150,0,0,1-30.81.84C258.15,389.1,202.55,385,152,362.83c-2.1-.94-3-2.2-3.1-5-1-18.4-1.08-18.29,13.78-13.09,99.65,32.64,239.5,33.05,338.29-3.37,4.07-1.56,4.8-.65,4.78,4-.09,16.49.07,16.61-13.4,21.62C443.87,384.84,394.23,390,342.89,391.79Z"/><path class="cls-1" d="M331.26,345.81C267,345.35,210,340.76,152.85,317.15c-2.75-1.26-4.2-2.53-3.93-6.19.39-5.39-2-13,.89-15.64s8.4,2.26,12.8,3.7c100.59,31.89,238.41,33.23,338-3.6,4.77-1.85,5.21-.24,5.15,4.64-.17,15.52,0,15.72-12.86,20.74C442.87,339.86,381.72,346,331.26,345.81Z"/><path class="cls-1" d="M134.39,243.13c0-12.15,0-12.18-10.31-15-37.86-11.36-72.11,3.32-77.56,46.3-3,20-2.78,19.89,14.48,19.58,3.31-.06,4.38-1.14,4.44-4.88a66.42,66.42,0,0,1,2.91-19.7c4.11-12.63,12.21-19.21,23.52-20.9,12.6-1.87,24.75.73,36.75,5,5.76,2,5.76,2,5.77-5.34Z"/><ellipse class="cls-1" cx="329.66" cy="173.08" rx="79.15" ry="13.4"/></svg>