<svg id="Layer_1" data-name="Layer 1" xmlns="http://www.w3.org/2000/svg" viewBox="0 0 600 600"><defs><style>.cls-1{fill:#e0e0df;}</style></defs><path class="cls-1" d="M23,299.55C191.43,85.92,409.85,80.24,585.21,297.6,421.59,503.71,207.85,522.38,23,299.55ZM548,298.82c-161.57-181.53-341.4-173-485.69,2C227.15,474.25,386.12,473.94,548,298.82Z"/><rect class="cls-1" x="292.74" y="450.05" width="22.7" height="65.74" rx="7.62"/><rect class="cls-1" x="78.3" y="354.6" width="22.7" height="65.74" rx="7.62" transform="translate(271.45 33.75) rotate(40.23)"/><rect class="cls-1" x="162.82" y="417.18" width="22.7" height="65.74" rx="7.62" transform="matrix(0.87, 0.5, -0.5, 0.87, 248.36, -26.79)"/><rect class="cls-1" x="512.41" y="354.6" width="22.7" height="65.74" rx="7.62" transform="translate(1173.88 345.02) rotate(139.77)"/><rect class="cls-1" x="423.02" y="421.3" width="22.7" height="65.74" rx="7.62" transform="translate(1037.62 630.3) rotate(150)"/></svg>