<svg id="Layer_1" data-name="Layer 1" xmlns="http://www.w3.org/2000/svg" viewBox="0 0 600 600"><defs><style>.cls-1{fill:#e0e0df;}</style></defs><path class="cls-1" d="M300.05,112.44c4.89,4.4,9,7.75,12.73,11.5,75.61,76.17,150.94,152.61,227,228.31,10.69,10.63,12,16.44.53,27.4-33.82,32.24-67.11,65.12-99.21,99.09-12.12,12.82-18.91,10.83-29.9-.61-31.64-33-64.83-64.41-96.37-97.46-10.89-11.42-17.2-13.44-29.16-.7-31.26,33.3-64.89,64.34-96.18,97.63-12.75,13.56-20.07,12.27-32.21-.53-31.44-33.14-64-65.2-96.88-96.93-10.29-9.94-12.71-15.61-.86-27.35C135.75,277.25,211,200.71,286.6,124.55,290.85,120.28,295.55,116.47,300.05,112.44Z"/></svg>