<svg id="Layer_1" data-name="Layer 1" xmlns="http://www.w3.org/2000/svg" viewBox="0 0 600 600"><defs><style>.cls-1{fill:#e0e0df;}</style></defs><path class="cls-1" d="M323,379.65c-18.13,0-36.26-.08-54.39.07-3.24,0-4.11-.87-4.1-4.13q.18-54.87,0-109.75c0-3.26.86-4.14,4.1-4.13q54.39.17,108.79,0c3.23,0,4.1.86,4.09,4.13q-.17,54.87,0,109.75c0,3.26-.86,4.16-4.09,4.13C359.22,379.57,341.08,379.65,323,379.65Z"/><rect class="cls-1" x="264.46" y="226.29" width="23.1" height="24.47"/><rect class="cls-1" x="358.34" y="225.89" width="23.1" height="24.47"/><rect class="cls-1" x="264.46" y="391.66" width="23.1" height="23.96"/><rect class="cls-1" x="311.39" y="391.49" width="23.1" height="23.96"/><rect class="cls-1" x="358.34" y="391.26" width="23.1" height="23.96"/><rect class="cls-1" x="225.2" y="357.42" width="23.31" height="23.67" transform="translate(-132.4 606.12) rotate(-90)"/><rect class="cls-1" x="225.04" y="310.08" width="23.31" height="23.67" transform="translate(-85.22 558.6) rotate(-90)"/><rect class="cls-1" x="224.82" y="262.72" width="23.31" height="23.67" transform="translate(-38.08 511.02) rotate(-90)"/><rect class="cls-1" x="394.15" y="357.49" width="23.18" height="23.71" transform="translate(36.39 775.09) rotate(-90)"/><rect class="cls-1" x="393.98" y="310.4" width="23.18" height="23.71" transform="translate(83.32 727.83) rotate(-90)"/><rect class="cls-1" x="393.76" y="263.3" width="23.18" height="23.71" transform="translate(130.2 680.5) rotate(-90)"/><path class="cls-1" d="M102.06,236.3c12.66,11.45,24.82,22.6,37.18,33.51,2.24,2,2.45,3.88,1.88,6.35a174.29,174.29,0,0,0-2.06,67.29c7.77,48.16,30.43,88,68.26,119.07a186.08,186.08,0,0,0,90.05,40.34,183.8,183.8,0,0,0,61-.51c41.2-7.13,76.1-25.91,104.94-55.85,26.93-27.95,43.57-61.32,50.25-99.61a179.44,179.44,0,0,0,.68-59.17c-5.61-35.44-19.78-67.1-43.21-94.52-27.47-32.15-61.78-52.89-102.87-62.56a192.83,192.83,0,0,0-47-4.68c-2.9,0-3.92-.46-4-3.58q-.69-20.11-2-40.23c-.19-3,.74-3.57,3.47-3.64A237.76,237.76,0,0,1,493.11,147.1a234.71,234.71,0,0,1,58.8,94.78,243.35,243.35,0,0,1,9.91,45A233.11,233.11,0,0,1,564,321.33a227.9,227.9,0,0,1-10.28,62,237.05,237.05,0,0,1-62.47,102.29,235,235,0,0,1-170.44,66.79c-46.65-1.11-89.24-14.88-127.48-41.21C145.66,478.45,113.77,434,98,378.2a223.14,223.14,0,0,1-8.17-73C91.11,282,95.51,259.21,102.06,236.3Z"/><polygon class="cls-1" points="125.38 263.07 165.54 333.39 197.34 315.23 138.69 212.53 36 271.18 54.49 303.56 125.38 263.07"/><path class="cls-1" d="M340.91,148.39q0,43.07,0,86.13c0,11-1.65,14-7.65,14.06-6.67,0-13.34.08-20,0-4.91-.07-6.81-3.45-6.82-12.53q0-87.66,0-175.31c0-9.42,2-13,7-13.13q10.2-.2,20.43,0c5.05.1,7,3.71,7,13.15Q341,104.57,340.91,148.39Z"/></svg>