<?xml version="1.0" encoding="UTF-8"?>
<svg id="Layer_1" data-name="Layer 1" xmlns="http://www.w3.org/2000/svg" viewBox="0 0 600 600">
  <defs>
    <style>
      .cls-1 {
        fill: #e0e0df;
      }
    </style>
  </defs>
  <rect class="cls-1" x="456.7" y="255.91" width="21.01" height="30.75" transform="translate(-.8 1.39) rotate(-.17)"/>
  <rect class="cls-1" x="456.74" y="312.99" width="21.06" height="30.73" transform="translate(-.69 .98) rotate(-.12)"/>
  <path class="cls-1" d="M548.12,385.87l-.19-172.3-114.81.1c.56-23.91-16.3-42.03-40.04-41.84l-304.41.47c-23.01.03-36.85,20.42-36.79,41.22l.48,177.97h0c.06,21.85,19.03,36.71,39.19,36.69l303.16-.31c23.1-.53,39.22-18.57,38.58-41.86l114.84-.14ZM109.08,341.31c.01,8.45-4.97,14.18-12.08,14.61-6.95.42-13.82-4.89-13.84-12.62l-.14-85.01c-.01-7.78,5.17-13.56,12.55-13.93,7.51-.38,13.43,5.69,13.43,13.83l.08,83.11h-.01ZM361.84,318.44l-.34-13.2-112.46.5,24.66,25.53,42.2-.19.33-11.55,32.9-.2.22,33.06-32.93.28-.38-11.53-43.04.22c-2.01.01-5.45-1.87-6.97-3.42l-31.39-32.13-44.59.17c-3.09,13.1-14.61,20.84-26.83,19.57-12.52-1.3-21.8-11.83-22.06-23.91-.27-12.78,9.15-23.43,21.3-24.99,12.66-1.62,24.14,6,27.52,19.18l21.14.08,31.76-33.87c1.55-1.65,5.02-2.82,7.19-2.82l29.12-.05c3.29-7.89,10-12.7,18.3-11.7,7.65.92,14.09,7.26,14.63,15.4.53,7.91-4.61,15.45-12.2,17.34-8.06,2.01-16.68-.83-20.2-10.85l-29.85-.09-24.12,26.49,135.26-.49.78-13.13,31.43,18.02-31.41,18.31ZM432.83,232.47l96.38-.16.22,134.76-96.38.16-.22-134.76Z"/>
</svg>