<svg id="Layer_1" data-name="Layer 1" xmlns="http://www.w3.org/2000/svg" viewBox="0 0 600 600"><defs><style>.cls-1{fill:#e0e0df;}</style></defs><path class="cls-1" d="M123.64,368.54a17.61,17.61,0,0,1,0-3.25c1.59-8.56-2.1-14.26-9.53-17.85a73.92,73.92,0,0,1-7-4.32c-3.5-2.23-7.42-1.77-11,0a112.53,112.53,0,0,0-10.47,5.68c-6.45,4-11.5,3.46-16.81-2.09-3.09-3.23-6.06-6.57-9.13-9.82-3.23-3.42-3.24-7.3-1.18-11.12,2.77-5.14,5.86-10.1,8.88-15.1,1.84-3.05,2.08-6.22.29-9.23-2.45-4.09-4.69-8.28-6.88-12.52-1.79-3.44-4.51-5.7-8.76-5.69-4.75,0-9.51-.29-14.26-.51-7.43-.34-10.43-3.1-11.86-10.29-.84-4.23-2.07-8.39-3.17-12.56-1.39-5.27,1.35-8.62,5.31-11.16a131.66,131.66,0,0,1,13.48-7.84c3.76-1.82,5.07-4.79,5.31-8.48.32-4.94.31-9.9.5-14.85.25-6.74-5.28-8.83-9.47-11.91-2.7-2-5.73-3.51-8.55-5.33a9.89,9.89,0,0,1-4.14-12.39c1.73-4.72,2-9.8,4.16-14.49,2.08-4.54,5.1-6.61,9.85-6.76,6.74-.21,13.48.43,20.23-.37,2.9-.34,5-2.27,5.38-4.24,1-5,4.3-8.39,6.73-12.39,2-3.27,1.56-6.5,0-9.71-2.36-4.83-4.46-9.84-7.27-14.4-3-4.92-1.85-8.84,1.77-12.45,3.92-3.91,8-7.65,12.12-11.36,3.14-2.83,6.39-3,10-.54,4.58,3,9.38,5.78,14.17,8.49,3.58,2,7.53,2.38,11,.15,4-2.58,8.44-4.33,12.39-6.94a10.69,10.69,0,0,0,5-8.88c.18-5.1.57-10.21.46-15.32-.13-5.85,3.44-8.93,8.65-10.32,4.58-1.22,9.27-1.94,13.82-3.4,5-1.59,9.42,1.52,12.47,7.85a78.12,78.12,0,0,0,7.41,12.73,10.7,10.7,0,0,0,9,4.62,96.5,96.5,0,0,1,11,.27c4.81.55,8-2,10.47-5.37a138.69,138.69,0,0,0,8.46-13.19c2.32-4,5.68-5.42,10-5,6.32.67,12.08,3.41,18.07,5.22,3.29,1,4.33,4.28,4.48,7.49a97,97,0,0,1,0,12.53c-.62,7.52,1.49,13,8.75,16.47,6,2.93,10.92,9.13,18.72,5.55a83.23,83.23,0,0,0,10.07-5.4c7.19-4.61,11.88-4.29,17.87,1.73,2.92,2.93,5.79,5.91,8.54,9,3.56,4,3.37,9.6-.2,15-2,3.06-4.1,6.13-5.81,9.37-2.28,4.32-3.94,8.85-.59,13.48,2.79,3.87,4.21,8.5,7.07,12.4a9.07,9.07,0,0,0,7.75,4c5.22.18,10.44.31,15.64.68,4.42.31,7.66,2.24,9.41,6.78,2.16,5.58,2.87,11.39,3.7,17.2.7,4.91-1.7,8.15-5.92,10.47-4.81,2.64-9.52,5.51-14.14,8.49a8.52,8.52,0,0,0-4.14,7.81c.09,2.94.44,6-.14,8.81-1.83,9,3,13.82,10,17.63a83.89,83.89,0,0,1,8.17,5.1c5.11,3.6,6.39,8.53,3.78,15.09a57.57,57.57,0,0,0-2.86,9.28c-1.25,5.78-5.72,9.21-11.6,9.18-4,0-8,.2-12-.16-6.15-.55-10.66,1.49-13.51,7.18a55.17,55.17,0,0,1-4.74,7.89c-3.64,5-2.42,9.85-.07,14.75,1.53,3.19,3.07,6.38,4.85,9.43,3.82,6.52,3.87,9.42-1.1,14.8-3.92,4.26-7.86,8.57-12.85,11.71a6.69,6.69,0,0,1-7.65.24c-5.07-2.83-10.16-5.6-15.1-8.65a11,11,0,0,0-11.44-.26c-4.44,2.39-8.76,5-13.17,7.45-2.73,1.51-2.89,4.31-3.21,6.81-.65,5.07-.93,10.18-1.32,15.27-.64,8.49-3,11.15-11.24,12.54-3.62.62-7.26,1.09-10.72,2.53-4.45,1.84-8-.49-10.36-3.79a96.67,96.67,0,0,1-7.92-13.49c-2.55-5.07-6.21-7.79-12-7.5a26,26,0,0,1-6.89-.18c-8.19-1.86-12.53,2.86-16.3,9A117.76,117.76,0,0,1,155.16,387c-2.11,2.7-4.65,3.3-7.65,3.13-6.84-.37-12.88-3.91-19.56-5.08a5.55,5.55,0,0,1-4.24-5.84c.18-3.55,0-7.12,0-10.68ZM184.86,330c57-.61,100.35-46.23,100.25-101.8-.1-56-45.43-104.34-106.83-101.13-49.5,2.58-94.88,45.14-94.16,103.07C84.8,285.1,130.42,330.36,184.86,330Z"/><circle class="cls-1" cx="184.25" cy="228.48" r="75.08"/><path class="cls-1" d="M318.51,535.51c-20.79,0-37-17.43-37-39.79,0-22.08,16.25-39.52,36.72-39.49,21,0,37.15,17.18,37.17,39.51S339.36,535.5,318.51,535.51Z"/><path class="cls-1" d="M418.07,385.38c-28.73-28.65-61.82-43.21-99.3-43a27.75,27.75,0,0,1-6.5,10.61c-4.35,4.73-9.11,9.89-15.51,13.92a19.65,19.65,0,0,1-21,.6l-2.27-1.26c-4.07-2.26-8.27-4.59-12.43-7.14-2.16,1.18-4.25,2.39-6.35,3.6l-2.59,1.48c-.39,3.36-.63,6.74-.87,10.13l-.24,3.32c-1.11,14.54-7.94,22.09-22.14,24.5l-1.44.24a31.3,31.3,0,0,0-6.43,1.47,21.28,21.28,0,0,1-8.19,1.68,19.43,19.43,0,0,1-3.31-.32c0,.72-.1,1.43-.1,2.17a63.84,63.84,0,0,0,.94,7c5.32,22,29.54,28.61,45.29,12.54,23.25-23.73,50.78-32,82.17-25.29,17.3,3.69,31.85,13,44.51,26,13.54,14,34.85,9.76,42.83-8.18C430.17,408.06,427.68,395,418.07,385.38Z"/><path class="cls-1" d="M123.64,368.49a17.61,17.61,0,0,1,0-3.25c1.59-8.56-2.1-14.26-9.53-17.85a73.92,73.92,0,0,1-7-4.32c-3.5-2.23-7.42-1.77-11,0a112.53,112.53,0,0,0-10.47,5.68c-6.45,4-11.5,3.46-16.81-2.09-3.09-3.23-6.06-6.57-9.13-9.82-3.23-3.42-3.24-7.3-1.18-11.12,2.77-5.14,5.86-10.1,8.88-15.1,1.84-3,2.08-6.22.29-9.23-2.45-4.09-4.69-8.28-6.88-12.52-1.79-3.44-4.51-5.7-8.76-5.69-4.75,0-9.51-.29-14.26-.51-7.43-.34-10.43-3.1-11.86-10.29-.84-4.23-2.07-8.39-3.17-12.56-1.39-5.27,1.35-8.62,5.31-11.16a131.66,131.66,0,0,1,13.48-7.84c3.76-1.82,5.07-4.79,5.31-8.48.32-4.94.31-9.9.5-14.85.25-6.74-5.28-8.83-9.47-11.91-2.7-2-5.73-3.51-8.55-5.33a9.89,9.89,0,0,1-4.14-12.39c1.73-4.72,2-9.8,4.16-14.49,2.08-4.54,5.1-6.61,9.85-6.76,6.74-.21,13.48.43,20.23-.37,2.9-.34,5-2.27,5.38-4.24,1-5,4.3-8.39,6.73-12.39,2-3.27,1.56-6.5,0-9.71C69.14,135,67,130,64.23,125.47c-3-4.92-1.85-8.84,1.77-12.45,3.92-3.91,8-7.65,12.12-11.36,3.14-2.83,6.39-3,10-.54,4.58,3,9.38,5.78,14.17,8.49,3.58,2,7.53,2.38,11,.15,4-2.58,8.44-4.33,12.39-6.94a10.69,10.69,0,0,0,5-8.88c.18-5.1.57-10.21.46-15.32-.13-5.85,3.44-8.93,8.65-10.32,4.58-1.22,9.27-1.94,13.82-3.4,5-1.59,9.42,1.51,12.47,7.85a78.12,78.12,0,0,0,7.41,12.73,10.7,10.7,0,0,0,9,4.62,96.5,96.5,0,0,1,11,.27c4.81.55,8-2,10.47-5.37a138.69,138.69,0,0,0,8.46-13.19c2.32-4,5.68-5.42,10-5,6.32.67,12.08,3.41,18.07,5.22,3.29,1,4.33,4.28,4.48,7.49a97,97,0,0,1,0,12.53c-.62,7.52,1.49,13,8.75,16.47,6,2.93,10.92,9.13,18.72,5.55a83.23,83.23,0,0,0,10.07-5.4c7.19-4.61,11.88-4.29,17.87,1.73,2.92,2.93,5.79,5.91,8.54,9,3.56,4,3.37,9.6-.2,15-2,3.06-4.1,6.13-5.81,9.37-2.28,4.32-3.94,8.85-.59,13.48,2.79,3.87,4.21,8.5,7.07,12.4a9.07,9.07,0,0,0,7.75,4c5.22.18,10.44.31,15.64.68,4.42.31,7.66,2.24,9.41,6.78,2.16,5.58,2.87,11.39,3.7,17.2.7,4.91-1.7,8.15-5.92,10.47-4.81,2.64-9.52,5.51-14.14,8.49a8.52,8.52,0,0,0-4.14,7.81c.09,2.94.44,6-.14,8.81-1.83,9,3,13.82,10,17.63a83.89,83.89,0,0,1,8.17,5.1c5.11,3.6,6.39,8.53,3.78,15.09a57.57,57.57,0,0,0-2.86,9.28c-1.25,5.78-5.72,9.21-11.6,9.17-4,0-8,.21-12-.15-6.15-.55-10.66,1.49-13.51,7.18a55.17,55.17,0,0,1-4.74,7.89c-3.64,5-2.42,9.85-.07,14.75,1.53,3.19,3.07,6.38,4.85,9.43,3.82,6.52,3.87,9.42-1.1,14.8-3.92,4.26-7.86,8.57-12.85,11.71a6.69,6.69,0,0,1-7.65.24c-5.07-2.83-10.16-5.6-15.1-8.66a11,11,0,0,0-11.44-.25c-4.44,2.39-8.76,5-13.17,7.45-2.73,1.51-2.89,4.31-3.21,6.81-.65,5.07-.93,10.18-1.32,15.27-.64,8.49-3,11.15-11.24,12.54-3.62.62-7.26,1.09-10.72,2.53-4.45,1.84-8-.49-10.36-3.79a96.67,96.67,0,0,1-7.92-13.49c-2.55-5.07-6.21-7.79-12-7.5a26,26,0,0,1-6.89-.18c-8.19-1.86-12.53,2.86-16.3,9A117.76,117.76,0,0,1,155.16,387c-2.11,2.7-4.65,3.3-7.65,3.13-6.84-.37-12.88-3.91-19.56-5.08a5.55,5.55,0,0,1-4.24-5.84c.18-3.55,0-7.12,0-10.68ZM184.86,330c57-.61,100.35-46.23,100.25-101.8-.1-56-45.43-104.34-106.83-101.13-49.5,2.58-94.88,45.14-94.16,103.07C84.8,285.05,130.42,330.31,184.86,330Z"/><circle class="cls-1" cx="184.25" cy="228.43" r="75.08"/><path class="cls-1" d="M318.51,535.51c-20.79,0-37-17.43-37-39.79,0-22.08,16.25-39.52,36.72-39.49,21,0,37.15,17.18,37.17,39.51S339.36,535.5,318.51,535.51Z"/><path class="cls-1" d="M181.2,345.67c.87-.89,1.76-1.71,2.64-2.58a111.35,111.35,0,0,1-49.08-11.66,34.44,34.44,0,0,0,1.18,4.76C142.77,357,165.75,361.55,181.2,345.67Z"/><path class="cls-1" d="M308.8,231.29a15.77,15.77,0,0,0,0-2.56c-3.52.17-7.07.45-10.63.77A115.36,115.36,0,0,1,281.27,289c4.45-.88,9-1.57,13.5-2.11,5.46-7.26,13.67-10.75,23.59-9.89,2.11.18,4.51.15,7.07.12l2.76,0a72,72,0,0,1,3.22-10.17l0-.06a64.32,64.32,0,0,0-6.05-3.74C308.23,253.74,306.9,240.64,308.8,231.29Z"/><path class="cls-1" d="M495.82,308.09a194.13,194.13,0,0,0-22-21.44q-63.3-52.89-138.74-57.72a33.06,33.06,0,0,1-.56,7.59,4.27,4.27,0,0,0-.12,1.15,18.79,18.79,0,0,0,3.51,2.33,94.4,94.4,0,0,1,9.46,5.9c10.1,7.11,13.25,18.58,8.42,30.69a46.19,46.19,0,0,0-2.22,7.2,26.86,26.86,0,0,1-1.53,4.72c40.43,7,75.34,26.89,104.69,58.11,5.37,5.72,11.83,8.79,22.22,8.62,8.26-.53,16.6-5.67,21.18-16.6S503.45,316.87,495.82,308.09Z"/><path class="cls-1" d="M123.64,368.49a17.61,17.61,0,0,1,0-3.25c1.59-8.56-2.1-14.26-9.53-17.85a73.92,73.92,0,0,1-7-4.32c-3.5-2.23-7.42-1.77-11,0a112.53,112.53,0,0,0-10.47,5.68c-6.45,4-11.5,3.46-16.81-2.09-3.09-3.23-6.06-6.57-9.13-9.82-3.23-3.42-3.24-7.3-1.18-11.12,2.77-5.14,5.86-10.1,8.88-15.1,1.84-3,2.08-6.22.29-9.23-2.45-4.09-4.69-8.28-6.88-12.52-1.79-3.44-4.51-5.7-8.76-5.69-4.75,0-9.51-.29-14.26-.51-7.43-.34-10.43-3.1-11.86-10.29-.84-4.23-2.07-8.39-3.17-12.56-1.39-5.27,1.35-8.62,5.31-11.16a131.66,131.66,0,0,1,13.48-7.84c3.76-1.82,5.07-4.79,5.31-8.48.32-4.94.31-9.9.5-14.85.25-6.74-5.28-8.83-9.47-11.91-2.7-2-5.73-3.51-8.55-5.33a9.89,9.89,0,0,1-4.14-12.39c1.73-4.72,2-9.8,4.16-14.49,2.08-4.54,5.1-6.61,9.85-6.76,6.74-.21,13.48.43,20.23-.37,2.9-.34,5-2.27,5.38-4.24,1-5,4.3-8.39,6.73-12.39,2-3.27,1.56-6.5,0-9.71C69.14,135,67,130,64.23,125.47c-3-4.92-1.85-8.84,1.77-12.45,3.92-3.91,8-7.65,12.12-11.36,3.14-2.83,6.39-3,10-.54,4.58,3,9.38,5.78,14.17,8.49,3.58,2,7.53,2.38,11,.15,4-2.58,8.44-4.33,12.39-6.94a10.69,10.69,0,0,0,5-8.88c.18-5.1.57-10.21.46-15.32-.13-5.85,3.44-8.93,8.65-10.32,4.58-1.22,9.27-1.94,13.82-3.4,5-1.59,9.42,1.51,12.47,7.85a78.12,78.12,0,0,0,7.41,12.73,10.7,10.7,0,0,0,9,4.62,96.5,96.5,0,0,1,11,.27c4.81.55,8-2,10.47-5.37a138.69,138.69,0,0,0,8.46-13.19c2.32-4,5.68-5.42,10-5,6.32.67,12.08,3.41,18.07,5.22,3.29,1,4.33,4.28,4.48,7.49a97,97,0,0,1,0,12.53c-.62,7.52,1.49,13,8.75,16.47,6,2.93,10.92,9.13,18.72,5.55a83.23,83.23,0,0,0,10.07-5.4c7.19-4.61,11.88-4.29,17.87,1.73,2.92,2.93,5.79,5.91,8.54,9,3.56,4,3.37,9.6-.2,15-2,3.06-4.1,6.13-5.81,9.37-2.28,4.32-3.94,8.85-.59,13.48,2.79,3.87,4.21,8.5,7.07,12.4a9.07,9.07,0,0,0,7.75,4c5.22.18,10.44.31,15.64.68,4.42.31,7.66,2.24,9.41,6.78,2.16,5.58,2.87,11.39,3.7,17.2.7,4.91-1.7,8.15-5.92,10.47-4.81,2.64-9.52,5.51-14.14,8.49a8.52,8.52,0,0,0-4.14,7.81c.09,2.94.44,6-.14,8.81-1.83,9,3,13.82,10,17.63a83.89,83.89,0,0,1,8.17,5.1c5.11,3.6,6.39,8.53,3.78,15.09a57.57,57.57,0,0,0-2.86,9.28c-1.25,5.78-5.72,9.21-11.6,9.17-4,0-8,.21-12-.15-6.15-.55-10.66,1.49-13.51,7.18a55.17,55.17,0,0,1-4.74,7.89c-3.64,5-2.42,9.85-.07,14.75,1.53,3.19,3.07,6.38,4.85,9.43,3.82,6.52,3.87,9.42-1.1,14.8-3.92,4.26-7.86,8.57-12.85,11.71a6.69,6.69,0,0,1-7.65.24c-5.07-2.83-10.16-5.6-15.1-8.66a11,11,0,0,0-11.44-.25c-4.44,2.39-8.76,5-13.17,7.45-2.73,1.51-2.89,4.31-3.21,6.81-.65,5.07-.93,10.18-1.32,15.27-.64,8.49-3,11.15-11.24,12.54-3.62.62-7.26,1.09-10.72,2.53-4.45,1.84-8-.49-10.36-3.79a96.67,96.67,0,0,1-7.92-13.49c-2.55-5.07-6.21-7.79-12-7.5a26,26,0,0,1-6.89-.18c-8.19-1.86-12.53,2.86-16.3,9A117.76,117.76,0,0,1,155.16,387c-2.11,2.7-4.65,3.3-7.65,3.13-6.84-.37-12.88-3.91-19.56-5.08a5.55,5.55,0,0,1-4.24-5.84c.18-3.55,0-7.12,0-10.68ZM184.86,330c57-.61,100.35-46.23,100.25-101.8-.1-56-45.43-104.34-106.83-101.13-49.5,2.58-94.88,45.14-94.16,103.07C84.8,285.05,130.42,330.31,184.86,330Z"/><circle class="cls-1" cx="184.25" cy="228.43" r="75.08"/><path class="cls-1" d="M567.82,223.79c-67-69-146.47-105-246.23-109.24,4.66,8,4.12,18.2-1.79,27.14l-.55.82c-1.72,2.6-3.34,5.05-4.59,7.42-.25.46-.43.83-.57,1.13a61.87,61.87,0,0,1,3.57,6.47c.57,1.14,1.09,2.18,1.6,3.06l.79,0c4.59.15,9.18.3,13.76.62,8.86.62,15.68,5,19.53,12.51,4.54.56,9.09,1.19,13.64,2,43.86,7.46,84.43,24.23,120.71,51.63,15.5,11.71,29.79,25.35,44,38.84,12.14,11.48,28.67,11.65,39.18-.79C579,255.84,581.81,238.2,567.82,223.79Z"/><path class="cls-1" d="M71.29,221.85c-1.13,1.18-2.31,2.3-3.43,3.5C53.25,241,58.08,266,77.06,273.16a29.56,29.56,0,0,0,3.23,1A114.06,114.06,0,0,1,71,230.28C71,227.44,71.12,224.65,71.29,221.85Z"/><path class="cls-1" d="M291.79,165c-8.55-11.81-2.4-23.46-.38-27.29a109.19,109.19,0,0,1,5.94-9.69l.53-.81c.07-.11.14-.21.19-.3-2.23-2.45-4.53-4.83-6.87-7.18l-.54-.52c-.26.16-.58.34-.94.58a95.42,95.42,0,0,1-11.67,6.28c-12.41,5.7-21.86-.5-26.93-3.83l-.85-.52c-5.31,1.07-10.59,2.23-15.81,3.56a111.67,111.67,0,0,1,28,19.36,113.88,113.88,0,0,1,22,28.88c3.78-.46,7.58-.83,11.37-1.12-.57-1.07-1.13-2.14-1.62-3.12A32.65,32.65,0,0,0,291.79,165Z"/><path class="cls-1" d="M123.64,368.49a17.61,17.61,0,0,1,0-3.25c1.59-8.56-2.1-14.26-9.53-17.85a73.92,73.92,0,0,1-7-4.32c-3.5-2.23-7.42-1.77-11,0a112.53,112.53,0,0,0-10.47,5.68c-6.45,4-11.5,3.46-16.81-2.09-3.09-3.23-6.06-6.57-9.13-9.82-3.23-3.42-3.24-7.3-1.18-11.12,2.77-5.14,5.86-10.1,8.88-15.1,1.84-3,2.08-6.22.29-9.23-2.45-4.09-4.69-8.28-6.88-12.52-1.79-3.44-4.51-5.7-8.76-5.69-4.75,0-9.51-.29-14.26-.51-7.43-.34-10.43-3.1-11.86-10.29-.84-4.23-2.07-8.39-3.17-12.56-1.39-5.27,1.35-8.62,5.31-11.16a131.66,131.66,0,0,1,13.48-7.84c3.76-1.82,5.07-4.79,5.31-8.48.32-4.94.31-9.9.5-14.85.25-6.74-5.28-8.83-9.47-11.91-2.7-2-5.73-3.51-8.55-5.33a9.89,9.89,0,0,1-4.14-12.39c1.73-4.72,2-9.8,4.16-14.49,2.08-4.54,5.1-6.61,9.85-6.76,6.74-.21,13.48.43,20.23-.37,2.9-.34,5-2.27,5.38-4.24,1-5,4.3-8.39,6.73-12.39,2-3.27,1.56-6.5,0-9.71C69.14,135,67,130,64.23,125.47c-3-4.92-1.85-8.84,1.77-12.45,3.92-3.91,8-7.65,12.12-11.36,3.14-2.83,6.39-3,10-.54,4.58,3,9.38,5.78,14.17,8.49,3.58,2,7.53,2.38,11,.15,4-2.58,8.44-4.33,12.39-6.94a10.69,10.69,0,0,0,5-8.88c.18-5.1.57-10.21.46-15.32-.13-5.85,3.44-8.93,8.65-10.32,4.58-1.22,9.27-1.94,13.82-3.4,5-1.59,9.42,1.51,12.47,7.85a78.12,78.12,0,0,0,7.41,12.73,10.7,10.7,0,0,0,9,4.62,96.5,96.5,0,0,1,11,.27c4.81.55,8-2,10.47-5.37a138.69,138.69,0,0,0,8.46-13.19c2.32-4,5.68-5.42,10-5,6.32.67,12.08,3.41,18.07,5.22,3.29,1,4.33,4.28,4.48,7.49a97,97,0,0,1,0,12.53c-.62,7.52,1.49,13,8.75,16.47,6,2.93,10.92,9.13,18.72,5.55a83.23,83.23,0,0,0,10.07-5.4c7.19-4.61,11.88-4.29,17.87,1.73,2.92,2.93,5.79,5.91,8.54,9,3.56,4,3.37,9.6-.2,15-2,3.06-4.1,6.13-5.81,9.37-2.28,4.32-3.94,8.85-.59,13.48,2.79,3.87,4.21,8.5,7.07,12.4a9.07,9.07,0,0,0,7.75,4c5.22.18,10.44.31,15.64.68,4.42.31,7.66,2.24,9.41,6.78,2.16,5.58,2.87,11.39,3.7,17.2.7,4.91-1.7,8.15-5.92,10.47-4.81,2.64-9.52,5.51-14.14,8.49a8.52,8.52,0,0,0-4.14,7.81c.09,2.94.44,6-.14,8.81-1.83,9,3,13.82,10,17.63a83.89,83.89,0,0,1,8.17,5.1c5.11,3.6,6.39,8.53,3.78,15.09a57.57,57.57,0,0,0-2.86,9.28c-1.25,5.78-5.72,9.21-11.6,9.17-4,0-8,.21-12-.15-6.15-.55-10.66,1.49-13.51,7.18a55.17,55.17,0,0,1-4.74,7.89c-3.64,5-2.42,9.85-.07,14.75,1.53,3.19,3.07,6.38,4.85,9.43,3.82,6.52,3.87,9.42-1.1,14.8-3.92,4.26-7.86,8.57-12.85,11.71a6.69,6.69,0,0,1-7.65.24c-5.07-2.83-10.16-5.6-15.1-8.66a11,11,0,0,0-11.44-.25c-4.44,2.39-8.76,5-13.17,7.45-2.73,1.51-2.89,4.31-3.21,6.81-.65,5.07-.93,10.18-1.32,15.27-.64,8.49-3,11.15-11.24,12.54-3.62.62-7.26,1.09-10.72,2.53-4.45,1.84-8-.49-10.36-3.79a96.67,96.67,0,0,1-7.92-13.49c-2.55-5.07-6.21-7.79-12-7.5a26,26,0,0,1-6.89-.18c-8.19-1.86-12.53,2.86-16.3,9A117.76,117.76,0,0,1,155.16,387c-2.11,2.7-4.65,3.3-7.65,3.13-6.84-.37-12.88-3.91-19.56-5.08a5.55,5.55,0,0,1-4.24-5.84c.18-3.55,0-7.12,0-10.68ZM184.86,330c57-.61,100.35-46.23,100.25-101.8-.1-56-45.43-104.34-106.83-101.13-49.5,2.58-94.88,45.14-94.16,103.07C84.8,285.05,130.42,330.31,184.86,330Z"/><circle class="cls-1" cx="184.25" cy="228.43" r="75.08"/></svg>