<svg id="Layer_1" data-name="Layer 1" xmlns="http://www.w3.org/2000/svg" viewBox="0 0 600 600"><defs><style>.cls-1{fill:#e0e0df;}.cls-2{fill:#ee2f26;}</style></defs><path class="cls-1" d="M290.18,76.53C402,78.31,490.1,116.61,563.9,192.63c14.8,15.25,11.81,33.93,3.26,44-11.12,13.16-28.62,13-41.46.83-15.08-14.27-30.2-28.71-46.61-41.1-38.4-29-81.33-46.75-127.75-54.65-54-9.19-106.92-4.32-158.5,15.23-45,17.05-84.29,43.93-118.16,79.93-8.57,9.11-18.65,12.32-30.19,8-20.09-7.56-25.2-34.08-9.74-50.6A380,380,0,0,1,92.37,143.9c43-30.58,89.93-51.1,140.77-60.46C255.07,79.41,277.43,78,290.18,76.53Z"/><path class="cls-1" d="M300,522.55c-22,0-39.15-18.46-39.11-42.12,0-23.37,17.19-41.82,38.86-41.79,22.25,0,39.32,18.18,39.34,41.81S322.1,522.54,300,522.55Z"/><path class="cls-1" d="M456.72,312.7a32.53,32.53,0,0,0-16.41,3.72q3.06,3,6,6.21c5.69,6.05,12.53,9.3,23.52,9.12a23.9,23.9,0,0,0,13.5-5.31A35.53,35.53,0,0,0,456.72,312.7Z"/><path class="cls-1" d="M446.26,266.34a76.23,76.23,0,0,1,27.91,1.47q-4.76-4.5-9.73-8.65c-60.22-50.31-128.31-70-203.91-58.37-57.09,8.81-105.84,36.05-146.84,79.28-8.27,8.73-10.79,19.63-6.89,31.53,7.24,22,31.56,26.83,47.91,10,49.22-50.57,108-71.07,175.39-61.4a187,187,0,0,1,72.66,26.39A80.6,80.6,0,0,1,446.26,266.34Z"/><path class="cls-1" d="M555.32,399.7c0-8.72-4.34-13.21-12.81-13.42-4.59-.11-9.19,0-14.11,0,0-5.15.19-9.39,0-13.61-.75-14.17.24-28.79-2.83-42.4-8.21-36.29-43-60.19-78.14-55.48-36.72,4.92-63.63,36.74-63.51,75.06,0,11.88,0,23.75,0,36.41h-7.43c-2.45,0-4.9-.05-7.34,0-8.53.28-12.12,4.16-12.12,13.11q0,54.87,0,109.75c0,10.44,3.59,14.31,13.52,14.32q85.63,0,171.27,0c9.24,0,13.53-4.43,13.53-14Q555.4,454.58,555.32,399.7Zm-55.94-13.81H413.2c0-15-1.33-29.79.31-44.19,2.52-22.08,22.61-38.38,43.57-37.49a43.94,43.94,0,0,1,42.16,41.53C500,359,499.38,372.41,499.38,385.89Z"/><path class="cls-1" d="M368.84,377.78c1.88-.06,3.71,0,5.47,0h1.09v-3.49c0-8.29,0-16.34,0-24.39a89.77,89.77,0,0,1,.55-10c-28.89-18.31-61.26-25.23-97.17-20.17-32.8,4.63-60.8,20.09-84.64,44.44-6,6.16-9.63,13.59-9.61,22.81a69.28,69.28,0,0,0,1,7.38c5.63,23.27,31.27,30.28,47.93,13.27,24.61-25.12,53.75-33.87,87-26.77A83.75,83.75,0,0,1,349.15,393C351.17,383.47,358,378.13,368.84,377.78Z"/><rect class="cls-2" x="447.69" y="386.13" width="16.94" height="127.61" transform="translate(451.75 -190.77) rotate(45)"/><rect class="cls-2" x="447.69" y="386.13" width="16.94" height="127.61" transform="translate(1096.86 445.53) rotate(135)"/></svg>