<svg id="Layer_1" data-name="Layer 1" xmlns="http://www.w3.org/2000/svg" viewBox="0 0 600 600"><defs><style>.cls-1{fill:#e0e0df;}.cls-2{fill:#5fbb46;}</style></defs><path class="cls-1" d="M290.18,76.53C402,78.31,490.1,116.61,563.9,192.63c14.8,15.25,11.81,33.93,3.26,44-11.12,13.16-28.62,13-41.46.83-15.08-14.27-30.2-28.71-46.61-41.1-38.4-29-81.33-46.75-127.75-54.65-54-9.19-106.92-4.32-158.5,15.23-45,17.05-84.29,43.93-118.16,79.93-8.57,9.11-18.65,12.32-30.19,8-20.09-7.56-25.2-34.08-9.74-50.6A380,380,0,0,1,92.37,143.9c43-30.58,89.93-51.1,140.77-60.46C255.07,79.41,277.43,78,290.18,76.53Z"/><path class="cls-1" d="M300,522.55c-22,0-39.15-18.46-39.11-42.12,0-23.37,17.19-41.82,38.86-41.79,22.25,0,39.32,18.18,39.34,41.81S322.1,522.54,300,522.55Z"/><path class="cls-1" d="M456.72,312.7a32.53,32.53,0,0,0-16.41,3.72q3.06,3,6,6.21c5.69,6.05,12.53,9.3,23.52,9.12a23.9,23.9,0,0,0,13.5-5.31A35.53,35.53,0,0,0,456.72,312.7Z"/><path class="cls-1" d="M446.26,266.34a76.23,76.23,0,0,1,27.91,1.47q-4.76-4.5-9.73-8.65c-60.22-50.31-128.31-70-203.91-58.37-57.09,8.81-105.84,36.05-146.84,79.28-8.27,8.73-10.79,19.63-6.89,31.53,7.24,22,31.56,26.83,47.91,10,49.22-50.57,108-71.07,175.39-61.4a187,187,0,0,1,72.66,26.39A80.6,80.6,0,0,1,446.26,266.34Z"/><path class="cls-1" d="M368.84,377.78c1.88-.06,3.71,0,5.47,0h1.09v-3.49c0-8.29,0-16.34,0-24.39a89.77,89.77,0,0,1,.55-10c-28.89-18.31-61.26-25.23-97.17-20.17-32.8,4.63-60.8,20.09-84.64,44.44-6,6.16-9.63,13.59-9.61,22.81a69.28,69.28,0,0,0,1,7.38c5.63,23.27,31.27,30.28,47.93,13.27,24.61-25.12,53.75-33.87,87-26.77A83.75,83.75,0,0,1,349.15,393C351.17,383.47,358,378.13,368.84,377.78Z"/><path class="cls-1" d="M542.51,386.28c-4.59-.11-9.19,0-14.11,0v-.37H413.2c0-15-1.33-29.79.31-44.19,2.52-22.08,22.61-38.38,43.57-37.49a44,44,0,0,1,34.75,19.41l21.24-20.44c-15.14-20.3-40.33-31.81-65.67-28.41-36.72,4.92-63.63,36.74-63.51,75.06,0,11.88,0,23.75,0,36.41h-7.43c-2.45,0-4.9-.05-7.34,0-8.53.28-12.12,4.16-12.12,13.11q0,54.87,0,109.75c0,10.44,3.59,14.31,13.52,14.32q85.63,0,171.27,0c9.24,0,13.53-4.43,13.53-14q.06-54.87,0-109.75C555.31,391,551,386.49,542.51,386.28Z"/><path class="cls-2" d="M528.29,416.68c-.17.21-.29.4-.44.56l-.76.77q-44.69,44.67-89.34,89.36c-1,1-1.54,1.27-2.72.07q-19.36-19.53-38.89-38.91c-.89-.88-1.08-1.3-.05-2.29,3.55-3.38,7-6.86,10.4-10.4,1.11-1.16,1.75-1.15,2.87,0,8.58,8.68,17.24,17.28,25.83,25.95.93.94,1.39,1.06,2.42,0q38.2-38.32,76.48-76.58c1.13-1.13,1.73-1.25,2.88,0,3.19,3.37,6.53,6.59,9.81,9.87C527.28,415.58,527.75,416.11,528.29,416.68Z"/></svg>