<svg id="Layer_1" data-name="Layer 1" xmlns="http://www.w3.org/2000/svg" viewBox="0 0 600 600"><defs><style>.cls-1{fill:#5fbb46;}</style></defs><path class="cls-1" d="M576.89,135c-.68.86-1.21,1.64-1.84,2.32-1,1.1-2.1,2.13-3.16,3.19Q385.71,326.61,199.61,512.84c-4.28,4.29-6.4,5.28-11.33.31Q107.57,431.76,26.22,351c-3.69-3.67-4.5-5.45-.21-9.54q22.18-21.15,43.36-43.35c4.63-4.84,7.26-4.79,11.94-.05,35.75,36.16,71.84,72,107.62,108.12,3.89,3.92,5.82,4.44,10.08.16Q358.28,246.69,517.75,87.24c4.69-4.7,7.18-5.19,12-.11,13.29,14,27.22,27.46,40.88,41.15C572.69,130.37,574.65,132.57,576.89,135Z"/></svg>